<svg width="1440" height="2290" viewBox="0 0 1440 2290" fill="none" xmlns="http://www.w3.org/2000/svg">
<g clip-path="url(#clip0_758_178)">
<rect width="1440" height="2290" fill="#FFBFC9"/>
<g filter="url(#filter0_f_758_178)">
<path fill-rule="evenodd" clip-rule="evenodd" d="M-561.195 -672.788C-526.221 -772.735 -325.334 -808.543 -246.202 -748.594C-182.806 -700.566 -172.313 -607.202 -162.083 -516.175C-150.326 -411.567 -138.917 -310.047 -47.9598 -283.97C-16.9996 -275.093 10.4542 -291.46 35.7133 -320.925C36.322 -366.023 43.4761 -409.094 66.2277 -447.388C133.804 -561.128 318.089 -747.874 404.801 -647.953C484.878 -555.677 472.527 -417.501 460.331 -281.047C459.778 -274.869 459.227 -268.694 458.683 -262.526C481.37 -264.075 496.012 -255.477 497.921 -230.146C500.609 -194.474 482.148 -169.861 451.68 -150.951C449.867 -53.9149 464.709 33.6428 534.382 92.0838C605.813 152 675.912 69.7884 752.495 -20.0279C779.765 -52.0092 807.856 -84.9548 837.123 -112.791C841.575 -166.711 863.084 -204.683 917.831 -211.39C960.944 -216.672 995.714 -203.634 1025.3 -178.726C1120.48 -158.644 1214.38 -78.2202 1239.01 11.1859C1253.62 64.2504 1244.41 118.373 1223.37 171.078C1239.65 196.867 1257.47 220.076 1277.62 239.036C1299.01 259.163 1330.32 260.701 1361.67 262.241C1392.65 263.763 1423.67 265.287 1445.2 284.751C1466.31 303.833 1470.62 337.328 1474.81 369.794C1479.75 408.195 1484.51 445.156 1516.66 455.123C1572.95 472.576 1632.92 453.482 1692.53 434.502C1756.17 414.237 1819.4 394.104 1877.31 418.721C1956.28 452.287 2038.79 589.422 1980.32 652.219C1921.64 715.246 1832.74 724.805 1742.6 734.497C1667.7 742.552 1591.93 750.698 1531.93 789.692C1505.49 806.876 1521.51 842.112 1537.57 877.438C1545.52 894.925 1553.48 912.435 1556.31 927.788C1563.44 966.577 1579.56 1006.51 1595.62 1046.32C1627.37 1125.03 1658.93 1203.25 1620.5 1271.1C1590.55 1323.98 1515.84 1295.58 1446.49 1269.22C1421.66 1259.78 1397.51 1250.6 1376.35 1245.51C1350.29 1239.24 1325.73 1221.79 1301.63 1204.66C1265.69 1179.12 1230.76 1154.3 1193.32 1168.3C1150.03 1184.5 1106.86 1227.56 1065.5 1276.83C1060.63 1322.8 1040.6 1359.66 995.636 1380.8C989.47 1383.7 983.327 1386.15 977.208 1388.17C914.556 1466.34 860.332 1519.38 822.245 1452.79C801.885 1417.19 796.697 1380.99 801.781 1344.28C746.35 1303.07 692.795 1242.61 640.755 1183.86C600.8 1138.76 561.738 1094.66 523.408 1061.06C490.056 1031.83 470.468 982.435 451.472 934.531C424.256 865.902 398.252 800.329 334.721 801.466C262.871 802.752 216.217 868.92 169.409 935.306C123.257 1000.76 76.9564 1066.43 6.20856 1070.32C-86.6822 1075.43 -140.649 918.489 -125.135 826.76C-112.261 750.642 -57.2134 694.358 -1.46686 637.36C36.568 598.471 74.9281 559.249 100.441 513.169C119.056 479.547 136.193 428.821 111.479 399.39C107.474 394.621 103.276 390.002 98.9057 385.519C85.4114 383.255 72.3236 382.746 59.9084 384.729C29.4317 389.597 3.11444 421.584 -21.6704 451.708C-50.7891 487.1 -77.7926 519.921 -106.941 503.173C-149.282 478.844 -152.047 424.17 -154.825 369.219C-157.534 315.648 -160.256 261.813 -199.674 235.576C-227.52 217.042 -260.768 242.986 -295.77 270.299C-325.845 293.767 -357.214 318.245 -387.564 316.388C-439.857 313.19 -470.797 260.028 -494.818 217.524C-505.818 198.06 -506.05 173.596 -506.28 149.377C-506.553 120.564 -506.824 92.0987 -525.218 72.8173C-558.556 37.871 -619.769 18.1049 -678.693 -0.92218C-767.071 -29.46 -850.301 -56.3353 -826.609 -130.273C-806.492 -193.056 -722.094 -183.204 -635.7 -173.119C-550.288 -163.149 -462.926 -152.952 -433.799 -212.488C-394.776 -292.252 -443.902 -368.649 -493.572 -445.891C-540.929 -519.538 -588.781 -593.953 -561.195 -672.788ZM1002.92 983.348C1018.18 954.966 1030.7 926.445 1038.62 897.818C1048.33 862.727 1038.3 808.094 1004.28 795.105C983.957 787.345 962.359 781.465 939.829 777.003C953.092 801.331 963.811 826.187 968.16 851.999C974.853 891.732 988.177 936.689 1002.92 983.348ZM865.381 533.475C872.851 530.238 879.87 526.599 886.38 522.519C901.574 512.995 909.659 499.761 913.116 484.068C893.122 497.555 876.311 513.31 865.381 533.475Z" fill="#FFBFC9"/>
</g>
<g style="mix-blend-mode:multiply">
<path fill-rule="evenodd" clip-rule="evenodd" d="M641.412 -589.451C883.283 -606.688 694.893 -73.2216 910.669 29.2312C1097.13 117.764 1283.45 -227.34 1488.54 -187.227C1637.99 -157.996 1706.19 42.7551 1701.21 183.855C1695.6 342.796 1592.23 498.86 1460.7 601.392C1326.43 706.058 1288.49 804.933 1139.05 890.256C1097.66 913.89 1169.27 1052.57 1171.23 1097.5C1175.56 1196.6 1027.85 1093.15 984.729 1183.98C951.523 1253.92 842.406 1317.06 766.061 1287.8C658.784 1246.68 677.177 1066.16 569.918 1025.01C490.767 994.637 423.271 1112.32 338.463 1123.73C235.767 1137.54 120.447 1146.26 31.0881 1097.5C-52.2354 1052.02 -107.486 960.728 -122.17 872.335C-136.991 783.117 -101.602 688.732 -49.4974 612.386C-0.0835876 539.983 171.525 537.5 164.606 452.137C148.473 253.095 -207.982 89.7399 -106.126 -86.2697C-23.5479 -228.966 196.925 44.7938 338.463 -50.4775C543.291 -188.351 388.762 -571.446 641.412 -589.451Z" fill="url(#paint0_linear_758_178)"/>
</g>
<g style="mix-blend-mode:luminosity" filter="url(#filter1_f_758_178)">
<path fill-rule="evenodd" clip-rule="evenodd" d="M377.249 -28.0993C490.886 -69.9205 617.51 -57.1147 737.253 -39.1121C878.404 -17.8909 1145.15 -55.7392 1142.66 86.9763C1138.51 325.644 830.547 447.067 725.071 661.203C697.28 717.624 754.267 781.914 770.423 842.698C791.364 921.482 859.708 998.493 835.405 1076.31C812.203 1150.59 701.937 1158.31 652.96 1218.8C597.298 1287.54 617.094 1473.04 531.182 1452.01C393.762 1418.37 387.791 1050.47 267.129 1124.34C38.8788 1264.08 168.311 1776.94 -93.1175 1834.21C-302.493 1880.08 -41.5178 1410.22 -65.7103 1197.25C-72.6533 1136.13 -121.89 1070.58 -181.561 1055.63C-432.483 992.793 -1078.83 1199.07 -946.897 976.571C-780.534 696.016 -299.594 888.752 -2.61964 753.868C54.8441 727.769 -114.593 636.631 -80.9217 583.251C-48.2325 531.428 74.2401 644.243 101.229 589.235C160.192 469.061 56.7943 313.406 111.432 191.205C158.721 85.4406 268.523 11.9143 377.249 -28.0993Z" fill="#FFBFC9"/>
</g>
<g style="mix-blend-mode:multiply" filter="url(#filter2_f_758_178)">
<path d="M217.022 673.961C-76.7961 590.851 -786.906 333.726 -553.297 -370.901C-520.853 -503.395 -419.634 -722.618 -314.871 -621.439C-210.108 -520.26 -41.5244 -488.945 35.5426 -621.439C112.61 -753.933 192.084 -568.438 558.152 -499.782C924.22 -431.126 528.214 -531.307 510.151 -297.636C492.089 -63.9648 658.099 31.3985 1001.29 196.414C1275.84 328.426 1326.01 641.674 1316.78 781.796C1092.8 841.218 151.865 1424.27 -57.1786 1252.75C-318.484 1038.35 510.839 757.071 217.022 673.961Z" fill="url(#paint1_linear_758_178)"/>
</g>
</g>
<defs>
<filter id="filter0_f_758_178" x="-1254.12" y="-1201.22" width="3677.6" height="3107.71" filterUnits="userSpaceOnUse" color-interpolation-filters="sRGB">
<feFlood flood-opacity="0" result="BackgroundImageFix"/>
<feBlend mode="normal" in="SourceGraphic" in2="BackgroundImageFix" result="shape"/>
<feGaussianBlur stdDeviation="211.712" result="effect1_foregroundBlur_758_178"/>
</filter>
<filter id="filter1_f_758_178" x="-1039.43" y="-131.014" width="2257.08" height="2043.32" filterUnits="userSpaceOnUse" color-interpolation-filters="sRGB">
<feFlood flood-opacity="0" result="BackgroundImageFix"/>
<feBlend mode="normal" in="SourceGraphic" in2="BackgroundImageFix" result="shape"/>
<feGaussianBlur stdDeviation="37.4845" result="effect1_foregroundBlur_758_178"/>
</filter>
<filter id="filter2_f_758_178" x="-659.645" y="-727.958" width="2037.41" height="2072.14" filterUnits="userSpaceOnUse" color-interpolation-filters="sRGB">
<feFlood flood-opacity="0" result="BackgroundImageFix"/>
<feBlend mode="normal" in="SourceGraphic" in2="BackgroundImageFix" result="shape"/>
<feGaussianBlur stdDeviation="29.9876" result="effect1_foregroundBlur_758_178"/>
</filter>
<linearGradient id="paint0_linear_758_178" x1="787.95" y1="-589.859" x2="-304.902" y2="1295.13" gradientUnits="userSpaceOnUse">
<stop stop-color="#FFCCD4"/>
<stop offset="1" stop-color="#FFCCD4" stop-opacity="0"/>
</linearGradient>
<linearGradient id="paint1_linear_758_178" x1="362.685" y1="-527.466" x2="1558.45" y2="-42.1984" gradientUnits="userSpaceOnUse">
<stop stop-color="#F5927C"/>
<stop offset="0.667067" stop-color="white" stop-opacity="0"/>
</linearGradient>
<clipPath id="clip0_758_178">
<rect width="1440" height="2290" fill="white"/>
</clipPath>
</defs>
</svg>
