<svg width="1440" height="2561" viewBox="0 0 1440 2561" fill="none" xmlns="http://www.w3.org/2000/svg">
<g clip-path="url(#clip0_786_1318)">
<rect width="1440" height="2560" transform="translate(0 0.848633)" fill="#FCC0E5"/>
<g style="mix-blend-mode:multiply" opacity="0.25" filter="url(#filter0_f_786_1318)">
<path fill-rule="evenodd" clip-rule="evenodd" d="M624.838 751.34C670.535 743.632 688.563 675.91 734.098 667.295C782.527 658.133 836.01 732.498 876.086 703.805C954.717 647.508 942.077 506.362 1026 458.305C1085.08 424.471 1211.36 438.054 1223.03 505.132C1244.48 628.399 1104.02 729.775 1094.96 854.567C1092.25 891.881 1160.56 888.532 1193.97 905.371C1277.17 947.309 1404.97 943.816 1441.82 1029.4C1467.73 1089.55 1359.26 1130.02 1308.58 1171.5C1267.56 1205.06 1187.19 1199.44 1172 1250.21C1136.23 1369.72 1297.66 1637.34 1173.96 1621.25C1016.37 1600.77 1023.22 1344.66 926.793 1218.34C909.262 1195.37 869.904 1175.52 845.382 1190.8C689.951 1287.65 599.498 1576.74 421.636 1533.1C276.812 1497.58 603.252 1283.18 616.492 1134.65C622.068 1072.09 515.537 1062.44 467.16 1022.38C364.514 937.385 100.502 878.059 167.516 762.864C244.853 629.924 473.182 776.92 624.838 751.34Z" fill="#FF7FC4"/>
</g>
<g style="mix-blend-mode:multiply" filter="url(#filter1_f_786_1318)">
<path d="M275.733 1422.5C-45.2441 1428.73 -570.048 1216.16 -760.617 459.357C-806.635 323.535 -790.684 94.925 -698.507 -108.039C-599.654 -325.701 -415.518 -450.161 -273.487 -548.614C-76.9164 -684.873 121.933 -708.612 262.615 -515.222C312.794 -446.243 284.301 -306.868 328.836 -234.118C478.161 9.81196 586.538 10.9479 984.095 -36.4684C1302.14 -74.4013 1378.13 452.654 1378.13 452.654C1378.13 452.654 1277.8 890.287 1038.63 1113.46C777.189 1357.42 561.858 1416.95 275.733 1422.5Z" fill="url(#paint0_linear_786_1318)"/>
</g>
<circle cx="990.957" cy="378.752" r="735.649" fill="url(#paint1_linear_786_1318)"/>
<circle cx="778.736" cy="853.398" r="776.894" fill="url(#paint2_linear_786_1318)"/>
<g opacity="0.25" filter="url(#filter2_f_786_1318)">
<path fill-rule="evenodd" clip-rule="evenodd" d="M-424.01 1377.98C-469.419 1282.29 -351.703 1115.54 -253.255 1102.54C-174.384 1092.12 -101.262 1151.15 -29.9704 1208.71C51.9578 1274.85 131.468 1339.04 214.508 1293.63C242.773 1278.17 250.792 1247.22 248.038 1208.5C216.756 1175.99 191.556 1140.32 180.81 1097.08C148.892 968.649 148.651 706.211 280.602 716.309C402.456 725.634 490.843 832.609 578.128 938.25C582.08 943.033 586.03 947.814 589.981 952.583C605.029 935.527 621.492 931.346 640.663 948.022C667.661 971.506 671.839 1002 663.464 1036.88C730.415 1107.18 802.548 1159.02 893.207 1151.59C986.155 1143.98 978.203 1036.2 969.516 918.458C966.423 876.531 963.237 833.34 964.479 792.957C929.727 751.471 918.324 709.335 952.55 666.063C979.503 631.986 1013.41 616.809 1051.97 613.718C1133.8 561.071 1257.15 552.244 1337.54 598.523C1385.25 625.99 1416.76 670.969 1438.86 723.258C1468.58 730.149 1497.57 734.131 1525.24 733.445C1554.62 732.717 1577.97 711.793 1601.35 690.842C1624.46 670.138 1647.59 649.408 1676.6 648.111C1705.03 646.84 1731.66 667.633 1757.46 687.787C1787.99 711.626 1817.36 734.57 1847.24 719.052C1899.56 691.878 1928.79 636.122 1957.84 580.702C1988.86 521.532 2019.68 462.743 2078.19 439.527C2157.96 407.874 2313.09 447.397 2315.67 533.182C2318.25 619.282 2261.74 688.599 2204.43 758.886C2156.81 817.292 2108.65 876.368 2093.39 946.3C2086.67 977.118 2122.84 990.917 2159.11 1004.75C2177.06 1011.6 2195.04 1018.46 2207.85 1027.39C2240.2 1049.97 2279.75 1067.04 2319.17 1084.07C2397.11 1117.72 2474.56 1151.17 2494.94 1226.46C2510.82 1285.13 2437.71 1317.47 2369.84 1347.49C2345.54 1358.24 2321.91 1368.69 2303.28 1379.95C2280.32 1393.82 2250.59 1398.67 2221.4 1403.44C2177.87 1410.55 2135.57 1417.45 2118.78 1453.75C2099.37 1495.71 2098.95 1556.71 2104.18 1620.84C2133.05 1656.96 2144.73 1697.27 2127.6 1743.93C2125.26 1750.33 2122.61 1756.39 2119.68 1762.13C2130.08 1861.79 2128.81 1937.66 2054.89 1917.07C2015.37 1906.07 1986.23 1883.97 1964.02 1854.27C1895.61 1863.94 1815 1858.6 1736.67 1853.41C1676.53 1849.42 1617.73 1845.52 1566.84 1848.58C1522.55 1851.24 1473.88 1829.88 1426.68 1809.16C1359.06 1779.48 1294.45 1751.13 1250.05 1796.61C1199.85 1848.06 1213.2 1927.93 1226.58 2008.07C1239.79 2087.09 1253.03 2166.36 1205.44 2218.89C1142.96 2287.84 994.202 2214.16 940.73 2138C896.358 2074.8 895.934 1996.05 895.504 1916.3C895.211 1861.89 894.915 1807.02 880.657 1756.3C870.254 1719.29 846.772 1671.15 808.495 1667.6C802.291 1667.02 796.057 1666.69 789.795 1666.57C778.605 1674.45 768.937 1683.29 761.5 1693.44C743.244 1718.33 747.019 1759.59 750.573 1798.45C754.749 1844.1 758.622 1886.44 726.11 1895.03C678.882 1907.5 638.466 1870.55 597.845 1833.41C558.244 1797.21 518.449 1760.83 471.958 1769.89C439.116 1776.29 433.711 1818.12 428.02 1862.17C423.131 1900.01 418.032 1939.48 395.137 1959.51C355.69 1994.01 296.295 1977.95 249.318 1964.61C227.805 1958.5 210.435 1941.26 193.239 1924.19C172.782 1903.89 152.572 1883.83 125.928 1883.05C77.6375 1881.64 20.194 1910.63 -35.1018 1938.53C-118.037 1980.38 -196.141 2019.8 -231.285 1950.54C-261.127 1891.73 -194.164 1839.39 -125.617 1785.81C-57.8488 1732.83 11.4668 1678.65 -9.68304 1615.81C-38.0187 1531.63 -126.69 1511.84 -216.342 1491.82C-301.821 1472.74 -388.193 1453.46 -424.01 1377.98ZM1853.28 1456.08C1844.17 1425.16 1833.02 1396.07 1818.52 1370.14C1800.75 1338.34 1755.19 1306.54 1721.86 1321.22C1701.95 1329.99 1682.45 1341 1663.28 1353.67C1689.83 1361.65 1714.93 1371.79 1736.18 1387.1C1768.88 1410.65 1809.98 1433.26 1853.28 1456.08ZM1439.07 1232.8C1442.1 1225.24 1444.54 1217.72 1446.3 1210.24C1450.41 1192.78 1446.85 1177.68 1438.28 1164.08C1433.54 1187.74 1432.66 1210.77 1439.07 1232.8Z" fill="#D7D1FF"/>
</g>
<g opacity="0.15" filter="url(#filter3_f_786_1318)">
<path fill-rule="evenodd" clip-rule="evenodd" d="M-331.64 1318.8C-358.735 1261.7 -288.496 1162.21 -229.754 1154.45C-182.693 1148.23 -139.063 1183.45 -96.5246 1217.8C-47.6396 1257.26 -0.197467 1295.57 49.3507 1268.47C66.216 1259.24 71.001 1240.78 69.3576 1217.67C50.6924 1198.27 35.6558 1176.99 29.2438 1151.19C10.1991 1074.56 10.0554 917.968 88.7878 923.993C161.496 929.557 214.234 993.387 266.315 1056.42C268.674 1059.28 271.03 1062.13 273.388 1064.97C282.367 1054.8 292.19 1052.3 303.629 1062.25C319.738 1076.26 322.231 1094.46 317.234 1115.27C357.182 1157.22 400.222 1188.15 454.317 1183.72C509.777 1179.18 505.033 1114.87 499.849 1044.61C498.004 1019.59 496.102 993.823 496.844 969.727C476.108 944.973 469.304 919.832 489.726 894.013C505.809 873.68 526.037 864.624 549.047 862.78C597.871 831.366 671.472 826.099 719.441 853.713C747.912 870.102 766.711 896.94 779.896 928.14C797.631 932.251 814.93 934.628 831.441 934.218C848.967 933.784 862.901 921.299 876.853 908.798C890.64 896.444 904.445 884.075 921.752 883.301C938.718 882.543 954.604 894.95 970.002 906.975C988.214 921.199 1005.74 934.889 1023.57 925.63C1054.79 909.416 1072.23 876.148 1089.56 843.079C1108.07 807.774 1126.46 772.696 1161.37 758.843C1208.97 739.956 1301.54 763.539 1303.07 814.725C1304.61 866.099 1270.89 907.459 1236.7 949.398C1208.29 984.248 1179.55 1019.5 1170.44 1061.22C1166.43 1079.61 1188.02 1087.85 1209.66 1096.1C1220.37 1100.19 1231.1 1104.28 1238.74 1109.61C1258.04 1123.08 1281.64 1133.27 1305.16 1143.43C1351.67 1163.51 1397.88 1183.46 1410.04 1228.39C1419.52 1263.4 1375.89 1282.7 1335.39 1300.61C1320.89 1307.02 1306.79 1313.26 1295.68 1319.97C1281.98 1328.25 1264.24 1331.15 1246.82 1333.99C1220.85 1338.23 1195.61 1342.35 1185.59 1364.01C1174.01 1389.05 1173.76 1425.44 1176.88 1463.71C1194.11 1485.26 1201.07 1509.31 1190.86 1537.15C1189.46 1540.97 1187.88 1544.59 1186.13 1548.01C1192.34 1607.48 1191.58 1652.75 1147.47 1640.46C1123.89 1633.9 1106.5 1620.71 1093.25 1602.99C1052.43 1608.76 1004.33 1605.58 957.593 1602.48C921.708 1600.1 886.625 1597.77 856.258 1599.6C829.834 1601.18 800.794 1588.44 772.63 1576.08C732.281 1558.37 693.729 1541.45 667.24 1568.59C637.284 1599.28 645.247 1646.95 653.237 1694.76C661.114 1741.91 669.017 1789.21 640.622 1820.55C603.339 1861.7 514.579 1817.73 482.673 1772.29C456.197 1734.58 455.944 1687.59 455.688 1640.01C455.513 1607.54 455.336 1574.8 446.829 1544.53C440.621 1522.45 426.61 1493.73 403.771 1491.61C400.069 1491.27 396.349 1491.07 392.613 1491C385.936 1495.7 380.167 1500.97 375.73 1507.03C364.837 1521.88 367.089 1546.5 369.21 1569.69C371.702 1596.93 374.013 1622.19 354.613 1627.31C326.433 1634.75 302.318 1612.7 278.08 1590.55C254.451 1568.95 230.706 1547.24 202.966 1552.64C183.37 1556.46 180.145 1581.42 176.749 1607.7C173.832 1630.28 170.789 1653.84 157.129 1665.78C133.591 1686.37 98.1515 1676.79 70.121 1668.83C57.2849 1665.18 46.9204 1654.9 36.6602 1644.71C24.4537 1632.6 12.3948 1620.63 -3.50318 1620.17C-32.3171 1619.32 -66.5925 1636.62 -99.5864 1653.27C-149.072 1678.24 -195.675 1701.76 -216.645 1660.43C-234.451 1625.35 -194.495 1594.11 -153.595 1562.14C-113.159 1530.53 -71.7999 1498.2 -84.4195 1460.71C-101.327 1410.48 -154.235 1398.67 -207.729 1386.73C-258.733 1375.34 -310.269 1363.83 -331.64 1318.8ZM1027.17 1365.4C1021.74 1346.95 1015.08 1329.59 1006.43 1314.12C995.832 1295.15 968.647 1276.17 948.759 1284.93C936.877 1290.17 925.242 1296.73 913.807 1304.29C929.645 1309.06 944.624 1315.11 957.301 1324.24C976.814 1338.29 1001.33 1351.78 1027.17 1365.4ZM780.021 1232.17C781.833 1227.66 783.285 1223.17 784.336 1218.71C786.789 1208.29 784.667 1199.28 779.549 1191.17C776.722 1205.28 776.197 1219.03 780.021 1232.17Z" fill="#F4A3D5"/>
</g>
<g style="mix-blend-mode:overlay" opacity="0.8" filter="url(#filter4_f_786_1318)">
<path d="M658.947 1314.62C532.828 1282.94 402.831 1278.46 117.745 1142C90.3689 1131.5 39.3728 1211.91 1.81083 1289.11C28.6044 1329.34 6.33592 1384.99 -34.9989 1418.19C-58.9366 1437.42 -35.0215 1364.81 1.81083 1289.11C-2.73621 1282.28 -8.69625 1275.9 -16.2159 1270.15C-68.0453 1230.49 14.5609 1206.85 63.1807 1055.87C111.8 904.887 48.2607 1066.83 145.986 1086.98C243.712 1107.13 292.888 1042.11 380.98 905.954C451.454 797.033 586.447 792.621 645.134 804.03C658.226 901.842 854.049 1330.62 770.4 1409.75C665.84 1508.66 767.447 1341.87 658.947 1314.62Z" fill="#FCC0E5"/>
</g>
<g style="mix-blend-mode:color" filter="url(#filter5_f_786_1318)">
<path d="M609.259 644.176C911.468 528.692 724.743 138.745 746.49 116.998C799.733 80.2533 905.018 28.8104 900.219 116.998C894.22 227.233 1251.92 155.243 1592.37 396.71C1932.83 638.177 1641.87 731.914 1592.37 989.879C1542.88 1247.84 1482.89 1253.84 1251.92 1138.36C1020.95 1022.87 944.463 1369.33 746.49 1649.04C548.518 1928.75 505.024 1577.8 16.0905 1517.06C-472.843 1456.31 126.325 1187.85 153.322 902.141C180.318 616.43 307.051 759.66 609.259 644.176Z" fill="#FFA9DE"/>
</g>
<g filter="url(#filter6_f_786_1318)">
<path fill-rule="evenodd" clip-rule="evenodd" d="M1269.72 317.801C1304.09 312.003 1317.65 261.069 1351.9 254.589C1388.32 247.698 1428.55 303.629 1458.69 282.049C1517.83 239.706 1508.32 133.548 1571.44 97.403C1615.88 71.9556 1710.86 82.1712 1719.64 132.622C1735.77 225.335 1630.13 301.582 1623.31 395.441C1621.27 423.505 1672.65 420.986 1697.78 433.651C1760.36 465.194 1856.48 462.567 1884.2 526.933C1903.68 572.174 1822.1 602.617 1783.98 633.813C1753.13 659.057 1692.68 654.828 1681.25 693.015C1654.35 782.898 1775.77 984.178 1682.73 972.084C1564.2 956.676 1569.35 764.048 1496.83 669.041C1483.64 651.767 1454.04 636.838 1435.6 648.33C1318.69 721.173 1250.66 938.601 1116.89 905.784C1007.96 879.062 1253.49 717.81 1263.44 606.097C1267.64 559.043 1187.51 551.789 1151.13 521.659C1073.93 457.73 875.357 413.109 925.76 326.468C983.927 226.481 1155.66 337.041 1269.72 317.801Z" fill="#FF7FC4"/>
</g>
<g style="mix-blend-mode:overlay" filter="url(#filter7_f_786_1318)">
<path d="M708.246 902.141C582.263 671.173 741.241 638.177 1004.46 292.475C883.722 279.726 583.013 244.331 346.045 204.737C49.8362 155.243 219.313 292.475 131.575 989.879C43.8367 1687.28 142.823 1143.61 346.045 1138.36C549.268 1133.11 460.78 1055.87 708.246 1204.35C955.712 1352.83 878.472 1088.87 708.246 902.141Z" fill="#FF7FC4"/>
</g>
<g opacity="0.7" filter="url(#filter8_f_786_1318)">
<path fill-rule="evenodd" clip-rule="evenodd" d="M1027.6 1525.44C1051.18 1551.1 1101.28 1534.73 1125.37 1559.92C1150.99 1586.72 1125.99 1650.92 1160.51 1664.44C1228.23 1690.98 1312.08 1625.18 1376.78 1658.43C1422.32 1681.84 1465.49 1767.05 1427.96 1801.89C1358.99 1865.92 1237.51 1818.85 1155.08 1864.26C1130.43 1877.84 1160.53 1919.55 1163.59 1947.52C1171.23 2017.19 1225.78 2096.37 1186.9 2154.67C1159.57 2195.65 1089.61 2143.82 1042.68 2128.84C1004.71 2116.72 975.331 2063.72 937.08 2074.94C847.046 2101.33 744.376 2312.79 703.842 2228.17C652.205 2120.38 816.557 2019.78 856.734 1907.21C864.038 1886.74 860.435 1853.79 840.751 1844.58C715.987 1786.21 496.587 1847.59 451.245 1717.53C414.326 1611.62 484.613 1641 583.724 1588.5C625.47 1566.39 475.538 1489.2 480.988 1442.27C492.552 1342.71 732.867 1246.62 832.981 1241.69C948.517 1236.02 949.335 1440.26 1027.6 1525.44Z" fill="#FF7FC4"/>
</g>
<g style="mix-blend-mode:soft-light" filter="url(#filter9_f_786_1318)">
<path d="M690.248 1264.34C727.743 992.879 746.491 1133.86 1125.19 857.897L1130.44 855.647C1128.69 856.397 1111.24 847.549 1055.45 806.154C985.707 754.411 999.206 885.643 769.737 974.881C540.269 1064.12 690.248 1025.87 400.038 998.128C109.828 970.382 362.543 890.143 690.248 908.89C1017.95 927.638 807.232 810.654 909.968 544.44C1012.7 278.227 1083.19 665.924 1359.16 768.66C1635.12 871.396 1546.63 857.897 1471.64 1067.87C1396.65 1277.84 1359.16 1124.11 1298.41 1316.08C1237.67 1508.06 1387.65 1489.31 1153.68 1577.8C919.717 1666.29 1149.19 1503.56 994.706 1409.82C840.228 1316.08 652.753 1535.8 690.248 1264.34Z" fill="#FF87C9"/>
</g>
</g>
<defs>
<filter id="filter0_f_786_1318" x="6.78275" y="290.486" width="1588.96" height="1481.44" filterUnits="userSpaceOnUse" color-interpolation-filters="sRGB">
<feFlood flood-opacity="0" result="BackgroundImageFix"/>
<feBlend mode="normal" in="SourceGraphic" in2="BackgroundImageFix" result="shape"/>
<feGaussianBlur stdDeviation="74.9897" result="effect1_foregroundBlur_786_1318"/>
</filter>
<filter id="filter1_f_786_1318" x="-845.552" y="-715.555" width="2283.67" height="2198.18" filterUnits="userSpaceOnUse" color-interpolation-filters="sRGB">
<feFlood flood-opacity="0" result="BackgroundImageFix"/>
<feBlend mode="normal" in="SourceGraphic" in2="BackgroundImageFix" result="shape"/>
<feGaussianBlur stdDeviation="29.9959" result="effect1_foregroundBlur_786_1318"/>
</filter>
<filter id="filter2_f_786_1318" x="-857.592" y="5.13712" width="3778.27" height="2664.74" filterUnits="userSpaceOnUse" color-interpolation-filters="sRGB">
<feFlood flood-opacity="0" result="BackgroundImageFix"/>
<feBlend mode="normal" in="SourceGraphic" in2="BackgroundImageFix" result="shape"/>
<feGaussianBlur stdDeviation="211.771" result="effect1_foregroundBlur_786_1318"/>
</filter>
<filter id="filter3_f_786_1318" x="-761.172" y="328.829" width="2596.07" height="1931.64" filterUnits="userSpaceOnUse" color-interpolation-filters="sRGB">
<feFlood flood-opacity="0" result="BackgroundImageFix"/>
<feBlend mode="normal" in="SourceGraphic" in2="BackgroundImageFix" result="shape"/>
<feGaussianBlur stdDeviation="211.771" result="effect1_foregroundBlur_786_1318"/>
</filter>
<filter id="filter4_f_786_1318" x="-164.602" y="679.757" width="1075.7" height="881.005" filterUnits="userSpaceOnUse" color-interpolation-filters="sRGB">
<feFlood flood-opacity="0" result="BackgroundImageFix"/>
<feBlend mode="normal" in="SourceGraphic" in2="BackgroundImageFix" result="shape"/>
<feGaussianBlur stdDeviation="59.9918" result="effect1_foregroundBlur_786_1318"/>
</filter>
<filter id="filter5_f_786_1318" x="-250.243" y="-6.68456" width="2080.53" height="1837.56" filterUnits="userSpaceOnUse" color-interpolation-filters="sRGB">
<feFlood flood-opacity="0" result="BackgroundImageFix"/>
<feBlend mode="normal" in="SourceGraphic" in2="BackgroundImageFix" result="shape"/>
<feGaussianBlur stdDeviation="37.4949" result="effect1_foregroundBlur_786_1318"/>
</filter>
<filter id="filter6_f_786_1318" x="692.702" y="-140.984" width="1419.43" height="1338.56" filterUnits="userSpaceOnUse" color-interpolation-filters="sRGB">
<feFlood flood-opacity="0" result="BackgroundImageFix"/>
<feBlend mode="normal" in="SourceGraphic" in2="BackgroundImageFix" result="shape"/>
<feGaussianBlur stdDeviation="112.485" result="effect1_foregroundBlur_786_1318"/>
</filter>
<filter id="filter7_f_786_1318" x="-50.4873" y="45.6499" width="1204.92" height="1449.43" filterUnits="userSpaceOnUse" color-interpolation-filters="sRGB">
<feFlood flood-opacity="0" result="BackgroundImageFix"/>
<feBlend mode="normal" in="SourceGraphic" in2="BackgroundImageFix" result="shape"/>
<feGaussianBlur stdDeviation="74.9897" result="effect1_foregroundBlur_786_1318"/>
</filter>
<filter id="filter8_f_786_1318" x="216.297" y="1016.61" width="1450.92" height="1456.4" filterUnits="userSpaceOnUse" color-interpolation-filters="sRGB">
<feFlood flood-opacity="0" result="BackgroundImageFix"/>
<feBlend mode="normal" in="SourceGraphic" in2="BackgroundImageFix" result="shape"/>
<feGaussianBlur stdDeviation="112.485" result="effect1_foregroundBlur_786_1318"/>
</filter>
<filter id="filter9_f_786_1318" x="122.744" y="302.731" width="1574.4" height="1450.56" filterUnits="userSpaceOnUse" color-interpolation-filters="sRGB">
<feFlood flood-opacity="0" result="BackgroundImageFix"/>
<feBlend mode="normal" in="SourceGraphic" in2="BackgroundImageFix" result="shape"/>
<feGaussianBlur stdDeviation="74.9897" result="effect1_foregroundBlur_786_1318"/>
</filter>
<linearGradient id="paint0_linear_786_1318" x1="68.2929" y1="-354.689" x2="1429.5" y2="641.555" gradientUnits="userSpaceOnUse">
<stop stop-color="#F57CDA"/>
<stop offset="1" stop-color="white" stop-opacity="0"/>
</linearGradient>
<linearGradient id="paint1_linear_786_1318" x1="1938.08" y1="-1327.26" x2="990.957" y2="1114.4" gradientUnits="userSpaceOnUse">
<stop stop-color="#FFCBBB"/>
<stop offset="1" stop-color="#FFCBBB" stop-opacity="0"/>
</linearGradient>
<linearGradient id="paint2_linear_786_1318" x1="1778.96" y1="-948.267" x2="778.736" y2="1630.29" gradientUnits="userSpaceOnUse">
<stop stop-color="#FCC0E5"/>
<stop offset="1" stop-color="#FFCBBB" stop-opacity="0"/>
</linearGradient>
<clipPath id="clip0_786_1318">
<rect width="1440" height="2560" fill="white" transform="translate(0 0.848633)"/>
</clipPath>
</defs>
</svg>
