<svg width="1440" height="2116" viewBox="0 0 1440 2116" fill="none" xmlns="http://www.w3.org/2000/svg">
<g clip-path="url(#clip0_2063_317)">
<rect width="1440" height="2116" fill="#FFCBBB"/>
<g style="mix-blend-mode:multiply" filter="url(#filter0_f_2063_317)">
<path d="M497.13 730.439C203.251 647.311 -507.009 390.132 -273.351 -314.644C-240.899 -447.166 -139.659 -666.435 -34.8742 -565.235C69.9108 -464.035 238.53 -432.713 315.614 -565.235C392.697 -697.757 472.188 -512.222 838.333 -443.552C1204.48 -374.881 808.388 -475.084 790.322 -241.363C772.255 -7.64294 938.301 87.7406 1281.56 252.791C1556.17 384.831 1705.73 1565.35 1696.5 1705.5C1472.48 1764.93 -399.411 2609.56 -608.499 2438C-869.86 2223.56 791.01 813.566 497.13 730.439Z" fill="url(#paint0_linear_2063_317)"/>
</g>
<g style="mix-blend-mode:hard-light" opacity="0.5" filter="url(#filter1_f_2063_317)">
<path d="M447.655 2351.66C56.8504 2346.3 -1041.81 2581.66 -986.274 1633.55C-990.028 1459.08 -1291.68 1291.41 -1128.64 1381.73C-965.611 1472.05 -611.465 1442.07 -463.752 1313.07C-283.075 1155.27 -130.063 1142.51 345.289 1106.07C820.642 1069.63 755.219 1333.79 904.579 1579.3C1060.41 1835.45 1228.65 1928.7 1707.62 2018.91C2090.8 2091.08 1672.64 2262.18 1707.62 2438.39C1450.37 2586.02 857.036 2845.61 541.776 2702.92C147.7 2524.55 838.46 2357.01 447.655 2351.66Z" fill="url(#paint1_linear_2063_317)"/>
</g>
<g style="mix-blend-mode:overlay" filter="url(#filter2_f_2063_317)">
<path fill-rule="evenodd" clip-rule="evenodd" d="M1139.34 -413.392C1291.73 -477.953 1456.73 -313.384 1589.96 -215.19C1713.03 -124.477 1819.3 -5.88351 1881.63 133.723C1939.51 263.341 1975 417.269 1932.9 552.834C1887.71 698.317 1642.8 748.945 1643.23 901.284C1643.6 1035.52 1885.33 1049.4 1934.64 1174.26C1976.57 1280.45 1987.7 1463.12 1883.6 1510.01C1738.59 1575.33 1510.39 1272.58 1422.33 1405.02C1262.96 1644.72 1611.54 2083.21 1384.67 2260.37C1212.17 2395.08 1209.47 1753.92 990.933 1741.91C728.796 1727.51 618.805 2256.53 361.552 2204.15C159.761 2163.07 206.285 1789.48 279.76 1597.1C371.33 1357.35 739.019 1291.14 804.988 1043.11C837.05 922.561 555.497 975.666 468.933 885.853C381.105 794.728 325.714 666.496 320.137 540.059C314.501 412.309 340.868 261.826 437.723 178.334C535.432 94.1064 717.179 195.958 815.792 112.791C974.541 -21.0929 948.129 -332.382 1139.34 -413.392Z" fill="url(#paint2_linear_2063_317)"/>
</g>
</g>
<defs>
<filter id="filter0_f_2063_317" x="-676.516" y="-651.788" width="2413.42" height="3152.74" filterUnits="userSpaceOnUse" color-interpolation-filters="sRGB">
<feFlood flood-opacity="0" result="BackgroundImageFix"/>
<feBlend mode="normal" in="SourceGraphic" in2="BackgroundImageFix" result="shape"/>
<feGaussianBlur stdDeviation="20" result="effect1_foregroundBlur_2063_317"/>
</filter>
<filter id="filter1_f_2063_317" x="-1276.95" y="1002.68" width="3247.36" height="1841.7" filterUnits="userSpaceOnUse" color-interpolation-filters="sRGB">
<feFlood flood-opacity="0" result="BackgroundImageFix"/>
<feBlend mode="normal" in="SourceGraphic" in2="BackgroundImageFix" result="shape"/>
<feGaussianBlur stdDeviation="50" result="effect1_foregroundBlur_2063_317"/>
</filter>
<filter id="filter2_f_2063_317" x="157" y="-488" width="1867.93" height="2826.96" filterUnits="userSpaceOnUse" color-interpolation-filters="sRGB">
<feFlood flood-opacity="0" result="BackgroundImageFix"/>
<feBlend mode="normal" in="SourceGraphic" in2="BackgroundImageFix" result="shape"/>
<feGaussianBlur stdDeviation="30" result="effect1_foregroundBlur_2063_317"/>
</filter>
<linearGradient id="paint0_linear_2063_317" x1="642.824" y1="-471.242" x2="1226.43" y2="1023.72" gradientUnits="userSpaceOnUse">
<stop stop-color="#FFB8A8" stop-opacity="0.55"/>
<stop offset="1" stop-color="white" stop-opacity="0"/>
</linearGradient>
<linearGradient id="paint1_linear_2063_317" x1="-835" y1="889.499" x2="1783.61" y2="2071.29" gradientUnits="userSpaceOnUse">
<stop stop-color="#FFC691"/>
<stop offset="1" stop-color="#FF0D0D" stop-opacity="0.5"/>
</linearGradient>
<linearGradient id="paint2_linear_2063_317" x1="1090.97" y1="-428" x2="1090.97" y2="2278.96" gradientUnits="userSpaceOnUse">
<stop stop-color="#F75F5F"/>
<stop offset="1" stop-color="#FFDADA" stop-opacity="0"/>
</linearGradient>
<clipPath id="clip0_2063_317">
<rect width="1440" height="2116" fill="white"/>
</clipPath>
</defs>
</svg>
