<?xml version="1.0" encoding="UTF-8" standalone="no"?>
<!DOCTYPE svg PUBLIC "-//W3C//DTD SVG 1.1//EN" "http://www.w3.org/Graphics/SVG/1.1/DTD/svg11.dtd">
<svg width="100%" height="100%" viewBox="0 0 160 33" version="1.1"
    xmlns="http://www.w3.org/2000/svg"
    style="fill-rule:evenodd;clip-rule:evenodd;stroke-linejoin:round;stroke-miterlimit:2;fill:currentColor">
    <path d="M42.854,24.18C42.735,24.18 42.623,24.135 42.519,24.046C42.43,23.942 42.385,23.83 42.385,23.711C42.385,23.621 42.392,23.554 42.407,23.51L47.655,9.172C47.7,8.993 47.797,8.845 47.946,8.725C48.095,8.606 48.288,8.547 48.526,8.547L51.832,8.547C52.07,8.547 52.263,8.606 52.412,8.725C52.561,8.845 52.658,8.993 52.703,9.172L57.928,23.51L57.973,23.711C57.973,23.83 57.921,23.942 57.817,24.046C57.727,24.135 57.616,24.18 57.482,24.18L54.735,24.18C54.378,24.18 54.139,24.023 54.02,23.711L53.149,21.433L47.186,21.433L46.338,23.711C46.219,24.023 45.973,24.18 45.601,24.18L42.854,24.18ZM52.256,18.217L50.179,12.321L48.102,18.217L52.256,18.217Z" style="fill-rule:nonzero;"/>
    <path d="M63.026,24.403C61.82,24.403 60.808,24.232 59.989,23.889C59.185,23.547 58.589,23.138 58.202,22.661C57.815,22.185 57.622,21.76 57.622,21.388C57.622,21.239 57.674,21.12 57.778,21.031C57.897,20.927 58.024,20.874 58.158,20.874L60.704,20.874C60.793,20.874 60.875,20.912 60.949,20.986C61.128,21.105 61.262,21.202 61.351,21.276C61.679,21.515 61.962,21.693 62.2,21.812C62.453,21.917 62.758,21.969 63.115,21.969C63.547,21.969 63.897,21.887 64.165,21.723C64.448,21.544 64.59,21.299 64.59,20.986C64.59,20.733 64.515,20.532 64.366,20.383C64.232,20.234 63.964,20.093 63.562,19.959C63.16,19.81 62.55,19.654 61.731,19.49C60.495,19.237 59.542,18.827 58.872,18.262C58.217,17.681 57.89,16.907 57.89,15.939C57.89,15.329 58.083,14.748 58.47,14.197C58.857,13.646 59.431,13.199 60.19,12.857C60.964,12.515 61.88,12.343 62.937,12.343C63.994,12.343 64.917,12.507 65.706,12.835C66.495,13.162 67.091,13.564 67.493,14.041C67.91,14.502 68.118,14.927 68.118,15.314C68.118,15.448 68.066,15.567 67.962,15.671C67.872,15.775 67.761,15.827 67.627,15.827L65.304,15.827C65.185,15.827 65.073,15.79 64.969,15.716C64.776,15.611 64.604,15.5 64.456,15.381C64.202,15.187 63.964,15.038 63.741,14.934C63.518,14.83 63.242,14.778 62.914,14.778C62.527,14.778 62.215,14.867 61.977,15.046C61.753,15.224 61.642,15.455 61.642,15.738C61.642,15.961 61.701,16.147 61.82,16.296C61.954,16.445 62.222,16.594 62.624,16.743C63.041,16.877 63.652,17.018 64.456,17.167C65.9,17.42 66.949,17.867 67.604,18.507C68.274,19.147 68.609,19.899 68.609,20.763C68.609,21.865 68.118,22.75 67.135,23.42C66.153,24.076 64.783,24.403 63.026,24.403Z" style="fill-rule:nonzero;"/>
    <path d="M74.129,24.403C72.924,24.403 71.911,24.232 71.092,23.889C70.288,23.547 69.693,23.138 69.306,22.661C68.919,22.185 68.725,21.76 68.725,21.388C68.725,21.239 68.777,21.12 68.881,21.031C69,20.927 69.127,20.874 69.261,20.874L71.807,20.874C71.896,20.874 71.978,20.912 72.053,20.986C72.231,21.105 72.365,21.202 72.455,21.276C72.782,21.515 73.065,21.693 73.303,21.812C73.556,21.917 73.862,21.969 74.219,21.969C74.651,21.969 75.001,21.887 75.269,21.723C75.551,21.544 75.693,21.299 75.693,20.986C75.693,20.733 75.618,20.532 75.47,20.383C75.336,20.234 75.068,20.093 74.666,19.959C74.263,19.81 73.653,19.654 72.834,19.49C71.599,19.237 70.646,18.827 69.976,18.262C69.321,17.681 68.993,16.907 68.993,15.939C68.993,15.329 69.187,14.748 69.574,14.197C69.961,13.646 70.534,13.199 71.293,12.857C72.068,12.515 72.983,12.343 74.04,12.343C75.097,12.343 76.02,12.507 76.809,12.835C77.599,13.162 78.194,13.564 78.596,14.041C79.013,14.502 79.221,14.927 79.221,15.314C79.221,15.448 79.169,15.567 79.065,15.671C78.976,15.775 78.864,15.827 78.73,15.827L76.407,15.827C76.288,15.827 76.177,15.79 76.072,15.716C75.879,15.611 75.708,15.5 75.559,15.381C75.306,15.187 75.068,15.038 74.844,14.934C74.621,14.83 74.345,14.778 74.018,14.778C73.631,14.778 73.318,14.867 73.08,15.046C72.857,15.224 72.745,15.455 72.745,15.738C72.745,15.961 72.804,16.147 72.924,16.296C73.058,16.445 73.326,16.594 73.728,16.743C74.144,16.877 74.755,17.018 75.559,17.167C77.003,17.42 78.053,17.867 78.708,18.507C79.378,19.147 79.713,19.899 79.713,20.763C79.713,21.865 79.221,22.75 78.239,23.42C77.256,24.076 75.886,24.403 74.129,24.403Z" style="fill-rule:nonzero;"/>
    <path d="M85.814,24.403C84.027,24.403 82.62,23.919 81.593,22.951C80.565,21.984 80.029,20.577 79.985,18.731L79.985,17.949C80.044,16.192 80.588,14.822 81.615,13.84C82.657,12.842 84.049,12.343 85.791,12.343C87.057,12.343 88.121,12.604 88.985,13.125C89.863,13.631 90.518,14.331 90.95,15.224C91.397,16.118 91.62,17.145 91.62,18.306L91.62,18.842C91.62,18.991 91.568,19.125 91.464,19.244C91.359,19.348 91.225,19.401 91.062,19.401L83.915,19.401L83.915,19.557C83.945,20.257 84.116,20.822 84.429,21.254C84.742,21.686 85.196,21.902 85.791,21.902C86.163,21.902 86.469,21.827 86.707,21.678C86.945,21.515 87.161,21.321 87.354,21.098C87.488,20.934 87.593,20.837 87.667,20.807C87.756,20.763 87.89,20.74 88.069,20.74L90.838,20.74C90.972,20.74 91.084,20.785 91.173,20.874C91.278,20.949 91.33,21.053 91.33,21.187C91.33,21.574 91.106,22.021 90.66,22.527C90.228,23.033 89.595,23.473 88.761,23.845C87.928,24.217 86.945,24.403 85.814,24.403ZM87.689,17.19L87.689,17.145C87.689,16.415 87.518,15.842 87.176,15.425C86.848,14.993 86.387,14.778 85.791,14.778C85.211,14.778 84.749,14.993 84.406,15.425C84.079,15.842 83.915,16.415 83.915,17.145L83.915,17.19L87.689,17.19Z" style="fill-rule:nonzero;"/>
    <path d="M93.031,24.18C92.868,24.18 92.734,24.128 92.629,24.023C92.525,23.919 92.473,23.785 92.473,23.621L92.473,13.125C92.473,12.961 92.525,12.827 92.629,12.723C92.734,12.619 92.868,12.567 93.031,12.567L95.466,12.567C95.629,12.567 95.763,12.619 95.868,12.723C95.972,12.827 96.024,12.961 96.024,13.125L96.024,13.884C96.366,13.438 96.82,13.073 97.386,12.79C97.967,12.492 98.614,12.343 99.329,12.343C100.967,12.343 102.098,12.984 102.724,14.264C103.081,13.698 103.58,13.237 104.22,12.879C104.86,12.522 105.545,12.343 106.275,12.343C107.495,12.343 108.485,12.76 109.245,13.594C110.019,14.413 110.406,15.641 110.406,17.279L110.406,23.621C110.406,23.77 110.354,23.904 110.25,24.023C110.146,24.128 110.012,24.18 109.848,24.18L107.257,24.18C107.093,24.18 106.952,24.128 106.833,24.023C106.729,23.919 106.677,23.785 106.677,23.621L106.677,17.435C106.677,16.691 106.52,16.155 106.208,15.827C105.91,15.5 105.5,15.336 104.979,15.336C104.503,15.336 104.108,15.507 103.796,15.85C103.483,16.177 103.327,16.706 103.327,17.435L103.327,23.621C103.327,23.77 103.275,23.904 103.17,24.023C103.066,24.128 102.932,24.18 102.768,24.18L100.178,24.18C100.014,24.18 99.88,24.128 99.776,24.023C99.671,23.919 99.619,23.785 99.619,23.621L99.619,17.435C99.619,16.706 99.456,16.177 99.128,15.85C98.815,15.507 98.413,15.336 97.922,15.336C97.446,15.336 97.044,15.507 96.716,15.85C96.403,16.177 96.247,16.698 96.247,17.413L96.247,23.621C96.247,23.77 96.195,23.904 96.091,24.023C95.987,24.128 95.853,24.18 95.689,24.18L93.031,24.18Z" style="fill-rule:nonzero;"/>
    <path d="M118.791,24.403C117.302,24.403 116.148,23.904 115.33,22.907L115.33,23.621C115.33,23.77 115.277,23.904 115.173,24.023C115.069,24.128 114.935,24.18 114.771,24.18L112.248,24.18C112.099,24.18 111.965,24.128 111.846,24.023C111.741,23.904 111.689,23.77 111.689,23.621L111.689,8.882C111.689,8.718 111.741,8.584 111.846,8.48C111.965,8.376 112.099,8.323 112.248,8.323L114.972,8.323C115.136,8.323 115.27,8.376 115.374,8.48C115.478,8.584 115.531,8.718 115.531,8.882L115.531,13.661C116.364,12.783 117.451,12.343 118.791,12.343C120.235,12.343 121.374,12.812 122.208,13.75C123.042,14.688 123.488,15.961 123.548,17.569C123.563,17.763 123.57,18.031 123.57,18.373C123.57,18.701 123.563,18.961 123.548,19.155C123.474,20.822 123.027,22.118 122.208,23.041C121.389,23.949 120.25,24.403 118.791,24.403ZM117.585,21.41C118.285,21.41 118.784,21.202 119.081,20.785C119.394,20.368 119.573,19.795 119.617,19.066C119.647,18.768 119.662,18.537 119.662,18.373C119.662,18.209 119.647,17.979 119.617,17.681C119.573,16.951 119.394,16.378 119.081,15.961C118.784,15.544 118.285,15.336 117.585,15.336C116.93,15.336 116.431,15.537 116.089,15.939C115.746,16.341 115.56,16.847 115.531,17.458L115.508,18.284L115.531,19.133C115.575,19.802 115.754,20.353 116.067,20.785C116.394,21.202 116.9,21.41 117.585,21.41Z" style="fill-rule:nonzero;"/>
    <path d="M125.096,24.18C124.947,24.18 124.813,24.128 124.694,24.023C124.589,23.904 124.537,23.77 124.537,23.621L124.537,8.882C124.537,8.718 124.589,8.584 124.694,8.48C124.813,8.376 124.947,8.323 125.096,8.323L127.731,8.323C127.895,8.323 128.029,8.376 128.133,8.48C128.237,8.584 128.289,8.718 128.289,8.882L128.289,23.621C128.289,23.785 128.237,23.919 128.133,24.023C128.029,24.128 127.895,24.18 127.731,24.18L125.096,24.18Z" style="fill-rule:nonzero;"/>
    <path d="M131.853,28.423C131.719,28.423 131.607,28.378 131.518,28.289C131.429,28.2 131.384,28.088 131.384,27.954C131.384,27.85 131.406,27.753 131.451,27.664L133.193,23.465L128.905,13.326C128.86,13.207 128.838,13.118 128.838,13.058C128.868,12.924 128.927,12.812 129.017,12.723C129.106,12.619 129.218,12.567 129.352,12.567L131.898,12.567C132.21,12.567 132.426,12.723 132.545,13.036L135.091,19.535L137.704,13.036C137.853,12.723 138.076,12.567 138.374,12.567L140.875,12.567C141.009,12.567 141.121,12.619 141.21,12.723C141.315,12.812 141.367,12.917 141.367,13.036C141.367,13.095 141.344,13.192 141.3,13.326L134.98,27.954C134.861,28.267 134.637,28.423 134.31,28.423L131.853,28.423Z" style="fill-rule:nonzero;"/>
    <path d="M140.23,24.18C140.111,24.18 139.999,24.135 139.895,24.046C139.805,23.942 139.761,23.83 139.761,23.711C139.761,23.621 139.768,23.554 139.783,23.51L145.031,9.172C145.076,8.993 145.173,8.845 145.322,8.725C145.47,8.606 145.664,8.547 145.902,8.547L149.207,8.547C149.446,8.547 149.639,8.606 149.788,8.725C149.937,8.845 150.034,8.993 150.078,9.172L155.304,23.51L155.349,23.711C155.349,23.83 155.297,23.942 155.193,24.046C155.103,24.135 154.992,24.18 154.858,24.18L152.111,24.18C151.753,24.18 151.515,24.023 151.396,23.711L150.525,21.433L144.562,21.433L143.714,23.711C143.594,24.023 143.349,24.18 142.977,24.18L140.23,24.18ZM149.632,18.217L147.555,12.321L145.478,18.217L149.632,18.217Z" style="fill-rule:nonzero;"/>
    <path d="M156.427,24.18C156.278,24.18 156.144,24.128 156.025,24.023C155.921,23.904 155.868,23.77 155.868,23.621L155.868,9.105C155.868,8.941 155.921,8.807 156.025,8.703C156.144,8.599 156.278,8.547 156.427,8.547L159.419,8.547C159.583,8.547 159.717,8.599 159.821,8.703C159.94,8.807 160,8.941 160,9.105L160,23.621C160,23.785 159.94,23.919 159.821,24.023C159.717,24.128 159.583,24.18 159.419,24.18L156.427,24.18Z" style="fill-rule:nonzero;"/>
    <g>
        <path d="M3.048,22.135L0.495,28.135C-0.221,29.815 -0.356,31.731 1.438,32.398C1.866,32.559 2.301,32.634 2.736,32.634C4.119,32.634 5.435,31.852 5.98,30.569L6.494,29.361L10.43,20.116L14.348,10.905C15.283,9.268 15.857,6.749 19.527,5.394C16.673,5.028 10.921,4.275 10.864,4.275C10.827,4.332 10.443,4.916 10.406,4.974C10.326,5.1 10.247,5.233 10.186,5.371C10.179,5.382 10.179,5.388 10.173,5.394L3.054,22.124C3.054,22.124 3.048,22.129 3.048,22.135Z" style="fill-opacity:0.7;fill-rule:nonzero;"/>
        <path d="M28.568,22.135L31.12,28.135C31.836,29.815 31.971,31.731 30.177,32.398C29.749,32.559 29.314,32.634 28.88,32.634C27.496,32.634 26.18,31.852 25.635,30.569L25.121,29.361L21.185,20.116L17.267,10.905C16.332,9.268 14.754,5.884 10.539,4.79C11.071,3.541 12.897,3.328 14.323,3.328L18.222,3.328C18.375,3.334 18.522,3.351 18.681,3.374C18.761,3.386 18.847,3.386 18.926,3.403C19.03,3.426 19.128,3.466 19.232,3.495C19.349,3.53 19.465,3.553 19.575,3.599C19.624,3.622 19.673,3.651 19.722,3.674C19.875,3.743 20.022,3.812 20.163,3.898C20.261,3.955 20.34,4.036 20.432,4.105C20.512,4.168 20.604,4.226 20.677,4.295C20.744,4.364 20.805,4.444 20.873,4.519C20.952,4.611 21.038,4.692 21.105,4.79C21.142,4.847 21.173,4.916 21.209,4.974C21.289,5.1 21.369,5.233 21.43,5.371C21.436,5.382 21.436,5.388 21.442,5.394L28.561,22.123C28.561,22.123 28.568,22.129 28.568,22.135Z" style="fill-rule:nonzero;"/>
    </g>
</svg>
