<?xml version="1.0" encoding="UTF-8" standalone="no"?>
<svg width="100%" height="100%" viewBox="0 0 1494 1454" version="1.1" xmlns="http://www.w3.org/2000/svg" style="fill-rule:evenodd;clip-rule:evenodd;stroke-linejoin:round;stroke-miterlimit:2;fill:currentColor;">
    <g transform="matrix(1,0,0,1,-592.489,-698.818)">
        <path d="M626.71,698.818L626.71,2152.17L592.489,2152.17L592.489,698.818L626.71,698.818ZM1113.98,698.818L1113.98,2152.17L1079.76,2152.17L1079.76,698.818L1113.98,698.818ZM1595.14,698.818L1595.14,2152.17L1560.92,2152.17L1560.92,698.818L1595.14,698.818ZM2085.87,698.818L2085.87,2152.17L2051.65,2152.17L2051.65,698.818L2085.87,698.818ZM1369.27,1741.04L1369.27,1656.24C1369.27,1656.24 1372.54,1607.98 1331.8,1607.98C1291.06,1607.98 1294.04,1653.51 1294.04,1656.11L1294.04,1998.47C1294.04,1998.47 1289.27,2046.83 1332.74,2046.83C1368.53,2046.83 1369.06,2008.62 1369.06,1999.88L1369.06,1917.68L1315.1,1917.68L1315.1,1825.36L1511.59,1825.36L1511.59,2132.46L1428.66,2132.46L1420.27,2101.18C1420.27,2101.18 1387.83,2144.05 1292.15,2144.05C1193.51,2144.05 1153.07,2081.62 1153.07,1982.99L1153.07,1667.37C1153.07,1667.37 1152.27,1575.96 1228.18,1532.99C1260,1514.98 1306.33,1511.3 1334.88,1511.3C1363.42,1511.3 1424.54,1509.42 1477.62,1562.5C1506.72,1591.6 1511.78,1650.73 1511.78,1682.55L1511.78,1741.04L1369.27,1741.04ZM1860.09,1741.04L1860.09,1656.24C1860.09,1656.24 1863.35,1607.98 1822.61,1607.98C1781.87,1607.98 1784.86,1653.51 1784.86,1656.11L1784.86,1998.47C1784.86,1998.47 1780.09,2046.83 1823.55,2046.83C1859.34,2046.83 1859.87,2008.62 1859.87,1999.88L1859.87,1895.39L2002.4,1895.39L2002.13,1991.11C2002.13,1991.11 2000.87,2066.95 1949.1,2108.2C1921.15,2130.46 1876.26,2144.05 1813.49,2144.05C1714.86,2144.05 1643.88,2081.62 1643.88,1982.99L1643.88,1667.37C1643.88,1667.37 1643.08,1575.96 1718.99,1532.99C1750.81,1514.98 1797.15,1511.3 1825.69,1511.3C1854.24,1511.3 1915.35,1509.42 1968.44,1562.5C1997.53,1591.6 2002.59,1650.73 2002.59,1682.55L2002.59,1741.04L1860.09,1741.04ZM670.227,1523.28L862.304,1523.28C921.867,1528.28 1029.84,1520.15 1029.61,1675.58C1029.48,1759.9 985.603,1804.11 928.292,1805.98L928.292,1812.4C996.733,1812.4 1028.92,1849.09 1028.92,1955.79C1028.92,1962.33 1029.03,1979.7 1028.61,1985.8C1024.66,2042.64 1016.69,2086.94 966.349,2113.62C939.871,2127.66 905.975,2131.19 846.8,2131.19L670.227,2131.19L670.227,1523.28ZM812.399,1610.7L812.399,1770.01C836.909,1770.01 860.872,1772.64 875.889,1755.66C883.758,1746.76 887.295,1703.91 887.295,1688.26C887.295,1653.73 884.366,1636.22 874.392,1624.55C859.067,1606.61 835.983,1611.33 812.399,1610.7ZM812.399,1857.06L812.399,2045.37C836.909,2045.37 856.226,2046.23 873.664,2028.79C888.51,2013.95 887.295,1959.27 887.295,1943.62C887.295,1909.09 884.366,1882.58 874.392,1870.9C859.969,1854.02 835.983,1857.69 812.399,1857.06Z"/>
    </g>
</svg>
