<svg width="100%" height="100%" viewBox="0 0 271 74" fill="currentColor"
    xmlns="http://www.w3.org/2000/svg">
    <path d="M52.371 31.342H29.6167C29.0295 31.342 28.5537 31.8187 28.5537 32.4058V43.5308C28.5537 44.1179 29.0295 44.596 29.6167 44.596H38.493V58.4177C38.493 58.4177 36.5001 59.0973 30.9895 59.0973C24.4887 59.0973 15.4072 56.7216 15.4072 36.7519C15.4072 16.7769 24.8639 14.1494 33.7418 14.1494C41.4273 14.1494 44.7374 15.5019 46.8446 16.1544C47.507 16.3574 48.1189 15.6981 48.1189 15.1102L50.657 4.36187C50.657 4.08597 50.5637 3.75592 50.251 3.53114C49.3955 2.92069 44.1758 0 30.9895 0C15.7988 0 0.217285 6.46236 0.217285 37.5307C0.217285 68.5991 18.0572 73.2286 33.0907 73.2286C45.538 73.2286 53.089 67.9097 53.089 67.9097C53.4002 67.7375 53.4341 67.3023 53.4341 67.1038V32.4058C53.4341 31.8187 52.9582 31.342 52.371 31.342Z"/>
    <path d="M169.637 3.72214C169.637 3.12973 169.168 2.65234 168.58 2.65234H155.768C155.183 2.65234 154.707 3.12973 154.707 3.72214C154.707 3.7244 154.711 28.4815 154.711 28.4815H134.74V3.72214C134.74 3.12973 134.269 2.65234 133.683 2.65234H120.871C120.289 2.65234 119.813 3.12973 119.813 3.72214V70.7643C119.813 71.3559 120.289 71.8363 120.871 71.8363H133.683C134.269 71.8363 134.74 71.3559 134.74 70.7643V42.0874H154.711C154.711 42.0874 154.676 70.762 154.676 70.7643C154.676 71.3559 155.151 71.8363 155.737 71.8363H168.579C169.166 71.8363 169.635 71.3559 169.637 70.7643V3.72214Z" />
    <path d="M76.5484 12.5227C76.5484 7.90976 72.8504 4.18164 68.287 4.18164C63.7282 4.18164 60.0264 7.90976 60.0264 12.5227C60.0264 17.1319 63.7282 20.8706 68.287 20.8706C72.8504 20.8706 76.5484 17.1319 76.5484 12.5227Z" />
    <path d="M75.6312 70.1181V25.6777C75.6312 25.0898 75.1568 24.6094 74.5712 24.6094H61.7991C61.2134 24.6094 60.6895 25.2138 60.6895 25.801V70.1391C60.6895 71.442 61.5014 71.8299 62.5516 71.8299H74.0585C75.3215 71.8299 75.6312 71.2097 75.6312 70.1181Z" />
    <path d="M218.329 24.7109H205.616C205.033 24.7109 204.558 25.1921 204.558 25.7837V58.6557C204.558 58.6557 201.328 61.0193 196.743 61.0193C192.159 61.0193 190.943 58.9391 190.943 54.4509V25.7837C190.943 25.1921 190.469 24.7109 189.885 24.7109H176.982C176.4 24.7109 175.922 25.1921 175.922 25.7837V56.6206C175.922 69.9543 183.353 73.2163 193.575 73.2163C201.962 73.2163 208.724 68.5823 208.724 68.5823C208.724 68.5823 209.045 71.0248 209.191 71.3135C209.336 71.6022 209.716 71.8946 210.126 71.8946L218.335 71.8578C218.917 71.8578 219.394 71.3766 219.394 70.7872L219.39 25.7837C219.39 25.1921 218.916 24.7109 218.329 24.7109Z" />
    <path d="M248.064 60.9753C243.654 60.8414 240.663 58.8394 240.663 58.8394V37.609C240.663 37.609 243.614 35.8002 247.234 35.4769C251.813 35.0664 256.224 36.4497 256.224 47.3717C256.224 58.8883 254.233 61.161 248.064 60.9753ZM253.079 23.2017C245.858 23.2017 240.946 26.4231 240.946 26.4231V3.72214C240.946 3.12973 240.473 2.65234 239.889 2.65234H227.04C226.456 2.65234 225.982 3.12973 225.982 3.72214V70.7643C225.982 71.3559 226.456 71.8363 227.042 71.8363H235.957C236.358 71.8363 236.662 71.6296 236.887 71.268C237.108 70.9071 237.428 68.1759 237.428 68.1759C237.428 68.1759 242.681 73.155 252.627 73.155C264.304 73.155 271 67.2324 271 46.5673C271 25.9021 260.305 23.2017 253.079 23.2017Z" />
    <path d="M112.455 24.6027H102.844C102.844 24.6027 102.83 11.9095 102.83 11.9065C102.83 11.4254 102.582 11.1855 102.027 11.1855H88.9304C88.4207 11.1855 88.1478 11.4096 88.1478 11.899V25.0192C88.1478 25.0192 81.5847 26.6039 81.1404 26.731C80.6991 26.8595 80.3735 27.267 80.3735 27.7534V35.9983C80.3735 36.5914 80.8472 37.0696 81.4328 37.0696H88.1478V56.9047C88.1478 71.6375 98.4818 73.0847 105.455 73.0847C108.641 73.0847 112.453 72.0608 113.082 71.8292C113.463 71.6886 113.684 71.2947 113.684 70.8669L113.695 61.7974C113.695 61.2065 113.195 60.7268 112.632 60.7268C112.071 60.7268 110.64 60.9554 109.165 60.9554C104.444 60.9554 102.844 58.7602 102.844 55.9191C102.844 53.0796 102.844 37.0696 102.844 37.0696H112.455C113.04 37.0696 113.515 36.5914 113.515 35.9983V25.671C113.515 25.0793 113.04 24.6027 112.455 24.6027Z" />
</svg>
