<?xml version="1.0" encoding="UTF-8" standalone="no"?>
<!DOCTYPE svg PUBLIC "-//W3C//DTD SVG 1.1//EN" "http://www.w3.org/Graphics/SVG/1.1/DTD/svg11.dtd">
<svg width="100%" height="100%" viewBox="0 0 336 98" version="1.1" xmlns="http://www.w3.org/2000/svg" style="fill-rule:evenodd;clip-rule:evenodd;stroke-linejoin:round;stroke-miterlimit:2;fill:currentColor;">
    <g transform="matrix(1,0,0,1,-7.6879,-20.2244)">
        <path d="M56.303,20.224C83.135,20.224 104.919,41.98 104.919,68.777C104.919,95.573 83.135,117.329 56.303,117.329C29.472,117.329 7.688,95.573 7.688,68.777C7.688,41.98 29.472,20.224 56.303,20.224ZM32.389,64.323C32.389,64.323 43.884,28.635 78.476,46.884C78.476,46.884 74.193,35.037 61.503,32.456L55.55,40.576L51.427,32.84C51.427,32.84 29.328,40.782 32.389,64.323ZM56.484,25.017C54.932,25.017 53.671,26.848 53.671,29.103C53.671,31.358 54.932,33.188 56.484,33.188C58.037,33.188 59.298,31.358 59.298,29.103C59.298,26.848 58.037,25.017 56.484,25.017ZM72.555,49.856C72.555,49.856 97.661,77.705 64.521,98.473C64.521,98.473 76.916,100.712 85.516,91.028L81.478,81.805L90.239,82.12C90.239,82.12 94.455,59.019 72.555,49.856ZM94.469,90.42C95.248,89.076 94.297,87.067 92.346,85.936C90.396,84.805 88.179,84.977 87.4,86.32C86.621,87.663 87.573,89.672 89.523,90.804C91.474,91.935 93.69,91.763 94.469,90.42ZM64.611,91.13C64.611,91.13 27.918,98.841 26.616,59.752C26.616,59.752 18.451,69.344 22.502,81.645L32.505,82.789L27.831,90.205C27.831,90.205 45.684,105.459 64.611,91.13ZM18.529,89.692C19.299,91.04 21.514,91.227 23.472,90.109C25.431,88.991 26.395,86.989 25.626,85.64C24.856,84.292 22.641,84.105 20.683,85.223C18.724,86.341 17.759,88.343 18.529,89.692Z"/>
        <g>
            <path d="M141.046,65.237L141.046,53.981L132.808,53.981L132.808,56.846L137.027,56.846L137.027,58.642C137.027,58.642 134.012,62.01 131.015,62.01C128.018,62.01 123.99,58.401 123.99,54.007C123.99,49.614 126.506,45.941 130.821,45.941C135.137,45.941 135.588,49.343 136.968,49.343L139.899,46.411C139.899,46.411 135.574,41.978 131.006,41.978C126.437,41.978 119.817,47.452 119.817,53.931C119.817,60.41 125.05,65.338 130.97,65.338C133.819,65.338 137.052,63.333 137.052,62.87C137.052,62.406 137.052,65.237 137.052,65.237L141.046,65.237Z"/>
            <g transform="matrix(1,0,0,1,170.706,0)">
                <path d="M137.38,63.185C137.38,63.185 139.599,60.999 139.596,60.493L137.027,58.642C137.027,58.642 134.012,62.01 131.015,62.01C128.018,62.01 123.99,58.401 123.99,54.007C123.99,49.614 126.506,45.941 130.821,45.941C135.137,45.941 135.588,49.343 136.968,49.343L139.899,46.411C139.899,46.411 135.574,41.978 131.006,41.978C126.437,41.978 119.817,47.452 119.817,53.931C119.817,60.41 125.05,65.338 130.97,65.338C133.819,65.338 136.428,64.136 137.38,63.185Z"/>
            </g>
            <path d="M320.103,42.436L320.103,65.241L324.636,65.241L324.636,58.846L327.66,55.686L335.069,65.241L339.402,65.241L330.258,52.749L339.334,42.436L333.731,42.436L324.636,52.395L324.636,42.436L320.103,42.436Z"/>
            <path d="M161.077,42.487C167.389,42.487 172.515,47.613 172.515,53.925C172.515,60.238 167.389,65.363 161.077,65.363C154.764,65.363 149.639,60.238 149.639,53.925C149.639,47.613 154.764,42.487 161.077,42.487ZM161.077,46.605C157.036,46.605 153.756,49.885 153.756,53.925C153.756,57.966 157.036,61.246 161.077,61.246C165.117,61.246 168.397,57.966 168.397,53.925C168.397,49.885 165.117,46.605 161.077,46.605Z"/>
            <g transform="matrix(2.46466,0,0,2.46466,-154.551,-64.3436)">
                <path d="M138.365,43.17L138.365,51.005L143.136,51.005L143.136,52.558L136.594,52.558L136.594,43.17L138.365,43.17Z" style="fill-rule:nonzero;"/>
            </g>
            <path d="M208.05,42.765L218.029,42.765C220.526,42.765 227.287,45.157 227.287,54.007C227.287,64.124 218.177,64.975 218.177,64.975L208.05,64.975L208.05,42.765ZM212.102,46.126L212.102,61.746L217.421,61.746C217.421,61.746 222.848,59.399 222.848,53.783C222.848,49.218 219.442,46.126 217.548,46.126L212.102,46.126Z"/>
            <path d="M238.005,42.59L250.851,42.59C250.851,42.59 255.092,42.904 255.092,48.402C255.092,50.164 253.124,53.541 251.989,53.541C251.989,53.541 256.021,56.307 256.021,59.429C256.021,62.55 252.808,65.016 250.629,65.016L238.005,65.016L238.005,42.59ZM241.992,46.078L241.992,52.067L248.988,52.067C249.511,52.067 251.037,52.077 251.037,49.091C251.037,46.105 248.675,46.078 248.675,46.078L241.992,46.078ZM241.992,55.628L241.992,61.531L248.988,61.531C249.511,61.531 251.037,61.54 251.037,58.597C251.037,55.654 248.675,55.628 248.675,55.628L241.992,55.628Z"/>
            <path d="M265.947,42.277L280.961,42.277L280.961,46.233L269.996,46.233L269.996,52.008L280.085,52.008L280.085,55.133L269.996,55.133L269.996,61.569L282.008,61.569L282.008,65.269L265.947,65.269L265.947,42.277Z"/>
        </g>
        <g transform="matrix(2.17237,0,0,2.17237,-147.702,-93.8589)">
            <g opacity="0.7">
                <g transform="matrix(1.06699,0,0,1.06699,-8.2887,-5.43358)">
                    <path d="M123.739,83.987L125.069,83.987L125.069,80.737C125.56,79.522 126.849,79.177 127,79.2L127,78.252C126.942,78.228 126.71,78.217 126.548,78.217C125.923,78.217 125.59,78.468 125.024,78.913L125.022,78.726L125.022,78.342L123.739,78.342L123.739,83.987Z" style="fill-rule:nonzero;"/>
                </g>
                <g transform="matrix(1.06699,0,0,1.06699,14.4001,-5.43358)">
                    <path d="M123.739,83.987L125.069,83.987L125.069,80.737C125.56,79.522 126.849,79.177 127,79.2L127,78.252C126.942,78.228 126.71,78.217 126.548,78.217C125.923,78.217 125.59,78.468 125.024,78.913L125.022,78.726L125.022,78.342L123.739,78.342L123.739,83.987Z" style="fill-rule:nonzero;"/>
                </g>
                <g transform="matrix(1,0,0,1,-0.331242,0.192316)">
                    <path d="M133.024,84.091C134.03,84.091 134.724,83.802 135.129,83.536L135.129,82.611C134.609,82.877 134.054,83.05 133.29,83.05C132.157,83.05 131.521,82.611 131.44,81.374L135.325,81.374L135.325,80.819C135.325,78.922 134.562,77.939 132.805,77.939C131.29,77.939 130.076,78.922 130.076,80.923L130.076,81.085C130.076,82.969 131.047,84.091 133.024,84.091ZM132.782,78.922C133.556,78.922 133.973,79.338 133.973,80.46L131.44,80.46C131.533,79.246 132.169,78.922 132.782,78.922Z" style="fill-rule:nonzero;"/>
                </g>
                <g transform="matrix(1,0,0,1,-0.259818,0.192316)">
                    <path d="M141.373,84.091C142.194,84.091 142.749,83.871 143.131,83.629L143.131,82.657C142.83,82.796 142.333,83.027 141.604,83.027C140.471,83.027 139.905,82.449 139.905,81.085L139.905,80.819C139.905,79.628 140.517,79.003 141.512,79.003C142.217,79.003 142.576,79.13 143.073,79.327L143.073,78.286C142.691,78.078 142.217,77.928 141.431,77.928C139.777,77.928 138.529,78.899 138.529,80.957L138.529,81.142C138.529,83.108 139.616,84.091 141.373,84.091Z" style="fill-rule:nonzero;"/>
                </g>
                <g transform="matrix(1,0,0,1,0,0.192316)">
                    <path d="M155.041,84.091C155.793,84.091 156.371,83.825 156.868,83.467L156.926,83.467L157.042,83.987L158.198,83.987L158.198,78.032L156.868,78.032L156.868,82.657C156.487,82.831 156.059,83.016 155.538,83.016C154.798,83.016 154.567,82.75 154.567,82.102L154.567,78.032L153.237,78.032L153.237,82.357C153.237,83.524 153.885,84.091 155.041,84.091Z" style="fill-rule:nonzero;"/>
                </g>
                <g transform="matrix(0.460328,0,0,0.460328,67.9915,43.2058)">
                    <path d="M206.136,69.394C207.09,69.394 207.864,70.168 207.864,71.122C207.864,72.076 207.09,72.85 206.136,72.85C205.182,72.85 204.408,72.076 204.408,71.122C204.408,70.168 205.182,69.394 206.136,69.394ZM207.804,75.949L207.804,89.01L204.468,89.01L204.468,75.949L207.804,75.949Z"/>
                </g>
                <g transform="matrix(0.460328,0,0,0.460328,80.0231,43.2058)">
                    <path d="M206.136,69.394C207.09,69.394 207.864,70.168 207.864,71.122C207.864,72.076 207.09,72.85 206.136,72.85C205.182,72.85 204.408,72.076 204.408,71.122C204.408,70.168 205.182,69.394 206.136,69.394ZM207.804,75.949L207.804,89.01L204.468,89.01L204.468,75.949L207.804,75.949Z"/>
                </g>
                <g transform="matrix(0.460328,0,0,0.460328,108.057,43.2058)">
                    <path d="M206.136,69.394C207.09,69.394 207.864,70.168 207.864,71.122C207.864,72.076 207.09,72.85 206.136,72.85C205.182,72.85 204.408,72.076 204.408,71.122C204.408,70.168 205.182,69.394 206.136,69.394ZM207.804,75.949L207.804,89.01L204.468,89.01L204.468,75.949L207.804,75.949Z"/>
                </g>
                <g transform="matrix(1,0,0,1,0,0.192316)">
                    <path d="M169.391,84.056C169.946,84.056 170.27,83.929 170.502,83.814L170.502,82.923C170.293,82.981 170.051,83.016 169.819,83.016C169.195,83.016 169.01,82.831 169.01,82.333L169.01,79.073L170.432,79.073L170.432,78.032L169.01,78.032L169.01,76.633L167.703,76.633L167.703,78.032L166.871,78.032L166.871,79.073L167.703,79.073L167.703,82.518C167.703,83.64 168.362,84.056 169.391,84.056Z" style="fill-rule:nonzero;"/>
                </g>
                <g transform="matrix(1,0,0,1,0.381178,0.192316)">
                    <path d="M179.313,83.987L180.643,83.987L180.643,79.362C181.001,79.188 181.522,79.038 181.984,79.038C182.794,79.038 182.99,79.281 182.99,79.882L182.99,83.987L184.331,83.987L184.331,79.57C184.331,78.39 183.742,77.928 182.597,77.928C181.88,77.928 181.151,78.194 180.643,78.564L180.596,78.564L180.596,78.032L179.313,78.032L179.313,83.987Z" style="fill-rule:nonzero;"/>
                </g>
                <g transform="matrix(0.460328,0,0,0.460328,67.9915,43.2058)">
                    <path d="M260.994,80.037C260.994,80.037 262.108,75.249 266.687,75.249L269.05,75.249C269.05,75.249 271.572,74.425 272.165,73.854L273.28,75.371L270.013,76.993C270.013,76.993 272.03,77.337 272.03,80.386C272.03,83.434 268.88,84.259 267.437,84.259L265.207,84.259C264.625,84.982 264.532,85.883 265.207,86.606L268.835,86.606C268.835,86.606 272.992,86.886 272.992,90.005C272.992,93.125 270.629,93.581 269.151,94.012C267.638,94.454 263.711,94.322 263.693,94.012C263.693,94.012 260.667,93.109 260.667,91.521C260.511,90.154 261.225,89.657 262.611,89.832C262.611,89.832 262.626,89.824 263.649,91.085C264.616,92.278 264.479,91.975 264.984,91.975L268.977,91.975C270.467,90.96 270.596,89.944 268.977,88.928L265.125,88.928C265.125,88.928 261.782,88.202 261.782,86.513C261.782,84.824 262.672,84.762 262.672,84.762C263.055,84.197 263.02,83.633 262.672,83.068C262.672,83.068 260.994,82.585 260.994,80.037ZM266.485,77.382C265.331,77.382 264.394,78.592 264.394,80.084C264.394,81.575 265.331,82.786 266.485,82.786C267.64,82.786 268.577,81.575 268.577,80.084C268.577,78.592 267.64,77.382 266.485,77.382Z"/>
                </g>
                <g transform="matrix(1,0,0,1,0.35262,0.192316)">
                    <path d="M207.343,83.987L208.673,83.987L208.673,79.362C209.031,79.188 209.551,79.038 210.014,79.038C210.823,79.038 211.02,79.281 211.02,79.882L211.02,83.987L212.361,83.987L212.361,79.57C212.361,78.39 211.772,77.928 210.627,77.928C209.91,77.928 209.181,78.194 208.673,78.564L208.626,78.564L208.626,78.032L207.343,78.032L207.343,83.987Z" style="fill-rule:nonzero;"/>
                </g>
                <g transform="matrix(1,0,0,1,0.3616,0.192316)">
                    <path d="M218.721,84.091C219.542,84.091 220.097,83.871 220.479,83.629L220.479,82.657C220.178,82.796 219.681,83.027 218.952,83.027C217.819,83.027 217.253,82.449 217.253,81.085L217.253,80.819C217.253,79.628 217.865,79.003 218.86,79.003C219.565,79.003 219.924,79.13 220.421,79.327L220.421,78.286C220.039,78.078 219.565,77.928 218.779,77.928C217.125,77.928 215.877,78.899 215.877,80.957L215.877,81.142C215.877,83.108 216.964,84.091 218.721,84.091Z" style="fill-rule:nonzero;"/>
                </g>
                <g transform="matrix(0.460328,0,0,0.460328,67.7559,43.0272)">
                    <circle cx="341.511" cy="87.581" r="1.942"/>
                </g>
            </g>
        </g>
    </g>
</svg>
