<?xml version="1.0" encoding="UTF-8" standalone="no"?>
<!DOCTYPE svg PUBLIC "-//W3C//DTD SVG 1.1//EN" "http://www.w3.org/Graphics/SVG/1.1/DTD/svg11.dtd">
<svg width="100%" height="100%" viewBox="0 0 316 85" version="1.1"
    xmlns="http://www.w3.org/2000/svg" style="fill-rule:evenodd;clip-rule:evenodd;stroke-linejoin:round;stroke-miterlimit:2;">
    <path d="M170.1,42.6L127.6,0L127.6,85.1L170.1,42.6Z" style="fill:currentColor;fill-rule:nonzero;"/>
    <path d="M0,42.6L42.6,85.1L42.6,0L0,42.6Z" style="fill:currentColor;fill-rule:nonzero;"/>
    <path d="M42.6,0L127.6,0L85.1,42.6L42.6,0Z" style="fill:currentColor;"/>
    <path d="M85.1,42.6L127.5,85L42.7,85L85.1,42.6Z" style="fill:currentColor;"/>
    <path d="M207.4,45.1L192,45.1L192,60.3L184.3,60.3L184.3,24.7L192,24.7L192,39.3L207.4,39.3L207.4,24.7L215.1,24.7L215.1,60.3L207.4,60.3L207.4,45.1Z" style="fill:currentColor;fill-rule:nonzero;"/>
    <path d="M233.7,61C226,61 219.7,57.9 219.6,49.4L227.3,49.4C227.4,53.2 229.6,55.5 233.8,55.5C236.9,55.5 240.5,53.9 240.5,50.4C240.5,47.6 238.1,46.8 234.1,45.6L231.5,44.9C225.9,43.3 220.3,41.1 220.3,34.7C220.3,26.8 227.7,24.1 234.4,24.1C241.3,24.1 247.3,26.5 247.4,34.4L239.7,34.4C239.4,31.2 237.5,29.3 233.9,29.3C231,29.3 228.2,30.8 228.2,34C228.2,36.6 230.6,37.4 235.6,39L238.6,39.9C244.7,41.8 248.6,43.9 248.6,49.9C248.5,57.9 240.7,61 233.7,61Z" style="fill:currentColor;fill-rule:nonzero;"/>
    <path d="M252.9,24.8L265.3,24.8C267.6,24.7 270,24.8 272.3,25.2C276.6,26.2 279.9,29 279.9,33.8C279.9,38.4 277,40.7 272.8,41.8C277.6,42.7 281.2,45.1 281.2,50.4C281.2,58.5 273.2,60.3 267,60.3L253,60.3L252.9,24.8ZM265.3,39.6C268.7,39.6 272.2,38.9 272.2,34.8C272.2,31.1 269,30.1 265.8,30.1L260.4,30.1L260.4,39.6L265.3,39.6ZM266,55C269.6,55 273.1,54.2 273.1,49.8C273.1,45.4 270.1,44.6 266.4,44.6L260.3,44.6L260.3,55L266,55Z" style="fill:currentColor;fill-rule:nonzero;"/>
    <path d="M301.2,61C289.7,61 284.6,53.7 284.6,42.8C284.6,31.9 290.3,24 301.6,24C308.7,24 315.6,27.2 315.8,35.2L307.8,35.2C307.4,31.6 305,29.8 301.6,29.8C294.6,29.8 292.5,37.3 292.5,43C292.5,48.7 294.6,55.3 301.3,55.3C304.8,55.3 307.4,53.4 307.9,49.8L315.9,49.8C315.1,58 308.6,61 301.2,61Z" style="fill:currentColor;fill-rule:nonzero;"/>
</svg>
