<?xml version="1.0" encoding="UTF-8" standalone="no"?>
<!DOCTYPE svg PUBLIC "-//W3C//DTD SVG 1.1//EN" "http://www.w3.org/Graphics/SVG/1.1/DTD/svg11.dtd">
<svg width="100%" height="100%" viewBox="0 0 242 106" version="1.1"
    xmlns="http://www.w3.org/2000/svg" style="fill-rule:evenodd;clip-rule:evenodd;stroke-linejoin:round;stroke-miterlimit:2;fill:currentColor">
    <g transform="matrix(1,0,0,1,-225.343,-754.034)">
        <g id="Layer-1">
            <path id="path7080" d="M261.217,859.262L225.34,859.262L225.34,754.034L261.217,754.034L261.217,765.071L236.377,765.071L236.377,848.223L261.217,848.223L261.217,859.262" style="fill-rule:nonzero;"/>
            <path id="path7088" d="M314.649,805.782C314.649,799.363 312.913,797.346 311.626,795.974C309.428,793.678 305.853,792.209 302.182,792.209C300.624,792.209 294.385,792.393 289.8,798.814L289.8,793.31L275.125,793.31L275.125,795.237L281.091,795.237L281.091,829.173L271.18,829.173L271.18,793.31L256.318,793.31L256.318,795.237L262.562,795.237L262.562,829.173L256.234,829.173L256.234,831.098L295.946,831.098L295.946,829.173L289.8,829.173L289.8,813.127C289.891,806.155 289.979,800.653 294.293,797.073C296.036,795.697 298.143,794.875 300.166,794.875C301.539,794.875 304.663,795.328 305.573,799.096C305.759,800.006 305.853,800.739 305.946,804.503L305.946,829.173L300.166,829.173L300.166,831.098L320.705,831.098L320.705,829.173L314.649,829.173L314.649,805.782" style="fill-rule:nonzero;"/>
            <path id="path7104" d="M266.158,785.351C269.611,785.351 272.416,782.551 272.416,779.093C272.416,775.642 269.611,772.841 266.158,772.841C262.702,772.841 259.902,775.642 259.902,779.093C259.902,782.551 262.702,785.351 266.158,785.351" style="fill-rule:nonzero;"/>
            <path id="path7092" d="M364.64,815.143C364.451,819.819 364.273,823.032 361.336,825.877C360.509,826.609 358.767,827.988 356.2,827.988C353.267,827.988 350.42,826.054 350.42,821.565C350.42,814.04 357.486,811.93 364.64,811.844L364.64,815.143ZM375.273,829.54C373.168,829.54 373.168,827.344 373.168,824.225L373.168,805.052C373.168,801.566 373.168,798.539 370.604,795.882C368.308,793.681 363.996,792.211 359.59,792.211C350.336,792.211 344.372,797.443 344.372,801.937C344.372,804.226 345.926,806.242 348.411,806.242C350.878,806.242 352.625,804.317 352.625,802.305C352.625,800.191 350.7,798.997 350.7,797.898C350.7,796.523 354.09,794.048 358.221,794.048C364.273,794.048 364.451,798.357 364.64,801.018L364.64,810.187C361.244,810.187 356.2,810.554 352.165,811.751C346.017,813.673 341.799,817.617 341.799,823.212C341.799,823.662 341.838,824.089 341.892,824.507C341.558,826.177 340.641,829.265 336.479,829.265C331.898,829.265 331.985,825.415 331.985,822.568L331.985,795.238L341.799,795.238L341.799,793.313L331.985,793.313L331.985,778.086L330.615,778.086C330.155,780.013 329.513,782.766 325.932,787.076C323.641,789.918 320.889,792.487 317.492,793.954L317.492,795.238L323.461,795.238L323.461,818.349C323.461,823.032 323.461,825.051 324.191,826.789C325.566,830.462 329.236,832.205 333.73,832.205C339.153,832.205 341.642,829.796 342.855,827.477C344.526,830.513 348.04,832.205 352.165,832.205C358.402,832.205 362.442,828.628 364.451,824.589C364.64,826.423 364.917,828.719 367.026,830.462C368.396,831.56 370.321,832.205 372.346,832.205C376.201,832.205 378.306,830.095 379.223,829.174L378.117,827.89C377.482,828.443 376.476,829.54 375.273,829.54" style="fill-rule:nonzero;"/>
            <path id="path7096" d="M397.748,830.179C392.982,830.179 390.501,827.524 389.495,824.497C388.572,821.926 388.572,818.442 388.572,815.327C388.572,811.195 388.672,802.758 390.139,799.185C391.971,794.687 395.819,794.047 398.392,794.047C403.344,794.047 405.638,796.345 405.638,797.162C405.638,797.529 405.458,797.717 405.178,798.079C404.447,798.814 403.344,800.28 403.344,802.391C403.344,804.872 404.998,807.252 407.658,807.252C410.311,807.252 412.329,805.051 412.329,802.114C412.329,797.529 407.103,792.209 398.575,792.209C387.753,792.209 378.578,800.739 378.578,812.571C378.578,823.393 386.742,832.204 397.473,832.204C407.38,832.204 412.236,825.321 413.527,818.813L411.233,818.813C409.95,824.315 405.458,830.179 397.748,830.179" style="fill-rule:nonzero;"/>
            <path id="path7100" d="M437.094,824.04C436.819,825.503 436.178,829.265 431.59,829.265C427.003,829.265 427.099,825.415 427.099,822.568L427.099,795.238L436.91,795.238L436.91,793.311L427.099,793.311L427.099,778.086L425.72,778.086C425.265,780.011 424.62,782.766 421.044,787.074C418.752,789.918 415.997,792.485 412.602,793.954L412.602,795.238L418.566,795.238L418.566,818.349C418.566,823.032 418.566,825.051 419.301,826.787C420.675,830.462 424.347,832.205 428.841,832.205C437.368,832.205 438.655,826.245 439.111,824.04L437.094,824.04" style="fill-rule:nonzero;"/>
            <path id="path7084" d="M467.043,859.262L431.172,859.262L431.172,848.223L456.008,848.223L456.008,765.071L431.172,765.071L431.172,754.034L467.043,754.034L467.043,859.262" style="fill-rule:nonzero;"/>
        </g>
    </g>
</svg>
