<?xml version="1.0" encoding="UTF-8" standalone="no"?>
<svg width="100%" height="100%" viewBox="0 0 121 30" version="1.1" xmlns="http://www.w3.org/2000/svg" style="fill-rule:evenodd;clip-rule:evenodd;stroke-linejoin:round;stroke-miterlimit:2;fill:currentColor;">
    <path d="M50.528,24L47.647,24L38.975,10.88L38.975,24L36.093,24L36.093,6.405L38.975,6.405L47.647,19.5L47.647,6.405L50.528,6.405L50.528,24ZM67.99,24L65.108,24L56.437,10.88L56.437,24L53.555,24L53.555,6.405L56.437,6.405L65.108,19.5L65.108,6.405L67.99,6.405L67.99,24ZM73.898,8.756L73.898,13.913L79.965,13.913L79.965,16.264L73.898,16.264L73.898,21.649L80.724,21.649L80.724,24L71.016,24L71.016,6.405L80.724,6.405L80.724,8.756L73.898,8.756ZM82.554,15.177C82.554,13.458 82.95,11.916 83.742,10.551C84.551,9.186 85.638,8.124 87.004,7.366C88.385,6.59 89.894,6.203 91.529,6.203C93.399,6.203 95.06,6.666 96.509,7.593C97.975,8.503 99.037,9.801 99.694,11.486L96.231,11.486C95.776,10.559 95.144,9.868 94.335,9.413C93.526,8.958 92.59,8.731 91.529,8.731C90.366,8.731 89.329,8.992 88.419,9.514C87.509,10.037 86.793,10.787 86.27,11.764C85.765,12.742 85.512,13.879 85.512,15.177C85.512,16.475 85.765,17.613 86.27,18.59C86.793,19.568 87.509,20.326 88.419,20.865C89.329,21.388 90.366,21.649 91.529,21.649C92.59,21.649 93.526,21.421 94.335,20.966C95.144,20.511 95.776,19.82 96.231,18.893L99.694,18.893C99.037,20.579 97.975,21.876 96.509,22.787C95.06,23.697 93.399,24.152 91.529,24.152C89.877,24.152 88.369,23.773 87.004,23.014C85.638,22.239 84.551,21.169 83.742,19.804C82.95,18.438 82.554,16.896 82.554,15.177ZM113.66,6.43L113.66,8.781L108.983,8.781L108.983,24L106.101,24L106.101,8.781L101.399,8.781L101.399,6.43L113.66,6.43Z" style="fill-rule:nonzero;"/>
    <path d="M25.363,29.33C24.288,30.021 22.846,30.158 21.458,29.298C21,29.014 19.025,27.635 16.612,25.949C16.208,25.667 15.793,25.376 15.37,25.081C12.384,22.996 8.981,20.627 6.773,19.155C6.244,18.802 6.097,18.08 6.446,17.544C6.794,17.008 7.505,16.859 8.035,17.212C10.267,18.701 13.691,21.085 16.672,23.166C17.091,23.459 17.501,23.745 17.896,24.021C20.343,25.73 22.255,27.067 22.655,27.314C23.264,27.691 23.765,27.603 24.134,27.366C24.564,27.089 24.794,26.624 24.794,26.282L24.794,5.634C24.794,4.264 24.187,3.269 23.445,2.752C22.706,2.235 21.839,2.179 21.106,2.638C19.245,3.805 18.237,4.465 17.809,4.754C17.281,5.11 16.569,4.966 16.218,4.431C15.866,3.897 16.009,3.175 16.536,2.819C16.996,2.508 18.03,1.833 19.898,0.661C21.497,-0.342 23.35,-0.139 24.747,0.836C26.142,1.81 27.089,3.539 27.089,5.634L27.089,26.282C27.089,27.514 26.375,28.679 25.363,29.33Z"/>
    <path d="M1.726,0.67C2.801,-0.021 4.243,-0.158 5.631,0.702C6.089,0.986 8.063,2.365 10.477,4.051C10.881,4.333 11.296,4.624 11.719,4.919C14.705,7.004 18.108,9.373 20.316,10.845C20.845,11.198 20.992,11.919 20.643,12.456C20.295,12.993 19.583,13.141 19.054,12.788C16.822,11.299 13.398,8.915 10.417,6.834C9.998,6.541 9.588,6.255 9.193,5.979C6.746,4.27 4.834,2.933 4.434,2.686C3.824,2.309 3.324,2.397 2.955,2.634C2.525,2.911 2.295,3.376 2.295,3.718L2.295,24.366C2.295,25.736 2.902,26.731 3.644,27.248C4.383,27.765 5.25,27.821 5.983,27.362C7.843,26.195 8.852,25.535 9.28,25.246C9.808,24.89 10.52,25.034 10.871,25.569C11.223,26.103 11.08,26.825 10.553,27.181C10.093,27.492 9.059,28.167 7.19,29.339C5.592,30.342 3.739,30.139 2.342,29.164C0.947,28.19 0,26.461 0,24.366L0,3.718C0,2.486 0.713,1.321 1.726,0.67Z"/>
</svg>
