<?xml version="1.0" encoding="UTF-8" standalone="no"?>
<!DOCTYPE svg PUBLIC "-//W3C//DTD SVG 1.1//EN" "http://www.w3.org/Graphics/SVG/1.1/DTD/svg11.dtd">
<svg width="100%" height="100%" viewBox="0 0 2342 1142" version="1.1"
    xmlns="http://www.w3.org/2000/svg"
    style="fill-rule:evenodd;clip-rule:evenodd;stroke-linejoin:round;stroke-miterlimit:2;fill:currentColor;">
    <g transform="matrix(1,0,0,1,-79.0752,40.1914)">
        <path d="M1868.01,767.974L1868.01,954.691C1868.01,986.249 1894.3,1011.23 1927.18,1011.23C1959.39,1011.23 1985.69,986.249 1985.69,955.349L1985.69,767.974L2091.54,767.974L2091.54,975.73C2091.54,1042.79 2013.3,1101.3 1923.89,1101.3C1834.48,1101.3 1762.16,1043.45 1762.16,975.73L1762.16,767.974L1868.01,767.974ZM188.87,653.577L188.87,1084.87L79.075,1084.87L79.075,564.821L276.969,564.821C363.095,564.821 433.443,634.511 433.443,719.323C433.443,791.643 382.819,852.128 314.444,867.907L466.973,1084.87L336.14,1084.87L226.345,914.586L226.345,790.328L251.986,790.328C292.748,790.328 325.62,760.085 325.62,722.61C325.62,685.135 294.72,653.577 253.958,653.577L188.87,653.577ZM1199.38,1084.87L1095.5,1084.87L1095.5,1049.36C1071.83,1078.29 1033.7,1094.07 992.936,1094.07C907.467,1094.07 837.777,1017.81 837.777,924.448C837.777,830.432 907.467,754.825 992.936,754.825C1033.04,754.825 1067.88,769.947 1095.5,796.902L1095.5,539.838L1199.38,539.838L1199.38,1084.87ZM1022.52,1005.32C1063.94,1005.32 1098.13,967.84 1098.79,921.818C1098.79,875.797 1064.6,838.322 1022.52,838.322C980.444,838.322 946.256,875.797 946.256,921.818C946.256,967.84 980.444,1005.32 1022.52,1005.32ZM1635.92,802.162C1705.62,834.377 1726.65,876.454 1727.31,935.625C1727.31,1017.15 1656.31,1083.55 1568.87,1084.87L1340.07,1084.87L1340.07,564.821L1516.93,564.821C1576.1,564.821 1619.49,581.258 1644.47,608.213C1668.14,633.854 1681.95,666.069 1681.95,701.572C1681.95,740.361 1664.2,775.864 1635.92,802.162ZM1547.83,994.796C1587.93,992.823 1612.26,965.868 1613.57,929.05C1613.57,892.233 1585.96,861.99 1549.14,861.99L1481.42,861.99L1481.42,767.974L1518.24,767.974C1548.48,767.974 1574.12,742.991 1574.12,712.091C1574.12,681.19 1548.48,658.18 1518.24,658.18L1448.55,658.18L1448.55,994.796L1547.83,994.796ZM787.81,944.829L559.674,944.829C559.674,983.619 591.889,1013.2 630.679,1013.2C660.264,1013.2 685.247,996.768 695.767,973.757L779.921,1012.55C750.993,1063.83 694.452,1096.7 622.132,1096.7C527.459,1096.7 450.536,1019.12 450.536,923.133C450.536,827.145 527.459,749.566 622.132,749.566C716.805,749.566 790.44,810.709 789.125,923.133C789.125,930.365 788.468,937.597 787.81,944.829ZM559.016,885.659L685.247,885.659C685.247,850.813 656.977,822.543 622.132,822.543C587.287,822.543 559.016,850.813 559.016,885.659ZM2140.19,539.838L2244.07,539.838L2244.07,1084.87L2140.19,1084.87L2140.19,539.838ZM2317.05,539.838L2420.93,539.838L2420.93,1084.87L2317.05,1084.87L2317.05,539.838Z" style=""/>
    </g>
    <g transform="matrix(1.0129,0,0,1.0129,-187.872,-349.281)">
        <path d="M1349.27,344.832C1487.92,344.832 1600.48,457.395 1600.48,596.041C1600.48,734.687 1487.92,847.25 1349.27,847.25C1210.62,847.25 1098.06,734.687 1098.06,596.041C1098.06,457.395 1210.62,344.832 1349.27,344.832ZM1349.27,361.615C1219.89,361.615 1114.85,466.658 1114.85,596.041C1114.85,725.424 1219.89,830.466 1349.27,830.466C1478.65,830.466 1583.7,725.424 1583.7,596.041C1583.7,466.658 1478.65,361.615 1349.27,361.615Z" style=""/>
    </g>
    <g transform="matrix(1,0,0,1,-0.180788,-661.51)">
        <path d="M975.842,847.458C979.787,857.319 979.787,870.469 977.157,880.988C976.499,881.645 975.842,881.645 975.184,880.988C973.212,871.783 971.24,862.579 967.952,853.375C965.98,848.115 959.406,843.513 962.035,837.596C963.35,836.281 965.98,836.281 967.952,836.938C971.24,840.226 973.212,843.513 975.842,847.458M1081.03,939.501C1088.27,948.048 1093.53,957.252 1090.9,968.429C1089.58,970.401 1090.24,974.346 1086.95,975.004C1085.64,975.661 1084.32,974.346 1084.32,973.031C1083.66,967.114 1083.66,960.54 1080.38,955.937C1076.43,951.993 1071.83,944.103 1065.26,944.103C1060.65,945.418 1057.37,950.678 1054.74,953.965C1054.74,954.623 1054.08,954.623 1053.42,953.965C1050.79,947.391 1056.05,942.131 1058.02,936.871C1061.97,932.927 1061.31,921.75 1069.86,925.037C1075.78,928.982 1077.09,935.556 1081.03,939.501M1067.23,1017.74C1067.88,1021.68 1067.88,1027.6 1063.94,1030.23C1060,1031.55 1054.74,1032.2 1050.13,1031.55C1048.82,1030.89 1047.5,1030.23 1048.16,1028.91C1050.13,1023 1056.05,1016.42 1062.63,1015.11C1063.94,1015.11 1066.57,1015.11 1067.23,1017.74M587.287,777.768C603.066,781.712 620.159,781.712 631.994,794.204C638.568,802.093 639.226,815.9 633.966,823.789C624.762,839.568 606.353,847.458 595.176,861.264C584,870.469 580.055,884.932 583.342,899.396C587.287,911.888 599.778,920.435 612.27,921.092C631.994,921.75 646.458,911.888 662.237,902.684C678.015,891.507 692.479,877.043 710.231,872.441C722.065,868.496 735.214,870.469 747.048,865.866C759.54,863.237 769.401,852.717 779.263,843.513C790.44,834.309 803.589,829.049 818.053,829.706C831.202,831.679 838.434,819.845 847.638,811.955C862.76,798.149 882.483,796.834 900.235,788.944C912.726,785 922.588,775.795 934.422,769.878C945.599,765.276 960.72,763.961 971.897,768.563C979.129,771.85 987.019,775.138 993.593,780.397L1046.85,825.104C1047.5,827.077 1049.48,828.391 1050.79,829.049C1065.91,847.458 1081.69,865.209 1094.18,885.59C1098.13,892.822 1100.1,900.054 1102.07,907.943C1104.7,938.186 1112.59,964.484 1122.45,990.783C1125.08,994.727 1130.34,998.014 1132.97,1001.96C1141.52,1013.79 1146.78,1028.91 1160.59,1036.8L1168.48,1040.75C1169.13,1041.41 1169.13,1042.72 1168.48,1043.38L1167.16,1044.69C1150.73,1047.32 1138.23,1037.46 1129.69,1025.63C1124.43,1015.11 1117.19,1003.93 1105.36,999.329C1104.7,999.329 1104.05,999.987 1104.05,999.987C1105.36,1003.93 1109.31,1006.56 1110.62,1009.85C1115.22,1017.08 1119.17,1024.97 1121.14,1032.86C1123.77,1041.41 1132.97,1047.32 1140.2,1051.93L1150.73,1057.18C1152.04,1057.84 1152.7,1059.82 1151.38,1061.13L1150.07,1061.79C1132.32,1062.44 1116.54,1056.53 1104.05,1043.38C1101.41,1040.09 1097.47,1037.46 1092.87,1037.46C1084.98,1044.69 1077.09,1051.27 1066.57,1051.93C1055.39,1049.95 1043.56,1049.95 1033.7,1053.9C1024.49,1057.18 1015.29,1061.13 1005.43,1061.13C1000.83,1061.13 995.565,1059.16 993.593,1054.56C993.593,1048.64 989.648,1042.06 992.936,1036.15L999.51,1026.29C999.51,1024.97 998.853,1023.65 997.538,1023.65C994.908,1023 990.306,1027.6 988.991,1023C989.648,1013.14 999.51,1006.56 1006.09,999.987C1007.4,992.097 1010.69,984.865 1016.6,978.291C1016.6,977.633 1015.95,976.319 1014.63,976.319C1006.09,977.633 997.538,979.606 988.333,979.606C981.101,983.551 971.897,986.18 963.35,983.551C961.378,982.236 962.035,980.263 962.693,978.948C971.897,966.457 975.184,950.678 972.555,935.556C971.897,934.899 971.897,933.584 970.582,933.584C969.267,933.584 969.267,934.899 968.61,935.556C966.638,950.02 962.035,961.197 954.146,973.689C948.229,979.606 939.024,979.606 931.135,981.578C929.163,982.236 927.19,984.208 927.19,986.18C927.19,991.44 930.478,994.727 932.45,999.329L949.544,1030.89C950.201,1039.43 946.256,1047.98 944.284,1055.87C944.942,1057.18 946.256,1056.53 947.571,1055.87C953.488,1050.61 957.433,1043.38 960.063,1035.49C960.72,1032.2 959.406,1028.26 958.091,1025.63L940.339,990.125C941.654,988.153 944.284,988.153 946.256,987.495C950.201,987.495 954.146,989.468 958.091,990.783C962.035,1001.3 966.638,1012.48 973.87,1021.68C975.184,1027.6 977.157,1035.49 973.212,1040.09C969.267,1047.98 965.323,1054.56 960.063,1061.79C955.461,1066.39 948.886,1065.73 942.312,1066.39L940.339,1066.39C924.56,1074.94 908.124,1080.2 891.03,1085.46C883.798,1088.74 875.251,1086.11 869.334,1081.51C863.417,1076.91 860.787,1070.33 856.843,1064.42C852.241,1058.5 845.009,1063.76 839.749,1060.47C835.147,1053.24 830.545,1046.01 826.6,1038.12C826.6,1036.15 826.6,1034.17 828.572,1032.86C834.489,1030.89 841.064,1030.89 847.638,1030.23C853.556,1029.57 860.13,1030.89 864.075,1034.83C871.964,1044.04 875.251,1056.53 887.086,1062.44C896.29,1063.1 904.179,1060.47 912.069,1056.53C916.671,1053.9 921.931,1049.95 921.931,1044.04C921.273,1032.2 913.384,1023 903.522,1016.42C893.66,1011.16 883.141,1003.93 875.909,994.727C871.964,989.468 871.307,983.551 869.334,978.291C868.677,976.976 866.047,976.976 865.39,977.633C861.445,980.921 864.732,986.838 864.732,990.783C865.39,993.412 866.705,996.7 865.39,998.672C859.473,1003.27 851.583,1000.64 844.351,1001.3C829.887,1000.64 816.081,994.727 800.959,996.042C786.495,996.7 766.772,1006.56 756.252,992.097C750.993,978.291 752.308,961.855 754.937,948.048C754.937,946.733 753.623,945.418 752.308,945.418C750.993,944.761 749.678,945.418 749.02,946.733C745.076,960.54 744.418,975.661 741.131,990.125C735.871,1002.62 726.667,1015.77 714.175,1022.34C702.999,1028.26 689.85,1030.23 676.043,1031.55C651.06,1032.2 628.049,1036.8 612.27,1058.5C610.955,1060.47 608.983,1062.44 609.64,1065.08C610.298,1065.73 612.27,1066.39 612.928,1065.73C630.021,1046.67 651.717,1038.78 676.7,1040.09C700.369,1040.09 724.037,1036.15 739.159,1015.77C743.103,1011.16 745.733,1006.56 749.02,1001.3C751.65,1001.3 753.623,1004.59 755.595,1005.9C756.252,1013.14 750.335,1017.74 747.705,1023.65C744.418,1030.23 741.131,1038.12 734.556,1042.06C726.667,1044.04 720.092,1049.3 712.86,1053.24C705.628,1056.53 696.424,1057.84 687.877,1055.87C677.358,1053.9 662.894,1051.27 652.375,1055.87C647.115,1059.16 642.513,1065.08 637.253,1068.36C630.021,1071.65 623.447,1077.57 614.9,1076.91C608.983,1075.59 601.751,1071.65 596.491,1076.91C589.917,1082.83 588.602,1093.35 580.055,1097.29C570.193,1102.55 559.674,1097.29 549.812,1096.63C551.127,1086.77 552.442,1077.57 559.016,1070.33C562.961,1069.68 566.248,1069.02 569.536,1066.39C573.48,1063.1 576.11,1058.5 578.74,1053.9C587.287,1048.64 597.149,1044.69 602.408,1035.49C606.353,1026.94 606.353,1019.05 612.928,1011.16L616.215,1009.85L633.966,1008.53C641.198,1005.25 647.773,1001.96 654.347,996.7C656.319,994.727 656.977,991.44 656.319,988.153C653.032,979.606 650.402,973.689 648.43,964.484C646.458,955.28 647.773,946.076 646.458,935.556C645.8,934.899 645.143,932.927 643.828,932.927C631.994,935.556 620.817,938.844 607.668,936.871C589.917,934.899 571.508,923.065 564.933,905.314C559.016,890.192 560.331,868.496 571.508,856.005C582.027,842.855 595.176,832.994 608.325,821.817C610.298,820.502 610.298,817.872 610.955,815.9C610.955,813.27 608.325,811.298 606.353,809.983C598.464,808.01 589.259,810.64 581.37,807.353C567.563,802.751 557.044,789.602 555.072,775.138C554.414,768.563 555.729,763.304 559.016,758.044C569.536,767.248 577.425,775.138 587.287,777.768M547.84,1071.65L547.84,1073.62C544.552,1081.51 542.58,1090.71 539.95,1099.92C534.033,1099.26 528.773,1097.29 524.171,1095.32C522.856,1094 524.171,1092.69 524.171,1091.37C530.088,1086.11 528.116,1079.54 529.431,1072.31C530.088,1068.36 534.033,1065.08 537.978,1063.1C542.58,1063.76 545.21,1068.36 547.84,1071.65M576.768,1044.04C573.48,1050.61 568.878,1058.5 561.646,1062.44C559.016,1063.1 555.729,1063.1 553.099,1061.79C551.784,1060.47 549.155,1059.16 549.155,1056.53C549.812,1053.9 548.497,1050.61 551.127,1049.3C556.386,1046.01 561.646,1042.72 566.906,1038.12C568.221,1037.46 570.85,1036.8 571.508,1038.12C574.138,1040.09 576.11,1041.41 576.768,1044.04M906.152,1041.41C906.809,1044.04 910.754,1047.32 908.124,1049.95C902.865,1053.9 896.947,1056.53 889.715,1055.87C884.456,1051.93 885.113,1044.69 880.511,1039.43C879.196,1035.49 873.279,1035.49 874.594,1031.55L876.566,1030.23C883.798,1030.23 891.03,1030.23 898.262,1028.91C905.494,1028.26 903.522,1036.8 906.152,1041.41M1321.66,934.242C1325.61,939.501 1328.89,944.761 1331.52,951.335C1332.18,952.65 1331.52,953.965 1330.87,955.28C1330.21,956.595 1328.89,957.91 1326.92,956.595C1322.32,955.28 1322.98,948.048 1317.06,948.705C1313.12,948.705 1310.49,951.993 1307.2,953.965C1301.28,959.225 1293.39,964.484 1292.08,972.374C1290.76,975.004 1291.42,979.606 1288.79,980.921C1287.48,981.578 1285.5,980.263 1285.5,978.948C1284.85,968.429 1288.13,958.567 1295.36,951.335C1302.6,945.418 1307.86,936.871 1313.77,929.639C1317.72,928.982 1320.35,931.612 1321.66,934.242M1324.29,1021.68C1325.61,1024.31 1328.24,1027.6 1326.27,1030.89C1323.63,1032.86 1319.03,1031.55 1315.75,1031.55C1311.8,1029.57 1310.49,1024.31 1310.49,1019.71C1310.49,1018.4 1310.49,1017.74 1311.8,1016.42C1316.4,1016.42 1321.01,1017.74 1324.29,1021.68M1422.91,820.502C1424.88,823.132 1422.91,825.762 1421.6,827.734C1412.39,836.281 1401.21,845.485 1394.64,856.005C1392.01,859.292 1390.04,863.237 1388.72,867.181C1388.72,867.839 1388.07,867.839 1387.41,867.839C1385.43,862.579 1388.07,856.662 1389.38,851.402C1393.98,838.911 1404.5,827.077 1415.68,818.53C1416.99,817.872 1421.6,817.215 1422.91,820.502M1460.38,778.425C1467.62,783.027 1470.25,792.889 1478.79,794.861C1493.26,798.149 1507.72,801.436 1520.87,808.01C1530.08,812.613 1538.62,819.187 1547.17,826.419C1555.06,830.364 1564.92,830.364 1573.47,832.994C1585.96,836.281 1595.82,845.485 1607,852.717C1621.46,863.894 1641.84,862.579 1658.28,869.811C1684.58,878.358 1705.62,898.739 1729.94,910.573C1742.43,917.148 1761.5,919.778 1773.99,912.546C1782.54,906.628 1787.8,898.739 1785.83,887.562C1781.22,860.607 1751.64,846.8 1737.83,824.447C1735.2,819.187 1733.23,811.955 1734.54,806.038C1739.8,792.889 1753.61,785.657 1765.44,781.055C1774.65,776.453 1786.48,777.768 1795.03,772.508C1798.32,770.536 1800.95,767.906 1802.92,765.933C1804.89,765.933 1804.89,767.906 1805.55,769.221C1808.18,785 1805.55,801.436 1791.74,810.64C1786.48,814.585 1779.91,815.9 1773.99,817.215C1768.73,819.187 1758.21,815.242 1758.87,824.447C1760.18,829.049 1764.13,831.679 1767.42,834.966C1785.83,850.087 1802.92,869.811 1804.89,893.479C1805.55,911.888 1793.06,927.667 1777.28,935.556C1765.44,940.159 1750.98,942.131 1738.49,938.844C1735.2,938.186 1729.94,934.899 1727.31,939.501C1726.65,944.761 1729.94,948.705 1729.94,953.308C1731.26,961.855 1731.26,973.031 1728.63,981.578C1727.31,988.153 1720.74,996.042 1726.65,1002.62C1732.57,1011.82 1744.4,1009.19 1754.27,1010.51C1759.53,1011.16 1761.5,1017.08 1762.81,1021.02C1764.79,1026.29 1764.79,1032.2 1766.76,1036.15C1766.76,1046.01 1777.93,1049.95 1783.19,1056.53C1789.77,1063.76 1795.69,1076.25 1806.86,1075.59C1810.81,1083.48 1812.78,1090.71 1814.1,1099.92L1812.78,1101.24C1803.58,1101.24 1791.08,1103.87 1784.51,1097.29C1776.62,1092.03 1773.99,1077.57 1762.16,1081.51C1756.9,1085.46 1749.66,1086.77 1743.75,1084.14C1737.83,1082.17 1733.89,1076.91 1728.63,1073.62C1712.85,1061.79 1691.81,1055.87 1671.43,1060.47C1659.59,1063.76 1650.39,1055.21 1641.18,1049.95C1628.69,1044.69 1625.41,1031.55 1622.78,1020.37L1620.8,1006.56C1620.8,1005.25 1622.12,1003.93 1623.43,1003.27L1625.41,1003.27C1632.64,1019.71 1646.44,1038.12 1664.2,1044.04C1680.63,1050.61 1695.75,1042.06 1713.51,1045.35C1729.94,1047.32 1743.09,1057.84 1755.58,1067.7C1756.9,1067.7 1757.55,1067.05 1758.21,1065.73L1758.21,1064.42C1743.09,1045.35 1722.05,1035.49 1697.73,1037.46C1677.35,1041.41 1657.62,1034.83 1645.79,1017.74C1639.21,1007.88 1634.61,997.357 1632.64,986.18C1630.67,973.031 1628.04,958.567 1623.43,946.733C1622.12,946.076 1620.8,944.761 1619.49,945.418L1618.17,947.391C1620.15,959.882 1624.09,975.004 1619.49,988.153C1616.2,998.672 1605.68,1002.62 1595.82,1003.27C1585.96,1003.93 1576.75,1001.96 1566.24,1001.96C1542.57,1001.3 1521.53,1010.51 1497.2,1008.53C1499.17,1002.62 1503.12,996.7 1501.15,990.125C1500.49,988.81 1498.52,988.81 1497.2,988.81C1492.6,991.44 1493.26,997.357 1490.63,1001.3C1485.37,1009.85 1475.51,1017.74 1465.64,1019.71C1458.41,1024.97 1451.84,1032.2 1445.92,1038.78C1443.95,1040.75 1443.95,1044.69 1444.61,1047.32C1449.21,1059.16 1463.02,1060.47 1473.53,1063.76C1478.79,1064.42 1483.4,1062.44 1486.03,1057.84C1490.63,1050.61 1491.29,1038.78 1501.81,1037.46L1524.82,1037.46C1526.79,1038.12 1528.1,1039.43 1529.42,1041.41L1528.76,1044.69C1523.5,1050.61 1521.53,1059.16 1514.95,1063.1C1511.01,1064.42 1506.41,1063.1 1503.78,1066.39C1502.46,1074.28 1500.49,1082.83 1492.6,1086.77C1486.68,1092.03 1478.14,1089.4 1471.56,1087.43C1459.07,1082.83 1446.58,1080.2 1434.09,1076.25C1428.83,1074.94 1426.86,1068.36 1420.94,1067.05C1415.68,1065.73 1409.76,1069.68 1405.16,1065.08C1402.53,1059.16 1401.21,1055.21 1399.9,1048.64C1397.93,1044.69 1396.61,1040.09 1395.95,1035.49C1395.3,1031.55 1395.95,1028.91 1397.27,1025.63L1414.36,994.727C1415.68,992.755 1416.99,990.783 1418.97,990.125C1422.91,990.783 1427.51,992.755 1431.46,994.727L1430.8,996.7L1413.05,1023.65C1409.1,1032.2 1413.05,1042.06 1416.99,1049.3C1417.65,1049.95 1418.31,1051.27 1418.97,1050.61C1418.31,1045.35 1417.65,1040.09 1418.97,1034.17C1420.28,1028.91 1423.57,1024.31 1426.2,1019.71L1440,999.329C1441.32,996.042 1441.32,990.783 1438.69,987.495C1432.77,981.578 1424.23,979.606 1418.97,971.716C1407.79,956.595 1406.47,938.844 1405.16,919.778C1405.16,918.463 1403.84,916.49 1401.87,915.833C1400.56,915.175 1399.24,917.148 1398.59,917.805C1395.3,930.297 1397.27,945.418 1400.56,956.595C1402.53,965.142 1406.47,973.689 1410.42,981.578C1411.08,982.893 1409.76,984.865 1408.45,985.523C1399.24,986.18 1390.04,985.523 1381.49,984.208C1369.66,982.236 1361.11,973.031 1351.25,965.799C1349.93,965.142 1349.28,966.457 1348.62,967.114C1351.25,980.263 1365.71,988.153 1370.31,999.987C1372.94,1009.85 1382.81,1017.08 1384.78,1027.6C1384.78,1028.91 1383.46,1030.89 1382.15,1031.55C1378.86,1032.2 1375.57,1030.23 1372.29,1032.2C1371.63,1038.12 1375.57,1044.04 1372.94,1049.3C1369.66,1054.56 1365.05,1060.47 1359.14,1060.47C1347.3,1056.53 1335.47,1051.27 1323.63,1047.98C1315.09,1047.32 1306.54,1048.64 1298.65,1049.3C1290.76,1047.98 1285.5,1040.75 1279.59,1036.8C1277.61,1036.15 1275.64,1036.15 1274.33,1037.46C1261.18,1050.61 1246.71,1065.08 1226.99,1064.42C1225.67,1064.42 1225.02,1063.1 1225.02,1061.79L1225.02,1060.47C1233.56,1052.58 1244.08,1044.69 1248.03,1033.52C1250.66,1024.31 1258.55,1017.74 1261.83,1009.19C1262.49,1007.88 1261.18,1007.22 1259.86,1006.56L1257.89,1007.88C1248.03,1017.74 1240.8,1028.91 1233.56,1039.43C1226.33,1046.67 1215.81,1051.27 1204.64,1048.64C1203.32,1047.98 1203.32,1046.01 1203.98,1044.69C1244.74,1019.71 1249.34,975.004 1260.52,934.242C1268.41,907.286 1274.33,879.673 1295.36,857.977C1326.92,823.132 1366.37,802.751 1401.21,772.508C1406.47,767.906 1411.73,763.304 1418.31,763.304C1435.4,761.989 1448.55,768.563 1460.38,778.425M1835.79,1069.02C1839.08,1073.62 1837.76,1080.85 1839.08,1086.11C1839.74,1090.06 1845,1093.35 1842.37,1097.29L1827.9,1101.89C1825.27,1101.89 1826.59,1098.61 1825.27,1097.29C1823.96,1088.74 1821.99,1082.83 1819.36,1074.94C1818.7,1070.33 1823.3,1067.05 1826.59,1064.42C1829.87,1063.1 1832.5,1067.05 1835.79,1069.02M1802.26,1039.43C1807.52,1044.04 1814.75,1047.32 1818.7,1053.24C1819.36,1055.87 1817.38,1058.5 1816.07,1060.47C1814.1,1062.44 1811.47,1063.76 1808.18,1063.76C1804.89,1063.76 1802.26,1061.79 1800.29,1059.16C1797,1053.9 1792.4,1049.3 1791.08,1044.04C1793.06,1040.75 1797.66,1035.49 1802.26,1039.43M1485.37,1034.17C1484.71,1040.75 1482.74,1046.67 1480.11,1052.58C1478.14,1056.53 1472.22,1055.21 1468.28,1054.56C1464.33,1053.24 1457.76,1052.58 1457.1,1046.67C1456.44,1041.41 1459.07,1036.15 1461.7,1032.2C1467.62,1031.55 1474.85,1032.86 1480.77,1031.55C1483.4,1031.55 1485.37,1032.2 1485.37,1034.17" style=""/>
    </g>
</svg>
