<?xml version="1.0" encoding="UTF-8" standalone="no"?>
<!DOCTYPE svg PUBLIC "-//W3C//DTD SVG 1.1//EN" "http://www.w3.org/Graphics/SVG/1.1/DTD/svg11.dtd">
<svg width="100%" height="100%" viewBox="0 0 400 400" version="1.1" xmlns="http://www.w3.org/2000/svg"  style="fill-rule:evenodd;clip-rule:evenodd;stroke-linejoin:round;stroke-miterlimit:2;fill:currentColor">
    <path d="M371.387,303.083C336.368,361.141 272.686,400 200,400C89.617,400 -0,310.383 -0,200C-0,89.617 89.617,0 200,0C273.664,0 338.079,39.911 372.784,99.27L96.507,99.27L96.507,177.966L166.138,177.966L166.138,224.671L138.131,224.671L138.131,303.083L371.387,303.083Z"/>
    <path d="M111.474,162.184L111.474,116.675L133.984,116.675L133.984,125.437L119.533,125.437L119.533,135.049L130.983,135.049L130.983,143.68L119.533,143.68L119.533,162.184L111.474,162.184ZM360.59,162.184L360.59,116.675L383.099,116.675L383.099,125.437L368.649,125.437L368.649,135.049L380.099,135.049L380.099,143.68L368.649,143.68L368.649,162.184L360.59,162.184ZM132.579,162.184L143.75,116.675L151.753,116.675L162.925,162.184L154.255,162.184L152.365,155.211L143.194,155.211C142.639,157.827 141.935,158.61 141.082,162.184L132.579,162.184ZM144.973,146.777L150.531,146.777L149.475,137.991L147.919,128.903L147.641,128.903L146.084,137.926L144.973,146.777ZM167.371,147.145L167.371,130.93C167.371,129.142 167.603,127.42 168.066,125.764C168.529,124.107 169.233,122.56 170.178,121.121C171.123,119.683 172.42,118.528 174.068,117.656C175.717,116.784 177.616,116.348 179.765,116.348C183.137,116.348 186.48,117.427 188.574,119.585C190.667,121.743 192.437,126.242 192.437,129.248L184.469,129.351C184.321,128.13 184.171,126.358 183.43,125.333C182.689,124.309 181.173,124.35 179.765,124.35C178.32,124.35 177.145,125.244 176.422,126.29C175.7,127.336 175.43,129.273 175.43,130.537L175.43,147.407C175.43,151.417 176.901,154.446 179.791,154.446C180.939,154.446 182.521,154.2 183.259,153.246C184.232,151.986 184.061,151.368 184.212,149.803L192.653,149.812C192.727,153.424 190.556,157.509 188.37,159.536C186.184,161.563 182.915,162.577 179.765,162.577C175.578,162.577 172.466,161.127 170.428,158.229C168.39,155.33 167.371,151.635 167.371,147.145ZM199.995,147.145L199.995,116.675L207.998,116.675L207.998,147.407C207.998,151.417 209.481,153.423 212.445,153.423C213.593,153.423 214.585,152.943 215.418,151.984C216.252,151.025 216.669,149.805 216.669,148.322L216.669,116.675L224.783,116.675L224.783,147.865C224.783,152.355 223.644,155.929 221.365,158.588C219.086,161.247 216.113,162.577 212.445,162.577C208.258,162.577 205.136,161.127 203.08,158.229C201.023,155.33 199.995,151.635 199.995,147.145ZM233.675,162.184L233.675,116.675L241.734,116.675L241.734,153.226L254.185,153.226L254.185,162.184L233.675,162.184ZM262.377,162.184L262.377,125.306L254.096,125.306L254.096,116.675L279.662,116.675L279.662,125.306L271.381,125.306L271.381,162.184L262.377,162.184ZM293.112,162.184L293.112,143.942L284.108,116.544L294.056,116.544L296.245,125.829L297.891,134.526L298.225,134.526L300.215,125.764L302.449,116.675L312.008,116.675L302.004,143.942L302.004,162.184L293.112,162.184ZM327.627,147.145L327.627,130.93C327.627,129.142 327.859,127.42 328.322,125.764C328.785,124.107 329.489,122.56 330.434,121.121C331.379,119.683 332.685,118.528 334.353,117.656C336.02,116.784 337.928,116.348 340.077,116.348C344.042,116.348 347.089,117.787 349.22,120.664C351.35,123.541 352.416,126.963 352.416,130.93L352.416,147.865C352.416,152.355 351.276,155.929 348.998,158.588C346.719,161.247 343.745,162.577 340.077,162.577C335.89,162.577 332.769,161.127 330.712,158.229C328.656,155.33 327.627,151.635 327.627,147.145ZM335.631,130.537L335.631,147.407C335.631,151.417 337.113,153.423 340.077,153.423C341.263,153.423 342.263,152.976 343.078,152.082C343.894,151.189 344.301,150.001 344.301,148.519L344.301,130.537C344.301,129.404 343.958,128.281 343.273,127.17C342.587,126.058 341.522,125.502 340.077,125.502C338.595,125.502 337.483,126.026 336.742,127.072C336.001,128.118 335.631,129.273 335.631,130.537Z"/>
    <path d="M217.77,224.685L217.77,179.175L230.052,179.175C233.869,179.175 236.898,180.374 239.14,182.772C241.381,185.169 242.502,188.765 242.502,193.56C242.502,197.963 241.428,201.483 239.279,204.12C237.13,206.758 234.202,208.076 230.497,208.076L225.828,208.076L225.828,224.685L217.77,224.685ZM225.828,199.249L230.108,199.249C231.405,199.249 232.479,198.78 233.332,197.843C234.184,196.906 234.61,195.435 234.61,193.43C234.61,189.768 233.091,187.937 230.052,187.937L225.828,187.937L225.828,199.249ZM250.227,224.685L250.227,179.175L262.51,179.175C266.326,179.175 269.355,180.374 271.597,182.772C273.839,185.169 274.959,188.765 274.959,193.56C274.959,197.963 273.885,201.483 271.736,204.12C269.587,206.758 266.66,208.076 262.954,208.076L258.286,208.076L258.286,224.685L250.227,224.685ZM258.286,199.249L262.565,199.249C263.862,199.249 264.937,198.78 265.789,197.843C266.641,196.906 267.067,195.435 267.067,193.43C267.067,189.768 265.548,187.937 262.51,187.937L258.286,187.937L258.286,199.249ZM282.767,224.685L282.767,179.175L290.826,179.175L290.826,215.727L303.277,215.727L303.277,224.685L282.767,224.685ZM310.196,224.685L310.196,179.175L318.255,179.175L318.255,224.685L310.196,224.685ZM327.592,224.685L327.592,179.175L349.101,179.175L349.101,187.937L335.651,187.937L335.651,197.353L347.1,197.353L347.1,206.049L335.651,206.049L335.651,215.727L349.101,215.727L349.101,224.685L327.592,224.685ZM181.208,224.685L192.379,179.175L200.383,179.175L211.554,224.685L202.884,224.685L200.994,217.712L191.823,217.712C191.268,220.327 190.564,221.11 189.711,224.685L181.208,224.685ZM193.602,209.277L199.16,209.277L198.104,200.491L196.548,191.403L196.27,191.403L194.714,200.426L193.602,209.277ZM355.309,224.685L355.309,179.175L368.092,179.175C373.613,179.175 377.17,181.616 378.763,186.499C379.467,188.635 379.819,193.015 379.819,199.641L379.819,205.167C379.819,205.668 379.81,206.442 379.791,207.488C379.773,208.534 379.754,209.297 379.736,209.776C379.717,210.256 379.68,210.899 379.625,211.705C379.569,212.512 379.504,213.166 379.43,213.667C379.356,214.168 379.263,214.702 379.152,215.269C379.041,215.835 378.911,216.359 378.763,216.838C377.133,222.069 373.335,224.685 367.37,224.685L355.309,224.685ZM363.312,215.923L366.703,215.923C368.629,215.923 369.963,215.356 370.704,214.223C371.445,213.089 371.816,211.367 371.816,209.057L371.816,198.072C371.816,196.546 371.76,195.26 371.649,194.214C371.538,193.168 371.316,191.133 370.982,190.108C370.649,189.084 370.121,188.31 369.398,187.787C368.676,187.264 367.759,187.002 366.647,187.002L363.312,187.002L363.312,215.923Z"/>
    <path d="M154.819,278.766C153.658,276.43 153.969,274.553 153.816,272.465L161.687,272.465C162.795,276.123 163.845,277.611 166.476,277.611C169.477,277.611 170.978,276.107 170.978,273.099C170.978,271.53 170.141,268.474 168.992,267.581C167.843,266.687 166.253,265.686 164.03,264.945C160.436,263.593 158.046,262.923 156.527,260.918C155.008,258.913 154.249,257.189 154.249,253.745C154.249,249.822 155.388,246.607 157.667,244.1C159.945,241.594 162.882,240.341 166.476,240.341C171.69,240.341 176.49,241.714 177.556,246.484C178.33,249.95 178.536,253.057 178.425,252.414L170.42,252.414C170.42,247.976 167.365,248.233 166.476,248.233C165.29,248.233 164.318,248.604 163.558,249.345C162.798,250.086 162.09,251.5 162.09,252.72C162.09,253.897 163.067,255.571 164.252,256.399C165.438,257.227 167.192,257.668 169.49,258.54C173.232,259.848 175.776,260.907 177.258,263.109C178.74,265.31 179.481,269.176 179.481,272.707C179.481,277.066 178.333,280.455 176.035,282.875C173.738,285.294 170.515,286.504 166.365,286.504C160.77,286.504 157.969,283.909 154.819,278.766ZM356.359,278.766C355.198,276.43 355.509,274.553 355.356,272.465L363.227,272.465C364.335,276.123 365.385,277.611 368.016,277.611C371.017,277.611 372.518,276.107 372.518,273.099C372.518,271.53 371.681,268.474 370.532,267.581C369.384,266.687 367.794,265.686 365.57,264.945C361.976,263.593 359.587,262.923 358.067,260.918C356.548,258.913 355.789,257.189 355.789,253.745C355.789,249.822 356.928,246.607 359.207,244.1C361.485,241.594 364.422,240.341 368.016,240.341C373.231,240.341 378.03,241.714 379.096,246.484C379.87,249.95 380.076,253.057 379.965,252.414L371.96,252.414C371.96,247.976 368.905,248.233 368.016,248.233C366.83,248.233 365.858,248.604 365.098,249.345C364.339,250.086 363.63,251.5 363.63,252.72C363.63,253.897 364.607,255.571 365.793,256.399C366.978,257.227 368.733,257.668 371.03,258.54C374.772,259.848 377.316,260.907 378.798,263.109C380.28,265.31 381.021,269.176 381.021,272.707C381.021,277.066 379.873,280.455 377.576,282.875C375.278,285.294 372.055,286.504 367.905,286.504C362.31,286.504 359.509,283.909 356.359,278.766ZM185.909,271.072L185.909,254.856C185.909,253.069 186.141,251.347 186.604,249.691C187.067,248.034 187.771,246.487 188.716,245.048C189.661,243.61 190.958,242.455 192.607,241.583C194.256,240.711 196.154,240.275 198.304,240.275C201.675,240.275 205.019,241.354 207.112,243.512C209.206,245.67 210.976,250.169 210.976,253.175L203.007,253.278C202.859,252.057 202.71,250.284 201.969,249.26C201.228,248.236 199.712,248.277 198.304,248.277C196.858,248.277 195.683,249.171 194.96,250.217C194.238,251.263 193.968,253.2 193.968,254.464L193.968,271.334C193.968,275.344 195.439,278.373 198.329,278.373C199.478,278.373 201.06,278.127 201.797,277.173C202.771,275.913 202.599,275.294 202.75,273.73L211.191,273.739C211.265,277.351 209.095,281.436 206.908,283.463C204.722,285.49 201.453,286.504 198.304,286.504C194.117,286.504 191.004,285.054 188.966,282.155C186.928,279.257 185.909,275.562 185.909,271.072ZM296.795,271.072L296.795,254.856C296.795,253.069 297.027,251.347 297.49,249.691C297.953,248.034 298.657,246.487 299.602,245.048C300.547,243.61 301.843,242.455 303.492,241.583C305.141,240.711 307.04,240.275 309.189,240.275C312.561,240.275 315.904,241.354 317.998,243.512C320.091,245.67 321.861,250.169 321.861,253.175L313.893,253.278C313.745,252.057 313.595,250.284 312.854,249.26C312.113,248.236 310.597,248.277 309.189,248.277C307.744,248.277 306.569,249.171 305.846,250.217C305.123,251.263 304.854,253.2 304.854,254.464L304.854,271.334C304.854,275.344 306.324,278.373 309.215,278.373C310.363,278.373 311.945,278.127 312.683,277.173C313.656,275.913 313.484,275.294 313.635,273.73L322.077,273.739C322.151,277.351 319.98,281.436 317.794,283.463C315.608,285.49 312.339,286.504 309.189,286.504C305.002,286.504 301.89,285.054 299.852,282.155C297.814,279.257 296.795,275.562 296.795,271.072ZM217.565,286.504L217.565,240.994L225.624,240.994L225.624,286.504L217.565,286.504ZM234.961,286.504L234.961,240.994L256.47,240.994L256.47,249.756L243.02,249.756L243.02,259.172L254.469,259.172L254.469,267.868L243.02,267.868L243.02,277.546L256.47,277.546L256.47,286.504L234.961,286.504ZM328.799,286.504L328.799,240.994L350.308,240.994L350.308,249.756L336.857,249.756L336.857,259.172L348.307,259.172L348.307,267.868L336.857,267.868L336.857,277.546L350.308,277.546L350.308,286.504L328.799,286.504ZM262.695,286.504L262.695,240.994L269.809,240.994L276.145,254.595L281.203,265.58L281.37,265.514L281.37,240.994L289.373,240.994L289.373,286.504L282.314,286.504L275.145,271.334L270.921,261.722L270.754,261.787L270.754,286.504L262.695,286.504Z"/>
</svg>
