<?xml version="1.0" encoding="UTF-8" standalone="no"?>
<!DOCTYPE svg PUBLIC "-//W3C//DTD SVG 1.1//EN" "http://www.w3.org/Graphics/SVG/1.1/DTD/svg11.dtd">
<svg width="100%" height="100%" viewBox="0 0 600 265" version="1.1"
    xmlns="http://www.w3.org/2000/svg"
    style="fill-rule:evenodd;clip-rule:evenodd;stroke-linejoin:round;stroke-miterlimit:2;fill:currentColor">
    <path d="M90.711,252.789C89.721,252.933 88.708,253.007 87.677,253.007C76.399,253.007 67.242,244.09 67.242,233.107C67.242,222.124 76.399,213.207 87.677,213.207C87.89,213.207 88.103,213.211 88.315,213.217L88.315,212.962L485.729,212.962L485.729,212.975C496.993,212.992 506.132,221.902 506.132,232.875C506.132,243.848 496.993,252.759 485.729,252.775L485.729,252.789L90.711,252.789ZM121.823,226.537L121.823,234.778C121.823,235.718 121.657,236.43 121.324,236.913C120.992,237.396 120.45,237.637 119.697,237.637C118.919,237.637 118.349,237.412 117.985,236.96C117.621,236.509 117.439,235.781 117.439,234.778L117.439,226.537L114.862,226.537L114.862,235.286C114.862,236.803 115.254,237.957 116.038,238.747C116.821,239.538 118.029,239.933 119.659,239.933C120.337,239.933 120.958,239.832 121.522,239.632C122.086,239.431 122.573,239.127 122.98,238.719C123.388,238.312 123.705,237.797 123.93,237.176C124.156,236.556 124.269,235.819 124.269,234.966L124.269,226.537L121.823,226.537ZM171.889,239.707L174.147,239.707L174.147,232.84C174.21,232.601 174.322,232.429 174.485,232.322C174.649,232.216 174.843,232.162 175.069,232.162C175.332,232.162 175.555,232.275 175.737,232.501C175.919,232.727 176.009,233.122 176.009,233.686L176.009,239.707L178.267,239.707L178.267,233.272C178.267,232.633 178.214,232.109 178.107,231.701C178.001,231.294 177.847,230.971 177.646,230.732C177.446,230.494 177.21,230.328 176.941,230.234C176.671,230.14 176.367,230.093 176.028,230.093C175.577,230.093 175.157,230.209 174.768,230.441C174.379,230.673 174.09,231.008 173.902,231.447C173.764,230.946 173.507,230.594 173.131,230.394C172.755,230.193 172.359,230.093 171.945,230.093C171.456,230.093 171.03,230.209 170.666,230.441C170.302,230.673 170.026,230.971 169.838,231.334L169.782,231.334L169.518,230.3L167.731,230.3L167.731,239.707L169.989,239.707L169.989,232.896C170.051,232.683 170.174,232.507 170.356,232.369C170.538,232.231 170.735,232.162 170.948,232.162C171.074,232.162 171.196,232.184 171.315,232.228C171.434,232.272 171.535,232.36 171.616,232.492C171.698,232.623 171.764,232.805 171.814,233.037C171.864,233.269 171.889,233.573 171.889,233.95L171.889,239.707ZM154.655,235.003C154.655,235.743 154.765,236.421 154.984,237.035C155.204,237.65 155.526,238.174 155.953,238.606C156.379,239.039 156.903,239.375 157.524,239.613C158.145,239.851 158.85,239.97 159.641,239.97C160.393,239.97 161.074,239.861 161.682,239.641C162.29,239.422 162.814,239.099 163.253,238.672C163.692,238.246 164.031,237.725 164.269,237.111C164.507,236.496 164.627,235.794 164.627,235.003C164.627,234.263 164.517,233.586 164.297,232.971C164.078,232.357 163.755,231.833 163.328,231.4C162.902,230.968 162.378,230.632 161.757,230.394C161.136,230.155 160.431,230.036 159.641,230.036C158.888,230.036 158.208,230.146 157.599,230.366C156.991,230.585 156.467,230.908 156.028,231.334C155.589,231.761 155.251,232.281 155.012,232.896C154.774,233.511 154.655,234.213 154.655,235.003ZM157.176,235.003C157.176,234.489 157.239,234.05 157.364,233.686C157.49,233.323 157.662,233.022 157.881,232.783C158.101,232.545 158.361,232.372 158.662,232.266C158.963,232.159 159.289,232.106 159.641,232.106C160.431,232.106 161.039,232.372 161.466,232.905C161.892,233.439 162.105,234.138 162.105,235.003C162.105,236.007 161.876,236.741 161.419,237.205C160.961,237.669 160.368,237.901 159.641,237.901C159.252,237.901 158.907,237.829 158.606,237.684C158.305,237.54 158.048,237.336 157.834,237.073C157.621,236.81 157.458,236.502 157.345,236.151C157.232,235.8 157.176,235.417 157.176,235.003ZM269.218,235.286L269.218,237.562C268.829,237.637 268.427,237.675 268.013,237.675C267.436,237.675 266.922,237.565 266.471,237.346C266.019,237.126 265.636,236.816 265.323,236.414C265.009,236.013 264.771,235.533 264.608,234.975C264.445,234.417 264.363,233.799 264.363,233.122C264.363,232.344 264.451,231.67 264.627,231.099C264.802,230.529 265.047,230.055 265.361,229.679C265.674,229.302 266.041,229.023 266.461,228.842C266.881,228.66 267.336,228.569 267.825,228.569C268.239,228.569 268.641,228.6 269.029,228.663L269.029,230.808L271.099,230.808L271.099,226.894C270.76,226.731 270.331,226.587 269.81,226.461C269.29,226.336 268.653,226.273 267.901,226.273C267.186,226.273 266.458,226.389 265.718,226.621C264.978,226.853 264.307,227.236 263.705,227.769C263.103,228.302 262.61,229.005 262.228,229.876C261.845,230.748 261.654,231.83 261.654,233.122C261.654,234.364 261.823,235.42 262.162,236.292C262.501,237.164 262.952,237.873 263.517,238.418C264.081,238.964 264.737,239.359 265.483,239.604C266.229,239.848 267.016,239.97 267.844,239.97C268.496,239.97 269.133,239.889 269.754,239.726C270.375,239.563 270.886,239.337 271.287,239.048L271.287,235.286L269.218,235.286ZM102.143,226.537L102.143,239.707L104.72,239.707L104.72,234.382L110.083,234.382L110.083,232.087L104.72,232.087L104.72,228.832L110.497,228.832L110.497,226.537L102.143,226.537ZM300.939,230.3L300.939,232.369L302.35,232.369L302.35,243.47L304.796,243.47L304.796,239.613C305.047,239.738 305.361,239.829 305.737,239.886C306.113,239.942 306.496,239.97 306.885,239.97C307.625,239.97 308.283,239.851 308.86,239.613C309.437,239.375 309.926,239.03 310.328,238.578C310.729,238.127 311.036,237.578 311.25,236.932C311.463,236.286 311.569,235.562 311.569,234.759C311.569,233.931 311.475,233.222 311.287,232.633C311.099,232.043 310.833,231.554 310.488,231.165C310.143,230.776 309.729,230.491 309.246,230.309C308.763,230.127 308.233,230.036 307.656,230.036C306.201,230.036 305.147,230.5 304.495,231.429L304.42,231.429L304.138,230.3L300.939,230.3ZM306.922,232.106C307.537,232.106 308.045,232.332 308.446,232.783C308.848,233.235 309.048,233.874 309.048,234.702C309.048,235.267 308.986,235.75 308.86,236.151C308.735,236.552 308.559,236.885 308.333,237.148C308.108,237.412 307.844,237.603 307.543,237.722C307.242,237.841 306.916,237.901 306.565,237.901C306.226,237.901 305.891,237.86 305.558,237.779C305.226,237.697 304.972,237.587 304.796,237.449L304.796,233.536C304.947,233.059 305.22,232.702 305.615,232.463C306.01,232.225 306.446,232.106 306.922,232.106ZM224.758,227.741C224.758,228.142 224.903,228.471 225.191,228.729C225.48,228.986 225.881,229.114 226.395,229.114C226.922,229.114 227.342,228.986 227.656,228.729C227.969,228.471 228.126,228.142 228.126,227.741C228.126,227.352 227.969,227.02 227.656,226.744C227.342,226.468 226.922,226.33 226.395,226.33C225.881,226.33 225.48,226.468 225.191,226.744C224.903,227.02 224.758,227.352 224.758,227.741ZM88.427,235.398L88.427,238.898C88.59,238.986 88.803,239.092 89.067,239.218C89.33,239.343 89.634,239.462 89.979,239.575C90.324,239.688 90.7,239.782 91.108,239.858C91.516,239.933 91.958,239.97 92.434,239.97C93.149,239.97 93.814,239.886 94.429,239.716C95.043,239.547 95.577,239.29 96.028,238.945C96.48,238.6 96.831,238.174 97.082,237.666C97.333,237.158 97.458,236.565 97.458,235.888C97.458,235.185 97.298,234.602 96.978,234.138C96.658,233.674 96.263,233.288 95.793,232.981C95.323,232.673 94.808,232.413 94.25,232.2C93.692,231.987 93.178,231.773 92.707,231.56C92.237,231.347 91.842,231.109 91.522,230.845C91.202,230.582 91.042,230.243 91.042,229.829C91.042,229.428 91.215,229.108 91.56,228.87C91.905,228.631 92.378,228.512 92.98,228.512C93.294,228.512 93.61,228.534 93.93,228.578C94.25,228.622 94.548,228.682 94.824,228.757C94.862,228.769 94.899,228.776 94.937,228.776L94.937,230.864L97.006,230.864L97.006,227.045C96.567,226.806 95.978,226.618 95.238,226.48C94.498,226.342 93.745,226.273 92.98,226.273C92.303,226.273 91.688,226.367 91.136,226.556C90.584,226.744 90.111,227.007 89.716,227.346C89.321,227.684 89.013,228.089 88.794,228.559C88.574,229.03 88.465,229.547 88.465,230.112C88.465,230.852 88.625,231.454 88.944,231.918C89.264,232.382 89.659,232.768 90.13,233.075C90.6,233.382 91.114,233.636 91.672,233.837C92.231,234.038 92.745,234.238 93.215,234.439C93.686,234.64 94.081,234.872 94.401,235.135C94.72,235.398 94.88,235.743 94.88,236.17C94.88,236.646 94.686,237.026 94.297,237.308C93.908,237.59 93.363,237.731 92.66,237.731C92.271,237.731 91.905,237.691 91.56,237.609C91.215,237.528 90.898,237.424 90.609,237.299L90.497,237.261L90.497,235.398L88.427,235.398ZM292.115,239.707L294.373,239.707L294.373,232.84C294.436,232.601 294.548,232.429 294.711,232.322C294.875,232.216 295.069,232.162 295.295,232.162C295.558,232.162 295.781,232.275 295.963,232.501C296.145,232.727 296.235,233.122 296.235,233.686L296.235,239.707L298.493,239.707L298.493,233.272C298.493,232.633 298.44,232.109 298.333,231.701C298.227,231.294 298.073,230.971 297.872,230.732C297.672,230.494 297.436,230.328 297.167,230.234C296.897,230.14 296.593,230.093 296.254,230.093C295.803,230.093 295.383,230.209 294.994,230.441C294.605,230.673 294.316,231.008 294.128,231.447C293.99,230.946 293.733,230.594 293.357,230.394C292.981,230.193 292.585,230.093 292.172,230.093C291.682,230.093 291.256,230.209 290.892,230.441C290.528,230.673 290.252,230.971 290.064,231.334L290.008,231.334L289.744,230.3L287.957,230.3L287.957,239.707L290.215,239.707L290.215,232.896C290.277,232.683 290.4,232.507 290.582,232.369C290.764,232.231 290.961,232.162 291.174,232.162C291.3,232.162 291.422,232.184 291.541,232.228C291.66,232.272 291.761,232.36 291.842,232.492C291.924,232.623 291.99,232.805 292.04,233.037C292.09,233.269 292.115,233.573 292.115,233.95L292.115,239.707ZM190.76,238.71L189.951,237.111C189.65,237.361 189.258,237.575 188.775,237.75C188.292,237.926 187.675,238.014 186.922,238.014C186.546,238.014 186.191,237.973 185.859,237.891C185.527,237.81 185.232,237.681 184.975,237.506C184.718,237.33 184.511,237.104 184.354,236.828C184.197,236.552 184.112,236.214 184.1,235.812L190.873,235.812C190.999,235.185 191.061,234.602 191.061,234.063C191.061,233.272 190.926,232.62 190.657,232.106C190.387,231.592 190.039,231.181 189.612,230.874C189.186,230.566 188.719,230.35 188.211,230.224C187.703,230.099 187.21,230.036 186.734,230.036C186.019,230.036 185.354,230.14 184.739,230.347C184.125,230.554 183.589,230.864 183.131,231.278C182.673,231.692 182.312,232.209 182.049,232.83C181.786,233.451 181.654,234.175 181.654,235.003C181.654,235.781 181.77,236.474 182.002,237.082C182.234,237.691 182.57,238.211 183.009,238.644C183.448,239.077 183.984,239.406 184.617,239.632C185.251,239.858 185.969,239.97 186.771,239.97C187.236,239.97 187.675,239.933 188.089,239.858C188.502,239.782 188.882,239.682 189.227,239.556C189.572,239.431 189.873,239.296 190.13,239.152C190.387,239.008 190.597,238.86 190.76,238.71ZM186.696,231.993C187.399,231.993 187.922,232.172 188.267,232.529C188.612,232.887 188.785,233.373 188.785,233.987L184.156,233.987C184.181,233.674 184.269,233.392 184.42,233.141C184.57,232.89 184.761,232.68 184.993,232.51C185.226,232.341 185.486,232.212 185.774,232.125C186.063,232.037 186.37,231.993 186.696,231.993ZM234.373,230.3L234.373,232.369L235.727,232.369L235.727,239.707L238.173,239.707L238.173,233.611C238.311,233.21 238.572,232.874 238.954,232.604C239.337,232.335 239.76,232.2 240.224,232.2C240.751,232.2 241.187,232.369 241.532,232.708C241.877,233.047 242.049,233.598 242.049,234.364L242.049,239.707L244.495,239.707L244.495,233.856C244.495,233.128 244.41,232.517 244.241,232.021C244.072,231.526 243.843,231.134 243.554,230.845C243.266,230.557 242.918,230.35 242.51,230.224C242.102,230.099 241.667,230.036 241.202,230.036C240.45,230.036 239.804,230.187 239.265,230.488C238.725,230.789 238.311,231.14 238.023,231.541L237.947,231.541L237.665,230.3L234.373,230.3ZM329.839,232.369L329.839,235.06C329.839,236.766 330.193,238.011 330.902,238.794C331.61,239.578 332.667,239.97 334.072,239.97C334.461,239.97 334.856,239.927 335.257,239.839C335.659,239.751 336.044,239.629 336.414,239.472C336.784,239.315 337.129,239.133 337.449,238.926C337.769,238.719 338.036,238.49 338.249,238.239L337.12,236.546C336.969,236.672 336.803,236.81 336.621,236.96C336.439,237.111 336.239,237.249 336.019,237.374C335.8,237.499 335.552,237.603 335.276,237.684C335,237.766 334.693,237.807 334.354,237.807C333.702,237.807 333.194,237.59 332.83,237.158C332.466,236.725 332.284,236.026 332.284,235.06L332.284,232.369L337.214,232.369L337.214,230.3L332.284,230.3L332.284,227.459L329.839,228.155L329.839,230.3L327.976,230.3L327.976,232.369L329.839,232.369ZM342.125,237.637L342.125,239.707L351.363,239.707L351.363,237.637L347.882,237.637L347.882,230.3L342.125,230.3L342.125,232.369L345.436,232.369L345.436,237.637L342.125,237.637ZM320.506,230.3L320.506,232.369L321.56,232.369L321.56,236.377C321.41,236.778 321.149,237.117 320.779,237.393C320.409,237.669 319.992,237.807 319.528,237.807C319.001,237.807 318.616,237.637 318.371,237.299C318.126,236.96 318.004,236.408 318.004,235.643L318.004,230.3L314.486,230.3L314.486,232.369L315.558,232.369L315.558,236.151C315.558,236.891 315.633,237.506 315.784,237.995C315.934,238.484 316.148,238.873 316.424,239.161C316.7,239.45 317.035,239.657 317.43,239.782C317.825,239.908 318.261,239.97 318.738,239.97C319.44,239.97 320.08,239.814 320.657,239.5C321.234,239.186 321.667,238.791 321.955,238.315L322.03,238.315L322.463,239.707L325.436,239.707L325.436,237.637L324.006,237.637L324.006,230.3L320.506,230.3ZM143.93,233.893L143.328,226.537L140.751,226.537L142.105,239.707L144.363,239.707L145.887,235.549L146.339,233.743L146.433,233.743L146.865,235.549L148.277,239.707L150.459,239.707L151.814,226.537L149.443,226.537L148.916,233.856L148.879,235.474L148.803,235.474L148.465,233.987L147.411,230.488L145.492,230.488L144.363,233.987L144.043,235.474L143.968,235.474L143.93,233.893ZM395.671,235.398L395.671,238.898C395.834,238.986 396.048,239.092 396.311,239.218C396.574,239.343 396.879,239.462 397.223,239.575C397.568,239.688 397.945,239.782 398.352,239.858C398.76,239.933 399.202,239.97 399.679,239.97C400.394,239.97 401.059,239.886 401.673,239.716C402.288,239.547 402.821,239.29 403.272,238.945C403.724,238.6 404.075,238.174 404.326,237.666C404.577,237.158 404.702,236.565 404.702,235.888C404.702,235.185 404.542,234.602 404.223,234.138C403.903,233.674 403.508,233.288 403.037,232.981C402.567,232.673 402.053,232.413 401.494,232.2C400.936,231.987 400.422,231.773 399.952,231.56C399.481,231.347 399.086,231.109 398.766,230.845C398.446,230.582 398.287,230.243 398.287,229.829C398.287,229.428 398.459,229.108 398.804,228.87C399.149,228.631 399.622,228.512 400.224,228.512C400.538,228.512 400.855,228.534 401.175,228.578C401.494,228.622 401.792,228.682 402.068,228.757C402.106,228.769 402.144,228.776 402.181,228.776L402.181,230.864L404.251,230.864L404.251,227.045C403.812,226.806 403.222,226.618 402.482,226.48C401.742,226.342 400.99,226.273 400.224,226.273C399.547,226.273 398.932,226.367 398.381,226.556C397.829,226.744 397.355,227.007 396.96,227.346C396.565,227.684 396.258,228.089 396.038,228.559C395.819,229.03 395.709,229.547 395.709,230.112C395.709,230.852 395.869,231.454 396.189,231.918C396.509,232.382 396.904,232.768 397.374,233.075C397.844,233.382 398.359,233.636 398.917,233.837C399.475,234.038 399.989,234.238 400.46,234.439C400.93,234.64 401.325,234.872 401.645,235.135C401.965,235.398 402.125,235.743 402.125,236.17C402.125,236.646 401.93,237.026 401.541,237.308C401.153,237.59 400.607,237.731 399.905,237.731C399.516,237.731 399.149,237.691 398.804,237.609C398.459,237.528 398.142,237.424 397.854,237.299L397.741,237.261L397.741,235.398L395.671,235.398ZM418.08,238.804L417.271,236.979C417.045,237.129 416.703,237.305 416.245,237.506C415.787,237.706 415.201,237.807 414.486,237.807C414.034,237.807 413.624,237.735 413.254,237.59C412.884,237.446 412.573,237.249 412.322,236.998C412.071,236.747 411.877,236.452 411.739,236.113C411.601,235.775 411.532,235.405 411.532,235.003C411.532,234.514 411.617,234.094 411.786,233.743C411.955,233.392 412.175,233.1 412.445,232.868C412.714,232.636 413.022,232.466 413.367,232.36C413.711,232.253 414.06,232.2 414.411,232.2C414.8,232.2 415.188,232.244 415.577,232.332L415.577,234.063L417.647,234.063L417.647,230.751C417.321,230.601 416.85,230.444 416.236,230.281C415.621,230.118 414.963,230.036 414.26,230.036C413.508,230.036 412.811,230.146 412.172,230.366C411.532,230.585 410.977,230.908 410.507,231.334C410.036,231.761 409.669,232.281 409.406,232.896C409.143,233.511 409.011,234.213 409.011,235.003C409.011,235.743 409.124,236.421 409.35,237.035C409.575,237.65 409.905,238.174 410.337,238.606C410.77,239.039 411.303,239.375 411.937,239.613C412.57,239.851 413.294,239.97 414.11,239.97C414.862,239.97 415.584,239.873 416.273,239.679C416.963,239.484 417.565,239.193 418.08,238.804ZM422.275,237.637L422.275,239.707L431.513,239.707L431.513,237.637L428.033,237.637L428.033,230.3L422.275,230.3L422.275,232.369L425.587,232.369L425.587,237.637L422.275,237.637ZM425.135,227.741C425.135,228.142 425.279,228.471 425.568,228.729C425.856,228.986 426.258,229.114 426.772,229.114C427.299,229.114 427.719,228.986 428.033,228.729C428.346,228.471 428.503,228.142 428.503,227.741C428.503,227.352 428.346,227.02 428.033,226.744C427.719,226.468 427.299,226.33 426.772,226.33C426.258,226.33 425.856,226.468 425.568,226.744C425.279,227.02 425.135,227.352 425.135,227.741ZM444.571,238.71L443.762,237.111C443.461,237.361 443.069,237.575 442.586,237.75C442.103,237.926 441.485,238.014 440.733,238.014C440.356,238.014 440.002,237.973 439.669,237.891C439.337,237.81 439.042,237.681 438.785,237.506C438.528,237.33 438.321,237.104 438.164,236.828C438.008,236.552 437.923,236.214 437.91,235.812L444.684,235.812C444.809,235.185 444.872,234.602 444.872,234.063C444.872,233.272 444.737,232.62 444.467,232.106C444.198,231.592 443.849,231.181 443.423,230.874C442.997,230.566 442.529,230.35 442.021,230.224C441.513,230.099 441.021,230.036 440.544,230.036C439.829,230.036 439.165,230.14 438.55,230.347C437.935,230.554 437.399,230.864 436.941,231.278C436.484,231.692 436.123,232.209 435.859,232.83C435.596,233.451 435.464,234.175 435.464,235.003C435.464,235.781 435.58,236.474 435.812,237.082C436.045,237.691 436.38,238.211 436.819,238.644C437.258,239.077 437.794,239.406 438.428,239.632C439.061,239.858 439.779,239.97 440.582,239.97C441.046,239.97 441.485,239.933 441.899,239.858C442.313,239.782 442.692,239.682 443.037,239.556C443.382,239.431 443.683,239.296 443.94,239.152C444.198,239.008 444.408,238.86 444.571,238.71ZM440.507,231.993C441.209,231.993 441.733,232.172 442.078,232.529C442.423,232.887 442.595,233.373 442.595,233.987L437.967,233.987C437.992,233.674 438.08,233.392 438.23,233.141C438.381,232.89 438.572,232.68 438.804,232.51C439.036,232.341 439.296,232.212 439.585,232.125C439.873,232.037 440.181,231.993 440.507,231.993ZM221.899,237.637L221.899,239.707L231.137,239.707L231.137,237.637L227.656,237.637L227.656,230.3L221.899,230.3L221.899,232.369L225.21,232.369L225.21,237.637L221.899,237.637ZM194.297,230.3L194.297,232.369L195.652,232.369L195.652,239.707L198.098,239.707L198.098,233.611C198.236,233.21 198.496,232.874 198.879,232.604C199.261,232.335 199.685,232.2 200.149,232.2C200.676,232.2 201.111,232.369 201.456,232.708C201.801,233.047 201.974,233.598 201.974,234.364L201.974,239.707L204.42,239.707L204.42,233.856C204.42,233.128 204.335,232.517 204.166,232.021C203.996,231.526 203.767,231.134 203.479,230.845C203.19,230.557 202.842,230.35 202.435,230.224C202.027,230.099 201.591,230.036 201.127,230.036C200.375,230.036 199.729,230.187 199.189,230.488C198.65,230.789 198.236,231.14 197.947,231.541L197.872,231.541L197.59,230.3L194.297,230.3ZM484.646,238.71L483.837,237.111C483.536,237.361 483.144,237.575 482.661,237.75C482.178,237.926 481.56,238.014 480.808,238.014C480.432,238.014 480.077,237.973 479.745,237.891C479.412,237.81 479.118,237.681 478.861,237.506C478.603,237.33 478.396,237.104 478.24,236.828C478.083,236.552 477.998,236.214 477.986,235.812L484.759,235.812C484.884,235.185 484.947,234.602 484.947,234.063C484.947,233.272 484.812,232.62 484.543,232.106C484.273,231.592 483.925,231.181 483.498,230.874C483.072,230.566 482.605,230.35 482.097,230.224C481.589,230.099 481.096,230.036 480.62,230.036C479.905,230.036 479.24,230.14 478.625,230.347C478.011,230.554 477.475,230.864 477.017,231.278C476.559,231.692 476.198,232.209 475.935,232.83C475.671,233.451 475.54,234.175 475.54,235.003C475.54,235.781 475.656,236.474 475.888,237.082C476.12,237.691 476.455,238.211 476.894,238.644C477.333,239.077 477.87,239.406 478.503,239.632C479.136,239.858 479.855,239.97 480.657,239.97C481.121,239.97 481.56,239.933 481.974,239.858C482.388,239.782 482.768,239.682 483.113,239.556C483.458,239.431 483.759,239.296 484.016,239.152C484.273,239.008 484.483,238.86 484.646,238.71ZM480.582,231.993C481.284,231.993 481.808,232.172 482.153,232.529C482.498,232.887 482.671,233.373 482.671,233.987L478.042,233.987C478.067,233.674 478.155,233.392 478.305,233.141C478.456,232.89 478.647,232.68 478.879,232.51C479.111,232.341 479.372,232.212 479.66,232.125C479.949,232.037 480.256,231.993 480.582,231.993ZM344.984,227.741C344.984,228.142 345.129,228.471 345.417,228.729C345.706,228.986 346.107,229.114 346.621,229.114C347.148,229.114 347.568,228.986 347.882,228.729C348.195,228.471 348.352,228.142 348.352,227.741C348.352,227.352 348.195,227.02 347.882,226.744C347.568,226.468 347.148,226.33 346.621,226.33C346.107,226.33 345.706,226.468 345.417,226.744C345.129,227.02 344.984,227.352 344.984,227.741ZM354.599,230.3L354.599,232.369L355.953,232.369L355.953,239.707L358.399,239.707L358.399,233.611C358.537,233.21 358.798,232.874 359.18,232.604C359.563,232.335 359.986,232.2 360.45,232.2C360.977,232.2 361.413,232.369 361.758,232.708C362.103,233.047 362.275,233.598 362.275,234.364L362.275,239.707L364.721,239.707L364.721,233.856C364.721,233.128 364.636,232.517 364.467,232.021C364.298,231.526 364.069,231.134 363.78,230.845C363.492,230.557 363.144,230.35 362.736,230.224C362.328,230.099 361.893,230.036 361.428,230.036C360.676,230.036 360.03,230.187 359.491,230.488C358.951,230.789 358.537,231.14 358.249,231.541L358.174,231.541L357.891,230.3L354.599,230.3ZM448.108,230.3L448.108,232.369L449.463,232.369L449.463,239.707L451.908,239.707L451.908,233.611C452.046,233.21 452.307,232.874 452.689,232.604C453.072,232.335 453.495,232.2 453.959,232.2C454.486,232.2 454.922,232.369 455.267,232.708C455.612,233.047 455.784,233.598 455.784,234.364L455.784,239.707L458.23,239.707L458.23,233.856C458.23,233.128 458.146,232.517 457.976,232.021C457.807,231.526 457.578,231.134 457.289,230.845C457.001,230.557 456.653,230.35 456.245,230.224C455.838,230.099 455.402,230.036 454.938,230.036C454.185,230.036 453.539,230.187 453,230.488C452.46,230.789 452.046,231.14 451.758,231.541L451.683,231.541L451.4,230.3L448.108,230.3ZM471.513,238.804L470.704,236.979C470.479,237.129 470.137,237.305 469.679,237.506C469.221,237.706 468.635,237.807 467.92,237.807C467.468,237.807 467.057,237.735 466.687,237.59C466.317,237.446 466.007,237.249 465.756,236.998C465.505,236.747 465.311,236.452 465.173,236.113C465.035,235.775 464.966,235.405 464.966,235.003C464.966,234.514 465.051,234.094 465.22,233.743C465.389,233.392 465.609,233.1 465.878,232.868C466.148,232.636 466.455,232.466 466.8,232.36C467.145,232.253 467.493,232.2 467.845,232.2C468.233,232.2 468.622,232.244 469.011,232.332L469.011,234.063L471.081,234.063L471.081,230.751C470.755,230.601 470.284,230.444 469.67,230.281C469.055,230.118 468.396,230.036 467.694,230.036C466.941,230.036 466.245,230.146 465.606,230.366C464.966,230.585 464.411,230.908 463.94,231.334C463.47,231.761 463.103,232.281 462.84,232.896C462.576,233.511 462.445,234.213 462.445,235.003C462.445,235.743 462.558,236.421 462.783,237.035C463.009,237.65 463.338,238.174 463.771,238.606C464.204,239.039 464.737,239.375 465.37,239.613C466.004,239.851 466.728,239.97 467.543,239.97C468.296,239.97 469.017,239.873 469.707,239.679C470.397,239.484 470.999,239.193 471.513,238.804ZM377.703,239.707L377.703,230.638C377.503,230.563 377.252,230.491 376.951,230.422C376.65,230.353 376.32,230.293 375.963,230.243C375.605,230.193 375.226,230.152 374.825,230.121C374.423,230.09 374.022,230.074 373.62,230.074C372.855,230.074 372.162,230.184 371.541,230.403C370.921,230.623 370.387,230.949 369.942,231.381C369.497,231.814 369.152,232.35 368.907,232.99C368.663,233.63 368.54,234.364 368.54,235.191C368.54,235.982 368.644,236.672 368.851,237.261C369.058,237.851 369.349,238.337 369.726,238.719C370.102,239.102 370.544,239.387 371.052,239.575C371.56,239.763 372.115,239.858 372.717,239.858C373.294,239.858 373.802,239.785 374.241,239.641C374.68,239.497 375.013,239.274 375.238,238.973L375.314,238.973L375.314,239.575C375.314,240.253 375.107,240.773 374.693,241.137C374.279,241.501 373.677,241.683 372.887,241.683C372.247,241.683 371.717,241.592 371.297,241.41C370.877,241.228 370.516,241.037 370.215,240.836L369.274,242.567C369.425,242.692 369.625,242.821 369.876,242.953C370.127,243.084 370.419,243.207 370.751,243.319C371.084,243.432 371.447,243.523 371.842,243.592C372.238,243.661 372.661,243.696 373.112,243.696C373.777,243.696 374.389,243.617 374.947,243.461C375.505,243.304 375.988,243.059 376.396,242.727C376.803,242.394 377.123,241.977 377.355,241.476C377.587,240.974 377.703,240.384 377.703,239.707ZM373.188,237.901C372.899,237.901 372.63,237.841 372.379,237.722C372.128,237.603 371.902,237.424 371.701,237.186C371.501,236.948 371.344,236.653 371.231,236.302C371.118,235.95 371.062,235.549 371.062,235.097C371.062,234.583 371.127,234.141 371.259,233.771C371.391,233.401 371.573,233.094 371.805,232.849C372.037,232.604 372.307,232.426 372.614,232.313C372.921,232.2 373.25,232.143 373.602,232.143C373.89,232.143 374.194,232.165 374.514,232.209C374.834,232.253 375.082,232.313 375.257,232.388L375.257,236.621C375.119,237.048 374.859,237.368 374.476,237.581C374.094,237.794 373.664,237.901 373.188,237.901ZM274.881,235.003C274.881,235.743 274.991,236.421 275.21,237.035C275.43,237.65 275.753,238.174 276.179,238.606C276.605,239.039 277.129,239.375 277.75,239.613C278.371,239.851 279.076,239.97 279.867,239.97C280.619,239.97 281.3,239.861 281.908,239.641C282.516,239.422 283.04,239.099 283.479,238.672C283.918,238.246 284.257,237.725 284.495,237.111C284.733,236.496 284.853,235.794 284.853,235.003C284.853,234.263 284.743,233.586 284.523,232.971C284.304,232.357 283.981,231.833 283.554,231.4C283.128,230.968 282.604,230.632 281.983,230.394C281.362,230.155 280.657,230.036 279.867,230.036C279.114,230.036 278.434,230.146 277.825,230.366C277.217,230.585 276.693,230.908 276.254,231.334C275.815,231.761 275.477,232.281 275.238,232.896C275,233.511 274.881,234.213 274.881,235.003ZM277.402,235.003C277.402,234.489 277.465,234.05 277.59,233.686C277.716,233.323 277.888,233.022 278.108,232.783C278.327,232.545 278.587,232.372 278.888,232.266C279.189,232.159 279.515,232.106 279.867,232.106C280.657,232.106 281.265,232.372 281.692,232.905C282.118,233.439 282.331,234.138 282.331,235.003C282.331,236.007 282.103,236.741 281.645,237.205C281.187,237.669 280.594,237.901 279.867,237.901C279.478,237.901 279.133,237.829 278.832,237.684C278.531,237.54 278.274,237.336 278.06,237.073C277.847,236.81 277.684,236.502 277.571,236.151C277.458,235.8 277.402,235.417 277.402,235.003Z" style="fill-opacity:0.5;"/>
    <path d="M453.733,125.403C428.323,121.325 412.279,107.628 412.279,88.573C412.279,68.93 433.548,55.308 456.494,55.308C479.441,55.308 497.112,70.461 497.112,70.461L497.112,92.963L484.79,92.963C484.79,92.963 481.959,78.348 481.959,75.752C481.959,73.155 465.936,67.208 456.865,67.208C447.794,67.208 427.5,73.009 427.5,88.697C427.5,99.621 443.272,106.943 452.85,110.382C479.095,114.276 499.174,130.812 499.174,150.184C499.174,169.827 477.905,183.45 454.959,183.45C432.012,183.45 410.746,165.519 410.746,165.519L410.746,143.017L423.068,143.017C423.068,143.017 425.9,157.631 425.9,160.227C425.9,162.824 445.517,171.549 454.588,171.549C463.659,171.549 483.953,165.748 483.953,150.06C483.953,138.393 463.973,129.298 453.733,125.403Z" />
    <rect x="251.532" y="48.044" width="15.405" height="17.148" />
    <path d="M147.455,81.658L119.797,181.391L105.489,181.391L77.625,68.982L67.054,66.994L67.389,56.314L106.441,56.314L106.441,66.994L94.78,68.982L112.845,154.73L140.304,56.314L154.606,56.314L182.065,154.73L200.13,68.982L188.469,66.994L188.469,56.314L227.521,56.314L227.856,66.994L217.285,68.982L189.421,181.391L175.113,181.391L147.455,81.658Z" />
    <path d="M32.433,111.761C48.261,119.979 48.032,138.796 48.032,138.796L48.032,160.568C48.032,180.971 64.624,184.798 64.624,184.798L61.035,195.817C61.035,195.817 31.492,187.044 31.492,160.054C31.492,134.743 30.857,118.428 17.214,118.428L12.947,118.428L12.947,105.094L17.214,105.094C30.857,105.094 31.492,88.778 31.492,63.468C31.492,36.478 61.035,27.705 61.035,27.705L64.624,38.723C64.624,38.723 48.032,42.55 48.032,62.953L48.032,84.726C48.032,84.726 48.261,103.542 32.433,111.761Z" />
    <g transform="matrix(-1,0,0,1,572.051,0)">
        <path d="M32.433,111.761C48.261,119.979 48.032,138.796 48.032,138.796L48.032,160.568C48.032,180.971 64.624,184.798 64.624,184.798L61.035,195.817C61.035,195.817 31.492,187.044 31.492,160.054C31.492,134.743 30.857,118.428 17.214,118.428L12.947,118.428L12.947,105.094L17.214,105.094C30.857,105.094 31.492,88.778 31.492,63.468C31.492,36.478 61.035,27.705 61.035,27.705L64.624,38.723C64.624,38.723 48.032,42.55 48.032,62.953L48.032,84.726C48.032,84.726 48.261,103.542 32.433,111.761Z" />
    </g>
    <path d="M267.163,88.788L267.163,167.424L281.698,171.245L281.698,181.39L237.044,181.39L237.044,171.245L251.578,167.424L251.578,102.074L236.858,98.61L236.858,88.788L267.163,88.788Z" />
    <path d="M295.784,137.13C294.135,134.953 294.157,102.831 295.784,101.061C303.083,72.617 326.04,55.199 349.33,55.199C377.54,55.199 389.945,72.542 389.945,72.542L389.945,94.585L378.604,94.585C378.344,90.124 378.133,85.667 375.629,77.546C375.629,77.546 367.24,67.574 350.013,67.574C313.88,67.574 309.83,110.708 309.385,119.095C309.83,127.482 313.88,170.617 350.013,170.617C367.24,170.617 375.629,160.644 375.629,160.644C378.133,152.524 378.344,148.067 378.604,143.605L389.945,143.605L389.945,165.648C389.945,165.648 377.54,182.991 349.33,182.991C326.04,182.991 303.083,165.573 295.784,137.13Z" />
</svg>
