<svg clip-rule="evenodd" fill-rule="evenodd" stroke-linecap="round" stroke-linejoin="round" stroke-miterlimit="1.5" viewBox="0 0 188 120" xmlns="http://www.w3.org/2000/svg" xmlns:xlink="http://www.w3.org/1999/xlink"><clipPath id="a"><path clip-rule="evenodd" d="m120.755 82.437h63.885l-34.428 34.431-64.082.064 32.698-35.419z"/></clipPath><clipPath id="b"><path clip-rule="evenodd" d="m85.857 66.71v26.23h-29.595l-43.117-43.116h55.814zm-85.081-39.896h14.371v14.502z"/></clipPath><g fill="currentColor"><path d="m30.85 46.403v-18.622h3.55v7.977h2.9v-7.977h3.562v18.622h-3.562v-8.291h-2.9v8.291zm-1.638-12.419h-3.095v-1.602c0-.61-.166-1.138-.5-1.582-.334-.445-.895-.667-1.684-.667-.425 0-.769.07-1.031.209-.263.14-.476.314-.638.523-.161.227-.273.484-.333.772-.061.287-.091.588-.091.902 0 .366.015.671.045.915.031.245.106.462.228.654.121.192.298.358.531.497.232.14.551.279.955.419l2.367.81c.687.227 1.244.493 1.668.798.425.305.759.658 1.002 1.059.222.419.374.894.455 1.426s.121 1.138.121 1.818c0 .784-.091 1.512-.273 2.183-.182.672-.475 1.243-.88 1.714-.425.488-.981.871-1.668 1.15-.688.279-1.528.419-2.519.419-.748 0-1.446-.113-2.093-.34s-1.203-.541-1.669-.942c-.465-.401-.834-.867-1.107-1.399s-.41-1.112-.41-1.739v-1.994h3.095v1.837c0 .488.167.928.501 1.321.333.392.895.588 1.683.588.526 0 .936-.065 1.229-.196s.521-.318.683-.562.258-.537.288-.877.045-.719.045-1.137c0-.488-.02-.89-.06-1.203-.041-.314-.122-.567-.243-.759-.141-.192-.329-.349-.561-.471-.233-.122-.541-.252-.926-.392l-2.214-.785c-1.335-.47-2.23-1.094-2.685-1.87s-.683-1.748-.683-2.916c0-.697.111-1.36.334-1.988.222-.627.556-1.168 1.001-1.621.425-.453.966-.815 1.623-1.086.657-.27 1.441-.405 2.351-.405.769 0 1.472.122 2.109.366s1.188.567 1.653.968c.931.837 1.396 1.796 1.396 2.877zm13.774-1.809c0-.75.131-1.412.394-1.988.263-.575.613-1.055 1.05-1.438.421-.366.898-.645 1.432-.837s1.072-.288 1.615-.288c.542 0 1.081.096 1.615.288s1.019.471 1.457.837c.42.383.762.863 1.024 1.438.263.576.394 1.238.394 1.988v9.834c0 .785-.131 1.456-.394 2.014-.262.558-.604 1.02-1.024 1.386-.438.384-.923.672-1.457.863-.534.192-1.073.288-1.615.288-.543 0-1.081-.096-1.615-.288-.534-.191-1.011-.479-1.432-.863-.437-.366-.787-.828-1.05-1.386s-.394-1.229-.394-2.014zm2.679 9.834c0 .645.179 1.12.538 1.426.359.305.783.457 1.274.457.49 0 .914-.152 1.273-.457.359-.306.539-.781.539-1.426v-9.834c0-.645-.18-1.12-.539-1.425s-.783-.458-1.273-.458c-.491 0-.915.153-1.274.458s-.538.78-.538 1.425zm9.054 4.166v-18.622h4.642c.85 0 1.598.096 2.245.287.648.192 1.234.532 1.76 1.02.526.489.89 1.06 1.092 1.714.203.653.304 1.538.304 2.654 0 .837-.056 1.543-.167 2.119-.111.575-.349 1.116-.713 1.621-.425.611-.991 1.086-1.699 1.426s-1.638.51-2.791.51h-1.578v7.271zm3.095-16.111v6.329h1.487c.19-.023.33-.066.532-.211.365-.261.521-.399.682-.678.162-.262.258-.584.289-.968.03-.384.045-.811.045-1.282 0-.436-.01-.85-.03-1.242s-.109-.737-.235-1.051c-.062-.152-.168-.414-.501-.746-.084-.084-.394-.151-.661-.151z"/><path d="m15.649 10.553h-3.094v-1.601c0-.61-.167-1.138-.501-1.582-.334-.445-.895-.667-1.684-.667-.425 0-.768.069-1.031.209-.263.139-.476.314-.638.523-.161.227-.273.484-.333.771-.061.288-.091.589-.091.903 0 .366.015.671.045.915.031.244.106.462.228.654.121.192.298.358.531.497.232.139.551.279.955.418l2.367.811c.688.227 1.244.493 1.668.798.425.305.759.658 1.002 1.059.222.419.374.894.455 1.426.081.531.121 1.137.121 1.817 0 .785-.091 1.513-.273 2.184-.182.672-.475 1.243-.88 1.713-.425.489-.981.872-1.668 1.151-.688.279-1.527.419-2.519.419-.748 0-1.446-.114-2.093-.34-.647-.227-1.203-.541-1.669-.942-.465-.401-.834-.867-1.107-1.399s-.41-1.112-.41-1.739v-1.994h3.095v1.837c0 .488.167.928.501 1.32.333.393.895.589 1.683.589.526 0 .936-.066 1.229-.196.293-.131.521-.318.683-.563.162-.244.258-.536.288-.876s.046-.719.046-1.137c0-.489-.021-.89-.061-1.204-.041-.313-.122-.566-.243-.758-.141-.192-.329-.349-.561-.471-.233-.122-.541-.253-.925-.392l-2.215-.785c-1.335-.471-2.23-1.094-2.685-1.87s-.683-1.748-.683-2.916c0-.698.111-1.36.334-1.988.222-.627.556-1.168 1.001-1.621.425-.454.966-.816 1.623-1.086.658-.27 1.441-.405 2.351-.405.769 0 1.472.122 2.109.366s1.188.567 1.654.968c.93.837 1.395 1.796 1.395 2.877zm1.699 12.261v-18.622h4.642c.849 0 1.598.096 2.245.287.647.192 1.234.532 1.76 1.02.526.489.89 1.06 1.092 1.714.202.653.303 1.538.303 2.654 0 .837-.055 1.543-.167 2.119-.111.575-.348 1.116-.712 1.621-.425.611-.992 1.086-1.699 1.426-.708.34-1.639.51-2.792.51h-1.577v7.271zm3.095-16.111v6.329h1.486c.191-.023.33-.066.533-.211.364-.261.52-.399.682-.678.162-.262.258-.584.288-.968.031-.384.046-.811.046-1.282 0-.435-.01-.85-.031-1.242-.02-.392-.108-.737-.235-1.051-.061-.152-.168-.413-.5-.746-.084-.084-.395-.151-.661-.151zm8.265 16.111v-3.569h1.102v-11.336h-1.102v-3.717h5.378v3.717h-1.182v11.336h1.182v3.569zm19.292 0v-3.569h1.101v-11.336h-1.101v-3.717h5.378v3.717h-1.182v11.336h1.182v3.569zm-11.646 0v-18.622h4.976c3.64 0 5.461 1.822 5.461 5.466 0 1.099-.197 2.031-.592 2.799-.394.767-1.087 1.386-2.078 1.857l3.337 8.5h-3.276l-2.883-7.951h-1.85v7.951zm3.095-16.111v5.806h1.759c.138 0 .385-.037.508-.1.205-.104.373-.415.555-.659.162-.244.274-.544.334-.902.061-.357.091-.771.091-1.242s-.03-.885-.091-1.243c-.06-.357-.182-.667-.364-.928-.384-.488-.363-.497-1.184-.732zm18.156 16.111v-16.111h-3.58v-2.511h10.254v2.511h-3.58v16.111z"/><path d="m138.088 41.161c0-.75.131-1.412.394-1.988.262-.575.613-1.055 1.05-1.438.42-.366.897-.645 1.431-.837s1.073-.288 1.615-.288c.543 0 1.081.096 1.615.288s1.02.471 1.458.837c.42.383.761.863 1.024 1.438.263.576.394 1.238.394 1.988v9.834c0 .785-.131 1.456-.394 2.014s-.604 1.02-1.024 1.386c-.438.384-.924.671-1.458.863s-1.072.288-1.615.288c-.542 0-1.081-.096-1.615-.288s-1.011-.479-1.431-.863c-.437-.366-.788-.828-1.05-1.386-.263-.558-.394-1.229-.394-2.014zm2.678 9.834c0 .645.18 1.12.539 1.425s.783.458 1.273.458c.491 0 .915-.153 1.274-.458s.538-.78.538-1.425v-9.834c0-.645-.179-1.12-.538-1.426-.359-.305-.783-.457-1.274-.457-.49 0-.914.152-1.273.457-.359.306-.539.781-.539 1.426zm8.822-9.834c0-.75.131-1.412.394-1.988.262-.575.613-1.055 1.05-1.438.42-.366.897-.645 1.431-.837s1.073-.288 1.615-.288c.543 0 1.081.096 1.615.288s1.02.471 1.458.837c.42.383.761.863 1.024 1.438.263.576.394 1.238.394 1.988v9.834c0 .785-.131 1.456-.394 2.014s-.604 1.02-1.024 1.386c-.438.384-.924.671-1.458.863s-1.072.288-1.615.288c-.542 0-1.081-.096-1.615-.288s-1.011-.479-1.431-.863c-.437-.366-.788-.828-1.05-1.386-.263-.558-.394-1.229-.394-2.014zm2.678 9.834c0 .645.18 1.12.539 1.425s.783.458 1.273.458c.491 0 .915-.153 1.274-.458s.538-.78.538-1.425v-9.834c0-.645-.179-1.12-.538-1.426-.359-.305-.783-.457-1.274-.457-.49 0-.914.152-1.273.457-.359.306-.539.781-.539 1.426zm-26.633 4.279v-18.622h4.52c.991 0 1.836.131 2.534.393.697.261 1.269.61 1.714 1.046s.763.937.955 1.504c.193.566.289 1.155.289 1.765v.68c0 .506-.046.933-.137 1.282-.091.348-.227.654-.409.915-.344.488-.87.907-1.578 1.255.728.297 1.264.733 1.608 1.308.344.576.516 1.36.516 2.354v1.046c0 1.639-.46 2.895-1.381 3.767-.92.871-2.391 1.307-4.414 1.307zm3.094-16.111v5.126h1.396c1.032 0 1.724-.222 2.078-.667.354-.444.531-1.094.531-1.948 0-.837-.197-1.465-.591-1.883-.395-.419-1.108-.628-2.139-.628zm0 7.48v5.963h1.335c.627 0 1.118-.078 1.472-.235s.622-.375.804-.654.293-.61.333-.994c.041-.383.061-.802.061-1.255 0-.471-.03-.881-.091-1.229-.061-.349-.182-.645-.364-.89-.202-.244-.475-.422-.819-.536-.344-.113-.799-.17-1.365-.17zm32.953 8.631v-18.622h3.095v8.5h.06l3.521-8.5h3.818l-2.941 7.454 3.006 11.168h-3.276l-2.52-8.265-1.668 2.694v5.571z"/><path d="m135.848 66.572h-3.094v-1.602c0-.61-.167-1.138-.501-1.582-.334-.445-.895-.667-1.684-.667-.424 0-.768.07-1.031.209-.263.14-.476.314-.637.523-.162.227-.273.484-.334.772-.061.287-.091.588-.091.902 0 .366.015.671.045.915.031.245.107.462.228.654s.298.358.531.497c.232.14.551.279.956.419l2.366.81c.688.227 1.244.493 1.669.798.424.305.758.658 1.001 1.059.222.419.374.894.455 1.426s.121 1.138.121 1.818c0 .784-.091 1.512-.273 2.183-.182.672-.475 1.243-.88 1.714-.424.488-.981.871-1.668 1.15-.688.279-1.527.419-2.518.419-.749 0-1.447-.113-2.094-.34s-1.203-.541-1.668-.942c-.466-.401-.835-.867-1.108-1.399s-.409-1.112-.409-1.739v-1.994h3.094v1.837c0 .488.167.928.501 1.321.334.392.895.588 1.684.588.525 0 .935-.065 1.228-.196.294-.131.521-.318.683-.562s.258-.537.288-.877c.031-.34.046-.719.046-1.137 0-.488-.021-.89-.061-1.203-.04-.314-.121-.567-.243-.759-.141-.192-.328-.349-.561-.471s-.541-.252-.925-.392l-2.215-.785c-1.335-.47-2.23-1.094-2.685-1.87s-.683-1.748-.683-2.916c0-.697.112-1.36.334-1.988.223-.627.556-1.168 1.001-1.621.425-.453.966-.815 1.623-1.086.658-.27 1.441-.405 2.352-.405.768 0 1.471.122 2.108.366s1.188.567 1.654.968c.93.837 1.395 1.796 1.395 2.877zm13.012-1.968c0-.75.131-1.412.394-1.988.263-.575.613-1.055 1.05-1.438.421-.366.898-.645 1.432-.837s1.072-.288 1.615-.288c.542 0 1.081.096 1.615.288s1.019.471 1.457.837c.42.383.762.863 1.024 1.438.263.576.394 1.238.394 1.988v9.834c0 .785-.131 1.456-.394 2.014-.262.558-.604 1.02-1.024 1.386-.438.384-.923.671-1.457.863s-1.073.288-1.615.288c-.543 0-1.081-.096-1.615-.288s-1.011-.479-1.432-.863c-.437-.366-.787-.828-1.05-1.386s-.394-1.229-.394-2.014zm2.679 9.834c0 .645.179 1.12.538 1.425.359.306.783.458 1.274.458.49 0 .914-.152 1.273-.458.359-.305.539-.78.539-1.425v-9.834c0-.645-.18-1.12-.539-1.425-.359-.306-.783-.458-1.273-.458-.491 0-.915.152-1.274.458-.359.305-.538.78-.538 1.425zm8.748 4.551v-18.622h4.976c3.641 0 5.461 1.822 5.461 5.466 0 1.099-.197 2.031-.592 2.799-.394.767-1.087 1.386-2.078 1.857l3.337 8.5h-3.276l-2.882-7.951h-1.851v7.951zm3.095-16.111v5.806h1.76c.138 0 .384-.037.507-.1.205-.104.374-.414.556-.658.161-.245.273-.545.333-.903.061-.357.091-.771.091-1.242s-.03-.885-.091-1.242c-.06-.358-.182-.667-.364-.929-.384-.488-.362-.497-1.184-.732zm-22.836 16.111v-16.111h-3.58v-2.511h10.255v2.511h-3.58v16.111zm31.585 0v-18.622h9.223v2.511h-6.128v5.466h5.339v2.511h-5.339v5.466h6.128v2.668z"/><path d="m68.868 2.081 41.138 40.417-24.34 24.412-16.798-16.37z"/><path d="m120.805 34.048-33.846 33.27-.421 49.545 34.267-34.342z"/><path d="m67.509 103.622h-1.667v-.863c0-.329-.09-.613-.27-.852-.179-.24-.482-.359-.907-.359-.228 0-.414.037-.555.112-.142.075-.256.169-.343.282-.088.122-.148.261-.18.416-.033.155-.049.317-.049.486 0 .197.008.361.024.493.017.131.057.249.123.352.065.103.161.193.286.268s.297.15.515.225l1.274.437c.371.122.67.265.899.43.229.164.409.354.539.57.12.226.202.482.246.768.043.286.065.613.065.979 0 .423-.049.815-.147 1.176-.098.362-.256.67-.474.923-.229.263-.528.47-.899.62-.37.15-.822.226-1.356.226-.403 0-.779-.061-1.128-.184-.349-.122-.648-.291-.899-.507-.25-.216-.449-.467-.596-.753-.147-.287-.221-.599-.221-.937v-1.074h1.667v.989c0 .263.09.5.27.712.179.211.482.317.907.317.283 0 .504-.036.662-.106.158-.071.28-.171.367-.303.087-.131.139-.289.156-.472.016-.183.024-.387.024-.613 0-.263-.011-.479-.033-.648-.021-.169-.065-.305-.13-.408-.077-.104-.177-.188-.303-.254-.125-.066-.291-.136-.498-.211l-1.193-.423c-.719-.254-1.201-.589-1.446-1.007-.246-.418-.368-.942-.368-1.571 0-.376.06-.733.18-1.071.119-.338.299-.629.539-.873.229-.245.52-.439.874-.585s.776-.218 1.267-.218c.414 0 .792.065 1.136.197.343.131.64.305.89.521.501.451.752.968.752 1.55zm1.541 6.689v-10.117h5.01v1.364h-3.329v3.069h2.901v1.364h-2.901v4.32zm11.208-10.202v7.843c0 .332-.069.637-.206.916-.138.28-.333.529-.586.746-.252.218-.543.389-.873.512s-.681.185-1.055.185-.722-.062-1.047-.185c-.324-.123-.612-.294-.865-.512-.252-.217-.45-.466-.593-.746-.143-.279-.214-.584-.214-.916v-7.843h1.681v7.701c0 .36.099.625.296.796.198.17.445.255.742.255s.544-.085.742-.255c.198-.171.296-.436.296-.796v-7.701z"/></g><path d="m120.755 82.437h63.885l-34.428 34.431-64.082.064 32.698-35.419z" fill="none"/><g clip-path="url(#a)" fill="none" stroke="currentColor"><path d="m152.569 83.486c-1.451 0-1.523 1.116-2.971 1.035-1.635-.091-.62-1.035-3.345-1.035-2.726 0-.489 1.035-3.495 1.035-1.329 0-.652-1.035-2.787-1.035-2.134 0-.793 1.035-2.927 1.035-2.604 0-.136-1.059-3.422-1.035-2.238.017-1.284 1.035-3.522 1.035-.893 0-.885-1.035-2.776-1.035-1.89 0-1.658 1.035-2.688 1.035-3.209 0-.245-1.041-4.439-1.035-2.148.003-.849 1.015-2.997 1.035-1.589.016-.308-1.035-2.596-1.035-1.128 0-1.533 1.035-2.661 1.035-2.024 0-.913-1.035-3.614-1.035-2.437 0-1.861 1.035-3.376 1.035-1.704 0-1.158-1.035-2.862-1.035-1.152 0-.973 1.035-2.506 1.035-2.193 0-1.107-1.035-3.501-1.035-2.794 0-1.421 1.035-3.928 1.035-1.47 0-.607-1.035-4.071-1.035" transform="translate(-.059235 31.9632)"/><path d="m155.574 84.521c-2.639 0-.399-1.035-3.005-1.035-1.451 0-1.523 1.116-2.971 1.035-1.635-.091-.62-1.035-3.345-1.035-2.726 0-.489 1.035-3.495 1.035-1.329 0-.652-1.035-2.787-1.035-2.134 0-.793 1.035-2.927 1.035-2.604 0-.136-1.059-3.422-1.035-2.238.017-1.284 1.035-3.522 1.035-.893 0-.885-1.035-2.776-1.035-1.89 0-1.658 1.035-2.688 1.035-3.209 0-.245-1.041-4.439-1.035-2.148.003-.849 1.015-2.997 1.035-1.589.016-.308-1.035-2.596-1.035-1.128 0-1.533 1.035-2.661 1.035-2.024 0-.913-1.035-3.614-1.035-2.437 0-1.861 1.035-3.376 1.035-1.704 0-1.158-1.035-2.862-1.035-1.152 0-.973 1.035-2.506 1.035-2.193 0-1.107-1.035-3.501-1.035-2.794 0-1.421 1.035-3.928 1.035-1.47 0-.607-1.035-4.071-1.035" transform="translate(-.059235 30.2777)"/><path d="m155.574 84.521c-2.639 0-.399-1.035-3.005-1.035-1.451 0-1.523 1.116-2.971 1.035-1.635-.091-.62-1.035-3.345-1.035-2.726 0-.489 1.035-3.495 1.035-1.329 0-.652-1.035-2.787-1.035-2.134 0-.793 1.035-2.927 1.035-2.604 0-.136-1.059-3.422-1.035-2.238.017-1.284 1.035-3.522 1.035-.893 0-.885-1.035-2.776-1.035-1.89 0-1.658 1.035-2.688 1.035-3.209 0-.245-1.041-4.439-1.035-2.148.003-.849 1.015-2.997 1.035-1.589.016-.308-1.035-2.596-1.035-1.128 0-1.533 1.035-2.661 1.035-2.024 0-.913-1.035-3.614-1.035-2.437 0-1.861 1.035-3.376 1.035-1.704 0-1.158-1.035-2.862-1.035-1.152 0-.973 1.035-2.506 1.035-2.193 0-1.107-1.035-3.501-1.035-2.794 0-1.421 1.035-3.928 1.035-1.47 0-.607-1.035-4.071-1.035" transform="translate(-.059235 28.5923)"/><path d="m158.93 83.486c-2.635 0-.716 1.035-3.356 1.035-2.639 0-.399-1.035-3.005-1.035-1.451 0-1.523 1.116-2.971 1.035-1.635-.091-.62-1.035-3.345-1.035-2.726 0-.489 1.035-3.495 1.035-1.329 0-.652-1.035-2.787-1.035-2.134 0-.793 1.035-2.927 1.035-2.604 0-.136-1.059-3.422-1.035-2.238.017-1.284 1.035-3.522 1.035-.893 0-.885-1.035-2.776-1.035-1.89 0-1.658 1.035-2.688 1.035-3.209 0-.245-1.041-4.439-1.035-2.148.003-.849 1.015-2.997 1.035-1.589.016-.308-1.035-2.596-1.035-1.128 0-1.533 1.035-2.661 1.035-2.024 0-.913-1.035-3.614-1.035-2.437 0-1.861 1.035-3.376 1.035-1.704 0-1.158-1.035-2.862-1.035-1.152 0-.973 1.035-2.506 1.035-2.193 0-1.107-1.035-3.501-1.035-2.794 0-1.421 1.035-3.928 1.035-1.47 0-.607-1.035-4.071-1.035" transform="translate(-.059235 26.9069)"/><path d="m162.208 84.521c-1.918 0-.644-1.035-3.278-1.035-2.635 0-.716 1.035-3.356 1.035-2.639 0-.399-1.035-3.005-1.035-1.451 0-1.523 1.116-2.971 1.035-1.635-.091-.62-1.035-3.345-1.035-2.726 0-.489 1.035-3.495 1.035-1.329 0-.652-1.035-2.787-1.035-2.134 0-.793 1.035-2.927 1.035-2.604 0-.136-1.059-3.422-1.035-2.238.017-1.284 1.035-3.522 1.035-.893 0-.885-1.035-2.776-1.035-1.89 0-1.658 1.035-2.688 1.035-3.209 0-.245-1.041-4.439-1.035-2.148.003-.849 1.015-2.997 1.035-1.589.016-.308-1.035-2.596-1.035-1.128 0-1.533 1.035-2.661 1.035-2.024 0-.913-1.035-3.614-1.035-2.437 0-1.861 1.035-3.376 1.035-1.704 0-1.158-1.035-2.862-1.035-1.152 0-.973 1.035-2.506 1.035-2.193 0-1.107-1.035-3.501-1.035-2.794 0-1.421 1.035-3.928 1.035" transform="translate(-.059235 25.2214)"/><path d="m162.208 84.521c-1.918 0-.644-1.035-3.278-1.035-2.635 0-.716 1.035-3.356 1.035-2.639 0-.399-1.035-3.005-1.035-1.451 0-1.523 1.116-2.971 1.035-1.635-.091-.62-1.035-3.345-1.035-2.726 0-.489 1.035-3.495 1.035-1.329 0-.652-1.035-2.787-1.035-2.134 0-.793 1.035-2.927 1.035-2.604 0-.136-1.059-3.422-1.035-2.238.017-1.284 1.035-3.522 1.035-.893 0-.885-1.035-2.776-1.035-1.89 0-1.658 1.035-2.688 1.035-3.209 0-.245-1.041-4.439-1.035-2.148.003-.849 1.015-2.997 1.035-1.589.016-.308-1.035-2.596-1.035-1.128 0-1.533 1.035-2.661 1.035-2.024 0-.913-1.035-3.614-1.035-2.437 0-1.861 1.035-3.376 1.035-1.704 0-1.158-1.035-2.862-1.035-1.152 0-.973 1.035-2.506 1.035-2.193 0-1.107-1.035-3.501-1.035" transform="translate(-.059235 23.536)"/><path d="m162.208 84.521c-1.918 0-.644-1.035-3.278-1.035-2.635 0-.716 1.035-3.356 1.035-2.639 0-.399-1.035-3.005-1.035-1.451 0-1.523 1.116-2.971 1.035-1.635-.091-.62-1.035-3.345-1.035-2.726 0-.489 1.035-3.495 1.035-1.329 0-.652-1.035-2.787-1.035-2.134 0-.793 1.035-2.927 1.035-2.604 0-.136-1.059-3.422-1.035-2.238.017-1.284 1.035-3.522 1.035-.893 0-.885-1.035-2.776-1.035-1.89 0-1.658 1.035-2.688 1.035-3.209 0-.245-1.041-4.439-1.035-2.148.003-.849 1.015-2.997 1.035-1.589.016-.308-1.035-2.596-1.035-1.128 0-1.533 1.035-2.661 1.035-2.024 0-.913-1.035-3.614-1.035-2.437 0-1.861 1.035-3.376 1.035-1.704 0-1.158-1.035-2.862-1.035-1.152 0-.973 1.035-2.506 1.035-2.193 0-1.107-1.035-3.501-1.035" transform="translate(-.059235 21.8505)"/><path d="m165.181 83.486c-1.877 0-1.056 1.035-2.973 1.035-1.918 0-.644-1.035-3.278-1.035-2.635 0-.716 1.035-3.356 1.035-2.639 0-.399-1.035-3.005-1.035-1.451 0-1.523 1.116-2.971 1.035-1.635-.091-.62-1.035-3.345-1.035-2.726 0-.489 1.035-3.495 1.035-1.329 0-.652-1.035-2.787-1.035-2.134 0-.793 1.035-2.927 1.035-2.604 0-.136-1.059-3.422-1.035-2.238.017-1.284 1.035-3.522 1.035-.893 0-.885-1.035-2.776-1.035-1.89 0-1.658 1.035-2.688 1.035-3.209 0-.245-1.041-4.439-1.035-2.148.003-.849 1.015-2.997 1.035-1.589.016-.308-1.035-2.596-1.035-1.128 0-1.533 1.035-2.661 1.035-2.024 0-.913-1.035-3.614-1.035-2.437 0-1.861 1.035-3.376 1.035-1.704 0-1.158-1.035-2.862-1.035-1.152 0-.973 1.035-2.506 1.035-2.193 0-1.107-1.035-3.501-1.035" transform="translate(-.059235 20.1651)"/><path d="m168.224 84.521c-1.779 0-1.165-1.035-3.043-1.035-1.877 0-1.056 1.035-2.973 1.035-1.918 0-.644-1.035-3.278-1.035-2.635 0-.716 1.035-3.356 1.035-2.639 0-.399-1.035-3.005-1.035-1.451 0-1.523 1.116-2.971 1.035-1.635-.091-.62-1.035-3.345-1.035-2.726 0-.489 1.035-3.495 1.035-1.329 0-.652-1.035-2.787-1.035-2.134 0-.793 1.035-2.927 1.035-2.604 0-.136-1.059-3.422-1.035-2.238.017-1.284 1.035-3.522 1.035-.893 0-.885-1.035-2.776-1.035-1.89 0-1.658 1.035-2.688 1.035-3.209 0-.245-1.041-4.439-1.035-2.148.003-.849 1.015-2.997 1.035-1.589.016-.308-1.035-2.596-1.035-1.128 0-1.533 1.035-2.661 1.035-2.024 0-.913-1.035-3.614-1.035-2.437 0-1.861 1.035-3.376 1.035-1.704 0-1.158-1.035-2.862-1.035" transform="translate(-.059235 16.7942)"/><path d="m168.224 84.521c-1.779 0-1.165-1.035-3.043-1.035-1.877 0-1.056 1.035-2.973 1.035-1.918 0-.644-1.035-3.278-1.035-2.635 0-.716 1.035-3.356 1.035-2.639 0-.399-1.035-3.005-1.035-1.451 0-1.523 1.116-2.971 1.035-1.635-.091-.62-1.035-3.345-1.035-2.726 0-.489 1.035-3.495 1.035-1.329 0-.652-1.035-2.787-1.035-2.134 0-.793 1.035-2.927 1.035-2.604 0-.136-1.059-3.422-1.035-2.238.017-1.284 1.035-3.522 1.035-.893 0-.885-1.035-2.776-1.035-1.89 0-1.658 1.035-2.688 1.035-3.209 0-.245-1.041-4.439-1.035-2.148.003-.849 1.015-2.997 1.035-1.589.016-.308-1.035-2.596-1.035-1.128 0-1.533 1.035-2.661 1.035-2.024 0-.913-1.035-3.614-1.035-2.437 0-1.861 1.035-3.376 1.035-1.704 0-1.158-1.035-2.862-1.035" transform="translate(-.059235 15.1088)"/><path d="m171.441 83.486c-2.702-.035-1.437 1.035-3.217 1.035-1.779 0-1.165-1.035-3.043-1.035-1.877 0-1.056 1.035-2.973 1.035-1.918 0-.644-1.035-3.278-1.035-2.635 0-.716 1.035-3.356 1.035-2.639 0-.399-1.035-3.005-1.035-1.451 0-1.523 1.116-2.971 1.035-1.635-.091-.62-1.035-3.345-1.035-2.726 0-.489 1.035-3.495 1.035-1.329 0-.652-1.035-2.787-1.035-2.134 0-.793 1.035-2.927 1.035-2.604 0-.136-1.059-3.422-1.035-2.238.017-1.284 1.035-3.522 1.035-.893 0-.885-1.035-2.776-1.035-1.89 0-1.658 1.035-2.688 1.035-3.209 0-.245-1.041-4.439-1.035-2.148.003-.849 1.015-2.997 1.035-1.589.016-.308-1.035-2.596-1.035-1.128 0-1.533 1.035-2.661 1.035-2.024 0-.913-1.035-3.614-1.035-2.437 0-1.861 1.035-3.376 1.035" transform="translate(-.059235 13.4233)"/><path d="m174.961 84.521c-1.808 0-1.01-1.002-3.52-1.035-2.702-.035-1.437 1.035-3.217 1.035-1.779 0-1.165-1.035-3.043-1.035-1.877 0-1.056 1.035-2.973 1.035-1.918 0-.644-1.035-3.278-1.035-2.635 0-.716 1.035-3.356 1.035-2.639 0-.399-1.035-3.005-1.035-1.451 0-1.523 1.116-2.971 1.035-1.635-.091-.62-1.035-3.345-1.035-2.726 0-.489 1.035-3.495 1.035-1.329 0-.652-1.035-2.787-1.035-2.134 0-.793 1.035-2.927 1.035-2.604 0-.136-1.059-3.422-1.035-2.238.017-1.284 1.035-3.522 1.035-.893 0-.885-1.035-2.776-1.035-1.89 0-1.658 1.035-2.688 1.035-3.209 0-.245-1.041-4.439-1.035-2.148.003-.849 1.015-2.997 1.035-1.589.016-.308-1.035-2.596-1.035-1.128 0-1.533 1.035-2.661 1.035-2.024 0-.913-1.035-3.614-1.035-2.437 0-1.861 1.035-3.376 1.035" transform="translate(-.059235 11.7379)"/><path d="m174.961 84.521c-1.808 0-1.01-1.002-3.52-1.035-2.702-.035-1.437 1.035-3.217 1.035-1.779 0-1.165-1.035-3.043-1.035-1.877 0-1.056 1.035-2.973 1.035-1.918 0-.644-1.035-3.278-1.035-2.635 0-.716 1.035-3.356 1.035-2.639 0-.399-1.035-3.005-1.035-1.451 0-1.523 1.116-2.971 1.035-1.635-.091-.62-1.035-3.345-1.035-2.726 0-.489 1.035-3.495 1.035-1.329 0-.652-1.035-2.787-1.035-2.134 0-.793 1.035-2.927 1.035-2.604 0-.136-1.059-3.422-1.035-2.238.017-1.284 1.035-3.522 1.035-.893 0-.885-1.035-2.776-1.035-1.89 0-1.658 1.035-2.688 1.035-3.209 0-.245-1.041-4.439-1.035-2.148.003-.849 1.015-2.997 1.035-1.589.016-.308-1.035-2.596-1.035-1.128 0-1.533 1.035-2.661 1.035-2.024 0-.913-1.035-3.614-1.035" transform="translate(-.059235 10.0524)"/><path d="m174.961 84.521c-1.808 0-1.01-1.002-3.52-1.035-2.702-.035-1.437 1.035-3.217 1.035-1.779 0-1.165-1.035-3.043-1.035-1.877 0-1.056 1.035-2.973 1.035-1.918 0-.644-1.035-3.278-1.035-2.635 0-.716 1.035-3.356 1.035-2.639 0-.399-1.035-3.005-1.035-1.451 0-1.523 1.116-2.971 1.035-1.635-.091-.62-1.035-3.345-1.035-2.726 0-.489 1.035-3.495 1.035-1.329 0-.652-1.035-2.787-1.035-2.134 0-.793 1.035-2.927 1.035-2.604 0-.136-1.059-3.422-1.035-2.238.017-1.284 1.035-3.522 1.035-.893 0-.885-1.035-2.776-1.035-1.89 0-1.658 1.035-2.688 1.035-3.209 0-.245-1.041-4.439-1.035-2.148.003-.849 1.015-2.997 1.035-1.589.016-.308-1.035-2.596-1.035-1.128 0-1.533 1.035-2.661 1.035-2.024 0-.913-1.035-3.614-1.035" transform="translate(-.059235 8.36699)"/><path d="m168.224 84.521c-1.779 0-1.165-1.035-3.043-1.035-1.877 0-1.056 1.035-2.973 1.035-1.918 0-.644-1.035-3.278-1.035-2.635 0-.716 1.035-3.356 1.035-2.639 0-.399-1.035-3.005-1.035-1.451 0-1.523 1.116-2.971 1.035-1.635-.091-.62-1.035-3.345-1.035-2.726 0-.489 1.035-3.495 1.035-1.329 0-.652-1.035-2.787-1.035-2.134 0-.793 1.035-2.927 1.035-2.604 0-.136-1.059-3.422-1.035-2.238.017-1.284 1.035-3.522 1.035-.893 0-.885-1.035-2.776-1.035-1.89 0-1.658 1.035-2.688 1.035-3.209 0-.245-1.041-4.439-1.035-2.148.003-.849 1.015-2.997 1.035-1.589.016-.308-1.035-2.596-1.035-1.128 0-1.533 1.035-2.661 1.035-2.024 0-.913-1.035-3.614-1.035-2.437 0-1.861 1.035-3.376 1.035-1.704 0-1.158-1.035-2.862-1.035-1.152 0-.973 1.035-2.506 1.035" transform="translate(-.059235 18.4796)"/><path d="m178.086 83.486c-1.572.043-1.96 1.035-3.125 1.035-1.808 0-1.01-1.002-3.52-1.035-2.702-.035-1.437 1.035-3.217 1.035-1.779 0-1.165-1.035-3.043-1.035-1.877 0-1.056 1.035-2.973 1.035-1.918 0-.644-1.035-3.278-1.035-2.635 0-.716 1.035-3.356 1.035-2.639 0-.399-1.035-3.005-1.035-1.451 0-1.523 1.116-2.971 1.035-1.635-.091-.62-1.035-3.345-1.035-2.726 0-.489 1.035-3.495 1.035-1.329 0-.652-1.035-2.787-1.035-2.134 0-.793 1.035-2.927 1.035-2.604 0-.136-1.059-3.422-1.035-2.238.017-1.284 1.035-3.522 1.035-.893 0-.885-1.035-2.776-1.035-1.89 0-1.658 1.035-2.688 1.035-3.209 0-.245-1.041-4.439-1.035-2.148.003-.849 1.015-2.997 1.035-1.589.016-.308-1.035-2.596-1.035-1.128 0-1.533 1.035-2.661 1.035" transform="translate(-.059235 6.68155)"/><path d="m180.75 84.521c-1.572 0-1.093-1.078-2.664-1.035-1.572.043-1.96 1.035-3.125 1.035-1.808 0-1.01-1.002-3.52-1.035-2.702-.035-1.437 1.035-3.217 1.035-1.779 0-1.165-1.035-3.043-1.035-1.877 0-1.056 1.035-2.973 1.035-1.918 0-.644-1.035-3.278-1.035-2.635 0-.716 1.035-3.356 1.035-2.639 0-.399-1.035-3.005-1.035-1.451 0-1.523 1.116-2.971 1.035-1.635-.091-.62-1.035-3.345-1.035-2.726 0-.489 1.035-3.495 1.035-1.329 0-.652-1.035-2.787-1.035-2.134 0-.793 1.035-2.927 1.035-2.604 0-.136-1.059-3.422-1.035-2.238.017-1.284 1.035-3.522 1.035-.893 0-.885-1.035-2.776-1.035-1.89 0-1.658 1.035-2.688 1.035-3.209 0-.245-1.041-4.439-1.035-2.148.003-.849 1.015-2.997 1.035-1.589.016-.308-1.035-2.596-1.035-1.128 0-1.533 1.035-2.661 1.035" transform="translate(-.059235 4.9961)"/><path d="m180.75 84.521c-1.572 0-1.093-1.078-2.664-1.035-1.572.043-1.96 1.035-3.125 1.035-1.808 0-1.01-1.002-3.52-1.035-2.702-.035-1.437 1.035-3.217 1.035-1.779 0-1.165-1.035-3.043-1.035-1.877 0-1.056 1.035-2.973 1.035-1.918 0-.644-1.035-3.278-1.035-2.635 0-.716 1.035-3.356 1.035-2.639 0-.399-1.035-3.005-1.035-1.451 0-1.523 1.116-2.971 1.035-1.635-.091-.62-1.035-3.345-1.035-2.726 0-.489 1.035-3.495 1.035-1.329 0-.652-1.035-2.787-1.035-2.134 0-.793 1.035-2.927 1.035-2.604 0-.136-1.059-3.422-1.035-2.238.017-1.284 1.035-3.522 1.035-.893 0-.885-1.035-2.776-1.035-1.89 0-1.658 1.035-2.688 1.035-3.209 0-.245-1.041-4.439-1.035-2.148.003-.849 1.015-2.997 1.035-1.589.016-.308-1.035-2.596-1.035" transform="translate(-.059235 3.31066)"/><path d="m183.852 83.486s-1.637 1.035-3.102 1.035c-1.572 0-1.093-1.078-2.664-1.035-1.572.043-1.96 1.035-3.125 1.035-1.808 0-1.01-1.002-3.52-1.035-2.702-.035-1.437 1.035-3.217 1.035-1.779 0-1.165-1.035-3.043-1.035-1.877 0-1.056 1.035-2.973 1.035-1.918 0-.644-1.035-3.278-1.035-2.635 0-.716 1.035-3.356 1.035-2.639 0-.399-1.035-3.005-1.035-1.451 0-1.523 1.116-2.971 1.035-1.635-.091-.62-1.035-3.345-1.035-2.726 0-.489 1.035-3.495 1.035-1.329 0-.652-1.035-2.787-1.035-2.134 0-.793 1.035-2.927 1.035-2.604 0-.136-1.059-3.422-1.035-2.238.017-1.284 1.035-3.522 1.035-.893 0-.885-1.035-2.776-1.035-1.89 0-1.658 1.035-2.688 1.035-3.209 0-.245-1.041-4.439-1.035-2.148.003-.849 1.015-2.997 1.035" transform="translate(-.059235 1.62522)"/><path d="m183.852 83.486s-1.637 1.035-3.102 1.035c-1.572 0-1.093-1.078-2.664-1.035-1.572.043-1.96 1.035-3.125 1.035-1.808 0-1.01-1.002-3.52-1.035-2.702-.035-1.437 1.035-3.217 1.035-1.779 0-1.165-1.035-3.043-1.035-1.877 0-1.056 1.035-2.973 1.035-1.918 0-.644-1.035-3.278-1.035-2.635 0-.716 1.035-3.356 1.035-2.639 0-.399-1.035-3.005-1.035-1.451 0-1.523 1.116-2.971 1.035-1.635-.091-.62-1.035-3.345-1.035-2.726 0-.489 1.035-3.495 1.035-1.329 0-.652-1.035-2.787-1.035-2.134 0-.793 1.035-2.927 1.035-2.604 0-.136-1.059-3.422-1.035-2.238.017-1.284 1.035-3.522 1.035-.893 0-.885-1.035-2.776-1.035-1.89 0-1.658 1.035-2.688 1.035-3.209 0-.245-1.041-4.439-1.035-2.148.003-.849 1.015-2.997 1.035" transform="translate(-.059235 -.060224)"/></g><path d="m85.857 66.71v26.23h-29.595l-43.117-43.116h55.814zm-85.081-39.896h14.371v14.502z" fill="none"/><g clip-path="url(#b)" fill="none" stroke="currentColor"><path d="m171.441 83.486c-2.702-.035-1.437 1.035-3.217 1.035-1.779 0-1.165-1.035-3.043-1.035-1.877 0-1.056 1.035-2.973 1.035-1.918 0-.644-1.035-3.278-1.035-2.635 0-.716 1.035-3.356 1.035-2.639 0-.399-1.035-3.005-1.035-1.451 0-1.523 1.116-2.971 1.035-1.635-.091-.62-1.035-3.345-1.035-2.726 0-.489 1.035-3.495 1.035-1.329 0-.652-1.035-2.787-1.035-2.134 0-.793 1.035-2.927 1.035" transform="translate(-85.619035 7.6747)"/><path d="m171.441 83.486c-2.702-.035-1.437 1.035-3.217 1.035-1.779 0-1.165-1.035-3.043-1.035-1.877 0-1.056 1.035-2.973 1.035-1.918 0-.644-1.035-3.278-1.035-2.635 0-.716 1.035-3.356 1.035-2.639 0-.399-1.035-3.005-1.035-1.451 0-1.523 1.116-2.971 1.035-1.635-.091-.62-1.035-3.345-1.035-2.726 0-.489 1.035-3.495 1.035-1.329 0-.652-1.035-2.787-1.035-2.134 0-.793 1.035-2.927 1.035" transform="translate(-85.619035 5.9892)"/><path d="m171.441 83.486c-2.702-.035-1.437 1.035-3.217 1.035-1.779 0-1.165-1.035-3.043-1.035-1.877 0-1.056 1.035-2.973 1.035-1.918 0-.644-1.035-3.278-1.035-2.635 0-.716 1.035-3.356 1.035-2.639 0-.399-1.035-3.005-1.035-1.451 0-1.523 1.116-2.971 1.035-1.635-.091-.62-1.035-3.345-1.035-2.726 0-.489 1.035-3.495 1.035-1.329 0-.652-1.035-2.787-1.035-2.134 0-.793 1.035-2.927 1.035" transform="translate(-85.619035 4.3038)"/><path d="m171.441 83.486c-2.702-.035-1.437 1.035-3.217 1.035-1.779 0-1.165-1.035-3.043-1.035-1.877 0-1.056 1.035-2.973 1.035-1.918 0-.644-1.035-3.278-1.035-2.635 0-.716 1.035-3.356 1.035-2.639 0-.399-1.035-3.005-1.035-1.451 0-1.523 1.116-2.971 1.035-1.635-.091-.62-1.035-3.345-1.035-2.726 0-.489 1.035-3.495 1.035-1.329 0-.652-1.035-2.787-1.035-2.134 0-.793 1.035-2.927 1.035-2.604 0-.136-1.059-3.422-1.035" transform="translate(-85.619035 2.6184)"/><path d="m171.441 83.486c-2.702-.035-1.437 1.035-3.217 1.035-1.779 0-1.165-1.035-3.043-1.035-1.877 0-1.056 1.035-2.973 1.035-1.918 0-.644-1.035-3.278-1.035-2.635 0-.716 1.035-3.356 1.035-2.639 0-.399-1.035-3.005-1.035-1.451 0-1.523 1.116-2.971 1.035-1.635-.091-.62-1.035-3.345-1.035-2.726 0-.489 1.035-3.495 1.035-1.329 0-.652-1.035-2.787-1.035-2.134 0-.793 1.035-2.927 1.035-2.604 0-.136-1.059-3.422-1.035-2.238.017-1.284 1.035-3.522 1.035" transform="translate(-85.619035 .9329)"/><path d="m174.961 84.521c-1.808 0-1.01-1.002-3.52-1.035-2.702-.035-1.437 1.035-3.217 1.035-1.779 0-1.165-1.035-3.043-1.035-1.877 0-1.056 1.035-2.973 1.035-1.918 0-.644-1.035-3.278-1.035-2.635 0-.716 1.035-3.356 1.035-2.639 0-.399-1.035-3.005-1.035-1.451 0-1.523 1.116-2.971 1.035-1.635-.091-.62-1.035-3.345-1.035-2.726 0-.489 1.035-3.495 1.035-1.329 0-.652-1.035-2.787-1.035-2.134 0-.793 1.035-2.927 1.035-2.604 0-.136-1.059-3.422-1.035-2.238.017-1.284 1.035-3.522 1.035" transform="translate(-85.619035 -.7525)"/><path d="m171.441 83.486c-2.702-.035-1.437 1.035-3.217 1.035-1.779 0-1.165-1.035-3.043-1.035-1.877 0-1.056 1.035-2.973 1.035-1.918 0-.644-1.035-3.278-1.035-2.635 0-.716 1.035-3.356 1.035-2.639 0-.399-1.035-3.005-1.035-1.451 0-1.523 1.116-2.971 1.035-1.635-.091-.62-1.035-3.345-1.035-2.726 0-.489 1.035-3.495 1.035-1.329 0-.652-1.035-2.787-1.035-2.134 0-.793 1.035-2.927 1.035-2.604 0-.136-1.059-3.422-1.035-2.238.017-1.284 1.035-3.522 1.035" transform="translate(-85.619035 -2.438)"/><path d="m171.441 83.486c-2.702-.035-1.437 1.035-3.217 1.035-1.779 0-1.165-1.035-3.043-1.035-1.877 0-1.056 1.035-2.973 1.035-1.918 0-.644-1.035-3.278-1.035-2.635 0-.716 1.035-3.356 1.035-2.639 0-.399-1.035-3.005-1.035-1.451 0-1.523 1.116-2.971 1.035-1.635-.091-.62-1.035-3.345-1.035-2.726 0-.489 1.035-3.495 1.035-1.329 0-.652-1.035-2.787-1.035-2.134 0-.793 1.035-2.927 1.035-2.604 0-.136-1.059-3.422-1.035-2.238.017-1.284 1.035-3.522 1.035-.893 0-.885-1.035-2.776-1.035" transform="translate(-85.619035 -4.1234)"/><path d="m171.441 83.486c-2.702-.035-1.437 1.035-3.217 1.035-1.779 0-1.165-1.035-3.043-1.035-1.877 0-1.056 1.035-2.973 1.035-1.918 0-.644-1.035-3.278-1.035-2.635 0-.716 1.035-3.356 1.035-2.639 0-.399-1.035-3.005-1.035-1.451 0-1.523 1.116-2.971 1.035-1.635-.091-.62-1.035-3.345-1.035-2.726 0-.489 1.035-3.495 1.035-1.329 0-.652-1.035-2.787-1.035-2.134 0-.793 1.035-2.927 1.035-2.604 0-.136-1.059-3.422-1.035-2.238.017-1.284 1.035-3.522 1.035-.893 0-.885-1.035-2.776-1.035-1.89 0-1.658 1.035-2.688 1.035" transform="translate(-85.619035 -7.4943)"/><path d="m171.441 83.486c-2.702-.035-1.437 1.035-3.217 1.035-1.779 0-1.165-1.035-3.043-1.035-1.877 0-1.056 1.035-2.973 1.035-1.918 0-.644-1.035-3.278-1.035-2.635 0-.716 1.035-3.356 1.035-2.639 0-.399-1.035-3.005-1.035-1.451 0-1.523 1.116-2.971 1.035-1.635-.091-.62-1.035-3.345-1.035-2.726 0-.489 1.035-3.495 1.035-1.329 0-.652-1.035-2.787-1.035-2.134 0-.793 1.035-2.927 1.035-2.604 0-.136-1.059-3.422-1.035-2.238.017-1.284 1.035-3.522 1.035-.893 0-.885-1.035-2.776-1.035-1.89 0-1.658 1.035-2.688 1.035-3.209 0-.245-1.041-4.439-1.035" transform="translate(-85.619035 -9.1797)"/><path d="m171.441 83.486c-2.702-.035-1.437 1.035-3.217 1.035-1.779 0-1.165-1.035-3.043-1.035-1.877 0-1.056 1.035-2.973 1.035-1.918 0-.644-1.035-3.278-1.035-2.635 0-.716 1.035-3.356 1.035-2.639 0-.399-1.035-3.005-1.035-1.451 0-1.523 1.116-2.971 1.035-1.635-.091-.62-1.035-3.345-1.035-2.726 0-.489 1.035-3.495 1.035-1.329 0-.652-1.035-2.787-1.035-2.134 0-.793 1.035-2.927 1.035-2.604 0-.136-1.059-3.422-1.035-2.238.017-1.284 1.035-3.522 1.035-.893 0-.885-1.035-2.776-1.035-1.89 0-1.658 1.035-2.688 1.035-3.209 0-.245-1.041-4.439-1.035" transform="translate(-85.619035 -10.8652)"/><path d="m171.441 83.486c-2.702-.035-1.437 1.035-3.217 1.035-1.779 0-1.165-1.035-3.043-1.035-1.877 0-1.056 1.035-2.973 1.035-1.918 0-.644-1.035-3.278-1.035-2.635 0-.716 1.035-3.356 1.035-2.639 0-.399-1.035-3.005-1.035-1.451 0-1.523 1.116-2.971 1.035-1.635-.091-.62-1.035-3.345-1.035-2.726 0-.489 1.035-3.495 1.035-1.329 0-.652-1.035-2.787-1.035-2.134 0-.793 1.035-2.927 1.035-2.604 0-.136-1.059-3.422-1.035-2.238.017-1.284 1.035-3.522 1.035-.893 0-.885-1.035-2.776-1.035-1.89 0-1.658 1.035-2.688 1.035-3.209 0-.245-1.041-4.439-1.035-2.148.003-.849 1.015-2.997 1.035" transform="translate(-85.619035 -12.5506)"/><path d="m171.441 83.486c-2.702-.035-1.437 1.035-3.217 1.035-1.779 0-1.165-1.035-3.043-1.035-1.877 0-1.056 1.035-2.973 1.035-1.918 0-.644-1.035-3.278-1.035-2.635 0-.716 1.035-3.356 1.035-2.639 0-.399-1.035-3.005-1.035-1.451 0-1.523 1.116-2.971 1.035-1.635-.091-.62-1.035-3.345-1.035-2.726 0-.489 1.035-3.495 1.035-1.329 0-.652-1.035-2.787-1.035-2.134 0-.793 1.035-2.927 1.035-2.604 0-.136-1.059-3.422-1.035-2.238.017-1.284 1.035-3.522 1.035-.893 0-.885-1.035-2.776-1.035-1.89 0-1.658 1.035-2.688 1.035-3.209 0-.245-1.041-4.439-1.035-2.148.003-.849 1.015-2.997 1.035" transform="translate(-85.619035 -14.2361)"/><path d="m171.441 83.486c-2.702-.035-1.437 1.035-3.217 1.035-1.779 0-1.165-1.035-3.043-1.035-1.877 0-1.056 1.035-2.973 1.035-1.918 0-.644-1.035-3.278-1.035-2.635 0-.716 1.035-3.356 1.035-2.639 0-.399-1.035-3.005-1.035-1.451 0-1.523 1.116-2.971 1.035-1.635-.091-.62-1.035-3.345-1.035-2.726 0-.489 1.035-3.495 1.035-1.329 0-.652-1.035-2.787-1.035-2.134 0-.793 1.035-2.927 1.035-2.604 0-.136-1.059-3.422-1.035-2.238.017-1.284 1.035-3.522 1.035-.893 0-.885-1.035-2.776-1.035-1.89 0-1.658 1.035-2.688 1.035-3.209 0-.245-1.041-4.439-1.035-2.148.003-.849 1.015-2.997 1.035-1.589.016-25.651-1.035-29.115-1.035" transform="translate(-85.619035 -15.92151)"/><path d="m171.441 83.486c-2.702-.035-1.437 1.035-3.217 1.035-1.779 0-1.165-1.035-3.043-1.035-1.877 0-1.056 1.035-2.973 1.035-1.918 0-.644-1.035-3.278-1.035-2.635 0-.716 1.035-3.356 1.035-2.639 0-.399-1.035-3.005-1.035-1.451 0-1.523 1.116-2.971 1.035-1.635-.091-.62-1.035-3.345-1.035-2.726 0-.489 1.035-3.495 1.035-1.329 0-.652-1.035-2.787-1.035-2.134 0-.793 1.035-2.927 1.035-2.604 0-.136-1.059-3.422-1.035-2.238.017-1.284 1.035-3.522 1.035-.893 0-.885-1.035-2.776-1.035-1.89 0-1.658 1.035-2.688 1.035" transform="translate(-85.619035 -5.8089)"/><path d="m171.441 83.486c-2.702-.035-1.437 1.035-3.217 1.035-1.779 0-1.165-1.035-3.043-1.035-1.877 0-1.056 1.035-2.973 1.035-1.918 0-.644-1.035-3.278-1.035-2.635 0-.716 1.035-3.356 1.035-2.639 0-.399-1.035-3.005-1.035-1.451 0-1.523 1.116-2.971 1.035-1.635-.091-.62-1.035-3.345-1.035-2.726 0-.489 1.035-3.495 1.035-1.329 0-.652-1.035-2.787-1.035-2.134 0-.793 1.035-2.927 1.035-2.604 0-.136-1.059-3.422-1.035-2.238.017-1.284 1.035-3.522 1.035-.893 0-.885-1.035-2.776-1.035-1.89 0-1.658 1.035-2.688 1.035-3.209 0-.245-1.041-4.439-1.035-2.148.003-.849 1.015-2.997 1.035-1.589.016-.308-1.035-2.596-1.035-1.128 0-1.533 1.035-2.661 1.035" transform="translate(-85.619035 -17.60695)"/><path d="m171.441 83.486c-2.702-.035-1.437 1.035-3.217 1.035-1.779 0-1.165-1.035-3.043-1.035-1.877 0-1.056 1.035-2.973 1.035-1.918 0-.644-1.035-3.278-1.035-2.635 0-.716 1.035-3.356 1.035-2.639 0-.399-1.035-3.005-1.035-1.451 0-1.523 1.116-2.971 1.035-1.635-.091-.62-1.035-3.345-1.035-2.726 0-.489 1.035-3.495 1.035-1.329 0-.652-1.035-2.787-1.035-2.134 0-.793 1.035-2.927 1.035-2.604 0-.136-1.059-3.422-1.035-2.238.017-1.284 1.035-3.522 1.035-.893 0-.885-1.035-2.776-1.035-1.89 0-1.658 1.035-2.688 1.035-3.209 0-.245-1.041-4.439-1.035-2.148.003-.849 1.015-2.997 1.035-1.589.016-.308-1.035-2.596-1.035-1.128 0-1.533 1.035-2.661 1.035" transform="translate(-85.619035 -19.2924)"/><path d="m168.224 84.521c-1.779 0-1.165-1.035-3.043-1.035-1.877 0-1.056 1.035-2.973 1.035-1.918 0-.644-1.035-3.278-1.035-2.635 0-.716 1.035-3.356 1.035-2.639 0-.399-1.035-3.005-1.035-1.451 0-1.523 1.116-2.971 1.035-1.635-.091-.62-1.035-3.345-1.035-2.726 0-.489 1.035-3.495 1.035-1.329 0-.652-1.035-2.787-1.035-2.134 0-.793 1.035-2.927 1.035-2.604 0-.136-1.059-3.422-1.035-2.238.017-1.284 1.035-3.522 1.035-.893 0-.885-1.035-2.776-1.035-1.89 0-1.658 1.035-2.688 1.035-3.209 0-.245-1.041-4.439-1.035-2.148.003-.849 1.015-2.997 1.035-1.589.016-.308-1.035-2.596-1.035-1.128 0-1.533 1.035-2.661 1.035" transform="translate(-85.619035 -20.97784)"/><path d="m168.224 84.521c-1.779 0-1.165-1.035-3.043-1.035-1.877 0-1.056 1.035-2.973 1.035-1.918 0-.644-1.035-3.278-1.035-2.635 0-.716 1.035-3.356 1.035-2.639 0-.399-1.035-3.005-1.035-1.451 0-1.523 1.116-2.971 1.035-1.635-.091-.62-1.035-3.345-1.035-2.726 0-.489 1.035-3.495 1.035-1.329 0-.652-1.035-2.787-1.035-2.134 0-.793 1.035-2.927 1.035-2.604 0-.136-1.059-3.422-1.035-2.238.017-1.284 1.035-3.522 1.035-.893 0-.885-1.035-2.776-1.035-1.89 0-1.658 1.035-2.688 1.035-3.209 0-.245-1.041-4.439-1.035-2.148.003-.849 1.015-2.997 1.035-1.589.016-.308-1.035-2.596-1.035-1.128 0-1.533 1.035-2.661 1.035-2.024 0-.913-1.035-3.614-1.035" transform="translate(-85.619035 -22.66328)"/><path d="m165.181 83.486c-1.877 0-1.056 1.035-2.973 1.035-1.918 0-.644-1.035-3.278-1.035-2.635 0-.716 1.035-3.356 1.035-2.639 0-.399-1.035-3.005-1.035-1.451 0-1.523 1.116-2.971 1.035-1.635-.091-.62-1.035-3.345-1.035-2.726 0-.489 1.035-3.495 1.035-1.329 0-.652-1.035-2.787-1.035-2.134 0-.793 1.035-2.927 1.035-2.604 0-.136-1.059-3.422-1.035-2.238.017-1.284 1.035-3.522 1.035-.893 0-.885-1.035-2.776-1.035-1.89 0-1.658 1.035-2.688 1.035-3.209 0-.245-1.041-4.439-1.035-2.148.003-.849 1.015-2.997 1.035-1.589.016-.308-1.035-2.596-1.035-1.128 0-1.533 1.035-2.661 1.035-2.024 0-.913-1.035-3.614-1.035-2.437 0-1.861 1.035-3.376 1.035" transform="translate(-85.619035 -24.348724)"/><path d="m165.181 83.486c-1.877 0-1.056 1.035-2.973 1.035-1.918 0-.644-1.035-3.278-1.035-2.635 0-.716 1.035-3.356 1.035-2.639 0-.399-1.035-3.005-1.035-1.451 0-1.523 1.116-2.971 1.035-1.635-.091-.62-1.035-3.345-1.035-2.726 0-.489 1.035-3.495 1.035-1.329 0-.652-1.035-2.787-1.035-2.134 0-.793 1.035-2.927 1.035-2.604 0-.136-1.059-3.422-1.035-2.238.017-1.284 1.035-3.522 1.035-.893 0-.885-1.035-2.776-1.035-1.89 0-1.658 1.035-2.688 1.035-3.209 0-.245-1.041-4.439-1.035-2.148.003-.849 1.015-2.997 1.035-1.589.016-.308-1.035-2.596-1.035-1.128 0-1.533 1.035-2.661 1.035-2.024 0-.913-1.035-3.614-1.035-2.437 0-1.861 1.035-3.376 1.035" transform="translate(-85.619035 -26.0352)"/><path d="m162.208 84.521c-1.918 0-.644-1.035-3.278-1.035-2.635 0-.716 1.035-3.356 1.035-2.639 0-.399-1.035-3.005-1.035-1.451 0-1.523 1.116-2.971 1.035-1.635-.091-.62-1.035-3.345-1.035-2.726 0-.489 1.035-3.495 1.035-1.329 0-.652-1.035-2.787-1.035-2.134 0-.793 1.035-2.927 1.035-2.604 0-.136-1.059-3.422-1.035-2.238.017-1.284 1.035-3.522 1.035-.893 0-.885-1.035-2.776-1.035-1.89 0-1.658 1.035-2.688 1.035-3.209 0-.245-1.041-4.439-1.035-2.148.003-.849 1.015-2.997 1.035-1.589.016-.308-1.035-2.596-1.035-1.128 0-1.533 1.035-2.661 1.035-2.024 0-.913-1.035-3.614-1.035-2.437 0-1.861 1.035-3.376 1.035" transform="translate(-85.619035 -27.7207)"/><path d="m158.93 83.486c-2.635 0-.716 1.035-3.356 1.035-2.639 0-.399-1.035-3.005-1.035-1.451 0-1.523 1.116-2.971 1.035-1.635-.091-.62-1.035-3.345-1.035-2.726 0-.489 1.035-3.495 1.035-1.329 0-.652-1.035-2.787-1.035-2.134 0-.793 1.035-2.927 1.035-2.604 0-.136-1.059-3.422-1.035-2.238.017-1.284 1.035-3.522 1.035-.893 0-.885-1.035-2.776-1.035-1.89 0-1.658 1.035-2.688 1.035-3.209 0-.245-1.041-4.439-1.035-2.148.003-.849 1.015-2.997 1.035-1.589.016-.308-1.035-2.596-1.035-1.128 0-1.533 1.035-2.661 1.035-2.024 0-.913-1.035-3.614-1.035-2.437 0-1.861 1.035-3.376 1.035-1.704 0-1.158-1.035-2.862-1.035-1.152 0-.973 1.035-2.506 1.035" transform="translate(-85.619035 -29.4061)"/><path d="m158.93 83.486c-2.635 0-.716 1.035-3.356 1.035-2.639 0-.399-1.035-3.005-1.035-1.451 0-1.523 1.116-2.971 1.035-1.635-.091-.62-1.035-3.345-1.035-2.726 0-.489 1.035-3.495 1.035-1.329 0-.652-1.035-2.787-1.035-2.134 0-.793 1.035-2.927 1.035-2.604 0-.136-1.059-3.422-1.035-2.238.017-1.284 1.035-3.522 1.035-.893 0-.885-1.035-2.776-1.035-1.89 0-1.658 1.035-2.688 1.035-3.209 0-.245-1.041-4.439-1.035-2.148.003-.849 1.015-2.997 1.035-1.589.016-.308-1.035-2.596-1.035-1.128 0-1.533 1.035-2.661 1.035-2.024 0-.913-1.035-3.614-1.035-2.437 0-1.861 1.035-3.376 1.035-1.704 0-1.158-1.035-2.862-1.035-1.152 0-.973 1.035-2.506 1.035" transform="translate(-85.619035 -31.0915)"/><path d="m158.93 83.486c-2.635 0-.716 1.035-3.356 1.035-2.639 0-.399-1.035-3.005-1.035-1.451 0-1.523 1.116-2.971 1.035-1.635-.091-.62-1.035-3.345-1.035-2.726 0-.489 1.035-3.495 1.035-1.329 0-.652-1.035-2.787-1.035-2.134 0-.793 1.035-2.927 1.035-2.604 0-.136-1.059-3.422-1.035-2.238.017-1.284 1.035-3.522 1.035-.893 0-.885-1.035-2.776-1.035-1.89 0-1.658 1.035-2.688 1.035-3.209 0-.245-1.041-4.439-1.035-2.148.003-.849 1.015-2.997 1.035-1.589.016-.308-1.035-2.596-1.035-1.128 0-1.533 1.035-2.661 1.035-2.024 0-.913-1.035-3.614-1.035-2.437 0-1.861 1.035-3.376 1.035-1.704 0-1.158-1.035-2.862-1.035-1.152 0-.973 1.035-2.506 1.035" transform="translate(-85.619035 -32.777)"/><path d="m158.93 83.486c-2.635 0-.716 1.035-3.356 1.035-2.639 0-.399-1.035-3.005-1.035-1.451 0-1.523 1.116-2.971 1.035-1.635-.091-.62-1.035-3.345-1.035-2.726 0-.489 1.035-3.495 1.035-1.329 0-.652-1.035-2.787-1.035-2.134 0-.793 1.035-2.927 1.035-2.604 0-.136-1.059-3.422-1.035-2.238.017-1.284 1.035-3.522 1.035-.893 0-.885-1.035-2.776-1.035-1.89 0-1.658 1.035-2.688 1.035-3.209 0-.245-1.041-4.439-1.035-2.148.003-.849 1.015-2.997 1.035-1.589.016-.308-1.035-2.596-1.035-1.128 0-1.533 1.035-2.661 1.035-2.024 0-.913-1.035-3.614-1.035-2.437 0-1.861 1.035-3.376 1.035-1.704 0-1.158-1.035-2.862-1.035-1.152 0-.973 1.035-2.506 1.035-2.193 0-1.107-1.035-3.501-1.035" transform="translate(-85.619035 -34.4624)"/><path d="m102.091 83.486c-1.152 0-.973 1.035-2.506 1.035" transform="translate(-85.619035 -42.8896)"/><path d="m102.091 83.486c-1.152 0-.973 1.035-2.506 1.035-2.193 0-1.107-1.035-3.501-1.035" transform="translate(-85.619035 -44.5751)"/><path d="m102.091 83.486c-1.152 0-.973 1.035-2.506 1.035-2.193 0-1.107-1.035-3.501-1.035-2.794 0-1.421 1.035-3.928 1.035" transform="translate(-85.619035 -46.2605)"/><path d="m102.091 83.486c-1.152 0-.973 1.035-2.506 1.035-2.193 0-1.107-1.035-3.501-1.035-2.794 0-1.421 1.035-3.928 1.035" transform="translate(-85.619035 -47.946)"/><path d="m102.091 83.486c-1.152 0-.973 1.035-2.506 1.035-2.193 0-1.107-1.035-3.501-1.035-2.794 0-1.421 1.035-3.928 1.035" transform="translate(-85.619035 -49.63141)"/><path d="m102.091 83.486c-1.152 0-.973 1.035-2.506 1.035-2.193 0-1.107-1.035-3.501-1.035-2.794 0-1.421 1.035-3.928 1.035-1.47 0-.607-1.035-4.071-1.035" transform="translate(-85.619035 -51.31685)"/><path d="m102.091 83.486c-1.152 0-.973 1.035-2.506 1.035-2.193 0-1.107-1.035-3.501-1.035-2.794 0-1.421 1.035-3.928 1.035-1.47 0-.607-1.035-4.071-1.035" transform="translate(-85.619035 -53.0023)"/><path d="m102.091 83.486c-1.152 0-.973 1.035-2.506 1.035-2.193 0-1.107-1.035-3.501-1.035-2.794 0-1.421 1.035-3.928 1.035-1.47 0-.607-1.035-4.071-1.035" transform="translate(-85.619035 -54.68774)"/><path d="m102.091 83.486c-1.152 0-.973 1.035-2.506 1.035-2.193 0-1.107-1.035-3.501-1.035-2.794 0-1.421 1.035-3.928 1.035-1.47 0-.607-1.035-4.071-1.035" transform="translate(-85.619035 -56.37318)"/><path d="m102.091 83.486c-1.152 0-.973 1.035-2.506 1.035-2.193 0-1.107-1.035-3.501-1.035-2.794 0-1.421 1.035-3.928 1.035-1.47 0-.607-1.035-4.071-1.035" transform="translate(-85.619035 -58.058624)"/></g></svg>
