<?xml version="1.0" encoding="UTF-8" standalone="no"?>
<!DOCTYPE svg PUBLIC "-//W3C//DTD SVG 1.1//EN" "http://www.w3.org/Graphics/SVG/1.1/DTD/svg11.dtd">
<svg width="100%" height="100%" viewBox="0 0 264 51" version="1.1"
    xmlns="http://www.w3.org/2000/svg"
    style="fill-rule:evenodd;clip-rule:evenodd;stroke-linejoin:round;stroke-miterlimit:2;fill:currentColor;">
    <path d="M42.659,7.856C47.321,12.548 49.933,18.896 49.923,25.511C49.913,32.125 47.281,38.465 42.603,43.142C37.927,47.819 31.586,50.451 24.972,50.462C18.358,50.472 12.009,47.86 7.318,43.198L7.282,43.162C7.255,43.136 7.229,43.109 7.204,43.083C6.416,42.253 5.987,41.147 6.009,40.004C6.031,38.861 6.503,37.772 7.322,36.974C8.141,36.176 9.241,35.732 10.385,35.739C11.528,35.747 12.623,36.204 13.432,37.013L13.467,37.048C16.516,40.106 20.655,41.828 24.973,41.836C29.291,41.844 33.436,40.138 36.496,37.092C39.557,34.046 41.284,29.91 41.297,25.592C41.31,21.273 39.609,17.127 36.566,14.062C36.547,14.043 36.529,14.025 36.51,14.006C37.328,14.806 38.429,15.252 39.574,15.246C40.719,15.239 41.816,14.782 42.625,13.972C43.435,13.162 43.892,12.066 43.899,10.921C43.905,9.776 43.46,8.675 42.659,7.856L42.659,7.856Z" style="fill-opacity:0.7;fill-rule:nonzero;"/>
    <path d="M42.625,7.822L42.66,7.857C43.46,8.676 43.905,9.777 43.898,10.921C43.892,12.066 43.434,13.162 42.625,13.971C41.815,14.78 40.72,15.238 39.575,15.245C38.431,15.251 37.33,14.806 36.511,14.007L36.475,13.971C33.417,10.927 29.277,9.22 24.962,9.225C20.647,9.23 16.51,10.947 13.459,13.998C10.408,17.049 8.692,21.186 8.687,25.5C8.682,29.815 10.389,33.956 13.433,37.014C12.624,36.205 11.53,35.748 10.386,35.74C9.242,35.733 8.142,36.177 7.323,36.975C6.504,37.773 6.032,38.862 6.01,40.005C5.988,41.148 6.417,42.254 7.205,43.083C2.569,38.387 -0.021,32.047 0,25.447C0.022,18.848 2.653,12.524 7.319,7.858C11.986,3.191 18.309,0.56 24.909,0.539C31.508,0.517 37.848,3.107 42.545,7.743C42.572,7.769 42.598,7.795 42.625,7.822Z" style="fill-opacity:0.5;fill-rule:nonzero;"/>
    <path d="M28.89,16.455C29.925,16.856 30.87,17.461 31.666,18.235L29.647,20.6C28.526,19.624 27.094,19.078 25.608,19.059C24.972,19.025 24.341,19.187 23.801,19.524C23.585,19.672 23.411,19.874 23.295,20.108C23.178,20.343 23.124,20.604 23.137,20.866C23.121,21.221 23.224,21.572 23.429,21.862C23.713,22.183 24.068,22.434 24.466,22.593C25.193,22.91 25.938,23.185 26.697,23.416C28.575,24.019 29.957,24.759 30.843,25.635C31.729,26.512 32.171,27.756 32.171,29.369C32.192,30.448 31.886,31.508 31.294,32.411C30.667,33.322 29.791,34.033 28.77,34.457C27.533,34.971 26.203,35.22 24.864,35.188C23.497,35.213 22.138,34.969 20.865,34.47C19.757,34.026 18.743,33.377 17.876,32.557L20.081,30.139C20.733,30.707 21.474,31.165 22.273,31.494C23.056,31.801 23.89,31.954 24.731,31.946C25.634,31.946 26.347,31.747 26.87,31.348C27.126,31.156 27.33,30.904 27.467,30.615C27.603,30.325 27.667,30.007 27.653,29.687C27.668,29.282 27.566,28.881 27.361,28.531C27.104,28.168 26.756,27.88 26.351,27.694C25.684,27.372 24.991,27.105 24.279,26.897C22.241,26.277 20.793,25.515 19.934,24.612C19.505,24.153 19.17,23.614 18.949,23.026C18.727,22.438 18.624,21.812 18.646,21.184C18.627,20.183 18.924,19.202 19.496,18.381C20.094,17.55 20.913,16.906 21.861,16.52C22.947,16.072 24.114,15.85 25.289,15.87C26.515,15.844 27.735,16.042 28.89,16.455Z" style="fill-rule:nonzero;"/>
    <path d="M66.882,23.113C65.779,23.135 64.685,22.922 63.672,22.488C62.787,22.107 62.026,21.486 61.477,20.694C60.922,19.851 60.634,18.86 60.651,17.85L63.837,17.85C63.852,18.584 64.152,19.282 64.675,19.798C65.202,20.325 65.93,20.588 66.858,20.588C67.543,20.625 68.22,20.42 68.77,20.01C69,19.825 69.184,19.589 69.307,19.321C69.43,19.052 69.488,18.759 69.478,18.464C69.494,18.171 69.447,17.878 69.339,17.605C69.231,17.331 69.065,17.085 68.852,16.883C68.366,16.466 67.8,16.153 67.188,15.962C66.496,15.726 65.756,15.475 64.97,15.207C63.695,14.767 62.724,14.2 62.055,13.508C61.386,12.816 61.052,11.895 61.052,10.746C61.012,9.856 61.256,8.976 61.748,8.233C62.243,7.52 62.925,6.957 63.719,6.604C64.637,6.221 65.622,6.024 66.617,6.026C67.612,6.028 68.597,6.229 69.513,6.616C70.313,6.975 70.999,7.546 71.496,8.268C71.989,9.019 72.255,9.896 72.263,10.794L69.029,10.794C69.013,10.211 68.772,9.657 68.357,9.248C68.119,9.017 67.835,8.837 67.525,8.722C67.214,8.606 66.882,8.556 66.551,8.575C65.957,8.54 65.369,8.711 64.887,9.059C64.663,9.231 64.485,9.456 64.368,9.713C64.251,9.97 64.198,10.252 64.215,10.534C64.203,10.777 64.243,11.019 64.332,11.245C64.422,11.471 64.559,11.675 64.734,11.844C65.147,12.206 65.629,12.483 66.15,12.658C66.748,12.879 67.432,13.115 68.203,13.366C68.978,13.63 69.728,13.962 70.445,14.358C71.102,14.717 71.661,15.232 72.074,15.856C72.51,16.577 72.723,17.41 72.687,18.252C72.692,19.1 72.464,19.932 72.027,20.659C71.556,21.427 70.876,22.045 70.068,22.441C69.075,22.917 67.982,23.148 66.882,23.113Z" style="fill-rule:nonzero;"/>
    <path d="M80.877,23.113C79.807,23.129 78.752,22.86 77.82,22.334C76.922,21.822 76.18,21.076 75.673,20.175C75.131,19.197 74.858,18.094 74.882,16.977C74.858,15.858 75.135,14.754 75.684,13.779C76.199,12.879 76.944,12.133 77.844,11.619C78.777,11.108 79.824,10.841 80.889,10.841C81.953,10.841 83,11.108 83.933,11.619C84.831,12.132 85.573,12.878 86.081,13.779C86.622,14.756 86.895,15.86 86.871,16.977C86.895,18.094 86.622,19.197 86.081,20.175C85.571,21.078 84.824,21.824 83.921,22.334C82.993,22.858 81.943,23.126 80.877,23.113ZM80.877,20.493C81.262,20.495 81.642,20.418 81.996,20.265C82.349,20.113 82.667,19.889 82.93,19.608C83.512,19.018 83.803,18.141 83.803,16.977C83.803,15.813 83.512,14.935 82.93,14.345C82.667,14.066 82.35,13.843 81.998,13.691C81.646,13.539 81.266,13.46 80.882,13.46C80.499,13.46 80.119,13.539 79.767,13.691C79.415,13.843 79.098,14.066 78.835,14.345C78.261,14.935 77.973,15.813 77.974,16.977C77.974,18.141 78.261,19.019 78.835,19.608C79.095,19.89 79.411,20.114 79.763,20.266C80.114,20.419 80.494,20.496 80.877,20.493Z" style="fill-rule:nonzero;"/>
    <path d="M90.105,22.83L90.105,13.649L88.5,13.649L88.5,11.124L90.105,11.124L90.105,9.755C90.105,8.339 90.463,7.332 91.178,6.734C91.894,6.136 92.866,5.837 94.093,5.837L95.391,5.837L95.391,8.409L94.565,8.409C94.046,8.409 93.676,8.512 93.456,8.716C93.236,8.921 93.126,9.267 93.126,9.755L93.126,11.124L95.651,11.124L95.651,13.649L93.126,13.649L93.126,22.83L90.105,22.83Z" style="fill-rule:nonzero;"/>
    <path d="M103.25,22.83C102.023,22.83 101.04,22.531 100.3,21.933C99.561,21.335 99.191,20.273 99.191,18.747L99.191,13.649L97.185,13.649L97.185,11.124L99.191,11.124L99.545,7.985L102.212,7.985L102.212,11.124L105.375,11.124L105.375,13.649L102.212,13.649L102.212,18.77C102.212,19.337 102.334,19.726 102.578,19.939C102.822,20.151 103.243,20.257 103.84,20.257L105.304,20.257L105.304,22.83L103.25,22.83Z" style="fill-rule:nonzero;"/>
    <path d="M110.26,22.83L106.838,11.124L109.835,11.124L111.865,19.549L114.225,11.124L117.576,11.124L119.936,19.549L121.99,11.124L124.987,11.124L121.541,22.83L118.402,22.83L115.9,14.074L113.399,22.83L110.26,22.83Z" style="fill-rule:nonzero;"/>
    <path d="M130.344,23.113C129.492,23.145 128.644,22.979 127.866,22.629C127.27,22.352 126.769,21.904 126.426,21.343C126.111,20.807 125.948,20.195 125.954,19.573C125.942,19.063 126.051,18.557 126.273,18.098C126.495,17.638 126.822,17.238 127.229,16.93C128.078,16.253 129.353,15.915 131.052,15.915L134.026,15.915L134.026,15.632C134.026,14.829 133.798,14.239 133.342,13.862C132.861,13.476 132.258,13.275 131.642,13.295C131.076,13.282 130.519,13.434 130.037,13.732C129.813,13.874 129.621,14.062 129.475,14.284C129.328,14.505 129.23,14.756 129.188,15.018L126.238,15.018C126.3,14.21 126.6,13.438 127.099,12.799C127.607,12.161 128.269,11.661 129.022,11.348C129.86,11 130.759,10.827 131.666,10.841C133.333,10.841 134.647,11.258 135.607,12.091C136.567,12.926 137.047,14.106 137.047,15.632L137.047,22.83L134.475,22.83L134.191,20.942C133.844,21.573 133.345,22.108 132.74,22.499C132.019,22.935 131.186,23.149 130.344,23.113ZM131.029,20.753C131.407,20.774 131.786,20.708 132.136,20.561C132.485,20.414 132.797,20.189 133.047,19.903C133.541,19.303 133.856,18.575 133.955,17.803L131.383,17.803C130.58,17.803 130.006,17.948 129.66,18.24C129.497,18.367 129.365,18.53 129.275,18.716C129.185,18.902 129.139,19.107 129.14,19.313C129.131,19.52 129.174,19.725 129.265,19.911C129.356,20.096 129.491,20.256 129.66,20.375C130.064,20.644 130.544,20.777 131.029,20.753Z" style="fill-rule:nonzero;"/>
    <path d="M139.926,22.83L139.926,11.124L142.617,11.124L142.9,13.318C143.312,12.576 143.91,11.954 144.635,11.513C145.416,11.051 146.312,10.818 147.219,10.841L147.219,14.026L146.37,14.026C145.765,14.017 145.165,14.121 144.599,14.333C144.083,14.535 143.653,14.911 143.384,15.395C143.093,15.899 142.947,16.599 142.947,17.496L142.947,22.83L139.926,22.83Z" style="fill-rule:nonzero;"/>
    <path d="M154.748,23.113C153.655,23.134 152.574,22.874 151.609,22.358C150.708,21.866 149.964,21.13 149.462,20.234C148.929,19.266 148.66,18.176 148.683,17.071C148.662,15.946 148.926,14.834 149.45,13.838C149.938,12.918 150.674,12.153 151.574,11.631C152.55,11.086 153.654,10.813 154.772,10.841C155.836,10.819 156.886,11.08 157.816,11.596C158.681,12.083 159.395,12.797 159.882,13.661C160.381,14.55 160.638,15.556 160.625,16.576C160.625,16.749 160.621,16.93 160.613,17.119C160.605,17.307 160.593,17.504 160.578,17.708L151.68,17.708C151.689,18.112 151.778,18.51 151.942,18.878C152.107,19.247 152.342,19.579 152.636,19.856C153.207,20.374 153.954,20.653 154.725,20.635C155.27,20.654 155.808,20.51 156.271,20.222C156.677,19.959 157,19.587 157.203,19.148L160.271,19.148C160.049,19.89 159.676,20.577 159.173,21.166C158.657,21.776 158.012,22.263 157.285,22.594C156.488,22.951 155.622,23.128 154.748,23.113ZM154.772,13.295C154.068,13.284 153.38,13.503 152.813,13.92C152.217,14.387 151.827,15.069 151.727,15.82L157.557,15.82C157.549,15.472 157.469,15.128 157.323,14.812C157.177,14.495 156.967,14.212 156.707,13.979C156.171,13.517 155.48,13.273 154.772,13.295Z" style="fill-rule:nonzero;"/>
    <path d="M174.502,23.113C173.4,23.135 172.306,22.922 171.292,22.488C170.407,22.107 169.647,21.485 169.097,20.694C168.543,19.851 168.255,18.86 168.271,17.85L171.458,17.85C171.472,18.584 171.773,19.282 172.295,19.797C172.822,20.325 173.55,20.588 174.479,20.588C175.164,20.625 175.84,20.42 176.39,20.01C176.621,19.825 176.805,19.589 176.928,19.321C177.05,19.052 177.109,18.759 177.098,18.464C177.115,18.171 177.067,17.877 176.959,17.604C176.851,17.331 176.685,17.085 176.473,16.882C175.986,16.466 175.42,16.153 174.809,15.962C174.116,15.726 173.377,15.474 172.591,15.207C171.316,14.767 170.344,14.2 169.676,13.507C169.007,12.815 168.672,11.895 168.673,10.746C168.633,9.856 168.877,8.976 169.369,8.233C169.864,7.52 170.546,6.956 171.34,6.604C172.258,6.221 173.243,6.024 174.238,6.026C175.233,6.028 176.217,6.229 177.134,6.616C177.934,6.975 178.619,7.546 179.116,8.268C179.609,9.019 179.875,9.895 179.883,10.794L176.65,10.794C176.634,10.211 176.393,9.657 175.977,9.248C175.739,9.016 175.456,8.837 175.145,8.721C174.834,8.606 174.503,8.556 174.172,8.575C173.578,8.539 172.99,8.71 172.508,9.059C172.284,9.231 172.106,9.456 171.989,9.713C171.871,9.97 171.819,10.252 171.835,10.534C171.823,10.777 171.863,11.019 171.953,11.245C172.042,11.471 172.179,11.675 172.354,11.844C172.768,12.206 173.249,12.483 173.77,12.658C174.368,12.878 175.053,13.114 175.824,13.366C176.599,13.63 177.349,13.962 178.066,14.357C178.723,14.717 179.282,15.231 179.695,15.856C180.13,16.577 180.344,17.41 180.308,18.251C180.313,19.099 180.084,19.932 179.647,20.659C179.176,21.426 178.497,22.044 177.688,22.441C176.696,22.917 175.603,23.148 174.502,23.113Z" style="fill-rule:nonzero;"/>
    <path d="M184.344,28.022L187.058,22.051L186.35,22.051L181.795,11.124L185.075,11.124L188.356,19.36L191.778,11.124L194.988,11.124L187.553,28.022L184.344,28.022Z" style="fill-rule:nonzero;"/>
    <path d="M201.475,23.273C200.538,23.292 199.606,23.119 198.738,22.765C198,22.464 197.35,21.981 196.85,21.361C196.377,20.762 196.082,20.042 196,19.284L199.045,19.284C199.148,19.755 199.421,20.171 199.811,20.452C200.28,20.791 200.85,20.962 201.428,20.936C202.089,20.936 202.573,20.802 202.88,20.535C203.02,20.425 203.134,20.286 203.214,20.127C203.293,19.968 203.336,19.793 203.34,19.615C203.356,19.395 203.3,19.176 203.181,18.991C203.062,18.805 202.886,18.664 202.679,18.588C202.081,18.361 201.465,18.183 200.838,18.057C200.334,17.947 199.823,17.813 199.304,17.656C198.807,17.508 198.329,17.306 197.876,17.054C197.458,16.824 197.099,16.501 196.826,16.11C196.547,15.687 196.407,15.188 196.424,14.682C196.419,14.18 196.528,13.683 196.743,13.23C196.958,12.776 197.272,12.377 197.664,12.062C198.49,11.354 199.65,11 201.145,11C202.529,11 203.635,11.323 204.461,11.968C204.872,12.291 205.215,12.694 205.468,13.152C205.721,13.61 205.88,14.114 205.936,14.634L203.08,14.634C202.907,13.769 202.254,13.337 201.121,13.336C200.661,13.308 200.203,13.424 199.812,13.667C199.672,13.755 199.556,13.877 199.476,14.021C199.395,14.165 199.353,14.328 199.351,14.493C199.351,14.839 199.579,15.115 200.036,15.319C200.622,15.565 201.231,15.755 201.853,15.885C202.671,16.074 203.422,16.283 204.107,16.511C204.732,16.702 205.297,17.052 205.747,17.526C206.156,17.974 206.361,18.615 206.361,19.449C206.384,20.146 206.186,20.832 205.794,21.408C205.369,22.016 204.78,22.491 204.095,22.777C203.267,23.125 202.374,23.294 201.475,23.273Z" style="fill-rule:nonzero;"/>
    <path d="M213.633,22.83C212.406,22.83 211.422,22.531 210.683,21.933C209.943,21.335 209.573,20.273 209.573,18.747L209.573,13.649L207.567,13.649L207.567,11.124L209.573,11.124L209.928,7.985L212.594,7.985L212.594,11.124L215.757,11.124L215.757,13.649L212.594,13.649L212.594,18.77C212.594,19.337 212.716,19.726 212.96,19.939C213.204,20.151 213.625,20.257 214.223,20.257L215.686,20.257L215.686,22.83L213.633,22.83Z" style="fill-rule:nonzero;"/>
    <path d="M223.734,23.113C222.641,23.134 221.56,22.874 220.595,22.358C219.694,21.866 218.95,21.13 218.448,20.234C217.914,19.266 217.646,18.176 217.669,17.071C217.648,15.946 217.912,14.834 218.436,13.838C218.923,12.918 219.659,12.153 220.56,11.631C221.536,11.086 222.64,10.813 223.758,10.841C224.822,10.819 225.872,11.08 226.802,11.596C227.667,12.083 228.381,12.797 228.868,13.661C229.367,14.55 229.624,15.556 229.611,16.576C229.611,16.749 229.607,16.93 229.599,17.119C229.591,17.307 229.579,17.504 229.564,17.709L220.666,17.709C220.675,18.112 220.764,18.51 220.928,18.878C221.093,19.247 221.328,19.58 221.622,19.856C222.193,20.374 222.94,20.653 223.711,20.635C224.256,20.654 224.794,20.51 225.257,20.222C225.663,19.959 225.986,19.587 226.189,19.148L229.257,19.148C229.035,19.89 228.662,20.577 228.159,21.166C227.643,21.776 226.998,22.263 226.271,22.594C225.474,22.951 224.608,23.128 223.734,23.113ZM223.758,13.295C223.054,13.284 222.366,13.503 221.799,13.92C221.203,14.387 220.813,15.069 220.713,15.82L226.543,15.82C226.535,15.472 226.455,15.128 226.309,14.812C226.163,14.495 225.953,14.212 225.693,13.979C225.157,13.517 224.466,13.273 223.758,13.295Z" style="fill-rule:nonzero;"/>
    <path d="M232.16,22.83L232.16,11.124L234.827,11.124L235.086,12.705C235.467,12.136 235.981,11.67 236.585,11.348C237.25,10.999 237.993,10.825 238.745,10.841C240.554,10.841 241.836,11.541 242.592,12.941C243.021,12.291 243.61,11.763 244.303,11.407C245.027,11.027 245.833,10.833 246.651,10.841C248.177,10.841 249.349,11.297 250.168,12.209C250.986,13.122 251.395,14.46 251.395,16.222L251.395,22.83L248.374,22.83L248.374,16.505C248.374,15.498 248.181,14.727 247.796,14.192C247.41,13.657 246.816,13.39 246.014,13.389C245.638,13.376 245.265,13.451 244.923,13.606C244.581,13.762 244.28,13.995 244.043,14.286C243.548,14.884 243.3,15.718 243.3,16.788L243.3,22.83L240.279,22.83L240.279,16.505C240.279,15.498 240.082,14.727 239.689,14.192C239.295,13.657 238.689,13.39 237.871,13.389C237.5,13.378 237.13,13.453 236.793,13.609C236.455,13.765 236.158,13.996 235.924,14.286C235.429,14.884 235.181,15.718 235.181,16.788L235.181,22.83L232.16,22.83Z" style="fill-rule:nonzero;"/>
    <path d="M259.113,23.113C258.175,23.132 257.244,22.96 256.375,22.606C255.637,22.304 254.988,21.821 254.487,21.201C254.014,20.603 253.72,19.883 253.637,19.125L256.682,19.125C256.785,19.595 257.058,20.011 257.449,20.293C257.918,20.632 258.487,20.802 259.065,20.777C259.726,20.777 260.21,20.643 260.517,20.375C260.657,20.266 260.771,20.126 260.851,19.967C260.931,19.808 260.974,19.633 260.977,19.455C260.993,19.235 260.938,19.016 260.818,18.831C260.699,18.646 260.523,18.504 260.316,18.428C259.718,18.201 259.102,18.023 258.475,17.897C257.972,17.787 257.46,17.654 256.941,17.496C256.445,17.348 255.966,17.147 255.513,16.894C255.096,16.664 254.736,16.341 254.463,15.95C254.185,15.527 254.044,15.028 254.062,14.522C254.057,14.02 254.166,13.524 254.38,13.07C254.595,12.616 254.91,12.217 255.301,11.903C256.127,11.194 257.287,10.84 258.782,10.841C260.167,10.841 261.272,11.163 262.098,11.808C262.509,12.132 262.852,12.534 263.105,12.992C263.359,13.45 263.518,13.955 263.573,14.475L260.718,14.475C260.544,13.61 259.891,13.177 258.759,13.177C258.298,13.149 257.841,13.264 257.449,13.507C257.309,13.595 257.194,13.717 257.113,13.862C257.033,14.006 256.99,14.168 256.988,14.333C256.988,14.68 257.217,14.955 257.673,15.159C258.259,15.405 258.868,15.595 259.49,15.726C260.308,15.915 261.06,16.123 261.744,16.351C262.369,16.542 262.934,16.892 263.384,17.366C263.793,17.815 263.998,18.456 263.998,19.29C264.022,19.986 263.823,20.672 263.432,21.249C263.006,21.857 262.417,22.331 261.732,22.618C260.904,22.965 260.011,23.134 259.113,23.113Z" style="fill-rule:nonzero;"/>
    <path d="M64.262,46.123C63.542,46.14 62.828,45.99 62.175,45.687C61.611,45.421 61.135,45 60.804,44.472C60.475,43.927 60.308,43.301 60.321,42.665L61.692,42.665C61.688,43.076 61.79,43.481 61.988,43.841C62.189,44.203 62.488,44.5 62.852,44.698C63.287,44.924 63.772,45.034 64.262,45.017C64.878,45.056 65.488,44.868 65.975,44.487C66.169,44.326 66.324,44.124 66.429,43.895C66.534,43.665 66.587,43.416 66.582,43.164C66.6,42.792 66.502,42.425 66.302,42.112C66.106,41.839 65.847,41.618 65.547,41.466C65.198,41.287 64.832,41.141 64.456,41.03C64.046,40.905 63.618,40.765 63.171,40.609C62.471,40.402 61.83,40.031 61.302,39.527C60.886,39.065 60.668,38.458 60.695,37.837C60.675,37.292 60.816,36.753 61.1,36.287C61.389,35.828 61.802,35.461 62.292,35.228C62.864,34.961 63.49,34.83 64.122,34.846C64.749,34.831 65.37,34.965 65.936,35.236C66.428,35.476 66.843,35.848 67.135,36.31C67.424,36.779 67.578,37.318 67.579,37.868L66.209,37.868C66.206,37.555 66.125,37.247 65.975,36.972C65.812,36.669 65.566,36.418 65.266,36.248C64.901,36.049 64.49,35.953 64.075,35.968C63.55,35.936 63.033,36.097 62.618,36.42C62.43,36.576 62.281,36.775 62.182,36.999C62.083,37.223 62.038,37.467 62.05,37.712C62.037,37.909 62.066,38.107 62.134,38.292C62.202,38.477 62.309,38.646 62.447,38.787C62.77,39.069 63.15,39.279 63.561,39.402C64.038,39.563 64.588,39.748 65.212,39.955C65.699,40.127 66.169,40.346 66.613,40.609C67.014,40.844 67.349,41.176 67.587,41.575C67.837,42.038 67.958,42.56 67.937,43.086C67.938,43.604 67.798,44.112 67.532,44.557C67.239,45.041 66.815,45.433 66.31,45.687C65.673,45.998 64.97,46.147 64.262,46.123Z" style="fill-rule:nonzero;"/>
    <path d="M72.766,45.937C72.166,45.971 71.575,45.789 71.099,45.423C70.694,45.08 70.492,44.462 70.492,43.569L70.492,39.317L69.152,39.317L69.152,38.211L70.492,38.211L70.663,36.358L71.8,36.358L71.8,38.211L74.074,38.211L74.074,39.317L71.8,39.317L71.8,43.569C71.8,44.057 71.899,44.387 72.096,44.558C72.293,44.73 72.641,44.815 73.139,44.815L73.949,44.815L73.949,45.937L72.766,45.937Z" style="fill-rule:nonzero;"/>
    <path d="M78.559,46.123C78.158,46.143 77.757,46.079 77.381,45.936C77.006,45.792 76.664,45.573 76.379,45.29C75.838,44.735 75.569,43.881 75.569,42.728L75.569,38.211L76.877,38.211L76.877,42.588C76.877,44.198 77.536,45.002 78.855,45.002C79.17,45.01 79.483,44.949 79.772,44.824C80.061,44.699 80.32,44.513 80.529,44.278C80.97,43.795 81.191,43.107 81.191,42.214L81.191,38.211L82.5,38.211L82.5,45.937L81.316,45.937L81.222,44.55C80.989,45.032 80.618,45.433 80.155,45.703C79.672,45.986 79.12,46.132 78.559,46.123Z" style="fill-rule:nonzero;"/>
    <path d="M88.153,46.123C87.445,46.139 86.746,45.956 86.136,45.594C85.564,45.245 85.1,44.743 84.797,44.145C84.472,43.498 84.309,42.782 84.322,42.058C84.309,41.336 84.474,40.622 84.805,39.979C85.111,39.388 85.575,38.892 86.144,38.546C86.757,38.187 87.459,38.007 88.169,38.024C88.753,38.013 89.331,38.147 89.851,38.414C90.326,38.661 90.721,39.039 90.988,39.504L90.988,34.723L92.296,34.723L92.296,45.937L91.112,45.937L90.988,44.659C90.703,45.067 90.337,45.412 89.913,45.672C89.383,45.99 88.771,46.147 88.153,46.123ZM88.293,44.986C88.778,44.996 89.256,44.869 89.672,44.62C90.073,44.375 90.397,44.021 90.606,43.6C90.827,43.122 90.941,42.601 90.941,42.074C90.941,41.547 90.827,41.026 90.606,40.548C90.397,40.127 90.073,39.773 89.672,39.527C89.256,39.279 88.778,39.152 88.293,39.161C87.814,39.154 87.342,39.28 86.931,39.527C86.529,39.773 86.206,40.126 85.996,40.548C85.775,41.026 85.661,41.547 85.661,42.074C85.661,42.601 85.775,43.122 85.996,43.6C86.205,44.021 86.529,44.375 86.931,44.62C87.342,44.868 87.814,44.994 88.293,44.986Z" style="fill-rule:nonzero;"/>
    <path d="M97.903,46.123C97.215,46.136 96.537,45.961 95.941,45.617C95.37,45.281 94.904,44.793 94.593,44.208C94.253,43.549 94.084,42.815 94.103,42.074C94.086,41.336 94.252,40.606 94.586,39.948C94.891,39.357 95.359,38.866 95.933,38.531C96.542,38.185 97.234,38.01 97.934,38.024C98.615,38.007 99.288,38.182 99.873,38.531C100.404,38.853 100.837,39.313 101.127,39.862C101.417,40.409 101.567,41.019 101.563,41.638C101.563,41.752 101.561,41.866 101.555,41.98C101.55,42.095 101.548,42.225 101.548,42.37L95.396,42.37C95.405,42.888 95.547,43.394 95.808,43.842C96.025,44.203 96.333,44.501 96.7,44.707C97.067,44.913 97.482,45.02 97.903,45.018C98.382,45.035 98.855,44.904 99.258,44.644C99.621,44.396 99.898,44.042 100.052,43.631L101.345,43.631C101.141,44.377 100.688,45.03 100.063,45.483C99.437,45.936 98.675,46.162 97.903,46.123L97.903,46.123ZM97.903,39.13C97.301,39.123 96.715,39.324 96.244,39.699C95.997,39.902 95.796,40.154 95.652,40.44C95.509,40.726 95.427,41.038 95.411,41.358L100.27,41.358C100.271,41.05 100.208,40.746 100.085,40.464C99.961,40.183 99.781,39.93 99.554,39.722C99.098,39.324 98.508,39.112 97.903,39.13Z" style="fill-rule:nonzero;"/>
    <path d="M103.292,45.937L103.292,38.211L104.475,38.211L104.553,39.597C104.794,39.119 105.167,38.719 105.628,38.445C106.109,38.161 106.658,38.015 107.217,38.024C107.619,38.005 108.021,38.069 108.398,38.213C108.774,38.356 109.117,38.576 109.405,38.858C109.95,39.413 110.223,40.267 110.223,41.42L110.223,45.937L108.914,45.937L108.914,41.56C108.914,39.951 108.25,39.146 106.921,39.146C106.608,39.139 106.298,39.2 106.012,39.325C105.725,39.45 105.469,39.636 105.262,39.87C104.821,40.353 104.6,41.041 104.6,41.934L104.6,45.937L103.292,45.937Z" style="fill-rule:nonzero;"/>
    <path d="M115.253,45.937C114.654,45.971 114.062,45.789 113.587,45.423C113.182,45.08 112.979,44.462 112.979,43.569L112.979,39.317L111.64,39.317L111.64,38.211L112.979,38.211L113.151,36.358L114.287,36.358L114.287,38.211L116.561,38.211L116.561,39.317L114.287,39.317L114.287,43.569C114.287,44.057 114.386,44.387 114.583,44.558C114.78,44.73 115.128,44.815 115.627,44.815L116.437,44.815L116.437,45.937L115.253,45.937Z" style="fill-rule:nonzero;"/>
    <path d="M125.906,46.123C125.186,46.14 124.472,45.991 123.819,45.687C123.256,45.422 122.78,45 122.449,44.472C122.12,43.928 121.953,43.302 121.966,42.666L123.336,42.666C123.333,43.077 123.434,43.482 123.632,43.842C123.833,44.204 124.133,44.501 124.497,44.698C124.931,44.924 125.417,45.034 125.906,45.018C126.523,45.057 127.132,44.868 127.619,44.488C127.813,44.327 127.969,44.124 128.074,43.895C128.179,43.666 128.231,43.416 128.227,43.164C128.245,42.793 128.147,42.426 127.947,42.113C127.75,41.84 127.491,41.618 127.191,41.467C126.842,41.288 126.477,41.142 126.101,41.03C125.691,40.906 125.262,40.766 124.816,40.61C124.116,40.403 123.475,40.032 122.947,39.527C122.53,39.066 122.312,38.459 122.339,37.838C122.32,37.292 122.46,36.753 122.745,36.288C123.033,35.829 123.446,35.462 123.936,35.229C124.508,34.962 125.135,34.831 125.766,34.847C126.393,34.832 127.015,34.966 127.581,35.237C128.072,35.476 128.488,35.849 128.78,36.311C129.069,36.78 129.222,37.319 129.224,37.869L127.853,37.869C127.85,37.556 127.77,37.248 127.62,36.973C127.456,36.67 127.211,36.419 126.911,36.249C126.546,36.05 126.134,35.953 125.719,35.969C125.195,35.937 124.677,36.097 124.263,36.42C124.075,36.577 123.925,36.775 123.827,37C123.728,37.224 123.683,37.468 123.695,37.713C123.682,37.91 123.71,38.108 123.779,38.293C123.847,38.478 123.954,38.647 124.092,38.788C124.415,39.07 124.795,39.28 125.205,39.403C125.683,39.564 126.233,39.748 126.856,39.956C127.344,40.128 127.813,40.347 128.258,40.61C128.659,40.845 128.994,41.177 129.231,41.576C129.482,42.039 129.603,42.56 129.582,43.086C129.582,43.605 129.442,44.113 129.177,44.558C128.884,45.042 128.46,45.434 127.954,45.687C127.318,45.998 126.614,46.148 125.906,46.123Z" style="fill-rule:nonzero;"/>
    <path d="M134.877,46.123C134.191,46.134 133.513,45.962 132.915,45.625C132.333,45.293 131.856,44.805 131.536,44.215C131.187,43.557 131.012,42.819 131.03,42.074C131.012,41.327 131.189,40.589 131.544,39.932C131.869,39.343 132.352,38.855 132.938,38.523C133.54,38.187 134.219,38.015 134.909,38.024C135.595,38.014 136.272,38.186 136.871,38.523C137.453,38.855 137.93,39.344 138.249,39.932C138.599,40.591 138.774,41.328 138.756,42.074C138.774,42.82 138.596,43.559 138.241,44.215C137.916,44.805 137.434,45.293 136.848,45.625C136.246,45.961 135.566,46.133 134.877,46.123ZM134.877,45.002C135.314,45.005 135.744,44.892 136.123,44.675C136.521,44.443 136.845,44.102 137.058,43.694C137.312,43.193 137.435,42.635 137.416,42.074C137.435,41.513 137.314,40.957 137.066,40.454C136.857,40.045 136.536,39.704 136.139,39.473C135.765,39.257 135.34,39.145 134.909,39.146C134.472,39.143 134.042,39.256 133.663,39.473C133.265,39.705 132.941,40.045 132.728,40.454C132.492,40.962 132.37,41.514 132.37,42.074C132.37,42.633 132.492,43.186 132.728,43.694C132.939,44.101 133.26,44.441 133.655,44.675C134.026,44.891 134.448,45.004 134.877,45.002Z" style="fill-rule:nonzero;"/>
    <path d="M144.129,46.123C143.434,46.134 142.748,45.959 142.143,45.617C141.558,45.282 141.079,44.792 140.757,44.2C140.424,43.541 140.251,42.812 140.251,42.074C140.251,41.335 140.424,40.607 140.757,39.948C141.079,39.356 141.559,38.866 142.143,38.531C142.748,38.188 143.434,38.014 144.129,38.024C144.958,37.998 145.772,38.25 146.442,38.741C147.064,39.209 147.489,39.892 147.633,40.657L146.294,40.657C146.248,40.429 146.157,40.213 146.026,40.022C145.895,39.83 145.726,39.667 145.531,39.543C145.108,39.273 144.615,39.135 144.113,39.146C143.667,39.143 143.228,39.264 142.846,39.495C142.464,39.725 142.153,40.058 141.948,40.454C141.712,40.962 141.59,41.514 141.59,42.074C141.59,42.633 141.712,43.186 141.948,43.694C142.162,44.104 142.486,44.446 142.883,44.683C143.255,44.903 143.68,45.019 144.113,45.018C144.615,45.028 145.108,44.89 145.531,44.62C145.728,44.494 145.897,44.329 146.029,44.135C146.16,43.94 146.25,43.721 146.294,43.491L147.633,43.491C147.49,44.25 147.067,44.928 146.449,45.391C145.781,45.891 144.963,46.149 144.129,46.123Z" style="fill-rule:nonzero;"/>
    <path d="M150.25,36.498C150.13,36.502 150.011,36.481 149.9,36.436C149.789,36.392 149.688,36.326 149.603,36.241C149.519,36.157 149.452,36.056 149.408,35.945C149.364,35.833 149.343,35.714 149.346,35.595C149.343,35.479 149.365,35.363 149.409,35.256C149.453,35.149 149.519,35.052 149.603,34.972C149.779,34.811 150.008,34.722 150.246,34.722C150.484,34.722 150.713,34.811 150.888,34.972C150.974,35.051 151.042,35.147 151.088,35.255C151.134,35.362 151.156,35.478 151.153,35.595C151.156,35.715 151.135,35.835 151.089,35.946C151.043,36.057 150.975,36.158 150.888,36.241C150.804,36.325 150.705,36.39 150.595,36.434C150.485,36.478 150.368,36.5 150.25,36.498ZM149.596,45.937L149.596,38.211L150.904,38.211L150.904,45.937L149.596,45.937Z" style="fill-rule:nonzero;"/>
    <path d="M156.651,46.123C155.963,46.136 155.285,45.961 154.689,45.617C154.118,45.281 153.652,44.793 153.341,44.208C153.001,43.549 152.832,42.815 152.851,42.074C152.834,41.336 153,40.606 153.334,39.948C153.639,39.358 154.107,38.866 154.681,38.531C155.29,38.185 155.982,38.01 156.682,38.025C157.363,38.007 158.036,38.182 158.621,38.531C159.152,38.853 159.585,39.313 159.875,39.862C160.165,40.409 160.315,41.019 160.311,41.638C160.311,41.752 160.309,41.867 160.303,41.981C160.298,42.095 160.296,42.225 160.296,42.37L154.143,42.37C154.153,42.888 154.295,43.395 154.556,43.842C154.773,44.203 155.081,44.501 155.448,44.707C155.815,44.913 156.23,45.02 156.651,45.018C157.13,45.035 157.603,44.904 158.006,44.644C158.368,44.396 158.646,44.042 158.8,43.632L160.093,43.632C159.889,44.377 159.436,45.03 158.81,45.483C158.185,45.936 157.423,46.162 156.651,46.124L156.651,46.123ZM156.651,39.13C156.049,39.123 155.463,39.324 154.992,39.699C154.745,39.902 154.543,40.154 154.4,40.44C154.256,40.726 154.174,41.038 154.159,41.358L159.018,41.358C159.019,41.05 158.956,40.746 158.833,40.464C158.709,40.183 158.528,39.93 158.302,39.722C157.846,39.324 157.256,39.113 156.651,39.13Z" style="fill-rule:nonzero;"/>
    <path d="M164.828,45.937C164.228,45.971 163.637,45.789 163.161,45.423C162.756,45.08 162.554,44.462 162.554,43.569L162.554,39.317L161.214,39.317L161.214,38.211L162.554,38.211L162.725,36.358L163.862,36.358L163.862,38.211L166.136,38.211L166.136,39.317L163.862,39.317L163.862,43.569C163.862,44.057 163.961,44.387 164.158,44.558C164.355,44.73 164.703,44.815 165.201,44.815L166.011,44.815L166.011,45.937L164.828,45.937Z" style="fill-rule:nonzero;"/>
    <path d="M168.643,49.363L170.559,45.189L170.107,45.189L167.039,38.211L168.456,38.211L171.011,44.223L173.721,38.211L175.076,38.211L170.014,49.363L168.643,49.363Z" style="fill-rule:nonzero;"/>
</svg>
