<svg clip-rule="evenodd" fill-rule="evenodd" stroke-linejoin="round" stroke-miterlimit="2" viewBox="0 0 492 248" xmlns="http://www.w3.org/2000/svg" style="fill:currentColor"><path d="m174.082 123.511h-20.564l-1.461-9.453h-13.358l-1.658 9.453h-20.47l17.644-73.497h24.271zm-25.717-26.241-1.974-15.724c-.181-1.409-.344-2.834-.496-4.259-.198 1.441-.413 2.883-.655 4.31l-2.508 15.673z"/><path d="m174.082 123.511v-73.497h18.906l15.89 44.257.198-.199c-.778-8.476-2.246-16.866-2.246-25.342v-18.716h19.112v73.497h-19.112l-14.81-42.4-.199.191c.485 6.921 1.366 13.747 1.366 20.668v21.541z"/><path d="m39.319 123.511v-17.938h14.375c1.918 0 3.517-1.352 3.905-3.153.004-.019.011-.036.014-.055.047-.234.069-.477.073-.725.001-.028.007-.054.007-.082 0-1.696-.577-2.923-1.535-3.958-.857-1.036-2.011-1.88-3.25-2.731-3.833-2.923-7.176-5.653-9.67-9.044-2.392-3.298-3.919-7.248-3.919-12.434 0-8.292 5.353-23.364 22.005-23.364h2.493c.002-.013 13.395-.013 13.395-.013v17.938h-14.606c-2.09 0-3.782 1.63-3.918 3.685-.006.06-.016.119-.019.18 0 .027-.008.052-.008.079 0 .038.011.074.012.112.001.281.025.563.089.838.057.249.139.493.239.729.36.848.935 1.593 1.559 2.263 1.052 1.135 2.486 2.079 3.546 2.923 4.114 2.823 7.363 5.461 9.569 8.667 2.291 3.207 3.537 6.973 3.537 12.342 0 11.358-6.958 20.827-17.572 23.228-1.69.382-3.427.513-5.159.513z"/><path d="m463.201 40.786c.035.565-.171 1.122-.573 1.524l-10.83 10.827v43.296c.01.533-.193 1.059-.578 1.444l-25.069 25.065c-.372.371-.875.579-1.4.579h-19.881c-1.094 0-1.979-.886-1.979-1.979v-22.265l-17.795 17.796c-.011.011-.023.023-.035.034-4.587 5.092-11.431 7.673-20.344 7.673-14.543 0-23.501-6.83-26.123-19.819l-12.112 12.112c-.028.027-.055.052-.083.077-5.05 5.063-11.409 7.63-18.902 7.63-15.194 0-24.238-10.763-27.999-24.335-5.064 20.858-21.765 23.066-31.927 23.066h-17.35v-73.497h15.985c15.92 0 26.657 7.066 31.625 18.997.043.1.091.195.132.296.001.003.003.006.004.01.272-.989.567-1.96.889-2.906v-.005c2.013-5.902 5.004-10.931 8.801-14.532.048-.062.101-.122.157-.179l24.264-24.26c.024-.024.048-.047.073-.069 5.051-5.072 11.411-7.644 18.906-7.644h1.51c8.971 0 16.445 3.779 21.753 10.964l9.109-9.113c.371-.371.875-.58 1.4-.58h19.886c1.093 0 1.979.886 1.979 1.979v5.361l6.758-6.76c.373-.373.876-.58 1.4-.58h66.37c1.093 0 1.979.886 1.979 1.979zm-213.098 27.555v37.43c9.064-.095 10.627-11.405 10.627-18.326 0-7.993-1.563-19.104-10.627-19.104zm81.709-45.885c-20.176 0-28.072 20.086-28.072 38.019 0 17.937 7.896 38.016 28.072 38.016 20.179 0 28.075-20.079 28.075-38.016 0-17.933-7.896-38.019-28.075-38.019zm62.288 1.271v46.303c0 1.853.095 4.385-.489 6.436-.486 1.946-1.75 3.506-4.583 3.506-2.728 0-3.994-1.56-4.583-3.606-.59-1.951-.485-4.483-.485-6.434v-46.205h-19.885v48.056c0 8.868 1.955 26.708 24.953 26.708 23.009 0 24.958-17.84 24.958-26.708v-48.056zm24.163 0v17.937h10.917v55.568h19.883v-55.568h11.404v-17.937z"/><path d="m331.812 40.98c7.507 0 7.798 14.921 7.798 19.495 0 4.583-.291 19.497-7.798 19.497-2.345 0-3.986-1.457-5.133-3.599-.115-.214-.225-.436-.33-.663-.447-.966-.806-2.043-1.098-3.17-.106-.405-.202-.816-.29-1.232-.877-4.137-.944-8.653-.944-10.833 0-4.574.291-19.495 7.795-19.495z"/><path d="m81.491 50.014h42.208v17.938h-11.405v55.559h-19.882v-55.559h-10.921z"/><g opacity=".8"><path d="m332.675 198.96-3.148 20.006h-42.823l13.427-85.096h42.831l-3.165 20.114h-19.774l-1.812 11.87h17.749l-3.285 20.114h-17.74l-2.033 12.992z"/><path d="m123.182 218.966h-23.049l10.15-64.301h-12.652l3.276-20.795h48.932l-3.276 20.795h-13.222z"/><path d="m141.373 218.966 13.426-85.096h23.058l-13.435 85.096z"/><path d="m259.098 218.966-8.111-38.988h-.111l-6.203 38.988h-23.049l13.426-85.096h23.058l-5.649 36.272h.11l18.311-36.272h24.291l-24.862 41.13 13.53 43.966z"/><path d="m92.662 154.665h-16.59c-.764.041-2.235.278-3.531 1.414-.007.007-.015.013-.022.02-.124.11-.247.228-.367.356-.695.748-1.197 1.664-1.347 2.735-.32 1.741.444 3.269 1.421 4.575.986 1.314 2.513 2.406 3.49 3.383 4.148 3.269 7.417 6.325 9.38 10.037 1.963 3.713 2.727 8.074 1.75 14.291-2.399 15.268-15.055 27.49-30.546 27.49h-17.021l3.286-20.795h15.742c.912-.025 2.974-.227 4.278-1.434.857-.837 1.485-1.898 1.683-3.191.319-1.963-.116-3.384-1.093-4.583-.764-1.199-1.856-2.177-3.162-3.162-3.819-3.384-7.097-6.546-9.388-10.472-2.07-3.819-3.162-8.394-2.176-14.398 1.527-9.601 10.356-27.053 29.335-27.054l.002-.007h18.161z"/><path d="m451.829 133.87-3.286 20.795h-16.589c-.765.041-2.235.278-3.531 1.414-.008.007-.015.013-.022.02-.125.11-.248.228-.368.356-.694.748-1.197 1.664-1.347 2.735-.32 1.741.444 3.269 1.421 4.575.986 1.314 2.514 2.406 3.491 3.383 4.148 3.269 7.416 6.325 9.379 10.037 1.963 3.713 2.727 8.074 1.75 14.291-2.398 15.268-15.055 27.49-30.545 27.49h-17.021l3.285-20.795h15.743c.911-.025 2.973-.227 4.278-1.434.856-.837 1.484-1.898 1.682-3.191.32-1.963-.115-3.384-1.093-4.583-.763-1.199-1.856-2.177-3.161-3.162-3.82-3.384-7.097-6.546-9.389-10.472-2.069-3.819-3.162-8.394-2.176-14.398 1.528-9.601 10.356-27.053 29.336-27.054l.001-.007z"/><path d="m370.167 218.966-7.1-35.372-.34.22c-.451 4.187-.902 8.364-1.583 12.542l-3.599 22.61h-23.049l13.426-85.096h22.267c20.003 0 33.556 5.88 30.06 28.368-1.472 9.376-6.901 17.74-16.617 21.356l11.494 35.372zm-2.012-66.785-3.395 21.015 1.472.111c6.101 0 10.287-5.31 11.069-10.849 1.252-7.452-2.824-10.618-9.146-10.277z"/><path d="m216.665 218.966h-13.635c-18.217 0-31.522-13.856-27.055-42.003 5.782-36.869 32.073-43.087 42.874-43.087l11.242-.005-3.281 20.794h-10.253s-4.752-.315-9.128 3.325c-5.156 4.407-7.687 12.276-8.654 18.431-1.469 9.233-.715 20.874 9.239 21.755l11.931-.003z"/></g><path d="m0-1.416c-.204.131-.439.22-.708.263-.269.045-.552.071-.848.071h-2.667v-3.355h3.178c.601 0 1.037.154 1.307.459.268.303.402.7.402 1.184 0 .348-.058.632-.182.855-.12.218-.282.392-.482.523m1.821 4.29c-.035-.232-.057-.474-.064-.714-.01-.24-.023-.48-.042-.712-.028-.238-.066-.459-.115-.674-.05-.217-.123-.412-.229-.586-.103-.176-.24-.327-.416-.45-.174-.128-.401-.219-.683-.27v-.027c.585-.164 1.009-.463 1.273-.903.267-.44.401-.951.401-1.537 0-.779-.262-1.394-.774-1.842-.517-.448-1.234-.673-2.149-.673h-4.525v9.612h1.279v-4.106h3.123c.315 0 .569.046.755.142.19.095.34.218.459.378.115.156.2.34.257.55.051.211.097.433.132.667.045.232.072.471.082.711.007.243.016.47.027.684.007.208.03.399.06.572.033.169.092.303.182.402h1.426c-.135-.162-.235-.347-.305-.557-.066-.212-.118-.434-.154-.667" fill-rule="nonzero" transform="translate(464.4401 218.919)"/><path d="m0 16.802c-4.632 0-8.401-3.769-8.401-8.401s3.769-8.401 8.401-8.401 8.401 3.769 8.401 8.401-3.769 8.401-8.401 8.401m0-18.086c-5.349 0-9.685 4.336-9.685 9.685s4.336 9.685 9.685 9.685c5.35 0 9.685-4.336 9.685-9.685s-4.335-9.685-9.685-9.685" fill-rule="nonzero" transform="translate(462.4881 209.853)"/></svg>
