<?xml version="1.0" encoding="UTF-8" standalone="no"?>
<!DOCTYPE svg PUBLIC "-//W3C//DTD SVG 1.1//EN" "http://www.w3.org/Graphics/SVG/1.1/DTD/svg11.dtd">
<svg width="100%" height="100%" viewBox="0 0 191 91" version="1.1"
    xmlns="http://www.w3.org/2000/svg" xml:space="preserve" style="fill-rule:evenodd;clip-rule:evenodd;stroke-linejoin:round;stroke-miterlimit:2;">
    <g transform="matrix(1,0,0,1,-176.194,-10.276)">
        <path d="M319.798,10.834L365.929,10.834C366.41,10.835 366.806,11.231 366.807,11.712L366.807,23.15C366.807,23.383 366.714,23.606 366.55,23.771L362.059,28.262C361.895,28.427 361.802,28.65 361.802,28.883L361.802,47.539C361.802,47.772 361.709,47.995 361.545,48.16L352.932,56.773C352.767,56.937 352.544,57.03 352.311,57.03L340.018,57.03C339.537,57.029 339.141,56.633 339.14,56.152L339.14,47.995L333.339,53.796L333.337,53.795C331.057,56.262 327.69,57.583 323.393,57.583C317.169,57.583 312.902,54.805 311.063,49.788L307.413,53.466L307.407,53.465C305.057,55.99 301.853,57.583 297.713,57.583C292.817,57.583 288.832,55.325 286.187,51.054C285.453,49.868 284.838,48.536 284.348,47.1C282.069,56.075 274.814,57.036 270.385,57.036L262.769,57.036L262.769,24.775L269.786,24.775C276.649,24.775 281.322,27.764 283.553,32.832C284.329,29.052 285.916,25.59 288.395,23.128L288.388,23.128L296.956,14.589L296.957,14.596C299.323,11.954 302.589,10.276 306.839,10.276C310.479,10.276 313.615,11.527 316.072,13.924L318.712,11.284C319,10.996 319.391,10.834 319.798,10.834ZM271.496,49.25C275.475,49.207 276.161,44.244 276.161,41.206C276.161,37.697 275.475,32.82 271.496,32.82L271.496,49.25ZM334.745,33.562C334.745,34.375 334.787,35.487 334.53,36.387C334.316,37.241 333.762,37.926 332.518,37.926C331.321,37.926 330.765,37.241 330.506,36.343C330.247,35.487 330.294,34.375 330.294,33.519L330.294,13.237L321.565,13.237L321.565,34.331C321.565,38.224 322.423,46.054 332.518,46.054C342.618,46.054 343.473,38.223 343.473,34.331L343.473,13.237L334.744,13.237L334.745,33.562ZM306.839,12.68C297.983,12.68 294.517,21.497 294.517,29.368C294.517,37.239 297.983,46.055 306.839,46.055C315.695,46.055 319.162,37.241 319.162,29.368C319.162,21.495 315.696,12.68 306.839,12.68ZM306.84,37.926C305.811,37.926 305.09,37.287 304.586,36.346C304.536,36.252 304.488,36.155 304.441,36.055C304.245,35.631 304.087,35.158 303.959,34.664C303.913,34.486 303.87,34.306 303.832,34.123C303.447,32.307 303.418,30.325 303.418,29.368C303.418,27.36 303.546,20.811 306.84,20.811C310.135,20.811 310.263,27.361 310.263,29.368C310.263,31.375 310.135,37.926 306.84,37.926ZM345.878,13.237L345.877,21.112L350.669,21.112L350.669,45.503L359.397,45.503L359.397,21.111L364.403,21.111L364.403,13.237L345.878,13.237ZM218.9,24.776L229.553,24.776L236.399,57.037L227.372,57.037L226.731,52.888L220.868,52.888L220.14,57.037L211.155,57.037L218.9,24.776ZM222.026,46.042L225.705,46.042L224.764,38.552L224.119,32.48L224.035,32.48C223.777,34.49 223.564,36.542 223.223,38.552L222.026,46.042ZM213.758,24.776L213.758,32.65L208.752,32.65L208.752,57.037L200.025,57.037L200.025,32.65L195.231,32.65L195.231,24.776L213.758,24.776ZM176.195,35.037C176.195,31.397 178.545,24.78 185.854,24.78L192.828,24.775L192.828,32.649L186.417,32.649C185.5,32.649 184.757,33.364 184.697,34.266C184.694,34.292 184.69,34.319 184.689,34.345C184.688,34.357 184.685,34.363 184.685,34.38C184.685,34.397 184.69,34.412 184.69,34.429C184.691,34.553 184.701,34.677 184.729,34.797C184.754,34.907 184.79,35.014 184.834,35.117C184.992,35.49 185.244,35.817 185.518,36.111C185.979,36.609 186.609,37.024 187.074,37.394C188.88,38.633 190.306,39.792 191.274,41.199C192.28,42.606 192.827,44.259 192.827,46.616C192.827,51.602 189.773,55.758 185.114,56.812C184.373,56.98 183.61,57.037 182.85,57.037L176.194,57.037L176.194,49.163L182.504,49.163C183.346,49.163 184.047,48.57 184.218,47.779L184.224,47.755C184.244,47.65 184.255,47.544 184.256,47.437C184.256,47.425 184.259,47.414 184.259,47.401C184.259,46.657 184.006,46.118 183.585,45.664C183.209,45.209 182.703,44.839 182.159,44.465C180.476,43.182 179.009,41.983 177.914,40.495C176.864,39.047 176.195,37.313 176.195,35.037ZM251.975,32.991L251.975,24.776L260.364,24.776L260.364,57.037L251.975,57.037L245.474,38.426L245.387,38.51C245.599,41.548 245.986,44.544 245.986,47.582L245.986,57.037L237.6,57.037L237.6,24.776L245.899,24.776L252.874,44.202L252.961,44.115C252.619,40.394 251.975,36.712 251.975,32.991Z" style="fill:currentColor;fill-rule:nonzero;"/>
    </g>
    <g transform="matrix(1,0,0,1,-176.194,-10.276)">
        <path d="M249.944,81.421C250.389,78.588 251.554,74.966 253.927,72.938C255.941,71.263 258.128,71.408 258.128,71.408L262.847,71.408L264.357,61.838L259.183,61.84C254.212,61.84 242.112,64.702 239.451,81.67C237.395,94.624 243.518,101.001 251.903,101.001L258.178,101.001L259.688,91.431L254.197,91.433C249.615,91.027 249.269,85.67 249.945,81.421L249.944,81.421ZM229.603,61.837L223.424,101.002L234.032,101.002L240.215,61.837L229.603,61.837ZM227.2,61.837L204.679,61.837L203.171,71.408L208.994,71.408L204.322,101.002L214.93,101.002L219.606,71.408L225.691,71.408L227.199,61.837L227.2,61.837ZM193.917,61.84C185.182,61.84 181.119,69.873 180.416,74.292C179.962,77.055 180.465,79.161 181.418,80.918C182.473,82.725 183.981,84.18 185.739,85.738C186.34,86.192 186.843,86.641 187.194,87.193C187.644,87.745 187.844,88.399 187.697,89.302C187.606,89.897 187.317,90.385 186.923,90.771C186.323,91.326 185.374,91.419 184.954,91.431L177.709,91.431L176.197,101.002L184.031,101.002C191.16,101.002 196.985,95.377 198.089,88.35C198.539,85.489 198.187,83.481 197.284,81.773C196.381,80.065 194.876,78.658 192.967,77.154C192.517,76.704 191.814,76.201 191.36,75.597C190.906,74.993 190.559,74.293 190.706,73.492C190.775,72.999 191.006,72.577 191.326,72.233C191.381,72.174 191.438,72.12 191.495,72.069C191.951,71.673 192.527,71.441 193.13,71.409L200.765,71.409L202.277,61.838L193.918,61.838L193.918,61.841L193.917,61.84ZM312.176,85.815L313.637,76.558L304.572,76.558L305.406,71.095L314.507,71.095L315.964,61.838L296.25,61.838L290.071,101.003L309.78,101.003L311.229,91.795L302.129,91.795L303.065,85.816L312.177,85.816L312.176,85.815ZM355.854,72.231C355.908,72.174 355.964,72.119 356.023,72.067C356.479,71.671 357.055,71.439 357.658,71.407L365.293,71.407L366.805,61.836L358.446,61.836L358.446,61.839C349.711,61.839 345.648,69.872 344.945,74.291C344.491,77.054 344.994,79.16 345.946,80.917C347.001,82.724 348.509,84.179 350.267,85.737C350.868,86.191 351.371,86.64 351.722,87.192C352.172,87.744 352.372,88.398 352.225,89.301C352.134,89.896 351.845,90.384 351.451,90.77C350.851,91.325 349.902,91.418 349.482,91.43L342.237,91.43L340.725,101.001L348.559,101.001C355.688,101.001 361.513,95.376 362.617,88.349C363.067,85.488 362.715,83.48 361.812,81.772C360.909,80.064 359.404,78.657 357.495,77.153C357.045,76.703 356.342,76.2 355.888,75.596C355.434,74.992 355.087,74.292 355.234,73.491C355.303,72.998 355.534,72.576 355.854,72.232L355.854,72.231ZM283.474,81.42L293.847,61.837L284.002,61.837L274.558,79.665L277.373,61.837L266.76,61.837L260.581,101.002L271.189,101.002L274.053,82.859L277.828,101.002L287.547,101.002L283.473,81.42L283.474,81.42ZM342.45,74.893C344.059,64.543 337.821,61.837 328.615,61.837L318.367,61.837L312.188,101.002L322.796,101.002L325.299,85.122L328.603,101.001L338.322,101.001L334.925,84.671C339.319,82.982 341.78,79.167 342.451,74.892L342.45,74.893ZM331.889,74.995C331.529,77.544 329.602,79.988 326.795,79.988L326.117,79.937L327.68,70.265C330.589,70.108 332.465,71.565 331.889,74.995Z" style="fill:currentColor;fill-opacity:0.8;fill-rule:nonzero;"/>
    </g>
</svg>
