<?xml version="1.0" encoding="UTF-8" standalone="no"?>
<svg width="100%" height="100%" viewBox="0 0 1375 504" version="1.1" xmlns="http://www.w3.org/2000/svg" style="fill-rule:evenodd;clip-rule:evenodd;stroke-linejoin:round;stroke-miterlimit:2;fill:currentColor;">
    <g transform="matrix(1,0,0,1,-70.1363,-124.892)">
        <path d="M1248.19,346.294C1248.19,346.294 1238.89,348.199 1238.89,337.297C1238.89,332.426 1242.33,329.688 1245.18,325.738C1248.03,321.788 1279.84,279.099 1281.28,277.541C1282.72,275.982 1279.98,272.288 1282.49,267.237C1285.01,262.185 1299.18,242.28 1313.48,239.266C1323.2,237.216 1331.32,256.856 1331.32,259.327C1331.32,263.58 1312.91,280.146 1311.96,282.229C1311.49,283.276 1310.3,282.823 1314.19,289.847C1318.09,296.871 1326.96,329.164 1325.37,341.393C1325.37,341.393 1337.83,330.854 1344.63,322.751C1351.44,314.647 1378.49,279.087 1382.35,272.03C1384.28,268.489 1385.86,271.004 1388.14,272.449C1390.42,273.894 1393.65,277.469 1389.09,285.583C1384.53,293.698 1362.14,334.605 1348.42,350.781C1335.09,366.498 1323.26,374.504 1309.65,374.759C1309.65,374.759 1294.12,390.308 1280.21,389.521C1266.3,388.735 1241.52,380.104 1248.02,347.3C1248.02,347.3 1257.2,358.447 1266.46,357.865C1275.71,357.283 1294.48,352.423 1294.48,328.157C1294.48,318.502 1288.84,297.354 1287.06,293.816C1285.93,291.555 1259.51,346.294 1248.19,346.294ZM1246.64,184.353C1246.64,184.353 1254.89,221.442 1254.01,235.998C1253.12,250.554 1244.98,252.087 1240.71,252.944C1236.45,253.802 1221.54,249.685 1223.28,237.029C1224.05,231.374 1225.9,226.003 1229.13,220.914C1237.16,208.221 1243,193.372 1246.64,184.353ZM803.089,256.817C803.089,256.817 819.788,227.368 821.819,226.763C823.849,226.159 838.071,224.029 843.627,240.543L834.68,256.516L847.985,257.404C847.985,257.404 863.249,257.459 856.305,268.617C849.361,279.775 847.914,282.565 835.021,281.46L822.414,281.62L787.916,356.774C787.916,356.774 823.404,344.133 854.746,302.987C854.746,302.987 868.288,273.089 900.014,255.583C922.178,243.353 941.66,255.854 941.168,265.742C941.168,265.742 960.548,273.943 942.081,303.68C923.613,333.418 901.18,341.647 891.282,337.616C881.384,333.584 879.887,330.221 879.596,327.148C879.596,327.148 871.26,348.311 873.321,356.59C873.749,358.31 877.057,358.517 881.53,358.616C886.003,358.715 915.841,359.123 948.307,323.928L971.506,297.291C971.506,297.291 990.268,261.527 997.113,255.439C1002.27,250.851 1023.49,263.121 1023.64,266.957C1023.78,270.269 1022.79,269.972 1022.34,271.679C1021.89,273.386 985.295,339.518 979.631,358.745C978.213,363.558 1015.28,339.539 1025.15,322.158C1028.77,315.784 1021.47,302.692 1034.58,278.029C1046.15,256.268 1054.7,251.478 1056.3,251.316C1057.89,251.154 1088.55,247.733 1070.97,294.574C1064.65,311.393 1040.94,342.433 1040.94,342.433C1040.94,342.433 1061.82,341.696 1088.31,308.221C1091.08,304.718 1096.88,290.153 1113.68,272.604C1121.06,264.906 1136.05,251.046 1155.13,251.046C1174.21,251.046 1177.15,261.412 1177.15,265.496C1177.15,269.581 1191.46,265.911 1184.93,289.987C1178.41,314.062 1146.14,341.923 1130.6,339C1121.86,337.356 1117.91,331.535 1115.43,327.31C1115.28,327.058 1109.31,340.255 1109.31,356.984C1109.31,358.36 1122.86,358.903 1124.24,358.903C1132.61,358.903 1146.83,356.727 1152.78,354.797C1158.72,352.866 1178.88,343.79 1190.73,327.827C1209.38,302.72 1209.79,302.578 1209.79,302.578C1209.79,302.578 1212.6,297.909 1215.46,301.759C1218.33,305.61 1220.66,307.967 1216.85,315.175C1213.04,322.384 1187.25,366.23 1153.66,383.12C1127.66,396.19 1109.39,384.474 1103.86,378.805C1098.25,373.061 1093.56,365.642 1094,358.933C1094,358.933 1083.38,352.982 1083.75,344.358C1083.75,344.358 1065.16,366.648 1049.26,366.762C1038.23,366.841 1035.29,358.543 1032.33,353.212C1032.33,353.212 1001.5,388.607 986.888,389.208C975.199,389.689 969.583,373.822 969.257,366.614C969.257,366.614 950.645,361.904 952.526,347.692C952.526,347.692 917.06,391.106 893.056,388.872C870.946,386.813 860.519,375.755 858.009,359.403C858.009,359.403 848.931,352.906 847.637,344.187C847.637,344.187 809.984,389.763 789.306,388.972C777.667,388.527 771.316,375.001 770.833,369.895C770.833,369.895 762.191,365.917 762.351,356.57C762.511,347.224 761.769,335.122 789.801,280.658C789.801,280.658 772.635,283.277 772.635,264.984C772.635,255.769 785.909,256.321 803.089,256.817ZM881.724,321.613C881.724,321.613 911.411,312.169 931.29,270.973C931.29,270.973 903.877,273.97 881.724,321.613ZM1118.07,321.613C1118.07,321.613 1147.76,312.169 1167.63,270.973C1167.63,270.973 1140.22,273.97 1118.07,321.613ZM620.384,329.611C628,336.606 641.18,350.876 663.183,357.229C685.187,363.582 695.274,359.667 702.798,343.875C710.321,328.082 678.339,306.829 670.746,298.435C663.152,290.042 651.781,276.127 661.242,248.964C670.703,221.802 695.727,195.495 721.951,187.035C748.175,178.575 755.638,193.139 755.638,193.139C788.066,202.554 778.463,234.745 778.463,234.745C764.448,282.959 729.934,286.105 721.19,281.897C712.446,277.688 712.319,271.887 712.319,271.887C750.896,239.339 751.198,202.728 751.198,202.728C749.579,203.204 727.3,216.748 710.953,235.476C694.606,254.204 691.442,263.667 689.667,276.392C687.892,289.117 716.174,309.462 716.174,309.462C728.896,319.145 741.432,332.278 738.318,347.96C734.653,366.417 721.11,392.744 682.452,392.744C643.794,392.744 612.406,349.025 605.191,331.974C597.977,314.923 599.72,301.942 599.72,301.942L630.894,320.098L620.384,329.611Z"/>
            <path d="M1091.5,563.394L1091.5,452.077L1119,452.077C1119,452.077 1137.77,452.164 1137.77,468.188L1137.77,490.383C1137.77,490.383 1137.26,504.932 1128.34,504.932C1128.34,504.932 1139.84,508.238 1139.84,522.184L1139.84,546.383C1139.84,546.383 1139.76,563.394 1116.14,563.394L1091.5,563.394ZM1106.41,462.98L1106.41,500.665L1117.2,500.665C1122.74,500.665 1122.7,493.977 1122.7,493.977L1122.7,470.462C1122.7,464.689 1116.53,462.98 1116.53,462.98L1106.41,462.98ZM1106.41,511.912L1106.41,552.15L1118.54,552.15C1124.08,552.15 1124.04,545.462 1124.04,545.462L1124.04,519.394C1124.04,513.621 1117.87,511.912 1117.87,511.912L1106.41,511.912Z"/>
            <path d="M1176.74,563.406L1194.57,451.793L1214.13,451.793L1231.7,563.406L1215.06,563.406L1212.34,541.26L1196.57,541.26L1193.82,563.406L1176.74,563.406ZM1197.65,530.36L1211.18,530.36L1204.35,468.563L1197.65,530.36Z"/>
            <path d="M1272.47,563.394L1272.47,452.077L1299.98,452.077C1299.98,452.077 1318.75,452.164 1318.75,468.188L1318.75,490.383C1318.75,490.383 1318.23,508.932 1309.32,508.932C1309.32,508.932 1318.46,511.842 1318.46,525.788L1318.46,563.394L1303.26,563.394C1303.26,563.394 1303.24,563.394 1303.24,525.227C1303.24,518.867 1303.38,515.41 1287.66,515.41L1287.66,563.394L1272.47,563.394ZM1287.39,462.98L1287.39,503.665L1298.18,503.665C1303.72,503.665 1303.68,496.977 1303.68,496.977L1303.68,470.462C1303.68,464.689 1297.5,462.98 1297.5,462.98L1287.39,462.98Z"/>
            <path d="M960.653,444.599L972.602,425.987L988.249,425.987L971.746,444.599L960.653,444.599ZM951.249,451.632L991.02,451.632L991.02,462.91L966.142,462.91L966.142,499.734L987.692,499.734L987.692,511.111L966.142,511.111L966.142,552.026L991.599,552.026L991.599,563.078L951.249,563.078L951.249,451.632Z"/>
            <path d="M765.027,470.207C765.027,462.304 765.697,450.034 789.591,450.034C813.485,450.034 812.553,466.713 812.553,466.713L812.553,548.712C812.553,565.904 793.195,564.97 793.195,564.97L786.766,564.97C763.965,564.97 765.027,547.2 765.027,547.2L765.027,470.207ZM780.369,469.873L780.369,544.095C780.369,551.375 785.325,552.806 789.743,552.806C797.795,552.806 797.4,544.617 797.4,544.617L797.4,470.026C797.4,468.104 796.199,462.119 788.6,462.119C779.705,462.119 780.369,469.873 780.369,469.873Z"/>
            <path d="M858.868,451.471L858.868,563.454L874.087,563.454L874.087,522.24L879.048,509.754L895.675,563.454L912.384,563.454L888.458,497.481L911.201,451.471L894.565,451.471L874.087,497.836L874.087,451.471L858.868,451.471Z"/>
            <path d="M676.301,564.118L676.301,451.559L703.022,451.559C703.022,451.559 723.209,450.161 723.209,471.704L723.209,500.326C723.209,500.326 724.493,518.051 702.468,518.051L692.361,518.051L692.361,564.118L676.301,564.118ZM691.49,462.893L691.49,506.684L700.292,506.684C708.288,506.684 707.851,497.478 707.851,497.478L707.851,472.484C707.851,463.053 699.671,462.893 699.671,462.893L691.49,462.893Z"/>
        <path d="M1444.36,124.892L1444.36,627.963L70.136,627.963L70.136,124.892L1444.36,124.892ZM1426.83,143.761L549.144,143.761L549.144,608.622L1426.83,608.622L1426.83,143.761ZM146.16,429.663C177.82,387.266 222.261,376.035 220.93,374.573C220.93,374.573 202.778,357.924 203.14,337.545C203.731,304.245 224.189,302.53 244.15,310.146C264.111,317.762 292.184,351.151 295.462,354.926C298.741,358.701 296.928,358.306 296.928,358.306C289.38,358.632 284.242,362.295 284.242,362.295C286.545,366.219 330.699,380.742 330.699,380.742C420.047,426.147 474.13,401.2 474.13,401.2C478.687,375.113 478.637,323.587 445.704,275.987C412.771,228.388 359.311,209.349 359.311,209.349C335.068,193.814 313.594,177.408 308.212,175.449C296.932,171.344 286.711,172.289 284.771,172.015C293.724,185.175 275.992,196.317 261.232,205.383C260.966,205.547 248.387,209.25 244.62,210.77C226.766,217.98 184.323,235.976 161.041,280.061C128.179,342.285 146.16,429.663 146.16,429.663ZM186.976,334.531C186.976,334.531 154.186,309.911 189.155,263.769C224.124,217.627 276.919,215.68 299.613,215.68C322.308,215.68 372.458,218.133 418.981,264.656C448.152,293.826 460.335,335.376 460.335,350.328C460.335,350.841 462.442,364.223 461.084,389.493C461.084,389.493 451.654,400.628 403.566,392.388C355.478,384.148 324.2,365.173 287.341,324.075C264.734,298.869 242.644,292.95 242.644,292.95C242.644,292.95 191.783,279.872 186.976,334.531ZM369.316,367.704C368.793,366.706 338.189,307.774 395.765,276.481C395.765,276.481 364.518,274.288 352.416,317.67C344.782,345.033 368.843,367.089 369.316,367.704ZM406.895,315.651C398.639,315.651 391.935,322.355 391.935,330.611C391.935,338.868 398.639,345.571 406.895,345.571C415.152,345.571 421.855,338.868 421.855,330.611C421.855,322.355 415.152,315.651 406.895,315.651ZM150.69,462.944L167.357,544.056C319.712,617.425 454.134,542.04 454.134,542.04L467.986,437.165C457.635,439.13 456.109,442.302 418.594,440.166C334.217,435.363 323.278,393.999 264.474,398.328C205.671,402.658 155.478,461.015 150.69,462.944Z"/>
    </g>
</svg>
