<?xml version="1.0" encoding="UTF-8" standalone="no"?>
<!DOCTYPE svg PUBLIC "-//W3C//DTD SVG 1.1//EN" "http://www.w3.org/Graphics/SVG/1.1/DTD/svg11.dtd">
<svg width="100%" height="100%" viewBox="0 0 150 21" version="1.1"
    xmlns="http://www.w3.org/2000/svg"
    style="fill-rule:evenodd;clip-rule:evenodd;stroke-linejoin:round;stroke-miterlimit:2;fill:currentColor;">
    <g transform="matrix(1,0,0,1,-0.0168671,-2.22053)">
        <path d="M29.938,21.406C27.815,21.406 25.898,21.173 24.19,19.464L26.39,17.264C27.504,18.376 28.955,18.532 29.99,18.532C31.155,18.532 32.372,18.144 32.372,17.134C32.372,16.461 32.009,15.994 30.948,15.891L28.824,15.691C26.39,15.461 24.889,14.401 24.889,11.911C24.889,9.121 27.349,7.611 30.089,7.611C32.189,7.611 33.949,7.981 35.239,9.191L33.169,11.291C32.389,10.591 31.199,10.391 30.029,10.391C28.679,10.391 28.109,11.011 28.109,11.691C28.109,12.191 28.309,12.761 29.509,12.861L31.629,13.071C34.299,13.331 35.639,14.761 35.639,17.031C35.639,20.011 33.099,21.431 29.909,21.431L29.938,21.406ZM41.538,21.25C38.792,21.25 37.628,19.31 37.628,17.393L37.628,10.713L36.203,10.713L36.203,8.15L37.627,8.15L37.627,4.16L40.993,4.16L40.993,8.15L43.375,8.15L43.375,10.712L40.993,10.712L40.993,17.186C40.993,17.963 41.356,18.403 42.158,18.403L43.375,18.403L43.375,21.251L41.537,21.251L41.538,21.25ZM44.87,5.455L44.87,2.71L48.315,2.71L48.315,5.455L44.87,5.455ZM44.923,21.251L44.923,7.76L48.289,7.76L48.289,21.25L44.919,21.25L44.923,21.251ZM55.896,21.411C53.203,21.411 49.863,19.961 49.863,14.501C49.863,9.041 53.203,7.611 55.896,7.611C57.76,7.611 59.158,8.181 60.35,9.431L58.072,11.711C57.372,10.961 56.777,10.651 55.897,10.651C55.094,10.651 54.473,10.941 53.981,11.531C53.471,12.181 53.231,13.091 53.231,14.511C53.231,15.931 53.471,16.871 53.981,17.521C54.481,18.121 55.101,18.401 55.901,18.401C56.781,18.401 57.381,18.091 58.081,17.341L60.361,19.591C59.171,20.831 57.771,21.431 55.911,21.431L55.896,21.411ZM69.636,21.261L66.323,15.651L64.9,17.251L64.9,21.271L61.53,21.271L61.53,2.82L64.9,2.82L64.9,13.28L69.38,7.763L73.443,7.763L68.627,13.203L73.807,21.263L69.637,21.263L69.636,21.261ZM76.616,15.571C76.616,17.311 77.676,18.581 79.569,18.581C81.039,18.581 81.769,18.171 82.619,17.311L84.659,19.311C83.279,20.681 81.959,21.441 79.529,21.441C76.339,21.441 73.289,19.991 73.289,14.531C73.289,10.131 75.669,7.641 79.159,7.641C82.909,7.641 85.029,10.391 85.029,14.091L85.029,15.601L76.6,15.601L76.616,15.571ZM81.432,11.821C81.07,11.021 80.319,10.421 79.18,10.421C78.04,10.421 77.29,11.021 76.927,11.821C76.72,12.321 76.642,12.681 76.617,13.271L81.742,13.271C81.717,12.681 81.64,12.321 81.432,11.821ZM93.985,11.461C93.467,10.951 93.027,10.661 92.199,10.661C91.159,10.661 90.019,11.441 90.019,13.151L90.019,21.281L86.649,21.281L86.649,7.76L89.939,7.76L89.939,9.055C90.579,8.278 91.879,7.605 93.329,7.605C94.649,7.605 95.579,7.941 96.509,8.875L93.969,11.437L93.985,11.461Z" style="fill-rule:nonzero;"/>
    </g>
    <g transform="matrix(1,0,0,1,-0.0168671,-2.22053)">
        <path d="M111.65,7.605C109.967,7.605 108.75,8.123 107.61,9.315C106.756,8.149 105.54,7.605 104.037,7.605C102.794,7.605 101.551,8.097 100.671,9.003L100.671,7.76L97.391,7.76L97.391,21.25L100.761,21.25L100.761,13.094C100.761,11.254 101.951,10.634 103.011,10.634C104.081,10.634 105.241,11.254 105.241,13.094L105.241,21.25L108.611,21.25L108.611,13.016C108.611,11.256 109.831,10.634 110.861,10.634C111.921,10.634 113.091,11.254 113.091,13.094L113.091,21.25L116.461,21.25L116.461,12.628C116.461,11.152 116.071,9.883 114.981,8.796C114.231,8.046 113.021,7.606 111.671,7.606L111.65,7.605ZM126.28,15.917C126.28,17.755 125.09,18.377 124.028,18.377C122.968,18.377 121.801,17.755 121.801,15.917L121.801,7.76L118.441,7.76L118.441,16.383C118.441,17.858 118.731,19.127 119.811,20.215C120.561,20.965 121.651,21.405 123.001,21.405C124.251,21.405 125.491,20.94 126.371,20.008L126.371,21.251L129.661,21.251L129.661,7.76L126.301,7.76L126.301,15.917L126.28,15.917ZM135.156,17.187L135.156,2.813L131.79,2.813L131.79,17.39C131.79,19.307 132.955,21.25 135.725,21.25L137.641,21.25L137.641,18.4L136.351,18.4C135.501,18.4 135.161,17.987 135.161,17.185L135.156,17.187ZM150,14.05C150,10.347 147.877,7.603 144.122,7.603C140.626,7.603 138.244,10.089 138.244,14.491C138.244,19.961 141.299,21.411 144.484,21.411C146.918,21.411 148.239,20.661 149.611,19.291L147.571,17.301C146.721,18.161 145.991,18.571 144.521,18.571C142.631,18.571 141.571,17.301 141.571,15.571L150,15.571L150,14.05ZM141.56,13.247C141.585,12.65 141.662,12.287 141.87,11.797C142.232,10.992 142.983,10.397 144.122,10.397C145.262,10.397 146.012,10.992 146.374,11.797C146.582,12.287 146.659,12.649 146.684,13.247L141.559,13.247L141.56,13.247Z" style="fill-rule:nonzero;"/>
    </g>
    <g transform="matrix(1,0,0,1,-0.0168671,-2.22053)">
        <path d="M13.82,22.744C13.625,22.837 13.36,22.816 13.087,22.824C12.852,22.831 12.522,22.836 12.385,22.714C12.31,22.649 12.289,22.507 12.285,22.424C12.278,22.324 12.303,22.204 12.325,22.092C12.349,21.962 12.375,21.792 12.325,21.722C12.265,21.637 12.055,21.672 11.943,21.61C11.825,21.544 11.791,21.386 11.753,21.21C11.74,21.153 11.707,21.102 11.703,21.058C11.669,20.788 11.76,20.424 11.823,20.145C11.889,19.85 11.975,19.575 12.023,19.302C12.097,18.889 12.123,18.422 12.093,17.997C12.08,17.777 12.05,17.601 12.083,17.417C12.116,17.242 12.189,17.097 12.223,16.924C12.235,16.869 12.226,16.804 12.233,16.744C12.241,16.69 12.273,16.647 12.273,16.604C12.28,16.488 12.243,16.346 12.233,16.202C12.21,15.815 12.24,15.269 12.265,14.938C12.273,14.822 12.327,14.69 12.245,14.638C11.842,14.631 11.475,14.708 11.1,14.758C10.09,14.888 8.822,14.904 7.85,14.708C7.757,14.688 7.664,14.688 7.578,14.668C6.888,14.508 6.252,14.213 5.761,13.825C5.691,13.765 5.601,13.701 5.511,13.635C5.431,13.569 5.341,13.48 5.261,13.443C4.871,13.26 4.351,13.471 4.191,13.723C4.131,13.825 4.081,13.955 4.021,14.075C3.961,14.19 3.911,14.311 3.861,14.425C3.601,15.019 3.311,15.585 3.051,16.182C2.901,16.526 2.731,16.909 2.621,17.296C2.381,18.116 2.611,19.214 2.791,19.986C2.811,20.056 2.851,20.126 2.871,20.206C2.931,20.392 3.061,20.64 3.201,20.766C3.281,20.833 3.411,20.873 3.491,20.948C3.601,21.04 3.681,21.223 3.761,21.378C3.801,21.444 3.851,21.518 3.891,21.598C3.991,21.772 4.031,21.928 3.831,22.031C3.691,22.111 3.471,22.131 3.261,22.141C3.171,22.171 3.201,22.291 3.141,22.361C3.111,22.401 2.971,22.451 2.901,22.471C2.631,22.551 2.181,22.551 1.971,22.471C1.871,22.441 1.751,22.361 1.721,22.271C1.671,22.111 1.801,21.901 1.681,21.771C1.631,21.721 1.521,21.731 1.421,21.681C1.266,21.609 1.144,21.48 1.081,21.321C0.921,20.921 1.021,20.281 1.001,19.791C1.001,19.651 0.981,19.491 0.971,19.331C0.961,19.041 0.891,18.751 0.861,18.461C0.851,18.321 0.801,18.201 0.771,18.071C0.731,17.871 0.691,17.641 0.631,17.431C0.571,17.201 0.561,16.981 0.641,16.781C0.661,16.731 0.721,16.681 0.751,16.601C0.801,16.491 0.821,16.351 0.811,16.251C0.781,16.201 0.641,16.241 0.601,16.181C0.521,15.551 0.421,14.911 0.371,14.251C0.351,14.031 0.351,13.801 0.331,13.571C0.291,13.121 0.321,12.651 0.281,12.221C0.261,12.011 0.211,11.811 0.181,11.601C0.1,11 -0.06,10.25 0.06,9.65C0.14,9.26 0.278,8.942 0.5,8.655C0.66,8.455 0.83,8.265 1.01,8.085C1.19,7.915 1.39,7.745 1.6,7.595C1.74,7.495 1.88,7.381 2.03,7.311C2.37,7.151 2.81,7.021 3.27,7.001C3.73,6.981 4.258,6.971 4.717,7.061C5.157,7.141 5.593,7.211 6.023,7.301C6.443,7.381 6.859,7.501 7.258,7.601C7.308,7.611 7.354,7.641 7.408,7.661C7.535,7.691 7.678,7.701 7.818,7.741C8.188,7.841 8.678,7.891 9.136,7.891C9.631,7.891 10.076,7.881 10.483,7.781C10.543,7.761 10.583,7.731 10.653,7.711C10.713,7.681 10.793,7.691 10.853,7.671C10.893,7.651 10.933,7.611 10.983,7.591C11.213,7.481 11.413,7.361 11.623,7.221C11.785,7.101 11.923,7.001 12.143,6.921C12.243,6.891 12.338,6.831 12.433,6.801C12.643,6.741 12.867,6.681 13.026,6.571C13.276,6.411 13.463,6.181 13.671,6.001C13.891,5.811 14.111,5.631 14.331,5.451C14.801,5.091 15.261,4.751 15.701,4.401C15.921,4.221 16.171,4.061 16.431,3.911C16.941,3.621 17.451,3.281 18.181,3.231C18.471,3.211 18.771,3.201 19.061,3.241C19.141,3.251 19.251,3.301 19.321,3.281C19.401,3.261 19.461,3.141 19.511,3.051C19.621,2.861 19.701,2.731 19.791,2.501C19.851,2.361 19.821,2.211 19.971,2.221C20.121,2.231 20.091,2.611 20.101,2.751C20.111,2.931 20.081,3.161 20.111,3.281C20.131,3.371 20.241,3.491 20.361,3.491C20.441,3.491 20.501,3.431 20.571,3.381C20.651,3.341 20.721,3.311 20.771,3.271C20.891,3.181 21.031,3.041 21.151,2.911C21.251,2.811 21.411,2.571 21.581,2.591C21.871,2.621 21.581,3.051 21.521,3.181C21.371,3.511 21.231,3.761 21.061,4.071C20.991,4.191 20.831,4.371 20.831,4.501C20.831,4.591 20.911,4.651 20.951,4.751C20.971,4.796 20.981,4.841 21.001,4.891C21.101,5.121 21.181,5.441 21.251,5.701C21.321,5.927 21.371,6.161 21.461,6.381C21.541,6.601 21.661,6.801 21.741,7.017C21.771,7.077 21.771,7.144 21.791,7.197C21.981,7.667 22.151,8.204 22.371,8.657C22.461,8.842 22.591,9.067 22.581,9.342C22.581,9.642 22.431,9.782 22.291,10.002C22.221,10.122 22.121,10.299 22.011,10.332C21.931,10.362 21.841,10.332 21.761,10.342C21.651,10.362 21.571,10.432 21.471,10.442C21.201,10.472 20.961,10.262 20.881,10.062C20.861,9.992 20.871,9.902 20.851,9.822C20.791,9.495 20.631,9.338 20.401,9.132C20.261,8.996 20.141,8.892 19.961,8.798C19.701,8.666 19.421,8.584 19.151,8.438C19.051,8.384 18.928,8.331 18.841,8.348C18.698,8.375 18.551,8.611 18.441,8.758C17.737,9.692 17.111,10.651 16.417,11.568C15.957,12.175 15.467,12.791 15.102,13.485C15.012,13.663 14.952,13.865 14.882,14.065C14.812,14.265 14.772,14.485 14.702,14.705C14.432,15.465 14.352,16.395 14.112,17.195C14.082,17.275 14.072,17.375 14.052,17.465C13.942,17.875 13.822,18.335 13.702,18.775C13.602,19.095 13.572,19.535 13.555,19.96C13.545,20.357 13.525,20.923 13.665,21.175C13.745,21.305 14.015,21.355 14.122,21.495C14.192,21.59 14.242,21.779 14.312,21.905C14.362,21.995 14.502,22.18 14.492,22.315C14.482,22.418 14.402,22.49 14.322,22.525C14.242,22.568 14.112,22.545 14.032,22.585C13.942,22.635 13.982,22.745 13.892,22.805L13.82,22.744Z" style=""/>
    </g>
</svg>
