<?xml version="1.0" encoding="UTF-8" standalone="no"?>
<!DOCTYPE svg PUBLIC "-//W3C//DTD SVG 1.1//EN" "http://www.w3.org/Graphics/SVG/1.1/DTD/svg11.dtd">
<svg width="100%" height="100%" viewBox="0 0 1692 1036" version="1.1"
    xmlns="http://www.w3.org/2000/svg" style="fill-rule:evenodd;clip-rule:evenodd;stroke-linejoin:round;stroke-miterlimit:2;fill:currentColor;">
    <g transform="matrix(1,0,0,1,-521.989,-1081.42)">
        <g transform="matrix(12.8752,0,0,12.8752,-14591,-21240.5)">
            <g transform="matrix(1,0,0,1,1209.11,1733.71)">
                <path d="M33.51,0L38.542,0L24.84,40.46L14.28,40.46L7.843,22.251L13.543,22.251C15.607,22.255 17.588,23.625 18.25,26L19.79,30.59L29,3.28C29.647,1.341 31.466,0.018 33.51,0Z" style="fill-rule:nonzero;"/>
            </g>
            <g transform="matrix(1,0,0,1,1232.19,1733.71)">
                <path d="M33.51,0L38.542,0L24.84,40.46L14.28,40.46L7.843,22.251L13.543,22.251C15.607,22.255 17.588,23.625 18.25,26L19.79,30.59L29,3.28C29.647,1.341 31.466,0.018 33.51,0Z" style="fill-rule:nonzero;"/>
            </g>
            <g transform="matrix(0.997454,0,0,0.909903,1208.5,1733.74)">
                <path d="M5.66,0L0,0L3.45,9.77C4.258,12.07 6.443,13.618 8.88,13.62L13.88,13.62L10.18,3.19C9.501,1.283 7.685,0.001 5.66,0Z" style="fill-opacity:0.6;fill-rule:nonzero;"/>
            </g>
        </g>
        <path d="M1701.66,2033.38C1701.66,2033.38 1656.25,2032.71 1654,1986.51L1654,1889.9C1654,1889.9 1652.91,1848.18 1650.27,1838.43L1662.38,1838.43C1662.38,1838.43 1693.37,1836.79 1699.53,1872.73C1699.53,1872.73 1712.58,1833.7 1757.85,1833.7C1757.85,1833.7 1766.14,1832.92 1778.06,1836.63C1778.06,1836.63 1784.98,1873.56 1755.23,1874.98C1755.23,1874.98 1701.66,1871.27 1701.66,1925.64L1701.66,2033.38Z" style="fill-opacity:0.6;"/>
        <path d="M1371.71,1937.99L1236.35,1937.99C1236.35,2014.17 1304.61,1998.36 1317.82,1996.13C1333.6,1993.47 1328.58,1991.63 1341.93,1992.7C1361.79,1994.28 1368.2,2011.42 1368.2,2011.42C1345.74,2033.89 1294.22,2036.08 1294.22,2036.08C1189.06,2036.08 1189.5,1948.85 1189.5,1935.27C1189.5,1921.7 1194.91,1832.9 1285.47,1832.9C1379.58,1832.9 1371.71,1937.99 1371.71,1937.99ZM1237.85,1912.24L1329.32,1912.24C1329.32,1912.24 1328.45,1867.71 1285.95,1867.8C1245.05,1867.88 1237.85,1906.04 1237.85,1912.24Z" style="fill-opacity:0.6;"/>
        <g transform="matrix(1,0,0,1,601.533,0)">
            <path d="M1371.71,1937.99L1236.35,1937.99C1236.35,2014.17 1304.61,1998.36 1317.82,1996.13C1333.6,1993.47 1328.58,1991.63 1341.93,1992.7C1361.79,1994.28 1368.2,2011.42 1368.2,2011.42C1345.74,2033.89 1294.22,2036.08 1294.22,2036.08C1189.06,2036.08 1189.5,1948.85 1189.5,1935.27C1189.5,1921.7 1194.91,1832.9 1285.47,1832.9C1379.58,1832.9 1371.71,1937.99 1371.71,1937.99ZM1237.85,1912.24L1329.32,1912.24C1329.32,1912.24 1328.45,1867.71 1285.95,1867.8C1245.05,1867.88 1237.85,1906.04 1237.85,1912.24Z" style="fill-opacity:0.6;"/>
        </g>
        <path d="M996.313,1838.03L1159.47,1838.03L1159.47,1870.81L1051.06,1996.51L1139.25,1996.51C1139.25,1996.51 1164.05,1999 1164.05,2023.12C1164.05,2047.24 1164.05,2032.76 1164.05,2032.76L994.424,2032.76L994.424,1999.61L1103.03,1874.45L1018.47,1874.45C1018.47,1874.45 996.313,1871.21 996.313,1849.12C996.313,1827.04 996.313,1838.03 996.313,1838.03Z" style="fill-opacity:0.6;"/>
        <path d="M894.204,1837.97L894.204,1985.39C894.204,1985.39 892.363,2029.74 941.488,2033.89L941.488,1885.03C941.488,1885.03 941.366,1842.84 894.204,1837.97Z" style="fill-opacity:0.6;"/>
        <path d="M521.989,1838.2L598.975,2033.25L640.686,2033.25L688.925,1906.25L738.124,2033.25L779.862,2033.25L856.354,1837.72L827.438,1837.72C827.438,1837.72 810.144,1837.1 803.96,1852.58C797.775,1868.07 759.083,1976.55 759.083,1976.55L712.636,1851.79C712.636,1851.79 692.683,1820.44 667.205,1851.79L621.801,1976.55L577.231,1853.17C577.231,1853.17 570.214,1837.76 548.798,1837.79C527.382,1837.82 521.989,1838.2 521.989,1838.2Z" style="fill-opacity:0.6;"/>
        <path d="M1460.6,2001.87L1460.52,2116.89C1410.33,2111.84 1413.11,2068.26 1413.11,2068.26L1413.11,1894.36C1413.11,1894.36 1412.43,1860.06 1410.07,1838.6L1427.01,1838.8C1439.1,1838.8 1458.7,1854.59 1458.7,1871.87C1458.7,1871.87 1473.47,1833.15 1524.63,1833.15C1575.8,1833.15 1611.27,1878.08 1611.27,1934.18C1611.27,1990.28 1581.62,2036.42 1525.52,2036.42C1491.12,2036.42 1471.35,2020.77 1460.6,2001.87ZM1511.11,1998.74C1511.16,1998.74 1511.47,1998.74 1511.52,1998.74C1565.69,1998.74 1562.26,1937.59 1562.26,1937.59C1562.26,1937.59 1567.13,1871 1511.59,1870.73C1511.51,1870.73 1511.11,1870.73 1511.04,1870.73C1455.5,1871 1460.37,1937.59 1460.37,1937.59C1460.37,1937.59 1458.63,1998.54 1511.11,1998.74Z" style="fill-opacity:0.6;"/>
        <g transform="matrix(1,0,0,1,602.368,0)">
            <path d="M1460.6,2001.87L1460.52,2116.89C1410.33,2111.84 1413.11,2068.26 1413.11,2068.26L1413.11,1894.36C1413.11,1894.36 1412.43,1860.06 1410.07,1838.6L1427.01,1838.8C1439.1,1838.8 1458.7,1854.59 1458.7,1871.87C1458.7,1871.87 1473.47,1833.15 1524.63,1833.15C1575.8,1833.15 1611.27,1878.08 1611.27,1934.18C1611.27,1990.28 1581.62,2036.42 1525.52,2036.42C1491.12,2036.42 1471.35,2020.77 1460.6,2001.87ZM1511.11,1998.74C1511.16,1998.74 1511.47,1998.74 1511.52,1998.74C1565.69,1998.74 1562.26,1937.59 1562.26,1937.59C1562.26,1937.59 1567.13,1871 1511.59,1870.73C1511.51,1870.73 1511.11,1870.73 1511.04,1870.73C1455.5,1871 1460.37,1937.59 1460.37,1937.59C1460.37,1937.59 1458.63,1998.54 1511.11,1998.74Z" style="fill-opacity:0.6;"/>
        </g>
    </g>
</svg>
