<?xml version="1.0" encoding="UTF-8" standalone="no"?>
<!DOCTYPE svg PUBLIC "-//W3C//DTD SVG 1.1//EN" "http://www.w3.org/Graphics/SVG/1.1/DTD/svg11.dtd">
<svg width="100%" height="100%" viewBox="0 0 128 128" version="1.1" xmlns="http://www.w3.org/2000/svg" xmlns:xlink="http://www.w3.org/1999/xlink" xml:space="preserve" xmlns:serif="http://www.serif.com/" style="fill-rule:evenodd;clip-rule:evenodd;stroke-linejoin:round;stroke-miterlimit:2;">
    <g transform="matrix(0.965517,0,0,0.965517,2.36233,0.217678)">
        <path d="M106.129,29.646C115.099,13.678 103.099,8.483 90.329,10.431C90.329,10.431 89.222,3.36 89.078,3.024C99.78,-0.127 109.4,-1.017 116.254,1.316C135.252,10.046 134.05,40.228 80.541,76.277C60.015,90.106 47.737,95.805 31.985,90.106C19.48,94.483 8.706,93.617 0,86.57C36.242,83.781 85.062,56.99 106.129,29.646ZM24.025,42.272L27.344,44.557C15.079,55.788 7.143,67.572 9.355,76.302C5.748,66.513 12.361,54.176 24.025,42.272Z" style="fill:rgb(90,96,243);"/>
    </g>
    <g transform="matrix(0.965517,0,0,0.965517,2.36233,0.217678)">
        <path d="M120.825,78.586C109.596,102.152 84.742,117.235 56.727,125.537C80.249,126.312 112.803,119.387 127.678,92.845C124.377,95.123 122.287,95.828 119.325,95.665C121.529,90.845 121.935,82.599 120.825,78.586Z" style="fill:rgb(90,96,243);fill-rule:nonzero;"/>
    </g>
    <g transform="matrix(0.965517,0,0,0.965517,2.36233,0.217678)">
        <path d="M96.932,121.293C98.598,124.81 100.264,128.141 101.375,130.547C101.56,131.102 101.558,131.657 101.002,131.843C100.632,132.213 100.079,132.213 99.524,131.843L88.047,124.069C91.193,123.329 94.156,122.404 96.932,121.293ZM75.649,115.741L58.251,103.896L66.764,87.98C71.206,85.759 75.462,82.983 79.719,79.837L97.673,88.165L58.435,103.896L85.271,96.679C85.271,96.679 87.493,101.49 90.455,107.598C85.828,110.559 81.016,113.335 75.649,115.741ZM97.673,88.165L82.495,77.616C85.641,75.21 90.086,71.879 94.713,68.177L97.673,88.165ZM91.011,42.822C84.719,48.189 76.758,53.741 70.465,57.813C67.504,59.664 64.545,61.515 61.584,63.18L19.758,34.309L85.643,4.697L91.011,42.822Z" style="fill:rgb(245,181,35);"/>
    </g>
</svg>
