<svg width="1080" height="200" viewBox="0 0 1080 200" fill="none" xmlns="http://www.w3.org/2000/svg">
<g clip-path="url(#clip0_954_1967)">
<path d="M67.4792 143.732C77.3001 141.306 78.34 146.274 78.4555 149.625C78.34 158.983 68.8657 157.019 69.3279 164.414C69.9056 173.541 83.3082 179.896 91.2805 179.318C104.914 178.394 117.393 169.844 116.468 156.326C115.544 142.346 70.9454 134.142 68.5191 99.1335C66.9015 75.7944 85.8501 58.4634 108.611 57.1925C132.528 55.6904 144.429 72.9059 145.7 90.3525C146.393 100.058 138.074 107.106 128.947 107.684C122.361 108.146 116.468 102.831 116.122 96.7072C116.006 95.2052 117.97 92.4322 119.357 91.97L122.707 91.739C123.863 91.6234 125.249 91.97 126.636 91.8545C127.213 91.8545 128.369 90.9302 128.947 90.6991C135.879 80.0694 116.468 76.9498 109.882 77.412C99.2528 78.2208 88.8541 86.193 89.6629 96.8227C89.894 99.9423 90.5872 101.444 92.3203 104.217C106.647 125.13 138.652 124.783 138.767 159.214C138.652 183.247 112.078 194.339 91.8582 195.725C73.1407 196.996 53.7299 184.056 52.459 165.8C51.7658 156.095 56.1563 146.389 67.4792 143.732Z" fill="white"/>
<path d="M161.643 114.385C161.874 112.767 163.492 106.644 163.492 106.644C162.105 106.759 154.364 107.684 153.555 107.106L151.938 105.604C151.245 104.448 151.36 102.138 151.245 100.982C151.013 98.2093 153.671 90.237 155.635 88.735C176.432 87.4641 163.838 71.7506 181.863 70.4797C186.715 70.133 187.293 75.7945 187.524 79.0296C187.64 80.185 185.676 83.9979 185.791 84.2289C202.429 81.5715 233.394 50.2601 276.606 44.9453C287.235 43.5588 299.829 49.9135 301.562 60.7743C302.487 66.2047 301.216 75.1013 295.554 75.2168C286.889 76.3722 284.809 69.6709 284.809 63.0851C284.693 61.6986 281.92 60.8898 278.685 61.352C248.298 64.8182 208.206 89.6593 183.827 107.221C181.863 118.544 175.046 146.852 175.739 157.25C176.086 161.525 176.663 161.641 179.783 164.76L181.401 165.454L183.365 165.338C188.217 162.796 190.528 156.788 196.652 157.019C197.461 157.135 198.269 157.481 198.732 158.059C200.696 161.641 201.042 162.565 201.273 166.725C201.967 176.199 189.026 181.976 180.938 182.554C150.551 184.749 158.061 132.409 161.643 114.385Z" fill="white"/>
<path d="M248.644 83.7667C253.266 83.42 257.772 83.5356 262.393 84.5754C266.322 85.6153 270.481 85.7308 274.525 87.2329C288.159 91.5078 293.358 108.03 294.282 120.855C295.553 139.341 287.003 161.641 271.752 172.617C266.322 176.545 258.234 178.279 251.879 178.741C227.385 180.474 209.36 162.912 207.743 138.879C205.779 113.807 221.492 85.6153 248.644 83.7667ZM227.038 141.306C228.078 155.633 238.823 158.637 251.764 157.712C266.784 156.672 276.143 137.031 275.218 123.512C274.294 109.763 264.473 106.875 262.74 101.329C260.891 100.289 258.812 100.404 256.616 100.636C237.783 101.906 225.883 123.975 227.038 141.306Z" fill="white"/>
<path d="M312.65 145.465C314.614 142.576 318.311 109.532 318.08 105.026C317.271 94.1649 308.144 100.057 307.45 88.9656C307.219 86.8858 309.183 80.8778 309.646 78.9136C311.032 76.7183 320.044 76.6028 322.817 76.6028C341.766 75.9095 336.566 80.5311 338.762 94.8581H339.108C345.116 85.846 350.662 78.6825 363.603 78.3359C373.77 77.9893 380.703 90.8142 381.28 99.9419C381.858 108.145 377.93 113.807 372.499 114.038C359.212 114.384 366.145 103.524 364.989 101.444C362.447 98.902 360.945 97.1689 357.479 97.2845L355.399 97.4C347.427 101.328 341.072 107.336 336.104 114.962C334.14 125.592 331.367 137.608 332.176 148.815C332.522 154.246 340.841 155.401 341.535 165.569C341.65 166.724 339.224 169.382 338.531 170.075C335.527 171.461 315.885 172.963 310.223 172.963C307.104 173.194 302.482 174.119 300.518 170.884L300.402 169.382C299.016 151.357 303.869 156.672 312.65 145.465Z" fill="white"/>
<path d="M382.548 157.366C381.623 143.616 392.137 146.158 394.795 139.572C397.683 132.987 399.532 108.608 398.954 101.444C398.492 94.0496 391.791 91.6232 391.329 84.3442C391.213 82.38 394.102 75.9098 395.488 74.6388C401.381 72.6746 406.58 71.7503 412.588 71.2881C416.516 71.0571 419.752 69.7861 421.6 73.9456L422.062 80.5314L423.449 80.4158C424.027 80.4158 429.226 77.0652 430.612 76.3719C438.007 72.5591 448.29 70.0172 456.724 69.4395C466.776 68.7463 467.932 73.9456 470.82 81.9178H471.167C482.605 72.9057 490.231 67.4753 505.598 66.4355C508.371 66.2044 511.144 67.0132 513.686 67.8219C524.431 70.826 525.24 78.6827 525.817 88.2725C527.435 111.612 511.375 142.345 530.323 161.063C543.726 174.35 560.942 169.266 570.3 168.688C573.42 168.457 575.615 168.688 576.424 170.191C581.392 177.816 566.834 184.286 554.125 186.02C548.925 186.828 536.909 184.864 533.674 183.709C486.303 167.88 507.215 131.6 504.789 96.8225C504.327 89.7746 502.016 85.2685 494.044 85.8462C485.84 86.4239 478.677 89.8901 473.709 96.4759C469.549 101.791 467.47 121.895 467.932 129.058C468.509 136.684 471.86 143.847 472.322 150.78C472.784 156.788 460.191 159.214 455.916 159.561C454.76 159.676 444.824 157.828 444.246 157.019L444.13 154.939C443.206 141.883 453.143 122.241 451.872 103.986C451.525 98.7867 449.561 90.6989 442.628 91.1611C438.122 91.5077 434.425 93.4719 430.612 95.8982C419.058 103.755 418.134 115.078 416.401 127.903C415.823 132.987 414.552 138.533 415.014 143.847C415.245 146.62 422.524 148.353 423.564 151.473L423.68 152.975C421.138 161.525 419.174 163.605 410.624 164.182C406.349 164.529 387.169 164.298 384.05 161.525C382.548 160.485 382.663 159.099 382.548 157.366Z" fill="white"/>
<path d="M524.335 52.571C523.988 48.0649 526.184 43.2122 528.726 39.746C539.933 24.1481 551.718 27.3832 568.471 26.2278C573.093 25.8812 578.177 25.7657 582.798 25.0724C585.34 24.7258 587.767 23.8015 590.54 23.8015L590.886 23.917L591.695 25.0724C591.926 26.2278 592.273 27.6143 592.388 28.8853C592.966 38.0129 578.523 42.9812 576.675 46.5629C573.208 53.0332 572.284 68.1689 572.746 75.1013C572.977 77.1811 572.977 79.7229 574.942 80.8783C578.87 81.5716 583.607 81.456 587.651 81.225C591.348 80.9939 618.385 79.1452 620.233 78.5675C622.775 76.0257 625.664 47.4872 625.317 42.519C624.97 38.0129 618.616 35.7021 618.154 29.9251C617.691 23.1083 632.249 22.2995 636.524 22.0684C640.799 21.8373 655.242 21.4907 657.553 23.917C658.362 24.8414 658.131 26.5745 658.246 27.7299C658.477 31.4272 649.927 39.6305 648.194 43.9055C647.847 44.7143 639.297 104.449 639.182 108.839C638.951 113.114 638.835 117.273 639.066 121.78C639.297 124.899 639.529 128.25 640.337 131.254C641.377 134.72 643.688 137.493 643.919 141.306C644.381 148.469 634.098 151.127 628.668 151.589C624.162 151.936 603.596 150.78 601.516 145.812L601.285 143.27C606.484 130.214 612.608 135.413 614.803 118.313C615.265 113.23 616.074 108.03 615.727 103.062C615.612 101.329 615.843 99.3648 614.225 98.3249C611.799 96.9384 588.46 98.2094 584.185 98.4405C581.874 98.556 575.288 99.2492 573.786 100.289C568.24 104.564 567.2 121.086 567.663 128.019C568.125 134.489 571.938 138.995 572.4 145.119C572.977 152.86 560.846 153.322 555.184 153.784C546.403 154.362 532.538 154.015 531.73 142.346C531.498 138.995 538.893 130.676 540.857 126.863C547.905 112.883 559.228 59.1568 557.611 45.0609C556.34 43.5589 552.065 43.9055 550.332 44.021C545.132 44.3677 539.702 46.3318 538.315 51.6467L538.546 54.7663L539.586 55.4595C541.782 56.2683 544.555 57.0771 544.786 59.9656C545.132 64.2406 539.817 66.898 536.12 67.2446C528.148 67.7068 524.797 58.8102 524.335 52.571Z" fill="white"/>
<path d="M653.505 123.513C652.696 111.034 660.206 99.0181 671.182 93.5877C676.497 91.0459 683.661 90.2371 689.322 89.7749C694.753 89.4283 705.498 89.0817 710.12 90.9303H710.351L710.697 90.6992C712.084 85.9621 712.777 81.5716 712.43 76.4878C711.968 69.0932 710.466 67.5912 702.841 68.1689C686.318 69.3243 685.625 84.8067 673.955 85.6155C669.334 85.9621 668.294 77.9898 668.178 75.1013C667.716 69.3243 671.876 66.5513 675.342 63.2007C677.422 62.5074 679.501 61.121 681.35 60.0811C689.669 55.575 697.063 52.9176 706.422 52.3399C722.713 51.1845 731.841 55.2284 733.112 73.3682C734.036 87.1175 728.837 99.4803 729.646 111.15C730.224 119.353 736.578 123.975 737.156 132.063C737.965 143.501 722.136 146.967 713.817 147.545C707.578 148.007 708.04 137.609 707.809 134.489C697.641 143.154 692.557 146.043 679.039 147.083C664.597 147.892 654.429 137.493 653.505 123.513ZM672.107 122.011C672.453 127.672 679.039 129.752 683.776 129.405C695.215 128.596 711.39 119.469 710.466 106.413C710.466 106.182 710.235 105.488 710.004 105.257L709.195 104.911C704.689 101.676 698.45 101.329 692.904 101.791C683.314 102.484 671.414 111.728 672.107 122.011Z" fill="white"/>
<path d="M743.388 99.4801C741.54 73.0214 759.795 46.3316 787.409 44.483C793.417 44.0208 807.051 45.5229 812.597 47.8337H812.944L813.175 47.6026C814.214 45.5229 814.446 42.981 815.023 41.0168C816.872 35.7019 820.338 34.5465 824.96 34.1999C832.701 33.6222 832.239 45.6384 831.546 50.7222C831.43 53.8418 823.804 79.145 821.609 82.2646C819.876 84.691 817.565 85.4997 814.792 85.6153C801.505 86.6552 819.183 58.2323 792.031 60.0809C773.198 61.3519 763.146 80.0694 764.417 97.5159C765.11 107.799 770.194 121.779 782.788 120.855C798.501 119.815 809.246 101.791 817.565 101.213C821.031 100.982 822.764 106.297 822.996 109.07C824.151 125.592 800.35 139.573 785.676 140.612C761.182 142.346 745.006 122.357 743.388 99.4801Z" fill="white"/>
<path d="M842.877 101.444C847.267 85.2685 854.662 40.4389 853.507 23.8012C852.929 15.4823 843.57 17.9086 842.877 9.12756C842.53 3.23501 850.387 0.346505 855.009 -0.000115338C856.395 -0.115655 875.113 -0.000115338 876.153 0.115425C876.499 0.230965 876.961 0.462045 877.192 0.808666C878.348 2.65731 878.463 4.27487 878.579 6.35459C879.157 15.2512 871.184 49.22 868.989 59.3875C868.527 61.8139 865.754 77.1807 865.869 78.9138H866.101C869.798 76.2564 896.372 56.2679 898.683 53.3794V52.5707C897.412 50.722 897.181 49.9132 896.95 47.8335C896.025 35.2396 914.743 36.8572 923.64 36.164C930.456 35.7018 931.612 35.8173 932.074 43.2119C932.189 45.1761 931.034 48.5267 929.648 50.0288C926.181 53.1484 922.022 53.1484 918.094 55.9213C916.36 56.9612 890.711 80.6469 888.515 83.1888V83.5354C891.866 97.9779 928.03 157.134 989.151 146.505C998.047 144.887 1001.28 138.995 1008.68 138.533C1009.6 138.417 1011.1 139.919 1011.57 140.728L1011.68 142.923C1012.37 152.86 994.235 164.645 978.29 165.8C914.974 170.191 883.778 117.735 864.252 86.7705C863.212 89.428 862.057 99.4799 862.172 102.368C862.75 110.341 869.798 113.114 870.376 122.126C871.3 134.72 857.782 134.489 848.654 135.182C844.957 135.413 831.554 136.568 830.052 132.409L829.821 129.058C828.55 111.612 838.833 116.002 842.877 101.444Z" fill="white"/>
<path d="M964.89 129.752C948.945 130.907 933.463 124.321 932.192 105.835C931.614 98.2093 940.164 91.2769 947.212 90.6992C951.487 90.3526 952.873 93.5877 953.105 97.285C953.336 100.173 947.79 102.946 948.599 108.146C950.332 113.692 962.117 114.616 966.623 114.269C975.751 113.692 980.141 106.875 979.563 98.0937C978.87 88.0418 946.057 86.1931 937.853 70.4797C936.351 68.1689 936.12 64.7026 935.889 61.8141C935.658 58.9256 936.813 55.6905 937.969 53.0331C943.284 39.9771 956.34 33.0446 969.742 32.1203C983.376 31.196 1004.52 35.7021 1005.68 52.4554C1006.25 61.352 1002.44 65.1648 994.121 65.7425C989.038 66.0891 988.575 61.8141 988.344 57.8858C988.229 55.575 989.846 53.4953 989.269 50.8378C987.189 46.3318 978.986 45.8696 974.711 46.2162C966.392 46.7939 955.415 49.9135 956.109 60.1966C956.109 60.4277 956.802 62.2763 957.033 62.5074C963.272 70.2486 980.141 71.0574 987.767 77.4121C994.815 82.6114 1000.94 92.3167 1001.52 101.098C1002.67 116.696 983.376 128.365 964.89 129.752Z" fill="white"/>
<path d="M752.064 200C751.14 200 750.447 200 750.1 200H741.319C739.24 200 737.506 200 736.235 200C735.196 200 734.387 199.769 733.809 199.422C733.116 198.96 732.885 198.036 732.885 196.88C732.885 194.57 733.925 192.49 736.004 190.526C736.467 190.064 736.813 189.717 736.929 189.601C737.044 189.486 737.16 189.37 737.275 189.255C737.391 189.139 738.084 188.562 739.471 187.406C740.973 186.251 742.128 185.211 742.706 184.749C742.821 184.633 743.052 184.518 743.283 184.171C743.861 183.709 743.977 183.478 744.67 183.016C745.016 182.669 745.363 182.438 745.479 182.322C746.518 181.514 747.212 180.82 747.674 180.358C748.483 179.549 749.06 178.625 749.291 177.585C749.638 176.43 749.407 175.043 749.06 174.35C748.598 173.31 747.443 172.617 746.172 172.617C745.248 172.617 744.67 172.733 744.092 172.848C742.937 173.31 742.359 174.004 741.666 175.852C741.55 176.314 741.204 176.776 740.857 177.008C739.702 178.047 738.2 178.279 736.351 177.816C736.12 177.816 735.658 177.701 734.964 177.354C733.462 176.545 733.231 174.812 733.925 172.964C734.618 171.231 735.542 169.729 736.813 168.573C738.315 167.187 740.395 166.262 742.359 165.916C742.359 165.916 742.937 165.8 744.092 165.685C744.785 165.569 745.825 165.569 747.212 165.569C747.674 165.569 749.638 165.8 751.718 166.493C754.029 167.302 755.877 168.689 757.033 170.768C758.072 172.733 758.419 174.928 758.304 176.661C758.188 178.972 757.264 180.705 755.877 182.553C755.762 182.669 755.531 182.9 755.3 183.247C754.722 183.824 754.375 184.171 754.144 184.402C753.451 184.98 751.833 186.366 750.678 187.406L749.638 188.33C748.483 189.255 746.865 190.641 747.096 190.526L746.172 191.335C746.056 191.45 745.941 191.681 745.941 191.797C745.941 192.143 746.287 192.259 746.865 192.259H747.558C748.02 192.259 748.829 192.259 750.216 192.259C751.256 192.259 752.18 192.259 752.873 192.259C754.029 192.259 755.877 192.143 757.033 192.837C757.841 193.414 758.535 194.454 758.65 195.841C758.766 197.689 757.726 199.076 757.148 199.307C756.455 199.653 755.531 199.885 754.144 199.885H753.913H753.798H752.064V200Z" fill="white"/>
<path d="M773.565 174.465C776.107 169.497 781.191 166.84 786.159 166.147C793.554 165.107 798.868 168.688 801.179 171.115C804.877 175.043 805.916 180.82 805.57 184.633C804.992 191.334 800.486 197.92 792.514 199.422C790.781 199.769 789.048 199.884 787.43 199.884C780.151 199.538 775.183 194.569 773.103 190.41C772.063 188.215 771.601 185.788 771.717 183.131C771.601 180.242 772.179 177.354 773.565 174.465ZM783.271 177.123C780.151 180.474 780.267 185.557 782.924 188.792C785.466 191.912 791.127 192.605 794.016 189.37C797.251 185.788 797.251 180.011 794.709 177.238C793.091 175.505 791.127 174.697 788.585 174.928C786.621 174.697 784.888 175.505 783.271 177.123Z" fill="white"/>
<path d="M834.793 200C833.869 200 833.175 200 832.829 200H824.048C821.968 200 820.235 200 818.964 200C817.924 200 817.115 199.769 816.538 199.422C815.844 198.96 815.613 198.036 815.613 196.88C815.613 194.57 816.653 192.49 818.733 190.526C819.195 190.064 819.542 189.717 819.657 189.601C819.773 189.486 819.888 189.37 820.004 189.255C820.119 189.139 820.813 188.562 822.199 187.406C823.701 186.251 824.857 185.211 825.434 184.749C825.55 184.633 825.781 184.518 826.012 184.171C826.59 183.709 826.705 183.478 827.398 183.016C827.745 182.669 828.092 182.438 828.207 182.322C829.247 181.514 829.94 180.82 830.402 180.358C831.211 179.549 831.789 178.625 832.02 177.585C832.367 176.43 832.136 175.043 831.789 174.35C831.327 173.31 830.171 172.617 828.9 172.617C827.976 172.617 827.398 172.733 826.821 172.848C825.665 173.31 825.088 174.004 824.394 175.852C824.279 176.314 823.932 176.776 823.586 177.008C822.43 178.047 820.928 178.279 819.08 177.816C818.848 177.816 818.386 177.701 817.693 177.354C816.191 176.545 815.96 174.812 816.653 172.964C817.346 171.231 818.271 169.729 819.542 168.573C821.044 167.187 823.123 166.262 825.088 165.916C825.088 165.916 825.665 165.8 826.821 165.685C827.514 165.569 828.554 165.569 829.94 165.569C830.402 165.569 832.367 165.8 834.446 166.493C836.757 167.302 838.606 168.689 839.761 170.768C840.801 172.733 841.148 174.928 841.032 176.661C840.917 178.972 839.992 180.705 838.606 182.553C838.49 182.669 838.259 182.9 838.028 183.247C837.45 183.824 837.104 184.171 836.873 184.402C836.179 184.98 834.562 186.366 833.406 187.406L832.367 188.33C831.211 189.255 829.594 190.641 829.825 190.526L828.9 191.335C828.785 191.45 828.669 191.681 828.669 191.797C828.669 192.143 829.016 192.259 829.594 192.259H830.287C830.749 192.259 831.558 192.259 832.944 192.259C833.984 192.259 834.909 192.259 835.602 192.259C836.757 192.259 838.606 192.143 839.761 192.837C840.57 193.414 841.263 194.454 841.379 195.841C841.494 197.689 840.454 199.076 839.877 199.307C839.184 199.653 838.259 199.885 836.873 199.885H836.642H836.526H834.793V200Z" fill="white"/>
<path d="M874.079 183.362C874.079 185.095 874.657 185.788 876.275 186.135C877.43 186.366 878.123 187.175 878.354 188.446C878.47 189.486 878.239 190.41 877.315 191.103C877.083 191.334 876.737 191.45 876.39 191.565C874.888 191.796 874.426 192.49 874.426 194.107V194.916C874.426 196.534 874.195 197.689 873.848 198.382C872.808 200.231 869.689 200.577 867.84 199.422C866.107 198.382 866.338 197.805 866.338 193.53C866.338 192.374 865.761 191.796 864.605 191.796C859.175 191.796 856.286 191.796 855.94 191.796C853.86 191.681 852.705 191.219 852.589 188.677C852.473 186.944 853.282 184.864 854.9 182.553C855.709 181.398 857.095 179.434 858.944 176.661C860.561 174.234 861.948 172.27 863.103 170.768C865.529 167.302 867.494 165.569 871.075 166.378C871.075 166.378 871.191 166.378 871.422 166.378C873.155 166.609 874.079 168.111 874.079 169.497V176.43V183.362ZM866.685 181.167C866.685 179.318 866.685 178.163 866.685 177.585C866.685 177.354 866.8 176.083 866.107 176.776C865.298 177.816 864.836 178.509 864.49 178.971C864.49 178.971 863.219 180.936 860.792 184.633C860.215 185.557 860.33 186.019 861.254 186.135C861.717 186.135 862.872 186.135 864.836 186.135C866.223 186.135 866.685 185.904 866.685 184.633C866.685 183.94 866.685 182.784 866.685 181.167Z" fill="white"/>
<path d="M1068.06 83.0736C1067.6 80.9939 1065.64 79.723 1063.67 80.1851C1062.17 80.5318 1061.02 81.6872 1060.78 83.0736L1059.86 87.5797C1059.51 88.9662 1058.36 90.1216 1056.86 90.4682L1052.35 91.3925C1050.27 91.7392 1049 93.8189 1049.35 95.7831C1049.69 97.2851 1050.85 98.4405 1052.35 98.7871L1056.86 99.7114C1058.36 100.058 1059.51 101.213 1059.74 102.6L1060.67 107.106C1061.02 109.186 1063.09 110.457 1065.06 110.11C1066.56 109.763 1067.72 108.608 1068.06 107.106L1068.99 102.6C1069.33 101.098 1070.49 99.9425 1071.88 99.7114L1076.38 98.7871C1078.46 98.4405 1079.73 96.3608 1079.39 94.3966C1079.04 92.8946 1077.88 91.7392 1076.38 91.3925L1071.88 90.4682C1070.37 90.1216 1069.22 88.9662 1068.99 87.5797L1068.06 83.0736ZM1034.21 97.6317C1033.52 95.6675 1031.44 94.6277 1029.47 95.2054C1028.32 95.552 1027.51 96.4763 1027.05 97.6317L1024.5 105.373C1024.16 106.528 1023.23 107.337 1022.08 107.799L1014.45 110.226C1012.49 110.919 1011.45 112.999 1012.03 114.963C1012.37 116.118 1013.3 116.927 1014.45 117.389L1022.19 119.931C1023.35 120.278 1024.16 121.202 1024.62 122.357L1027.16 130.098C1027.86 132.063 1029.93 133.103 1031.9 132.525C1033.05 132.178 1033.86 131.254 1034.33 130.098L1036.87 122.357C1037.21 121.202 1038.14 120.393 1039.29 119.931L1047.03 117.389C1049 116.696 1050.04 114.616 1049.46 112.652C1049.11 111.497 1048.19 110.688 1047.03 110.226L1039.29 107.684C1038.14 107.337 1037.33 106.413 1036.87 105.257L1034.21 97.6317ZM1060.44 127.557C1059.74 125.592 1057.66 124.553 1055.7 125.13C1054.54 125.477 1053.74 126.401 1053.27 127.557L1052.58 129.636C1052.23 130.792 1051.31 131.601 1050.15 132.063L1048.07 132.756C1046.11 133.449 1045.07 135.529 1045.65 137.493C1045.99 138.648 1046.92 139.457 1048.07 139.919L1050.15 140.613C1051.31 140.959 1052.12 141.884 1052.58 143.039L1053.27 145.119C1053.97 147.083 1056.05 148.123 1058.01 147.545C1059.17 147.198 1059.98 146.274 1060.44 145.119L1061.13 143.039C1061.48 141.884 1062.4 141.075 1063.56 140.613L1065.64 139.919C1067.6 139.226 1068.64 137.146 1068.06 135.182C1067.72 134.027 1066.79 133.218 1065.64 132.756L1063.56 132.063C1062.4 131.716 1061.59 130.792 1061.13 129.636L1060.44 127.557Z" fill="white"/>
<path d="M33.9756 101.213L31.4337 108.954C31.0871 109.994 30.1628 110.919 29.0074 111.265L21.3817 113.807C20.2263 114.154 19.4176 115.078 18.9554 116.233C18.2622 118.198 19.4176 120.277 21.3817 120.971L29.1229 123.513C30.2783 123.859 31.0871 124.783 31.5493 125.939L34.0912 133.68C34.4378 134.835 35.3621 135.644 36.5175 136.106C38.4817 136.8 40.5614 135.644 41.2547 133.68L43.7965 125.939C44.1432 124.783 45.0675 123.975 46.2229 123.513L53.9641 120.971C55.1195 120.624 55.9283 119.7 56.3904 118.544C57.0837 116.58 55.9283 114.5 53.9641 113.807L45.9918 111.265C44.9519 110.919 44.0276 109.994 43.681 108.954L41.1391 101.213C40.7925 100.058 39.8682 99.2491 38.7128 98.7869C36.7486 98.2092 34.6689 99.2491 33.9756 101.213ZM7.05477 133.333C6.70815 134.489 5.78383 135.298 4.62842 135.76L2.5487 136.337C1.3933 136.684 0.584519 137.608 0.122358 138.764C-0.570883 140.728 0.584518 142.808 2.5487 143.501L4.62842 144.194C5.78383 144.541 6.59261 145.465 7.05477 146.621L7.74801 148.7C8.09463 149.856 9.01895 150.664 10.1744 151.127C12.1385 151.82 14.2183 150.664 14.9115 148.7L15.6047 146.621C15.9514 145.465 16.8757 144.656 18.0311 144.194L20.1108 143.501C21.2662 143.154 22.075 142.23 22.5371 141.075C23.2304 139.11 22.075 137.031 20.1108 136.337L18.0311 135.644C16.8757 135.298 16.0669 134.373 15.6047 133.218L14.9115 131.138C14.5649 129.983 13.6406 129.174 12.4852 128.712C10.521 128.019 8.44125 129.174 7.74801 131.138L7.05477 133.333Z" fill="white"/>
</g>
<defs>
<clipPath id="clip0_954_1967">
<rect width="1079.38" height="200" fill="white"/>
</clipPath>
</defs>
</svg>
