<svg width="331" height="200" viewBox="0 0 331 200" fill="none" xmlns="http://www.w3.org/2000/svg">
<path d="M140.325 199.948C139.781 199.948 139.374 199.948 139.17 199.948H134.009C132.786 199.948 131.767 199.948 131.02 199.948C130.409 199.948 129.934 199.812 129.594 199.608C129.187 199.337 129.051 198.793 129.051 198.114C129.051 196.756 129.662 195.533 130.885 194.379C131.156 194.107 131.36 193.903 131.428 193.835C131.496 193.767 131.564 193.699 131.632 193.632C131.7 193.564 132.107 193.224 132.922 192.545C133.805 191.866 134.484 191.255 134.824 190.983C134.892 190.915 135.027 190.847 135.163 190.643C135.503 190.372 135.571 190.236 135.978 189.964C136.182 189.76 136.386 189.625 136.454 189.557C137.065 189.081 137.472 188.674 137.744 188.402C138.219 187.927 138.559 187.383 138.695 186.772C138.899 186.093 138.763 185.278 138.559 184.87C138.287 184.259 137.608 183.852 136.861 183.852C136.318 183.852 135.978 183.92 135.639 183.988C134.959 184.259 134.62 184.667 134.212 185.753C134.144 186.025 133.941 186.297 133.737 186.432C133.058 187.044 132.175 187.18 131.088 186.908C130.952 186.908 130.681 186.84 130.273 186.636C129.39 186.161 129.255 185.142 129.662 184.055C130.07 183.037 130.613 182.154 131.36 181.475C132.243 180.66 133.465 180.116 134.62 179.913C134.62 179.913 134.959 179.845 135.639 179.777C136.046 179.709 136.657 179.709 137.472 179.709C137.744 179.709 138.899 179.845 140.121 180.252C141.479 180.728 142.566 181.543 143.245 182.765C143.856 183.92 144.06 185.21 143.992 186.229C143.924 187.587 143.381 188.606 142.566 189.692C142.498 189.76 142.362 189.896 142.227 190.1C141.887 190.44 141.683 190.643 141.547 190.779C141.14 191.119 140.189 191.934 139.51 192.545L138.899 193.088C138.219 193.632 137.269 194.447 137.404 194.379L136.861 194.854C136.793 194.922 136.725 195.058 136.725 195.126C136.725 195.329 136.929 195.397 137.269 195.397H137.676C137.948 195.397 138.423 195.397 139.238 195.397C139.849 195.397 140.393 195.397 140.8 195.397C141.479 195.397 142.566 195.329 143.245 195.737C143.721 196.077 144.128 196.688 144.196 197.503C144.264 198.589 143.653 199.404 143.313 199.54C142.906 199.744 142.362 199.88 141.547 199.88H141.411H141.344H140.325V199.948Z" fill="white"/>
<path d="M152.964 184.938C154.458 182.018 157.446 180.456 160.367 180.048C164.713 179.437 167.838 181.542 169.196 182.969C171.369 185.278 171.981 188.674 171.777 190.915C171.437 194.854 168.788 198.725 164.102 199.608C163.083 199.812 162.065 199.88 161.114 199.88C156.835 199.676 153.915 196.756 152.692 194.311C152.081 193.02 151.809 191.594 151.877 190.032C151.809 188.334 152.149 186.636 152.964 184.938ZM158.669 186.5C156.835 188.47 156.903 191.458 158.465 193.36C159.959 195.194 163.287 195.601 164.985 193.699C166.887 191.594 166.887 188.198 165.393 186.568C164.442 185.549 163.287 185.074 161.793 185.21C160.639 185.074 159.62 185.549 158.669 186.5Z" fill="white"/>
<path d="M188.954 199.948C188.41 199.948 188.003 199.948 187.799 199.948H182.638C181.415 199.948 180.396 199.948 179.649 199.948C179.038 199.948 178.563 199.812 178.223 199.608C177.816 199.337 177.68 198.793 177.68 198.114C177.68 196.756 178.291 195.533 179.513 194.379C179.785 194.107 179.989 193.903 180.057 193.835C180.125 193.767 180.193 193.699 180.261 193.632C180.328 193.564 180.736 193.224 181.551 192.545C182.434 191.866 183.113 191.255 183.453 190.983C183.521 190.915 183.656 190.847 183.792 190.643C184.132 190.372 184.2 190.236 184.607 189.964C184.811 189.76 185.015 189.625 185.083 189.557C185.694 189.081 186.101 188.674 186.373 188.402C186.848 187.927 187.188 187.383 187.324 186.772C187.528 186.093 187.392 185.278 187.188 184.87C186.916 184.259 186.237 183.852 185.49 183.852C184.947 183.852 184.607 183.92 184.268 183.988C183.588 184.259 183.249 184.667 182.841 185.753C182.773 186.025 182.57 186.297 182.366 186.432C181.687 187.044 180.804 187.18 179.717 186.908C179.581 186.908 179.31 186.84 178.902 186.636C178.019 186.161 177.883 185.142 178.291 184.055C178.698 183.037 179.242 182.154 179.989 181.475C180.872 180.66 182.094 180.116 183.249 179.913C183.249 179.913 183.588 179.845 184.268 179.777C184.675 179.709 185.286 179.709 186.101 179.709C186.373 179.709 187.528 179.845 188.75 180.252C190.108 180.728 191.195 181.543 191.874 182.765C192.485 183.92 192.689 185.21 192.621 186.229C192.553 187.587 192.01 188.606 191.195 189.692C191.127 189.76 190.991 189.896 190.855 190.1C190.516 190.44 190.312 190.643 190.176 190.779C189.769 191.119 188.818 191.934 188.139 192.545L187.528 193.088C186.848 193.632 185.898 194.447 186.033 194.379L185.49 194.854C185.422 194.922 185.354 195.058 185.354 195.126C185.354 195.329 185.558 195.397 185.898 195.397H186.305C186.577 195.397 187.052 195.397 187.867 195.397C188.478 195.397 189.022 195.397 189.429 195.397C190.108 195.397 191.195 195.329 191.874 195.737C192.35 196.077 192.757 196.688 192.825 197.503C192.893 198.589 192.282 199.404 191.942 199.54C191.535 199.744 190.991 199.88 190.176 199.88H190.04H189.973H188.954V199.948Z" fill="white"/>
<path d="M212.047 190.168C212.047 191.186 212.387 191.594 213.337 191.798C214.016 191.934 214.424 192.409 214.56 193.156C214.628 193.767 214.492 194.311 213.949 194.718C213.813 194.854 213.609 194.922 213.405 194.99C212.522 195.126 212.251 195.533 212.251 196.484V196.959C212.251 197.91 212.115 198.589 211.911 198.997C211.3 200.083 209.466 200.287 208.379 199.608C207.361 198.997 207.497 198.657 207.497 196.144C207.497 195.465 207.157 195.126 206.478 195.126C203.286 195.126 201.588 195.126 201.384 195.126C200.162 195.058 199.483 194.786 199.415 193.292C199.347 192.273 199.822 191.051 200.773 189.692C201.248 189.013 202.063 187.859 203.15 186.229C204.101 184.802 204.916 183.648 205.595 182.765C207.021 180.727 208.176 179.709 210.281 180.184C210.281 180.184 210.349 180.184 210.485 180.184C211.504 180.32 212.047 181.203 212.047 182.018V186.093V190.168ZM207.7 188.877C207.7 187.791 207.7 187.111 207.7 186.772C207.7 186.636 207.768 185.889 207.361 186.296C206.885 186.908 206.614 187.315 206.41 187.587C206.41 187.587 205.663 188.741 204.237 190.915C203.897 191.458 203.965 191.73 204.508 191.798C204.78 191.798 205.459 191.798 206.614 191.798C207.429 191.798 207.7 191.662 207.7 190.915C207.7 190.507 207.7 189.828 207.7 188.877Z" fill="white"/>
<path d="M8.88018 58.1792C14.653 56.7529 15.2643 59.6733 15.3322 61.6429C15.2643 67.1441 9.69518 65.9895 9.96684 70.3361C10.3064 75.7015 18.1847 79.4369 22.8709 79.0973C30.885 78.554 38.2199 73.5282 37.6766 65.582C37.1332 57.3642 10.9177 52.5421 9.49143 31.9636C8.5406 18.2446 19.6788 8.05716 33.0583 7.31009C47.1169 6.42718 54.1122 16.5467 54.8593 26.802C55.2668 32.5069 50.3769 36.6498 45.0115 36.9894C41.1403 37.261 37.6766 34.1369 37.4728 30.5374C37.4049 29.6545 38.5595 28.0245 39.3745 27.7528L41.344 27.617C42.0232 27.5491 42.8382 27.7528 43.6532 27.6849C43.9928 27.6849 44.6719 27.1416 45.0115 27.0057C49.0865 20.7575 37.6766 18.9237 33.8054 19.1954C27.5571 19.6708 21.4446 24.357 21.9201 30.6053C22.0559 32.439 22.4634 33.3219 23.4821 34.9519C31.9037 47.2447 50.7164 47.0409 50.7844 67.2799C50.7164 81.4064 35.0958 87.9264 23.2105 88.7414C12.2081 89.4885 0.798179 81.8819 0.0511032 71.1511C-0.356393 65.4462 2.22442 59.7412 8.88018 58.1792Z" fill="white"/>
<path d="M64.2301 40.9285C64.3659 39.9777 65.3168 36.3781 65.3168 36.3781C64.5018 36.4461 59.9514 36.9894 59.476 36.6498L58.5252 35.7669C58.1177 35.0877 58.1856 33.7294 58.1177 33.0503C57.9818 31.4203 59.5439 26.7341 60.6985 25.8512C72.9234 25.1041 65.5205 15.8675 76.1154 15.1204C78.9679 14.9167 79.3075 18.2446 79.4433 20.1462C79.5112 20.8254 78.3566 23.0666 78.4245 23.2024C88.2045 21.6404 106.406 3.23514 131.807 0.111004C138.055 -0.703988 145.458 3.03139 146.476 9.4155C147.02 12.6075 146.273 17.8371 142.945 17.905C137.851 18.5842 136.629 14.645 136.629 10.7738C136.561 9.95882 134.931 9.48341 133.029 9.75507C115.167 11.7926 91.6002 26.3945 77.27 36.7177C76.1154 43.3735 72.1084 60.0129 72.5159 66.1254C72.7196 68.6382 73.0592 68.7062 74.8929 70.5399L75.8437 70.9474L76.9983 70.8795C79.8508 69.3853 81.2091 65.8537 84.8087 65.9895C85.2841 66.0574 85.7595 66.2612 86.0311 66.6008C87.1857 68.7062 87.3895 69.2495 87.5253 71.6945C87.9328 77.2636 80.3262 80.6594 75.5721 80.999C57.7102 82.2894 62.1247 51.5234 64.2301 40.9285Z" fill="white"/>
<path d="M115.372 22.9307C118.088 22.727 120.737 22.7949 123.454 23.4061C125.763 24.0174 128.208 24.0853 130.585 24.9682C138.599 27.4811 141.655 37.1931 142.198 44.7317C142.945 55.5983 137.92 68.7061 128.955 75.1581C125.763 77.4672 121.009 78.486 117.273 78.7577C102.875 79.7764 92.2801 69.4532 91.3293 55.3266C90.1747 40.5889 99.4113 24.0174 115.372 22.9307ZM102.671 56.7529C103.282 65.1745 109.599 66.9403 117.205 66.3969C126.034 65.7857 131.536 54.24 130.992 46.2938C130.449 38.2118 124.676 36.5139 123.657 33.2539C122.571 32.6427 121.348 32.7106 120.058 32.8464C108.987 33.5935 101.992 46.5655 102.671 56.7529Z" fill="white"/>
<path d="M152.995 59.1979C154.15 57.5 156.323 38.076 156.187 35.4273C155.712 29.0432 150.346 32.5069 149.939 25.987C149.803 24.7645 150.958 21.2329 151.229 20.0783C152.044 18.7879 157.342 18.72 158.972 18.72C170.11 18.3125 167.054 21.0291 168.344 29.4507H168.548C172.079 24.1532 175.339 19.9425 182.946 19.7387C188.923 19.535 192.998 27.0736 193.337 32.439C193.677 37.261 191.368 40.5889 188.176 40.7247C180.365 40.9285 184.44 34.5444 183.761 33.3219C182.267 31.8277 181.384 30.809 179.346 30.8769L178.124 30.9448C173.438 33.254 169.702 36.7856 166.782 41.2681C165.627 47.5163 163.997 54.5796 164.473 61.1675C164.677 64.3595 169.567 65.0387 169.974 71.0153C170.042 71.6944 168.616 73.2565 168.208 73.664C166.442 74.479 154.897 75.3619 151.569 75.3619C149.735 75.4977 147.018 76.0411 145.864 74.1394L145.796 73.2565C144.981 62.6616 147.833 65.7857 152.995 59.1979Z" fill="white"/>
<path d="M194.083 66.1933C193.539 58.1113 199.72 59.6054 201.282 55.7342C202.98 51.863 204.066 37.5327 203.727 33.3219C203.455 28.9753 199.516 27.5491 199.244 23.2704C199.176 22.1158 200.874 18.3125 201.689 17.5654C205.153 16.4109 208.209 15.8675 211.741 15.5959C214.05 15.46 215.952 14.713 217.038 17.1579L217.31 21.0292L218.125 20.9612C218.464 20.9612 221.521 18.9917 222.336 18.5842C226.682 16.343 232.727 14.8488 237.685 14.5092C243.593 14.1017 244.272 17.1579 245.97 21.8441H246.174C252.898 16.5467 257.38 13.3546 266.413 12.7434C268.043 12.6076 269.673 13.083 271.167 13.5584C277.483 15.3242 277.959 19.9425 278.298 25.5795C279.249 39.2986 269.809 57.3642 280.947 68.3666C288.825 76.1769 298.945 73.1886 304.446 72.8491C306.28 72.7132 307.57 72.8491 308.046 73.732C310.966 78.2144 302.409 82.0177 294.938 83.0365C291.882 83.5119 284.818 82.3573 282.917 81.6781C255.071 72.3736 267.364 51.048 265.938 30.6053C265.666 26.4624 264.308 23.8137 259.621 24.1533C254.799 24.4929 250.589 26.5304 247.668 30.4016C245.223 33.5257 244.001 45.3431 244.272 49.5539C244.612 54.0363 246.582 58.2471 246.853 62.3221C247.125 65.8537 239.722 67.28 237.209 67.4837C236.53 67.5516 230.689 66.465 230.35 65.9895L230.282 64.7671C229.738 57.0925 235.579 45.5468 234.832 34.8161C234.628 31.7599 233.474 27.0058 229.399 27.2774C226.75 27.4812 224.577 28.6357 222.336 30.062C215.544 34.6803 215.001 41.336 213.982 48.8747C213.642 51.863 212.895 55.123 213.167 58.2471C213.303 59.8771 217.581 60.8958 218.193 62.7296L218.261 63.6125C216.766 68.6383 215.612 69.8608 210.586 70.2003C208.073 70.4041 196.799 70.2682 194.965 68.6383C194.083 68.027 194.15 67.212 194.083 66.1933Z" fill="white"/>
<path d="M43.951 106.495C43.7472 103.847 45.0376 100.994 46.5317 98.9568C53.1196 89.7881 60.047 91.6898 69.8949 91.0106C72.6115 90.8069 75.5998 90.739 78.3164 90.3315C79.8106 90.1277 81.2368 89.5844 82.8668 89.5844L83.0706 89.6523L83.546 90.3315C83.6818 91.0106 83.8856 91.8256 83.9535 92.5727C84.2931 97.9381 75.8036 100.858 74.7169 102.964C72.6794 106.767 72.1361 115.664 72.4078 119.739C72.5436 120.962 72.5436 122.456 73.6981 123.135C76.0073 123.542 78.7919 123.474 81.1689 123.339C83.3422 123.203 99.2346 122.116 100.321 121.777C101.815 120.282 103.513 103.507 103.31 100.587C103.106 97.9381 99.3704 96.5797 99.0987 93.1839C98.8271 89.1769 107.384 88.7015 109.897 88.5656C112.41 88.4298 120.9 88.2261 122.258 89.6523C122.734 90.1956 122.598 91.2144 122.666 91.8935C122.801 94.0668 117.776 98.8889 116.757 101.402C116.553 101.877 111.527 136.99 111.459 139.571C111.324 142.083 111.256 144.528 111.392 147.177C111.527 149.011 111.663 150.98 112.139 152.746C112.75 154.784 114.108 156.414 114.244 158.655C114.516 162.866 108.471 164.428 105.279 164.699C102.63 164.903 90.5413 164.224 89.3188 161.304L89.183 159.81C92.2392 152.135 95.8388 155.191 97.1292 145.14C97.4008 142.151 97.8763 139.095 97.6725 136.175C97.6046 135.156 97.7404 134.001 96.7896 133.39C95.3634 132.575 81.6443 133.322 79.1314 133.458C77.7731 133.526 73.9019 133.934 73.019 134.545C69.759 137.058 69.1478 146.77 69.4195 150.845C69.6911 154.648 71.9323 157.297 72.204 160.896C72.5436 165.447 65.4124 165.718 62.0845 165.99C56.9229 166.329 48.773 166.126 48.2976 159.266C48.1617 157.297 52.5084 152.407 53.6629 150.165C57.8058 141.948 64.4616 110.367 63.5107 102.081C62.7637 101.198 60.2508 101.402 59.2321 101.47C56.1758 101.673 52.9838 102.828 52.1688 105.952L52.3046 107.786L52.9159 108.193C54.2063 108.669 55.8363 109.144 55.9721 110.842C56.1758 113.355 53.0517 114.917 50.8784 115.121C46.1922 115.392 44.2226 110.163 43.951 106.495Z" fill="white"/>
<path d="M119.879 148.196C119.403 140.861 123.818 133.798 130.27 130.606C133.394 129.111 137.605 128.636 140.933 128.364C144.125 128.161 150.441 127.957 153.158 129.044H153.293L153.497 128.908C154.312 126.123 154.72 123.542 154.516 120.554C154.244 116.207 153.361 115.325 148.879 115.664C139.167 116.343 138.759 125.444 131.9 125.919C129.183 126.123 128.572 121.437 128.504 119.739C128.232 116.343 130.677 114.713 132.715 112.744C133.937 112.336 135.16 111.521 136.247 110.91C141.136 108.261 145.483 106.699 150.984 106.36C160.56 105.68 165.926 108.058 166.673 118.72C167.216 126.802 164.16 134.069 164.635 140.929C164.975 145.751 168.71 148.468 169.05 153.222C169.525 159.945 160.221 161.983 155.331 162.322C151.663 162.594 151.935 156.482 151.799 154.648C145.823 159.742 142.834 161.439 134.888 162.051C126.399 162.526 120.422 156.414 119.879 148.196ZM130.813 147.313C131.017 150.641 134.888 151.863 137.673 151.66C144.396 151.184 153.905 145.819 153.361 138.144C153.361 138.008 153.226 137.601 153.09 137.465L152.614 137.261C149.966 135.36 146.298 135.156 143.038 135.428C137.401 135.835 130.406 141.268 130.813 147.313Z" fill="white"/>
<path d="M172.714 134.069C171.628 118.517 182.358 102.828 198.59 101.741C202.122 101.47 210.136 102.353 213.396 103.711H213.6L213.736 103.575C214.347 102.353 214.483 100.858 214.822 99.7039C215.909 96.5798 217.946 95.9006 220.663 95.6969C225.213 95.3573 224.942 102.421 224.534 105.409C224.466 107.243 219.984 122.116 218.693 123.95C217.675 125.376 216.316 125.852 214.686 125.919C206.876 126.531 217.267 109.823 201.307 110.91C190.237 111.657 184.328 122.66 185.075 132.915C185.482 138.959 188.471 147.177 195.874 146.634C205.11 146.023 211.426 135.428 216.316 135.088C218.354 134.952 219.373 138.076 219.508 139.706C220.188 149.418 206.197 157.636 197.572 158.248C183.173 159.266 173.665 147.517 172.714 134.069Z" fill="white"/>
<path d="M231.195 135.224C233.776 125.716 238.122 99.3645 237.443 89.5846C237.104 84.6947 231.603 86.1209 231.195 80.9593C230.991 77.4956 235.61 75.7977 238.326 75.5939C239.141 75.526 250.144 75.5939 250.755 75.6618C250.959 75.7298 251.23 75.8656 251.366 76.0693C252.045 77.156 252.113 78.1068 252.181 79.3293C252.521 84.5588 247.834 104.526 246.544 110.503C246.272 111.929 244.642 120.962 244.71 121.981H244.846C247.019 120.418 262.64 108.669 263.998 106.971V106.496C263.251 105.409 263.116 104.934 262.98 103.711C262.436 96.3083 273.439 97.2591 278.668 96.8516C282.675 96.58 283.355 96.6479 283.626 100.995C283.694 102.149 283.015 104.119 282.2 105.002C280.162 106.835 277.717 106.835 275.408 108.465C274.39 109.077 259.312 122.999 258.022 124.493V124.697C259.991 133.187 281.249 167.96 317.177 161.711C322.406 160.761 324.308 157.297 328.655 157.025C329.198 156.957 330.081 157.84 330.352 158.316L330.42 159.606C330.828 165.447 320.165 172.374 310.793 173.053C273.575 175.634 255.237 144.8 243.76 126.599C243.148 128.161 242.469 134.07 242.537 135.767C242.877 140.454 247.019 142.084 247.359 147.381C247.902 154.784 239.956 154.648 234.591 155.056C232.418 155.191 224.539 155.871 223.656 153.426L223.521 151.456C222.773 141.201 228.818 143.782 231.195 135.224Z" fill="white"/>
<path d="M302.914 151.863C293.542 152.542 284.441 148.671 283.694 137.805C283.354 133.322 288.38 129.247 292.523 128.908C295.036 128.704 295.851 130.606 295.987 132.779C296.123 134.477 292.863 136.107 293.338 139.163C294.357 142.423 301.284 142.966 303.933 142.763C309.298 142.423 311.879 138.416 311.54 133.254C311.132 127.346 291.844 126.259 287.022 117.022C286.139 115.664 286.003 113.627 285.867 111.929C285.732 110.231 286.411 108.329 287.09 106.767C290.214 99.0926 297.889 95.0176 305.767 94.4743C313.781 93.931 326.209 96.5797 326.889 106.428C327.228 111.657 324.987 113.898 320.097 114.238C317.109 114.442 316.837 111.929 316.701 109.62C316.633 108.261 317.584 107.039 317.245 105.477C316.022 102.828 311.2 102.556 308.687 102.76C303.797 103.1 297.345 104.933 297.753 110.978C297.753 111.114 298.16 112.2 298.296 112.336C301.963 116.887 311.879 117.362 316.362 121.097C320.505 124.154 324.104 129.859 324.444 135.02C325.123 144.189 313.781 151.048 302.914 151.863Z" fill="white"/>
<path d="M321.46 22.9866C321.189 21.7641 320.034 21.017 318.88 21.2887C317.997 21.4924 317.318 22.1716 317.182 22.9866L316.638 25.6353C316.435 26.4503 315.756 27.1294 314.873 27.3332L312.224 27.8765C311.001 28.0803 310.254 29.3028 310.458 30.4573C310.662 31.3402 311.341 32.0194 312.224 32.2231L314.873 32.7665C315.756 32.9702 316.435 33.6494 316.57 34.4644L317.114 37.1131C317.318 38.3356 318.54 39.0827 319.695 38.8789C320.578 38.6752 321.257 37.996 321.46 37.1131L322.004 34.4644C322.207 33.5815 322.887 32.9023 323.702 32.7665L326.35 32.2231C327.573 32.0194 328.32 30.7969 328.116 29.6423C327.912 28.7594 327.233 28.0803 326.35 27.8765L323.702 27.3332C322.819 27.1294 322.14 26.4503 322.004 25.6353L321.46 22.9866ZM301.561 31.544C301.154 30.3894 299.931 29.7782 298.776 30.1177C298.097 30.3215 297.622 30.8648 297.35 31.544L295.856 36.0944C295.652 36.7735 295.109 37.2489 294.43 37.5206L289.947 38.9468C288.793 39.3543 288.182 40.5768 288.521 41.7314C288.725 42.4105 289.268 42.886 289.947 43.1576L294.498 44.6518C295.177 44.8555 295.652 45.3988 295.924 46.078L297.418 50.6284C297.826 51.783 299.048 52.3942 300.203 52.0546C300.882 51.8509 301.357 51.3075 301.629 50.6284L303.123 46.078C303.327 45.3988 303.87 44.9234 304.549 44.6518L309.1 43.1576C310.254 42.7501 310.866 41.5276 310.526 40.3731C310.322 39.6939 309.779 39.2185 309.1 38.9468L304.549 37.4527C303.87 37.2489 303.395 36.7056 303.123 36.0264L301.561 31.544ZM316.978 49.1342C316.57 47.9797 315.348 47.3684 314.193 47.708C313.514 47.9117 313.039 48.4551 312.767 49.1342L312.36 50.3567C312.156 51.0359 311.613 51.5113 310.933 51.783L309.711 52.1904C308.556 52.5979 307.945 53.8204 308.285 54.975C308.488 55.6542 309.032 56.1296 309.711 56.4012L310.933 56.8087C311.613 57.0125 312.088 57.5558 312.36 58.235L312.767 59.4575C313.175 60.612 314.397 61.2233 315.552 60.8837C316.231 60.6799 316.706 60.1366 316.978 59.4575L317.385 58.235C317.589 57.5558 318.133 57.0804 318.812 56.8087L320.034 56.4012C321.189 55.9937 321.8 54.7713 321.46 53.6167C321.257 52.9375 320.713 52.4621 320.034 52.1904L318.812 51.783C318.133 51.5792 317.657 51.0359 317.385 50.3567L316.978 49.1342Z" fill="white"/>
<path d="M29.9891 131.418L28.4949 135.969C28.2912 136.58 27.7479 137.123 27.0687 137.327L22.5862 138.821C21.9071 139.025 21.4317 139.568 21.16 140.247C20.7525 141.402 21.4317 142.624 22.5862 143.032L27.1366 144.526C27.8158 144.73 28.2912 145.273 28.5628 145.952L30.057 150.503C30.2607 151.182 30.8041 151.657 31.4832 151.929C32.6378 152.336 33.8603 151.657 34.2678 150.503L35.7619 145.952C35.9657 145.273 36.509 144.798 37.1882 144.526L41.7386 143.032C42.4177 142.828 42.8931 142.285 43.1648 141.606C43.5723 140.451 42.8931 139.229 41.7386 138.821L37.0523 137.327C36.4411 137.123 35.8978 136.58 35.694 135.969L34.1999 131.418C33.9961 130.739 33.4528 130.264 32.7736 129.992C31.6191 129.652 30.3966 130.264 29.9891 131.418ZM14.1647 150.299C13.9609 150.978 13.4176 151.453 12.7384 151.725L11.5159 152.065C10.8368 152.268 10.3614 152.812 10.0897 153.491C9.6822 154.645 10.3614 155.868 11.5159 156.275L12.7384 156.683C13.4176 156.887 13.893 157.43 14.1647 158.109L14.5722 159.332C14.7759 160.011 15.3192 160.486 15.9984 160.758C17.153 161.165 18.3754 160.486 18.7829 159.332L19.1904 158.109C19.3942 157.43 19.9375 156.955 20.6167 156.683L21.8392 156.275C22.5183 156.072 22.9937 155.528 23.2654 154.849C23.6729 153.695 22.9937 152.472 21.8392 152.065L20.6167 151.657C19.9375 151.453 19.4621 150.91 19.1904 150.231L18.7829 149.008C18.5792 148.329 18.0359 147.854 17.3567 147.582C16.2021 147.175 14.9796 147.854 14.5722 149.008L14.1647 150.299Z" fill="white"/>
<path d="M112.805 48.382C113.484 48.1104 114.027 47.635 114.231 46.9558L114.639 45.6654C115.046 44.5108 116.269 43.8317 117.423 44.2392C118.102 44.5108 118.646 44.9862 118.849 45.6654L119.257 46.8879C119.529 47.5671 120.004 48.1104 120.683 48.3141L121.906 48.7216C123.06 49.1291 123.739 50.3516 123.332 51.5062C123.06 52.1853 122.585 52.7287 121.906 52.9324L120.683 53.3399C120.004 53.6116 119.461 54.087 119.257 54.7661L118.849 55.9886C118.442 57.1432 117.219 57.8224 116.065 57.4149C115.386 57.1432 114.842 56.6678 114.639 55.9886L114.231 54.7661C113.959 54.087 113.484 53.5437 112.805 53.3399L111.582 52.9324C110.428 52.5249 109.749 51.3024 110.156 50.1479C110.428 49.4687 110.903 48.9254 111.582 48.7216L112.805 48.382Z" fill="white"/>
</svg>
