<svg width="100%" height="100%" viewBox="0 0 101 129" fill="none" xmlns="http://www.w3.org/2000/svg">
<g filter="url(#filter0_d_6931_690)">
<rect x="9" y="9" width="83" height="111" stroke="#5A61FF" stroke-width="2"/>
</g>
<g filter="url(#filter1_d_6931_690)">
<path d="M8.6296 119.508C8.35769 119.988 8.52694 120.598 9.00765 120.87C9.48836 121.142 10.0985 120.973 10.3704 120.492L8.6296 119.508ZM37.5 70.5L38.4285 70.1286C38.2857 69.7716 37.9508 69.528 37.5671 69.5023C37.1834 69.4765 36.8189 69.6729 36.6296 70.0077L37.5 70.5ZM42.5 83L41.5715 83.3714C41.7128 83.7247 42.0424 83.9671 42.4217 83.9969C42.801 84.0267 43.1644 83.8387 43.3591 83.5118L42.5 83ZM56.5 59.5L57.4751 59.2784C57.3845 58.8796 57.0602 58.5762 56.6563 58.5123C56.2523 58.4484 55.8502 58.6369 55.6409 58.9882L56.5 59.5ZM59 70.5L58.0249 70.7216C58.1159 71.1223 58.4429 71.4266 58.8491 71.4886C59.2554 71.5506 59.6582 71.3577 59.8646 71.0024L59 70.5ZM81.4666 33.2439C81.3252 32.71 80.7777 32.3919 80.2439 32.5334L71.5441 34.8384C71.0102 34.9799 70.6921 35.5273 70.8335 36.0612C70.975 36.5951 71.5224 36.9132 72.0563 36.7717L79.7895 34.7228L81.8384 42.4559C81.9799 42.9898 82.5273 43.3079 83.0612 43.1665C83.5951 43.025 83.9132 42.4775 83.7717 41.9437L81.4666 33.2439ZM10.3704 120.492L38.3704 70.9923L36.6296 70.0077L8.6296 119.508L10.3704 120.492ZM36.5715 70.8714L41.5715 83.3714L43.4285 82.6286L38.4285 70.1286L36.5715 70.8714ZM43.3591 83.5118L57.3591 60.0118L55.6409 58.9882L41.6409 82.4882L43.3591 83.5118ZM55.5249 59.7216L58.0249 70.7216L59.9751 70.2784L57.4751 59.2784L55.5249 59.7216ZM59.8646 71.0024L81.3646 34.0024L79.6354 32.9976L58.1354 69.9976L59.8646 71.0024Z" fill="#5A61FF"/>
</g>
<g filter="url(#filter2_d_6931_690)">
<path fill-rule="evenodd" clip-rule="evenodd" d="M26 42.3172V36C26 33.7909 27.7909 32 30 32C32.2091 32 34 33.7909 34 36V42.3172C38.6608 40.6698 42 36.2249 42 31C42 24.3726 36.6274 19 30 19C23.3726 19 18 24.3726 18 31C18 36.2249 21.3392 40.6698 26 42.3172ZM34 26C34 28.2091 32.2091 30 30 30C27.7909 30 26 28.2091 26 26C26 23.7909 27.7909 22 30 22C32.2091 22 34 23.7909 34 26Z" fill="#5A61FF"/>
</g>
<defs>
<filter id="filter0_d_6931_690" x="0" y="0" width="101" height="129" filterUnits="userSpaceOnUse" color-interpolation-filters="sRGB">
<feFlood flood-opacity="0" result="BackgroundImageFix"/>
<feColorMatrix in="SourceAlpha" type="matrix" values="0 0 0 0 0 0 0 0 0 0 0 0 0 0 0 0 0 0 127 0" result="hardAlpha"/>
<feOffset/>
<feGaussianBlur stdDeviation="4"/>
<feColorMatrix type="matrix" values="0 0 0 0 0.254375 0 0 0 0 0.282826 0 0 0 0 0.925 0 0 0 0.75 0"/>
<feBlend mode="normal" in2="BackgroundImageFix" result="effect1_dropShadow_6931_690"/>
<feBlend mode="normal" in="SourceGraphic" in2="effect1_dropShadow_6931_690" result="shape"/>
</filter>
<filter id="filter1_d_6931_690" x="0.5" y="24.5" width="91.3047" height="104.5" filterUnits="userSpaceOnUse" color-interpolation-filters="sRGB">
<feFlood flood-opacity="0" result="BackgroundImageFix"/>
<feColorMatrix in="SourceAlpha" type="matrix" values="0 0 0 0 0 0 0 0 0 0 0 0 0 0 0 0 0 0 127 0" result="hardAlpha"/>
<feOffset/>
<feGaussianBlur stdDeviation="4"/>
<feColorMatrix type="matrix" values="0 0 0 0 0.254375 0 0 0 0 0.282826 0 0 0 0 0.925 0 0 0 0.75 0"/>
<feBlend mode="normal" in2="BackgroundImageFix" result="effect1_dropShadow_6931_690"/>
<feBlend mode="normal" in="SourceGraphic" in2="effect1_dropShadow_6931_690" result="shape"/>
</filter>
<filter id="filter2_d_6931_690" x="10" y="11" width="40" height="39.3174" filterUnits="userSpaceOnUse" color-interpolation-filters="sRGB">
<feFlood flood-opacity="0" result="BackgroundImageFix"/>
<feColorMatrix in="SourceAlpha" type="matrix" values="0 0 0 0 0 0 0 0 0 0 0 0 0 0 0 0 0 0 127 0" result="hardAlpha"/>
<feOffset/>
<feGaussianBlur stdDeviation="4"/>
<feColorMatrix type="matrix" values="0 0 0 0 0.254375 0 0 0 0 0.282826 0 0 0 0 0.925 0 0 0 0.75 0"/>
<feBlend mode="normal" in2="BackgroundImageFix" result="effect1_dropShadow_6931_690"/>
<feBlend mode="normal" in="SourceGraphic" in2="effect1_dropShadow_6931_690" result="shape"/>
</filter>
</defs>
</svg>
