<?xml version="1.0" encoding="UTF-8" standalone="no"?>
<!DOCTYPE svg PUBLIC "-//W3C//DTD SVG 1.1//EN" "http://www.w3.org/Graphics/SVG/1.1/DTD/svg11.dtd">
<svg viewBox="0 0 794 192" version="1.1" xmlns="http://www.w3.org/2000/svg" style="fill-rule:evenodd;clip-rule:evenodd;">
    <g  filter="url(#filter0_d_6961_780)" transform="matrix(1.01712,0,0,1.01712,-8.1282,6.3615)">
        <path d="M188.832,57.229C196.428,54.721 212.574,48.586 216.39,44.114C220.205,39.642 232.995,38.524 238.913,38.524C247.392,35.156 265.675,27.431 270.975,23.475C277.599,18.53 296.942,22.615 301.182,19.175C305.421,15.735 307.011,12.08 309.131,12.295C310.827,12.467 313.371,12.797 314.43,12.94C314.254,12.08 314.536,10.231 317.08,9.715C319.624,9.199 321.496,9.5 322.115,9.715C323.97,7.279 327.891,2.663 328.739,3.695C329.799,4.985 347.022,17.885 347.817,17.885C348.612,17.885 349.672,16.165 350.467,17.025C351.262,17.885 353.912,20.68 356.296,20.68C358.681,20.68 362.921,20.465 365.306,19.175C367.69,17.885 370.605,14.23 371.665,14.015C372.725,13.8 384.384,-2.11 389.153,1.545C393.923,5.2 396.308,7.78 398.427,6.92C400.547,6.06 402.137,1.545 404.257,1.545C406.377,1.545 411.676,6.92 416.711,6.92C421.745,6.92 421.745,10.36 423.6,10.79C425.455,11.22 436.584,13.586 443.208,12.94C448.508,12.424 454.955,13.442 457.517,14.015C459.46,13.657 464.194,12.94 467.586,12.94C471.825,12.94 490.374,15.089 493.288,14.015C496.203,12.94 503.887,9.715 510.777,9.715C516.288,9.715 521.199,10.432 522.966,10.79C528.442,7.708 540.56,1.545 545.223,1.545C549.887,1.545 563.242,7.708 569.336,10.79C575.872,13.011 590.163,17.11 595.039,15.735C601.133,14.015 613.852,4.124 622.861,6.92C631.87,9.715 680.36,27.989 685.925,27.559C691.489,27.129 706.328,21.54 714.012,24.119C720.16,26.183 726.819,30.283 729.381,32.074C732.384,32.432 738.655,33.708 739.715,35.944C741.04,38.739 749.254,44.544 752.963,44.544C755.931,44.544 778.224,36.231 789,32.074L789,183L6,183L188.832,57.229Z" style="fill-rule:nonzero;"  fill="var(--footer-graphics-mountain-background)"/>
        <path d="M457.517,14.015C454.955,13.442 448.508,12.424 443.208,12.94C436.584,13.586 425.455,11.22 423.6,10.79C421.745,10.36 421.745,6.92 416.711,6.92C411.676,6.92 406.377,1.545 404.257,1.545C402.137,1.545 400.547,6.06 398.427,6.92C396.308,7.78 393.923,5.2 389.153,1.545C384.384,-2.11 372.725,13.8 371.665,14.015C370.605,14.23 367.69,17.885 365.306,19.175C362.921,20.465 358.681,20.68 356.296,20.68C353.912,20.68 351.262,17.885 350.467,17.025C349.672,16.165 348.612,17.885 347.817,17.885C347.022,17.885 329.799,4.985 328.739,3.695C327.891,2.663 323.97,7.279 322.115,9.715C321.496,9.5 319.624,9.199 317.08,9.715C314.536,10.231 314.254,12.08 314.43,12.94C313.371,12.797 310.827,12.467 309.131,12.295C307.011,12.08 305.421,15.735 301.182,19.175C296.942,22.615 277.599,18.53 270.975,23.475C265.675,27.431 247.392,35.156 238.913,38.524C232.995,38.524 220.205,39.642 216.39,44.114C212.574,48.586 196.428,54.721 188.832,57.229L6,183L789,183L789,119.147M457.517,14.015C459.46,13.657 464.194,12.94 467.586,12.94C471.825,12.94 490.374,15.089 493.288,14.015C496.203,12.94 503.887,9.715 510.777,9.715C516.288,9.715 521.199,10.432 522.966,10.79C528.442,7.708 540.56,1.545 545.223,1.545C549.887,1.545 563.242,7.708 569.336,10.79C575.872,13.011 590.163,17.11 595.039,15.735M457.517,14.015C454.337,13.62 446.706,13.411 441.618,15.735C435.259,18.64 438.439,20.68 431.284,23.475C424.13,26.27 411.411,40.459 406.377,41.964C401.342,43.469 392.863,41.104 387.828,47.339C383.801,52.327 373.608,59.271 369.015,62.12M595.039,15.735C601.133,14.015 613.852,4.124 622.861,6.92C631.87,9.715 680.36,27.989 685.925,27.559C691.489,27.129 706.328,21.54 714.012,24.119C720.16,26.183 726.819,30.283 729.381,32.074C732.384,32.432 738.655,33.708 739.715,35.944C741.04,38.739 749.254,44.544 752.963,44.544C755.931,44.544 778.224,36.231 789,32.074L789,119.147M595.039,15.735C596.187,16.451 600.921,18.444 610.672,20.68C622.861,23.475 620.741,19.175 635.58,27.559C650.418,35.944 665.787,37.449 670.026,47.339C674.266,57.229 676.916,62.388 681.42,64.323C685.925,66.258 711.097,67.333 717.987,77.438C724.876,87.543 739.715,85.823 746.339,88.403C752.963,90.983 755.083,96.572 762.238,97.002C769.392,97.432 772.042,95.927 776.281,102.377C779.673,107.537 786.174,115.707 789,119.147M343.313,70.773C345.079,68.91 350.467,64.71 357.886,62.818C360.649,62.114 364.673,61.964 369.015,62.12M389.153,64.323C384.552,63.514 376.333,62.382 369.015,62.12" style="fill:none;fill-rule:nonzero;stroke-width:1px;"  stroke="var(--footer-graphics-near-mountain-outline)"/>
    </g>
<defs>
<filter id="filter0_d_6961_780" x="0.390625" y="0.5" width="793.109" height="191" filterUnits="userSpaceOnUse" color-interpolation-filters="sRGB">
<feFlood flood-opacity="0" result="BackgroundImageFix"/>
<feColorMatrix in="SourceAlpha" type="matrix" values="0 0 0 0 0 0 0 0 0 0 0 0 0 0 0 0 0 0 127 0" result="hardAlpha"/>
<feOffset dy="4"/>
<feGaussianBlur stdDeviation="2"/>
<feComposite in2="hardAlpha" operator="out"/>
<feColorMatrix type="matrix" values="0 0 0 0 0 0 0 0 0 0 0 0 0 0 0 0 0 0 0.25 0"/>
<feBlend mode="normal" in2="BackgroundImageFix" result="effect1_dropShadow_6961_780"/>
<feBlend mode="normal" in="SourceGraphic" in2="effect1_dropShadow_6961_780" result="shape"/>
</filter>
</defs>
</svg>
