<svg width="247" height="272" viewBox="0 0 247 272" fill="none" xmlns="http://www.w3.org/2000/svg">
<path fill-rule="evenodd" clip-rule="evenodd" d="M100.771 21.167C108.303 11.5096 123.96 23.3083 116.022 35.7224L100.771 21.167Z" fill="#F9B443"/>
<path fill-rule="evenodd" clip-rule="evenodd" d="M141.735 138.311C136.21 125.04 147.918 109.258 149.074 94.5954C150.482 77.5675 145.129 63.5258 135.248 59.5817C124.75 55.4498 129.725 85.5268 127.239 94.1468C123.94 105.6 118.21 110.333 121.92 126.386L141.735 138.311Z" fill="#F29035"/>
<path fill-rule="evenodd" clip-rule="evenodd" d="M82.3648 185.452C96.3276 205.207 125.179 212.828 141.796 211.965C167.356 210.631 189.009 187.772 212.72 179.225C222.476 175.709 238.03 173.645 245.251 174.913C202.092 138.391 168.899 193.293 151.867 149.48L82.3648 185.452Z" fill="url(#paint0_linear_7049_726)"/>
<path fill-rule="evenodd" clip-rule="evenodd" d="M119.337 85.2797C131.389 119.548 202.429 191.598 183.412 220.34C171.014 231.238 169.413 230.398 160.155 223.857C150.184 215.381 154.529 213.705 145.482 218.405C136.436 223.105 155.931 233.367 136.687 245.509C120.681 255.608 100.2 244.934 91.9457 230.244C83.1508 214.593 64.0473 156.473 56.8422 130.263C69.9695 63.1806 91.4181 52.2811 119.337 85.2797Z" fill="#F9B443"/>
<path fill-rule="evenodd" clip-rule="evenodd" d="M118.764 84.3238C123.119 96.6871 133.225 110.213 143.319 126.936C161.159 156.573 77.9192 109.195 70.6801 82.9975C83.8415 15.9029 90.8446 51.3252 118.764 84.3238Z" fill="url(#paint1_linear_7049_726)"/>
<path fill-rule="evenodd" clip-rule="evenodd" d="M71.2533 83.9552C92.1349 112.362 122.272 97.6107 128.107 92.564C135.174 86.4545 146.652 68.7612 131.63 55.9615C125.458 50.6804 125.202 40.472 119.573 34.0071C98.2733 9.34447 76.8122 18.7804 65.0877 25.3041C60.8074 27.6878 47.2519 36.6264 45.9951 48.2955C43.669 69.5335 49.0877 107.753 56.8418 130.265L71.2533 83.9552Z" fill="#F9B443"/>
<path fill-rule="evenodd" clip-rule="evenodd" d="M71.2492 83.9546C76.2933 90.8222 57.4632 50.0683 60.0601 44.3624C61.9008 40.3241 47.2478 36.6259 45.991 48.2949C44.6035 60.9072 45.9708 79.4979 48.9119 97.2409C50.9404 109.375 53.6738 121.124 56.8377 130.265L71.2492 83.9546Z" fill="url(#paint2_linear_7049_726)"/>
<path d="M82.8161 83.6561C83.7793 83.7824 84.6269 83.3737 84.7096 82.7433C84.7922 82.1129 84.0786 81.4995 83.1154 81.3732C82.1523 81.2469 81.3041 81.6556 81.2214 82.286C81.1388 82.9164 81.853 83.5299 82.8161 83.6561Z" fill="#16164F"/>
<path d="M136.192 63.8707C135.77 64.5215 135.082 64.8249 134.656 64.5486C134.23 64.2723 134.227 63.5208 134.649 62.87C135.072 62.2192 135.759 61.9154 136.185 62.1917C136.611 62.468 136.614 63.2199 136.192 63.8707Z" fill="#16164F"/>
<path d="M88.1677 90.3046C89.1309 90.4309 89.9785 90.0222 90.0611 89.3917C90.1438 88.7613 89.4302 88.1479 88.467 88.0217C87.5038 87.8954 86.6557 88.304 86.573 88.9344C86.4904 89.5648 87.2045 90.1783 88.1677 90.3046Z" fill="#16164F"/>
<path d="M137.442 70.5797C137.02 71.2305 136.332 71.5339 135.906 71.2576C135.48 70.9813 135.477 70.2298 135.899 69.579C136.322 68.9282 137.009 68.6244 137.435 68.9007C137.861 69.177 137.864 69.9288 137.442 70.5797Z" fill="#16164F"/>
<path d="M95.4177 85.9472C96.3809 86.0734 97.2285 85.6647 97.3111 85.0343C97.3938 84.4039 96.6802 83.7905 95.717 83.6642C94.7538 83.538 93.9057 83.9466 93.823 84.577C93.7404 85.2074 94.4545 85.8209 95.4177 85.9472Z" fill="#16164F"/>
<path d="M131.063 72.7105C130.641 73.3613 129.953 73.6648 129.528 73.3884C129.102 73.1121 129.098 72.3607 129.521 71.7099C129.943 71.0591 130.63 70.7552 131.056 71.0316C131.482 71.3079 131.485 72.0597 131.063 72.7105Z" fill="#16164F"/>
<path fill-rule="evenodd" clip-rule="evenodd" d="M115.206 69.3524C112.172 70.5995 109.062 73.2662 109.966 75.4628C110.421 76.5697 112.257 77.4483 113.939 78.2566C115.585 79.056 117.082 79.7941 118.585 79.1761C121.618 77.9289 124.106 72.7592 123.203 70.5623C122.3 68.3657 118.239 68.1053 115.206 69.3524Z" fill="#16164F"/>
<path d="M65.9028 52.3989C64.5161 58.832 58.1315 62.913 51.6423 61.5143C45.1532 60.1156 41.0167 53.7668 42.4033 47.3336C43.79 40.9004 50.1746 36.8194 56.6638 38.2182C63.153 39.6169 67.2894 45.9657 65.9028 52.3989Z" fill="#F9B443"/>
<path fill-rule="evenodd" clip-rule="evenodd" d="M89.8724 63.8016L94.89 65.565C95.7469 65.8689 96.6778 65.42 97.0125 64.5358C97.2841 63.6892 96.8224 62.7464 95.9651 62.4419L89.5708 60.2185C88.8118 59.9367 87.9142 60.3016 87.5661 61.0168L83.1746 69.5242C82.724 70.3553 83.0526 71.3502 83.8849 71.7576C84.7175 72.1657 85.7213 71.8442 86.1089 71.0508L89.8724 63.8016Z" fill="#16164F"/>
<path fill-rule="evenodd" clip-rule="evenodd" d="M121.801 51.9687L125.483 54.049C126.229 54.454 127.114 54.2267 127.537 53.4948C127.961 52.7629 127.744 51.8129 126.998 51.4073L121.901 48.4928C121.525 48.2852 121.076 48.2423 120.65 48.3848C120.286 48.4897 119.948 48.7869 119.753 49.1824L117.132 54.8947C116.74 55.6792 117.09 56.5723 117.88 56.9067C118.606 57.2788 119.519 56.9412 119.848 56.1936L121.801 51.9687Z" fill="#16164F"/>
<path d="M98.2931 74.3078C111.234 78.6138 109.375 117.204 81.9859 138.275C68.5272 149.597 47.4959 130.946 64.4889 116.03C82.5172 106.032 81.3457 90.5678 83.6285 83.7827C85.3845 78.5633 88.7992 71.1487 98.2931 74.3078Z" fill="#F29035"/>
<path fill-rule="evenodd" clip-rule="evenodd" d="M159.269 208.716C150.834 220.589 165.701 230.696 179.42 238.931C183.272 250.241 189.181 256.121 194.903 251.826C199.552 248.323 195.151 233.716 189.898 227.408C191.166 210.61 186.295 194.136 177.191 180.025L159.269 208.716Z" fill="#F9B443"/>
<path fill-rule="evenodd" clip-rule="evenodd" d="M100.789 240.018C119.007 256.937 138.52 257.135 152.149 253.483C158.185 259.218 169.352 263.114 172.826 257.563C177.156 250.635 164.419 241.213 159.368 238.256C154.518 229.027 145.512 217.003 132.351 212.903L100.789 240.018Z" fill="#F9B443"/>
<defs>
<linearGradient id="paint0_linear_7049_726" x1="201.366" y1="182.349" x2="110.536" y2="204.653" gradientUnits="userSpaceOnUse">
<stop stop-color="#F29035"/>
<stop offset="1" stop-color="#B74C10"/>
</linearGradient>
<linearGradient id="paint1_linear_7049_726" x1="130.103" y1="69.0799" x2="111.722" y2="110.114" gradientUnits="userSpaceOnUse">
<stop stop-color="#F9B443"/>
<stop offset="1" stop-color="#E43711" stop-opacity="0"/>
</linearGradient>
<linearGradient id="paint2_linear_7049_726" x1="60.6207" y1="63.0429" x2="38.1135" y2="36.5437" gradientUnits="userSpaceOnUse">
<stop stop-color="#F9B443"/>
<stop offset="1" stop-color="#CE5C1B"/>
</linearGradient>
</defs>
</svg>
