<?xml version="1.0" encoding="UTF-8" standalone="no"?>
<!DOCTYPE svg PUBLIC "-//W3C//DTD SVG 1.1//EN" "http://www.w3.org/Graphics/SVG/1.1/DTD/svg11.dtd">
<svg width="100%" height="100%" viewBox="0 0 44 36" version="1.1" xmlns="http://www.w3.org/2000/svg" xmlns:xlink="http://www.w3.org/1999/xlink" xml:space="preserve" style="fill-rule:evenodd;clip-rule:evenodd;stroke-linejoin:round;stroke-miterlimit:2;">
    <g transform="matrix(1,0,0,1,-1584.67,-1763.36)">
        <g transform="matrix(1,0,0,1,-46.5809,0)">
            <path d="M1631.25,1795.17L1631.25,1766.89C1631.25,1764.94 1632.84,1763.36 1634.79,1763.36L1671.4,1763.36C1673.35,1763.36 1674.93,1764.94 1674.93,1766.89L1674.93,1795.17C1674.93,1797.12 1673.35,1798.7 1671.4,1798.7L1634.79,1798.7C1632.84,1798.7 1631.25,1797.12 1631.25,1795.17ZM1636.39,1767.99C1635.67,1768.56 1635.21,1769.44 1635.21,1770.43L1635.21,1771.22C1640.13,1775.52 1643.89,1780.2 1652.41,1782.52C1653.13,1782.67 1653.82,1782.69 1654.47,1782.52C1662.58,1780.31 1666.38,1776.02 1670.97,1771.84L1670.97,1770.43C1670.97,1769.6 1670.64,1768.84 1670.11,1768.28C1663.97,1772.91 1657.27,1778.28 1653.44,1778.47C1649.53,1778.27 1642.62,1772.66 1636.39,1767.99Z" style="fill:currentColor;"/>
        </g>
    </g>
</svg>
