<svg width="39" height="39" viewBox="0 0 39 39" fill="none" xmlns="http://www.w3.org/2000/svg">
<path d="M39 19.4994V19.4896C39 13.7193 36.4878 8.53714 32.4984 4.97351L32.4789 4.95726C32.4296 4.90415 32.3746 4.85673 32.3148 4.81589L32.3115 4.81426C28.7684 1.70325 24.2119 -0.00817495 19.4968 0.00101337C14.5698 0.00101337 10.0718 1.83076 6.64301 4.85001L6.66413 4.83214C6.6228 4.86348 6.5847 4.89887 6.55038 4.93776V4.93939C4.48911 6.76457 2.83919 9.00691 1.70992 11.5179C0.580654 14.0288 -0.00218869 16.7511 6.17608e-06 19.5043C6.17608e-06 25.273 2.50901 30.4551 6.49513 34.0204L6.51463 34.0366C6.56625 34.0952 6.624 34.148 6.68688 34.1943L6.69013 34.1959C10.2324 37.3023 14.7854 39.0112 19.4968 39.0026C24.2302 39.0099 28.8027 37.2852 32.3521 34.1536L32.331 34.1715C34.428 32.3484 36.1089 30.0961 37.2601 27.567C38.4112 25.0379 39.0057 22.2911 39.0033 19.5124V19.501L39 19.4994ZM31.7493 32.1825C30.7833 31.4011 29.7445 30.7144 28.6471 30.1318L28.5415 30.0798C29.5376 27.2084 30.1373 23.8983 30.1941 20.4549V20.4289H37.1183C36.8848 24.8837 34.9673 29.0833 31.7541 32.1776L31.7493 32.1825ZM20.4295 29.7369C22.5144 29.849 24.4628 30.3073 26.26 31.0531L26.143 31.0109C24.7033 34.2934 22.6769 36.5489 20.4295 37.0445V29.7369ZM20.4295 27.8779V20.4289H28.34C28.2772 23.5136 27.7424 26.5704 26.754 29.4931L26.8174 29.2803C24.7999 28.451 22.6541 27.9771 20.475 27.8795L20.4311 27.8779H20.4295ZM20.4295 18.5699V11.1209C22.6674 11.0188 24.8706 10.5289 26.9409 9.67301L26.8125 9.72014C27.7144 12.351 28.2685 15.3833 28.34 18.5358V18.5699H20.4295ZM20.4295 9.26189V1.95751C22.6769 2.45314 24.7033 4.69889 26.143 7.99114C24.4628 8.68989 22.5144 9.14651 20.4766 9.26026L20.4295 9.26189ZM25.0673 2.76189C26.9821 3.40057 28.7729 4.36359 30.3615 5.60889L30.3241 5.57964C29.6043 6.14514 28.7966 6.67814 27.9451 7.14126L27.8541 7.18676C27.1661 5.56294 26.22 4.06103 25.0526 2.73914L25.0673 2.75701V2.76189ZM18.5673 1.96239V9.26189C16.5628 9.15963 14.5907 8.71443 12.7368 7.94564L12.8538 7.98789C14.3 4.70539 16.3231 2.45151 18.5705 1.95589L18.5673 1.96239ZM11.1443 7.18189C10.2634 6.70797 9.42408 6.16057 8.63526 5.54551L8.67426 5.57476C10.2166 4.36601 11.9514 3.42554 13.806 2.79276L13.9295 2.75539C12.7927 4.04147 11.8664 5.49922 11.1849 7.07464L11.1443 7.18026V7.18189ZM18.5705 11.1193V18.5683H10.66C10.7315 15.3816 11.2856 12.3494 12.2509 9.50564L12.1875 9.71851C14.2042 10.5464 16.3488 11.0197 18.5266 11.1176L18.5705 11.1193ZM18.5705 20.4273V27.8763C16.3326 27.9784 14.1294 28.4683 12.0591 29.3241L12.1875 29.277C11.2856 26.6478 10.7315 23.6139 10.66 20.4614V20.4273H18.5705ZM18.5705 29.7353V37.0396C16.3231 36.544 14.2968 34.2983 12.857 31.006C14.5373 30.3073 16.4856 29.8523 18.5234 29.7385L18.5705 29.7369V29.7353ZM13.9393 36.2353C12.0249 35.5984 10.2342 34.6377 8.64501 33.3948L8.68401 33.424C9.40388 32.8585 10.2115 32.3255 11.063 31.8624L11.154 31.8169C11.8363 33.4414 12.7823 34.942 13.9539 36.258L13.9393 36.2418V36.2353ZM27.8558 31.8153C28.7983 32.3271 29.6059 32.8585 30.3648 33.4516L30.3258 33.4224C28.7834 34.6311 27.0486 35.5716 25.194 36.2044L25.0705 36.2418C26.2073 34.9563 27.1336 33.4991 27.8151 31.9241L27.8558 31.8185V31.8153ZM37.1183 18.5699H30.1941C30.1443 15.2077 29.5641 11.8744 28.4749 8.69314L28.5415 8.91739C29.6894 8.31299 30.7762 7.599 31.7866 6.78539L31.7476 6.81464C34.9542 9.89731 36.8723 14.0814 37.115 18.5228L37.1166 18.5683L37.1183 18.5699ZM7.25076 6.81626C8.18676 7.57676 9.23813 8.27389 10.3529 8.86701L10.4585 8.91901C9.46238 11.7904 8.86276 15.1005 8.80588 18.5439V18.5699H1.88013C2.11363 14.1151 4.03106 9.91547 7.24426 6.82114L7.24913 6.81626H7.25076ZM1.88176 20.4289H8.80588C8.8557 23.7911 9.43592 27.1244 10.5251 30.3056L10.4585 30.0814C9.23813 30.7298 8.18838 31.4269 7.21338 32.2134L7.25238 32.1841C4.04583 29.1015 2.12772 24.9174 1.88501 20.476L1.88338 20.4305L1.88176 20.4289Z" fill="currentColor"/>
</svg>
