<?xml version="1.0" encoding="UTF-8" standalone="no"?>
<!DOCTYPE svg PUBLIC "-//W3C//DTD SVG 1.1//EN" "http://www.w3.org/Graphics/SVG/1.1/DTD/svg11.dtd">
<svg width="100%" height="100%" viewBox="0 0 208 208" version="1.1" xmlns="http://www.w3.org/2000/svg" xmlns:xlink="http://www.w3.org/1999/xlink" xml:space="preserve" xmlns:serif="http://www.serif.com/" style="fill-rule:evenodd;clip-rule:evenodd;stroke-linejoin:round;stroke-miterlimit:2;">
    <path d="M166.089,47.104C180.102,22.159 161.355,14.044 141.406,17.087C141.406,17.087 139.678,6.042 139.453,5.516C156.171,0.594 171.198,-0.796 181.905,2.848C211.584,16.486 209.706,63.634 126.116,119.95C94.052,141.552 74.872,150.455 50.265,141.552C30.729,148.389 13.898,147.037 0.298,136.029C56.914,131.671 133.179,89.82 166.089,47.104ZM37.83,66.828L43.014,70.397C23.854,87.941 11.456,106.35 14.913,119.987C9.277,104.697 19.609,85.424 37.83,66.828Z" style="fill:rgb(90,96,243);"/>
    <path d="M189.05,123.556C171.508,160.368 132.683,183.93 88.918,196.899C125.664,198.111 176.518,187.292 199.755,145.83C194.599,149.389 191.334,150.489 186.706,150.236C190.15,142.705 190.783,129.823 189.05,123.556Z" style="fill:rgb(90,96,243);fill-rule:nonzero;"/>
    <path d="M151.715,190.271C154.317,195.764 156.92,200.969 158.654,204.727C158.944,205.594 158.94,206.462 158.073,206.751C157.495,207.329 156.631,207.329 155.763,206.751L137.835,194.608C142.75,193.452 147.378,192.006 151.715,190.271ZM118.466,181.598L91.288,163.095L104.587,138.231C111.525,134.761 118.175,130.425 124.825,125.51L152.872,138.52L91.576,163.095L133.498,151.819C133.498,151.819 136.97,159.336 141.596,168.877C134.368,173.503 126.851,177.839 118.466,181.598ZM152.872,138.52L129.161,122.04C134.076,118.282 141.02,113.077 148.247,107.295L152.872,138.52ZM142.465,67.687C132.635,76.071 120.199,84.744 110.369,91.105C105.743,93.996 101.121,96.887 96.495,99.489L31.156,54.387L134.08,8.129L142.465,67.687Z" style="fill:rgb(245,181,35);"/>
</svg>
