<?xml version="1.0" encoding="UTF-8" standalone="no"?>
<!DOCTYPE svg PUBLIC "-//W3C//DTD SVG 1.1//EN" "http://www.w3.org/Graphics/SVG/1.1/DTD/svg11.dtd">
<svg width="100%" height="100%" viewBox="0 0 208 208" version="1.1" xmlns="http://www.w3.org/2000/svg" xmlns:xlink="http://www.w3.org/1999/xlink" xml:space="preserve" xmlns:serif="http://www.serif.com/" style="fill-rule:evenodd;clip-rule:evenodd;stroke-linejoin:round;stroke-miterlimit:2;">
    <path d="M97.571,137.178C80.609,145.516 66.638,147.476 50.265,141.552C31.43,148.144 15.11,147.124 1.776,137.178L97.571,137.178ZM21.459,87.178C25.61,80.455 31.197,73.597 37.83,66.828L43.014,70.397C36.935,75.963 31.536,81.617 27.11,87.178L21.459,87.178ZM122.487,87.178C140.156,74.744 155.406,60.969 166.089,47.104C180.102,22.159 161.355,14.044 141.406,17.087C141.406,17.087 139.678,6.042 139.453,5.516C156.171,0.594 171.198,-0.796 181.905,2.848C205.595,13.734 209.179,45.97 167.149,87.178L122.487,87.178Z" style="fill:rgb(90,96,243);"/>
    <path d="M189.757,137.178L181.212,137.178C161.385,166.284 127.024,185.607 88.918,196.899C125.664,198.111 176.518,187.292 199.755,145.83C194.599,149.389 191.334,150.489 186.706,150.236C188.341,146.662 189.342,141.882 189.757,137.178Z" style="fill:rgb(90,96,243);fill-rule:nonzero;"/>
    <path d="M151.715,190.271C154.317,195.764 156.92,200.969 158.654,204.727C158.944,205.594 158.94,206.462 158.073,206.751C157.495,207.329 156.631,207.329 155.763,206.751L137.835,194.608C142.75,193.452 147.378,192.006 151.715,190.271ZM149.978,137.178L152.872,138.52L91.576,163.095L133.498,151.819C133.498,151.819 136.97,159.336 141.596,168.877C134.368,173.503 126.851,177.839 118.466,181.598L91.288,163.095L104.587,138.231C105.272,137.888 105.955,137.537 106.634,137.178L149.978,137.178ZM152.872,138.52L150.941,137.178L152.673,137.178L152.872,138.52ZM78.659,87.178L31.156,54.387L134.08,8.129L142.465,67.687C134.534,74.451 124.907,81.404 116.321,87.178L78.659,87.178Z" style="fill:rgb(245,181,35);"/>
    <g transform="matrix(1.04144,0,0,1,-0.0909654,0)">
        <rect x="0.087" y="92.408" width="199.724" height="39.539" style="fill:rgb(93,93,93);"/>
        <clipPath id="_clip1">
            <rect x="0.087" y="92.408" width="199.724" height="39.539"/>
        </clipPath>
        <g clip-path="url(#_clip1)">
            <g transform="matrix(0.961538,0,0,1,0.00335946,0)">
                <g transform="matrix(0.70547,0.707768,-0.953588,0.953121,97.715,7.35325)">
                    <rect x="-8.618" y="74.494" width="28.74" height="62.793" style="fill:rgb(255,247,0);"/>
                </g>
                <g transform="matrix(0.70547,0.707768,-0.953588,0.953121,175.549,7.35325)">
                    <rect x="-8.618" y="74.494" width="28.74" height="62.793" style="fill:rgb(255,247,0);"/>
                </g>
                <g transform="matrix(0.70547,0.707768,-0.953588,0.953121,253.383,7.35325)">
                    <rect x="-8.618" y="74.494" width="28.74" height="62.793" style="fill:rgb(255,247,0);"/>
                </g>
                <g transform="matrix(0.70547,0.707768,-0.953588,0.953121,331.217,7.35325)">
                    <rect x="-8.618" y="74.494" width="28.74" height="62.793" style="fill:rgb(255,247,0);"/>
                </g>
            </g>
        </g>
    </g>
</svg>
