<?xml version="1.0" encoding="UTF-8" standalone="no"?>
<!DOCTYPE svg PUBLIC "-//W3C//DTD SVG 1.1//EN" "http://www.w3.org/Graphics/SVG/1.1/DTD/svg11.dtd">
<svg width="100%" height="100%" viewBox="0 0 1300 200" version="1.1" xmlns="http://www.w3.org/2000/svg" xmlns:xlink="http://www.w3.org/1999/xlink" xml:space="preserve" xmlns:serif="http://www.serif.com/" style="fill-rule:evenodd;clip-rule:evenodd;stroke-linejoin:round;stroke-miterlimit:2;">
    <g transform="matrix(0.821204,0,0,0.821204,-313.427,14.6044)">
        <g transform="matrix(1,0,0,1,400,0)">
            <path d="M166.089,47.104C180.102,22.159 161.355,14.044 141.406,17.087C141.406,17.087 139.678,6.042 139.453,5.516C156.171,0.594 171.198,-0.796 181.905,2.848C211.584,16.486 209.706,63.634 126.116,119.95C94.052,141.552 74.872,150.455 50.265,141.552C30.729,148.389 13.898,147.037 0.298,136.029C56.914,131.671 133.179,89.82 166.089,47.104ZM37.83,66.828L43.014,70.397C23.854,87.941 11.456,106.35 14.913,119.987C9.277,104.697 19.609,85.424 37.83,66.828Z" style="fill:rgb(90,96,243);"/>
        </g>
        <g transform="matrix(1,0,0,1,400,0)">
            <path d="M189.05,123.556C171.508,160.368 132.683,183.93 88.918,196.899C125.664,198.111 176.518,187.292 199.755,145.83C194.599,149.389 191.334,150.489 186.706,150.236C190.15,142.705 190.783,129.823 189.05,123.556Z" style="fill:rgb(90,96,243);fill-rule:nonzero;"/>
        </g>
        <g transform="matrix(1,0,0,1,400,0)">
            <path d="M151.715,190.271C154.317,195.764 156.92,200.969 158.654,204.727C158.944,205.594 158.94,206.462 158.073,206.751C157.495,207.329 156.631,207.329 155.763,206.751L137.835,194.608C142.75,193.452 147.378,192.006 151.715,190.271ZM118.466,181.598L91.288,163.095L104.587,138.231C111.525,134.761 118.175,130.425 124.825,125.51L152.872,138.52L91.576,163.095L133.498,151.819C133.498,151.819 136.97,159.336 141.596,168.877C134.368,173.503 126.851,177.839 118.466,181.598ZM152.872,138.52L129.161,122.04C134.076,118.282 141.02,113.077 148.247,107.295L152.872,138.52ZM142.465,67.687C132.635,76.071 120.199,84.744 110.369,91.105C105.743,93.996 101.121,96.887 96.495,99.489L31.156,54.387L134.08,8.129L142.465,67.687Z" style="fill:rgb(245,181,35);"/>
        </g>
    </g>
    <g transform="matrix(1,0,0,1,-27,-4)">
        <path d="M282.248,162.56C306,162.56 318.741,147.145 318.741,131.572C318.741,90.99 259.597,108.607 259.597,80.294C259.597,68.496 268.878,62.362 280.675,62.676C294.045,62.834 300.966,71.17 301.91,78.563L317.64,78.563C315.909,61.89 302.224,50.407 281.304,50.407C259.597,50.407 244.968,62.676 244.968,80.765C244.968,121.505 304.269,102.63 304.269,132.201C304.269,142.583 296.09,150.448 282.248,150.448C266.99,150.448 260.541,141.325 259.597,132.201L244.339,132.201C244.654,150.29 260.226,162.56 282.248,162.56Z" style="fill:rgb(245,181,35);fill-rule:nonzero;"/>
        <path d="M333.055,51.823L333.055,63.463L363.098,63.463L363.098,161.459L377.412,161.459L377.412,63.463L407.299,63.463L407.299,51.823L333.055,51.823Z" style="fill:rgb(245,181,35);fill-rule:nonzero;"/>
        <path d="M474.622,162.56C505.609,162.56 529.675,139.437 529.675,106.562C529.675,73.687 505.609,50.564 474.622,50.564C443.791,50.564 419.568,73.687 419.568,106.562C419.568,139.437 443.791,162.56 474.622,162.56ZM474.622,150.133C451.499,150.133 434.196,133.302 434.196,106.562C434.196,79.664 451.499,62.991 474.622,62.991C497.744,62.991 515.047,79.664 515.047,106.562C515.047,133.302 497.744,150.133 474.622,150.133Z" style="fill:rgb(245,181,35);fill-rule:nonzero;"/>
        <path d="M607.223,84.069C607.223,96.338 600.144,105.146 583.943,105.146L562.865,105.146L562.865,63.62L583.943,63.62C600.301,63.62 607.223,71.642 607.223,84.069ZM583.943,51.823L548.551,51.823L548.551,161.459L562.865,161.459L562.865,116.629L580.168,116.629L606.279,161.459L623.424,161.459L595.897,115.528C614.301,111.438 622.008,98.068 622.008,84.069C622.008,66.137 609.739,51.823 583.943,51.823Z" style="fill:rgb(245,181,35);fill-rule:nonzero;"/>
        <path d="M644.187,52.609L644.187,161.459L658.501,161.459L658.501,80.136L694.837,161.459L704.904,161.459L741.082,80.294L741.082,161.459L755.396,161.459L755.396,52.609L740.138,52.609L699.87,142.583L659.602,52.609L644.187,52.609Z" style="fill:rgb(245,181,35);fill-rule:nonzero;"/>
        <path d="M849.774,51.823L849.774,99.956L793.934,99.956L793.934,51.823L779.62,51.823L779.62,161.459L793.934,161.459L793.934,111.753L849.774,111.753L849.774,161.459L864.088,161.459L864.088,51.823L849.774,51.823Z" style="fill:rgb(90,96,243);fill-rule:nonzero;"/>
        <path d="M962.084,161.459L977.184,161.459L937.703,52.452L921.187,52.452L881.548,161.459L896.648,161.459L905.457,137.078L953.275,137.078L962.084,161.459ZM949.185,125.438L909.547,125.438L929.366,70.069L949.185,125.438Z" style="fill:rgb(90,96,243);fill-rule:nonzero;"/>
        <path d="M989.139,106.562C989.139,139.437 1013.21,162.402 1043.88,162.402C1067.63,162.402 1086.51,150.605 1094.68,129.527L1077.54,129.527C1071.56,142.583 1059.92,149.976 1043.88,149.976C1020.91,149.976 1003.77,133.302 1003.77,106.562C1003.77,79.664 1020.91,62.991 1043.88,62.991C1059.92,62.991 1071.56,70.384 1077.54,83.597L1094.68,83.597C1086.51,62.362 1067.63,50.407 1043.88,50.407C1013.21,50.407 989.139,73.687 989.139,106.562Z" style="fill:rgb(90,96,243);fill-rule:nonzero;"/>
        <path d="M1175.54,51.823L1130.23,102.63L1130.23,51.823L1115.92,51.823L1115.92,161.459L1130.23,161.459L1130.23,111.438L1175.38,161.459L1194.1,161.459L1143.92,106.719L1193.62,51.823L1175.54,51.823Z" style="fill:rgb(90,96,243);fill-rule:nonzero;"/>
        <path d="M1244.9,162.56C1268.65,162.56 1281.4,147.145 1281.4,131.572C1281.4,90.99 1222.25,108.607 1222.25,80.294C1222.25,68.496 1231.53,62.362 1243.33,62.676C1256.7,62.834 1263.62,71.17 1264.57,78.563L1280.3,78.563C1278.56,61.89 1264.88,50.407 1243.96,50.407C1222.25,50.407 1207.62,62.676 1207.62,80.765C1207.62,121.505 1266.92,102.63 1266.92,132.201C1266.92,142.583 1258.75,150.448 1244.9,150.448C1229.64,150.448 1223.2,141.325 1222.25,132.201L1206.99,132.201C1207.31,150.29 1222.88,162.56 1244.9,162.56Z" style="fill:rgb(90,96,243);fill-rule:nonzero;"/>
    </g>
</svg>
