<svg width="101" height="176" viewBox="0 0 101 176" fill="none" xmlns="http://www.w3.org/2000/svg">
<g clip-path="url(#clip0_233_1954)">
<path d="M5.60118 68.1636C5.60118 67.4992 7.01669 67.2115 7.96122 67.2115H92.5484C93.4929 67.2115 93.6864 67.5017 93.6864 68.1636V158.365C93.6864 159.029 93.2893 159.821 92.4517 160.126L51.9771 174.931C51.137 175.236 49.836 175.239 48.9933 174.938L7.41385 160.119C6.57116 159.816 5.59863 159.026 5.59863 158.365V68.1636H5.60118Z" fill="#F7F7F7"/>
<path opacity="0.42" d="M90.6614 99.4628V89.1112H8.77539L90.6614 99.4628Z" fill="#E0E0E0"/>
<path d="M96.0569 84.6533C96.0569 84.6533 55.3812 98.1007 4.05859 84.6533V58.4867C51.402 70.8113 96.0569 58.4867 96.0569 58.4867V84.6533Z" fill="white"/>
<path d="M96.0566 58.4867V84.6534C96.0566 84.6534 77.9757 90.6286 50.7194 90.6286C37.0887 90.6286 21.1667 89.1341 4.05829 84.6534V58.4867C19.8377 62.5958 35.3218 63.9655 48.95 63.9655C76.2088 63.9655 96.054 58.4867 96.054 58.4867M100.021 53.2778L95 54.6628C94.7862 54.7214 75.277 59.999 48.95 59.999C33.4608 59.999 18.6921 58.199 5.05628 54.6501L0.0917969 53.3542V87.7135L3.05267 88.49C18.5164 92.5405 34.553 94.5951 50.7194 94.5951C78.2964 94.5951 96.5377 88.6708 97.3015 88.4187L100.023 87.52V53.2778H100.021Z" fill="#F7F7F7"/>
<path d="M19.262 68.7161C19.537 68.767 19.789 68.8714 20.0156 69.0242C20.2422 69.1769 20.4306 69.3577 20.5757 69.5664C20.7234 69.7752 20.8303 70.0094 20.8965 70.2742C20.9627 70.539 20.9729 70.8063 20.9245 71.0787C20.456 73.7264 19.9876 76.3742 19.5192 79.0219C19.4708 79.2943 19.3664 79.5438 19.2086 79.7678C19.0482 79.9919 18.8572 80.1777 18.6357 80.3254C18.4117 80.473 18.1597 80.5723 17.8771 80.6258C17.5945 80.6793 17.3042 80.6793 17.0089 80.6232C14.8347 80.2108 12.6656 79.7602 10.5016 79.2688C10.2088 79.2026 9.94152 79.0881 9.70475 78.9251C9.46544 78.7622 9.26941 78.5687 9.1192 78.3421C8.96645 78.1155 8.86461 77.8711 8.81369 77.6013C8.76277 77.334 8.77041 77.0666 8.83406 76.7968C9.4629 74.1821 10.0892 71.5675 10.718 68.9529C10.7817 68.683 10.8962 68.4412 11.0566 68.2248C11.217 68.0084 11.4105 67.8352 11.6345 67.7029C11.8586 67.573 12.1055 67.4814 12.3754 67.433C12.6453 67.3821 12.9177 67.3897 13.1901 67.4508C15.209 67.9091 17.2329 68.3317 19.2646 68.7161H19.262ZM17.6658 71.4046C16.2961 71.1373 14.9289 70.8521 13.5643 70.5492C13.1162 72.5782 12.6682 74.6073 12.2201 76.6338C13.6331 76.947 15.0511 77.2423 16.4692 77.5198C16.8689 75.4805 17.266 73.4413 17.6658 71.4046Z" fill="#122F4C"/>
<path d="M33.1448 70.8496C33.2008 70.9183 33.2262 70.9998 33.216 71.0915C33.1371 71.8501 33.0582 72.6063 32.9793 73.3649C32.9691 73.4566 32.9284 73.5304 32.8571 73.5864C32.7858 73.6424 32.7018 73.6653 32.6076 73.6552C30.6345 73.4464 28.6665 73.202 26.7011 72.9245C26.6426 72.9169 26.6095 72.9347 26.6044 72.9805C26.5153 73.6042 26.4287 74.2254 26.3396 74.8492C26.332 74.9077 26.3574 74.9383 26.416 74.9485C27.9231 75.1623 29.4328 75.3533 30.9451 75.5289C31.0393 75.5391 31.1131 75.5799 31.1666 75.6511C31.2201 75.7224 31.2404 75.8014 31.2302 75.893C31.1488 76.6109 31.0673 77.3263 30.9884 78.0443C30.9782 78.1359 30.94 78.2098 30.8713 78.2658C30.8025 78.3218 30.7211 78.3447 30.6243 78.3345C29.0892 78.1588 27.554 77.9628 26.0214 77.7464C25.9603 77.7388 25.9272 77.7617 25.9195 77.8202C25.7362 79.1059 25.5555 80.3916 25.3722 81.6773C25.3416 81.8937 25.2092 81.9853 24.975 81.9522C24.1221 81.83 23.2718 81.7002 22.4189 81.5652C22.1847 81.5271 22.0854 81.4023 22.1185 81.1834C22.7219 77.4104 23.3278 73.6399 23.9312 69.8669C23.9668 69.6505 24.0916 69.5588 24.3105 69.5945C27.1721 70.0476 30.0413 70.427 32.9182 70.7325C33.0098 70.7427 33.0862 70.7834 33.1422 70.8521L33.1448 70.8496Z" fill="#122F4C"/>
<path d="M44.1987 71.6465C44.2598 71.7126 44.2903 71.7916 44.2852 71.8832C44.2547 72.6444 44.2267 73.4057 44.1961 74.1669C44.1936 74.2585 44.1579 74.3349 44.0892 74.396C44.0204 74.4571 43.9415 74.4851 43.8473 74.4826C41.8692 74.4011 39.891 74.2865 37.9129 74.1389C37.8543 74.1338 37.8237 74.1542 37.8187 74.2C37.7703 74.8263 37.7245 75.4551 37.6761 76.0814C37.671 76.1399 37.699 76.1705 37.7601 76.1756C39.2749 76.2901 40.7923 76.3844 42.3121 76.4582C42.4089 76.4633 42.4827 76.4989 42.5413 76.5651C42.5973 76.6313 42.6253 76.7102 42.6202 76.8019C42.5871 77.5224 42.5515 78.2428 42.5184 78.9633C42.5133 79.055 42.4802 79.1314 42.4165 79.1925C42.3529 79.2536 42.2714 79.2816 42.1747 79.2765C40.6319 79.2001 39.0916 79.1059 37.5513 78.9888C37.4902 78.9837 37.4571 79.0117 37.4546 79.0677C37.3553 80.3636 37.2586 81.6569 37.1593 82.9527C37.144 83.1717 37.0167 83.271 36.7799 83.2532C35.922 83.187 35.0665 83.1131 34.2086 83.0342C33.9718 83.0113 33.8649 82.8916 33.8853 82.6727C34.2417 78.8691 34.6006 75.0656 34.9571 71.262C34.9774 71.0431 35.0971 70.9438 35.3186 70.9641C38.198 71.2289 41.0825 71.4199 43.967 71.537C44.0586 71.5395 44.1376 71.5752 44.1987 71.6414V71.6465Z" fill="#122F4C"/>
<path d="M48.9849 83.4619C48.9849 83.6808 48.8627 83.7903 48.626 83.7878C47.768 83.7776 46.9075 83.7598 46.0495 83.7368C45.8128 83.7318 45.6982 83.6172 45.7033 83.3982C45.8128 79.5794 45.9222 75.7606 46.0292 71.9417C46.0343 71.7228 46.1488 71.6159 46.3703 71.621C47.1723 71.6413 47.9742 71.6591 48.7762 71.6668C48.9977 71.6693 49.1071 71.7814 49.1046 72.0003C49.0639 75.8191 49.0257 79.6405 48.9849 83.4593V83.4619Z" fill="#122F4C"/>
<path d="M55.0291 74.6633C54.9655 74.7219 54.9349 74.7982 54.9375 74.8899C54.9808 76.7586 55.0241 78.6273 55.0673 80.4985C55.0673 80.5901 55.1055 80.664 55.1743 80.72C55.243 80.776 55.327 80.804 55.4238 80.8015C57.3892 80.7505 59.3546 80.6691 61.3175 80.5545C61.4168 80.5494 61.5008 80.5749 61.5721 80.636C61.6434 80.6945 61.6816 80.7709 61.6866 80.8626C61.7325 81.6238 61.7783 82.3824 61.8241 83.1437C61.8292 83.2353 61.7987 83.3168 61.735 83.383C61.6714 83.4517 61.5874 83.4874 61.4881 83.4925C60.1897 83.5688 58.8887 83.6299 57.5878 83.6783C56.5185 83.7165 55.4467 83.747 54.3774 83.7674C54.2654 83.7674 54.1534 83.7725 54.0413 83.7725C53.7435 83.7776 53.4583 83.7292 53.191 83.6299C52.9211 83.5306 52.6869 83.3881 52.4883 83.2048C52.2872 83.0215 52.1319 82.8076 52.0199 82.5581C51.9079 82.3112 51.8493 82.0489 51.8493 81.7714C51.8493 81.6671 51.8493 81.5627 51.8493 81.4608C51.8493 81.0408 51.8442 80.6181 51.8417 80.1981C51.8341 78.8538 51.8264 77.5096 51.8213 76.1654C51.8213 75.7911 51.8162 75.4143 51.8162 75.0401C51.8162 74.5946 51.8111 74.1516 51.8086 73.7061C51.8086 73.4286 51.8595 73.1663 51.9613 72.9168C52.0657 72.6673 52.2083 72.4535 52.3941 72.2727C52.58 72.092 52.7964 71.9468 53.0459 71.8323C53.2954 71.7203 53.5576 71.6617 53.8377 71.6566C53.942 71.6566 54.0464 71.6541 54.1508 71.6515C56.3657 71.6082 58.5781 71.5242 60.7879 71.3944C60.8821 71.3893 60.9611 71.4173 61.0298 71.4759C61.0985 71.5344 61.1342 71.6108 61.1393 71.7024C61.1851 72.4637 61.2309 73.2223 61.2768 73.9836C61.2818 74.0752 61.2538 74.1567 61.1927 74.2229C61.1316 74.2891 61.0527 74.3273 60.9585 74.3323C59.0644 74.4418 57.1677 74.5233 55.2685 74.5691C55.1743 74.5691 55.0953 74.6022 55.0317 74.6608L55.0291 74.6633Z" fill="#122F4C"/>
<path d="M68.0535 82.66C68.0739 82.8789 67.967 82.9986 67.7302 83.0215C66.8748 83.1004 66.0168 83.1742 65.1614 83.243C64.9246 83.2608 64.7999 83.1615 64.7821 82.9426C64.4893 79.1339 64.1991 75.3253 63.9063 71.5166C63.8885 71.2977 63.9903 71.1806 64.2118 71.1627C65.0112 71.0991 65.8106 71.0304 66.61 70.9565C66.829 70.9362 66.9512 71.0354 66.9715 71.2518C67.3331 75.0554 67.692 78.859 68.0535 82.6625V82.66Z" fill="#122F4C"/>
<path d="M77.8048 69.5385C78.0823 69.4952 78.3522 69.5054 78.6169 69.5741C78.8817 69.6428 79.1185 69.7472 79.3273 69.8949C79.536 70.04 79.7168 70.2259 79.8695 70.4524C80.0223 70.679 80.1216 70.926 80.1699 71.2009C80.7249 74.4087 81.2774 77.6166 81.8324 80.8218C81.8477 80.9135 81.8273 80.995 81.7713 81.0688C81.7153 81.1426 81.6364 81.1884 81.5371 81.2063C80.6817 81.3514 79.8237 81.4914 78.9683 81.6263C78.869 81.6416 78.7799 81.6238 78.7035 81.5703C78.6246 81.5194 78.5788 81.4456 78.566 81.3539C78.4082 80.333 78.2503 79.3121 78.095 78.2912C78.0798 78.1996 78.039 78.1283 77.9677 78.0748C77.8965 78.0214 77.815 78.001 77.7182 78.0163C76.5217 78.1996 75.3226 78.3676 74.1235 78.5254C74.0267 78.5382 73.9478 78.5815 73.8892 78.6527C73.8307 78.724 73.8078 78.8055 73.818 78.8971C73.9503 79.9206 74.0827 80.9466 74.2151 81.97C74.2431 82.1864 74.1387 82.3112 73.9045 82.3417C73.0516 82.4512 72.1962 82.5531 71.3408 82.6498C71.104 82.6753 70.9767 82.5811 70.9513 82.3621C70.5923 79.1263 70.2333 75.893 69.8744 72.6572C69.8438 72.3822 69.8667 72.1149 69.9456 71.8578C70.022 71.6006 70.1442 71.3715 70.3097 71.1729C70.4752 70.9743 70.6763 70.8063 70.9105 70.6663C71.1473 70.5288 71.4019 70.4422 71.6794 70.4066C73.7237 70.1546 75.7655 69.8643 77.8048 69.5385ZM77.647 75.3991C77.4917 74.396 77.3389 73.3904 77.1836 72.3873C75.8088 72.5986 74.4315 72.7947 73.0516 72.9729C73.1815 73.981 73.3113 74.9867 73.4437 75.9948C74.8465 75.8141 76.2493 75.6155 77.647 75.3991Z" fill="#122F4C"/>
<path d="M92.4007 75.9821C92.4974 75.9592 92.5815 75.9719 92.6578 76.0178C92.7317 76.0661 92.78 76.1349 92.8029 76.224C92.9812 76.9648 93.1594 77.7057 93.3376 78.4465C93.3579 78.5356 93.3478 78.6196 93.3019 78.696C93.2561 78.7724 93.1848 78.8233 93.0855 78.8462C90.4505 79.4725 87.8079 80.0403 85.1551 80.5494C84.9209 80.5953 84.7834 80.5087 84.7427 80.2923C84.0323 76.5397 83.3195 72.7845 82.6092 69.0318C82.5685 68.8154 82.6576 68.6881 82.874 68.6474C83.6657 68.4947 84.455 68.3394 85.2442 68.1764C85.4606 68.1306 85.593 68.2171 85.6363 68.431C86.2167 71.2162 86.7972 74.0014 87.3777 76.7866C87.3955 76.8783 87.4438 76.9445 87.5228 76.9852C87.6017 77.0285 87.6883 77.0387 87.785 77.0183C89.3278 76.695 90.8655 76.3487 92.4032 75.9821H92.4007Z" fill="#122F4C"/>
<path d="M100.084 53.2702L95.0155 50.7574L94.9594 0H4.58292L4.67966 51.1622L0.0283203 53.4688L4.67966 56.6995V56.7708H4.78404L5.06918 56.9694L5.08955 56.7708H6.65782C6.65782 56.7708 50.0449 69.7981 94.3586 56.9694H95.0206V56.781C95.0206 56.781 95.0409 56.7759 95.0486 56.7733L100.087 53.2727L100.084 53.2702Z" fill="#F7F7F7"/>
<path d="M22.3883 142.934C22.6353 143.038 22.8466 143.181 23.0248 143.364C23.203 143.547 23.3456 143.759 23.4551 144.001C23.5645 144.24 23.618 144.5 23.618 144.775V148.005C23.618 148.28 23.5645 148.54 23.4551 148.787C23.3456 149.034 23.203 149.248 23.0248 149.431C22.8466 149.614 22.6353 149.757 22.3883 149.861C22.1414 149.966 21.8817 150.017 21.6068 150.017H14.7507C14.5317 150.017 14.4248 149.907 14.4248 149.691V147.611C14.4248 147.519 14.4554 147.443 14.519 147.379C14.5826 147.315 14.659 147.285 14.7507 147.285H20.5935C20.6851 147.285 20.7615 147.257 20.8252 147.198C20.8888 147.142 20.9194 147.066 20.9194 146.974V145.549C20.9194 145.457 20.8888 145.38 20.8252 145.317C20.7615 145.253 20.6851 145.223 20.5935 145.223H16.4361C16.1611 145.223 15.9014 145.172 15.6545 145.067C15.4075 144.963 15.1937 144.82 15.0104 144.637C14.8271 144.454 14.6845 144.242 14.5801 144.001C14.4757 143.759 14.4248 143.502 14.4248 143.227V139.996C14.4248 139.721 14.4757 139.461 14.5801 139.214C14.6819 138.967 14.8271 138.756 15.0104 138.578C15.1937 138.4 15.4075 138.257 15.6545 138.148C15.9014 138.038 16.1611 137.985 16.4361 137.985H22.9128C23.1292 137.985 23.2387 138.094 23.2387 138.311V140.424C23.2387 140.515 23.2081 140.589 23.1445 140.648C23.0808 140.706 23.0045 140.734 22.9128 140.734H17.4315C17.3398 140.734 17.266 140.765 17.2075 140.828C17.1489 140.892 17.1209 140.968 17.1209 141.06V142.453C17.1209 142.544 17.1489 142.621 17.2075 142.684C17.2635 142.748 17.3398 142.779 17.4315 142.779H21.6068C21.8817 142.779 22.1414 142.83 22.3883 142.934Z" fill="#122F4C"/>
<path d="M35.3269 138.081C35.3906 138.145 35.4211 138.221 35.4211 138.313V140.477C35.4211 140.569 35.3906 140.643 35.3269 140.701C35.2633 140.76 35.1869 140.788 35.0953 140.788H29.339C29.2804 140.788 29.2524 140.816 29.2524 140.874V142.748C29.2524 142.794 29.2804 142.817 29.339 142.817H34.2526C34.3442 142.817 34.418 142.847 34.4766 142.911C34.5326 142.975 34.5632 143.051 34.5632 143.143V144.861C34.5632 144.953 34.5352 145.032 34.4766 145.093C34.418 145.156 34.3442 145.187 34.2526 145.187H29.339C29.2804 145.187 29.2524 145.215 29.2524 145.274V147.129C29.2524 147.188 29.2804 147.216 29.339 147.216H35.0953C35.1869 147.216 35.2633 147.247 35.3269 147.31C35.3906 147.374 35.4211 147.45 35.4211 147.542V149.691C35.4211 149.782 35.3906 149.859 35.3269 149.922C35.2633 149.986 35.1869 150.017 35.0953 150.017H26.5563C26.3374 150.017 26.2305 149.907 26.2305 149.691V138.316C26.2305 138.224 26.261 138.148 26.3247 138.084C26.3883 138.02 26.4647 137.99 26.5563 137.99H35.0953C35.1869 137.99 35.2633 138.02 35.3269 138.084V138.081Z" fill="#122F4C"/>
<path d="M46.2279 137.987C46.5029 137.987 46.7626 138.041 47.0095 138.15C47.2565 138.26 47.4678 138.402 47.646 138.58C47.8242 138.759 47.9668 138.97 48.0763 139.217C48.1857 139.464 48.2392 139.724 48.2392 139.999V149.688C48.2392 149.78 48.2086 149.856 48.145 149.92C48.0813 149.983 48.005 150.014 47.9133 150.014H45.5253C45.4336 150.014 45.3572 149.983 45.2936 149.92C45.23 149.856 45.1994 149.78 45.1994 149.688V146.613C45.1994 146.521 45.1714 146.445 45.1128 146.381C45.0543 146.317 44.9805 146.287 44.8888 146.287H41.4875C41.3958 146.287 41.3195 146.317 41.2558 146.381C41.1922 146.445 41.1616 146.521 41.1616 146.613V149.688C41.1616 149.907 41.0521 150.014 40.8357 150.014H38.4655C38.2491 150.014 38.1396 149.905 38.1396 149.688V139.999C38.1396 139.724 38.1906 139.464 38.2949 139.217C38.3993 138.97 38.5419 138.759 38.7252 138.58C38.9085 138.402 39.1224 138.26 39.3693 138.15C39.6163 138.041 39.8759 137.987 40.1509 137.987H46.233H46.2279ZM45.1969 143.708V140.683H41.1591V143.708H45.1969Z" fill="#122F4C"/>
<path d="M58.8659 142.934C59.1128 143.038 59.3241 143.181 59.5024 143.364C59.6806 143.547 59.8231 143.759 59.9326 144.001C60.0421 144.24 60.0956 144.5 60.0956 144.775V148.005C60.0956 148.28 60.0421 148.54 59.9326 148.787C59.8231 149.034 59.6806 149.248 59.5024 149.431C59.3241 149.614 59.1128 149.757 58.8659 149.861C58.6189 149.966 58.3593 150.017 58.0843 150.017H51.2282C51.0093 150.017 50.9023 149.907 50.9023 149.691V147.611C50.9023 147.519 50.9329 147.443 50.9965 147.379C51.0602 147.315 51.1366 147.285 51.2282 147.285H57.071C57.1627 147.285 57.2391 147.257 57.3027 147.198C57.3664 147.142 57.3969 147.066 57.3969 146.974V145.549C57.3969 145.457 57.3664 145.38 57.3027 145.317C57.2391 145.253 57.1627 145.223 57.071 145.223H52.9136C52.6386 145.223 52.379 145.172 52.132 145.067C51.8851 144.963 51.6712 144.82 51.4879 144.637C51.3046 144.454 51.162 144.242 51.0576 144.001C50.9533 143.759 50.9023 143.502 50.9023 143.227V139.996C50.9023 139.721 50.9533 139.461 51.0576 139.214C51.1595 138.967 51.3046 138.756 51.4879 138.578C51.6712 138.4 51.8851 138.257 52.132 138.148C52.379 138.038 52.6386 137.985 52.9136 137.985H59.3903C59.6093 137.985 59.7162 138.094 59.7162 138.311V140.424C59.7162 140.515 59.6857 140.589 59.622 140.648C59.5584 140.706 59.482 140.734 59.3903 140.734H53.909C53.8174 140.734 53.7436 140.765 53.685 140.828C53.629 140.892 53.5984 140.968 53.5984 141.06V142.453C53.5984 142.544 53.6264 142.621 53.685 142.684C53.741 142.748 53.8174 142.779 53.909 142.779H58.0843C58.3593 142.779 58.6189 142.83 58.8659 142.934Z" fill="#122F4C"/>
<path d="M70.7623 137.987C71.0373 137.987 71.297 138.041 71.5439 138.15C71.7909 138.26 72.0022 138.402 72.1804 138.58C72.3586 138.759 72.5012 138.97 72.6106 139.217C72.7201 139.464 72.7736 139.724 72.7736 139.999V148.005C72.7736 148.28 72.7201 148.54 72.6106 148.787C72.5012 149.034 72.3586 149.248 72.1804 149.431C72.0022 149.614 71.7909 149.757 71.5439 149.861C71.297 149.966 71.0373 150.017 70.7623 150.017H64.6802C64.4052 150.017 64.1456 149.966 63.8986 149.861C63.6517 149.757 63.4378 149.614 63.2545 149.431C63.0712 149.248 62.9286 149.034 62.8242 148.787C62.7224 148.54 62.6689 148.28 62.6689 148.005V139.999C62.6689 139.724 62.7199 139.464 62.8242 139.217C62.9286 138.97 63.0712 138.759 63.2545 138.58C63.4378 138.402 63.6517 138.26 63.8986 138.15C64.1456 138.041 64.4052 137.987 64.6802 137.987H70.7623ZM69.7312 140.907H65.6935V147.094H69.7312V140.907Z" fill="#122F4C"/>
<path d="M85.4805 138.081C85.5442 138.145 85.5747 138.221 85.5747 138.313V149.688C85.5747 149.78 85.5442 149.856 85.4805 149.92C85.4169 149.983 85.3405 150.014 85.2489 150.014H82.7743C82.6826 150.014 82.591 149.989 82.4993 149.938C82.4077 149.887 82.3389 149.821 82.2931 149.739L78.4946 142.728V149.686C78.4946 149.905 78.3852 150.011 78.1688 150.011H75.7985C75.5796 150.011 75.4727 149.902 75.4727 149.686V138.311C75.4727 138.094 75.5821 137.985 75.7985 137.985H78.2375C78.3291 137.985 78.4208 138.01 78.5124 138.061C78.6041 138.112 78.6728 138.178 78.7187 138.26L82.5324 145.286V138.311C82.5324 138.219 82.563 138.143 82.6266 138.079C82.6902 138.015 82.7666 137.985 82.8583 137.985H85.2463C85.338 137.985 85.4144 138.015 85.478 138.079L85.4805 138.081Z" fill="#122F4C"/>
<path d="M20.5885 40.0978C20.6598 40.1284 20.7209 40.1716 20.7718 40.2226C20.8228 40.2735 20.8635 40.3346 20.8966 40.4059C20.9297 40.4772 20.9424 40.551 20.9424 40.6299V43.4176C20.9424 43.4431 20.9322 43.466 20.9144 43.4838C20.8966 43.5017 20.8737 43.5118 20.8482 43.5118H20.1608C20.1354 43.5118 20.1125 43.5017 20.0972 43.4838C20.0819 43.466 20.0717 43.4431 20.0717 43.4176V40.8921H19.5193V43.4176C19.5193 43.4431 19.5116 43.466 19.4938 43.4838C19.476 43.5017 19.4556 43.5118 19.4302 43.5118H18.8064C18.781 43.5118 18.758 43.5017 18.7402 43.4838C18.7224 43.466 18.7122 43.4431 18.7122 43.4176V40.8921H18.1598V43.4176C18.1598 43.4813 18.1292 43.5118 18.0656 43.5118H17.3833C17.3196 43.5118 17.2891 43.4813 17.2891 43.4176V40.1436C17.2891 40.08 17.3196 40.0494 17.3833 40.0494H20.3645C20.4434 40.0494 20.5198 40.0647 20.5885 40.0953V40.0978Z" fill="#242425"/>
<path d="M24.0463 40.052C24.1252 40.052 24.2016 40.0673 24.2729 40.0978C24.3442 40.1284 24.4053 40.1717 24.4562 40.2226C24.5071 40.2735 24.5478 40.3346 24.5809 40.4059C24.614 40.4772 24.6267 40.551 24.6267 40.6299V43.4177C24.6267 43.4431 24.6166 43.466 24.5987 43.4839C24.5809 43.5017 24.558 43.5119 24.5326 43.5119H23.8452C23.8197 43.5119 23.7968 43.5017 23.779 43.4839C23.7611 43.466 23.751 43.4431 23.751 43.4177V42.5317C23.751 42.5062 23.7433 42.4833 23.7255 42.4655C23.7077 42.4477 23.6873 42.4375 23.6619 42.4375H22.6817C22.6562 42.4375 22.6333 42.4477 22.6155 42.4655C22.5977 42.4833 22.5875 42.5062 22.5875 42.5317V43.4177C22.5875 43.4813 22.5569 43.5119 22.4933 43.5119H21.811C21.7499 43.5119 21.7168 43.4813 21.7168 43.4177V40.6299C21.7168 40.551 21.7321 40.4746 21.7601 40.4059C21.7906 40.3346 21.8314 40.2735 21.8848 40.2226C21.9383 40.1717 21.9994 40.1309 22.0707 40.0978C22.142 40.0673 22.2158 40.052 22.2947 40.052H24.0463ZM23.751 41.6992V40.8285H22.59V41.6992H23.751Z" fill="#242425"/>
<path d="M27.7379 40.08C27.7557 40.0978 27.7659 40.1207 27.7659 40.1462V42.9339C27.7659 43.0129 27.7506 43.0892 27.7201 43.158C27.6895 43.2293 27.6462 43.2904 27.5953 43.3438C27.5444 43.3973 27.4833 43.438 27.412 43.4686C27.3407 43.4991 27.2669 43.5118 27.188 43.5118H25.6986C25.6197 43.5118 25.5433 43.4966 25.4746 43.4686C25.4033 43.438 25.3422 43.3973 25.2887 43.3438C25.2353 43.2904 25.1945 43.2293 25.164 43.158C25.1334 43.0867 25.1182 43.0129 25.1182 42.9339V41.8748C25.1182 41.8112 25.1487 41.7806 25.2124 41.7806H25.8947C25.9558 41.7806 25.9889 41.8112 25.9889 41.8748V42.5826C25.9889 42.6081 25.9965 42.631 26.0169 42.6462C26.0347 42.6615 26.0576 42.6717 26.0831 42.6717H26.801C26.8265 42.6717 26.8494 42.6641 26.8672 42.6462C26.885 42.6284 26.8952 42.6081 26.8952 42.5826V40.1436C26.8952 40.1182 26.9028 40.0953 26.9207 40.0774C26.9385 40.0596 26.9588 40.0494 26.9843 40.0494H27.6717C27.6971 40.0494 27.7201 40.0596 27.7379 40.0774V40.08Z" fill="#242425"/>
<path d="M30.8662 40.052C30.9451 40.052 31.0215 40.0673 31.0903 40.0978C31.1615 40.1284 31.2226 40.1717 31.2736 40.2226C31.3245 40.2735 31.3652 40.3346 31.3983 40.4059C31.4314 40.4772 31.4441 40.551 31.4441 40.6299V42.9339C31.4441 43.0129 31.4289 43.0892 31.3983 43.158C31.3678 43.2267 31.327 43.2904 31.2736 43.3438C31.2226 43.3973 31.1615 43.438 31.0903 43.4686C31.019 43.4991 30.9451 43.5119 30.8662 43.5119H29.1146C29.0357 43.5119 28.9593 43.4966 28.8906 43.4686C28.8193 43.438 28.7582 43.3973 28.7048 43.3438C28.6513 43.2904 28.6106 43.2293 28.58 43.158C28.5495 43.0867 28.5342 43.0129 28.5342 42.9339V40.6299C28.5342 40.551 28.5495 40.4746 28.58 40.4059C28.6106 40.3371 28.6513 40.2735 28.7048 40.2226C28.7582 40.1717 28.8193 40.1309 28.8906 40.0978C28.9619 40.0673 29.0357 40.052 29.1146 40.052H30.8662ZM30.5709 40.8921H29.41V42.6717H30.5709V40.8921Z" fill="#242425"/>
<path d="M35.2376 43.4329C35.2503 43.4558 35.2529 43.4762 35.2427 43.4889C35.2325 43.5042 35.2147 43.5118 35.1892 43.5118H34.4025C34.3771 43.5118 34.3491 43.5042 34.3236 43.4889C34.2982 43.4737 34.2778 43.4558 34.2651 43.4329L33.7406 42.4935C33.733 42.4808 33.7228 42.4731 33.705 42.4731H33.1169C33.1016 42.4731 33.0914 42.4808 33.0914 42.4986V43.4176C33.0914 43.4813 33.0608 43.5118 32.9972 43.5118H32.3149C32.2513 43.5118 32.2207 43.4813 32.2207 43.4176V40.1436C32.2207 40.08 32.2513 40.0494 32.3149 40.0494H34.5502C34.6291 40.0494 34.7055 40.0647 34.7742 40.0953C34.8455 40.1258 34.9066 40.1691 34.9575 40.22C35.0085 40.2709 35.0492 40.332 35.0823 40.4033C35.1128 40.4746 35.1281 40.5484 35.1281 40.6274V41.9283C35.1281 42.0531 35.0899 42.1676 35.0161 42.2669C34.9423 42.3687 34.8481 42.4349 34.731 42.4731L34.7157 42.4782C34.6928 42.4859 34.6877 42.4935 34.7004 42.5088L34.7055 42.519L35.235 43.4329H35.2376ZM34.2523 40.8565H33.0608V41.6966H34.2523V40.8565Z" fill="#242425"/>
<path d="M39.8991 42.6717C39.9246 42.6717 39.9475 42.6819 39.9628 42.6997C39.9781 42.7175 39.9883 42.7404 39.9883 42.7659V43.4176C39.9883 43.4431 39.9806 43.466 39.9628 43.4838C39.945 43.5017 39.9246 43.5118 39.8991 43.5118H37.7631C37.6995 43.5118 37.6689 43.4813 37.6689 43.4176V40.1436C37.6689 40.08 37.6995 40.0494 37.7631 40.0494H38.4454C38.5091 40.0494 38.5396 40.08 38.5396 40.1436V42.5826C38.5396 42.6081 38.5473 42.631 38.5676 42.6462C38.588 42.6615 38.6084 42.6717 38.6338 42.6717H39.8991Z" fill="#242425"/>
<path d="M43.0918 40.0799C43.1096 40.0977 43.1198 40.1207 43.1198 40.1461V40.7699C43.1198 40.7953 43.1096 40.8182 43.0918 40.8335C43.074 40.8488 43.0511 40.859 43.0256 40.859H41.3682C41.3529 40.859 41.3428 40.8666 41.3428 40.8844V41.4242C41.3428 41.4369 41.3504 41.4445 41.3682 41.4445H42.7837C42.8092 41.4445 42.8321 41.4547 42.8474 41.4725C42.8627 41.4903 42.8728 41.5133 42.8728 41.5387V42.0326C42.8728 42.0581 42.8652 42.081 42.8474 42.0988C42.8296 42.1166 42.8092 42.1268 42.7837 42.1268H41.3682C41.3529 42.1268 41.3428 42.1345 41.3428 42.1523V42.6869C41.3428 42.7022 41.3504 42.7124 41.3682 42.7124H43.0256C43.0511 42.7124 43.074 42.7226 43.0918 42.7404C43.1096 42.7582 43.1198 42.7811 43.1198 42.8066V43.4252C43.1198 43.4507 43.1096 43.4736 43.0918 43.4914C43.074 43.5092 43.0511 43.5194 43.0256 43.5194H40.5688C40.5052 43.5194 40.4746 43.4889 40.4746 43.4252V40.1512C40.4746 40.1257 40.4848 40.1028 40.5026 40.085C40.5204 40.0672 40.5434 40.057 40.5688 40.057H43.0256C43.0511 40.057 43.074 40.0672 43.0918 40.085V40.0799Z" fill="#242425"/>
<path d="M46.2279 40.052C46.3069 40.052 46.3832 40.0673 46.4545 40.0978C46.5258 40.1284 46.5869 40.1717 46.6378 40.2226C46.6887 40.2735 46.7295 40.3346 46.7626 40.4059C46.7957 40.4772 46.8084 40.551 46.8084 40.6299V43.4177C46.8084 43.4431 46.7982 43.466 46.7804 43.4839C46.7626 43.5017 46.7397 43.5119 46.7142 43.5119H46.0268C46.0013 43.5119 45.9784 43.5017 45.9606 43.4839C45.9428 43.466 45.9326 43.4431 45.9326 43.4177V42.5317C45.9326 42.5062 45.925 42.4833 45.9071 42.4655C45.8893 42.4477 45.869 42.4375 45.8435 42.4375H44.8633C44.8379 42.4375 44.815 42.4477 44.7971 42.4655C44.7793 42.4833 44.7691 42.5062 44.7691 42.5317V43.4177C44.7691 43.4813 44.7386 43.5119 44.6749 43.5119H43.9926C43.9315 43.5119 43.8984 43.4813 43.8984 43.4177V40.6299C43.8984 40.551 43.9137 40.4746 43.9417 40.4059C43.9723 40.3346 44.013 40.2735 44.0665 40.2226C44.1199 40.1717 44.181 40.1309 44.2523 40.0978C44.3236 40.0673 44.3974 40.052 44.4764 40.052H46.2279ZM45.9326 41.6992V40.8285H44.7717V41.6992H45.9326Z" fill="#242425"/>
<path d="M50.4601 41.6508C50.4779 41.6686 50.4881 41.6916 50.4881 41.717V42.9339C50.4881 43.0129 50.4728 43.0892 50.4423 43.158C50.4117 43.2267 50.371 43.2904 50.3175 43.3438C50.2666 43.3973 50.2055 43.438 50.1342 43.4686C50.0629 43.4991 49.9891 43.5119 49.9102 43.5119H48.1586C48.0797 43.5119 48.0033 43.4966 47.9345 43.4686C47.8633 43.438 47.8022 43.3973 47.7487 43.3438C47.6952 43.2904 47.6545 43.2293 47.6239 43.158C47.5934 43.0867 47.5781 43.0129 47.5781 42.9339V40.6299C47.5781 40.551 47.5934 40.4746 47.6239 40.4059C47.6545 40.3371 47.6952 40.2735 47.7487 40.2226C47.8022 40.1717 47.8633 40.1309 47.9345 40.0978C48.0058 40.0673 48.0797 40.052 48.1586 40.052H50.2004C50.2258 40.052 50.2488 40.0622 50.2666 40.08C50.2844 40.0978 50.2946 40.1207 50.2946 40.1462V40.7979C50.2946 40.8234 50.2844 40.8463 50.2666 40.8641C50.2488 40.882 50.2258 40.8921 50.2004 40.8921H48.543C48.5176 40.8921 48.4946 40.8998 48.4768 40.9176C48.459 40.9354 48.4488 40.9558 48.4488 40.9813V42.5826C48.4488 42.6081 48.459 42.631 48.4768 42.6463C48.4946 42.6615 48.5176 42.6717 48.543 42.6717H49.5232C49.5486 42.6717 49.5716 42.6641 49.5868 42.6463C49.6021 42.6284 49.6123 42.6081 49.6123 42.5826V41.717C49.6123 41.6916 49.6199 41.6686 49.6403 41.6508C49.6607 41.633 49.681 41.6228 49.7065 41.6228H50.3939C50.4193 41.6228 50.4422 41.633 50.4601 41.6508Z" fill="#242425"/>
<path d="M54.1075 40.08C54.1254 40.0978 54.1355 40.1207 54.1355 40.1462V42.9339C54.1355 43.0129 54.1203 43.0892 54.0897 43.158C54.0592 43.2267 54.0184 43.2904 53.965 43.3438C53.914 43.3973 53.8529 43.438 53.7817 43.4686C53.7104 43.4991 53.6365 43.5119 53.5551 43.5119H51.8035C51.7246 43.5119 51.6482 43.4966 51.5795 43.4686C51.5082 43.438 51.4471 43.3973 51.3936 43.3438C51.3401 43.2904 51.2994 43.2293 51.2689 43.158C51.2383 43.0867 51.2256 43.0129 51.2256 42.9339V40.1462C51.2256 40.0826 51.2561 40.052 51.3198 40.052H52.0021C52.0632 40.052 52.0963 40.0826 52.0963 40.1462V42.5852C52.0963 42.6106 52.1065 42.6335 52.1243 42.6488C52.1421 42.6641 52.165 42.6743 52.1905 42.6743H53.1706C53.1961 42.6743 53.219 42.6666 53.2343 42.6488C53.2496 42.631 53.2597 42.6106 53.2597 42.5852V40.1462C53.2597 40.1207 53.2699 40.0978 53.2878 40.08C53.3056 40.0622 53.3285 40.052 53.3539 40.052H54.0413C54.0668 40.052 54.0897 40.0622 54.1075 40.08Z" fill="#242425"/>
<path d="M57.5351 40.0799C57.553 40.0977 57.5631 40.1207 57.5631 40.1461V40.7699C57.5631 40.7953 57.553 40.8182 57.5351 40.8335C57.5173 40.8488 57.4944 40.859 57.4689 40.859H55.8116C55.7963 40.859 55.7861 40.8666 55.7861 40.8844V41.4242C55.7861 41.4369 55.7938 41.4445 55.8116 41.4445H57.2271C57.2525 41.4445 57.2755 41.4547 57.2907 41.4725C57.306 41.4903 57.3162 41.5133 57.3162 41.5387V42.0326C57.3162 42.0581 57.3086 42.081 57.2907 42.0988C57.2729 42.1166 57.2525 42.1268 57.2271 42.1268H55.8116C55.7963 42.1268 55.7861 42.1345 55.7861 42.1523V42.6869C55.7861 42.7022 55.7938 42.7124 55.8116 42.7124H57.4689C57.4944 42.7124 57.5173 42.7226 57.5351 42.7404C57.553 42.7582 57.5631 42.7811 57.5631 42.8066V43.4252C57.5631 43.4507 57.553 43.4736 57.5351 43.4914C57.5173 43.5092 57.4944 43.5194 57.4689 43.5194H55.0122C54.9485 43.5194 54.918 43.4889 54.918 43.4252V40.1512C54.918 40.1257 54.9282 40.1028 54.946 40.085C54.9638 40.0672 54.9867 40.057 55.0122 40.057H57.4689C57.4944 40.057 57.5173 40.0672 57.5351 40.085V40.0799Z" fill="#242425"/>
<path d="M62.8431 40.052C62.8686 40.052 62.8915 40.0622 62.9093 40.08C62.9271 40.0978 62.9373 40.1207 62.9373 40.1462V43.4202C62.9373 43.4457 62.9297 43.4686 62.9093 43.4864C62.8889 43.5042 62.8686 43.5144 62.8431 43.5144H62.1557C62.1302 43.5144 62.1073 43.5042 62.0895 43.4864C62.0717 43.4686 62.0615 43.4457 62.0615 43.4202V42.2771C62.0615 42.2516 62.0539 42.2287 62.0361 42.2135C62.0182 42.1982 61.9979 42.188 61.9724 42.188H60.9922C60.9668 42.188 60.9439 42.1956 60.926 42.2135C60.9082 42.2313 60.898 42.2516 60.898 42.2771V43.4202C60.898 43.4839 60.8675 43.5144 60.8038 43.5144H60.1215C60.0579 43.5144 60.0273 43.4839 60.0273 43.4202V40.1462C60.0273 40.0826 60.0579 40.052 60.1215 40.052H60.8038C60.8675 40.052 60.898 40.0826 60.898 40.1462V41.2537C60.898 41.3173 60.9286 41.3479 60.9922 41.3479H61.9724C61.9979 41.3479 62.0208 41.3377 62.0361 41.3199C62.0513 41.302 62.0615 41.2791 62.0615 41.2537V40.1462C62.0615 40.1207 62.0717 40.0978 62.0895 40.08C62.1073 40.0622 62.1302 40.052 62.1557 40.052H62.8431Z" fill="#242425"/>
<path d="M66.0482 40.052C66.1272 40.052 66.2035 40.0673 66.2748 40.0978C66.3461 40.1284 66.4072 40.1717 66.4581 40.2226C66.509 40.2735 66.5498 40.3346 66.5829 40.4059C66.616 40.4772 66.6287 40.551 66.6287 40.6299V43.4177C66.6287 43.4431 66.6185 43.466 66.6007 43.4839C66.5829 43.5017 66.56 43.5119 66.5345 43.5119H65.8471C65.8217 43.5119 65.7987 43.5017 65.7809 43.4839C65.7631 43.466 65.7529 43.4431 65.7529 43.4177V42.5317C65.7529 42.5062 65.7453 42.4833 65.7275 42.4655C65.7096 42.4477 65.6893 42.4375 65.6638 42.4375H64.6836C64.6582 42.4375 64.6353 42.4477 64.6174 42.4655C64.5996 42.4833 64.5894 42.5062 64.5894 42.5317V43.4177C64.5894 43.4813 64.5589 43.5119 64.4952 43.5119H63.8129C63.7518 43.5119 63.7188 43.4813 63.7188 43.4177V40.6299C63.7188 40.551 63.734 40.4746 63.762 40.4059C63.7926 40.3346 63.8333 40.2735 63.8868 40.2226C63.9402 40.1717 64.0013 40.1309 64.0726 40.0978C64.1439 40.0673 64.2177 40.052 64.2967 40.052H66.0482ZM65.7529 41.6992V40.8285H64.592V41.6992H65.7529Z" fill="#242425"/>
<path d="M68.2913 40.9176C68.2735 40.9329 68.2633 40.9558 68.2633 40.9813V42.5826C68.2633 42.6081 68.2709 42.631 68.2913 42.6463C68.3116 42.6615 68.332 42.6717 68.3575 42.6717H69.9461C69.9716 42.6717 69.9945 42.6819 70.0123 42.6997C70.0301 42.7175 70.0403 42.7405 70.0403 42.7659V43.4177C70.0403 43.4431 70.0327 43.466 70.0123 43.4839C69.9919 43.5017 69.9716 43.5119 69.9461 43.5119H67.973C67.8941 43.5119 67.8177 43.4966 67.749 43.4686C67.6777 43.438 67.6166 43.3973 67.5632 43.3438C67.5097 43.2904 67.469 43.2293 67.4384 43.158C67.4079 43.0867 67.3926 43.0129 67.3926 42.9339V40.6299C67.3926 40.551 67.4079 40.4746 67.4384 40.4059C67.469 40.3346 67.5097 40.2735 67.5632 40.2226C67.6166 40.1717 67.6777 40.1309 67.749 40.0978C67.8203 40.0673 67.8941 40.052 67.973 40.052H69.9461C69.9716 40.052 69.9945 40.0622 70.0123 40.08C70.0301 40.0978 70.0403 40.1207 70.0403 40.1462V40.7979C70.0403 40.8234 70.0327 40.8463 70.0123 40.8641C69.9919 40.882 69.9716 40.8921 69.9461 40.8921H68.3575C68.332 40.8921 68.3091 40.8998 68.2913 40.9176Z" fill="#242425"/>
<path d="M72.793 41.5108C72.793 41.5108 72.7802 41.5312 72.7879 41.5464L73.9463 43.4355C73.959 43.4584 73.9615 43.4788 73.9513 43.4915C73.9412 43.5068 73.9233 43.5144 73.8979 43.5144H73.0781C73.0526 43.5144 73.0246 43.5068 72.9992 43.4915C72.9737 43.4762 72.9534 43.4584 72.9406 43.4355L72.1947 42.0862C72.1845 42.0709 72.1769 42.0683 72.1692 42.0811L71.7593 42.5317C71.7441 42.5495 71.7288 42.5724 71.7186 42.603C71.7059 42.6335 71.7008 42.6641 71.7008 42.6895V43.4202C71.7008 43.4839 71.6702 43.5144 71.6066 43.5144H70.9243C70.8606 43.5144 70.8301 43.4839 70.8301 43.4202V40.1462C70.8301 40.0826 70.8606 40.052 70.9243 40.052H71.6066C71.6702 40.052 71.7008 40.0826 71.7008 40.1462V41.6152L72.9763 40.1207C72.9915 40.1004 73.0145 40.0851 73.045 40.0724C73.0756 40.0596 73.1036 40.052 73.129 40.052H73.9488C73.9743 40.052 73.9895 40.0596 73.9946 40.0724C73.9997 40.0851 73.9946 40.1029 73.9768 40.1207L72.7955 41.5108H72.793Z" fill="#242425"/>
<path d="M75.4586 43.4202C75.4586 43.4839 75.428 43.5144 75.3644 43.5144H74.6821C74.6184 43.5144 74.5879 43.4839 74.5879 43.4202V40.1462C74.5879 40.0826 74.6184 40.052 74.6821 40.052H75.3644C75.428 40.052 75.4586 40.0826 75.4586 40.1462V43.4202Z" fill="#242425"/>
<path d="M78.7865 40.0978C78.8578 40.1284 78.9189 40.1716 78.9698 40.2226C79.0208 40.2735 79.0615 40.3346 79.0946 40.4059C79.1251 40.4772 79.1404 40.551 79.1404 40.6299V43.4176C79.1404 43.4431 79.1328 43.466 79.1124 43.4838C79.0921 43.5017 79.0717 43.5118 79.0462 43.5118H78.3588C78.3334 43.5118 78.3105 43.5017 78.2952 43.4838C78.2799 43.466 78.2697 43.4431 78.2697 43.4176V40.9787C78.2697 40.9532 78.2595 40.9303 78.2417 40.915C78.2239 40.8998 78.201 40.8896 78.1755 40.8896H77.1954C77.1699 40.8896 77.147 40.8972 77.1292 40.915C77.1113 40.9329 77.1012 40.9532 77.1012 40.9787V43.4176C77.1012 43.4813 77.0706 43.5118 77.007 43.5118H76.3247C76.261 43.5118 76.2305 43.4813 76.2305 43.4176V40.1436C76.2305 40.08 76.261 40.0494 76.3247 40.0494H78.56C78.6389 40.0494 78.7153 40.0647 78.784 40.0953L78.7865 40.0978Z" fill="#242425"/>
<path d="M82.7921 41.6508C82.8099 41.6686 82.8201 41.6916 82.8201 41.717V42.9339C82.8201 43.0129 82.8048 43.0892 82.7743 43.158C82.7437 43.2267 82.703 43.2904 82.6495 43.3438C82.5986 43.3973 82.5375 43.438 82.4662 43.4686C82.3949 43.4991 82.3211 43.5119 82.2422 43.5119H80.4906C80.4117 43.5119 80.3353 43.4966 80.2666 43.4686C80.1953 43.438 80.1342 43.3973 80.0807 43.3438C80.0273 43.2904 79.9865 43.2293 79.956 43.158C79.9254 43.0867 79.9102 43.0129 79.9102 42.9339V40.6299C79.9102 40.551 79.9254 40.4746 79.956 40.4059C79.9865 40.3371 80.0273 40.2735 80.0807 40.2226C80.1342 40.1717 80.1953 40.1309 80.2666 40.0978C80.3379 40.0673 80.4117 40.052 80.4906 40.052H82.5324C82.5579 40.052 82.5808 40.0622 82.5986 40.08C82.6164 40.0978 82.6266 40.1207 82.6266 40.1462V40.7979C82.6266 40.8234 82.6164 40.8463 82.5986 40.8641C82.5808 40.882 82.5579 40.8921 82.5324 40.8921H80.8751C80.8496 40.8921 80.8267 40.8998 80.8089 40.9176C80.791 40.9354 80.7808 40.9558 80.7808 40.9813V42.5826C80.7808 42.6081 80.791 42.631 80.8089 42.6463C80.8267 42.6615 80.8496 42.6717 80.8751 42.6717H81.8552C81.8807 42.6717 81.9036 42.6641 81.9189 42.6463C81.9341 42.6284 81.9443 42.6081 81.9443 42.5826V41.717C81.9443 41.6916 81.952 41.6686 81.9723 41.6508C81.9927 41.633 82.0131 41.6228 82.0385 41.6228H82.7259C82.7514 41.6228 82.7743 41.633 82.7921 41.6508Z" fill="#242425"/>
<path d="M38.1477 16.2224C38.5958 16.421 38.9803 16.6807 39.3036 17.0015C39.6269 17.3248 39.8866 17.7092 40.0852 18.1548C40.2837 18.6028 40.383 19.0738 40.383 19.5728V37.7327C40.383 37.8981 40.3245 38.0407 40.2099 38.1527C40.0954 38.2647 39.9553 38.3233 39.7873 38.3233H35.444C35.276 38.3233 35.141 38.2673 35.0367 38.1527C34.9323 38.0382 34.8814 37.8981 34.8814 37.7327V21.2251H31.3808V37.7327C31.3808 37.8981 31.3273 38.0407 31.2255 38.1527C31.1211 38.2673 30.9862 38.3233 30.8181 38.3233H26.8796C26.7116 38.3233 26.5716 38.2673 26.457 38.1527C26.3425 38.0382 26.2839 37.8981 26.2839 37.7327V21.2251H22.7833V37.7327C22.7833 38.1273 22.5847 38.3258 22.1901 38.3258H17.8774C17.4802 38.3258 17.2842 38.1273 17.2842 37.7327V16.5178C17.2842 16.1231 17.4828 15.9246 17.8774 15.9246H36.722C37.221 15.9246 37.6946 16.0239 38.1427 16.2199L38.1477 16.2224Z" fill="#E73427"/>
<path d="M38.1479 16.2224C38.596 16.421 38.9804 16.6807 39.3038 17.0015C39.6271 17.3248 39.8868 17.7092 40.0853 18.1548C40.2839 18.6028 40.3832 19.0738 40.3832 19.5728V21.192L34.8841 21.2251H22.7911L17.292 21.192V16.5178C17.292 16.1231 17.4906 15.9246 17.8852 15.9246H36.7299C37.2289 15.9246 37.7024 16.0239 38.1505 16.2199L38.1479 16.2224Z" fill="#E73427"/>
<path d="M59.3215 32.8904C59.4971 32.8904 59.6422 32.9489 59.7517 33.0661C59.8612 33.1832 59.9172 33.3283 59.9172 33.4989V37.7225C59.9172 37.8931 59.8612 38.0382 59.7517 38.1553C59.6422 38.2724 59.4971 38.331 59.3215 38.331H44.4433C44.0232 38.331 43.8145 38.1273 43.8145 37.7225V16.5356C43.8145 16.1308 44.0232 15.9271 44.4433 15.9271H49.0106C49.4307 15.9271 49.6394 16.1308 49.6394 16.5356V32.315C49.6394 32.4856 49.7005 32.6256 49.8228 32.73C49.945 32.8369 50.0926 32.8904 50.2708 32.8904H59.3215Z" fill="#1D539F"/>
<path d="M49.594 38.331H44.4437C44.0261 38.331 43.8174 38.1273 43.8174 37.7225V16.5356C43.8174 16.1308 44.0261 15.9271 44.4437 15.9271H49.0008C49.4183 15.9271 49.6271 16.1308 49.6271 16.5356V32.315C49.6271 32.4856 49.594 38.331 49.594 38.331Z" fill="#1D539F"/>
<path d="M82.1884 15.9271C82.3666 15.9271 82.5168 15.9857 82.639 16.1028C82.7613 16.2199 82.8224 16.365 82.8224 16.5356V37.7836C82.8224 37.9541 82.7613 38.0993 82.639 38.2164C82.5168 38.3335 82.3666 38.392 82.1884 38.392H77.56C77.3818 38.392 77.2316 38.3335 77.1094 38.2164C76.9872 38.0993 76.9261 37.9541 76.9261 37.7836V30.3699C76.9261 30.1994 76.8701 30.0593 76.7606 29.9524C76.6486 29.8455 76.506 29.792 76.3278 29.792H69.8358C69.6576 29.792 69.5074 29.8455 69.3851 29.9524C69.2629 30.0593 69.2018 30.1994 69.2018 30.3699V37.7836C69.2018 38.1909 68.9905 38.3946 68.5705 38.3946H63.9751C63.5525 38.3946 63.3438 38.1909 63.3438 37.7836V16.5356C63.3438 16.1282 63.5551 15.9246 63.9751 15.9246H68.5705C68.9905 15.9246 69.2018 16.1282 69.2018 16.5356V23.7252C69.2018 24.1325 69.4131 24.3362 69.8332 24.3362H76.3252C76.5035 24.3362 76.646 24.2776 76.758 24.1605C76.8701 24.0434 76.9235 23.8983 76.9235 23.7277V16.5381C76.9235 16.3675 76.9846 16.2224 77.1068 16.1053C77.229 15.9882 77.3792 15.9297 77.5575 15.9297H82.1859L82.1884 15.9271Z" fill="#F8B92A"/>
<path d="M69.2057 30.3699V37.7836C69.2057 38.1909 68.9944 38.3946 68.5744 38.3946H63.979C63.5564 38.3946 63.3477 38.1909 63.3477 37.7836V16.5356C63.3477 16.1282 63.559 15.9246 63.979 15.9246H68.5744C68.9944 15.9246 69.2057 16.1282 69.2057 16.5356V30.3699Z" fill="#F8B92A"/>
<path d="M82.1881 15.9271C82.3663 15.9271 82.5166 15.9857 82.6388 16.1028C82.761 16.2199 82.8221 16.365 82.8221 16.5356V37.7836C82.8221 37.9542 82.761 38.0993 82.6388 38.2164C82.5166 38.3335 82.3663 38.3921 82.1881 38.3921H77.5597C77.3815 38.3921 77.2313 38.3335 77.1091 38.2164C76.9869 38.0993 76.9258 37.9542 76.9258 37.7836V16.5356C76.9258 16.365 76.9869 16.2199 77.1091 16.1028C77.2313 15.9857 77.3815 15.9271 77.5597 15.9271H82.1881Z" fill="#F8B92A"/>
<path d="M19.8448 124.311V126.895C19.9034 127.185 20.0765 127.33 20.3668 127.33H30.1175C30.2728 127.33 30.3976 127.384 30.4943 127.491C30.591 127.597 30.6394 127.727 30.6394 127.883V131.393C30.6394 131.549 30.591 131.679 30.4943 131.785C30.3976 131.892 30.2728 131.946 30.1175 131.946H15.8376C15.471 131.946 15.2852 131.763 15.2852 131.393V123.094C15.2852 122.63 15.3717 122.195 15.5474 121.788C15.723 121.38 15.9624 121.024 16.273 120.713C16.5836 120.403 16.9451 120.161 17.3626 119.988C17.7776 119.815 18.218 119.726 18.6839 119.726H25.5629C25.7182 119.726 25.8481 119.672 25.955 119.565C26.0619 119.458 26.1154 119.328 26.1154 119.173V116.823C26.1154 116.668 26.0619 116.538 25.955 116.431C25.8481 116.324 25.7182 116.271 25.5629 116.271H16.4486C16.2933 116.271 16.1686 116.222 16.0718 116.126C15.9751 116.029 15.9267 115.904 15.9267 115.749V112.18C15.9267 112.024 15.9751 111.894 16.0718 111.787C16.1686 111.681 16.2933 111.627 16.4486 111.627H27.2737C27.7371 111.627 28.1725 111.719 28.5798 111.902C28.9871 112.085 29.3436 112.327 29.6542 112.628C29.9622 112.928 30.2066 113.284 30.3797 113.702C30.5529 114.119 30.642 114.557 30.642 115.023V115.835C30.6598 115.856 30.67 115.884 30.67 115.922V123.323C30.67 123.478 30.6165 123.603 30.5096 123.7C30.4026 123.796 30.2728 123.845 30.1175 123.845H20.3668C20.0943 123.845 19.9212 124 19.8448 124.308V124.311Z" fill="#122F4C"/>
<path d="M45.8206 111.63C46.284 111.63 46.7244 111.721 47.1419 111.905C47.5569 112.088 47.9159 112.33 48.2163 112.63C48.5167 112.931 48.7586 113.287 48.9419 113.705C49.1252 114.122 49.2168 114.56 49.2168 115.026V128.55C49.2168 129.013 49.1252 129.453 48.9419 129.871C48.7586 130.288 48.5167 130.65 48.2163 130.958C47.9159 131.269 47.5595 131.51 47.1419 131.684C46.7244 131.857 46.2865 131.946 45.8206 131.946H37.0857C36.6223 131.946 36.1819 131.859 35.7644 131.684C35.3468 131.51 34.9853 131.269 34.6773 130.958C34.3667 130.65 34.1248 130.286 33.9517 129.871C33.7786 129.456 33.6895 129.016 33.6895 128.55V115.026C33.6895 114.563 33.776 114.122 33.9517 113.705C34.1248 113.29 34.3667 112.931 34.6773 112.63C34.9853 112.33 35.3494 112.088 35.7644 111.905C36.1793 111.721 36.6198 111.63 37.0857 111.63H45.8206ZM44.2829 116.564H38.6234V127.012H44.2829V116.564Z" fill="#122F4C"/>
<path d="M56.7325 124.311V126.895C56.7911 127.185 56.9642 127.33 57.2544 127.33H67.0052C67.1605 127.33 67.2853 127.384 67.382 127.491C67.4787 127.597 67.5271 127.727 67.5271 127.883V131.393C67.5271 131.549 67.4787 131.679 67.382 131.785C67.2853 131.892 67.1605 131.946 67.0052 131.946H52.7253C52.3587 131.946 52.1729 131.763 52.1729 131.393V123.094C52.1729 122.63 52.2594 122.195 52.4351 121.788C52.6082 121.38 52.8501 121.024 53.1607 120.713C53.4713 120.403 53.8328 120.161 54.2478 119.988C54.6627 119.815 55.1032 119.726 55.5691 119.726H62.4481C62.6034 119.726 62.7332 119.672 62.8401 119.565C62.9471 119.458 63.0005 119.328 63.0005 119.173V116.823C63.0005 116.668 62.9471 116.538 62.8401 116.431C62.7332 116.324 62.6034 116.271 62.4481 116.271H53.3338C53.1785 116.271 53.0537 116.222 52.957 116.126C52.8602 116.029 52.8119 115.904 52.8119 115.749V112.18C52.8119 112.024 52.8602 111.894 52.957 111.787C53.0537 111.681 53.1785 111.627 53.3338 111.627H64.1589C64.6223 111.627 65.0576 111.719 65.4649 111.902C65.8723 112.085 66.2287 112.327 66.5393 112.628C66.8499 112.928 67.0918 113.284 67.2649 113.702C67.438 114.119 67.5271 114.557 67.5271 115.023V115.835C67.5449 115.856 67.5551 115.884 67.5551 115.922V123.323C67.5551 123.478 67.5017 123.603 67.3947 123.7C67.2878 123.796 67.158 123.845 67.0027 123.845H57.2519C56.9795 123.845 56.8064 124 56.73 124.308L56.7325 124.311Z" fill="#122F4C"/>
<path d="M84.7836 111.787C84.8905 111.894 84.944 112.024 84.944 112.18V131.393C84.944 131.549 84.8905 131.679 84.7836 131.785C84.6767 131.892 84.5468 131.946 84.3915 131.946H80.3563C80.201 131.946 80.0762 131.892 79.9795 131.785C79.8828 131.679 79.8344 131.549 79.8344 131.393V126.633C79.8344 126.477 79.7809 126.353 79.674 126.256C79.5671 126.159 79.4372 126.111 79.2819 126.111H72.8103C72.3469 126.111 71.9065 126.019 71.489 125.836C71.074 125.652 70.7099 125.411 70.4019 125.11C70.0913 124.81 69.8494 124.453 69.6763 124.036C69.5032 123.621 69.4141 123.18 69.4141 122.714V112.18C69.4141 111.813 69.5974 111.627 69.9665 111.627H73.9712C74.3378 111.627 74.5237 111.81 74.5237 112.18V120.451C74.5237 120.606 74.5771 120.736 74.6841 120.843C74.791 120.95 74.9208 121.004 75.0761 121.004H79.2845C79.4398 121.004 79.5696 120.95 79.6765 120.843C79.7835 120.736 79.8369 120.606 79.8369 120.451V112.18C79.8369 112.024 79.8853 111.894 79.9821 111.787C80.0788 111.681 80.2035 111.627 80.3588 111.627H84.3941C84.5494 111.627 84.6792 111.681 84.7861 111.787H84.7836Z" fill="#122F4C"/>
</g>
<defs>
<clipPath id="clip0_233_1954">
<rect width="101" height="176" fill="white"/>
</clipPath>
</defs>
</svg>
