<?xml version="1.0" encoding="UTF-8" standalone="no"?>
<!DOCTYPE svg PUBLIC "-//W3C//DTD SVG 1.1//EN" "http://www.w3.org/Graphics/SVG/1.1/DTD/svg11.dtd">
<svg width="100%" height="100%" viewBox="0 0 30 30" version="1.1"
    xmlns="http://www.w3.org/2000/svg" style="fill:currentColor;fill-rule:evenodd;clip-rule:evenodd;stroke-linejoin:round;stroke-miterlimit:2;">
    <path d="M12.711,29.826C5.517,28.723 0,22.501 0,15C0,6.721 6.721,0 15,0C23.279,0 30,6.721 30,15C30,22.53 24.44,28.771 17.205,29.839L17.205,18.971L20.997,18.971L21.559,14.477L17.205,14.477L17.205,11.668C17.205,10.405 17.626,9.562 19.452,9.562L21.84,9.562L21.84,5.489C21.418,5.489 20.014,5.349 18.469,5.349C15.098,5.349 12.711,7.455 12.711,11.247L12.711,14.477L8.919,14.477L8.919,18.971L12.711,18.971L12.711,29.826Z"/>
</svg>
