<svg width="41" height="40" viewBox="0 0 41 40" fill="none" xmlns="http://www.w3.org/2000/svg">
<path d="M20.1748 0C22.827 0 25.3705 1.05357 27.2459 2.92893C29.1212 4.8043 30.1748 7.34784 30.1748 10C30.1748 12.6522 29.1212 15.1957 27.2459 17.0711C25.3705 18.9464 22.827 20 20.1748 20C17.5226 20 14.9791 18.9464 13.1037 17.0711C11.2284 15.1957 10.1748 12.6522 10.1748 10C10.1748 7.34784 11.2284 4.8043 13.1037 2.92893C14.9791 1.05357 17.5226 0 20.1748 0ZM20.1748 25C31.2248 25 40.1748 29.475 40.1748 35V40H0.174805V35C0.174805 29.475 9.1248 25 20.1748 25Z" fill="currentColor"/>
</svg>
