<svg width="35" height="40" viewBox="0 0 35 40" fill="none" xmlns="http://www.w3.org/2000/svg">
<path d="M22.8571 0H11.4286V3.80952H22.8571V0ZM15.2381 24.7619H19.0476V13.3333H15.2381V24.7619ZM30.5333 12.1714L33.2381 9.46667C32.419 8.49524 31.5238 7.58095 30.5524 6.78095L27.8476 9.48571C24.8952 7.12381 21.181 5.71429 17.1429 5.71429C7.67619 5.71429 0 13.3905 0 22.8571C0 32.3238 7.65714 40 17.1429 40C26.6286 40 34.2857 32.3238 34.2857 22.8571C34.2857 18.819 32.8762 15.1048 30.5333 12.1714ZM17.1429 36.1905C9.77143 36.1905 3.80952 30.2286 3.80952 22.8571C3.80952 15.4857 9.77143 9.52381 17.1429 9.52381C24.5143 9.52381 30.4762 15.4857 30.4762 22.8571C30.4762 30.2286 24.5143 36.1905 17.1429 36.1905Z" fill="currentColor"/>
</svg>
