<?xml version="1.0" encoding="UTF-8" standalone="no"?>
<!DOCTYPE svg PUBLIC "-//W3C//DTD SVG 1.1//EN" "http://www.w3.org/Graphics/SVG/1.1/DTD/svg11.dtd">
<svg width="100%" height="100%" viewBox="0 0 314 50" version="1.1"
    xmlns="http://www.w3.org/2000/svg"
    style="fill-rule:evenodd;clip-rule:evenodd;stroke-linejoin:round;stroke-miterlimit:2;fill:currentColor;">
    <g transform="matrix(1,0,0,1,-41.0367,-59.2295)">
        <path d="M252.3,75.1C257.8,76.6 260,80.7 260,89.3C260,101.5 256.2,106 245.7,106C234.1,106 230.6,102.4 230.5,90.5C230.5,85.2 231,82.6 232.5,80C235.7,74.6 243.6,72.7 252.3,75.1ZM240.7,79.7C235.3,81.1 234.3,96.8 239.4,100.2C241.8,101.8 250,101 251.9,99.1C256,95 255.4,82.4 251,80C249.1,79 244,78.8 240.7,79.7ZM146.3,75.1C150.9,76.3 153,80.3 153,87.5L153,92L142,92C131.9,92 131,92.2 131,93.9C131,94.9 131.9,96.8 132.9,98.1C134.7,100.3 135.6,100.5 143.4,100.5C148.1,100.4 152,100.7 152,101C152,101.4 151.4,102.5 150.6,103.6C149.4,105.2 147.9,105.5 141.2,105.5C128.6,105.5 125.5,102.5 125.5,90C125.5,77 133.3,71.5 146.3,75.1ZM133.1,81.6C129.4,86.3 130.2,87 139,87C146.8,87 147,86.9 147,84.6C147,80.9 144.4,79 139.5,79C136,79 134.7,79.5 133.1,81.6ZM289,65.9C291.6,66.5 294.2,67.7 295.2,69C297.2,71.5 297.6,77.4 296,81.6C295.2,83.7 295.3,85.1 296.6,87.8C298.9,92.7 298,99.4 294.6,102.8C292.4,105.1 291.1,105.4 283.3,105.8C273.8,106.2 269.7,105.2 268.1,102.1C267.1,100.3 267.4,100.2 278.1,100.3C288,100.5 289.3,100.3 290.6,98.6C292.3,96.3 292.4,92.6 291,89.9C290.1,88.2 288.8,88 280.6,88C275.5,88 271,87.7 270.7,87.4C270.4,87 270.5,85.9 271.1,84.9C271.9,83.3 273.3,83 280,83C288.8,83 291,81.8 291,77C291,71.7 288.8,70.7 278.3,71.2C273.2,71.5 269,71.4 269,71.1C269,69.1 272.1,66.6 275.6,66C281,64.9 283.7,64.9 289,65.9ZM198.8,68.3L199.1,74.9L207.6,74.7C215.9,74.5 216.2,74.6 218.6,77.3C221,80.1 221,80.7 220.8,92.8L220.5,105.5L215.5,105.5L215.2,93.8C215,84.7 214.6,81.9 213.4,80.9C211.8,79.6 202,79.3 200,80.5C199.4,80.9 199,86.1 199,93.5L199,105.9L196.3,105.7L193.5,105.5L193.3,84C193.2,72.3 193.3,62.3 193.5,62C193.7,61.6 194.9,61.4 196.2,61.5C198.3,61.6 198.5,62.2 198.8,68.3ZM183,75.3C184.4,76 185.6,77.3 185.8,78.1C186,79.5 184.9,79.7 178.6,79.6C168.7,79.5 166.7,81.2 166.7,89.7C166.7,92.9 167.2,96.5 167.8,97.7C169.3,100.4 174.3,101.5 181.1,100.6C185,100.1 186,100.2 186,101.4C186,105.8 173.8,107.7 167,104.2C162.3,101.9 161,98.9 161,90.4C161,81.9 163.5,77.2 169,75.3C173.6,73.7 179.9,73.7 183,75.3ZM98.4,64.1C103.3,65.5 110.3,71.9 113.1,77.7C115.9,83.5 115.3,91.8 111.6,99.3C107,108.4 106.9,108.4 81,108.8C56,109.2 51.9,108.6 46.5,103.9C37.8,96.2 39.8,80.8 50.3,75.3C53.8,73.4 63.5,73.1 65.2,74.8C66.5,76.1 59.6,95.6 56.6,98.9C55.5,100.2 53.2,101.9 51.5,102.6C48.8,103.8 48.7,103.9 50.8,104C54.8,104 59.9,101.2 62,97.8C63.1,96 65,91.6 66.1,88C72.8,67.7 83.3,59.9 98.4,64.1ZM335.5,67.4C340.6,69.6 342.5,73.9 342.5,84C342.5,94.1 341.8,96.8 338.5,100.9C335.3,104.6 328.5,106.2 317.4,105.8L309.5,105.5L309.2,85.7L309,66L320.5,66C328.2,66 333.2,66.5 335.5,67.4ZM315,100L322.6,100C326.7,100 330.9,99.6 331.9,99C334.8,97.5 336.5,92 336.4,84.5C336.3,73.1 334.1,71 321.9,71L315,71L315,100ZM350.959,59.23C351.577,59.23 352.18,59.398 352.769,59.736C353.357,60.074 353.816,60.557 354.144,61.186C354.473,61.815 354.637,62.471 354.637,63.153C354.637,63.829 354.475,64.478 354.151,65.102C353.828,65.726 353.374,66.21 352.791,66.554C352.207,66.899 351.596,67.072 350.959,67.072C350.322,67.072 349.711,66.899 349.127,66.554C348.544,66.21 348.089,65.726 347.764,65.102C347.439,64.478 347.276,63.829 347.276,63.153C347.276,62.471 347.441,61.815 347.771,61.186C348.101,60.557 348.561,60.074 349.149,59.736C349.738,59.398 350.341,59.23 350.959,59.23ZM350.959,59.879C350.442,59.879 349.939,60.02 349.449,60.303C348.96,60.585 348.577,60.989 348.301,61.514C348.024,62.038 347.886,62.585 347.886,63.153C347.886,63.718 348.022,64.259 348.293,64.777C348.565,65.295 348.944,65.699 349.432,65.988C349.92,66.277 350.429,66.422 350.959,66.422C351.489,66.422 351.998,66.277 352.486,65.988C352.973,65.699 353.352,65.295 353.622,64.777C353.892,64.259 354.027,63.718 354.027,63.153C354.027,62.585 353.89,62.038 353.615,61.514C353.34,60.989 352.957,60.585 352.466,60.303C351.975,60.02 351.473,59.879 350.959,59.879ZM349.344,65.32L349.344,61.1L350.705,61.1C351.17,61.1 351.507,61.139 351.715,61.217C351.923,61.295 352.089,61.431 352.213,61.625C352.336,61.819 352.398,62.025 352.398,62.244C352.398,62.552 352.295,62.821 352.088,63.049C351.882,63.278 351.608,63.406 351.266,63.434C351.406,63.496 351.518,63.571 351.603,63.657C351.762,63.824 351.957,64.102 352.188,64.494L352.671,65.32L351.891,65.32L351.539,64.655C351.263,64.132 351.04,63.804 350.871,63.673C350.754,63.576 350.583,63.527 350.359,63.527L349.983,63.527L349.983,65.32L349.344,65.32ZM349.983,62.945L350.759,62.945C351.13,62.945 351.383,62.886 351.517,62.769C351.652,62.651 351.72,62.495 351.72,62.301C351.72,62.176 351.687,62.064 351.622,61.966C351.557,61.867 351.467,61.793 351.352,61.745C351.236,61.696 351.022,61.672 350.71,61.672L349.983,61.672L349.983,62.945Z" />
    </g>
</svg>
