<?xml version="1.0" encoding="UTF-8" standalone="no"?>
<!DOCTYPE svg PUBLIC "-//W3C//DTD SVG 1.1//EN" "http://www.w3.org/Graphics/SVG/1.1/DTD/svg11.dtd">
<svg width="100%" height="100%" viewBox="0 0 768 160" version="1.1"
    xmlns="http://www.w3.org/2000/svg"
    style="fill-rule:evenodd;clip-rule:evenodd;stroke-linejoin:round;stroke-miterlimit:2;fill:currentColor">
    <path d="M191.829,114.916C185.833,122.766 176.762,127.772 166.618,127.772C148.582,127.772 133.938,111.943 133.938,92.446C133.938,72.948 148.582,57.119 166.618,57.119C175.982,57.119 184.431,61.385 190.391,68.215C190.391,68.215 191.658,68.698 191.759,67.732C191.859,66.765 189.777,59.125 194.85,59.052C199.924,58.98 200.95,59.036 200.95,59.036C200.95,59.036 204.94,58.782 204.94,67.837L204.94,129.786C204.94,129.786 203.167,156.919 170.087,156.919C170.087,156.919 152.264,159.425 143.171,149.023C141.344,147.668 143.779,138.613 148.825,140.125C150.549,140.641 154.597,145.791 165.985,145.878C177.373,145.965 188.473,143.648 191.25,128.407C191.25,128.407 192.069,118.96 191.829,114.916ZM169.531,69.258C157.434,69.258 147.613,79.573 147.613,92.279C147.613,104.985 157.434,115.301 169.531,115.301C181.629,115.301 191.45,104.985 191.45,92.279C191.45,79.573 181.629,69.258 169.531,69.258Z" style=""/>
    <path d="M73.152,92.662C72.692,96.651 71.616,101.214 70.806,103.487C64.184,122.067 55.183,131.371 35.549,131.371C15.915,131.371 -0.026,115.357 -0.026,95.633C-0.026,75.908 15.915,59.894 35.549,59.894C42.691,59.894 50.084,62.381 56.471,66.43C57.282,67.388 59.785,70.969 56.047,75.112L23.318,111.22C23.318,111.22 21.104,113.71 23.908,115.147C23.908,115.147 35.128,121.823 45.57,115.248C45.57,115.248 56.551,108.42 60.247,98.737C60.86,99.068 62.343,92.974 62.572,90.079C63.583,87.606 66.376,87.837 67.647,87.835C68.918,87.834 73.122,87.028 73.15,92.547C73.15,92.586 73.151,92.625 73.152,92.662ZM43.253,73.683C43.253,73.683 29.064,66.939 18.581,78.298C18.581,78.298 6.397,88.682 13.899,104.953L43.253,73.683Z" style=""/>
    <g transform="matrix(0.975303,0,0,1,10.1362,0)">
        <path d="M416.885,4.172C436.722,4.172 452.827,20.277 452.827,40.114C452.827,59.951 436.722,76.056 416.885,76.056C397.048,76.056 380.943,59.951 380.943,40.114C380.943,20.277 397.048,4.172 416.885,4.172ZM416.885,16.953C404.102,16.953 393.724,27.331 393.724,40.114C393.724,52.897 404.102,63.275 416.885,63.275C429.668,63.275 440.046,52.897 440.046,40.114C440.046,27.331 429.668,16.953 416.885,16.953Z" style=""/>
    </g>
    <g transform="matrix(0.240727,0,0,0.240727,312.811,29.8999)">
        <circle cx="432.334" cy="42.43" r="33.094" style=""/>
    </g>
    <g transform="matrix(0.975303,0,0,1,-150.648,51.7006)">
        <path d="M416.885,4.172C436.722,4.172 452.827,20.277 452.827,40.114C452.827,59.951 436.722,76.056 416.885,76.056C397.048,76.056 380.943,59.951 380.943,40.114C380.943,20.277 397.048,4.172 416.885,4.172ZM416.885,16.953C404.102,16.953 393.724,27.331 393.724,40.114C393.724,52.897 404.102,63.275 416.885,63.275C429.668,63.275 440.046,52.897 440.046,40.114C440.046,27.331 429.668,16.953 416.885,16.953Z" style=""/>
    </g>
    <g transform="matrix(0.240727,0,0,0.240727,152.026,81.6005)">
        <circle cx="432.334" cy="42.43" r="33.094" style=""/>
    </g>
    <g transform="matrix(2.73002,0,0,2.73002,-624.634,-194.668)">
        <path d="M355.76,118.215L353.221,109.918L354.674,109.918L355.995,114.707L356.487,116.488C356.508,116.4 356.651,115.829 356.916,114.777L358.237,109.918L359.682,109.918L360.924,114.731L361.338,116.316L361.815,114.715L363.237,109.918L364.604,109.918L362.01,118.215L360.549,118.215L359.229,113.246L358.909,111.832L357.229,118.215L355.76,118.215Z" style="fill-rule:nonzero;"/>
        <path d="M366.316,114.066C366.316,112.53 366.743,111.392 367.597,110.652C368.311,110.038 369.181,109.731 370.207,109.731C371.347,109.731 372.28,110.104 373.004,110.852C373.728,111.599 374.09,112.632 374.09,113.949C374.09,115.017 373.93,115.857 373.609,116.469C373.289,117.081 372.823,117.556 372.211,117.895C371.599,118.233 370.931,118.402 370.207,118.402C369.045,118.402 368.107,118.03 367.39,117.285C366.674,116.54 366.316,115.467 366.316,114.066ZM367.762,114.066C367.762,115.129 367.993,115.925 368.457,116.453C368.92,116.982 369.504,117.246 370.207,117.246C370.905,117.246 371.486,116.981 371.949,116.449C372.413,115.918 372.644,115.108 372.644,114.02C372.644,112.994 372.411,112.216 371.945,111.688C371.479,111.159 370.9,110.895 370.207,110.895C369.504,110.895 368.92,111.158 368.457,111.684C367.993,112.21 367.762,113.004 367.762,114.066Z" style="fill-rule:nonzero;"/>
        <path d="M376.778,118.215L376.778,109.918L378.044,109.918L378.044,111.176C378.367,110.587 378.665,110.199 378.939,110.012C379.212,109.824 379.513,109.731 379.841,109.731C380.315,109.731 380.797,109.882 381.286,110.184L380.802,111.488C380.458,111.285 380.114,111.184 379.771,111.184C379.463,111.184 379.187,111.276 378.943,111.461C378.698,111.646 378.523,111.902 378.419,112.231C378.263,112.731 378.185,113.277 378.185,113.871L378.185,118.215L376.778,118.215Z" style="fill-rule:nonzero;"/>
        <path d="M383.186,118.215L383.186,106.762L384.592,106.762L384.592,113.293L387.92,109.918L389.741,109.918L386.569,112.996L390.061,118.215L388.327,118.215L385.584,113.973L384.592,114.926L384.592,118.215L383.186,118.215Z" style="fill-rule:nonzero;"/>
        <path d="M391.672,115.738L393.062,115.52C393.14,116.077 393.358,116.504 393.715,116.801C394.071,117.098 394.57,117.246 395.211,117.246C395.857,117.246 396.336,117.115 396.648,116.852C396.961,116.589 397.117,116.28 397.117,115.926C397.117,115.608 396.979,115.358 396.703,115.176C396.51,115.051 396.031,114.892 395.265,114.699C394.234,114.439 393.519,114.214 393.121,114.023C392.723,113.833 392.42,113.57 392.215,113.234C392.009,112.898 391.906,112.527 391.906,112.121C391.906,111.751 391.991,111.409 392.16,111.094C392.329,110.779 392.56,110.517 392.851,110.309C393.07,110.147 393.368,110.01 393.746,109.898C394.124,109.786 394.529,109.731 394.961,109.731C395.612,109.731 396.183,109.824 396.676,110.012C397.168,110.199 397.531,110.453 397.765,110.773C398,111.094 398.161,111.522 398.25,112.059L396.875,112.246C396.812,111.819 396.631,111.486 396.332,111.246C396.032,111.007 395.609,110.887 395.062,110.887C394.417,110.887 393.956,110.994 393.68,111.207C393.404,111.421 393.265,111.671 393.265,111.957C393.265,112.139 393.323,112.303 393.437,112.449C393.552,112.6 393.732,112.725 393.976,112.824C394.117,112.876 394.531,112.996 395.219,113.184C396.213,113.449 396.907,113.667 397.301,113.836C397.694,114.005 398.002,114.251 398.226,114.574C398.45,114.897 398.562,115.298 398.562,115.777C398.562,116.246 398.426,116.688 398.152,117.102C397.879,117.516 397.484,117.836 396.969,118.063C396.453,118.289 395.87,118.402 395.219,118.402C394.14,118.402 393.319,118.178 392.754,117.731C392.189,117.283 391.828,116.619 391.672,115.738Z" style="fill-rule:nonzero;"/>
        <path d="M401.29,121.395L401.29,109.918L402.571,109.918L402.571,110.996C402.874,110.574 403.215,110.258 403.595,110.047C403.975,109.836 404.436,109.731 404.978,109.731C405.686,109.731 406.311,109.913 406.853,110.277C407.394,110.642 407.803,111.156 408.079,111.82C408.355,112.484 408.493,113.212 408.493,114.004C408.493,114.853 408.341,115.617 408.036,116.297C407.732,116.977 407.289,117.497 406.708,117.859C406.127,118.221 405.517,118.402 404.876,118.402C404.407,118.402 403.987,118.303 403.614,118.106C403.242,117.908 402.936,117.658 402.696,117.356L402.696,121.395L401.29,121.395ZM402.564,114.113C402.564,115.181 402.78,115.97 403.212,116.481C403.644,116.991 404.168,117.246 404.782,117.246C405.407,117.246 405.943,116.982 406.388,116.453C406.833,115.925 407.056,115.106 407.056,113.996C407.056,112.939 406.838,112.147 406.404,111.621C405.969,111.095 405.449,110.832 404.845,110.832C404.246,110.832 403.716,111.112 403.255,111.672C402.794,112.232 402.564,113.046 402.564,114.113Z" style="fill-rule:nonzero;"/>
        <path d="M416.659,117.191C416.138,117.634 415.637,117.947 415.155,118.129C414.673,118.311 414.156,118.402 413.604,118.402C412.693,118.402 411.992,118.18 411.502,117.734C411.013,117.289 410.768,116.72 410.768,116.027C410.768,115.621 410.861,115.25 411.045,114.914C411.23,114.578 411.473,114.309 411.772,114.106C412.071,113.902 412.409,113.749 412.784,113.645C413.06,113.572 413.476,113.501 414.034,113.434C415.169,113.298 416.005,113.137 416.542,112.949C416.547,112.757 416.549,112.634 416.549,112.582C416.549,112.009 416.417,111.606 416.151,111.371C415.792,111.053 415.258,110.895 414.549,110.895C413.888,110.895 413.4,111.01 413.085,111.242C412.769,111.474 412.536,111.884 412.385,112.473L411.01,112.285C411.135,111.697 411.341,111.221 411.627,110.859C411.914,110.497 412.328,110.219 412.87,110.023C413.411,109.828 414.039,109.731 414.752,109.731C415.461,109.731 416.036,109.814 416.479,109.981C416.922,110.147 417.247,110.357 417.456,110.609C417.664,110.862 417.81,111.181 417.893,111.566C417.94,111.806 417.963,112.238 417.963,112.863L417.963,114.738C417.963,116.046 417.993,116.872 418.053,117.219C418.113,117.565 418.232,117.897 418.409,118.215L416.94,118.215C416.794,117.923 416.7,117.582 416.659,117.191ZM416.542,114.051C416.031,114.259 415.266,114.436 414.245,114.582C413.667,114.665 413.258,114.759 413.018,114.863C412.779,114.967 412.594,115.12 412.463,115.32C412.333,115.521 412.268,115.744 412.268,115.988C412.268,116.363 412.41,116.676 412.694,116.926C412.978,117.176 413.393,117.301 413.94,117.301C414.482,117.301 414.963,117.182 415.385,116.945C415.807,116.708 416.117,116.384 416.315,115.973C416.466,115.655 416.542,115.186 416.542,114.566L416.542,114.051Z" style="fill-rule:nonzero;"/>
        <path d="M426.613,115.176L427.996,115.356C427.845,116.309 427.458,117.055 426.836,117.594C426.213,118.133 425.449,118.402 424.543,118.402C423.407,118.402 422.495,118.031 421.805,117.289C421.114,116.547 420.769,115.483 420.769,114.098C420.769,113.202 420.918,112.418 421.215,111.746C421.512,111.074 421.963,110.57 422.57,110.234C423.177,109.898 423.837,109.731 424.551,109.731C425.452,109.731 426.189,109.958 426.762,110.414C427.335,110.87 427.702,111.517 427.863,112.356L426.496,112.566C426.366,112.009 426.135,111.59 425.805,111.309C425.474,111.027 425.074,110.887 424.605,110.887C423.897,110.887 423.322,111.141 422.879,111.648C422.436,112.156 422.215,112.96 422.215,114.059C422.215,115.173 422.428,115.983 422.855,116.488C423.282,116.994 423.84,117.246 424.527,117.246C425.079,117.246 425.54,117.077 425.91,116.738C426.28,116.4 426.514,115.879 426.613,115.176Z" style="fill-rule:nonzero;"/>
        <path d="M435.935,115.543L437.388,115.723C437.159,116.572 436.734,117.231 436.114,117.699C435.495,118.168 434.703,118.402 433.739,118.402C432.526,118.402 431.564,118.029 430.853,117.281C430.142,116.534 429.786,115.486 429.786,114.137C429.786,112.741 430.146,111.658 430.864,110.887C431.583,110.116 432.516,109.731 433.661,109.731C434.771,109.731 435.677,110.108 436.38,110.863C437.083,111.619 437.435,112.681 437.435,114.051C437.435,114.134 437.432,114.259 437.427,114.426L431.239,114.426C431.292,115.337 431.549,116.035 432.013,116.52C432.476,117.004 433.055,117.246 433.747,117.246C434.263,117.246 434.703,117.111 435.068,116.84C435.432,116.569 435.721,116.137 435.935,115.543ZM431.318,113.27L435.95,113.27C435.888,112.572 435.711,112.048 435.419,111.699C434.971,111.158 434.391,110.887 433.677,110.887C433.031,110.887 432.488,111.103 432.048,111.535C431.608,111.967 431.364,112.546 431.318,113.27Z" style="fill-rule:nonzero;"/>
    </g>
    <g transform="matrix(2.73002,0,0,2.73002,-374.026,-194.421)">
        <path d="M354.565,118.215L354.565,111.012L353.323,111.012L353.323,109.918L354.565,109.918L354.565,109.035C354.565,108.478 354.614,108.064 354.713,107.793C354.849,107.428 355.087,107.133 355.428,106.906C355.769,106.68 356.247,106.566 356.862,106.566C357.258,106.566 357.695,106.613 358.174,106.707L357.963,107.934C357.672,107.882 357.396,107.856 357.135,107.856C356.708,107.856 356.406,107.947 356.229,108.129C356.052,108.311 355.963,108.652 355.963,109.152L355.963,109.918L357.581,109.918L357.581,111.012L355.963,111.012L355.963,118.215L354.565,118.215Z" style="fill-rule:nonzero;"/>
        <path d="M359.738,108.379L359.738,106.762L361.144,106.762L361.144,108.379L359.738,108.379ZM359.738,118.215L359.738,109.918L361.144,109.918L361.144,118.215L359.738,118.215Z" style="fill-rule:nonzero;"/>
        <path d="M367.411,116.957L367.614,118.199C367.219,118.283 366.864,118.324 366.552,118.324C366.042,118.324 365.646,118.244 365.364,118.082C365.083,117.921 364.885,117.708 364.771,117.445C364.656,117.182 364.599,116.629 364.599,115.785L364.599,111.012L363.568,111.012L363.568,109.918L364.599,109.918L364.599,107.863L365.997,107.02L365.997,109.918L367.411,109.918L367.411,111.012L365.997,111.012L365.997,115.863C365.997,116.264 366.022,116.522 366.071,116.637C366.121,116.751 366.202,116.842 366.314,116.91C366.426,116.978 366.586,117.012 366.794,117.012C366.95,117.012 367.156,116.994 367.411,116.957Z" style="fill-rule:nonzero;"/>
        <path d="M369.842,118.215L369.842,109.918L371.108,109.918L371.108,111.098C371.717,110.186 372.598,109.731 373.749,109.731C374.249,109.731 374.708,109.82 375.127,110C375.547,110.18 375.861,110.415 376.069,110.707C376.277,110.999 376.423,111.345 376.506,111.746C376.558,112.007 376.584,112.462 376.584,113.113L376.584,118.215L375.178,118.215L375.178,113.168C375.178,112.595 375.124,112.167 375.014,111.883C374.905,111.599 374.711,111.372 374.432,111.203C374.153,111.034 373.827,110.949 373.452,110.949C372.853,110.949 372.336,111.139 371.901,111.52C371.466,111.9 371.249,112.621 371.249,113.684L371.249,118.215L369.842,118.215Z" style="fill-rule:nonzero;"/>
        <path d="M385.476,115.543L386.93,115.723C386.7,116.572 386.276,117.231 385.656,117.699C385.036,118.168 384.245,118.402 383.281,118.402C382.068,118.402 381.105,118.029 380.394,117.281C379.683,116.534 379.328,115.486 379.328,114.137C379.328,112.741 379.687,111.658 380.406,110.887C381.125,110.116 382.057,109.731 383.203,109.731C384.312,109.731 385.219,110.108 385.922,110.863C386.625,111.619 386.976,112.681 386.976,114.051C386.976,114.134 386.974,114.259 386.969,114.426L380.781,114.426C380.833,115.337 381.091,116.035 381.555,116.52C382.018,117.004 382.596,117.246 383.289,117.246C383.805,117.246 384.245,117.111 384.609,116.84C384.974,116.569 385.263,116.137 385.476,115.543ZM380.859,113.27L385.492,113.27C385.43,112.572 385.252,112.048 384.961,111.699C384.513,111.158 383.932,110.887 383.219,110.887C382.573,110.887 382.03,111.103 381.59,111.535C381.15,111.967 380.906,112.546 380.859,113.27Z" style="fill-rule:nonzero;"/>
        <path d="M389.189,115.738L390.579,115.52C390.657,116.077 390.875,116.504 391.232,116.801C391.588,117.098 392.087,117.246 392.728,117.246C393.374,117.246 393.853,117.115 394.165,116.852C394.478,116.589 394.634,116.28 394.634,115.926C394.634,115.608 394.496,115.358 394.22,115.176C394.027,115.051 393.548,114.892 392.782,114.699C391.751,114.439 391.036,114.214 390.638,114.023C390.239,113.833 389.937,113.57 389.732,113.234C389.526,112.898 389.423,112.527 389.423,112.121C389.423,111.751 389.508,111.409 389.677,111.094C389.846,110.779 390.077,110.517 390.368,110.309C390.587,110.147 390.885,110.01 391.263,109.898C391.64,109.786 392.045,109.731 392.478,109.731C393.129,109.731 393.7,109.824 394.193,110.012C394.685,110.199 395.048,110.453 395.282,110.773C395.517,111.094 395.678,111.522 395.767,112.059L394.392,112.246C394.329,111.819 394.148,111.486 393.849,111.246C393.549,111.007 393.126,110.887 392.579,110.887C391.933,110.887 391.473,110.994 391.196,111.207C390.92,111.421 390.782,111.671 390.782,111.957C390.782,112.139 390.84,112.303 390.954,112.449C391.069,112.6 391.249,112.725 391.493,112.824C391.634,112.876 392.048,112.996 392.736,113.184C393.73,113.449 394.424,113.667 394.818,113.836C395.211,114.005 395.519,114.251 395.743,114.574C395.967,114.897 396.079,115.298 396.079,115.777C396.079,116.246 395.943,116.688 395.669,117.102C395.396,117.516 395.001,117.836 394.486,118.063C393.97,118.289 393.387,118.402 392.736,118.402C391.657,118.402 390.836,118.178 390.271,117.731C389.706,117.283 389.345,116.619 389.189,115.738Z" style="fill-rule:nonzero;"/>
        <path d="M398.245,115.738L399.635,115.52C399.713,116.077 399.931,116.504 400.288,116.801C400.644,117.098 401.143,117.246 401.784,117.246C402.43,117.246 402.909,117.115 403.221,116.852C403.534,116.589 403.69,116.28 403.69,115.926C403.69,115.608 403.552,115.358 403.276,115.176C403.083,115.051 402.604,114.892 401.838,114.699C400.807,114.439 400.092,114.214 399.694,114.023C399.295,113.833 398.993,113.57 398.788,113.234C398.582,112.898 398.479,112.527 398.479,112.121C398.479,111.751 398.564,111.409 398.733,111.094C398.902,110.779 399.133,110.517 399.424,110.309C399.643,110.147 399.941,110.01 400.319,109.898C400.696,109.786 401.101,109.731 401.534,109.731C402.185,109.731 402.756,109.824 403.249,110.012C403.741,110.199 404.104,110.453 404.338,110.773C404.573,111.094 404.734,111.522 404.823,112.059L403.448,112.246C403.385,111.819 403.204,111.486 402.905,111.246C402.605,111.007 402.182,110.887 401.635,110.887C400.989,110.887 400.529,110.994 400.252,111.207C399.976,111.421 399.838,111.671 399.838,111.957C399.838,112.139 399.896,112.303 400.01,112.449C400.125,112.6 400.305,112.725 400.549,112.824C400.69,112.876 401.104,112.996 401.792,113.184C402.786,113.449 403.48,113.667 403.874,113.836C404.267,114.005 404.575,114.251 404.799,114.574C405.023,114.897 405.135,115.298 405.135,115.777C405.135,116.246 404.999,116.688 404.725,117.102C404.452,117.516 404.057,117.836 403.542,118.063C403.026,118.289 402.443,118.402 401.792,118.402C400.713,118.402 399.892,118.178 399.327,117.731C398.762,117.283 398.401,116.619 398.245,115.738Z" style="fill-rule:nonzero;"/>
    </g>
    <g transform="matrix(8.66646,-3.29731,3.29731,8.66646,-2640.32,580.68)">
        <path d="M316.724,57.52C316.673,57.604 316.615,57.972 316.609,58.165L316.538,64.264C316.73,64.772 317.619,64.853 317.898,64.264L317.969,61.063C317.969,60.69 317.979,60.525 318.08,60.21C318.181,59.896 318.767,58.971 319.071,58.843C319.375,58.715 319.719,58.542 320.135,58.542C320.658,58.542 321.069,58.691 321.367,58.99C321.666,59.289 321.815,59.694 321.815,60.206L321.75,64.333C322.226,64.91 322.679,64.894 323.11,64.333L323.175,60.366C323.175,59.918 323.13,59.51 323.039,59.142C322.949,58.774 322.791,58.457 322.567,58.19C322.343,57.923 322.024,57.76 321.661,57.61C321.299,57.461 320.871,57.342 320.327,57.342C319.101,57.342 318.582,57.772 318.017,58.775C317.985,58.805 317.96,58.796 317.936,58.783C317.984,58.406 318.012,58.058 317.928,57.632C317.887,57.426 316.847,57.322 316.724,57.52Z" style="fill-rule:nonzero;"/>
    </g>
    <g transform="matrix(9.27253,0,0,9.27253,-2845.35,-473.207)">
        <path d="M316.724,57.52C316.673,57.604 316.615,57.972 316.609,58.165L316.538,64.264C316.73,64.772 317.619,64.853 317.898,64.264L317.969,61.063C317.969,60.69 317.979,60.525 318.08,60.21C318.181,59.896 318.767,58.971 319.071,58.843C319.375,58.715 319.824,58.651 320.24,58.651C320.762,58.651 320.822,57.258 320.278,57.258C319.052,57.258 318.582,57.772 318.017,58.775C317.985,58.805 317.96,58.796 317.936,58.783C317.984,58.406 318.012,58.058 317.928,57.632C317.887,57.426 316.847,57.322 316.724,57.52Z" style="fill-rule:nonzero;"/>
    </g>
    <path d="M526.931,34.275L526.248,70.835C522.239,76.034 518.041,76.169 513.637,70.808L514.328,32.546C514.338,27.798 512.962,24.037 510.199,21.262C507.435,18.486 506.839,17.497 501.992,17.486C498.135,17.478 494.935,19.071 492.114,20.251C489.292,21.432 483.846,29.999 482.9,32.915C481.954,35.831 481.862,37.357 481.854,40.819L481.128,70.499C478.529,75.951 470.291,75.181 468.517,70.471L469.303,13.914C469.358,12.13 469.903,8.721 470.383,7.944C471.52,6.107 481.166,7.092 481.541,9.008C482.315,12.958 482.047,16.181 481.59,19.677C481.817,19.793 482.05,19.879 482.34,19.602C487.603,10.316 492.423,6.338 503.797,6.363C508.841,6.374 509.594,7.081 512.953,8.473C516.313,9.866 519.27,11.391 521.342,13.868C522.808,15.621 523.964,17.609 524.81,19.831C530.085,10.721 538.66,6.418 549.929,6.442C554.974,6.454 555.726,7.16 559.086,8.552C562.446,9.945 565.403,11.47 567.475,13.947C569.546,16.424 570.999,19.37 571.832,22.784C572.665,26.198 573.077,29.982 573.068,34.136L572.38,70.914C568.371,76.113 564.173,76.248 559.769,70.887L560.461,32.625C560.471,27.878 559.095,24.116 556.331,21.341C553.568,18.565 552.971,17.576 548.125,17.566C544.267,17.557 541.068,19.15 538.246,20.33C535.646,21.418 528.741,30.563 526.931,34.275Z" style=""/>
    <path d="M693.254,40.139C691.648,37.991 675.492,16.395 672.059,12.712C668.445,8.836 672.012,8.219 672.012,8.219C672.012,8.219 677.905,7.338 682.373,9.066C686.644,10.718 701.598,31.337 702.906,33.149C704.214,31.337 719.168,10.718 723.439,9.066C727.907,7.338 733.8,8.219 733.8,8.219C733.8,8.219 737.367,8.836 733.754,12.712C730.14,16.589 711.605,40.141 711.605,40.141C711.605,40.141 730.999,64.686 734.791,68.753C738.582,72.819 734.839,73.467 734.839,73.467C734.839,73.467 728.657,74.391 723.969,72.578C719.488,70.845 703.799,49.212 702.426,47.311C701.054,49.212 685.365,70.845 680.884,72.578C676.196,74.391 670.014,73.467 670.014,73.467C670.014,73.467 666.271,72.819 670.062,68.753C673.853,64.686 693.248,40.141 693.248,40.141L693.254,40.139Z" style=""/>
    <g transform="matrix(0.800126,0,0,0.772044,135.822,-7.58128)">
        <path d="M762.627,28.367L762.627,13.565L756.997,13.565L756.997,10.984L771.201,10.984L771.201,13.565L765.528,13.565L765.528,28.367L762.627,28.367ZM773.142,28.367L773.142,10.984L777.408,10.984L781.801,24.869L786.046,10.984L790.226,10.984L790.226,28.367L787.581,28.367L787.581,13.778L783.102,28.367L780.479,28.367L775.808,13.565L775.808,28.367L773.142,28.367Z" style="fill-rule:nonzero;"/>
    </g>
    <g transform="matrix(0.507949,0,0,0.490121,348.341,93.4815)">
        <path d="M762.627,28.367L762.627,13.565L756.997,13.565L756.997,10.984L771.201,10.984L771.201,13.565L765.528,13.565L765.528,28.367L762.627,28.367ZM773.142,28.367L773.142,10.984L777.408,10.984L781.801,24.869L786.046,10.984L790.226,10.984L790.226,28.367L787.581,28.367L787.581,13.778L783.102,28.367L780.479,28.367L775.808,13.565L775.808,28.367L773.142,28.367Z" style="fill-rule:nonzero;"/>
    </g>
    <g transform="matrix(1,0,0,1,-76.1818,0)">
        <path d="M693.254,40.139C691.648,37.991 675.492,16.395 672.059,12.712C668.445,8.836 672.012,8.219 672.012,8.219C672.012,8.219 677.905,7.338 682.373,9.066C686.644,10.718 701.598,31.337 702.906,33.149C704.214,31.337 719.168,10.718 723.439,9.066C727.907,7.338 733.8,8.219 733.8,8.219C733.8,8.219 737.367,8.836 733.754,12.712C730.14,16.589 685.365,70.845 680.884,72.578C676.196,74.391 670.014,73.467 670.014,73.467C670.014,73.467 666.271,72.819 670.062,68.753C673.853,64.686 693.248,40.141 693.248,40.141L693.254,40.139Z" style=""/>
    </g>
</svg>
