<svg width="100%" height="100%" viewBox="0 0 553 202" fill="currentColor"
    xmlns="http://www.w3.org/2000/svg">
    <path d="M195.934 140.856H202.836C219.713 140.856 228.152 146.843 228.152 158.818C228.086 162.313 227.197 165.742 225.556 168.826C223.915 171.909 221.569 174.559 218.71 176.56C212.453 181.56 203.848 184.06 192.897 184.06C183.18 184.06 175.864 182.178 170.812 178.525C168.52 176.924 166.653 174.786 165.373 172.297C164.093 169.808 163.439 167.043 163.468 164.243C163.461 161.674 163.949 159.127 164.904 156.743C165.743 154.59 167.011 152.631 168.631 150.986C169.782 149.819 170.998 148.719 172.275 147.692C173.046 147.062 173.868 146.497 174.732 146.004C173.227 144.896 172.013 143.438 171.196 141.755C170.378 140.072 169.981 138.215 170.039 136.344C170.04 133.826 170.698 131.352 171.948 129.167C173.197 126.983 174.994 125.163 177.161 123.89C174.179 122.025 171.755 119.386 170.147 116.254C168.538 113.121 167.804 109.61 168.023 106.093C167.914 102.669 168.557 99.2625 169.907 96.1153C171.257 92.9681 173.282 90.1571 175.836 87.8816C181.799 82.9188 189.411 80.3979 197.149 80.8239C199.21 80.8159 201.269 80.9732 203.305 81.2944C204.718 81.4754 206.106 81.8095 207.446 82.2908L208.661 82.7336C210.975 79.286 213.569 76.0366 216.419 73.0189C217.199 72.0871 218.158 71.3226 219.24 70.7709C220.321 70.2193 221.503 69.8919 222.713 69.8083C223.42 69.7788 224.127 69.8909 224.79 70.138C225.454 70.3851 226.062 70.7623 226.578 71.2476C227.034 71.6417 227.398 72.1306 227.646 72.6803C227.894 73.23 228.019 73.8272 228.014 74.4304C228.051 75.1451 227.937 75.8595 227.68 76.5271C227.423 77.1948 227.029 77.8007 226.523 78.3053C224.989 79.6697 223.335 80.8925 221.581 81.9587C219.458 83.2886 217.446 84.7881 215.563 86.4424C217.959 88.3994 219.867 90.8889 221.137 93.7137C222.407 96.5384 223.003 99.6208 222.879 102.717C222.992 106.145 222.351 109.557 221.001 112.71C219.651 115.862 217.624 118.677 215.066 120.956C209.136 125.897 201.563 128.408 193.864 127.986C192.119 127.986 190.376 127.875 188.646 127.654C187.368 127.514 186.104 127.274 184.864 126.934L183.566 126.657C182.646 127.462 181.92 128.466 181.442 129.592C180.964 130.719 180.746 131.939 180.806 133.162C180.767 134.325 181.054 135.476 181.635 136.483C182.216 137.491 183.066 138.315 184.091 138.863C187.778 140.487 191.809 141.171 195.824 140.856H195.934ZM199.965 150.294H193.477C191.418 150.312 189.361 150.183 187.321 149.906C185.443 149.63 184.091 149.408 183.345 149.214L182.103 148.744C181.481 149.231 180.891 149.758 180.336 150.322C179.234 151.625 178.306 153.067 177.575 154.612C176.477 156.673 175.899 158.972 175.891 161.309C175.891 170.221 182.186 174.65 194.885 174.594C200.227 174.911 205.532 173.525 210.041 170.637C211.7 169.53 213.058 168.028 213.993 166.264C214.928 164.501 215.41 162.532 215.397 160.534C215.503 159.048 215.238 157.559 214.626 156.201C214.014 154.843 213.074 153.659 211.891 152.757C208.298 150.735 204.182 149.838 200.075 150.183L199.965 150.294ZM184.809 93.4724C183.472 94.8965 182.439 96.5776 181.769 98.4139C181.1 100.25 180.81 102.204 180.916 104.156C180.825 106.156 181.134 108.154 181.827 110.031C182.519 111.909 183.58 113.629 184.947 115.088C186.374 116.488 188.075 117.577 189.942 118.286C191.809 118.996 193.802 119.311 195.796 119.212C197.726 119.311 199.656 119.017 201.469 118.346C203.281 117.675 204.939 116.642 206.342 115.31C207.676 113.879 208.709 112.193 209.378 110.352C210.047 108.512 210.338 106.555 210.235 104.599C210.326 102.599 210.016 100.601 209.324 98.7231C208.632 96.8453 207.571 95.1257 206.204 93.6662C204.769 92.2686 203.064 91.1814 201.193 90.472C199.321 89.7626 197.325 89.4461 195.327 89.5422C193.399 89.4408 191.47 89.7373 189.661 90.4133C187.852 91.0894 186.2 92.1305 184.809 93.4724Z" />
    <path d="M237.842 126.797V91.8678L230.361 90.567C227.849 90.1241 226.579 88.9063 226.579 86.9413C226.497 85.947 226.793 84.9585 227.407 84.1735C228.284 83.3516 229.393 82.8201 230.582 82.6513C234.327 81.806 238.146 81.3332 241.984 81.2397C244.244 80.9933 246.514 81.6166 248.333 82.9834C249.701 84.8162 250.323 87.1017 250.072 89.3769V123.448C250.072 136.087 255.511 142.388 266.388 142.351C269.554 142.373 272.678 141.633 275.499 140.192C277.791 139.165 279.849 137.676 281.545 135.819L283.311 133.716V91.8678L274.891 90.567C272.379 90.1241 271.081 88.9063 271.054 86.9413C270.972 85.947 271.268 84.9585 271.882 84.1735C272.785 83.3575 273.909 82.8278 275.112 82.6513C279.171 81.7874 283.304 81.3147 287.453 81.2397C289.713 80.9933 291.982 81.6166 293.802 82.9834C295.222 84.8036 295.876 87.1078 295.624 89.4045V141.161L302.802 141.964C305.397 142.351 306.695 143.597 306.722 145.672C306.75 147.748 305.397 149.27 302.664 150.184C299.118 150.953 295.498 151.324 291.87 151.291C290.852 151.446 289.812 151.358 288.834 151.036C287.855 150.714 286.966 150.166 286.238 149.436C285.51 148.706 284.963 147.815 284.642 146.834C284.321 145.854 284.234 144.811 284.388 143.79V141.161L284.14 141.023L283.311 142.185C282.631 143.166 281.874 144.092 281.048 144.953C279.829 146.23 278.446 147.338 276.934 148.246C274.964 149.369 272.857 150.234 270.667 150.82C267.976 151.6 265.187 151.991 262.385 151.983C259.098 152.2 255.802 151.743 252.697 150.639C249.593 149.535 246.746 147.807 244.33 145.562C240.134 141.318 238.036 135.118 238.036 126.963" />
    <path d="M316.302 126.797V91.8679L308.821 90.5671C306.309 90.1242 305.039 88.9064 305.039 86.9414C304.957 85.9471 305.253 84.9586 305.867 84.1736C306.747 83.3561 307.854 82.8254 309.042 82.6514C312.787 81.8061 316.606 81.3333 320.444 81.2398C322.704 80.9878 324.976 81.6116 326.793 82.9835C328.161 84.8163 328.783 87.1018 328.532 89.377V123.448C328.532 136.096 334.054 142.407 344.848 142.351C348.014 142.373 351.138 141.633 353.959 140.192C356.247 139.157 358.303 137.67 360.005 135.819L361.771 133.716V91.8679L353.351 90.5671C350.811 90.1242 349.541 88.9064 349.486 86.9414C349.398 85.9419 349.705 84.9477 350.342 84.1736C351.241 83.3519 352.367 82.8214 353.572 82.6514C357.631 81.7875 361.764 81.3148 365.913 81.2398C368.173 80.9935 370.442 81.6167 372.262 82.9835C373.609 84.8045 374.22 87.0682 373.974 89.3216V141.161L381.179 141.964C383.774 142.351 385.072 143.597 385.072 145.673C385.072 147.748 383.774 149.271 381.041 150.184C377.495 150.953 373.875 151.324 370.247 151.291C369.229 151.446 368.189 151.359 367.211 151.036C366.232 150.714 365.344 150.166 364.615 149.436C363.887 148.706 363.341 147.815 363.019 146.834C362.698 145.854 362.611 144.811 362.765 143.79V141.161L362.517 141.023L361.689 142.185C360.996 143.164 360.23 144.09 359.397 144.953C358.201 146.242 356.824 147.352 355.311 148.247C353.338 149.364 351.233 150.229 349.045 150.82C346.352 151.598 343.564 151.989 340.762 151.983C337.48 152.2 334.187 151.742 331.088 150.638C327.988 149.534 325.145 147.806 322.735 145.562C318.539 141.318 316.44 135.118 316.44 126.963"/>
    <path d="M399.372 133.356L401.774 141.161C405.702 143.04 410.048 143.869 414.391 143.569C423.685 143.569 428.286 140.137 428.194 133.273C428.197 131.851 427.854 130.45 427.195 129.192C426.536 127.933 425.58 126.854 424.412 126.049C421.617 123.982 418.527 122.349 415.246 121.205L404.48 117.303C400.936 116.017 397.767 113.867 395.259 111.048C392.655 108.093 391.281 104.249 391.421 100.309C391.381 97.56 392.002 94.8418 393.233 92.3846C394.463 89.9275 396.266 87.8038 398.489 86.1937C403.2 82.5034 409.973 80.6582 418.808 80.6582C427.476 80.6582 433.053 81.876 435.51 84.2563C436.948 86.3499 437.558 88.905 437.222 91.4247V92.3657C437.222 94.5799 437.222 96.628 437.084 98.4824C437.084 101.084 435.758 102.357 433.357 102.357C431.406 102.357 430.053 101.084 429.298 98.5377L427.449 91.3416C423.941 89.9458 420.175 89.3228 416.406 89.5149C407.774 89.5149 403.431 92.3934 403.375 98.1502C403.395 99.5118 403.763 100.845 404.445 102.023C405.126 103.201 406.099 104.183 407.268 104.876C410.117 106.789 413.197 108.333 416.433 109.47L427.255 113.4C430.87 114.714 434.058 116.991 436.476 119.988C439.007 123.214 440.318 127.233 440.176 131.335C440.229 134.226 439.593 137.088 438.321 139.683C437.048 142.278 435.176 144.53 432.86 146.253C428.001 150.128 420.961 152.038 411.74 152.038C402.519 152.038 396.391 150.654 393.823 147.886C392.322 145.861 391.669 143.329 392.001 140.829V139.666C392.001 137.341 392.001 135.265 392.001 133.411C392.277 130.837 393.382 129.536 395.397 129.536C397.412 129.536 398.489 130.837 399.151 133.466"/>
    <path d="M453.785 133.716V90.7607H447.077C443.985 90.7607 442.466 89.4598 442.521 86.8858C442.521 83.6199 444.371 81.987 448.043 81.987H453.73L455.221 71.4419C455.487 69.2104 456.282 67.0752 457.54 65.2145C458.043 64.6468 458.665 64.1983 459.362 63.9015C460.059 63.6047 460.814 63.4671 461.57 63.4985C464.331 63.4985 465.877 64.827 465.96 67.5117V81.987H480.261C483.353 81.987 484.843 83.2601 484.816 85.8064C484.816 89.1554 482.994 90.816 479.294 90.7607H465.932V129.841C465.659 133.046 466.331 136.26 467.865 139.085C468.65 140.058 469.664 140.821 470.816 141.304C471.967 141.787 473.221 141.976 474.463 141.853C476.126 141.853 477.783 141.667 479.405 141.299C480.457 141.043 481.528 140.867 482.607 140.773C484.567 140.773 485.533 141.77 485.533 143.818C485.541 144.49 485.393 145.155 485.101 145.76C484.808 146.365 484.38 146.894 483.849 147.305C482.464 148.485 480.86 149.378 479.129 149.935C476.161 150.939 473.039 151.407 469.908 151.319C459.123 151.319 453.721 145.469 453.702 133.771"/>
    <path d="M485.395 117.912C485.169 112.984 485.918 108.059 487.6 103.423C489.283 98.7864 491.864 94.5299 495.195 90.8989C498.442 87.5166 502.36 84.855 506.697 83.0862C511.034 81.3174 515.693 80.4809 520.373 80.6307C524.685 80.4115 528.995 81.0984 533.027 82.6475C537.058 84.1966 540.723 86.5735 543.784 89.6258C549.508 95.6225 552.37 104.036 552.37 114.867C552.593 119.77 551.846 124.668 550.174 129.28C548.501 133.892 545.936 138.128 542.624 141.742C539.355 145.127 535.411 147.784 531.049 149.538C526.687 151.293 522.005 152.107 517.309 151.927C513.011 152.155 508.714 151.479 504.692 149.945C500.67 148.41 497.012 146.05 493.953 143.015C488.248 137.037 485.395 128.669 485.395 117.912ZM503.781 96.8772C500.1 101.342 498.26 107.801 498.26 116.251C498.26 124.702 500.229 131.16 504.168 135.625C506.001 137.847 508.311 139.623 510.927 140.821C513.542 142.02 516.394 142.609 519.269 142.545C522.077 142.634 524.87 142.086 527.437 140.94C530.005 139.794 532.28 138.082 534.094 135.93C537.775 131.501 539.615 125.099 539.615 116.722C540.039 109.693 537.944 102.743 533.707 97.1263C531.885 94.8887 529.578 93.0974 526.961 91.8888C524.344 90.6801 521.487 90.086 518.606 90.1516C515.785 90.0528 512.98 90.6083 510.409 91.7749C507.837 92.9415 505.569 94.6876 503.781 96.8772Z"/>
    <path d="M129.374 110.439C129.044 109.489 128.462 108.647 127.69 108.004C128.471 107.16 128.956 106.085 129.071 104.94C129.187 103.795 128.927 102.643 128.33 101.66C127.734 100.677 126.833 99.9159 125.766 99.4923C124.699 99.0687 123.523 99.0058 122.417 99.3131L16.93 129.371C15.7001 129.714 14.6362 130.493 13.9357 131.563C13.2353 132.633 12.9459 133.922 13.1213 135.189C13.2966 136.457 13.9248 137.618 14.8892 138.457C15.8537 139.295 17.0889 139.755 18.3655 139.75C18.8522 139.746 19.3358 139.671 19.8011 139.528L49.1199 131.225L12.568 143.182C11.3872 143.58 10.3853 144.385 9.7401 145.454C9.09487 146.523 8.84795 147.786 9.04313 149.02C9.23831 150.253 9.86298 151.378 10.8064 152.194C11.7498 153.01 12.9509 153.465 14.1968 153.478C14.7492 153.477 15.2982 153.393 15.8257 153.228L125.978 117.248C127.308 116.811 128.411 115.864 129.047 114.614C129.683 113.365 129.801 111.914 129.374 110.578" />
    <path d="M138.263 153.063C137.827 151.768 136.907 150.694 135.698 150.064C134.488 149.435 133.083 149.299 131.776 149.686L116.288 154.308L129.319 148.606C130.464 148.16 131.418 147.326 132.015 146.249C132.612 145.172 132.816 143.919 132.59 142.708C132.364 141.497 131.723 140.403 130.778 139.615C129.833 138.827 128.643 138.395 127.414 138.394L129.181 137.812C130.51 137.376 131.611 136.427 132.243 135.177C132.874 133.926 132.984 132.474 132.549 131.142C132.113 129.81 131.167 128.706 129.92 128.072C128.672 127.439 127.224 127.329 125.895 127.765L25.8471 160.674C24.5461 161.072 23.4504 161.961 22.7911 163.154C22.1318 164.347 21.9605 165.75 22.3134 167.067C22.6711 168.368 23.5093 169.484 24.6578 170.189C25.8063 170.893 27.179 171.132 28.4974 170.859L76.0921 160.535L33.3562 179.134C32.1425 179.693 31.1839 180.691 30.6721 181.927C30.1602 183.164 30.1329 184.549 30.5955 185.805C30.9321 186.675 31.4829 187.447 32.1967 188.047L23.6385 191.368C22.4952 191.814 21.5428 192.645 20.9452 193.719C20.3476 194.794 20.1423 196.043 20.3647 197.253C20.587 198.462 21.223 199.556 22.1633 200.346C23.1035 201.136 24.2891 201.573 25.5158 201.581C26.1677 201.582 26.8141 201.46 27.4207 201.221L135.337 159.705C136.579 159.182 137.574 158.202 138.118 156.967C138.662 155.732 138.714 154.335 138.263 153.063Z"/>
    <path d="M10.4149 120.403L128.242 95.4932C128.954 95.3875 129.637 95.1367 130.249 94.7563C130.861 94.376 131.388 93.8741 131.799 93.2815C132.21 92.689 132.495 92.0184 132.638 91.3111C132.781 90.6037 132.777 89.8746 132.628 89.1686C132.479 88.4626 132.187 87.7947 131.771 87.2061C131.354 86.6174 130.822 86.1204 130.207 85.7458C129.592 85.3711 128.907 85.1267 128.194 85.0277C127.481 84.9286 126.755 84.9769 126.061 85.1696L102.374 90.1239L118.166 84.9205C118.833 84.7243 119.455 84.3982 119.996 83.9609C120.537 83.5237 120.988 82.9838 121.321 82.3721C121.654 81.7604 121.864 81.0889 121.938 80.396C122.013 79.703 121.95 79.0021 121.755 78.3333C121.559 77.6646 121.234 77.041 120.797 76.4982C120.361 75.9555 119.823 75.5042 119.213 75.1701C118.602 74.836 117.933 74.6256 117.241 74.551C116.55 74.4764 115.851 74.539 115.184 74.7353L4.14807 104.544C3.03835 104.853 2.06034 105.519 1.36356 106.439C0.666775 107.358 0.289551 108.481 0.289551 109.636C0.289551 110.791 0.666775 111.914 1.36356 112.834C2.06034 113.754 3.03835 114.419 4.14807 114.729C4.10705 115.361 4.16291 115.996 4.31371 116.611C4.61794 117.719 5.27197 118.697 6.1778 119.401C7.08364 120.105 8.19249 120.495 9.33822 120.513C9.69595 120.554 10.0572 120.554 10.4149 120.513"/>
    <path d="M50.3073 77.3368C49.5343 77.8074 48.7889 78.2779 47.9883 78.7207C43.5159 81.4884 47.9883 88.3247 52.3778 85.5847C54.5035 84.3115 56.6293 83.0384 58.7274 81.7375L61.7366 83.4535C65.9329 85.8061 69.439 79.9385 66.4851 76.9494C71.7028 73.6281 76.8377 70.2515 81.8622 66.6811C94.0922 58.1288 106.985 48.4418 115.184 35.6826C122.252 24.6116 118.442 13.1533 106.046 8.78025C92.5462 4.01976 78.6598 17.0834 69.7151 28.2927C70.212 18.2459 68.0587 8.55883 60.5495 1.08597C59.8898 0.4745 59.0452 0.101543 58.1499 0.0263253C57.2546 -0.048892 56.3599 0.177944 55.6078 0.670808C46.4699 8.14367 44.3993 20.294 43.2674 31.4479C42.7613 37.1807 42.6138 42.9396 42.8257 48.6909C35.4822 38.3396 24.9087 31.9184 13.0376 42.934C12.4404 43.6022 12.0769 44.4475 12.0022 45.3415C11.9274 46.2356 12.1456 47.1297 12.6235 47.8882C20.4639 62.4465 35.8135 70.03 50.3073 77.3368ZM50.9974 37.6753C51.3011 29.3721 51.8533 17.2495 57.5403 9.99805C64.0556 19.3253 62.2336 32.4997 58.8931 44.1795C56.2788 48.6608 54.7031 53.6741 54.2827 58.8484C54.0342 63.8303 60.8808 63.6089 62.2888 59.6234C63.6967 55.6379 65.0495 51.514 66.347 47.1409C68.1415 44.0688 70.212 41.1627 71.8685 38.6717C77.2894 30.6369 84.311 23.8143 92.491 18.6334C98.1781 15.2844 104.086 15.1737 109.055 19.8512C112.23 22.8403 110.518 27.241 108.614 30.6453C101.712 43.0724 87.8254 52.3443 76.4789 60.343C70.5433 64.5223 64.4421 68.4801 58.2857 72.3273C56.1876 71.2202 54.0066 70.1684 51.8257 69.0613C51.8257 68.8953 51.8257 68.7015 51.8257 68.5078C51.2459 58.2118 50.5281 47.9436 50.8594 37.62L50.9974 37.6753ZM41.8043 63.858C33.7004 59.7856 26.6575 53.8716 21.2369 46.5874C30.4301 41.0519 37.8012 54.0603 41.8043 63.858Z" />
</svg>
