<?xml version="1.0" encoding="UTF-8" standalone="no"?>
<!DOCTYPE svg PUBLIC "-//W3C//DTD SVG 1.1//EN" "http://www.w3.org/Graphics/SVG/1.1/DTD/svg11.dtd">
<svg width="100%" height="100%" viewBox="0 0 383 97" version="1.1"
    xmlns="http://www.w3.org/2000/svg" style="fill-rule:evenodd;clip-rule:evenodd;stroke-linejoin:round;stroke-miterlimit:2;">
    <g transform="matrix(1,0,0,1,-7.8733,-21.5211)">
        <g transform="matrix(1.52102,0,0,1.52102,-58.1068,-58.1183)">
            <g transform="matrix(12,0,0,12,135.852,115.767)">
            </g>
            <text x="106.656px" y="115.767px" style="font-family:'HelveticaNeue', 'Helvetica Neue';font-size:12px;fill:currentColor;;">d<tspan x="113.52px 119.712px 123.24px " y="115.767px 115.767px 115.767px ">ata</tspan>
            </text>
        </g>
        <g transform="matrix(1.52102,0,0,1.52102,-18.7486,-58.1183)">
            <g transform="matrix(12,0,0,12,152.424,115.767)">
            </g>
            <text x="106.656px" y="115.767px" style="font-family:'HelveticaNeue', 'Helvetica Neue';font-size:12px;fill:currentColor;;">s<tspan x="112.404px 118.596px 121.008px 127.2px 133.62px 139.812px " y="115.767px 115.767px 115.767px 115.767px 115.767px 115.767px ">cience</tspan>
            </text>
        </g>
        <g transform="matrix(1.52102,0,0,1.52102,52.6944,-58.1183)">
            <g transform="matrix(12,0,0,12,152.424,115.767)">
            </g>
            <text x="106.656px" y="115.767px" style="font-family:'HelveticaNeue', 'Helvetica Neue';font-size:12px;fill:currentColor;;">s<tspan x="112.404px 118.596px 121.008px 127.2px 133.62px 139.812px " y="115.767px 115.767px 115.767px 115.767px 115.767px 115.767px ">cience</tspan>
            </text>
        </g>
        <rect x="207.941" y="103.853" width="1.899" height="13.909" style="fill:currentColor;;"/>
        <path d="M68.735,70.478C69.441,73.073 69.819,75.804 69.819,78.623C69.819,95.717 55.94,109.595 38.846,109.595C21.752,109.595 7.873,95.717 7.873,78.623C7.873,67.235 14.033,57.274 23.199,51.893C23.199,51.893 37.994,42.794 44.401,30.817L72.487,44.217C72.487,44.217 68.065,51.8 68.735,70.478ZM63.479,75.448C63.605,75.318 63.671,75.248 63.671,75.248C63.038,54.693 65.587,47.192 65.587,47.192L46.89,37.822C43.401,44.864 35.556,50.891 29.225,55.301C23.707,59.146 17.906,67.339 17.319,68.546C17.306,68.551 17.294,68.557 17.282,68.562C17.282,68.562 12.28,79.439 15.76,84.977C15.76,84.977 17.105,83.828 21.996,85.408C21.996,85.408 30.274,91.951 35.916,93.445C35.916,93.445 42.856,94.824 47.797,91.719C52.828,94.774 57.501,94.372 57.501,94.372C64.712,85.871 63.774,77.246 63.479,75.448ZM17.663,68.398C17.895,68.262 18.205,68.16 18.565,68.088C18.264,68.174 17.963,68.277 17.663,68.398ZM41.789,85.596C41.924,85.612 42.06,85.625 42.195,85.637C42.033,85.638 41.898,85.637 41.791,85.634C41.79,85.621 41.789,85.609 41.789,85.596Z" style="fill:currentColor;;"/>
        <g transform="matrix(1.52102,0,0,1.52102,116.192,-58.1183)">
            <g transform="matrix(12,0,0,12,131.88,115.767)">
            </g>
            <text x="106.656px" y="115.767px" style="font-family:'HelveticaNeue', 'Helvetica Neue';font-size:12px;fill:currentColor;;">d<tspan x="113.52px 119.712px " y="115.767px 115.767px ">es</tspan>
            </text>
        </g>
        <g transform="matrix(1.52102,0,0,1.52102,149.24,-58.1183)">
            <g transform="matrix(12,0,0,12,157.548,115.767)">
            </g>
            <text x="106.656px" y="115.767px" style="font-family:'HelveticaNeue', 'Helvetica Neue';font-size:12px;fill:currentColor;;">d<tspan x="113.52px 120.156px 126.576px 132.996px 139.188px 145.38px " y="115.767px 115.767px 115.767px 115.767px 115.767px 115.767px ">onnées</tspan>
            </text>
        </g>
        <g id="path7088" transform="matrix(1.06663,0,0,1.0849,-180.492,-807.894)">
            <path d="M314.649,805.782C314.649,799.363 312.913,797.346 311.626,795.974C309.428,793.678 305.853,792.209 302.182,792.209C300.624,792.209 294.385,792.393 289.8,798.814L289.8,793.31L275.125,793.31L275.125,795.237L281.091,795.237L281.091,829.173L271.18,829.173L271.18,793.31L256.318,793.31L256.318,795.237L262.562,795.237L262.562,829.173L256.234,829.173L256.234,831.098L295.946,831.098L295.946,829.173L289.8,829.173L289.8,813.127C289.891,806.155 289.979,800.653 294.293,797.073C296.036,795.697 297.969,795.482 299.609,795.302C300.974,795.152 304.24,795.954 305.573,799.096C305.937,799.952 305.853,800.739 305.946,804.503L305.946,829.173L300.166,829.173L300.166,831.098L320.705,831.098L320.705,829.173L314.649,829.173L314.649,805.782" style="fill:currentColor;;fill-rule:nonzero;"/>
        </g>
        <g id="path7104" transform="matrix(1.16338,0,0,1.1833,-207.458,-879.262)">
            <path d="M266.158,785.351C269.611,785.351 272.416,782.551 272.416,779.093C272.416,775.642 269.611,772.841 266.158,772.841C262.702,772.841 259.902,775.642 259.902,779.093C259.902,782.551 262.702,785.351 266.158,785.351" style="fill:currentColor;;fill-rule:nonzero;"/>
        </g>
        <g id="path7092" transform="matrix(1.06663,0,0,1.0849,-180.492,-807.894)">
            <path d="M364.64,815.143C364.451,819.819 364.273,823.032 361.336,825.877C360.509,826.609 358.767,827.988 356.2,827.988C353.267,827.988 350.42,826.054 350.42,821.565C350.42,814.04 357.486,811.93 364.64,811.844L364.64,815.143ZM375.273,829.54C373.168,829.54 373.168,827.344 373.168,824.225L373.168,805.052C373.168,801.566 373.168,798.539 370.604,795.882C368.308,793.681 363.996,792.211 359.59,792.211C350.336,792.211 344.372,797.443 344.372,801.937C344.372,804.226 345.926,806.242 348.411,806.242C350.878,806.242 352.625,804.317 352.625,802.305C352.625,800.191 350.7,798.997 350.7,797.898C350.7,796.523 354.09,794.048 358.221,794.048C364.273,794.048 364.451,798.357 364.64,801.018L364.64,810.187C361.244,810.187 356.2,810.554 352.165,811.751C346.017,813.673 341.799,817.617 341.799,823.212C341.799,823.662 341.838,824.089 341.892,824.507C341.558,826.177 340.641,829.265 336.479,829.265C331.898,829.265 331.985,825.415 331.985,822.568L331.985,795.238L341.799,795.238L341.799,793.313L331.985,793.313L331.985,778.086L330.615,778.086C330.155,780.013 329.513,782.766 325.932,787.076C323.641,789.918 320.889,792.487 317.492,793.954L317.492,795.238L323.461,795.238L323.461,818.349C323.461,823.032 323.461,825.051 324.191,826.789C325.566,830.462 329.236,832.205 333.73,832.205C339.153,832.205 341.642,829.796 342.855,827.477C344.526,830.513 348.04,832.205 352.165,832.205C358.402,832.205 362.442,828.628 364.451,824.589C364.64,826.423 364.917,828.719 367.026,830.462C368.396,831.56 370.321,832.205 372.346,832.205C376.201,832.205 378.306,830.095 379.223,829.174L378.117,827.89C377.482,828.443 376.476,829.54 375.273,829.54" style="fill:currentColor;;fill-rule:nonzero;"/>
        </g>
        <path d="M361.183,86.105C357.779,90.654 354.689,93.864 346.401,93.864C344.242,93.864 338.794,93.163 337.333,91.973C335.083,90.082 334.789,87.591 334.587,85.601C332.444,89.983 328.134,93.864 321.481,93.864C317.082,93.864 313.334,92.028 311.551,88.734C310.258,91.25 307.603,93.864 301.819,93.864C297.025,93.864 293.111,91.973 291.644,87.988C290.865,86.103 290.865,83.912 290.865,78.831L290.865,53.758L290.842,38.168L284.182,38.198L284.194,36.089L299.958,36.089L299.958,83.409C299.958,86.498 299.864,90.674 304.751,90.674C309.19,90.674 310.168,87.323 310.524,85.512C310.467,85.058 310.426,84.595 310.426,84.107C310.426,78.037 314.924,73.758 321.482,71.673C325.786,70.375 331.165,69.976 334.789,69.976L334.789,60.029C334.587,57.142 334.397,52.467 327.942,52.467C323.535,52.467 319.919,55.152 319.919,56.644C319.919,57.837 321.972,59.131 321.972,61.425C321.972,63.608 320.11,65.697 317.478,65.697C314.827,65.697 313.169,63.51 313.169,61.026C313.169,56.151 319.531,50.474 329.402,50.474C334.102,50.474 338.701,52.069 341.15,54.457C343.885,57.339 343.885,60.624 343.885,64.406L343.885,85.207C343.885,85.401 343.885,85.593 343.885,85.781C344.313,87.186 345.63,90.293 348.752,89.507C348.778,89.501 349.314,89.36 349.314,89.36C350.884,88.923 351.91,88.371 351.945,86.63C351.984,84.688 351.945,37.983 351.945,37.983L344.563,37.983L344.563,36.178L360.549,36.178L360.549,58.582C360.549,58.582 365.255,50.828 372.777,50.862C380.298,50.897 390.312,59.102 390.312,71.601C390.312,84.1 380.611,93.738 373.924,93.738C367.237,93.738 362.616,90.288 361.183,86.105ZM371.425,53.295C371.425,53.295 379.539,52.532 379.539,67.234L379.539,76.759C379.539,76.759 380.247,91.174 372.697,91.174C365.148,91.174 360.647,82.716 360.647,76.87L360.647,66.926C360.647,66.926 362.722,53.295 371.425,53.295ZM334.789,75.353L334.789,71.774C327.158,71.867 319.621,74.157 319.621,82.321C319.621,87.191 322.657,89.288 325.786,89.288C328.524,89.288 330.382,87.792 331.264,86.999C334.397,83.912 334.587,80.426 334.789,75.353Z" style="fill:currentColor;;fill-opacity:0.7;"/>
        <g id="path7096" transform="matrix(1.06663,0,0,1.0849,-180.492,-807.894)">
            <path d="M397.748,830.179C392.982,830.179 390.501,827.524 389.495,824.497C388.572,821.926 388.572,818.442 388.572,815.327C388.572,811.195 388.672,802.758 390.139,799.185C391.971,794.687 395.819,794.047 398.392,794.047C403.344,794.047 405.638,796.345 405.638,797.162C405.638,797.529 405.458,797.717 405.178,798.079C404.447,798.814 403.344,800.28 403.344,802.391C403.344,804.872 404.998,807.252 407.658,807.252C410.311,807.252 412.329,805.051 412.329,802.114C412.329,797.529 407.103,792.209 398.575,792.209C387.753,792.209 378.578,800.739 378.578,812.571C378.578,823.393 386.742,832.204 397.473,832.204C407.38,832.204 412.236,825.321 413.527,818.813L411.233,818.813C409.95,824.315 405.458,830.179 397.748,830.179" style="fill:currentColor;;fill-rule:nonzero;"/>
        </g>
        <g id="path7100" transform="matrix(1.06663,0,0,1.0849,-180.492,-807.894)">
            <path d="M437.094,824.04C436.819,825.503 436.178,829.265 431.59,829.265C427.003,829.265 427.099,825.415 427.099,822.568L427.099,795.238L436.91,795.238L436.91,793.311L427.099,793.311L427.099,778.086L425.72,778.086C425.265,780.011 424.62,782.766 421.044,787.074C418.752,789.918 415.997,792.485 412.602,793.954L412.602,795.238L418.566,795.238L418.566,818.349C418.566,823.032 418.566,825.051 419.301,826.787C420.675,830.462 424.347,832.205 428.841,832.205C437.368,832.205 438.655,826.245 439.111,824.04L437.094,824.04" style="fill:currentColor;;fill-rule:nonzero;"/>
        </g>
        <g transform="matrix(1,0,0,1,-2.303,1.31276)">
            <circle cx="55.624" cy="53.451" r="4.283" style="fill:rgb(255,255,251);"/>
        </g>
        <g transform="matrix(1,0,0,1,-18.1308,8.53295)">
            <circle cx="55.624" cy="53.451" r="4.283" style="fill:rgb(255,255,251);fill-opacity:0.5;"/>
        </g>
        <g transform="matrix(1,0,0,1,-6.5798,21.5846)">
            <circle cx="55.624" cy="53.451" r="4.283" style="fill:rgb(255,255,251);fill-opacity:0.7;"/>
        </g>
        <path d="M47.797,91.719C45.65,90.416 43.785,88.497 41.843,85.636C41.843,85.636 41.598,85.63 41.791,85.634C43.67,85.675 54.19,85.416 63.416,75.107C63.416,75.107 65.606,84.817 57.501,94.372C57.501,94.372 52.828,94.774 47.797,91.719Z" style="fill:rgb(255,255,251);fill-opacity:0.7;"/>
        <path d="M76.901,35.069L74.422,40.19L46.428,26.642L48.907,21.521L76.901,35.069Z" style="fill:rgb(255,255,251);fill-opacity:0.7;"/>
        <g transform="matrix(1.10066,0,0,1.10066,-7.79657,-2.70224)">
            <path d="M60.163,26.192C60.933,24.878 62.36,23.994 63.992,23.994C66.438,23.994 68.424,25.98 68.424,28.427C68.424,28.997 68.316,29.542 68.12,30.043L60.163,26.192Z" style="fill:rgb(255,255,251);"/>
        </g>
        <path d="M41.789,85.557C41.789,85.557 41.788,85.582 41.789,85.557C41.789,85.557 28.902,63.258 17.282,68.562C17.282,68.562 12.28,79.439 15.76,84.977C15.76,84.977 17.105,83.828 21.996,85.408C21.996,85.408 30.274,91.951 35.916,93.445C35.916,93.445 42.856,94.824 47.797,91.719C45.65,90.416 43.731,88.418 41.789,85.557Z" style="fill:rgb(255,255,251);fill-opacity:0.5;"/>
    </g>
</svg>
