<?xml version="1.0" encoding="UTF-8" standalone="no"?>
<!DOCTYPE svg PUBLIC "-//W3C//DTD SVG 1.1//EN" "http://www.w3.org/Graphics/SVG/1.1/DTD/svg11.dtd">
<svg width="100%" height="100%" viewBox="0 0 284 120" version="1.1"
    xmlns="http://www.w3.org/2000/svg"
    style="fill-rule:evenodd;clip-rule:evenodd;stroke-linejoin:round;stroke-miterlimit:2;fill:currentColor">
    <path d="M14.325,105.026C14.657,105.192 14.905,105.357 15.153,105.523C15.402,105.772 15.567,106.02 15.65,106.351C15.733,106.682 15.816,107.014 15.816,107.345L15.816,119.435C15.816,119.518 15.816,119.683 15.733,119.683C15.65,119.766 15.567,119.766 15.485,119.766L12.504,119.766C12.421,119.766 12.338,119.766 12.255,119.683C12.172,119.601 12.172,119.518 12.172,119.435L12.172,108.504L9.771,108.504L9.771,119.435C9.771,119.518 9.771,119.683 9.688,119.683C9.605,119.766 9.522,119.766 9.44,119.766L6.707,119.766C6.624,119.766 6.458,119.766 6.458,119.683C6.376,119.601 6.376,119.518 6.376,119.435L6.376,108.504L3.974,108.504L3.974,119.435C3.974,119.683 3.809,119.849 3.56,119.849L0.579,119.849C0.331,119.849 0.165,119.683 0.165,119.435L0.165,105.275C0.165,105.026 0.331,104.861 0.579,104.861L13.497,104.861C13.746,104.778 14.077,104.861 14.325,105.026Z" />
    <path d="M29.314,104.775C29.645,104.775 29.976,104.858 30.307,104.941C30.639,105.107 30.887,105.272 31.136,105.438C31.384,105.686 31.549,105.935 31.632,106.266C31.715,106.597 31.798,106.928 31.798,107.26L31.798,119.35C31.798,119.432 31.798,119.598 31.715,119.598C31.632,119.681 31.549,119.681 31.467,119.681L28.486,119.681C28.403,119.681 28.237,119.681 28.237,119.598C28.154,119.515 28.154,119.432 28.154,119.35L28.154,115.54C28.154,115.458 28.154,115.292 28.072,115.292C27.989,115.209 27.906,115.209 27.823,115.209L23.6,115.209C23.517,115.209 23.352,115.209 23.352,115.292C23.269,115.375 23.269,115.458 23.269,115.54L23.269,119.35C23.269,119.598 23.103,119.764 22.855,119.764L19.874,119.764C19.625,119.764 19.459,119.598 19.459,119.35L19.459,107.26C19.459,106.928 19.542,106.597 19.625,106.266C19.791,105.935 19.956,105.686 20.122,105.438C20.37,105.189 20.619,105.024 20.95,104.941C21.281,104.775 21.613,104.775 21.944,104.775L29.314,104.775ZM27.989,111.897L27.989,108.171L22.937,108.171L22.937,111.897L27.989,111.897Z" />
    <path d="M45.296,104.941C45.379,105.024 45.379,105.107 45.379,105.19L45.379,117.28C45.379,117.611 45.296,117.942 45.213,118.273C45.048,118.605 44.882,118.853 44.716,119.102C44.468,119.35 44.219,119.516 43.888,119.598C43.557,119.764 43.226,119.764 42.895,119.764L36.435,119.764C36.104,119.764 35.773,119.681 35.442,119.598C35.111,119.433 34.862,119.267 34.614,119.102C34.365,118.853 34.2,118.605 34.117,118.273C33.951,117.942 33.951,117.611 33.951,117.28L33.951,112.725C33.951,112.477 34.117,112.311 34.365,112.311L37.346,112.311C37.595,112.311 37.76,112.477 37.76,112.725L37.76,115.789C37.76,115.872 37.76,115.955 37.843,116.038C37.926,116.12 38.009,116.12 38.092,116.12L41.156,116.12C41.238,116.12 41.404,116.12 41.404,116.038C41.487,115.955 41.487,115.872 41.487,115.789L41.487,105.273C41.487,105.19 41.487,105.024 41.57,105.024C41.652,104.941 41.735,104.941 41.818,104.941L44.799,104.941C45.048,104.776 45.213,104.859 45.296,104.941Z" />
    <path d="M58.793,104.775C59.125,104.775 59.456,104.858 59.787,104.941C60.118,105.107 60.367,105.272 60.615,105.438C60.864,105.686 61.029,105.935 61.112,106.266C61.195,106.597 61.278,106.928 61.278,107.26L61.278,117.197C61.278,117.528 61.195,117.859 61.112,118.19C60.946,118.522 60.781,118.77 60.615,119.018C60.367,119.267 60.118,119.432 59.787,119.515C59.456,119.681 59.125,119.681 58.793,119.681L51.258,119.681C50.926,119.681 50.595,119.598 50.264,119.515C49.933,119.35 49.684,119.184 49.436,119.018C49.188,118.77 49.022,118.522 48.939,118.19C48.773,117.859 48.773,117.528 48.773,117.197L48.773,107.26C48.773,106.928 48.856,106.597 48.939,106.266C49.022,105.935 49.27,105.686 49.436,105.438C49.684,105.189 49.933,105.024 50.264,104.941C50.595,104.775 50.926,104.775 51.258,104.775L58.793,104.775ZM57.468,108.419L52.417,108.419L52.417,116.12L57.468,116.12L57.468,108.419Z" />
    <path d="M77.673,119.432C77.756,119.515 77.756,119.598 77.673,119.681C77.59,119.764 77.59,119.764 77.425,119.764L74.03,119.764C73.947,119.764 73.781,119.764 73.698,119.681L73.45,119.432L71.214,115.375C71.214,115.292 71.131,115.292 71.048,115.292L68.481,115.292C68.399,115.292 68.399,115.292 68.399,115.375L68.399,119.35C68.399,119.598 68.233,119.764 67.985,119.764L65.003,119.764C64.755,119.764 64.589,119.598 64.589,119.35L64.589,105.189C64.589,104.941 64.755,104.775 65.003,104.775L74.692,104.775C75.023,104.775 75.355,104.858 75.686,104.941C76.017,105.107 76.265,105.272 76.514,105.438C76.762,105.686 76.928,105.935 77.011,106.266C77.176,106.597 77.176,106.928 77.176,107.26L77.176,112.891C77.176,113.47 77.011,113.884 76.679,114.381C76.348,114.795 75.934,115.126 75.437,115.292L75.355,115.292C75.272,115.292 75.272,115.375 75.272,115.458L75.272,115.54L77.673,119.432ZM73.45,108.253L68.316,108.253L68.316,111.897L73.45,111.897L73.45,108.253Z" />
    <path d="M97.796,116.122C97.879,116.122 97.961,116.122 98.044,116.205C98.127,116.287 98.127,116.37 98.127,116.453L98.127,119.268C98.127,119.351 98.127,119.517 98.044,119.517C97.961,119.6 97.879,119.6 97.796,119.6L88.604,119.6C88.356,119.6 88.19,119.434 88.19,119.186L88.19,105.025C88.19,104.777 88.356,104.611 88.604,104.611L91.585,104.611C91.834,104.611 91.999,104.777 91.999,105.025L91.999,115.542C91.999,115.625 91.999,115.708 92.082,115.79C92.165,115.873 92.248,115.873 92.33,115.873L97.796,115.873L97.796,116.122Z" />
    <path d="M111.626,104.942C111.709,105.025 111.709,105.108 111.709,105.191L111.709,107.923C111.709,108.006 111.709,108.089 111.626,108.172C111.543,108.255 111.46,108.255 111.377,108.255L104.256,108.255C104.173,108.255 104.173,108.255 104.173,108.337L104.173,110.656C104.173,110.739 104.173,110.739 104.256,110.739L110.384,110.739C110.466,110.739 110.549,110.739 110.632,110.822C110.715,110.904 110.715,110.987 110.715,111.07L110.715,113.223C110.715,113.306 110.715,113.471 110.632,113.471C110.549,113.554 110.466,113.554 110.384,113.554L104.256,113.554C104.173,113.554 104.173,113.554 104.173,113.637L104.173,115.956C104.173,116.039 104.173,116.039 104.256,116.039L111.377,116.039C111.46,116.039 111.626,116.039 111.626,116.121C111.709,116.204 111.709,116.287 111.709,116.37L111.709,119.02C111.709,119.102 111.709,119.268 111.626,119.268C111.543,119.351 111.46,119.351 111.377,119.351L100.778,119.351C100.529,119.351 100.364,119.185 100.364,118.937L100.364,104.777C100.364,104.694 100.364,104.528 100.447,104.528C100.529,104.445 100.612,104.445 100.695,104.445L111.294,104.445C111.46,104.777 111.543,104.859 111.626,104.942Z" />
    <path d="M125.205,104.775C125.536,104.775 125.867,104.858 126.199,104.941C126.53,105.107 126.778,105.272 127.027,105.438C127.275,105.686 127.441,105.935 127.524,106.266C127.606,106.597 127.689,106.928 127.689,107.26L127.689,119.35C127.689,119.432 127.689,119.598 127.606,119.598C127.524,119.681 127.441,119.681 127.358,119.681L124.294,119.681C124.211,119.681 124.046,119.681 124.046,119.598C123.963,119.515 123.963,119.432 123.963,119.35L123.963,115.54C123.963,115.458 123.963,115.292 123.88,115.292C123.797,115.209 123.714,115.209 123.632,115.209L119.325,115.209C119.243,115.209 119.077,115.209 119.077,115.292C118.994,115.375 118.994,115.458 118.994,115.54L118.994,119.35C118.994,119.598 118.829,119.764 118.58,119.764L115.599,119.764C115.351,119.764 115.185,119.598 115.185,119.35L115.185,107.26C115.185,106.928 115.268,106.597 115.351,106.266C115.516,105.935 115.682,105.686 115.848,105.438C116.096,105.189 116.344,105.024 116.676,104.941C117.007,104.775 117.338,104.775 117.669,104.775L125.205,104.775ZM123.88,111.897L123.88,108.171L118.829,108.171L118.829,111.897L123.88,111.897Z" />
    <path d="M143.506,111.732C143.589,111.815 143.589,111.898 143.589,111.981L143.589,117.281C143.589,117.612 143.506,117.943 143.423,118.274C143.258,118.606 143.092,118.854 142.927,119.102C142.678,119.351 142.43,119.516 142.098,119.599C141.767,119.765 141.436,119.765 141.105,119.765L133.569,119.765C133.238,119.765 132.907,119.682 132.576,119.599C132.244,119.434 131.996,119.268 131.747,119.102C131.499,118.854 131.333,118.606 131.251,118.274C131.085,117.943 131.085,117.612 131.085,117.281L131.085,107.344C131.085,107.012 131.168,106.681 131.251,106.35C131.333,106.019 131.582,105.77 131.747,105.522C131.996,105.273 132.244,105.108 132.576,105.025C132.907,104.859 133.238,104.859 133.569,104.859L142.43,104.859C142.513,104.859 142.678,104.859 142.678,104.942C142.761,105.025 142.761,105.108 142.761,105.191L142.761,108.006C142.761,108.089 142.761,108.255 142.678,108.255C142.595,108.337 142.513,108.337 142.43,108.337L135.308,108.337C135.225,108.337 135.06,108.337 135.06,108.42C134.977,108.503 134.977,108.586 134.977,108.669L134.977,115.624C134.977,115.707 134.977,115.79 135.06,115.873C135.143,115.956 135.225,115.956 135.308,115.956L139.531,115.956C139.614,115.956 139.697,115.956 139.78,115.873C139.863,115.79 139.863,115.707 139.863,115.624L139.863,111.898C139.863,111.815 139.863,111.65 139.945,111.65C140.028,111.567 140.111,111.567 140.194,111.567L143.175,111.567C143.258,111.567 143.423,111.65 143.506,111.732Z" />
    <path d="M159.239,104.941C159.322,105.024 159.322,105.107 159.322,105.189L159.322,117.279C159.322,117.611 159.239,117.942 159.156,118.273C158.991,118.604 158.825,118.853 158.659,119.101C158.411,119.35 158.163,119.515 157.831,119.598C157.5,119.764 157.169,119.764 156.838,119.764L149.302,119.764C148.971,119.764 148.64,119.681 148.308,119.598C147.977,119.432 147.729,119.267 147.48,119.101C147.232,118.853 147.066,118.604 146.983,118.273C146.818,117.942 146.818,117.611 146.818,117.279L146.818,105.189C146.818,104.941 146.983,104.775 147.232,104.775L150.213,104.775C150.461,104.775 150.627,104.941 150.627,105.189L150.627,115.706C150.627,115.789 150.627,115.872 150.71,115.955C150.793,116.037 150.875,116.037 150.958,116.037L155.182,116.037C155.264,116.037 155.347,116.037 155.43,115.955C155.513,115.872 155.513,115.789 155.513,115.706L155.513,105.189C155.513,105.107 155.513,104.941 155.596,104.941C155.678,104.858 155.761,104.858 155.844,104.858L158.825,104.858C159.074,104.775 159.156,104.858 159.239,104.941Z" />
    <path d="M174.062,104.942C174.145,105.025 174.145,105.108 174.145,105.191L174.145,107.923C174.145,108.006 174.145,108.089 174.062,108.172C173.979,108.255 173.897,108.255 173.814,108.255L166.692,108.255C166.609,108.255 166.609,108.255 166.609,108.337L166.609,110.656C166.609,110.739 166.609,110.739 166.692,110.739L172.82,110.739C172.903,110.739 172.986,110.739 173.069,110.822C173.151,110.904 173.151,110.987 173.151,111.07L173.151,113.223C173.151,113.306 173.151,113.471 173.069,113.471C172.986,113.554 172.903,113.554 172.82,113.554L166.692,113.554C166.609,113.554 166.609,113.554 166.609,113.637L166.609,115.956C166.609,116.039 166.609,116.039 166.692,116.039L173.814,116.039C173.897,116.039 174.062,116.039 174.062,116.121C174.145,116.204 174.145,116.287 174.145,116.37L174.145,119.02C174.145,119.102 174.145,119.268 174.062,119.268C173.979,119.351 173.897,119.351 173.814,119.351L163.214,119.351C162.966,119.351 162.8,119.185 162.8,118.937L162.8,104.777C162.8,104.694 162.8,104.528 162.883,104.528C162.966,104.445 163.049,104.445 163.132,104.445L173.731,104.445C173.897,104.777 173.979,104.859 174.062,104.942Z" />
    <path d="M197,104.776C197.083,104.776 197.248,104.776 197.248,104.859C197.331,104.942 197.331,105.025 197.331,105.107L197.331,119.268C197.331,119.35 197.331,119.516 197.248,119.516C197.166,119.599 197.083,119.599 197,119.599L194.019,119.599C193.936,119.599 193.77,119.599 193.77,119.516C193.688,119.433 193.688,119.35 193.688,119.268L193.688,114.299C193.688,114.216 193.688,114.134 193.605,114.051C193.522,113.968 193.439,113.968 193.356,113.968L189.133,113.968C189.05,113.968 188.885,113.968 188.885,114.051C188.802,114.134 188.802,114.216 188.802,114.299L188.802,119.268C188.802,119.516 188.636,119.682 188.388,119.682L185.407,119.682C185.158,119.682 184.993,119.516 184.993,119.268L184.993,105.107C184.993,104.859 185.158,104.693 185.407,104.693L188.388,104.693C188.636,104.693 188.802,104.859 188.802,105.107L188.802,109.91C188.802,110.159 188.967,110.324 189.216,110.324L193.439,110.324C193.522,110.324 193.605,110.324 193.688,110.242C193.77,110.159 193.77,110.076 193.77,109.993L193.77,105.19C193.77,105.107 193.77,104.942 193.853,104.942C193.936,104.859 194.019,104.859 194.102,104.859L197,104.859L197,104.776Z" />
    <path d="M210.829,104.775C211.161,104.775 211.492,104.858 211.823,104.941C212.154,105.107 212.403,105.272 212.651,105.438C212.9,105.686 213.065,105.935 213.148,106.266C213.231,106.597 213.314,106.928 213.314,107.26L213.314,119.35C213.314,119.432 213.314,119.598 213.231,119.598C213.148,119.681 213.065,119.681 212.982,119.681L210.001,119.681C209.918,119.681 209.753,119.681 209.753,119.598C209.67,119.515 209.67,119.432 209.67,119.35L209.67,115.54C209.67,115.458 209.67,115.292 209.587,115.292C209.504,115.209 209.422,115.209 209.339,115.209L205.116,115.209C205.033,115.209 204.867,115.209 204.867,115.292C204.784,115.375 204.784,115.458 204.784,115.54L204.784,119.35C204.784,119.598 204.619,119.764 204.37,119.764L201.389,119.764C201.141,119.764 200.975,119.598 200.975,119.35L200.975,107.26C200.975,106.928 201.058,106.597 201.141,106.266C201.306,105.935 201.472,105.686 201.638,105.438C201.886,105.189 202.134,105.024 202.466,104.941C202.797,104.775 203.128,104.775 203.459,104.775L210.829,104.775ZM209.587,111.897L209.587,108.171L204.536,108.171L204.536,111.897L209.587,111.897Z" />
    <path d="M220.518,108.502C220.436,108.585 220.436,108.668 220.436,108.751L220.436,115.706C220.436,115.789 220.436,115.872 220.518,115.955C220.601,116.038 220.684,116.038 220.767,116.038L227.64,116.038C227.723,116.038 227.888,116.038 227.888,116.121C227.971,116.203 227.971,116.286 227.971,116.369L227.971,119.184C227.971,119.267 227.971,119.433 227.888,119.433C227.806,119.516 227.723,119.516 227.64,119.516L219.111,119.516C218.779,119.516 218.448,119.433 218.117,119.35C217.786,119.184 217.537,119.019 217.289,118.853C217.041,118.605 216.875,118.356 216.792,118.025C216.626,117.694 216.626,117.363 216.626,117.031L216.626,107.012C216.626,106.68 216.709,106.349 216.792,106.018C216.958,105.687 217.123,105.438 217.289,105.19C217.537,104.941 217.786,104.776 218.117,104.693C218.448,104.527 218.779,104.527 219.111,104.527L227.64,104.527C227.723,104.527 227.888,104.527 227.888,104.61C227.971,104.693 227.971,104.776 227.971,104.859L227.971,107.674C227.971,107.757 227.971,107.922 227.888,107.922C227.806,108.005 227.723,108.005 227.64,108.005L220.767,108.005C220.684,108.419 220.601,108.502 220.518,108.502Z" />
    <path d="M239.979,111.07C239.896,111.153 239.896,111.153 239.979,111.236L244.948,119.434C245.031,119.516 245.031,119.599 244.948,119.682C244.865,119.765 244.865,119.765 244.699,119.765L241.139,119.765C241.056,119.765 240.89,119.765 240.807,119.682C240.724,119.599 240.642,119.516 240.559,119.434L237.329,113.637C237.247,113.554 237.246,113.554 237.246,113.637L235.508,115.542C235.425,115.624 235.342,115.707 235.342,115.873C235.259,116.039 235.259,116.121 235.259,116.287L235.259,119.434C235.259,119.682 235.093,119.848 234.845,119.848L231.947,119.848C231.698,119.848 231.533,119.682 231.533,119.434L231.533,105.273C231.533,105.025 231.698,104.859 231.947,104.859L234.928,104.859C235.176,104.859 235.342,105.025 235.342,105.273L235.342,111.65L240.89,105.191C240.973,105.108 241.056,105.025 241.221,104.942C241.387,104.859 241.47,104.859 241.553,104.859L245.113,104.859C245.196,104.859 245.279,104.859 245.279,104.942C245.279,105.025 245.279,105.108 245.196,105.191L239.979,111.07Z" />
    <path d="M251.489,119.35C251.489,119.598 251.324,119.764 251.075,119.764L248.094,119.764C247.846,119.764 247.68,119.598 247.68,119.35L247.68,105.189C247.68,104.941 247.846,104.775 248.094,104.775L251.075,104.775C251.324,104.775 251.489,104.941 251.489,105.189L251.489,119.35Z" />
    <path d="M265.897,105.026C266.228,105.192 266.477,105.357 266.725,105.523C266.974,105.772 267.139,106.02 267.222,106.351C267.388,106.682 267.388,107.014 267.388,107.345L267.388,119.435C267.388,119.518 267.388,119.683 267.305,119.683C267.222,119.766 267.139,119.766 267.057,119.766L264.075,119.766C263.993,119.766 263.91,119.766 263.827,119.683C263.744,119.601 263.744,119.518 263.744,119.435L263.744,108.918C263.744,108.835 263.744,108.753 263.661,108.67C263.579,108.587 263.496,108.587 263.413,108.587L259.19,108.587C259.107,108.587 258.941,108.587 258.941,108.67C258.941,108.753 258.859,108.835 258.859,108.918L258.859,119.435C258.859,119.683 258.693,119.849 258.444,119.849L255.463,119.849C255.215,119.849 255.049,119.683 255.049,119.435L255.049,105.275C255.049,105.026 255.215,104.861 255.463,104.861L265.152,104.861C265.318,104.778 265.649,104.861 265.897,105.026Z" />
    <path d="M283.204,111.732C283.287,111.815 283.287,111.898 283.287,111.981L283.287,117.281C283.287,117.612 283.204,117.943 283.121,118.274C282.956,118.606 282.79,118.854 282.624,119.102C282.376,119.351 282.127,119.516 281.796,119.599C281.465,119.765 281.134,119.765 280.803,119.765L273.267,119.765C272.936,119.765 272.605,119.682 272.273,119.599C271.942,119.434 271.694,119.268 271.445,119.102C271.197,118.854 271.031,118.606 270.948,118.274C270.783,117.943 270.783,117.612 270.783,117.281L270.783,107.344C270.783,107.012 270.866,106.681 270.948,106.35C271.031,106.019 271.28,105.77 271.445,105.522C271.694,105.273 271.942,105.108 272.273,105.025C272.605,104.859 272.936,104.859 273.267,104.859L282.127,104.859C282.21,104.859 282.376,104.859 282.376,104.942C282.459,105.025 282.459,105.108 282.459,105.191L282.459,108.006C282.459,108.089 282.459,108.255 282.376,108.255C282.293,108.337 282.21,108.337 282.127,108.337L275.006,108.337C274.923,108.337 274.758,108.337 274.758,108.42C274.675,108.503 274.675,108.586 274.675,108.669L274.675,115.624C274.675,115.707 274.675,115.79 274.758,115.873C274.84,115.956 274.923,115.956 275.006,115.956L279.229,115.956C279.312,115.956 279.395,115.956 279.478,115.873C279.56,115.79 279.56,115.707 279.56,115.624L279.56,111.898C279.56,111.815 279.56,111.65 279.643,111.65C279.726,111.567 279.809,111.567 279.892,111.567L282.873,111.567C283.038,111.567 283.121,111.65 283.204,111.732Z" />
    <path d="M90.261,1.242C92.166,2.07 93.822,3.23 95.23,4.637C96.638,6.045 97.714,7.701 98.625,9.606C99.453,11.51 99.867,13.581 99.867,15.734L99.867,94.236C99.867,94.981 99.619,95.561 99.122,96.058C98.625,96.555 98.045,96.803 97.3,96.803L78.502,96.803C77.757,96.803 77.178,96.555 76.763,96.058C76.349,95.561 76.101,94.981 76.101,94.236L76.101,22.855L60.947,22.855L60.947,94.236C60.947,94.981 60.699,95.561 60.285,96.058C59.871,96.555 59.208,96.803 58.546,96.803L41.487,96.803C40.742,96.803 40.162,96.555 39.665,96.058C39.168,95.561 38.92,94.981 38.92,94.236L38.92,22.855L23.766,22.855L23.766,94.236C23.766,95.975 22.938,96.803 21.199,96.803L2.567,96.803C0.828,96.803 0,95.975 0,94.236L0,2.567C0,0.828 0.828,0 2.567,0L84.051,0C86.286,0 88.274,0.414 90.261,1.242Z" />
    <path d="M181.568,73.286C182.313,73.286 182.976,73.534 183.39,74.031C183.887,74.528 184.135,75.19 184.135,75.935L184.135,94.236C184.135,94.981 183.887,95.561 183.39,96.141C182.893,96.638 182.313,96.886 181.568,96.886L117.226,96.886C115.404,96.886 114.493,95.975 114.493,94.236L114.493,2.65C114.493,0.911 115.404,0 117.226,0L136.934,0C138.756,0 139.667,0.911 139.667,2.65L139.667,70.884C139.667,71.629 139.915,72.209 140.495,72.706C140.992,73.203 141.654,73.368 142.4,73.368L181.568,73.368L181.568,73.286Z" />
    <path d="M280.327,0C281.072,0 281.734,0.248 282.231,0.745C282.728,1.242 283.059,1.905 283.059,2.65L283.059,94.485C283.059,95.23 282.811,95.809 282.231,96.389C281.734,96.886 281.072,97.134 280.327,97.134L260.287,97.134C259.542,97.134 258.879,96.886 258.382,96.389C257.886,95.892 257.554,95.23 257.554,94.485L257.554,62.438C257.554,61.692 257.306,61.113 256.809,60.616C256.312,60.119 255.733,59.953 254.904,59.953L226.832,59.953C226.087,59.953 225.425,60.202 224.928,60.616C224.431,61.113 224.1,61.692 224.1,62.438L224.1,94.485C224.1,96.224 223.189,97.134 221.367,97.134L201.493,97.134C199.671,97.134 198.76,96.224 198.76,94.485L198.76,2.65C198.76,0.911 199.671,0 201.493,0L221.367,0C223.189,0 224.1,0.911 224.1,2.65L224.1,33.703C224.1,35.442 225.011,36.353 226.832,36.353L254.904,36.353C255.65,36.353 256.312,36.105 256.809,35.608C257.306,35.111 257.554,34.448 257.554,33.703L257.554,2.65C257.554,1.905 257.803,1.325 258.382,0.745C258.879,0.248 259.542,0 260.287,0L280.327,0Z" />
</svg>
