<?xml version="1.0" encoding="UTF-8" standalone="no"?>
<!DOCTYPE svg PUBLIC "-//W3C//DTD SVG 1.1//EN" "http://www.w3.org/Graphics/SVG/1.1/DTD/svg11.dtd">
<svg width="100%" height="100%" viewBox="0 0 455 225" version="1.1"
    xmlns="http://www.w3.org/2000/svg"
    style="fill-rule:evenodd;clip-rule:evenodd;stroke-linejoin:round;stroke-miterlimit:2;fill:currentColor;">
    <path d="M0,225L0,0L454.83,0L229.87,225L0,225ZM269.92,45L225,45L225.15,150.65L186.035,44.96L147.25,44.96L113.86,133.225C110.31,110.765 87.09,103.015 68.82,97.21C56.755,93.335 43.95,87.635 44.08,81.335C44.18,76.165 50.93,71.37 64.345,72.085C73.345,72.57 81.295,73.295 97.11,80.935L112.66,53.835C98.24,46.495 78.3,41.86 61.95,41.845L61.85,41.845C42.785,41.845 26.91,48.02 17.07,58.195C10.21,65.295 6.51,74.325 6.36,84.31C6.11,98.05 11.145,107.79 21.725,115.575C30.665,122.125 42.1,126.375 52.175,129.495C64.6,133.345 74.75,136.695 74.625,143.825C74.525,146.425 73.545,148.855 71.675,150.815C68.575,154.015 63.825,155.215 57.25,155.345C44.565,155.615 35.165,153.62 20.185,144.765L6.35,172.215C21.315,180.725 37.2,184.995 55.25,184.995L59.31,184.965C75.02,184.68 87.77,180.915 97.9,172.765C98.48,172.3 99,171.83 99.54,171.355L97.84,180.115L135.74,179.995L142.54,162.585C149.69,165.025 157.82,166.375 166.45,166.375C174.86,166.375 182.77,165.095 189.785,162.795L194.525,179.995L262.525,180.06L262.69,140.37L277.16,140.37C312.135,140.37 332.81,122.57 332.81,92.72C332.799,59.475 312.7,44.995 269.92,44.995L269.92,45ZM166.445,135.31C161.222,135.309 156.324,134.399 152.11,132.8L166.29,88.025L166.565,88.025L180.515,132.925C176.316,134.425 171.533,135.309 166.45,135.31L166.445,135.31ZM272.555,109.585L262.68,109.585L262.68,73.5L272.555,73.5C285.705,73.5 296.205,77.88 296.205,91.31C296.194,105.21 285.705,109.585 272.555,109.585Z"/>
    <g transform="matrix(3.47387,0,0,3.47387,-840.856,-454.864)">
        <path d="M325.614,185.479C326.356,185.479 327.081,185.67 327.788,186.051C328.495,186.431 329.046,186.976 329.44,187.685C329.835,188.394 330.032,189.134 330.032,189.903C330.032,190.665 329.838,191.397 329.449,192.1C329.06,192.804 328.515,193.349 327.814,193.738C327.113,194.127 326.38,194.321 325.614,194.321C324.848,194.321 324.115,194.127 323.414,193.738C322.713,193.349 322.167,192.804 321.776,192.1C321.385,191.397 321.19,190.665 321.19,189.903C321.19,189.134 321.388,188.394 321.785,187.685C322.181,186.976 322.733,186.431 323.44,186.051C324.147,185.67 324.872,185.479 325.614,185.479ZM325.614,186.212C324.993,186.212 324.388,186.371 323.801,186.689C323.213,187.008 322.753,187.463 322.421,188.055C322.089,188.646 321.923,189.263 321.923,189.903C321.923,190.54 322.086,191.15 322.412,191.734C322.738,192.318 323.194,192.773 323.78,193.099C324.366,193.426 324.977,193.589 325.614,193.589C326.251,193.589 326.862,193.426 327.448,193.099C328.034,192.773 328.489,192.318 328.813,191.734C329.137,191.15 329.3,190.54 329.3,189.903C329.3,189.263 329.135,188.646 328.804,188.055C328.474,187.463 328.014,187.008 327.425,186.689C326.835,186.371 326.231,186.212 325.614,186.212ZM323.675,192.347L323.675,187.589L325.309,187.589C325.868,187.589 326.272,187.633 326.522,187.721C326.772,187.808 326.971,187.962 327.12,188.18C327.268,188.399 327.343,188.632 327.343,188.878C327.343,189.225 327.218,189.528 326.97,189.786C326.722,190.044 326.393,190.188 325.983,190.22C326.151,190.29 326.286,190.374 326.387,190.472C326.579,190.659 326.813,190.973 327.091,191.415L327.671,192.347L326.733,192.347L326.311,191.597C325.979,191.007 325.712,190.638 325.509,190.489C325.368,190.38 325.163,190.325 324.893,190.325L324.442,190.325L324.442,192.347L323.675,192.347ZM324.442,189.669L325.374,189.669C325.819,189.669 326.123,189.602 326.285,189.47C326.447,189.337 326.528,189.161 326.528,188.942C326.528,188.802 326.489,188.676 326.411,188.564C326.333,188.453 326.224,188.37 326.086,188.315C325.947,188.261 325.69,188.233 325.315,188.233L324.442,188.233L324.442,189.669Z" style="fill-rule:nonzero;"/>
    </g>
</svg>
