<?xml version="1.0" encoding="UTF-8" standalone="no"?>
<!DOCTYPE svg PUBLIC "-//W3C//DTD SVG 1.1//EN" "http://www.w3.org/Graphics/SVG/1.1/DTD/svg11.dtd">
<svg width="100%" height="100%" viewBox="0 0 638 220" version="1.1"
    xmlns="http://www.w3.org/2000/svg"
    style="fill-rule:evenodd;clip-rule:evenodd;stroke-linejoin:round;stroke-miterlimit:2;fill:currentColor;">
    <g transform="matrix(0.1,0,0,-0.1,-1.17399,219.83)">
        <path d="M3090,2117C1608,2068 393,2026 391,2024C389,2022 394,1812 402,1558C410,1303 415,1092 413,1088C411,1083 322,1083 216,1087L23,1093L16,585C13,306 11,76 12,74C14,73 1350,57 2980,41C4611,24 6043,9 6162,8L6379,5L6382,510C6384,788 6384,1017 6383,1018C6382,1020 5648,1029 4751,1039C3855,1048 3119,1058 3116,1060C3113,1063 3717,1085 4458,1109C5199,1132 5810,1153 5815,1155C5824,1157 5798,2177 5788,2198C5786,2202 4572,2166 3090,2117ZM3570,1945C3570,1912 3566,1900 3555,1900C3525,1900 3500,1862 3500,1815L3500,1770L3580,1770L3580,1680L3503,1680L3506,1593C3508,1544 3512,1457 3514,1398L3518,1290L3459,1289C3427,1288 3394,1287 3388,1286C3376,1285 3365,1415 3361,1613C3360,1667 3359,1670 3335,1670C3312,1670 3310,1673 3310,1720C3310,1767 3312,1770 3335,1770C3359,1770 3360,1773 3360,1829C3360,1929 3422,1990 3523,1990L3570,1990L3570,1945ZM1183,1869C1207,1840 1204,1814 1175,1785C1118,1727 1019,1783 1051,1854C1073,1903 1148,1911 1183,1869ZM5580,1838C5580,1831 5577,1808 5573,1787C5568,1753 5564,1749 5541,1750C5527,1751 5505,1752 5493,1751L5471,1750L5483,1350L5343,1350L5337,1478C5327,1665 5329,1808 5340,1815C5383,1842 5580,1860 5580,1838ZM5164,1797C5210,1762 5238,1707 5246,1636C5254,1572 5272,1582 5085,1549C5019,1538 4964,1527 4963,1526C4962,1525 4968,1510 4977,1492C5006,1432 5064,1417 5156,1445C5183,1453 5206,1460 5206,1460C5214,1460 5239,1375 5233,1369C5219,1355 5108,1330 5060,1330C4924,1330 4836,1413 4823,1554C4812,1675 4857,1771 4944,1812C5007,1841 5115,1834 5164,1797ZM4713,1799C4739,1787 4739,1786 4724,1752C4716,1732 4708,1714 4706,1712C4704,1710 4683,1714 4661,1721C4604,1738 4570,1722 4570,1680C4570,1652 4576,1647 4646,1614C4740,1569 4763,1538 4757,1464C4750,1369 4682,1316 4565,1316C4527,1316 4478,1322 4458,1329L4422,1341L4437,1386C4450,1425 4455,1431 4474,1425C4564,1398 4613,1412 4608,1463C4605,1491 4598,1499 4543,1525C4465,1563 4443,1584 4428,1632C4406,1705 4446,1776 4527,1806C4570,1822 4670,1818 4713,1799ZM4260,1779C4324,1743 4332,1717 4342,1526C4347,1433 4349,1351 4346,1345C4331,1305 4086,1289 4016,1324C3946,1359 3920,1457 3963,1521C3996,1570 4042,1597 4126,1615C4192,1630 4200,1634 4200,1655C4200,1705 4126,1724 4045,1695C3991,1675 3992,1675 3975,1717C3956,1761 3962,1768 4027,1786C4106,1807 4216,1804 4260,1779ZM3899,1773C3898,1763 3895,1742 3891,1725C3885,1697 3882,1695 3840,1695L3795,1695L3799,1499L3802,1303L3734,1297C3697,1293 3665,1292 3663,1294C3656,1301 3643,1745 3650,1753C3665,1770 3757,1788 3828,1789C3891,1790 3900,1788 3899,1773ZM2869,1749C2931,1736 2975,1697 2988,1644C2994,1623 3000,1530 3003,1438L3009,1270L2863,1270L2858,1443C2855,1541 2848,1626 2841,1638C2828,1662 2783,1674 2751,1662C2727,1654 2727,1653 2730,1494C2732,1407 2733,1319 2734,1300L2735,1265L2663,1262L2590,1259L2590,1332C2590,1372 2587,1476 2583,1562L2577,1719L2631,1734C2730,1762 2793,1766 2869,1749ZM2373,1726C2422,1706 2476,1637 2490,1578C2497,1550 2500,1495 2498,1455C2489,1322 2426,1252 2306,1243C2227,1236 2183,1250 2137,1296C2091,1342 2070,1405 2070,1495C2070,1612 2104,1680 2182,1719C2232,1744 2323,1747 2373,1726ZM1877,1714C1910,1708 1958,1663 1969,1627C1974,1609 1982,1516 1986,1419L1992,1242L1924,1238C1886,1235 1854,1233 1853,1234C1852,1235 1849,1314 1845,1410C1837,1612 1831,1630 1772,1630C1751,1630 1729,1625 1722,1618C1714,1610 1712,1556 1717,1418L1723,1230L1583,1230L1577,1404C1573,1500 1567,1585 1564,1593C1556,1614 1512,1627 1475,1620L1445,1615L1448,1435C1450,1336 1454,1247 1456,1238C1461,1222 1453,1220 1391,1220C1353,1220 1319,1223 1317,1228C1314,1232 1311,1334 1309,1455L1305,1675L1360,1693C1434,1718 1553,1719 1602,1696C1636,1680 1640,1680 1671,1695C1726,1724 1796,1730 1877,1714ZM1193,1693C1196,1688 1201,1578 1205,1448L1213,1210L1072,1210L1066,1343C1063,1415 1059,1523 1057,1582L1053,1689L1099,1693C1124,1695 1155,1697 1167,1698C1179,1699 1191,1697 1193,1693ZM944,1670C957,1657 956,1650 943,1618C930,1584 926,1582 904,1591C867,1605 814,1602 800,1586C774,1554 792,1526 859,1494C948,1451 980,1413 980,1351C980,1294 952,1246 900,1216C872,1199 848,1195 780,1196C733,1196 683,1201 668,1208L641,1219L659,1262C670,1288 683,1303 691,1301C699,1299 728,1295 756,1292C800,1288 809,1291 823,1310C849,1347 833,1369 753,1407C671,1446 647,1477 647,1546C647,1597 673,1642 719,1669C750,1687 768,1690 842,1688C904,1686 934,1681 944,1670ZM1849,723C1848,570 1845,416 1841,380L1835,316L1795,304C1730,284 1592,287 1545,309C1463,347 1420,423 1420,529C1420,693 1520,802 1659,788L1700,784L1700,886C1700,941 1703,990 1707,993C1710,997 1744,1000 1782,1000L1850,1000L1849,723ZM4933,918C4959,884 4949,845 4910,825C4869,804 4852,806 4819,839C4784,874 4783,888 4811,924C4840,961 4903,958 4933,918ZM780,860L780,790L861,790L858,743C855,695 855,695 818,692L780,689L780,550C780,403 781,400 831,400C847,400 850,393 850,356C850,306 842,300 777,300C720,300 669,328 648,370C633,399 630,432 630,553L630,700L604,700C580,700 579,702 582,748C585,788 588,795 607,798C626,801 629,809 632,848L635,895L695,912C784,936 780,939 780,860ZM3121,770L3201,770L3198,723C3195,675 3195,675 3157,672L3119,669L3125,385L3158,382C3189,379 3190,378 3190,330L3190,282L3151,275C3074,262 3005,298 2981,363C2975,379 2970,454 2970,530C2970,666 2970,669 2948,672C2928,675 2925,681 2925,720C2925,761 2927,765 2952,768C2977,771 2979,775 2982,823L2985,874L3115,906L3121,770ZM5710,810L5710,740L5781,740L5778,693C5775,647 5773,645 5743,642L5712,639L5705,523C5696,383 5703,356 5748,352C5778,349 5780,346 5780,311C5780,258 5763,247 5690,252C5638,256 5624,261 5597,288L5565,320L5560,483C5555,642 5555,645 5533,648C5513,651 5510,657 5510,696C5510,736 5512,740 5534,740C5557,740 5559,744 5562,792L5565,845L5625,862C5714,886 5710,889 5710,810ZM486,785L521,771L505,733C485,685 484,685 455,698C419,715 374,713 356,694C324,662 337,645 428,595C459,579 492,553 502,539C551,473 522,365 445,326C394,299 274,298 218,322L180,339L200,382C211,406 225,423 232,421C304,399 330,397 354,414C403,446 385,478 293,524C222,559 200,590 200,654C200,727 233,771 310,797C351,812 437,806 486,785ZM1075,615C1076,522 1077,439 1078,433C1082,409 1128,388 1159,395L1190,401L1192,593L1195,785L1268,788L1340,791L1338,559L1335,327L1295,312C1271,303 1216,297 1155,296C1039,295 990,312 953,369C931,401 930,412 930,597L930,791L1003,788L1075,785L1075,615ZM2213,779C2298,756 2360,663 2360,559C2360,517 2372,522 2185,499C2130,493 2081,484 2077,480C2065,469 2096,413 2121,399C2143,388 2261,391 2291,404C2304,410 2311,401 2324,364C2333,338 2339,315 2337,314C2322,299 2195,278 2142,283C1977,296 1887,452 1940,635C1972,750 2092,813 2213,779ZM2775,754C2853,713 2869,644 2855,406L2848,280L2710,280L2710,465C2710,637 2709,651 2690,670C2670,690 2606,698 2597,682C2594,678 2589,588 2585,482L2577,290L2427,290L2434,343C2437,371 2440,475 2440,572L2440,749L2488,764C2560,787 2723,781 2775,754ZM3762,758C3810,744 3816,733 3796,687L3781,651L3741,667C3691,687 3652,678 3644,645C3636,612 3643,604 3703,574C3732,559 3767,536 3783,522C3855,454 3830,332 3737,289C3673,260 3525,266 3488,299C3483,303 3488,325 3497,349C3511,384 3517,390 3534,385C3546,381 3576,376 3601,373C3641,368 3649,371 3663,390C3686,424 3673,446 3607,481C3533,520 3503,551 3494,596C3482,659 3526,733 3590,759C3625,773 3715,772 3762,758ZM4173,759C4226,745 4285,688 4307,632C4331,570 4331,460 4307,398C4251,253 4061,213 3954,324C3902,378 3886,435 3892,537C3897,628 3923,686 3972,723C4033,768 4099,780 4173,759ZM4685,746C4724,729 4725,727 4709,681C4699,652 4695,650 4664,656C4608,666 4581,654 4560,607C4523,526 4540,410 4595,374C4616,360 4627,359 4655,367C4688,378 4689,377 4704,339C4724,289 4725,293 4690,275C4656,258 4564,255 4523,271C4448,299 4399,381 4392,490C4385,610 4428,699 4515,744C4553,764 4640,765 4685,746ZM5305,749C5392,725 5441,661 5455,553C5463,489 5463,489 5310,471C5252,464 5197,456 5188,454C5163,447 5166,427 5196,391C5233,347 5279,342 5389,371C5398,374 5410,359 5421,328L5439,282L5407,270C5348,249 5228,246 5172,264C5043,307 4985,477 5046,629C5084,724 5200,778 5305,749ZM4940,750L4940,259L4868,262L4795,265L4792,495C4791,621 4792,730 4794,737C4798,746 4822,750 4870,750L4940,750ZM6011,585C6030,500 6047,430 6050,430C6053,430 6073,499 6095,583L6135,735L6203,735C6240,735 6271,733 6272,730C6274,727 6224,575 6161,393L6047,60L5974,60C5933,60 5900,64 5900,69C5900,74 5916,115 5935,160C5954,205 5970,249 5970,257C5970,268 5845,666 5823,728C5819,737 5838,740 5897,740L5977,740L6011,585Z" style="fill-rule:nonzero;"/>
        <path d="M5002,1740C4976,1729 4950,1675 4950,1630C4950,1605 4953,1600 4968,1604C4977,1607 5012,1614 5044,1619C5077,1625 5105,1632 5108,1634C5120,1647 5097,1711 5073,1730C5045,1752 5036,1753 5002,1740Z" style="fill-rule:nonzero;"/>
        <path d="M4155,1548C4105,1531 4080,1501 4080,1460C4080,1406 4130,1370 4186,1384C4209,1390 4210,1394 4210,1475C4210,1566 4210,1567 4155,1548Z" style="fill-rule:nonzero;"/>
        <path d="M2233,1624C2210,1588 2208,1433 2229,1382C2259,1311 2329,1323 2351,1402C2366,1459 2356,1573 2333,1613C2307,1658 2259,1663 2233,1624Z" style="fill-rule:nonzero;"/>
        <path d="M1617,689C1584,670 1567,620 1567,539C1567,446 1588,401 1637,386C1698,369 1700,373 1700,545L1700,700L1668,700C1650,700 1627,695 1617,689Z" style="fill-rule:nonzero;"/>
        <path d="M2107,689C2084,676 2060,621 2060,584C2060,562 2063,559 2083,563C2095,566 2131,572 2163,575C2224,583 2225,585 2210,642C2195,695 2151,715 2107,689Z" style="fill-rule:nonzero;"/>
        <path d="M4066,651C4027,608 4024,433 4062,385C4084,357 4121,353 4144,375C4184,415 4192,591 4156,644C4136,675 4091,679 4066,651Z" style="fill-rule:nonzero;"/>
        <path d="M5213,660C5185,649 5160,601 5160,560C5160,528 5160,528 5203,535C5316,552 5310,549 5310,587C5310,610 5302,629 5285,645C5259,672 5248,674 5213,660Z" style="fill-rule:nonzero;"/>
    </g>
</svg>
