<?xml version="1.0" encoding="UTF-8" standalone="no"?>
<!DOCTYPE svg PUBLIC "-//W3C//DTD SVG 1.1//EN" "http://www.w3.org/Graphics/SVG/1.1/DTD/svg11.dtd">
<svg width="100%" height="100%" viewBox="0 0 2000 2000" version="1.1" xmlns="http://www.w3.org/2000/svg" style="fill-rule:evenodd;clip-rule:evenodd;stroke-linejoin:round;stroke-miterlimit:1.41421;fill:currentColor;">
    <g transform="matrix(1,0,0,1,250.128,190.444)">
        <g transform="matrix(1,0,0,1,-50,0)">
            <path d="M1210,978.611C1210,982.589 1208.42,986.404 1205.61,989.217C1202.79,992.03 1198.98,993.611 1195,993.611C1138.83,993.611 941.748,993.611 895,993.611C892.348,993.611 889.804,994.664 887.929,996.54C886.054,998.415 885,1000.96 885,1003.61C885,1006.83 885,1010.39 885,1013.61C885,1016.27 886.054,1018.81 887.929,1020.69C889.804,1022.56 892.348,1023.61 895,1023.61C949.607,1023.61 1212.61,1023.61 1302.99,1023.61C1321.76,1023.61 1338.94,1034.12 1347.5,1050.83C1374.85,1104.28 1436.4,1224.52 1476.42,1302.72C1484.36,1318.22 1483.65,1336.73 1474.57,1351.59C1465.49,1366.44 1449.33,1375.5 1431.91,1375.5C1271.19,1375.5 922.105,1375.5 835,1375.5C823.954,1375.5 815,1366.55 815,1355.5C815,1338.07 815,1312.93 815,1295.5C815,1290.2 817.107,1285.11 820.858,1281.36C824.609,1277.61 829.696,1275.5 835,1275.5C918.567,1275.5 1240.12,1275.5 1340.74,1275.5C1347.46,1275.5 1353.73,1272.13 1357.43,1266.53C1361.13,1260.92 1361.77,1253.83 1359.14,1247.65C1341.95,1207.37 1310.88,1134.53 1298.61,1105.77C1295.47,1098.4 1288.23,1093.61 1280.21,1093.61C1213.68,1093.61 915.371,1093.61 835,1093.61C829.696,1093.61 824.609,1091.51 820.858,1087.76C817.107,1084.01 815,1078.92 815,1073.61C815,1040.9 815,976.324 815,943.611C815,938.306 817.107,933.219 820.858,929.468C824.609,925.718 829.696,923.611 835,923.611C902.637,923.611 1122.36,923.611 1190,923.611C1195.3,923.611 1200.39,925.718 1204.14,929.468C1207.89,933.219 1210,938.306 1210,943.611C1210,954.751 1210,968.392 1210,978.611Z"/>
        </g>
        <g transform="matrix(1,0,0,1,-50,0)">
            <path d="M252.248,1050.83C260.8,1034.12 277.988,1023.61 296.757,1023.61C394.769,1023.61 698.851,1023.61 770,1023.61C773.978,1023.61 777.794,1025.19 780.607,1028.01C783.42,1030.82 785,1034.64 785,1038.61C785,1050.42 785,1066.81 785,1078.61C785,1082.59 783.42,1086.41 780.607,1089.22C777.794,1092.03 773.978,1093.61 770,1093.61C697.889,1093.61 387.554,1093.61 319.531,1093.61C311.518,1093.61 304.279,1098.4 301.134,1105.77C288.865,1134.53 257.79,1207.37 240.607,1247.65C237.971,1253.83 238.613,1260.92 242.315,1266.53C246.017,1272.13 252.286,1275.5 259.003,1275.5C350.455,1275.5 624.527,1275.5 737.959,1275.5C765.574,1275.5 787.959,1297.89 787.959,1325.5C787.959,1371.54 787.959,1439.47 787.959,1485.5C787.959,1498.76 782.692,1511.48 773.315,1520.86C763.938,1530.23 751.22,1535.5 737.959,1535.5C596.867,1535.5 199.789,1535.5 106.068,1535.5C100.764,1535.5 95.677,1533.39 91.926,1529.64C88.175,1525.89 86.068,1520.81 86.068,1515.5C86.068,1498.07 86.068,1472.93 86.068,1455.5C86.068,1450.2 88.175,1445.11 91.926,1441.36C95.677,1437.61 100.764,1435.5 106.068,1435.5C197.643,1435.5 576.385,1435.5 667.959,1435.5C679.005,1435.5 687.959,1426.55 687.959,1415.5C687.959,1409.07 687.959,1401.94 687.959,1395.5C687.959,1384.46 679.005,1375.5 667.959,1375.5C596.281,1375.5 348.664,1375.5 200.534,1375.5C176.156,1375.5 153.534,1362.82 140.815,1342.02C128.097,1321.22 127.115,1295.31 138.222,1273.61C177.331,1197.2 228.106,1098 252.248,1050.83Z"/>
        </g>
        <g transform="matrix(1,0,0,1,-50,0)">
            <path d="M835,893.611C829.696,893.611 824.609,891.503 820.858,887.753C817.107,884.002 815,878.915 815,873.611C815,856.182 815,831.039 815,813.611C815,808.306 817.107,803.219 820.858,799.468C824.609,795.718 829.696,793.611 835,793.611C880.71,793.611 993.966,793.611 1060,793.611C1073.26,793.611 1085.98,788.343 1095.36,778.966C1104.73,769.589 1110,756.871 1110,743.611C1110,657.033 1110,480.188 1110,393.611C1110,380.35 1104.73,367.632 1095.36,358.255C1085.98,348.878 1073.26,343.611 1060,343.611C993.966,343.611 880.71,343.611 835,343.611C823.954,343.611 815,334.656 815,323.611C815,283.311 815,191.279 815,133.611C815,105.996 837.386,83.611 865,83.611C952.65,83.611 1130.39,83.611 1190,83.611C1195.3,83.611 1200.39,85.718 1204.14,89.468C1207.89,93.219 1210,98.306 1210,103.611C1210,121.039 1210,146.182 1210,163.611C1210,168.915 1207.89,174.002 1204.14,177.753C1200.39,181.503 1195.3,183.611 1190,183.611C1136.19,183.611 988.805,183.611 935,183.611C923.954,183.611 915,192.565 915,203.611C915,210.046 915,217.175 915,223.611C915,234.656 923.954,243.611 935,243.611C980.71,243.611 1093.97,243.611 1160,243.611C1187.61,243.611 1210,265.996 1210,293.611C1210,414.686 1210,722.535 1210,843.611C1210,871.225 1187.61,893.611 1160,893.611C1072.35,893.611 894.61,893.611 835,893.611Z"/>
        </g>
        <g transform="matrix(1,0,0,1,-50,0)">
            <path d="M785,323.611C785,328.915 782.893,334.002 779.142,337.753C775.391,341.503 770.304,343.611 765,343.611C719.29,343.611 606.034,343.611 540,343.611C526.739,343.611 514.021,348.878 504.645,358.255C495.268,367.632 490,380.35 490,393.611C490,480.188 490,657.033 490,743.611C490,756.871 495.268,769.589 504.645,778.966C514.021,788.343 526.739,793.611 540,793.611C606.034,793.611 719.29,793.611 765,793.611C770.304,793.611 775.391,795.718 779.142,799.468C782.893,803.219 785,808.306 785,813.611C785,831.039 785,856.182 785,873.611C785,878.915 782.893,884.002 779.142,887.753C775.391,891.503 770.304,893.611 765,893.611C705.39,893.611 527.65,893.611 440,893.611C412.386,893.611 390,871.225 390,843.611C390,722.535 390,414.686 390,293.611C390,265.996 412.386,243.611 440,243.611C527.65,243.611 705.39,243.611 765,243.611C770.304,243.611 775.391,245.718 779.142,249.468C782.893,253.219 785,258.306 785,263.611C785,281.039 785,306.182 785,323.611Z"/>
        </g>
    </g>
</svg>
