<?xml version="1.0" encoding="utf-8"?>
<svg version="1.1" width="100%" height="100%" viewBox="0 0 64 26">
<path fill="currentColor" d="M11.478,5.494V25.49H6.464V5.494H0V1.1h18.627l-1.513,4.395H11.478z M29.121,24.625
	C27.771,25.281,25.925,26,22.695,26c-5.651,0-8.65-4.167-8.65-9.401c0-5.519,3.386-9.616,8.331-9.616
	c5.086,0,7.807,3.733,7.807,9.581c0,0.77-0.072,1.284-0.072,1.539H18.666c-0.064,1.314,0.992,4.06,4.452,4.06
	c3.131,0,5.094-1.192,5.838-1.669L29.121,24.625z M22.479,10.64c-2.152,0-3.494,1.68-3.849,3.914h7.139
	C25.77,13.565,25.414,10.64,22.479,10.64 M64,25.49L56.23,15.394l7.697-7.898h-5.509l-6.321,6.579V0H47.33v25.49h4.767v-8.449
	l6.249,8.449H64z M45.253,20.831c-0.322,0.192-2.033,1.112-4.124,1.112c-3.18,0-4.73-2.417-4.73-5.559
	c0-2.565,1.692-5.414,4.872-5.414c1.977,0,3.427,0.879,3.671,1.062l0.281-4.044c-1.018-0.523-2.482-1.007-4.374-1.007
	c-5.225,0-9.218,4.061-9.218,9.655c0,5.339,3.461,9.363,8.902,9.363c2.101,0,3.759-0.565,4.891-1.126L45.253,20.831z"/>
</svg>
