<?xml version="1.0" encoding="UTF-8" standalone="no"?>
<svg width="100%" height="100%" viewBox="0 0 119 87" version="1.1" xmlns="http://www.w3.org/2000/svg" style="fill-rule:evenodd;clip-rule:evenodd;stroke-linejoin:round;stroke-miterlimit:2;fill:currentColor">
    <g transform="matrix(1,0,0,1,-0.920651,-0.120738)">
        <path d="M8.564,48.316L8.564,62.036C10.872,59.338 13.629,57.989 16.836,57.989C18.482,57.989 19.967,58.294 21.29,58.905C22.614,59.516 23.611,60.296 24.281,61.247C24.951,62.197 25.409,63.249 25.656,64.403C25.902,65.557 26.025,67.347 26.025,69.773L26.025,85.631L18.872,85.631L18.872,71.351C18.872,68.518 18.737,67.719 18.465,66.955C18.194,66.192 17.714,65.585 17.027,65.136C16.34,64.686 15.479,64.461 14.443,64.461C13.256,64.461 12.195,64.749 11.262,65.326C10.329,65.903 9.646,66.773 9.213,67.935C8.78,69.098 8.564,69.816 8.564,72.09L8.564,85.631L1.412,85.631L1.412,48.316L8.564,48.316ZM31.35,54.934L31.35,48.316L38.502,48.316L38.502,54.934L31.35,54.934ZM31.35,85.631L31.35,58.599L38.502,58.599L38.502,85.631L31.35,85.631ZM51.336,85.631L40.442,58.599L47.951,58.599L53.042,72.395L54.518,77.002C54.908,75.831 55.154,75.059 55.256,74.686C55.494,73.922 55.748,73.159 56.02,72.395L61.161,58.599L68.517,58.599L57.776,85.631L51.336,85.631ZM88.541,77.81L92.252,81.277C91.473,82.448 90.525,83.42 89.407,84.192C87.43,85.558 84.957,86.241 81.987,86.241C77.287,86.241 73.808,84.706 71.552,81.634C69.77,79.174 68.879,76.069 68.879,72.319C68.879,67.839 70.05,64.331 72.392,61.794C74.733,59.257 77.694,57.989 81.275,57.989C85.296,57.989 88.469,59.316 90.794,61.972C93.119,64.628 94.23,68.696 94.128,74.177L76.209,74.177C76.26,76.298 76.837,77.948 77.94,79.127C79.043,80.307 80.418,80.896 82.064,80.896C83.184,80.896 84.42,80.579 85.304,80.161C86.471,79.61 87.322,78.89 88.541,77.81ZM87.027,69.799C86.976,67.729 86.442,66.155 85.423,65.077C84.405,64 83.167,63.461 81.707,63.461C80.146,63.461 78.857,64.029 77.838,65.166C76.82,66.303 76.32,67.847 76.337,69.799L87.027,69.799Z"/>
        <path d="M61.049,12.167L75.278,11.569L83.642,19.841L79.255,29.449L66.128,32.099L55.549,22.726L61.049,12.167ZM78.898,9.093L83.649,0.121L93.547,0.121L100.573,8.549L97.251,16.591L86.521,17.54L78.898,9.093ZM99.805,17.168L103.556,9.037L111.782,9.177L116.745,15.55L114.327,22.664L106.419,24.24L99.805,17.168ZM106.924,27.342L115.204,25.655L119.522,31.958L117.891,38.891L110.116,42.034L104.079,35.803L106.924,27.342ZM101.484,37.964L107.185,43.764L104.598,52.228L95.285,56.23L87.953,50.084L91.433,40.5L101.484,37.964ZM87.669,40.021L83.996,50.035L71.376,53.55L61.95,46.692L66.861,35.862L80.311,32.96L87.669,40.021ZM82.211,30.357L86.607,20.046L97.791,19.168L104.301,25.892L101.244,35.373L90.049,38.049L82.211,30.357Z"/>
        <path d="M5.971,41.556L6.238,41.536L6.238,43.039C5.718,43.139 5.252,43.189 4.842,43.189C4.171,43.189 3.651,43.092 3.282,42.899C2.912,42.706 2.652,42.453 2.501,42.139C2.351,41.825 2.276,41.164 2.276,40.156L2.276,34.454L0.921,34.454L0.921,33.148L2.276,33.148L2.276,30.464L4.113,30.464L4.113,33.148L5.971,33.148L5.971,34.454L4.113,34.454L4.113,40.249C4.113,40.728 4.145,41.036 4.21,41.173C4.275,41.31 4.382,41.419 4.529,41.5C4.676,41.58 4.886,41.621 5.16,41.621C5.365,41.621 5.636,41.599 5.971,41.556ZM8.159,43.058L8.159,29.378L10.007,29.378L10.007,34.286C10.869,33.378 11.957,32.924 13.271,32.924C14.078,32.924 14.78,33.068 15.375,33.358C15.97,33.647 16.396,34.047 16.653,34.557C16.91,35.067 17.038,35.807 17.038,36.778L17.038,43.058L15.19,43.058L15.19,36.778C15.19,35.938 14.99,35.327 14.59,34.944C14.189,34.562 13.623,34.37 12.891,34.37C12.343,34.37 11.829,34.499 11.346,34.757C10.864,35.016 10.52,35.366 10.314,35.807C10.109,36.249 10.007,36.859 10.007,37.636L10.007,43.058L8.159,43.058ZM25.581,40.947L26.914,42.064C26.767,42.2 26.609,42.326 26.44,42.442C25.626,43.002 24.586,43.282 23.32,43.282C21.725,43.282 20.461,42.835 19.527,41.943C18.593,41.05 18.126,39.798 18.126,38.187C18.126,36.52 18.598,35.226 19.542,34.305C20.487,33.384 21.712,32.924 23.217,32.924C24.675,32.924 25.865,33.375 26.789,34.277C27.713,35.179 28.175,36.448 28.175,38.084C28.175,38.184 28.171,38.333 28.165,38.532L20.035,38.532C20.103,39.621 20.442,40.454 21.051,41.033C21.66,41.612 22.42,41.901 23.33,41.901C24.007,41.901 24.586,41.739 25.065,41.416C25.252,41.289 25.424,41.133 25.581,40.947ZM20.138,37.151L26.225,37.151C26.142,36.317 25.91,35.692 25.527,35.275C24.938,34.628 24.175,34.305 23.238,34.305C22.389,34.305 21.676,34.563 21.097,35.079C20.519,35.596 20.199,36.286 20.138,37.151Z"/>
    </g>
</svg>
