<?xml version="1.0" encoding="UTF-8" standalone="no"?>
<!DOCTYPE svg PUBLIC "-//W3C//DTD SVG 1.1//EN" "http://www.w3.org/Graphics/SVG/1.1/DTD/svg11.dtd">
<svg width="100%" height="100%" viewBox="0 0 710 252" version="1.1"
    xmlns="http://www.w3.org/2000/svg" style="fill-rule:evenodd;clip-rule:evenodd;stroke-linejoin:round;stroke-miterlimit:2;fill:currentColor;">
    <g transform="matrix(1,0,0,1,238.634,108.341)">
        <path d="M0,17.243C0,47.219 -11.91,75.973 -33.09,97.178C-39.17,103.258 -45.848,108.565 -53.024,113.05C-53.024,113.05 -53.049,113.075 -53.074,113.075L-91.846,64.761L-59.727,68.299C-59.727,68.299 -44.303,69.894 -40.79,68.299C-37.575,67.028 -20.233,42.609 -20.233,42.609C-20.233,42.609 -70.018,11.138 -87.037,-6.204C-85.093,-35.433 -89.279,-74.304 -89.279,-73.98C-101.813,-61.471 -103.407,-59.528 -115.941,-47.966C-121.398,-65.632 -123.964,-71.737 -129.421,-89.404C-145.817,-75.923 -158.325,-53.099 -167.321,-26.437C-169.289,-24.27 -171.183,-21.977 -173.051,-19.535C-174.272,-17.916 -175.494,-16.271 -176.665,-14.577C-179.082,-11.138 -181.399,-7.525 -183.616,-3.738C-185.186,-1.071 -186.731,1.67 -188.226,4.46C-198.667,24.07 -207.238,46.546 -214.664,66.779C-214.714,66.704 -214.763,66.604 -214.788,66.53C-222.164,51.305 -226.101,34.486 -226.101,17.243C-226.101,-12.758 -214.19,-41.512 -192.985,-62.717C-171.781,-83.922 -143.026,-95.832 -113.05,-95.832C-83.05,-95.832 -54.295,-83.922 -33.09,-62.717C-11.91,-41.512 0,-12.758 0,17.243" style="fill-opacity:0.5;"/>
    </g>
    <g transform="matrix(0.0447931,-0.998996,-0.998996,-0.0447931,140.044,111.954)">
        <path d="M-17.651,-10.76C-19.503,-5.056 -19.856,-4.423 -21.732,1.279C-18.471,7.536 -16.798,13.073 -17.651,18.173C-14.436,17.669 -12.128,16.825 -9.197,15.984C-7.115,5.152 -12.531,-3.122 -17.651,-10.76"/>
    </g>
    <g transform="matrix(1,0,0,1,146.789,161.117)">
        <path d="M0,11.985L38.772,60.3C38.796,60.3 38.821,60.275 38.821,60.275L0,11.985ZM-122.943,13.754C-122.918,13.829 -122.868,13.928 -122.818,14.003C-115.393,-6.23 -106.821,-28.705 -96.381,-48.315C-106.896,-28.78 -115.542,-6.379 -122.943,13.754"/>
    </g>
    <g transform="matrix(1,0,0,1,205.544,51.4052)">
        <path d="M0,154.114C-6.08,160.194 -12.758,165.501 -19.934,169.986C-19.934,169.986 -19.959,170.011 -19.984,170.011L-58.755,121.697L-26.637,125.235C-26.637,125.235 -11.213,126.83 -7.7,125.235C-4.485,123.964 12.857,99.545 12.857,99.545C12.857,99.545 -36.928,68.074 -53.946,50.732C-52.003,21.503 -56.189,-17.368 -56.189,-17.044C-68.722,-4.535 -70.317,-2.592 -82.85,8.97C-88.307,-8.696 -90.874,-14.801 -96.331,-32.468C-112.726,-18.987 -125.235,3.837 -134.23,30.499C-136.199,32.666 -138.092,34.959 -139.961,37.401C-141.182,39.02 -142.403,40.665 -143.574,42.359C-145.991,45.798 -148.309,49.411 -150.526,53.198C-152.096,55.865 -153.641,58.606 -155.136,61.396C-155.784,62.617 -156.432,63.863 -157.079,65.109C-166.648,83.797 -174.621,104.753 -181.573,123.715C-181.623,123.64 -181.673,123.54 -181.698,123.466C-189.074,108.241 -193.011,91.422 -193.011,74.179C-193.011,44.178 -181.1,15.424 -159.895,-5.781C-138.69,-26.986 -109.936,-38.896 -79.96,-38.896C-49.959,-38.896 -21.205,-26.986 0,-5.781C21.18,15.424 33.09,44.178 33.09,74.179C33.09,104.155 21.18,132.909 0,154.114M-79.96,18.613C-71.289,10.241 -69.993,8.97 -61.646,0.947C-60.998,16.993 -61.322,25.341 -62.294,44.951C-67.103,40.117 -76.746,34.012 -76.746,34.012C-76.746,34.012 -78.664,22.774 -79.96,18.613M-39.818,180.477C-109.089,205.519 -159.148,159.421 -169.837,143.3C-169.787,143.15 -169.763,143.026 -169.738,142.876C-160.119,102.211 -148.259,53.547 -129.097,39.17C-119.13,21.802 -116.24,-3.887 -98.274,-17.368C-93.764,-3.887 -86.688,24.07 -81.879,37.55C-60.674,58.755 -28.555,85.093 -7.052,96.007C-4.809,97.302 -1.919,106.297 -1.919,106.297L-10.59,117.211L-103.083,107.892C-105.152,107.718 -107.22,107.643 -109.288,107.643C-115.218,107.643 -121.298,108.316 -128.449,109.487C-123.964,98.249 -114.321,89.254 -114.321,89.254C-114.321,89.254 -123.316,83.797 -130.069,82.85C-128.125,78.34 -122.992,72.559 -121.697,70.965C-124.288,71.911 -142.901,80.259 -144.845,87.335C-135.85,89.578 -129.421,92.468 -129.421,92.468C-129.421,92.468 -139.363,102.435 -141.307,119.778C-141.307,119.778 -111.755,115.268 -89.578,118.158C-88.955,118.482 -88.631,118.482 -88.307,118.482L-76.746,118.806L-40.017,179.953L-39.718,180.427C-39.768,180.452 -39.793,180.477 -39.818,180.477M8.846,-14.627C-14.701,-38.174 -46.646,-51.405 -79.96,-51.405C-113.25,-51.405 -145.194,-38.174 -168.766,-14.627C-192.313,8.92 -205.544,40.864 -205.544,74.179C-205.544,107.469 -192.313,139.413 -168.766,162.96C-145.194,186.532 -113.25,199.763 -79.96,199.763C-46.646,199.763 -14.701,186.532 8.846,162.96C32.393,139.413 45.624,107.469 45.624,74.179C45.624,40.864 32.393,8.92 8.846,-14.627"/>
    </g>
    <path d="M312.059,21.359L326.65,21.359L339.886,82.955L350.099,21.359L362.502,21.359L347.807,100.463L333.529,100.463L319.354,35.325L305.18,100.463L290.902,100.463L276.205,21.359L288.608,21.359L298.823,82.955L312.059,21.359ZM365.52,73.471C365.52,57.421 370.106,46.165 388.659,46.165C407.209,46.165 411.794,57.421 411.794,73.471C411.794,89.522 407.209,100.777 388.659,100.777C370.106,100.777 365.52,89.522 365.52,73.471ZM400.018,73.471C400.018,62.32 398.559,55.962 388.659,55.962C378.756,55.962 377.296,62.32 377.296,73.471C377.296,84.623 378.756,90.981 388.659,90.981C398.559,90.981 400.018,84.623 400.018,73.471ZM420.753,86.707L420.753,21.358L432.426,21.358L432.426,86.603C432.426,89.522 433.468,90.562 436.804,90.562L436.804,100.048C436.804,100.048 435.761,100.256 434.51,100.256C425.027,100.256 420.753,95.67 420.753,86.707ZM480.575,31.26C478.699,30.635 476.51,30.218 472.863,30.218C467.651,30.218 463.482,32.198 463.482,38.139L463.482,47.416L478.178,47.416L478.178,57.316L463.482,57.316L463.482,99.526L451.81,99.526L451.81,57.316L442.324,57.316L442.324,50.125L451.81,47.416L451.81,37.097C451.81,25.944 458.063,20.108 472.029,20.108C475.469,20.108 478.595,20.63 480.575,21.36L480.575,31.26ZM514.966,56.795C513.714,56.378 511.63,56.17 509.233,56.17C503.084,56.17 498.498,57.629 495.893,59.297L495.893,99.526L484.221,99.526L484.221,47.416L491.098,47.416L492.975,51.583C496.831,48.458 502.667,46.165 509.442,46.165C511.63,46.165 513.507,46.478 514.966,46.79L514.966,56.795ZM538.935,56.17C532.161,56.17 526.638,57.733 522.677,59.298L522.677,49.187C526.741,47.416 533.619,46.165 539.769,46.165C556.862,46.165 560.823,53.669 560.823,64.716L560.823,99.526L553.943,99.526L552.067,95.358C547.898,98.797 542.063,100.777 536.33,100.777C522.885,100.777 518.403,92.441 518.403,84.102C518.403,72.845 525.699,68.05 537.476,67.112L549.148,66.176L549.148,63.57C549.148,58.254 546.647,56.17 538.935,56.17ZM538.206,75.452C532.994,76.077 529.972,78.056 529.972,83.476C529.972,87.436 531.64,91.189 537.997,91.189C542.688,91.189 545.918,89.834 549.148,87.749L549.148,74.201L538.206,75.452ZM632.003,62.736C632.003,57.837 629.188,56.066 624.603,56.066C619.496,56.066 616.057,57.629 613.347,59.297C613.555,61.173 613.659,62.944 613.659,65.028L613.659,99.528L601.986,99.528L601.986,62.736C601.986,57.837 599.277,56.066 594.588,56.066C589.791,56.066 586.353,57.524 583.644,59.089L583.644,99.528L571.97,99.528L571.97,47.416L578.849,47.416L580.724,51.584C585.102,48.145 591.356,46.165 596.462,46.165C603.444,46.165 607.614,48.145 609.802,51.375C614.493,48.041 620.746,46.165 626.479,46.165C638.777,46.165 643.676,52.836 643.676,62.736L643.676,99.528L632.003,99.528L632.003,62.736ZM287.841,193.019L321.818,193.019L321.818,203.755L276.168,203.755L276.168,125.587L287.841,125.587L287.841,193.019ZM344.638,160.397C337.863,160.397 332.339,161.96 328.38,163.525L328.38,153.414C332.444,151.643 339.322,150.392 345.472,150.392C362.565,150.392 366.526,157.896 366.526,168.943L366.526,203.753L359.646,203.753L357.77,199.585C353.601,203.024 347.766,205.004 342.033,205.004C328.588,205.004 324.106,196.668 324.106,188.329C324.106,177.072 331.402,172.277 343.179,171.339L354.851,170.403L354.851,167.797C354.851,162.481 352.35,160.397 344.638,160.397ZM343.909,179.679C338.697,180.304 335.675,182.283 335.675,187.703C335.675,191.663 337.342,195.416 343.7,195.416C348.391,195.416 351.621,194.061 354.851,191.976L354.851,178.428L343.909,179.679ZM409.566,203.754L409.566,168.006C409.566,162.69 406.855,160.292 401.331,160.292C395.913,160.292 392.16,161.752 389.347,163.315L389.347,203.754L377.673,203.754L377.673,151.642L384.552,151.642L386.427,155.811C391.743,152.163 397.684,150.392 403.312,150.392C416.549,150.392 421.238,156.958 421.238,166.962L421.238,203.754L409.566,203.754ZM452.083,189.996C449.893,189.996 447.809,189.892 446.038,189.579C445.204,190.413 444.579,191.559 444.579,192.601C444.579,194.374 445.517,195.312 447.705,195.624L466.57,197.917C476.889,199.167 480.536,203.856 480.536,212.508C480.536,225.952 466.361,231.06 451.249,231.06C437.284,231.06 427.173,226.578 427.173,215.844C427.173,208.755 432.489,204.587 438.013,202.92L438.013,202.816C435.408,201.357 433.949,198.438 433.949,195.624C433.949,191.767 436.24,189.057 438.638,187.181C432.697,183.847 430.301,177.802 430.301,170.193C430.301,158.312 436.137,150.391 452.083,150.391C455.836,150.391 458.962,150.808 461.671,151.641L479.702,151.641L479.702,159.041L472.302,161.125C473.344,163.836 473.865,166.857 473.865,170.193C473.865,182.074 468.029,189.996 452.083,189.996ZM448.434,205.316C443.12,206.254 438.326,208.651 438.326,213.654C438.326,219.491 442.495,221.783 452.083,221.783C461.256,221.783 469.279,219.074 469.279,212.82C469.279,209.278 467.508,207.715 463.234,207.192L448.434,205.316ZM452.083,180.721C460.837,180.721 462.819,176.134 462.819,170.193C462.819,164.253 460.837,159.666 452.083,159.666C443.329,159.666 441.347,164.253 441.347,170.193C441.347,176.134 443.329,180.721 452.083,180.721ZM498.147,151.642L498.147,187.39C498.147,192.706 500.856,195.102 506.38,195.102C511.8,195.102 515.553,193.644 518.365,192.081L518.365,151.642L530.04,151.642L530.04,203.754L523.159,203.754L521.284,199.585C515.968,203.231 510.029,205.003 504.4,205.003C491.164,205.003 486.474,198.438 486.474,188.432L486.474,151.642L498.147,151.642ZM558.07,160.397C551.295,160.397 545.771,161.96 541.812,163.525L541.812,153.414C545.875,151.643 552.754,150.392 558.904,150.392C575.997,150.392 579.958,157.896 579.958,168.943L579.958,203.753L573.078,203.753L571.202,199.585C567.033,203.024 561.198,205.004 555.465,205.004C542.02,205.004 537.538,196.668 537.538,188.329C537.538,177.072 544.833,172.277 556.611,171.339L568.283,170.403L568.283,167.797C568.283,162.481 565.782,160.397 558.07,160.397ZM557.341,179.679C552.129,180.304 549.107,182.283 549.107,187.703C549.107,191.663 550.775,195.416 557.132,195.416C561.823,195.416 565.053,194.061 568.283,191.976L568.283,178.428L557.341,179.679ZM610.907,189.996C608.719,189.996 606.633,189.892 604.862,189.579C604.028,190.413 603.403,191.559 603.403,192.601C603.403,194.374 604.341,195.312 606.529,195.624L625.394,197.917C635.713,199.167 639.36,203.856 639.36,212.508C639.36,225.952 625.185,231.06 610.073,231.06C596.108,231.06 585.997,226.578 585.997,215.844C585.997,208.755 591.313,204.587 596.837,202.92L596.837,202.816C594.232,201.357 592.773,198.438 592.773,195.624C592.773,191.767 595.064,189.057 597.462,187.181C591.521,183.847 589.125,177.802 589.125,170.193C589.125,158.312 594.961,150.391 610.907,150.391C614.66,150.391 617.786,150.808 620.495,151.641L638.526,151.641L638.526,159.041L631.126,161.125C632.168,163.836 632.689,166.857 632.689,170.193C632.689,182.074 626.852,189.996 610.907,189.996ZM610.907,180.721C619.661,180.721 621.643,176.134 621.643,170.193C621.643,164.253 619.661,159.666 610.907,159.666C602.153,159.666 600.171,164.253 600.171,170.193C600.171,176.134 602.153,180.721 610.907,180.721ZM607.258,205.316C601.944,206.254 597.149,208.651 597.149,213.654C597.149,219.491 601.319,221.783 610.907,221.783C620.08,221.783 628.103,219.074 628.103,212.82C628.103,209.278 626.331,207.715 622.059,207.192L607.258,205.316ZM667.392,150.391C685.734,150.391 688.653,162.481 688.653,176.864C688.653,178.635 688.547,180.302 688.445,181.971L656.031,181.971C656.239,189.788 659.054,194.893 669.684,194.893C676.25,194.893 681.67,193.749 686.257,191.767L686.257,201.772C680.316,204.274 673.541,205.004 667.913,205.004C650.507,205.004 644.254,194.581 644.254,177.697C644.254,160.918 650.403,150.391 667.392,150.391ZM656.031,173.842L676.876,173.842C676.876,166.753 676.459,160.502 667.392,160.502C658.844,160.502 656.448,166.024 656.031,173.842Z"/>
    <g transform="matrix(1,0,0,1,697.362,151.776)">
        <path d="M0,-11.472L3.254,-11.472L6.26,-3.723L9.211,-11.472L12.465,-11.472L12.465,0L10.369,0L10.369,-8.77L10.314,-8.77L7.088,0L5.378,0L2.151,-8.77L2.096,-8.77L2.096,0L0,0L0,-11.472ZM-8.328,-9.542L-11.858,-9.542L-11.858,-11.472L-2.703,-11.472L-2.703,-9.542L-6.233,-9.542L-6.233,0L-8.328,0L-8.328,-9.542Z" style="fill-rule:nonzero;"/>
    </g>
</svg>
