<svg xmlns:xlink="http://www.w3.org/1999/xlink" xmlns="http://www.w3.org/2000/svg" id="Layer_1" data-name="Layer 1" width="524" height="44" viewBox="0 0 524 44">
  <title>cactus-club-logo</title>
  <g>
    <path d="M422.32,33.21a14,14,0,0,1-9.26,3.53,14.29,14.29,0,0,1,0-28.57,14,14,0,0,1,9.21,3.44l2.35-2.77a17.89,17.89,0,1,0-11.56,31.47A18,18,0,0,0,424.74,36Z" fill="#fff"/>
    <path d="M107.78,33.31a13.94,13.94,0,0,1-9.26,3.53,14.28,14.28,0,0,1,0-28.56,14,14,0,0,1,9.21,3.43l2.36-2.77A17.9,17.9,0,1,0,98.52,40.41a18.08,18.08,0,0,0,11.69-4.28Z" fill="#fff"/>
    <path d="M265.78,33.35a14,14,0,0,1-9.26,3.53,14.29,14.29,0,0,1,0-28.57,14,14,0,0,1,9.21,3.44L268.08,9a17.83,17.83,0,1,0,.12,27.18Z" fill="#fff"/>
    <g>
      <path d="M48.59,29.92l-4.17,9.79H40.21L56.14,3.55,71.66,39.71H67.4l-4.07-9.79Zm7.46-17.4L50.14,26.35H61.82Z" fill="#fff"/>
      <path d="M133,39.71h-3.85V8.77h-8.33V5.2h20.6V8.77H133Z" fill="#fff"/>
      <path d="M156.49,25.75c0,2.57-.09,5.5,1.51,7.69a8.89,8.89,0,0,0,7,3.3,9.14,9.14,0,0,0,6.78-3.07c1.83-2.2,1.69-5.22,1.69-7.92V5.2h3.84V26.81c0,3.75-.27,6.72-3,9.56A12.67,12.67,0,0,1,165,40.31,12.93,12.93,0,0,1,156,36.78c-3-2.88-3.38-6-3.38-10V5.2h3.84Z" fill="#fff"/>
      <path d="M207.13,11.93c-1.37-2.38-3-3.76-5.95-3.76a5.48,5.48,0,0,0-5.72,5.36c0,3,3.07,4.35,5.4,5.4l2.29,1c4.49,2,8.28,4.21,8.28,9.7a10.89,10.89,0,0,1-21.6,1.74l3.75-1.05a7.12,7.12,0,0,0,6.91,6.41,6.94,6.94,0,0,0,7.1-6.73c0-4-3.16-5.4-6.36-6.87l-2.11-.91c-4-1.83-7.51-3.89-7.51-8.84,0-5.35,4.54-8.79,9.66-8.79A9.9,9.9,0,0,1,210.2,10Z" fill="#fff"/>
      <path d="M286.46,36.14H296v3.57H282.62V5.2h3.84Z" fill="#fff"/>
      <path d="M310.92,25.75c0,2.57-.09,5.5,1.51,7.69a8.89,8.89,0,0,0,7,3.3,9.1,9.1,0,0,0,6.77-3.07c1.84-2.2,1.7-5.22,1.7-7.92V5.2h3.84V26.81c0,3.75-.27,6.72-3,9.56a12.67,12.67,0,0,1-9.29,3.94,12.93,12.93,0,0,1-8.93-3.53c-3-2.88-3.38-6-3.38-10V5.2h3.84Z" fill="#fff"/>
      <path d="M345.91,5.2h5.67c6.27,0,11.54,2.29,11.54,9.34a7.68,7.68,0,0,1-3.39,6.73,8.77,8.77,0,0,1,6.55,8.83c0,6.87-5.54,9.61-12.36,9.61h-8Zm3.84,15.2h1.47c4.34,0,8-.51,8-5.86s-3.29-5.77-8-5.77h-1.51Zm0,15.74h3.85c4.3,0,8.83-1,8.83-6.31s-5.13-6.14-9.34-6.14h-3.34Z" fill="#fff"/>
      <path d="M442.63,29.92l-4.16,9.79h-4.21L450.19,3.55l15.52,36.16h-4.26l-4.08-9.79Zm7.47-17.4-5.91,13.83h11.67Z" fill="#fff"/>
      <path d="M480.68,8.77V19h11.49v3.57H480.68V39.71h-3.84V5.2h15.7V8.77Z" fill="#fff"/>
      <path d="M506.1,5.2H524V8.77H510V19h13.64v3.57H510V36.14H524v3.57H506.1Z" fill="#fff"/>
    </g>
    <path d="M27.25,33.31A13.94,13.94,0,0,1,18,36.84,14.28,14.28,0,0,1,18,8.28a14,14,0,0,1,9.21,3.43l2.36-2.77A17.9,17.9,0,1,0,18,40.41a18.08,18.08,0,0,0,11.69-4.28Z" fill="#fff"/>
  </g>
</svg>