<svg xmlns:xlink="http://www.w3.org/1999/xlink" xmlns="http://www.w3.org/2000/svg" width="40" height="40" viewBox="0 0 40 40" fill="none">
<circle cx="20" cy="20" r="20" fill="#EB2B34"/>
<path d="M19.9929 11.1733C17.8204 11.1733 15.737 12.104 14.2009 13.7605C12.6647 15.4171 11.8018 17.6638 11.8018 20.0066C11.8018 22.3493 12.6647 24.5961 14.2009 26.2526C15.737 27.9092 17.8204 28.8398 19.9929 28.8398V24.7675C18.822 24.7675 17.6991 24.2659 16.8711 23.373C16.0432 22.4802 15.5781 21.2692 15.5781 20.0066C15.5781 18.7439 16.0432 17.533 16.8711 16.6401C17.6991 15.7473 18.822 15.2457 19.9929 15.2457V11.1733Z" fill="white"/>
<circle cx="24.274" cy="13.3999" r="2.85404" fill="white"/>
<circle cx="24.274" cy="26.6138" r="2.85404" fill="white"/>
</svg>