<svg width="108" height="32" viewBox="0 0 108 32" fill="none" xmlns="http://www.w3.org/2000/svg">
<path d="M73.7227 16.4173H69.1681C69.0854 15.8267 68.9147 15.3013 68.6587 14.8387C68.4027 14.3773 68.0734 13.9827 67.6707 13.656C67.2681 13.3293 66.8054 13.08 66.2827 12.9067C65.7587 12.7333 65.1921 12.6467 64.5827 12.6467C63.4801 12.6467 62.5201 12.9187 61.7027 13.464C60.8854 14.0093 60.2507 14.8013 59.8001 15.8387C59.3494 16.8773 59.1241 18.136 59.1241 19.6147C59.1241 21.0933 59.3507 22.4133 59.8054 23.448C60.2587 24.4827 60.8947 25.264 61.7134 25.792C62.5307 26.32 63.4774 26.584 64.5521 26.584C65.1547 26.584 65.7147 26.504 66.2307 26.344C66.7467 26.184 67.2067 25.9493 67.6081 25.6413C68.0094 25.332 68.3441 24.956 68.6121 24.5107C68.8787 24.0667 69.0641 23.56 69.1681 22.9893L73.7227 23.0107C73.6054 23.9893 73.3121 24.932 72.8441 25.8387C72.3761 26.7453 71.7494 27.5547 70.9627 28.2653C70.1761 28.9773 69.2401 29.54 68.1547 29.9533C67.0694 30.3667 65.8454 30.5733 64.4787 30.5733C62.5787 30.5733 60.8827 30.1427 59.3894 29.2813C57.8961 28.42 56.7174 27.1733 55.8547 25.5413C54.9921 23.9093 54.5601 21.9333 54.5601 19.6147C54.5601 17.296 54.9974 15.3093 55.8707 13.6773C56.7441 12.0453 57.9294 10.8013 59.4267 9.94267C60.9241 9.08534 62.6081 8.65601 64.4801 8.65601C65.7134 8.65601 66.8587 8.82934 67.9161 9.17734C68.9734 9.52534 69.9107 10.0293 70.7281 10.6933C71.5454 11.356 72.2134 12.1667 72.7294 13.1253C73.2454 14.084 73.5774 15.1813 73.7227 16.4173Z" fill="#ffffff"/>
<path d="M76.9562 30.2827V8.94934H91.0548V12.668H81.4575V17.7507H90.1188V21.4693H81.4575V30.2813H76.9548L76.9562 30.2827Z" fill="#ffffff"/>
<path d="M98.5827 8.94934V30.2827H94.0801V8.94934H98.5827Z" fill="#ffffff"/>
<path d="M2.88939 31.1214C0.296059 29.8147 -0.743941 26.6494 0.566726 24.056L7.58139 10.168C8.88806 7.57468 12.0534 6.53468 14.6467 7.84535C17.2401 9.15202 18.2801 12.3174 16.9694 14.9107L9.95473 28.7987C8.64406 31.388 5.48273 32.4294 2.88939 31.1214Z" fill="#ffffff"/>
<path d="M17.6121 31.1213C15.0188 29.8147 13.9814 26.6493 15.2894 24.06L24.0628 6.68799C25.3694 4.09466 28.5348 3.05733 31.1241 4.36533C33.7174 5.67199 34.7548 8.83733 33.4468 11.4267L24.6774 28.7987C23.3668 31.388 20.2054 32.4293 17.6121 31.1213Z" fill="#ffffff"/>
<path d="M32.3388 31.1214C29.7455 29.8107 28.7055 26.6494 30.0121 24.056L40.5428 3.20002C41.8495 0.606685 45.0148 -0.430648 47.6041 0.877352H47.6081C50.2015 2.18402 51.2388 5.34935 49.9308 7.93869L39.3988 28.7987C38.0921 31.392 34.9268 32.432 32.3375 31.1214H32.3388Z" fill="#ffffff"/>
<path d="M103.541 27.772V30.2867H103.132V27.772H102.237V27.4093H104.439V27.772H103.541Z" fill="#ffffff"/>
<path d="M107.588 30.2867V27.7973H107.577L106.625 30.2867H106.221L105.269 27.7973H105.261V30.2867H104.852V27.4107H105.531L106.433 29.8013L107.321 27.4107H108.001V30.2867H107.589H107.588Z" fill="#ffffff"/>
</svg>
