<?xml version="1.0" encoding="UTF-8" standalone="no"?>
<!-- Created with Inkscape (http://www.inkscape.org/) -->

<svg
   version="1.1"
   id="svg856"
   xml:space="preserve"
   width="384"
   height="288"
   viewBox="0 0 384 288"
   sodipodi:docname="Defang Software Labs Logo.ai"
   inkscape:version="1.1.1 (c3084ef, 2021-09-22)"
   xmlns:inkscape="http://www.inkscape.org/namespaces/inkscape"
   xmlns:sodipodi="http://sodipodi.sourceforge.net/DTD/sodipodi-0.dtd"
   xmlns="http://www.w3.org/2000/svg"
   xmlns:svg="http://www.w3.org/2000/svg"><defs
     id="defs860"><clipPath
       clipPathUnits="userSpaceOnUse"
       id="clipPath870"><path
         d="M 0,216 H 288 V 0 H 0 Z"
         id="path868" /></clipPath></defs><sodipodi:namedview
     id="namedview858"
     pagecolor="#ffffff"
     bordercolor="#666666"
     borderopacity="1.0"
     inkscape:pageshadow="2"
     inkscape:pageopacity="0.0"
     inkscape:pagecheckerboard="0"
     showgrid="false"
     inkscape:zoom="1.4192708"
     inkscape:cx="237.09358"
     inkscape:cy="145.49725"
     inkscape:window-width="1312"
     inkscape:window-height="969"
     inkscape:window-x="0"
     inkscape:window-y="25"
     inkscape:window-maximized="0"
     inkscape:current-layer="g862" /><g
     id="g862"
     inkscape:groupmode="layer"
     inkscape:label="Defang Software Labs Logo"
     transform="matrix(1.3333333,0,0,-1.3333333,0,288)"><g
       id="g872"
       transform="translate(157.8575,116.3975)"><path
         d="M 0,0 C 0,1.114 0.54,2.1 1.371,2.715 1.639,2.913 1.806,3.342 1.742,3.669 L 0.63,9.323 C 0.5,9.315 0.372,9.303 0.24,9.303 -0.197,9.303 -0.624,9.346 -1.036,9.426 -1.432,9.503 -1.899,9.24 -2.07,8.875 L -8.267,-4.413 c -0.09,-0.193 -0.046,-0.423 0.113,-0.566 0.024,-0.023 0.049,-0.045 0.072,-0.068 0.156,-0.147 0.389,-0.174 0.575,-0.069 l 7.302,4.125 C -0.03,-0.893 0.07,-0.698 0.04,-0.5 0.014,-0.337 0,-0.17 0,0"
         style="fill:#066ebc;fill-opacity:1;fill-rule:nonzero;stroke:none"
         id="path874" /></g><g
       id="g876"
       transform="translate(142.2872,144.5903)"><path
         d="m 0,0 c -0.24,-0.375 -0.204,-0.874 0.113,-1.187 1.452,-1.432 2.354,-3.422 2.354,-5.624 0,-0.223 -0.012,-0.443 -0.033,-0.661 -0.023,-0.237 0.135,-0.455 0.367,-0.514 l 6.08,-1.554 c 0.419,-0.107 0.869,0.072 1.074,0.452 0.77,1.427 2.046,2.538 3.588,3.097 0.406,0.147 0.647,0.567 0.603,0.997 L 13.298,3.082 C 13.266,3.389 13.089,3.661 12.822,3.815 L 6.045,7.728 C 5.6,7.985 5.031,7.847 4.753,7.414 Z"
         style="fill:#066ebc;fill-opacity:1;fill-rule:nonzero;stroke:none"
         id="path878" /></g><g
       id="g880"
       transform="translate(159.0226,138.9326)"><path
         d="M 0,0 C 0.959,-0.133 1.854,-0.47 2.636,-0.967 3.004,-1.201 3.484,-1.142 3.8,-0.841 l 2.901,2.76 C 7.167,2.362 7.075,3.128 6.519,3.45 L 0.073,7.171 C -0.608,7.564 -1.447,7.019 -1.365,6.237 L -0.8,0.851 C -0.755,0.419 -0.43,0.06 0,0"
         style="fill:#066ebc;fill-opacity:1;fill-rule:nonzero;stroke:none"
         id="path882" /></g><g
       id="g884"
       transform="translate(143.9298,134.2817)"><path
         d="m 0,0 c -0.677,-1.368 -1.738,-2.51 -3.043,-3.288 -0.384,-0.228 -0.54,-0.704 -0.397,-1.127 l 5.904,-17.383 c 0.157,0.018 0.315,0.029 0.477,0.029 0.2,0 0.396,-0.015 0.588,-0.043 0.21,-0.03 0.412,0.087 0.502,0.279 l 6.203,13.3 c 0.182,0.388 0.094,0.861 -0.24,1.13 -1.51,1.219 -2.478,3.082 -2.478,5.173 0,0.124 0.005,0.248 0.012,0.37 0.014,0.23 -0.146,0.435 -0.369,0.492 L 1.093,0.482 C 0.661,0.592 0.198,0.399 0,0"
         style="fill:#066ebc;fill-opacity:1;fill-rule:nonzero;stroke:none"
         id="path886" /></g><g
       id="g888"
       transform="translate(164.8219,117.3892)"><path
         d="m 0,0 c -0.174,-0.099 -0.275,-0.293 -0.244,-0.491 0.026,-0.163 0.039,-0.33 0.039,-0.501 0,-0.376 -0.061,-0.739 -0.175,-1.077 -0.106,-0.315 0.004,-0.761 0.243,-0.991 l 4.55,-4.378 C 4.571,-7.59 4.81,-7.619 5,-7.51 c 0.151,0.088 0.245,0.25 0.245,0.426 v 8.397 c 0,0.737 -0.794,1.201 -1.436,0.838 z"
         style="fill:#066ebc;fill-opacity:1;fill-rule:nonzero;stroke:none"
         id="path890" /></g><g
       id="g892"
       transform="translate(149.6471,104.2158)"><path
         d="m 0,0 c -0.254,0.256 -0.734,0.349 -1.063,0.202 -0.524,-0.234 -1.103,-0.365 -1.713,-0.365 -0.614,0 -1.195,0.132 -1.721,0.368 -0.329,0.148 -0.809,0.055 -1.064,-0.201 l -4.78,-4.789 c -0.447,-0.447 -0.348,-1.197 0.2,-1.514 l 3.988,-2.303 c 0.502,-0.289 1.119,-0.289 1.62,0 l 7.23,4.175 c 0.548,0.316 0.647,1.065 0.201,1.513 z"
         style="fill:#23a2e8;fill-opacity:1;fill-rule:nonzero;stroke:none"
         id="path894" /></g><g
       id="g896"
       transform="translate(164.7486,132.3521)"><path
         d="m 0,0 c 0,-2.662 -1.566,-4.954 -3.825,-6.016 -0.394,-0.185 -0.603,-0.62 -0.519,-1.047 l 0.959,-4.875 c 0.065,-0.327 0.383,-0.662 0.707,-0.743 0.404,-0.102 0.779,-0.276 1.11,-0.508 0.274,-0.193 0.734,-0.22 1.026,-0.055 l 5.371,3.034 c 0.302,0.17 0.489,0.491 0.489,0.838 V 6.862 c 0,0.344 -0.183,0.661 -0.481,0.833 L 4.155,8.089 C 3.786,8.303 3.319,8.247 3.01,7.953 L -0.694,4.427 C -1.007,4.129 -1.086,3.657 -0.872,3.282 -0.319,2.313 0,1.195 0,0"
         style="fill:#066ebc;fill-opacity:1;fill-rule:nonzero;stroke:none"
         id="path898" /></g><g
       id="g900"
       transform="translate(143.8961,111.2832)"><path
         d="m 0,0 c 0.084,0.084 0.173,0.164 0.264,0.241 0.281,0.235 0.42,0.703 0.302,1.05 l -5.679,16.722 c -0.144,0.424 -0.562,0.69 -1.006,0.637 -0.303,-0.037 -0.612,-0.056 -0.925,-0.056 -0.644,0 -1.268,0.081 -1.866,0.228 -0.435,0.108 -0.883,-0.119 -1.078,-0.524 l -3.736,-7.77 c -0.175,-0.363 -0.103,-0.8 0.188,-1.08 0.93,-0.894 1.511,-2.147 1.511,-3.539 0,-0.269 -0.024,-0.532 -0.067,-0.788 -0.037,-0.219 0.081,-0.433 0.283,-0.523 L -1.074,-0.204 C -0.74,-0.354 -0.26,-0.258 0,0"
         style="fill:#066ebc;fill-opacity:1;fill-rule:nonzero;stroke:none"
         id="path902" /></g><g
       id="g904"
       transform="translate(131.5856,144.7104)"><path
         d="m 0,0 c 0.308,-0.328 0.803,-0.405 1.187,-0.172 1.19,0.723 2.584,1.143 4.079,1.143 0.985,0 1.925,-0.185 2.793,-0.516 0.417,-0.159 0.886,0.02 1.127,0.395 l 4.66,7.269 c 0.297,0.463 0.147,1.079 -0.329,1.353 L 13.2,9.655 c -0.298,0.172 -0.665,0.172 -0.963,0 L -0.524,2.287 C -1.062,1.977 -1.17,1.248 -0.746,0.795 Z"
         style="fill:#066ebc;fill-opacity:1;fill-rule:nonzero;stroke:none"
         id="path906" /></g><g
       id="g908"
       transform="translate(128.3834,135.7466)"><path
         d="M 0,0 C 0.426,0.15 0.694,0.576 0.634,1.024 0.59,1.354 0.566,1.69 0.566,2.033 c 0,1.68 0.527,3.236 1.422,4.515 0.256,0.366 0.201,0.865 -0.104,1.191 L 0.548,9.163 C 0.242,9.49 -0.248,9.562 -0.635,9.338 L -9.361,4.301 C -9.659,4.129 -9.842,3.811 -9.842,3.467 v -5.578 c 0,-0.664 0.656,-1.129 1.283,-0.908 z"
         style="fill:#066ebc;fill-opacity:1;fill-rule:nonzero;stroke:none"
         id="path910" /></g><g
       id="g912"
       transform="translate(127.2609,112.2891)"><path
         d="m 0,0 c -0.103,-0.006 -0.205,-0.016 -0.309,-0.016 -1.663,0 -3.131,0.827 -4.021,2.091 -0.231,0.329 -0.653,0.462 -1.038,0.344 L -8.038,1.604 C -8.443,1.481 -8.719,1.107 -8.719,0.684 v -2.396 c 0,-0.344 0.183,-0.662 0.481,-0.834 l 8.422,-4.862 c 0.737,-0.426 1.623,0.244 1.415,1.069 z"
         style="fill:#23a2e8;fill-opacity:1;fill-rule:nonzero;stroke:none"
         id="path914" /></g><g
       id="g916"
       transform="translate(155.6813,101.7158)"><path
         d="m 0,0 11.09,6.402 c 0.555,0.321 0.647,1.083 0.186,1.528 L 7.755,11.317 C 7.518,11.545 7.07,11.645 6.763,11.526 6.388,11.382 5.982,11.302 5.556,11.302 c -0.728,0 -1.403,0.231 -1.954,0.623 -0.269,0.191 -0.728,0.208 -1.016,0.046 L -4.152,8.165 C -4.47,7.985 -4.679,7.544 -4.625,7.183 -4.596,6.981 -4.581,6.776 -4.581,6.567 -4.581,5.948 -4.715,5.361 -4.955,4.831 -5.104,4.503 -5.012,4.023 -4.758,3.768 L -1.164,0.154 C -0.856,-0.155 -0.378,-0.219 0,0"
         style="fill:#23a2e8;fill-opacity:1;fill-rule:nonzero;stroke:none"
         id="path918" /></g><g
       id="g920"
       transform="translate(118.5416,116.8672)"><path
         d="m 0,0 c 0,-0.646 0.625,-1.109 1.243,-0.921 l 1.924,0.587 C 3.376,-0.27 3.504,-0.07 3.496,0.147 3.446,1.381 3.886,2.741 6.243,4.45 6.96,4.97 7.839,5.292 8.724,5.233 8.828,5.226 8.931,5.215 9.033,5.202 9.41,5.152 9.852,5.394 10.017,5.736 l 3.733,7.759 c 0.195,0.404 0.09,0.895 -0.265,1.169 -0.758,0.587 -1.406,1.308 -1.909,2.129 -0.234,0.382 -0.71,0.54 -1.133,0.391 L 0.642,13.727 C 0.257,13.591 0,13.227 0,12.818 Z"
         style="fill:#23a2e8;fill-opacity:1;fill-rule:nonzero;stroke:none"
         id="path922" /></g><g
       id="g924"
       transform="translate(137.3297,99.998)"><path
         d="M 0,0 5.483,5.493 C 5.738,5.748 5.83,6.228 5.682,6.557 5.444,7.084 5.311,7.668 5.311,8.285 c 0,0.176 0.011,0.35 0.032,0.521 C 5.37,9.017 5.25,9.218 5.057,9.305 l -10.726,4.798 c -0.366,0.163 -0.799,0.084 -1.068,-0.212 -0.297,-0.327 -0.638,-0.613 -1.013,-0.85 -0.34,-0.215 -0.493,-0.63 -0.395,-1.019 l 2.304,-9.137 c 0.064,-0.252 0.227,-0.468 0.452,-0.598 l 4.226,-2.44 C -0.785,-0.371 -0.308,-0.309 0,0"
         style="fill:#23a2e8;fill-opacity:1;fill-rule:nonzero;stroke:none"
         id="path926" /></g><g
       id="g1275"
       transform="translate(81.908259,50.201836)"><g
         id="g928"
         transform="translate(107.2848,80.2451)"><path
           d="M 0,0 C 0,0.676 -0.114,1.302 -0.342,1.875 -0.57,2.448 -0.887,2.941 -1.291,3.354 -1.695,3.765 -2.184,4.085 -2.758,4.312 -3.332,4.541 -3.964,4.655 -4.656,4.655 h -2.625 v -9.31 h 2.625 c 0.692,0 1.324,0.11 1.898,0.331 0.574,0.22 1.063,0.537 1.467,0.948 0.404,0.412 0.721,0.897 0.949,1.456 C -0.114,-1.36 0,-0.735 0,-0.044 Z M 2.956,-3.045 C 2.559,-3.986 1.997,-4.802 1.268,-5.493 0.541,-6.186 -0.328,-6.729 -1.335,-7.126 -2.342,-7.523 -3.449,-7.722 -4.656,-7.722 h -6.023 V 7.722 h 6.023 c 1.207,0 2.314,-0.196 3.321,-0.585 C -0.328,6.747 0.541,6.207 1.268,5.516 1.997,4.824 2.559,4.011 2.956,3.077 3.353,2.144 3.552,1.133 3.552,0.044 V 0 c 0,-1.089 -0.199,-2.104 -0.596,-3.045"
           style="fill:#066ebc;fill-opacity:1;fill-rule:nonzero;stroke:none"
           id="path930" /></g><g
         id="g932"
         transform="translate(113.859,72.5234)"><path
           d="M 0,0 V 15.443 H 11.626 V 12.421 H 3.354 V 9.288 h 7.28 V 6.266 H 3.354 V 3.022 h 8.383 V 0 Z"
           style="fill:#066ebc;fill-opacity:1;fill-rule:nonzero;stroke:none"
           id="path934" /></g><g
         id="g936"
         transform="translate(132.0382,84.9004)"><path
           d="M 0,0 V -3.332 H 7.369 V -6.398 H 0 v -5.979 H -3.398 V 3.066 H 8.361 V 0 Z"
           style="fill:#066ebc;fill-opacity:1;fill-rule:nonzero;stroke:none"
           id="path938" /></g><g
         id="g940"
         transform="translate(149.9298,83.9951)"><path
           d="m 0,0 -2.051,-5.008 h 4.103 z m 4.677,-11.472 -1.411,3.464 h -6.531 l -1.412,-3.464 H -8.14 l 6.618,15.554 h 3.133 l 6.618,-15.554 z"
           style="fill:#066ebc;fill-opacity:1;fill-rule:nonzero;stroke:none"
           id="path942" /></g><g
         id="g944"
         transform="translate(171.3746,72.5234)"><path
           d="M 0,0 -7.479,9.817 V 0 h -3.354 V 15.443 H -7.7 l 7.237,-9.508 v 9.508 H 2.89 V 0 Z"
           style="fill:#066ebc;fill-opacity:1;fill-rule:nonzero;stroke:none"
           id="path946" /></g><g
         id="g948"
         transform="translate(189.1671,72.9746)"><path
           d="m 0,0 c -1.096,-0.477 -2.35,-0.716 -3.762,-0.716 -1.206,0 -2.305,0.198 -3.298,0.596 -0.992,0.397 -1.846,0.948 -2.559,1.654 -0.714,0.706 -1.268,1.544 -1.666,2.516 -0.397,0.971 -0.595,2.029 -0.595,3.177 v 0.044 c 0,1.102 0.202,2.136 0.606,3.099 0.405,0.963 0.967,1.809 1.688,2.537 0.721,0.729 1.574,1.302 2.559,1.721 0.985,0.42 2.067,0.629 3.244,0.629 0.691,0 1.32,-0.048 1.886,-0.144 0.566,-0.095 1.092,-0.231 1.578,-0.408 0.485,-0.177 0.941,-0.397 1.367,-0.661 0.427,-0.266 0.838,-0.566 1.236,-0.905 l -2.14,-2.581 c -0.295,0.25 -0.589,0.47 -0.883,0.662 -0.294,0.19 -0.599,0.352 -0.915,0.485 -0.317,0.132 -0.659,0.235 -1.026,0.309 -0.368,0.073 -0.772,0.11 -1.214,0.11 -0.618,0 -1.195,-0.129 -1.731,-0.388 C -6.163,11.479 -6.633,11.133 -7.038,10.697 -7.442,10.263 -7.759,9.754 -7.986,9.172 -8.214,8.59 -8.328,7.967 -8.328,7.304 V 7.259 c 0,-0.707 0.114,-1.36 0.342,-1.956 0.227,-0.598 0.551,-1.117 0.97,-1.56 0.419,-0.442 0.912,-0.784 1.479,-1.028 0.566,-0.243 1.194,-0.364 1.886,-0.364 1.265,0 2.331,0.31 3.199,0.933 v 2.222 h -3.42 V 8.439 H 2.835 V 1.732 C 2.041,1.057 1.096,0.479 0,0"
           style="fill:#066ebc;fill-opacity:1;fill-rule:nonzero;stroke:none"
           id="path950" /></g><g
         id="g952"
         transform="translate(97.3063,65.6406)"><path
           d="M 0,0 C 0.04,-0.084 0.111,-0.162 0.215,-0.235 0.318,-0.308 0.461,-0.375 0.644,-0.437 0.826,-0.498 1.057,-0.562 1.337,-0.629 1.646,-0.708 1.919,-0.794 2.158,-0.89 2.396,-0.984 2.593,-1.101 2.75,-1.237 2.907,-1.374 3.027,-1.534 3.108,-1.716 3.189,-1.897 3.23,-2.111 3.23,-2.357 3.23,-2.637 3.179,-2.886 3.076,-3.104 2.973,-3.322 2.831,-3.507 2.647,-3.657 2.464,-3.809 2.245,-3.924 1.988,-4.002 1.731,-4.08 1.449,-4.119 1.141,-4.119 c -0.453,0 -0.887,0.077 -1.3,0.23 -0.414,0.155 -0.797,0.391 -1.15,0.709 l 0.621,0.739 c 0.286,-0.247 0.573,-0.435 0.864,-0.567 0.291,-0.131 0.621,-0.197 0.99,-0.197 0.319,0 0.572,0.067 0.759,0.202 0.188,0.134 0.282,0.315 0.282,0.545 0,0.106 -0.019,0.201 -0.055,0.285 -0.037,0.084 -0.104,0.161 -0.202,0.231 -0.098,0.07 -0.233,0.135 -0.404,0.197 -0.171,0.061 -0.394,0.126 -0.669,0.193 -0.314,0.073 -0.592,0.154 -0.836,0.243 -0.244,0.089 -0.449,0.202 -0.614,0.336 -0.166,0.134 -0.292,0.296 -0.379,0.487 -0.087,0.189 -0.13,0.422 -0.13,0.696 0,0.257 0.05,0.49 0.149,0.7 0.1,0.21 0.238,0.391 0.412,0.541 0.175,0.152 0.385,0.268 0.631,0.349 0.245,0.081 0.514,0.121 0.805,0.121 0.43,0 0.817,-0.063 1.161,-0.189 C 2.42,1.606 2.743,1.423 3.045,1.183 L 2.492,0.402 C 2.223,0.599 1.958,0.748 1.695,0.852 1.432,0.955 1.166,1.007 0.898,1.007 0.596,1.007 0.361,0.938 0.193,0.801 0.025,0.664 -0.059,0.498 -0.059,0.302 -0.059,0.185 -0.039,0.084 0,0"
           style="fill:#23a2e8;fill-opacity:1;fill-rule:nonzero;stroke:none"
           id="path954" /></g><g
         id="g956"
         transform="translate(106.4044,65.3428)"><path
           d="M 0,0 C -0.098,0.255 -0.235,0.477 -0.411,0.667 -0.587,0.857 -0.798,1.008 -1.044,1.12 -1.291,1.231 -1.559,1.288 -1.85,1.288 -2.141,1.288 -2.408,1.233 -2.651,1.124 -2.894,1.016 -3.103,0.867 -3.276,0.68 -3.449,0.492 -3.585,0.271 -3.683,0.017 -3.781,-0.237 -3.83,-0.508 -3.83,-0.793 c 0,-0.285 0.049,-0.555 0.147,-0.81 0.098,-0.253 0.235,-0.476 0.412,-0.667 0.175,-0.189 0.387,-0.34 0.633,-0.453 0.246,-0.111 0.514,-0.167 0.805,-0.167 0.291,0 0.558,0.054 0.801,0.163 0.243,0.11 0.452,0.258 0.625,0.445 0.174,0.187 0.309,0.408 0.407,0.663 0.098,0.255 0.147,0.524 0.147,0.809 C 0.147,-0.524 0.098,-0.255 0,0 M 1.002,-1.967 C 0.852,-2.336 0.639,-2.659 0.365,-2.937 0.091,-3.213 -0.233,-3.433 -0.608,-3.595 -0.983,-3.757 -1.396,-3.838 -1.85,-3.838 c -0.453,0 -0.867,0.08 -1.241,0.239 -0.375,0.16 -0.697,0.376 -0.965,0.651 -0.269,0.273 -0.478,0.594 -0.629,0.964 -0.151,0.369 -0.227,0.76 -0.227,1.174 0,0.414 0.076,0.806 0.227,1.175 0.151,0.369 0.363,0.692 0.637,0.969 0.274,0.276 0.599,0.496 0.973,0.658 0.375,0.162 0.789,0.243 1.242,0.243 0.453,0 0.867,-0.079 1.242,-0.238 C -0.217,1.837 0.105,1.62 0.374,1.347 0.642,1.072 0.852,0.751 1.002,0.382 1.154,0.013 1.229,-0.379 1.229,-0.793 c 0,-0.414 -0.075,-0.805 -0.227,-1.174"
           style="fill:#23a2e8;fill-opacity:1;fill-rule:nonzero;stroke:none"
           id="path958" /></g><g
         id="g960"
         transform="translate(113.2457,66.5469)"><path
           d="m 0,0 h -3.339 v -1.619 h 2.962 v -0.932 h -2.962 v -2.39 H -4.362 V 0.931 H 0 Z"
           style="fill:#23a2e8;fill-opacity:1;fill-rule:nonzero;stroke:none"
           id="path962" /></g><g
         id="g964"
         transform="translate(116.8698,61.6055)"><path
           d="M 0,0 H -1.041 V 4.916 H -2.903 V 5.872 H 1.862 V 4.916 H 0 Z"
           style="fill:#23a2e8;fill-opacity:1;fill-rule:nonzero;stroke:none"
           id="path966" /></g><g
         id="g968"
         transform="translate(123.3292,67.4951)"><path
           d="m 0,0 h 0.873 l 1.442,-4.371 1.401,4.353 H 4.798 L 2.751,-5.932 H 1.862 l -1.443,4.22 -1.442,-4.22 h -0.89 l -2.046,5.914 h 1.115 l 1.401,-4.353 z"
           style="fill:#23a2e8;fill-opacity:1;fill-rule:nonzero;stroke:none"
           id="path970" /></g><g
         id="g972"
         transform="translate(130.9718,66.2861)"><path
           d="M 0,0 -1.007,-2.349 H 1.015 Z M 3.079,-4.681 H 1.988 l -0.595,1.418 h -2.777 l -0.604,-1.418 h -1.057 l 2.584,5.914 h 0.956 z"
           style="fill:#23a2e8;fill-opacity:1;fill-rule:nonzero;stroke:none"
           id="path974" /></g><g
         id="g976"
         transform="translate(138.4874,66.2979)"><path
           d="m 0,0 c -0.213,0.166 -0.513,0.249 -0.9,0.249 h -1.507 v -1.98 h 1.515 c 0.371,0 0.665,0.089 0.884,0.269 C 0.21,-1.282 0.32,-1.04 0.32,-0.737 0.32,-0.411 0.213,-0.165 0,0 m 0.337,-4.692 -1.448,2.046 H -2.407 V -4.692 H -3.43 V 1.18 h 2.618 c 0.335,0 0.638,-0.043 0.91,-0.13 0.271,-0.087 0.5,-0.21 0.688,-0.369 0.187,-0.16 0.331,-0.356 0.432,-0.587 0.1,-0.233 0.151,-0.491 0.151,-0.777 0,-0.246 -0.036,-0.465 -0.105,-0.658 C 1.194,-1.534 1.097,-1.704 0.974,-1.853 0.851,-2.001 0.705,-2.127 0.534,-2.23 0.363,-2.334 0.174,-2.413 -0.032,-2.47 l 1.585,-2.222 z"
           style="fill:#23a2e8;fill-opacity:1;fill-rule:nonzero;stroke:none"
           id="path978" /></g><g
         id="g980"
         transform="translate(145.4684,66.5469)"><path
           d="m 0,0 h -3.322 v -1.51 h 2.945 V -2.441 H -3.322 V -4.01 H 0.042 V -4.941 H -4.346 V 0.931 H 0 Z"
           style="fill:#23a2e8;fill-opacity:1;fill-rule:nonzero;stroke:none"
           id="path982" /></g><g
         id="g984"
         transform="translate(149.2599,67.4775)"><path
           d="M 0,0 H 1.023 V -4.94 H 4.111 V -5.872 H 0 Z"
           style="fill:#23a2e8;fill-opacity:1;fill-rule:nonzero;stroke:none"
           id="path986" /></g><g
         id="g988"
         transform="translate(156.9947,66.2861)"><path
           d="M 0,0 -1.007,-2.349 H 1.015 Z M 3.079,-4.681 H 1.988 l -0.595,1.418 h -2.777 l -0.604,-1.418 h -1.057 l 2.584,5.914 h 0.956 z"
           style="fill:#23a2e8;fill-opacity:1;fill-rule:nonzero;stroke:none"
           id="path990" /></g><g
         id="g992"
         transform="translate(164.6383,62.7256)"><path
           d="m 0,0 c 0.201,0.137 0.301,0.34 0.301,0.608 0,0.251 -0.099,0.448 -0.297,0.587 -0.198,0.14 -0.501,0.21 -0.907,0.21 h -1.632 v -1.611 h 1.707 c 0.351,0 0.627,0.068 0.828,0.206 m -0.327,2.468 c 0.201,0.132 0.301,0.336 0.301,0.611 0,0.241 -0.088,0.429 -0.264,0.561 -0.175,0.131 -0.43,0.198 -0.765,0.198 h -1.48 V 2.27 h 1.405 c 0.335,0 0.602,0.065 0.803,0.198 M 0.478,4.349 C 0.824,4.08 0.998,3.713 0.998,3.248 0.998,3.068 0.974,2.909 0.927,2.769 0.879,2.629 0.818,2.507 0.744,2.403 0.668,2.3 0.58,2.208 0.477,2.13 0.375,2.052 0.271,1.984 0.165,1.929 0.337,1.867 0.495,1.796 0.636,1.715 0.778,1.634 0.9,1.537 1.003,1.426 1.106,1.314 1.186,1.182 1.241,1.028 1.296,0.874 1.325,0.697 1.325,0.496 1.325,0.233 1.273,0.002 1.169,-0.199 1.066,-0.4 0.92,-0.568 0.73,-0.706 0.54,-0.843 0.311,-0.945 0.043,-1.016 -0.225,-1.085 -0.521,-1.12 -0.845,-1.12 h -2.713 v 5.872 h 2.629 c 0.592,0 1.061,-0.134 1.407,-0.403"
           style="fill:#23a2e8;fill-opacity:1;fill-rule:nonzero;stroke:none"
           id="path994" /></g><g
         id="g996"
         transform="translate(168.0597,65.6406)"><path
           d="M 0,0 C 0.04,-0.084 0.111,-0.162 0.215,-0.235 0.318,-0.308 0.461,-0.375 0.644,-0.437 0.826,-0.498 1.057,-0.562 1.337,-0.629 1.646,-0.708 1.919,-0.794 2.158,-0.89 2.396,-0.984 2.593,-1.101 2.75,-1.237 2.907,-1.374 3.027,-1.534 3.108,-1.716 3.189,-1.897 3.23,-2.111 3.23,-2.357 3.23,-2.637 3.179,-2.886 3.076,-3.104 2.973,-3.322 2.831,-3.507 2.647,-3.657 2.464,-3.809 2.245,-3.924 1.988,-4.002 1.731,-4.08 1.449,-4.119 1.141,-4.119 c -0.453,0 -0.887,0.077 -1.3,0.23 -0.414,0.155 -0.797,0.391 -1.15,0.709 l 0.621,0.739 c 0.286,-0.247 0.573,-0.435 0.864,-0.567 0.291,-0.131 0.621,-0.197 0.99,-0.197 0.319,0 0.572,0.067 0.759,0.202 0.188,0.134 0.282,0.315 0.282,0.545 0,0.106 -0.019,0.201 -0.055,0.285 -0.037,0.084 -0.104,0.161 -0.202,0.231 -0.098,0.07 -0.233,0.135 -0.404,0.197 -0.171,0.061 -0.394,0.126 -0.669,0.193 -0.314,0.073 -0.592,0.154 -0.836,0.243 -0.244,0.089 -0.449,0.202 -0.614,0.336 -0.166,0.134 -0.292,0.296 -0.379,0.487 -0.087,0.189 -0.13,0.422 -0.13,0.696 0,0.257 0.05,0.49 0.149,0.7 0.1,0.21 0.238,0.391 0.412,0.541 0.175,0.152 0.385,0.268 0.631,0.349 0.245,0.081 0.514,0.121 0.805,0.121 0.43,0 0.817,-0.063 1.161,-0.189 C 2.42,1.606 2.743,1.423 3.045,1.183 L 2.492,0.402 C 2.223,0.599 1.958,0.748 1.695,0.852 1.432,0.955 1.166,1.007 0.898,1.007 0.596,1.007 0.361,0.938 0.193,0.801 0.025,0.664 -0.059,0.498 -0.059,0.302 -0.059,0.185 -0.039,0.084 0,0"
           style="fill:#23a2e8;fill-opacity:1;fill-rule:nonzero;stroke:none"
           id="path998" /></g><path
         d="m 176.105,61.605 h -1.023 v 5.872 h 1.023 z"
         style="fill:#23a2e8;fill-opacity:1;fill-rule:nonzero;stroke:none"
         id="path1000" /><g
         id="g1002"
         transform="translate(181.776,67.4775)"><path
           d="M 0,0 H 1.023 V -5.872 H 0.161 l -3.232,4.178 V -5.872 H -4.094 V 0 H -3.14 L 0,-4.06 Z"
           style="fill:#23a2e8;fill-opacity:1;fill-rule:nonzero;stroke:none"
           id="path1004" /></g><g
         id="g1006"
         transform="translate(188.9444,62.1133)"><path
           d="m 0,0 c -0.165,-0.126 -0.343,-0.235 -0.533,-0.327 -0.19,-0.093 -0.398,-0.162 -0.625,-0.21 -0.226,-0.048 -0.477,-0.071 -0.751,-0.071 -0.43,0 -0.827,0.078 -1.191,0.234 -0.363,0.157 -0.678,0.371 -0.943,0.643 -0.267,0.27 -0.475,0.59 -0.625,0.96 -0.152,0.369 -0.227,0.766 -0.227,1.191 0,0.42 0.074,0.813 0.222,1.183 0.148,0.369 0.357,0.692 0.625,0.969 0.269,0.277 0.588,0.494 0.957,0.655 0.369,0.159 0.777,0.238 1.224,0.238 0.269,0 0.513,-0.023 0.734,-0.067 C -0.912,5.354 -0.709,5.29 -0.524,5.209 -0.34,5.128 -0.169,5.032 -0.013,4.92 0.144,4.808 0.292,4.686 0.432,4.551 L -0.231,3.787 C -0.466,4.006 -0.715,4.182 -0.978,4.316 -1.24,4.45 -1.54,4.518 -1.875,4.518 -2.155,4.518 -2.414,4.463 -2.651,4.354 -2.889,4.245 -3.094,4.097 -3.268,3.909 -3.441,3.722 -3.575,3.502 -3.67,3.251 -3.766,2.999 -3.813,2.728 -3.813,2.437 c 0,-0.291 0.047,-0.564 0.143,-0.818 0.095,-0.255 0.229,-0.477 0.402,-0.667 0.174,-0.19 0.379,-0.34 0.617,-0.449 0.237,-0.109 0.496,-0.163 0.776,-0.163 0.358,0 0.666,0.068 0.923,0.205 0.257,0.137 0.512,0.323 0.763,0.558 L 0.474,0.432 C 0.323,0.27 0.165,0.126 0,0"
           style="fill:#23a2e8;fill-opacity:1;fill-rule:nonzero;stroke:none"
           id="path1008" /></g><path
         d="m 190.316,62.755 h 1.116 v -1.149 h -1.116 z"
         style="fill:#23a2e8;fill-opacity:1;fill-rule:nonzero;stroke:none"
         id="path1010" /></g></g></svg>
