<svg xmlns:xlink="http://www.w3.org/1999/xlink" width="157" height="44" viewBox="0 0 157 44" fill="none" xmlns="http://www.w3.org/2000/svg" class="fill-current duration-250 transition-all text-black-100"><g clip-path="url(#clip0)" fill="#231F20"><path d="M27.4356 0.25885C17.1862 0.388262 7.86851 6.18591 3.26145 15.3224C-1.34561 24.4589 -0.491492 35.4071 5.48733 43.7153L18.5062 22.3624L23.1909 30.4377L21.8967 24.433L27.4356 14.9859L36.365 30.4377L35.0967 24.4847L36.3391 22.3365L49.3579 43.7153C52.7226 39.0306 54.5085 33.4141 54.5085 27.6424C54.5862 12.6047 42.4732 0.336497 27.4356 0.25885Z" fill="#231F20"></path><path d="M72.6002 12.9672V27.7719H68.2002V6.28955H73.2731L82.5908 20.3178V6.28955H86.9908V27.7719H82.4614L72.6002 12.9672Z" fill="#231F20"></path><path d="M101.925 5.95294C108.111 5.95294 113.003 10.7671 113.003 16.9271C113.003 23.1906 107.981 28.0824 101.821 28.0824C95.6614 28.0824 90.7179 23.2165 90.7179 17.0306C90.692 10.8706 95.739 5.95294 101.925 5.95294ZM101.873 23.7859C105.574 23.7859 108.473 20.7059 108.473 17.0047C108.473 13.3035 105.574 10.2494 101.873 10.2494C98.172 10.2494 95.2473 13.3035 95.2473 17.0306C95.2473 20.7318 98.172 23.7859 101.873 23.7859Z" fill="#231F20"></path><path d="M128.454 27.7719L124.365 20.059H121.13V27.7719H116.678V6.28955H125.167C129.334 6.28955 132.777 8.54132 132.777 13.0966C132.777 16.2801 131.12 18.2731 128.739 19.2307L133.294 27.7719H128.454ZM121.13 15.9437H124.831C126.487 15.9437 128.273 15.1931 128.273 13.1743C128.273 11.1037 126.487 10.4825 124.805 10.4825H121.13V15.9437Z" fill="#231F20"></path><path d="M143.233 27.7719H136.737V6.28955H143.311C150.791 6.28955 155.45 10.2496 155.45 16.979C155.45 23.3719 150.843 27.7719 143.233 27.7719ZM143.44 10.4825H141.189V23.579H143.389C147.84 23.579 150.894 21.2237 150.894 17.0048C150.894 12.786 147.659 10.4825 143.44 10.4825Z" fill="#231F20"></path><path d="M68.2778 37.4516L69.3131 37.1669C69.4684 37.9692 70.012 38.4869 70.8402 38.4869C71.539 38.4869 72.0825 38.0986 72.0825 37.5292C72.0825 36.9598 71.6425 36.6492 71.0731 36.5198L70.219 36.3387C69.0802 36.1057 68.459 35.3551 68.459 34.4751C68.459 33.3363 69.4943 32.4045 70.7367 32.4045C72.2896 32.4045 72.9367 33.3363 73.0661 34.0869L72.0567 34.3975C71.9272 33.9057 71.4614 33.3622 70.7367 33.3622C70.0637 33.3622 69.5461 33.8281 69.5461 34.3716C69.5461 34.7598 69.8567 35.1739 70.4261 35.2775L71.3061 35.4328C72.5484 35.6916 73.1955 36.4163 73.1955 37.4257C73.1955 38.4351 72.3414 39.4445 70.8143 39.4445C69.2096 39.4704 68.3555 38.4092 68.2778 37.4516Z" fill="#231F20"></path><path d="M84.3766 33.4658H81.0377V35.3811H84.066V36.3646H81.0377V38.4093H84.4025V39.3928H79.9507V32.5081H84.3507V33.4658H84.3766Z" fill="#231F20"></path><path d="M90.666 35.9505C90.666 33.8799 92.2966 32.3787 94.186 32.3787C96.1272 32.3787 97.1366 33.6987 97.3696 34.6305L96.3084 34.9928C96.2048 34.5787 95.739 33.3881 94.1601 33.3881C92.9437 33.3881 91.8048 34.3717 91.8048 35.8987C91.8048 37.4258 92.9437 38.4352 94.1601 38.4352C95.5837 38.4352 96.179 37.2964 96.3084 36.8046L97.3696 37.167C97.1625 38.0211 96.1531 39.4446 94.1343 39.4446C92.4001 39.4705 90.666 38.1764 90.666 35.9505Z" fill="#231F20"></path><path d="M106.583 39.4706C104.772 39.4706 103.917 38.2801 103.917 36.753V32.4824H105.005V36.7012C105.005 37.7883 105.677 38.4354 106.609 38.4354C107.619 38.4354 108.214 37.7106 108.214 36.7271V32.4565H109.301V36.6754C109.275 38.3318 108.395 39.4706 106.583 39.4706Z" fill="#231F20"></path><path d="M117.506 39.367H116.419V32.4823H119.007C120.741 32.4823 121.362 33.5176 121.362 34.6047C121.362 35.4847 120.897 36.2094 119.991 36.5458L121.518 39.367H120.327L118.93 36.7529H117.506V39.367ZM120.25 34.6305C120.25 34.1129 120.017 33.4917 118.878 33.4917H117.506V35.7952H118.904C119.939 35.7952 120.25 35.1741 120.25 34.6305Z" fill="#231F20"></path><path d="M128.195 39.367V32.4823H129.282V39.367H128.195Z" fill="#231F20"></path><path d="M135.779 33.4917V32.4823H141.24V33.4917H139.04V39.367H137.953V33.4917H135.779Z" fill="#231F20"></path><path d="M147.038 32.4823H148.28L150.169 35.5623L152.059 32.4823H153.301L150.687 36.5976V39.367H149.6V36.6235L147.038 32.4823Z" fill="#231F20"></path></g><defs><clipPath id="clip0"><rect width="157" height="44" fill="white"></rect></clipPath></defs></svg>