<svg width="400" height="250" viewBox="0 0 440 400" fill="none" xmlns="http://www.w3.org/2000/svg">
<path fill-rule="evenodd" clip-rule="evenodd" d="M63.3175 368.829L33.3285 323.838V368.829H20V303.592H35.411L63.734 346.167V303.592H77.0625V368.829H63.3175ZM85.0026 346.667C85.0026 333.42 95.9152 323.338 109.41 323.338C122.822 323.338 133.568 333.17 133.568 346.417C133.568 359.831 122.655 369.829 109.244 369.829C95.7486 369.829 85.0026 360.081 85.0026 346.667ZM98.331 346.5C98.331 353.249 103.246 357.915 109.327 357.915C115.408 357.915 120.24 353.249 120.24 346.5C120.24 339.835 115.325 335.169 109.244 335.169C103.163 335.169 98.331 339.835 98.331 346.5ZM165.429 324.338V337.086C163.68 336.752 161.847 336.752 161.264 336.752C155.016 336.752 150.685 341.085 150.685 349.333V368.829H137.939V324.338H150.268V330.837H150.435C152.851 325.755 157.349 323.838 161.931 323.838C162.93 323.838 164.513 324.088 165.429 324.338ZM202.964 368.829V363.164H202.797C198.632 369.246 191.968 369.662 188.969 369.662C176.057 369.662 167.81 358.498 167.81 346.5C167.81 335.253 176.39 323.505 189.136 323.505C191.718 323.505 197.882 324.005 202.464 329.42H202.631V301.01H215.543V368.829H202.964ZM202.964 346.5C202.964 339.835 198.049 335.253 191.968 335.253C185.887 335.253 180.972 339.835 180.972 346.5C180.972 353.249 185.887 357.915 191.968 357.915C198.049 357.915 202.964 353.249 202.964 346.5Z" fill="#1C1C1C"/>
<path fill-rule="evenodd" clip-rule="evenodd" d="M278.415 322.464C278.415 337.637 267.717 344.916 253.337 344.916H242.551V369.122H228.346V300.451H253.863C267.63 300.451 278.415 307.906 278.415 322.464ZM264.122 322.815C264.122 316.15 258.51 313.87 252.635 313.87H242.551V331.673H252.723C258.335 331.673 264.122 329.217 264.122 322.815ZM298.934 369.999C290.779 369.999 283.413 364.737 283.413 356.054V355.703C283.413 344.477 294.9 341.32 304.02 341.32H308.58C311.122 341.32 312.262 340.005 312.262 338.075C312.262 335.093 309.807 332.287 304.897 332.287C300.688 332.287 297.531 334.743 296.479 338.689L284.466 335.97C286.044 325.972 295.689 321.236 305.51 321.236C317.173 321.236 325.679 327.463 325.679 340.092V369.122H313.052V363.333L312.876 363.246C309.369 368.245 304.02 369.999 298.934 369.999ZM302.88 360.001C308.93 360.001 312.175 355.703 312.175 350.967V349.915H304.02C301.214 349.915 297.18 351.581 297.18 355.265C297.18 358.597 299.986 360.001 302.88 360.001ZM354.615 370.174C340.848 370.174 335.675 361.316 334.886 356.317L346.811 353.16C347.425 356.58 350.056 359.562 354.615 359.562C358.649 359.562 360.227 357.282 360.227 355.528C360.227 352.546 357.684 351.669 352.774 350.967C343.917 349.74 335.85 346.758 335.85 336.146C335.85 327.639 344.444 321.149 354.352 321.149C366.541 321.149 371.89 328.954 372.854 334.216L361.017 337.198C360.315 334.041 358.123 331.673 354.177 331.673C350.845 331.673 348.828 333.427 348.828 335.532C348.828 338.338 351.108 339.128 356.106 339.654C365.138 340.706 373.643 343.864 373.643 354.651C373.643 362.632 367.418 370.174 354.615 370.174ZM400.476 370.174C386.709 370.174 381.535 361.316 380.746 356.317L392.672 353.16C393.285 356.58 395.916 359.562 400.476 359.562C404.509 359.562 406.088 357.282 406.088 355.528C406.088 352.546 403.545 351.669 398.634 350.967C389.778 349.74 381.711 346.758 381.711 336.146C381.711 327.639 390.304 321.149 400.213 321.149C412.401 321.149 417.75 328.954 418.715 334.216L406.877 337.198C406.175 334.041 403.983 331.673 400.037 331.673C396.705 331.673 394.688 333.427 394.688 335.532C394.688 338.338 396.968 339.128 401.966 339.654C410.998 340.706 419.504 343.864 419.504 354.651C419.504 362.632 413.278 370.174 400.476 370.174Z" fill="#43A5A1"/>
<path fill-rule="evenodd" clip-rule="evenodd" d="M107.504 250.607C90.869 227.567 81.0586 199.218 81.0586 168.564C81.0586 91.3744 143.265 28.8 219.999 28.8C296.734 28.8 358.94 91.3744 358.94 168.564C358.94 199.217 349.13 227.566 332.495 250.607L265.762 141.598L259.318 152.543L265.856 182.982L219.999 104.057L191.632 152.236L198.237 182.982L174.2 141.66L107.504 250.607Z" fill="#43A5A1"/>
<path d="M429.494 326.806C434.662 326.806 438.844 322.624 438.844 317.456C438.844 312.322 434.662 308.106 429.494 308.106C424.326 308.106 420.178 312.322 420.178 317.456C420.178 322.624 424.326 326.806 429.494 326.806ZM429.494 309.806C433.642 309.806 437.076 313.206 437.076 317.456C437.076 321.706 433.642 325.106 429.494 325.106C425.312 325.106 421.946 321.706 421.946 317.456C421.946 313.206 425.312 309.806 429.494 309.806ZM428.1 318.952H429.732L431.67 322.794H434.084L431.874 318.544C433.064 318.068 433.914 317.082 433.914 315.484C433.914 313.206 432.18 312.118 430.106 312.118H425.89V322.794H428.1V318.952ZM431.67 315.552C431.67 316.538 430.786 316.878 429.97 316.878H428.1V314.226H429.936C430.786 314.226 431.67 314.498 431.67 315.552Z" fill="#43A5A1"/>
</svg>
