<svg xmlns:xlink="http://www.w3.org/1999/xlink" xmlns="http://www.w3.org/2000/svg" width="134" height="32" viewBox="0 0 134 32" fill="none" class="inline-block" style="width: 134px; min-width: 134px; height: 32px;"><g clip-path="url(#clip0_250_9733)" fill="none"><path d="M54.2156 22.5391L47.9496 13.1164V22.5381H45.1644V8.87695H48.3842L54.3029 17.7925V8.87695H57.0881V22.5391H54.2156ZM58.7472 17.8972C58.7472 15.1235 61.0275 13.0118 63.8469 13.0118C66.6491 13.0118 68.8953 15.0712 68.8953 17.8448C68.8953 20.6537 66.615 22.7473 63.8127 22.7473C60.9924 22.7473 58.7472 20.706 58.7472 17.8982V17.8972ZM61.5324 17.863C61.5324 19.2754 62.5591 20.2523 63.8298 20.2523C65.1004 20.2523 66.1101 19.2765 66.1101 17.863C66.1101 16.4666 65.0834 15.4887 63.8117 15.4887C62.5421 15.4887 61.5324 16.4666 61.5324 17.863ZM75.5527 13.2211V15.8911C75.1874 15.8207 74.804 15.8207 74.6825 15.8207C73.3768 15.8207 72.4714 16.7281 72.4714 18.4565V22.5381H69.8087V13.2221H72.3851V14.5822H72.4192C72.9241 13.5178 73.8645 13.1164 74.8221 13.1164C75.0308 13.1164 75.361 13.1687 75.5527 13.2211ZM83.3955 22.5381V21.3519H83.3613C82.4901 22.6256 81.098 22.7131 80.4707 22.7131C77.7729 22.7131 76.0495 20.3751 76.0495 17.863C76.0495 15.5068 77.8431 13.047 80.5059 13.047C81.0458 13.047 82.3336 13.1516 83.2911 14.2855H83.3262V8.33569H86.0241V22.5391H83.3944L83.3955 22.5381ZM83.3955 17.863C83.3955 16.4666 82.3687 15.5068 81.097 15.5068C79.8274 15.5068 78.8006 16.4666 78.8006 17.863C78.8006 19.2754 79.8274 20.2523 81.098 20.2523C82.3687 20.2523 83.3965 19.2765 83.3965 17.863H83.3955ZM132.118 14.6788C132.362 14.6869 132.605 14.6458 132.833 14.5577C133.061 14.4696 133.269 14.3365 133.445 14.1663C133.621 13.996 133.76 13.7921 133.856 13.5666C133.951 13.3411 134 13.0987 134 12.8538C134 12.609 133.951 12.3666 133.856 12.1411C133.76 11.9156 133.621 11.7117 133.445 11.5414C133.269 11.3712 133.061 11.2381 132.833 11.15C132.605 11.0619 132.362 11.0208 132.118 11.0289C131.119 11.0289 130.304 11.8468 130.304 12.8538C130.304 13.8619 131.119 14.6788 132.118 14.6788ZM132.118 11.3689C132.933 11.3689 133.578 12.0369 133.578 12.8538C133.578 13.6708 132.933 14.3317 132.118 14.3317C131.309 14.3317 130.671 13.6708 130.671 12.8538C130.671 12.0369 131.309 11.3699 132.118 11.3699V11.3689ZM131.839 13.1466H132.145L132.525 13.8961H132.994L132.559 13.051C132.669 13.0014 132.762 12.9198 132.827 12.8168C132.891 12.7138 132.923 12.5939 132.919 12.4726C132.919 12.1386 132.715 11.8055 132.192 11.8055H131.418V13.8961H131.839V13.1466ZM132.491 12.4796C132.491 12.6023 132.416 12.7583 132.158 12.7583H131.839V12.1999H132.158C132.437 12.1999 132.491 12.3569 132.491 12.4796ZM99.1622 12.8287C99.1622 9.78038 96.9079 8.21899 94.0314 8.21899H88.6989V22.5994H91.6677V17.531H93.921C96.926 17.531 99.1622 16.0068 99.1622 12.8287ZM96.1742 12.9021C96.1742 14.2432 94.9658 14.7573 93.7925 14.7573H91.6677V11.0299H93.7745C95.002 11.0299 96.1742 11.5068 96.1742 12.9021ZM103.449 22.7835C104.512 22.7835 105.629 22.4163 106.363 21.369L106.399 21.3871V22.5994H109.037V16.5209C109.037 13.875 107.26 12.5722 104.823 12.5722C102.771 12.5722 100.755 13.5641 100.426 15.6577L102.936 16.2271C103.156 15.4002 103.815 14.8861 104.694 14.8861C105.721 14.8861 106.234 15.4736 106.234 16.0983C106.234 16.5018 105.996 16.7774 105.464 16.7774H104.512C102.606 16.7774 100.206 17.4384 100.206 19.7895V19.863C100.206 21.6819 101.745 22.7835 103.449 22.7835ZM104.273 20.6899C103.669 20.6899 103.083 20.3962 103.083 19.698C103.083 18.9263 103.926 18.5772 104.512 18.5772H106.216V18.7986C106.216 19.7895 105.538 20.6899 104.273 20.6899ZM115.084 22.8197C117.759 22.8197 119.06 21.2403 119.06 19.5702C119.06 17.3861 117.399 16.6949 115.583 16.4515L115.03 16.3841C114.239 16.2704 113.874 16.0802 113.874 15.5651C113.874 15.1245 114.296 14.7573 114.992 14.7573C115.816 14.7573 116.275 15.2533 116.421 15.9142L118.894 15.2905C118.694 14.1879 117.576 12.554 115.029 12.554C112.959 12.554 111.163 13.9122 111.163 15.6939C111.163 17.7684 112.632 18.4505 114.332 18.7412L114.699 18.7976C115.725 18.9445 116.257 19.1286 116.257 19.7533C116.257 20.1205 115.927 20.5984 115.084 20.5984C114.131 20.5984 113.581 19.9736 113.454 19.2573L110.961 19.9183C111.126 20.9646 112.207 22.8197 115.084 22.8197ZM124.667 22.8197C121.79 22.8197 120.709 20.9656 120.543 19.9183L123.036 19.2573C123.164 19.9736 123.714 20.5974 124.667 20.5974C125.51 20.5974 125.839 20.1205 125.839 19.7523C125.839 19.1678 125.372 18.9696 124.468 18.8267L123.914 18.7412C122.214 18.4505 120.745 17.7684 120.745 15.6939C120.745 13.9132 122.541 12.554 124.611 12.554C127.159 12.554 128.276 14.1879 128.478 15.2905L126.005 15.9142C125.858 15.2533 125.399 14.7573 124.575 14.7573C123.879 14.7573 123.457 15.1245 123.457 15.5651C123.457 16.0802 123.822 16.2704 124.612 16.3841L124.978 16.4283C126.866 16.6497 128.642 17.3106 128.642 19.5692C128.642 21.2403 127.341 22.8197 124.667 22.8197Z" fill="#ffffff"/><path d="M2.60558e-05 18.4356C-0.00642119 22.2177 1.18377 25.9045 3.39948 28.9659L11.9719 14.9828L15.0622 20.2867L14.2131 16.341L17.8594 10.1568L23.754 20.2877L22.9129 16.3802L23.742 14.9758L32.3194 28.9659C34.5347 25.9047 35.7249 22.2183 35.7188 18.4366C35.7188 8.53005 27.7226 0.498779 17.8594 0.498779C7.99631 0.497773 2.60558e-05 8.52904 2.60558e-05 18.4356Z" fill="#fafffd"/></g><defs fill="#ffffff"><clipPath id="clip0_250_9733" fill="#ffffff"><rect width="134" height="30" fill="#ffffff"/></clipPath></defs></svg>