<svg xmlns:xlink="http://www.w3.org/1999/xlink" xmlns="http://www.w3.org/2000/svg" width="143" height="32" viewBox="0 0 143 32" fill="none" class="w-auto h-[24px] sm:h-auto"> <title>NordVPN logo</title> <g fill="none" fill-rule="evenodd"> <path id="r-letter" class="fill-neutral-900" d="M139.14 10.846c0-.457.181-.913.491-1.235.31-.322.75-.51 1.189-.51.44 0 .879.188 1.189.51.31.322.491.778.491 1.235 0 .241-.052.456-.129.67a1.613 1.613 0 01-.362.565 1.535 1.535 0 01-.543.375c-.206.08-.413.135-.646.135-.232 0-.439-.054-.646-.135a1.535 1.535 0 01-.543-.375 1.613 1.613 0 01-.362-.564 1.557 1.557 0 01-.129-.671zm.31 0c0 .188.026.376.104.537.077.16.155.322.284.456.129.134.284.242.439.322.155.08.336.107.517.107.362 0 .724-.16.957-.429.258-.269.387-.617.387-1.02 0-.376-.155-.752-.387-1.02a1.331 1.331 0 00-.957-.43 1.12 1.12 0 00-.517.108c-.155.08-.31.187-.439.322a1.212 1.212 0 00-.284.456 1.67 1.67 0 00-.104.59zm1.112.993h-.388V9.852h.75c.387 0 .697.215.697.618a.55.55 0 01-.103.349c-.078.107-.155.188-.284.215l.387.805h-.439l-.362-.725h-.284v.725h.026zm.336-1.61h-.336v.482h.336c.155 0 .31-.053.31-.241s-.155-.242-.31-.242z" fill="#ffffff"/> <path id="letters" class="fill-neutral-900" d="M60.334 24.617l-6.875-10.71v10.71h-3.05V9.101h3.541l6.488 10.147V9.101h3.05v15.516h-3.154zm10.158-10.818c-3.102 0-5.583 2.389-5.583 5.557 0 3.194 2.456 5.503 5.557 5.503 3.102 0 5.583-2.39 5.583-5.584-.026-3.14-2.507-5.476-5.557-5.476zm-.026 8.215c-1.396 0-2.533-1.101-2.533-2.712 0-1.61 1.112-2.684 2.507-2.684 1.396 0 2.533 1.1 2.533 2.684s-1.111 2.712-2.507 2.712zm13.259-8v3.033a5.748 5.748 0 00-.956-.08c-1.421 0-2.43 1.02-2.43 3.006v4.645h-2.92V14.04h2.817v1.557h.026c.543-1.208 1.577-1.664 2.636-1.664.31-.027.569.027.828.08zm8.53-4.94v6.148h-.026c-1.06-1.29-2.456-1.396-3.05-1.396-2.92 0-4.885 2.791-4.885 5.476 0 2.846 1.887 5.503 4.86 5.503.697 0 2.222-.107 3.178-1.557h.026v1.343h2.895V9.074h-2.998zm-2.43 12.94c-1.396 0-2.533-1.101-2.533-2.712 0-1.61 1.137-2.684 2.533-2.684s2.533 1.1 2.533 2.684c-.026 1.584-1.163 2.711-2.533 2.711zm11.734 2.603L96.157 9.101h3.334l3.877 11.812L107.271 9.1h3.283l-5.428 15.516h-3.567zm15.818-15.543h-5.557v15.543h3.102v-5.476h2.352c3.127 0 5.453-1.638 5.453-5.074-.025-3.302-2.352-4.993-5.35-4.993zm-.258 7.06h-2.223v-4.027h2.197c1.292 0 2.507.51 2.507 2.014 0 1.476-1.266 2.013-2.481 2.013zm17.084 8.483l-6.875-10.71v10.71h-3.05V9.101h3.541l6.488 10.147V9.101h3.05v15.516h-3.154z" fill="#ffffff"/> <path id="mountain" class="fill-blue-600" d="M4.196 32C1.792 28.564.5 24.403.5 20.161.5 9.021 9.184 0 19.885 0c10.7 0 19.385 9.02 19.385 20.161 0 4.242-1.293 8.403-3.697 11.839L26.27 16.268l-.905 1.584.905 4.403-6.384-11.382-3.955 6.953.93 4.429-3.36-5.96L4.197 32z" fill="#ffffff"/> </g> </svg>