<svg xmlns:xlink="http://www.w3.org/1999/xlink" xmlns="http://www.w3.org/2000/svg" width="291" height="42" viewBox="0 0 291 42" fill="none"> <g clip-path="url(#clip0_322_696)" fill="none"> <path d="M0.622085 41.4521C0.248834 41.4521 0 41.211 0 40.8494V1.13953C0 0.77793 0.248834 0.536865 0.622085 0.536865H10.5981C18.3345 0.536865 23.0737 4.08709 23.0737 13.4119C23.0737 22.7367 18.1423 26.2869 10.5981 26.2869H8.53953C8.2907 26.2869 8.16628 26.4075 8.16628 26.6485V40.8494C8.16628 41.211 7.91745 41.4521 7.54419 41.4521H0.622085ZM14.9074 13.4229C14.9074 8.78784 13.5388 7.46199 10.3492 7.46199H8.53953C8.2907 7.46199 8.16628 7.58252 8.16628 7.82359V19.0112C8.16628 19.2522 8.2907 19.3728 8.53953 19.3728H10.3492C13.5275 19.3728 14.9074 18.0469 14.9074 13.4119" fill="#302526"></path> <path d="M43.7604 41.4521C43.3871 41.4521 43.1948 41.3315 43.0704 40.9699L38.2634 25.4432H35.8882C35.6393 25.4432 35.5149 25.5637 35.5149 25.8048V40.8494C35.5149 41.211 35.2661 41.4521 34.8928 41.4521H27.9707C27.5975 41.4521 27.3486 41.211 27.3486 40.8494V1.13953C27.3486 0.77793 27.5975 0.536865 27.9707 0.536865H38.0824C45.6266 0.536865 50.5015 3.96655 50.5015 13.0503C50.5015 18.2222 48.6918 21.5971 45.7623 23.5147L51.5647 40.8385C51.6891 41.1343 51.5647 41.4411 51.248 41.4411H43.7604V41.4521ZM42.2674 13.0503C42.2674 8.77689 40.8988 7.45103 37.7092 7.45103H35.8995C35.6506 7.45103 35.5262 7.57156 35.5262 7.81263V18.277C35.5262 18.5181 35.6506 18.6386 35.8995 18.6386H37.7092C40.8875 18.6386 42.2674 17.3785 42.2674 13.0393" fill="#302526"></path> <path d="M55.8065 35.0749C55.1165 33.2121 54.9355 31.5247 54.9355 20.9945C54.9355 10.4644 55.1278 8.77694 55.8065 6.91417C57.3673 2.41064 61.1112 0 66.6534 0C72.1956 0 75.9507 2.41064 77.5116 6.91417C78.2015 8.77694 78.3825 10.4644 78.3825 20.9945C78.3825 31.5247 78.1902 33.2121 77.5116 35.0749C75.9507 39.5894 72.2069 42 66.6534 42C61.0998 42 57.356 39.5894 55.7952 35.0749M69.6394 32.9053C69.9448 31.941 70.0805 30.922 70.0805 20.9945C70.0805 11.067 69.9561 10.048 69.6394 9.08375C69.2661 7.94417 68.2029 7.10044 66.6421 7.10044C65.0812 7.10044 64.018 7.94417 63.6447 9.08375C63.328 10.048 63.2036 11.067 63.2036 20.9945C63.2036 30.922 63.328 31.941 63.6447 32.9053C64.018 34.0449 65.0812 34.8886 66.6421 34.8886C68.2029 34.8886 69.2661 34.0449 69.6394 32.9053Z" fill="#302526"></path> <path d="M83.5068 1.13953C83.5068 0.77793 83.7557 0.536865 84.1289 0.536865H90.8701C91.4356 0.536865 91.741 0.712185 91.8654 1.13953L98.3577 22.6162H98.6065L104.839 1.13953C104.963 0.723142 105.28 0.536865 105.834 0.536865H112.507C112.881 0.536865 113.129 0.77793 113.129 1.13953V40.8494C113.129 41.211 112.881 41.4521 112.507 41.4521H106.456C106.083 41.4521 105.834 41.211 105.834 40.8494V17.2032H105.461L100.846 33.5627C100.722 33.9243 100.473 34.1654 100.032 34.1654H96.6046C96.1634 34.1654 95.9146 33.9243 95.7902 33.5627L91.1754 17.2032H90.8022V40.8494C90.8022 41.211 90.5534 41.4521 90.1801 41.4521H84.1289C83.7557 41.4521 83.5068 41.211 83.5068 40.8494V1.13953Z" fill="#302526"></path> <path d="M118.931 35.0749C118.242 33.2121 118.061 31.5247 118.061 20.9945C118.061 10.4644 118.253 8.77694 118.931 6.91417C120.492 2.41064 124.236 0 129.79 0C135.343 0 139.087 2.41064 140.648 6.91417C141.338 8.77694 141.519 10.4644 141.519 20.9945C141.519 31.5247 141.327 33.2121 140.648 35.0749C139.087 39.5894 135.343 42 129.79 42C124.236 42 120.492 39.5894 118.931 35.0749ZM132.776 32.9053C133.092 31.941 133.217 30.922 133.217 20.9945C133.217 11.067 133.092 10.048 132.776 9.08375C132.402 7.94417 131.339 7.10044 129.778 7.10044C128.217 7.10044 127.154 7.94417 126.781 9.08375C126.464 10.048 126.34 11.067 126.34 20.9945C126.34 30.922 126.464 31.941 126.781 32.9053C127.154 34.0449 128.217 34.8886 129.778 34.8886C131.339 34.8886 132.402 34.0449 132.776 32.9053Z" fill="#EC2027"></path> <path d="M157.059 42C149.391 42 145.704 38.0882 145.579 31.0535C145.579 30.6919 145.704 30.4508 146.077 30.396L152.75 29.377C153.191 29.3112 153.44 29.4975 153.44 29.8591C153.564 33.6504 154.684 35.1516 157.116 35.1516C159.423 35.1516 160.487 34.012 160.487 30.2755C160.487 26.539 159.74 25.3994 156.562 24.1941L154.006 23.2298C148.022 21.0055 145.964 17.9374 145.964 11.3739C145.964 3.97756 149.64 0 157.195 0C164.751 0 168.11 3.72554 168.427 10.1685C168.427 10.5301 168.246 10.7712 167.861 10.826L161.493 11.7902C161.12 11.856 160.803 11.6697 160.803 11.3081C160.747 8.36055 159.683 6.85938 157.433 6.85938C155.182 6.85938 154.186 8.18523 154.186 10.9465C154.186 14.0146 154.876 14.9789 158.179 16.239L160.735 17.2032C166.538 19.3728 168.777 22.3752 168.777 29.3003C168.777 37.6608 165.475 42 157.048 42" fill="#302526"></path> <path d="M179.681 1.13953C179.805 0.77793 179.998 0.536865 180.371 0.536865H187.734C188.107 0.536865 188.356 0.77793 188.424 1.13953L197.529 40.8494C197.586 41.211 197.405 41.4521 197.031 41.4521H190.109C189.668 41.4521 189.487 41.211 189.419 40.8494L188.051 33.4531H180.009L178.572 40.8494C178.505 41.211 178.324 41.4521 177.882 41.4521H170.96C170.587 41.4521 170.395 41.211 170.463 40.8494L179.681 1.13953ZM186.852 27.1964L184.171 12.9955H183.979L181.174 27.1964H186.852Z" fill="#302526"></path> <path d="M201.917 41.4521C201.544 41.4521 201.295 41.211 201.295 40.8494V1.13953C201.295 0.77793 201.544 0.536865 201.917 0.536865H211.904C219.641 0.536865 224.38 4.08709 224.38 13.4119C224.38 22.7367 219.448 26.2869 211.904 26.2869H209.846C209.597 26.2869 209.473 26.4075 209.473 26.6485V40.8494C209.473 41.211 209.224 41.4521 208.85 41.4521H201.928H201.917ZM216.202 13.4119C216.202 8.77689 214.834 7.45103 211.644 7.45103H209.834C209.586 7.45103 209.461 7.57156 209.461 7.81263V19.0002C209.461 19.2413 209.586 19.3618 209.834 19.3618H211.644C214.822 19.3618 216.202 18.036 216.202 13.4009" fill="#302526"></path> <path d="M229.549 0.536865H236.471C236.81 0.536865 237.093 0.810802 237.093 1.13953V40.8494C237.093 41.1781 236.81 41.4521 236.471 41.4521H229.549C229.21 41.4521 228.927 41.1781 228.927 40.8494V1.13953C228.927 0.810802 229.21 0.536865 229.549 0.536865Z" fill="#302526"></path> <path d="M242.839 1.13953C242.839 0.77793 243.088 0.536865 243.461 0.536865H261.988C262.361 0.536865 262.61 0.77793 262.61 1.13953V7.03465C262.61 7.39624 262.361 7.63731 261.988 7.63731H251.378C251.13 7.63731 251.005 7.75784 251.005 7.99891V16.9073C251.005 17.1484 251.13 17.2689 251.378 17.2689H260.551C260.925 17.2689 261.173 17.51 261.173 17.8716V23.7667C261.173 24.1283 260.925 24.3694 260.551 24.3694H251.378C251.13 24.3694 251.005 24.4899 251.005 24.731V34.001C251.005 34.2421 251.13 34.3626 251.378 34.3626H261.988C262.361 34.3626 262.61 34.6036 262.61 34.9652V40.8604C262.61 41.222 262.361 41.463 261.988 41.463H243.461C243.088 41.463 242.839 41.222 242.839 40.8604V1.13953Z" fill="#302526"></path> <path d="M267.169 1.13953C267.169 0.77793 267.417 0.536865 267.791 0.536865H275.584C276.081 0.536865 276.33 0.712185 276.455 1.13953L283.501 26.8348H283.818V1.13953C283.818 0.77793 284.067 0.536865 284.44 0.536865H290.367C290.74 0.536865 290.989 0.77793 290.989 1.13953V40.8494C290.989 41.211 290.74 41.4521 290.367 41.4521H282.879C282.381 41.4521 282.133 41.2768 282.008 40.8494L274.645 15.1541H274.328V40.8494C274.328 41.211 274.079 41.4521 273.706 41.4521H267.779C267.406 41.4521 267.157 41.211 267.157 40.8494V1.13953H267.169Z" fill="#302526"></path> </g> <defs> <clipPath id="clip0_322_696"> <rect width="291" height="42" fill="white"></rect> </clipPath> </defs> </svg>