<svg width="1738" height="1067" viewBox="0 0 1738 1067" fill="none" xmlns="http://www.w3.org/2000/svg">
<path d="M296.409 742.404C310.758 742.799 325.042 746.301 338.227 752.908L386.03 776.865C421.375 794.578 463.01 794.55 498.332 776.791L545.516 753.067C573.598 738.947 606.681 738.932 634.777 753.025L664.613 767.992C711.036 791.279 765.686 791.385 812.198 768.28L843.576 752.692C871.59 738.776 904.499 738.848 932.451 752.887L962.233 767.845C1008.8 791.233 1063.65 791.285 1110.26 767.984L1140.51 752.864C1151.97 747.137 1164.25 743.753 1176.68 742.713L1207.27 678.103C1174.74 673.674 1141.2 678.982 1111.1 694.031L1080.85 709.151C1052.79 723.177 1019.78 723.146 991.754 709.068L961.972 694.11C915.535 670.787 860.852 670.667 814.314 693.785L782.936 709.373C754.938 723.281 722.049 723.217 694.105 709.2L664.268 694.233C617.595 670.82 562.621 670.846 515.969 694.302L468.785 718.026C452.026 726.453 432.27 726.466 415.499 718.061L367.697 694.105C343.261 681.859 316.55 676.035 289.95 676.634L296.409 742.404Z" fill="white"/>
<path d="M1217.12 779.33V776.084C1230.1 753.832 1266.29 673.574 1279.73 640.194L1282.98 632.313L1202.78 461.245C1185.62 424.157 1179.13 410.712 1168.47 399.122V396.341H1290.4V399.122C1287.15 400.977 1284.83 407.467 1284.83 413.03C1284.83 423.693 1289.93 434.819 1291.79 440.383L1334.9 546.547H1336.76L1372.45 452.436C1377.55 438.992 1381.73 423.229 1381.73 412.567C1381.73 405.149 1378.02 400.513 1376.16 399.122V396.341H1462.39V399.122C1453.59 412.567 1437.36 450.582 1424.38 481.643L1302.42 779.33H1217.12Z" fill="white"/>
<path d="M1049.05 619.455V616.674C1057.86 601.375 1060.64 591.639 1060.64 571.241V362.512C1060.64 346.398 1056.57 331.176 1050.44 323.619V320.788C1074.67 319.032 1135.77 293.721 1153.72 277.142L1157.36 278.93C1153.06 292.032 1149.65 333.077 1149.65 355.703C1149.65 424.555 1149.65 496.799 1149.65 565.678C1149.65 583.758 1153.36 600.911 1161.24 617.137V619.455H1049.05Z" fill="white"/>
<path d="M912.047 619.329V616.547C920.855 601.249 923.637 591.513 923.637 571.115V467.268C923.637 451.506 920.392 433.843 913.438 425.035V422.253C935.963 420.748 995.454 398.485 1010.33 384.747L1012.65 386.138V565.551C1012.65 583.632 1016.36 600.785 1024.24 617.011V619.329H912.047Z" fill="white"/>
<path d="M1012.63 349.17C998.314 362.051 945.61 384.998 920.863 387.992V315.624C942.998 310.152 996.865 287.403 1012.63 276.802V349.17Z" fill="white"/>
<path d="M613.191 557.21C613.191 514.559 647.498 502.505 696.639 496.015C733.264 490.915 788.432 485.352 788.432 466.808C788.432 450.582 765.716 443.628 734.654 443.628C695.248 443.628 661.869 454.754 641.471 464.954V403.295C673.923 393.095 707.302 387.996 755.053 387.996C814.394 387.996 877.443 400.977 877.443 477.471V559.992C877.443 579.463 878.834 598.007 888.57 617.015V619.333H788.432V578.999C775.451 600.325 747.635 625.359 700.812 625.359C649.816 625.359 613.191 598.471 613.191 557.21ZM703.13 547.474C703.13 568.336 716.574 575.754 735.582 575.754C755.053 575.754 776.842 568.336 788.432 557.674V504.823C777.306 514.559 751.344 519.658 731.409 522.44C711.938 525.685 703.13 533.566 703.13 547.474Z" fill="white"/>
<path d="M429.653 624.89C362.895 624.89 321.87 613.277 282.464 599.833L275.738 528.461L278.056 527.534C315.608 549.786 375.876 561.84 421.772 561.84C471.378 561.84 491.312 549.786 491.312 531.706C491.312 515.48 468.596 511.308 450.979 508.526L379.121 496.472C329.516 488.128 275.738 469.584 275.738 406.997C275.738 332.358 353.623 299.442 439.389 299.442C491.776 299.442 544.163 307.323 576.615 323.549L551.117 385.672C515.883 368.055 471.841 359.71 437.071 359.71C393.029 359.71 375.876 371.3 375.876 386.135C375.876 403.289 396.274 406.997 413.427 409.779L478.795 420.905C546.017 431.568 593.768 453.821 593.768 511.308C593.768 592.438 513.102 624.89 429.653 624.89Z" fill="white"/>
</svg>
