<svg version="1.1" id="transoft-logo" xmlns="http://www.w3.org/2000/svg" xmlns:xlink="http://www.w3.org/1999/xlink" x="0px" y="0px"
	 viewBox="0 0 675 392" style="enable-background:new 0 0 675 392;" xml:space="preserve">
<style type="text/css">
	.st0{fill:#3C413F;}
	.st1{fill:url(#gradient1);}
</style>
<g class="logo-icon">
	<linearGradient id="gradient1" gradientUnits="userSpaceOnUse" x1="298.6954" y1="345.45" x2="556.2954" y2="345.45" gradientTransform="matrix(1 0 0 -1 0 391)">
	<stop  offset="0" style="stop-color:#FDB813"/>
		<stop  offset="0.6872" style="stop-color:#F6931E"/>
		<stop  offset="0.7374" style="stop-color:#F6911E"/>
	</linearGradient>
		<path class="st1" d="M222.9,50.4c5.7,4,12.9,7.2,21.8,8.7c13.3,2.4,26.3,3.5,39.2,4c29,1.2,57.9-0.4,89.6,2.7c20.3,2,36,4.5,48,7
		c27.1,5.7,35.5,11.5,35.5,11.5s-1-1.6-4-4.4c-4-3.7-11.4-9.4-24.4-15.9c-8.5-4.2-19.4-8.8-33.3-13.3c-11.7-3.8-24-7.4-36.5-10.8
		c-48.5-13.1-99.9-23-130.8-28.4c-17.6-3.1-28.6-4.7-28.6-4.7s0.4,9.3,5,20.1C207.8,34.9,213.5,43.8,222.9,50.4z"/>
		<linearGradient id="gradient2" gradientUnits="userSpaceOnUse" x1="287.9398" y1="211.7254" x2="413.627" y2="330.9153" gradientTransform="matrix(1 0 0 -1 0 391)">
		<stop  offset="0.2285" style="stop-color:#FDB813"/>
			<stop  offset="0.9302" style="stop-color:#F6911E"/>
	</linearGradient>
		<path style="fill:url(#gradient2);" d="M257.9,183.9c0,0,31.1,0,58.5-5.5
		c13.7-2.8,26.5-6.9,33.8-13.2c4.2-3.6,9.5-11.6,15.1-20.9c9.4-15.7,19.8-35,27.6-43.3c4-4.3,9.3-7.5,14.5-9.9
		c11.7-5.3,23.7-6.7,23.7-6.7s-30.5-3.4-59.5-0.6c-15,1.5-29.6,4.6-39.4,10.7c-9.5,6-20.7,17.1-30.3,27.8c-7,7.9-13.2,15.5-17.1,20.6
		C275,155.8,266.2,169.8,257.9,183.9z"/>
</g>
<g class="logo-text-transoft">
	<path class="st0" d="M324.3,228.1h-5.8c-1.5,0-3.1,0.4-3.1,3v66.1l-38.1-64.1c-1.9-3.2-3.2-5.1-7-5.1h-2.7c-4.5,0-6.6,2.2-6.6,6.8
	v78.3c0,2,1.1,3,3.1,3h5.8c1.5,0,3.1-0.4,3.1-3v-65.8l38,63.6c2,3.3,3.1,5.2,7.2,5.2h2.8c6.5,0,6.5-5.1,6.5-6.8V231
	C327.4,229.1,326.3,228.1,324.3,228.1z"/>
		<path class="st0" d="M377.1,265.5c-14-5.2-19.7-7.6-19.7-15.6c0-7.3,5.9-11.9,15.4-11.9c6.5,0,12.6,1.4,20.3,4.5
	c0.3,0.1,0.6,0.2,1,0.2c0.6,0,1.5-0.2,2.2-1.4l0.1-0.1l2.3-5.8c0.3-0.7,0.4-1.5,0.1-2.1c-0.3-0.7-0.8-1.2-1.6-1.5
	c-7.3-3.5-15-5.1-24.2-5.1c-17.3,0-28,9.1-28,23.8c0,13.9,9.3,19.6,26.4,25.2c14.7,4.9,19.9,9.4,19.9,17.1c0,12.4-13.8,13.3-18,13.3
	c-6.4,0-16.7-1.8-25.3-5.9c-0.5-0.2-1-0.3-1.4-0.3c-0.5,0-1.7,0.2-2.3,1.6l-2.4,5.3c-0.5,0.9-0.5,1.7-0.3,2.5
	c0.2,0.5,0.6,1.1,1.5,1.5c11.9,6.2,26.1,6.7,30.1,6.7c19.1,0,30.6-9.4,30.6-25.1C403.7,276,390.5,270.1,377.1,265.5z"/>
		<path class="st0" d="M451.7,226.9c-22.7,0-36.3,17-36.3,45.4c0,29.6,12.5,45.2,36.1,45.2c12.2,0,21.5-4,27.9-12
	c5.9-7.3,8.6-18,8.6-33.6C488,242.5,475.4,226.9,451.7,226.9z M475.6,272.3c0,22.9-7.8,34-24,34c-16.4,0-24-10.9-24-34.4
	c0-21.5,8.9-33.9,24.4-33.9C467.8,238.1,475.6,249.3,475.6,272.3z"/>
		<path class="st0" d="M553.5,268.5v4c0,1.5-0.3,3.6-3.2,3.6h-26.5V265h26.5C553.1,265.1,553.5,266.7,553.5,268.5z M555.2,228.1h-29.9
	c-13.9,0-21.2,7.5-21.2,21.6v63.1c0,2.2,1.2,3.3,3.6,3.3h5.4c1.6,0,3.5-0.4,3.5-3.3v-64.5c0-6.5,2.4-8.9,8.9-8.9h29.8
	c3,0,3.4-1.9,3.4-3.5v-4.3C558.5,229.3,557.4,228.1,555.2,228.1z"/>
		<path class="st0" d="M218.8,233.2c-1.3-3.8-2.5-5.1-6.9-5.1h-3.2c-4,0.2-5.2,1.3-6.6,5.1L174,312.4c-0.4,0.9-0.3,1.9,0.2,2.7
	c0.5,0.7,1.4,1.1,2.4,1.1h6.9c1.7,0,3-0.9,3.5-2.5c0.5-1.3,6.1-17.8,6.1-17.8h26.5l-3.7-11.2h-19.3l13.6-41.3l22.8,69.2l0.4,1.1
	c0.8,2.5,2.4,2.5,3.8,2.5h6.8c1,0,1.9-0.4,2.4-1.1c0.5-0.8,0.6-1.8,0.2-2.8L218.8,233.2z"/>
		<path class="st0" d="M155.5,290.1c-0.7-2.2-1.4-4.2-2-5.8c-4.3-11-14.7-16.4-31.8-16.4h-12.2h-0.3v-28.3h21.1
	c9.6,0,15.3,5.2,15.3,13.9c0,4.5-1.3,8-3.8,10.4l-0.1,0.1l0.3,0.1l0.5,0.2c1.6,0.5,3.9,1.5,5.9,2.8c1.9,1.2,3.5,2.7,3.5,2.6
	c4-4.3,6.1-10.2,6.1-16.6c0-15-10.7-25-26.6-25h-27.6c-4.8,0-7.1,2.3-7.1,7.1v78c0,2.6,1.6,3,3.1,3h6.2c1.5,0,3.1-0.4,3.1-3V279
	h17.7c8.9,0,13.4,3.3,15.8,11.4l6.6,23.5c0.4,1.6,1.5,2.4,3.3,2.4h6.7c1.4,0,2.1-0.6,2.5-1.2c0.5-0.7,0.5-1.6,0.2-2.5L155.5,290.1z"
		/>
		<path class="st0" d="M639.4,231.7v4.3c0,1.6-0.4,3.5-3.3,3.5h-14.8c-6.5,0-10.7,4.1-10.7,10.4v63.3c0,2.6-1.6,3-3.1,3h-6.2
	c-1.6,0-3.1-0.4-3.1-3v-62c0-14,8.9-23.1,22.7-23.1H636C638.3,228.1,639.4,229.3,639.4,231.7z M592.8,239.4c0,0,1-3.1,4.5-6.9
	c2.7-2.9,5.7-4.4,5.7-4.4h-31c-2.9,0-2.9,2.1-2.9,3.1v5.2c0,1.8,0.5,3,2.9,3L592.8,239.4L592.8,239.4z"/>
		<path class="st0" d="M78.2,231.7v4.3c0,1.6-0.4,3.5-3.4,3.5H60.1c-6.5,0-10.7,4.1-10.7,10.4v63.3c0,2.6-1.6,3-3.1,3h-6.2
	c-1.5,0-3.1-0.4-3.1-3v-62c0-14,8.9-23.1,22.7-23.1h15.1C77.1,228.1,78.2,229.3,78.2,231.7z M31.6,239.4c0,0,1-3.1,4.5-6.9
	c2.7-2.9,5.7-4.4,5.7-4.4h-31c-2.9,0-2.9,2.1-2.9,3.1v5.2c0,1.8,0.5,3,2.9,3L31.6,239.4L31.6,239.4z"/>
</g>
<g class="logo-text-solution">
	<path class="st0" d="M316.4,355.5c-0.7,0-0.8-0.2-0.8-0.8V352c0-0.6,0.1-0.9,0.8-0.9H340c0.7,0,0.8,0.3,0.8,0.9v2.7
		c0,0.6,0,0.8-0.8,0.8h-9.4v28.3c0,0.9-0.3,1-1.1,1h-2.9c-0.7,0-1.1-0.1-1.1-1v-28.3H316.4z"/>
	<path class="st0" d="M162.6,385.3c-4,0-8.6-0.5-12.4-2.4c-0.4-0.2-0.5-0.5-0.2-1l1.3-2.9c0.2-0.4,0.5-0.5,0.9-0.3
		c3.5,1.5,6.7,2.3,9.6,2.3c5.4,0,7.5-2,7.5-5c0-3.1-2.6-4.5-7.4-6.4c-7.1-2.8-10.9-5.1-10.9-10c0-5.3,3.6-8.8,10.5-8.8
		c3.3,0,7.5,0.7,10.4,1.9c0.4,0.2,0.5,0.5,0.3,0.8l-1.1,3.1c-0.2,0.5-0.3,0.5-0.7,0.4c-3.3-1.2-6.5-1.7-9.2-1.7
		c-3.7,0-5.3,1.8-5.3,3.9c0,2.8,2.7,4,8.5,6.5c4.8,2.1,9.9,4.2,9.9,10.2C174.3,382.4,169,385.3,162.6,385.3z"/>
	<path class="st0" d="M205.1,385.3c-9.4,0-14.3-5.8-14.3-17.3c0-11.2,6.2-17.4,14.5-17.4c9.4,0,14.5,6.5,14.5,17.2
		C219.7,379.1,214.7,385.3,205.1,385.3z M205.4,355.1c-6.5,0-9.6,5.8-9.6,12.7c0,7.8,2.2,13,9.4,13c7.3,0,9.5-6.2,9.5-12.8
		C214.7,361.3,213.1,355.1,205.4,355.1z"/>
	<path class="st0" d="M237.8,351.2h2.7c0.8,0,1.1,0.1,1.1,1v24.5c0,2.5,1.3,3.7,3.7,3.7H258c0.7,0,0.8,0.3,0.8,0.9v2.7
		c0,0.6-0.1,0.9-0.8,0.9h-13.1c-6.3,0-8.2-4-8.2-8.5v-24.2C236.7,351.3,237.1,351.2,237.8,351.2z"/>
	<path class="st0" d="M358.9,351.2h2.8c0.8,0,1.1,0.1,1.1,1v31.6c0,0.9-0.3,1-1.1,1h-2.8c-0.7,0-1.1-0.1-1.1-1v-31.6
		C357.8,351.2,358.2,351.2,358.9,351.2z"/>
	<path class="st0" d="M396.1,385.3c-9.4,0-14.3-5.8-14.3-17.3c0-11.2,6.2-17.4,14.5-17.4c9.4,0,14.5,6.5,14.5,17.2
		C410.6,379.1,405.7,385.3,396.1,385.3z M396.3,355.1c-6.5,0-9.6,5.8-9.6,12.7c0,7.8,2.2,13,9.4,13c7.3,0,9.5-6.2,9.5-12.8
		C405.6,361.3,404,355.1,396.3,355.1z"/>
	<path class="st0" d="M450.6,351.2h2.7c0.8,0,1.1,0.1,1.1,1v30c0,1.8-0.6,2.7-2.6,2.7h-1.4c-1.5,0-2-0.6-2.9-2.1l-10.6-17.6
		l-3.9-6.8h-0.1v25.5c0,0.9-0.3,1-1.1,1H429c-0.7,0-1.1-0.1-1.1-1v-30c0-1.8,0.6-2.6,2.6-2.6h1.4c1.6,0,2,0.6,2.9,2.1l10.4,17.4
		l4.1,7h0.2v-25.5C449.5,351.2,449.9,351.2,450.6,351.2z"/>
	<path class="st0" d="M485.8,385.3c-4,0-8.6-0.5-12.4-2.4c-0.4-0.2-0.5-0.5-0.2-1l1.3-2.9c0.2-0.4,0.5-0.5,0.9-0.3
		c3.5,1.5,6.7,2.3,9.6,2.3c5.4,0,7.5-2,7.5-5c0-3.1-2.6-4.5-7.4-6.4c-7.1-2.8-10.9-5.1-10.9-10c0-5.3,3.6-8.8,10.5-8.8
		c3.3,0,7.5,0.7,10.4,1.9c0.4,0.2,0.5,0.5,0.3,0.8l-1.1,3.1c-0.2,0.5-0.3,0.5-0.7,0.4c-3.3-1.2-6.5-1.7-9.2-1.7
		c-3.6,0-5.3,1.8-5.3,3.9c0,2.8,2.7,4,8.5,6.5c4.9,2.1,9.9,4.2,9.9,10.2C497.6,382.4,492.2,385.3,485.8,385.3z"/>
	<path class="st0" d="M300.2,351.2h-2.8c-0.7,0-1.1,0.1-1.1,1v16v0.6c0,6.6-2.2,12.1-9.5,12.1c-7.2,0-9.3-4.5-9.3-12.3v-0.4v-16
		c0-0.9-0.4-1-1.1-1h-2.8c-0.8,0-1.1,0.1-1.1,1v16.7v0.1c0.1,11.3,5,16.4,14.3,16.4c9.5,0,14.5-5.3,14.6-16.3V369v-16.7
		C301.3,351.2,301,351.2,300.2,351.2z"/>
</g>
</svg>
