<svg width="28" height="28" viewBox="0 0 28 28" fill="none" xmlns="http://www.w3.org/2000/svg">
<path d="M3.5 0.5C1.835 0.5 0.5 1.835 0.5 3.5V24.5C0.5 25.2956 0.81607 26.0587 1.37868 26.6213C1.94129 27.1839 2.70435 27.5 3.5 27.5H24.5C25.2956 27.5 26.0587 27.1839 26.6213 26.6213C27.1839 26.0587 27.5 25.2956 27.5 24.5V14H24.5V24.5H3.5V3.5H14V0.5H3.5ZM22.67 2C22.4001 2.00228 22.1417 2.10993 21.95 2.3L20.12 4.115L23.87 7.865L25.7 6.05C26.09 5.66 26.09 5 25.7 4.625L23.375 2.3C23.18 2.105 22.925 2 22.67 2ZM19.055 5.18L8 16.25V20H11.75L22.805 8.93L19.055 5.18Z" fill="#BB3CFF"/>
</svg>
