<svg width="37" height="36" viewBox="0 0 37 36" fill="none" xmlns="http://www.w3.org/2000/svg">
<path d="M7.68164 4.5C6.01664 4.5 4.68164 5.835 4.68164 7.5V28.5C4.68164 29.2956 4.99771 30.0587 5.56032 30.6213C6.12293 31.1839 6.88599 31.5 7.68164 31.5H28.6816C29.4773 31.5 30.2404 31.1839 30.803 30.6213C31.3656 30.0587 31.6816 29.2956 31.6816 28.5V18H28.6816V28.5H7.68164V7.5H18.1816V4.5H7.68164ZM26.8516 6C26.5817 6.00228 26.3233 6.10993 26.1316 6.3L24.3016 8.115L28.0516 11.865L29.8816 10.05C30.2716 9.66 30.2716 9 29.8816 8.625L27.5566 6.3C27.3616 6.105 27.1066 6 26.8516 6ZM23.2366 9.18L12.1816 20.25V24H15.9316L26.9866 12.93L23.2366 9.18Z" fill="#ea8033"/>
</svg>
