<svg width="36" height="36" viewBox="0 0 36 36" fill="none" xmlns="http://www.w3.org/2000/svg">
<path d="M18 9C20.3869 9 22.6761 9.94821 24.364 11.636C26.0518 13.3239 27 15.6131 27 18C27 21.33 25.185 24.24 22.5 25.8V28.5C22.5 28.8978 22.342 29.2794 22.0607 29.5607C21.7794 29.842 21.3978 30 21 30H15C14.6022 30 14.2206 29.842 13.9393 29.5607C13.658 29.2794 13.5 28.8978 13.5 28.5V25.8C10.815 24.24 9 21.33 9 18C9 15.6131 9.94821 13.3239 11.636 11.636C13.3239 9.94821 15.6131 9 18 9ZM21 31.5V33C21 33.3978 20.842 33.7794 20.5607 34.0607C20.2794 34.342 19.8978 34.5 19.5 34.5H16.5C16.1022 34.5 15.7206 34.342 15.4393 34.0607C15.158 33.7794 15 33.3978 15 33V31.5H21ZM30 16.5H34.5V19.5H30V16.5ZM1.5 16.5H6V19.5H1.5V16.5ZM19.5 1.5V6H16.5V1.5H19.5ZM7.38 5.25L10.575 8.46L8.445 10.575L5.25 7.395L7.38 5.25ZM25.425 8.445L28.605 5.25L30.75 7.395L27.555 10.575L25.425 8.445Z" fill="#0075FF"/>
</svg>
