<svg width="138" height="240" viewBox="0 0 138 240" fill="none" xmlns="http://www.w3.org/2000/svg">
<g clip-path="url(#clip0_724_2359)">
<path d="M7.67383 93.3977C7.67383 92.4907 9.61336 92.093 10.9075 92.093H126.812C128.106 92.093 128.371 92.4907 128.371 93.3977V216.977C128.368 217.503 128.204 218.016 127.902 218.447C127.599 218.878 127.173 219.207 126.68 219.391L71.2145 239.679C69.8836 240.096 68.4571 240.096 67.1261 239.679L10.161 219.394C9.00639 218.983 7.67383 217.898 7.67383 216.977V93.3977Z" fill="#F7F7F7"/>
<path opacity="0.42" d="M124.227 136.284V122.1H12.0234L124.227 136.284Z" fill="#E0E0E0"/>
<path d="M131.615 115.992C131.615 115.992 75.8782 134.414 5.55957 115.992V80.1384C70.4433 97.0256 131.615 80.1384 131.615 80.1384V115.992Z" fill="white"/>
<path d="M131.616 80.1384V115.992C131.616 115.992 106.841 124.186 69.4948 124.186C47.9205 124.199 26.4336 121.445 5.55988 115.992V80.1384C27.1878 85.7651 48.3971 87.6419 67.0703 87.6419C104.424 87.6419 131.605 80.1384 131.605 80.1384H131.616ZM137.04 72.9977L130.161 74.8988C129.868 74.9791 103.137 82.207 67.0599 82.207C45.8366 82.207 25.6006 79.7407 6.91686 74.8814L0.125 73.1058V120.199L4.18546 121.249C25.5092 126.819 47.459 129.633 69.4982 129.621C107.284 129.621 132.289 121.504 133.335 121.158L137.065 119.927V72.9977H137.04Z" fill="#F7F7F7"/>
<path d="M26.3925 94.1547C26.7671 94.2206 27.1236 94.3644 27.439 94.5768C27.7388 94.7746 27.9991 95.0266 28.2065 95.3198C28.4064 95.6105 28.5507 95.9358 28.6321 96.2791C28.7233 96.6396 28.7363 97.0154 28.6704 97.3814L26.7449 108.279C26.6804 108.646 26.535 108.994 26.3193 109.298C26.1063 109.598 25.8403 109.857 25.5344 110.062C25.2171 110.268 24.861 110.409 24.4879 110.473C24.0961 110.549 23.6936 110.549 23.3018 110.473C20.3251 109.906 17.3542 109.286 14.389 108.614C13.9993 108.523 13.6293 108.363 13.2972 108.14C12.9801 107.928 12.7076 107.657 12.4949 107.341C12.2868 107.036 12.1443 106.692 12.0763 106.329C12.0053 105.963 12.0148 105.586 12.1042 105.223C12.9623 101.642 13.8228 98.0593 14.6856 94.4756C14.7695 94.121 14.9235 93.7868 15.1386 93.4926C15.3537 93.1985 15.6254 92.9503 15.9379 92.7628C16.252 92.5811 16.5956 92.456 16.953 92.393C17.324 92.3244 17.7051 92.3328 18.0728 92.4175C20.8356 93.0477 23.6088 93.6268 26.3925 94.1547ZM24.2053 97.8384C22.3286 97.471 20.4553 97.0814 18.5856 96.6698L16.7437 105C18.6786 105.43 20.6193 105.835 22.5658 106.214C23.103 103.426 23.6495 100.634 24.2053 97.8384Z" fill="#122F4C"/>
<path d="M45.4145 97.0779C45.4525 97.1236 45.4808 97.1765 45.4976 97.2335C45.5144 97.2905 45.5194 97.3503 45.5122 97.4093L45.1878 100.524C45.1738 100.645 45.1127 100.754 45.0178 100.83C44.923 100.905 44.8022 100.939 44.682 100.926C41.9797 100.637 39.282 100.304 36.589 99.9244C36.5052 99.9244 36.4634 99.9244 36.4529 100.001C36.3343 100.852 36.218 101.706 36.1041 102.562C36.0997 102.577 36.0991 102.594 36.1023 102.61C36.1056 102.626 36.1126 102.642 36.1228 102.654C36.133 102.667 36.1461 102.678 36.161 102.685C36.1759 102.692 36.1923 102.695 36.2087 102.694C38.2762 102.987 40.3459 103.252 42.418 103.49C42.4773 103.494 42.5349 103.511 42.5871 103.539C42.6394 103.568 42.6852 103.607 42.7215 103.654C42.7956 103.754 42.8269 103.879 42.8087 104.002L42.4599 106.947C42.4551 107.005 42.4384 107.063 42.4108 107.115C42.3832 107.167 42.3453 107.213 42.2994 107.25C42.2519 107.291 42.1959 107.32 42.1356 107.336C42.0753 107.353 42.0121 107.355 41.9506 107.344C39.8576 107.112 37.7552 106.843 35.6436 106.538C35.6279 106.533 35.6111 106.531 35.5946 106.533C35.5781 106.536 35.5624 106.542 35.5487 106.551C35.5351 106.561 35.5239 106.574 35.5161 106.588C35.5084 106.603 35.5042 106.619 35.5041 106.636C35.2552 108.399 35.0052 110.16 34.7541 111.921C34.7122 112.221 34.5308 112.347 34.2099 112.301C33.0413 112.13 31.8762 111.952 30.7215 111.771C30.4006 111.719 30.2645 111.548 30.3134 111.248C31.1413 106.08 31.9692 100.912 32.7971 95.7419C32.7986 95.6799 32.8145 95.6191 32.8435 95.5643C32.8725 95.5095 32.9138 95.4621 32.9641 95.426C33.0145 95.3898 33.0726 95.3658 33.1338 95.3558C33.195 95.3459 33.2576 95.3503 33.3169 95.3686C37.2378 95.9896 41.1692 96.5093 45.1111 96.9279C45.228 96.9361 45.337 96.99 45.4145 97.0779Z" fill="#122F4C"/>
<path d="M60.5614 98.1698C60.602 98.2131 60.6335 98.2641 60.6539 98.3199C60.6743 98.3756 60.6831 98.4349 60.68 98.4942C60.6381 99.5407 60.5997 100.587 60.5579 101.634C60.5573 101.694 60.5439 101.752 60.5186 101.807C60.4934 101.861 60.4568 101.909 60.4114 101.948C60.3648 101.991 60.3096 102.024 60.2495 102.044C60.1894 102.064 60.1257 102.072 60.0625 102.066C57.3486 101.955 54.6381 101.798 51.9311 101.595C51.8509 101.595 51.809 101.616 51.8021 101.679C51.7393 102.542 51.6742 103.401 51.6067 104.257C51.6034 104.273 51.604 104.29 51.6084 104.307C51.6128 104.323 51.6209 104.338 51.632 104.35C51.6432 104.363 51.6571 104.373 51.6727 104.379C51.6883 104.385 51.7051 104.387 51.7218 104.386C53.7986 104.544 55.8776 104.673 57.959 104.773C58.0182 104.774 58.0765 104.788 58.13 104.813C58.1835 104.839 58.231 104.875 58.2695 104.92C58.3086 104.964 58.3384 105.015 58.357 105.071C58.3756 105.127 58.3826 105.186 58.3776 105.244C58.3335 106.23 58.2869 107.217 58.2381 108.206C58.2346 108.325 58.1845 108.438 58.0986 108.52C58.0547 108.561 58.0024 108.593 57.9453 108.613C57.8881 108.633 57.8274 108.64 57.7672 108.635C55.6532 108.53 53.5416 108.399 51.4323 108.241C51.3486 108.241 51.3032 108.272 51.2997 108.349C51.1625 110.126 51.0276 111.9 50.8951 113.672C50.8742 113.972 50.6997 114.108 50.3753 114.084C49.1997 113.993 48.0276 113.892 46.8556 113.787C46.5311 113.756 46.3846 113.592 46.4125 113.292C46.9009 108.08 47.3904 102.869 47.8811 97.657C47.8784 97.5952 47.8901 97.5336 47.9152 97.477C47.9403 97.4204 47.9781 97.3704 48.0257 97.3308C48.0734 97.2913 48.1295 97.2634 48.1898 97.2491C48.25 97.2349 48.3127 97.2348 48.373 97.2489C52.3265 97.6117 56.28 97.8745 60.2335 98.0373C60.2943 98.0352 60.355 98.046 60.4115 98.0688C60.4679 98.0916 60.519 98.126 60.5614 98.1698V98.1698Z" fill="#122F4C"/>
<path d="M67.1188 114.359C67.1188 114.659 66.9514 114.809 66.6269 114.806C65.4514 114.788 64.2723 114.767 63.0967 114.736C62.7723 114.736 62.6153 114.572 62.6223 114.272L63.0723 98.5744C63.0655 98.5129 63.0731 98.4507 63.0944 98.3926C63.1158 98.3345 63.1502 98.2821 63.1952 98.2395C63.2401 98.1969 63.2943 98.1654 63.3534 98.1472C63.4126 98.1291 63.4752 98.1249 63.5362 98.1349C64.6362 98.1675 65.7351 98.1896 66.8328 98.2012C66.8944 98.1929 66.9571 98.1991 67.016 98.2193C67.0748 98.2394 67.1282 98.273 67.1718 98.3173C67.2155 98.3616 67.2482 98.4155 67.2675 98.4747C67.2867 98.5338 67.292 98.5966 67.2828 98.6582C67.2269 103.891 67.1723 109.124 67.1188 114.359Z" fill="#122F4C"/>
<path d="M75.4004 102.304C75.3575 102.343 75.324 102.391 75.3023 102.444C75.2805 102.498 75.2711 102.556 75.2748 102.614L75.4527 110.288C75.4521 110.347 75.465 110.406 75.4904 110.459C75.5158 110.512 75.553 110.559 75.5992 110.595C75.6978 110.674 75.8223 110.713 75.948 110.704C78.6411 110.638 81.3329 110.522 84.0236 110.355C84.086 110.349 84.149 110.355 84.209 110.374C84.2689 110.392 84.3244 110.422 84.3725 110.463C84.4194 110.501 84.4578 110.549 84.4848 110.603C84.5119 110.657 84.5271 110.716 84.5294 110.777L84.7178 113.899C84.7219 113.96 84.7132 114.02 84.6921 114.078C84.6711 114.135 84.6382 114.187 84.5957 114.23C84.5038 114.324 84.3784 114.378 84.2469 114.38C82.4678 114.483 80.6876 114.567 78.9062 114.635C77.4364 114.686 75.969 114.727 74.5038 114.757H74.0434C73.6461 114.767 73.2505 114.701 72.8783 114.562C72.5212 114.432 72.193 114.234 71.912 113.979C71.6398 113.731 71.4214 113.429 71.2701 113.093C71.1155 112.755 71.0357 112.387 71.0364 112.015V111.628C71.0364 111.052 71.0364 110.473 71.0364 109.884L71.005 104.355C71.005 103.842 71.005 103.329 71.005 102.813V100.988C71.0016 100.618 71.0727 100.25 71.2143 99.907C71.3509 99.5752 71.5539 99.2749 71.8108 99.0244C72.0697 98.7727 72.3708 98.5684 72.7004 98.421C73.0417 98.2673 73.4109 98.1854 73.7852 98.1803H74.2143C77.2376 98.1198 80.269 98.0035 83.3085 97.8314C83.368 97.8267 83.4279 97.8339 83.4845 97.8527C83.5412 97.8715 83.5935 97.9014 83.6384 97.9408C83.6832 97.9801 83.7198 98.0281 83.7458 98.0818C83.7718 98.1355 83.7868 98.1939 83.7899 98.2535L83.9783 101.393C83.9828 101.453 83.9749 101.513 83.9551 101.569C83.9353 101.626 83.904 101.677 83.8632 101.721C83.823 101.766 83.7742 101.802 83.7197 101.828C83.6651 101.854 83.606 101.869 83.5457 101.871C80.9457 102.02 78.3469 102.128 75.7492 102.195C75.6868 102.189 75.6237 102.195 75.5638 102.214C75.5038 102.233 75.4483 102.263 75.4004 102.304V102.304Z" fill="#122F4C"/>
<path d="M93.2474 113.261C93.2753 113.561 93.1288 113.724 92.8079 113.752C91.6323 113.864 90.4602 113.965 89.2846 114.056C88.9602 114.08 88.7892 113.944 88.7648 113.644C88.3648 108.426 87.9648 103.206 87.5648 97.985C87.5516 97.9244 87.5527 97.8616 87.5681 97.8016C87.5834 97.7415 87.6126 97.6859 87.6533 97.6391C87.6939 97.5924 87.7449 97.5558 87.8023 97.5322C87.8596 97.5087 87.9216 97.4989 87.9834 97.5036C89.0788 97.4175 90.1741 97.3233 91.2695 97.221C91.3297 97.2064 91.3925 97.206 91.4529 97.2197C91.5133 97.2334 91.5697 97.261 91.6177 97.3002C91.6657 97.3394 91.704 97.3892 91.7295 97.4457C91.755 97.5021 91.7671 97.5637 91.7648 97.6256C92.2602 102.837 92.7544 108.049 93.2474 113.261Z" fill="#122F4C"/>
<path d="M106.607 95.2814C106.977 95.2194 107.356 95.2349 107.72 95.3268C108.068 95.4142 108.398 95.5631 108.693 95.7663C108.986 95.9733 109.238 96.2323 109.436 96.5302C109.643 96.8394 109.783 97.1889 109.844 97.5558C110.605 101.951 111.364 106.345 112.122 110.738C112.135 110.799 112.134 110.862 112.119 110.922C112.105 110.982 112.077 111.039 112.039 111.087C111.96 111.19 111.845 111.257 111.718 111.276C110.555 111.473 109.381 111.665 108.194 111.851C108.073 111.872 107.948 111.844 107.846 111.774C107.794 111.743 107.751 111.7 107.718 111.649C107.685 111.599 107.665 111.541 107.657 111.481L107.008 107.295C107.001 107.237 106.982 107.18 106.953 107.128C106.924 107.077 106.884 107.032 106.838 106.995C106.788 106.958 106.732 106.933 106.671 106.919C106.611 106.906 106.549 106.906 106.489 106.919C104.847 107.165 103.205 107.398 101.563 107.616C101.501 107.622 101.441 107.64 101.385 107.67C101.33 107.699 101.282 107.739 101.242 107.787C101.202 107.835 101.172 107.891 101.156 107.951C101.14 108.011 101.137 108.075 101.148 108.136L101.689 112.326C101.727 112.622 101.584 112.793 101.263 112.835C100.091 112.981 98.9224 113.124 97.7503 113.257C97.4259 113.292 97.248 113.159 97.2166 112.863L95.741 99.5651C95.6983 99.1974 95.7303 98.8248 95.8352 98.4698C95.9361 98.1253 96.1058 97.8049 96.334 97.5279C96.5672 97.2493 96.8469 97.0132 97.1608 96.8302C97.4818 96.643 97.8381 96.5242 98.2073 96.4814C101.012 96.1302 103.812 95.7303 106.607 95.2814ZM106.388 103.305C106.178 101.93 105.967 100.555 105.753 99.1779C103.869 99.4686 101.983 99.7361 100.094 99.9802L100.628 104.121C102.551 103.874 104.474 103.605 106.394 103.312L106.388 103.305Z" fill="#122F4C"/>
<path d="M126.606 104.11C126.665 104.095 126.726 104.091 126.786 104.1C126.846 104.109 126.904 104.13 126.955 104.163C127.005 104.194 127.049 104.235 127.082 104.284C127.116 104.332 127.139 104.387 127.15 104.445L127.883 107.487C127.899 107.546 127.903 107.607 127.894 107.667C127.885 107.727 127.863 107.785 127.831 107.836C127.799 107.889 127.756 107.934 127.706 107.97C127.655 108.005 127.598 108.03 127.538 108.042C123.926 108.9 120.303 109.678 116.668 110.376C116.35 110.435 116.162 110.32 116.106 110.027C115.129 104.885 114.155 99.7419 113.183 94.5977C113.163 94.5399 113.157 94.4784 113.164 94.4177C113.172 94.3571 113.194 94.2991 113.227 94.2481C113.261 94.1972 113.306 94.1547 113.359 94.124C113.412 94.0932 113.471 94.0751 113.532 94.0709C114.617 93.8616 115.698 93.6489 116.779 93.4256C116.838 93.4037 116.901 93.3958 116.963 93.4025C117.025 93.4092 117.085 93.4304 117.137 93.4643C117.19 93.4982 117.234 93.5438 117.266 93.5977C117.297 93.6515 117.316 93.7121 117.32 93.7744C118.116 97.5907 118.91 101.406 119.703 105.22C119.714 105.278 119.737 105.333 119.772 105.381C119.807 105.428 119.853 105.468 119.905 105.495C120.012 105.553 120.136 105.569 120.254 105.541C122.384 105.092 124.502 104.615 126.606 104.11Z" fill="#122F4C"/>
<path d="M137.135 72.9907L130.193 69.5477L130.116 0H6.27878L6.41134 70.1163L0.0380859 73.2558L6.41134 77.6826V77.7907H6.55437L6.94157 78.0628L6.97646 77.7907H9.12181C9.12181 77.7907 68.5707 95.6407 129.289 78.0628H130.196V77.7907H130.235L137.135 72.9907Z" fill="#F7F7F7"/>
<path d="M30.6766 195.849C31.0042 195.984 31.3008 196.185 31.5487 196.438C31.7935 196.692 31.9919 196.988 32.1347 197.31C32.2835 197.639 32.3597 197.996 32.358 198.357V202.784C32.3605 203.152 32.2844 203.517 32.1347 203.854C31.9937 204.181 31.7952 204.48 31.5487 204.737C31.3017 204.992 31.0048 205.192 30.6766 205.327C30.3377 205.469 29.9733 205.542 29.6056 205.539H20.2114C20.153 205.547 20.0936 205.542 20.0374 205.524C19.9813 205.506 19.9299 205.476 19.8871 205.435C19.8442 205.395 19.811 205.345 19.7899 205.29C19.7687 205.235 19.7602 205.176 19.7649 205.117V202.267C19.764 202.208 19.7749 202.15 19.797 202.095C19.8191 202.041 19.852 201.991 19.8936 201.949C19.9353 201.908 19.9849 201.875 20.0395 201.853C20.0941 201.831 20.1526 201.82 20.2114 201.821H28.2347C28.3519 201.824 28.4658 201.782 28.5521 201.702C28.5944 201.663 28.6278 201.616 28.65 201.563C28.6723 201.51 28.6829 201.453 28.6812 201.395V199.442C28.6819 199.383 28.6708 199.324 28.6486 199.27C28.6265 199.215 28.5937 199.166 28.5521 199.124C28.5109 199.082 28.4615 199.049 28.4069 199.027C28.3523 199.004 28.2936 198.994 28.2347 198.995H22.5173C21.9763 198.998 21.4466 198.841 20.9947 198.544C20.5428 198.247 20.189 197.822 19.9777 197.324C19.8363 196.994 19.7639 196.637 19.7649 196.278V191.823C19.7627 191.455 19.8351 191.091 19.9777 190.752C20.1107 190.424 20.3102 190.127 20.5638 189.88C20.822 189.635 21.1206 189.437 21.4463 189.294C21.7835 189.145 22.1485 189.069 22.5173 189.071H31.3952C31.4558 189.062 31.5177 189.068 31.5759 189.087C31.6341 189.106 31.6869 189.139 31.7303 189.182C31.7736 189.226 31.8063 189.278 31.8256 189.337C31.8449 189.395 31.8504 189.457 31.8417 189.517V192.413C31.8439 192.47 31.8334 192.527 31.8112 192.58C31.7889 192.633 31.7552 192.681 31.7126 192.72C31.6252 192.797 31.5117 192.838 31.3952 192.835H23.8847C23.827 192.833 23.7696 192.844 23.7166 192.867C23.6636 192.89 23.6162 192.924 23.5777 192.967C23.499 193.054 23.4565 193.168 23.4591 193.285V195.189C23.4565 195.306 23.499 195.42 23.5777 195.507C23.6162 195.55 23.6636 195.584 23.7166 195.607C23.7696 195.63 23.827 195.641 23.8847 195.639H29.6056C29.9729 195.638 30.3368 195.709 30.6766 195.849V195.849Z" fill="#122F4C"/>
<path d="M48.4044 189.199C48.4462 189.24 48.4792 189.29 48.5014 189.344C48.5236 189.399 48.5345 189.457 48.5335 189.516V192.481C48.5348 192.539 48.5239 192.596 48.5017 192.649C48.4794 192.702 48.4463 192.749 48.4044 192.788C48.3173 192.867 48.204 192.909 48.087 192.907H40.1998C40.1195 192.907 40.0812 192.945 40.0812 193.022V195.59C40.0812 195.652 40.1195 195.684 40.1998 195.684H46.9323C46.9898 195.682 47.0471 195.692 47.1001 195.714C47.1531 195.737 47.2006 195.77 47.2393 195.813C47.3165 195.9 47.3576 196.014 47.3544 196.13V198.488C47.358 198.605 47.3168 198.719 47.2393 198.806C47.2006 198.848 47.1531 198.882 47.1001 198.904C47.0471 198.927 46.9898 198.937 46.9323 198.935H40.1998C40.1836 198.933 40.1672 198.934 40.1517 198.939C40.1363 198.944 40.1222 198.953 40.1107 198.964C40.0992 198.976 40.0905 198.99 40.0854 199.006C40.0803 199.021 40.0788 199.037 40.0812 199.054V201.597C40.0788 201.613 40.0803 201.629 40.0854 201.645C40.0905 201.66 40.0992 201.674 40.1107 201.686C40.1222 201.697 40.1363 201.706 40.1517 201.711C40.1672 201.716 40.1836 201.718 40.1998 201.715H48.087C48.1459 201.714 48.2045 201.724 48.2591 201.747C48.3137 201.769 48.3632 201.802 48.4044 201.844C48.4459 201.886 48.4787 201.935 48.5009 201.99C48.523 202.044 48.5341 202.103 48.5335 202.162V205.116C48.5341 205.175 48.523 205.234 48.5009 205.288C48.4787 205.343 48.4459 205.392 48.4044 205.434C48.3632 205.476 48.3137 205.509 48.2591 205.531C48.2045 205.554 48.1459 205.564 48.087 205.563H36.3835C36.3223 205.573 36.2596 205.568 36.2005 205.549C36.1414 205.531 36.0876 205.498 36.0434 205.455C35.9992 205.411 35.9659 205.358 35.9462 205.299C35.9265 205.24 35.921 205.178 35.93 205.116V189.516C35.929 189.457 35.9399 189.399 35.962 189.344C35.9842 189.29 36.0172 189.24 36.0591 189.199C36.1003 189.157 36.1497 189.123 36.2043 189.101C36.259 189.079 36.3176 189.068 36.3765 189.07H48.08C48.1401 189.067 48.2 189.078 48.2559 189.1C48.3118 189.122 48.3624 189.156 48.4044 189.199V189.199Z" fill="#122F4C"/>
<path d="M63.3418 189.07C63.7105 189.068 64.0755 189.144 64.4127 189.293C64.7366 189.434 65.0322 189.632 65.2848 189.879C65.5327 190.131 65.7314 190.427 65.8708 190.751C66.0213 191.088 66.0986 191.453 66.0976 191.822V205.116C66.0984 205.175 66.087 205.234 66.0642 205.289C66.0414 205.343 66.0077 205.393 65.965 205.434C65.9241 205.476 65.8747 205.51 65.82 205.532C65.7653 205.554 65.7066 205.565 65.6476 205.563H62.3755C62.3166 205.564 62.2581 205.553 62.2035 205.531C62.1489 205.509 62.0993 205.476 62.0577 205.434C62.016 205.392 61.9832 205.343 61.961 205.288C61.9389 205.234 61.928 205.175 61.929 205.116V200.888C61.9325 200.77 61.89 200.655 61.8104 200.567C61.7714 200.525 61.7239 200.492 61.6709 200.47C61.618 200.447 61.5608 200.437 61.5034 200.438H56.8604C56.8015 200.438 56.7432 200.449 56.6887 200.471C56.6342 200.493 56.5846 200.526 56.5429 200.567C56.5007 200.609 56.4674 200.659 56.4452 200.715C56.423 200.77 56.4123 200.829 56.4139 200.888V205.116C56.4226 205.177 56.4171 205.239 56.3978 205.297C56.3785 205.355 56.3458 205.408 56.3025 205.451C56.2591 205.495 56.2063 205.527 56.1481 205.547C56.0899 205.566 56.028 205.572 55.9674 205.563H52.7162C52.6555 205.572 52.5936 205.566 52.5355 205.547C52.4773 205.527 52.4244 205.495 52.3811 205.451C52.3377 205.408 52.3051 205.355 52.2858 205.297C52.2664 205.239 52.2609 205.177 52.2697 205.116V191.822C52.2674 191.454 52.3398 191.09 52.4825 190.751C52.6167 190.423 52.8174 190.126 53.072 189.879C53.3297 189.634 53.6284 189.435 53.9546 189.293C54.2916 189.143 54.6567 189.067 55.0255 189.07H63.3418ZM61.929 196.908V192.764H56.3964V196.908H61.929Z" fill="#122F4C"/>
<path d="M80.6579 195.848C80.9844 195.983 81.2799 196.184 81.5265 196.437C81.7724 196.691 81.9719 196.986 82.116 197.309C82.2648 197.638 82.341 197.995 82.3393 198.356V202.783C82.3418 203.151 82.2657 203.516 82.116 203.854C81.9738 204.181 81.7741 204.479 81.5265 204.736C81.2808 204.991 80.9851 205.191 80.6579 205.326C80.319 205.468 79.9546 205.541 79.5869 205.538H70.1928C70.1321 205.547 70.0702 205.542 70.012 205.522C69.9539 205.503 69.901 205.47 69.8576 205.427C69.8143 205.384 69.7817 205.331 69.7623 205.273C69.743 205.214 69.7375 205.153 69.7462 205.092V202.242C69.7448 202.183 69.7555 202.124 69.7777 202.07C69.7999 202.015 69.8331 201.966 69.8753 201.924C69.9163 201.882 69.9657 201.848 70.0203 201.826C70.075 201.804 70.1338 201.793 70.1928 201.795H78.1986C78.3157 201.798 78.4295 201.756 78.516 201.677C78.5583 201.638 78.5916 201.59 78.6139 201.537C78.6362 201.484 78.6468 201.427 78.6451 201.37V199.416C78.6457 199.357 78.6346 199.299 78.6125 199.245C78.5903 199.19 78.5575 199.141 78.516 199.099C78.4746 199.057 78.4251 199.024 78.3705 199.002C78.3159 198.98 78.2575 198.969 78.1986 198.97H72.4986C72.1309 198.972 71.7665 198.9 71.4276 198.757C71.0972 198.621 70.7971 198.421 70.5451 198.167C70.2954 197.918 70.0953 197.623 69.9555 197.299C69.8168 196.967 69.7457 196.612 69.7462 196.252V191.822C69.7449 191.455 69.816 191.091 69.9555 190.751C70.091 190.424 70.2916 190.127 70.5451 189.879C70.8028 189.634 71.1015 189.435 71.4276 189.293C71.7648 189.144 72.1298 189.068 72.4986 189.07H81.373C81.4339 189.06 81.4962 189.065 81.5548 189.085C81.6135 189.104 81.6668 189.136 81.7106 189.18C81.7543 189.223 81.7873 189.276 81.8068 189.335C81.8264 189.393 81.8319 189.455 81.823 189.516V192.412C81.8243 192.469 81.8134 192.526 81.7912 192.579C81.7689 192.632 81.7358 192.679 81.6939 192.719C81.6054 192.796 81.4907 192.837 81.373 192.834H73.866C73.8083 192.832 73.7508 192.843 73.6978 192.866C73.6447 192.889 73.5974 192.923 73.559 192.966C73.479 193.052 73.4363 193.166 73.4404 193.284V195.188C73.4363 195.306 73.479 195.42 73.559 195.506C73.5974 195.549 73.6447 195.583 73.6978 195.606C73.7508 195.629 73.8083 195.64 73.866 195.638H79.5869C79.9542 195.637 80.3181 195.708 80.6579 195.848V195.848Z" fill="#122F4C"/>
<path d="M96.9766 189.07C97.3454 189.067 97.7105 189.143 98.0476 189.293C98.3715 189.434 98.667 189.632 98.9196 189.879C99.1687 190.131 99.3686 190.426 99.5092 190.751C99.6569 191.089 99.7329 191.454 99.7324 191.822V202.793C99.7332 203.162 99.6571 203.526 99.5092 203.864C99.3669 204.191 99.1673 204.49 98.9196 204.746C98.6727 205.001 98.3758 205.202 98.0476 205.336C97.7088 205.479 97.3444 205.551 96.9766 205.549H88.6255C88.2578 205.551 87.8934 205.479 87.5545 205.336C87.2241 205.2 86.924 205 86.672 204.746C86.4161 204.49 86.2137 204.185 86.0765 203.85C85.9394 203.515 85.8703 203.155 85.8731 202.793V191.822C85.8718 191.455 85.9429 191.091 86.0824 190.751C86.2179 190.424 86.4185 190.127 86.672 189.879C86.9297 189.634 87.2284 189.435 87.5545 189.293C87.8917 189.144 88.2567 189.068 88.6255 189.07H96.9766ZM95.5638 193.071H89.9999V201.544H95.5464L95.5638 193.071Z" fill="#122F4C"/>
<path d="M117.126 189.199C117.168 189.24 117.201 189.29 117.223 189.344C117.245 189.399 117.256 189.457 117.255 189.516V205.116C117.255 205.175 117.244 205.234 117.222 205.288C117.2 205.343 117.167 205.392 117.126 205.434C117.084 205.476 117.035 205.509 116.98 205.531C116.926 205.554 116.867 205.564 116.808 205.563H113.418C113.285 205.561 113.154 205.524 113.041 205.455C112.924 205.393 112.826 205.3 112.758 205.186L107.554 195.579V205.116C107.562 205.177 107.557 205.239 107.538 205.297C107.518 205.355 107.486 205.408 107.442 205.451C107.399 205.495 107.346 205.527 107.288 205.547C107.23 205.566 107.168 205.572 107.107 205.563H103.859C103.799 205.571 103.737 205.566 103.678 205.547C103.62 205.527 103.567 205.495 103.523 205.451C103.48 205.408 103.447 205.355 103.427 205.297C103.407 205.239 103.401 205.177 103.409 205.116V189.516C103.401 189.455 103.406 189.393 103.426 189.335C103.445 189.276 103.478 189.223 103.522 189.18C103.566 189.136 103.619 189.104 103.678 189.085C103.736 189.065 103.798 189.06 103.859 189.07H107.201C107.334 189.072 107.464 189.108 107.578 189.174C107.696 189.236 107.794 189.331 107.861 189.447L113.093 199.074V189.516C113.092 189.457 113.103 189.399 113.125 189.344C113.147 189.29 113.18 189.24 113.222 189.199C113.263 189.157 113.313 189.123 113.367 189.101C113.422 189.079 113.481 189.068 113.54 189.07H116.815C116.873 189.069 116.93 189.08 116.984 189.103C117.037 189.125 117.085 189.158 117.126 189.199V189.199Z" fill="#122F4C"/>
<path d="M28.21 54.9419C28.3031 54.9836 28.3881 55.0415 28.4611 55.1129C28.5325 55.1851 28.5894 55.2703 28.6286 55.364C28.6731 55.4602 28.6958 55.565 28.6948 55.671V59.5082C28.6949 59.5251 28.6915 59.5419 28.6849 59.5575C28.6783 59.5731 28.6686 59.5872 28.6565 59.5989C28.6445 59.6106 28.6303 59.6198 28.6147 59.6258C28.5991 59.6318 28.5825 59.6345 28.5658 59.6338H27.6239C27.6077 59.6352 27.5913 59.6327 27.5762 59.6267C27.561 59.6206 27.5475 59.6111 27.5367 59.5989C27.525 59.587 27.5159 59.5728 27.5099 59.5572C27.5039 59.5416 27.5011 59.5249 27.5018 59.5082V56.0443H26.7414V59.5082C26.7423 59.5413 26.7311 59.5735 26.71 59.5989C26.6982 59.6108 26.684 59.6201 26.6683 59.6261C26.6527 59.6321 26.636 59.6347 26.6193 59.6338H25.7681C25.7508 59.6348 25.7336 59.6322 25.7174 59.6262C25.7012 59.6202 25.6864 59.6109 25.6739 59.5989C25.6622 59.587 25.6531 59.5728 25.6471 59.5572C25.6411 59.5416 25.6383 59.5249 25.639 59.5082V56.0443H24.8786V59.5082C24.881 59.5256 24.8793 59.5433 24.8736 59.5599C24.8679 59.5765 24.8584 59.5915 24.8459 59.6037C24.8333 59.6159 24.818 59.625 24.8013 59.6303C24.7845 59.6355 24.7668 59.6367 24.7495 59.6338H23.8146C23.7974 59.636 23.78 59.6343 23.7636 59.6288C23.7472 59.6233 23.7322 59.6142 23.7198 59.6021C23.7074 59.59 23.6979 59.5753 23.692 59.5591C23.686 59.5428 23.6838 59.5254 23.6855 59.5082V55.0082C23.6833 54.9907 23.685 54.9729 23.6907 54.9562C23.6964 54.9395 23.7058 54.9244 23.7183 54.9119C23.7308 54.8994 23.7459 54.89 23.7626 54.8843C23.7793 54.8786 23.7971 54.8769 23.8146 54.8791H27.9065C28.0108 54.8793 28.1141 54.9007 28.21 54.9419V54.9419Z" fill="#242425"/>
<path d="M32.9472 54.8791C33.0539 54.8787 33.1595 54.9001 33.2577 54.9419C33.3508 54.9836 33.4358 55.0415 33.5088 55.1128C33.5802 55.185 33.6371 55.2703 33.6763 55.364C33.7192 55.4607 33.7417 55.5652 33.7425 55.671V59.5082C33.7426 59.5251 33.7392 59.5418 33.7326 59.5574C33.726 59.573 33.7163 59.5871 33.7042 59.5989C33.6922 59.6106 33.678 59.6197 33.6624 59.6257C33.6468 59.6317 33.6302 59.6344 33.6135 59.6337H32.6716C32.6549 59.6347 32.6382 59.632 32.6225 59.626C32.6069 59.62 32.5927 59.6107 32.5809 59.5989C32.5682 59.5875 32.5582 59.5735 32.5515 59.5578C32.5449 59.5421 32.5418 59.5252 32.5425 59.5082V58.2942C32.5432 58.2775 32.5405 58.2608 32.5345 58.2452C32.5285 58.2296 32.5194 58.2154 32.5077 58.2035C32.4967 58.1913 32.4833 58.1815 32.4682 58.1749C32.4532 58.1683 32.4369 58.1649 32.4204 58.1651H31.0774C31.0435 58.166 31.0112 58.1799 30.9871 58.2039C30.9631 58.2279 30.9492 58.2603 30.9484 58.2942V59.5082C30.9508 59.5255 30.9491 59.5432 30.9434 59.5598C30.9377 59.5764 30.9282 59.5914 30.9157 59.6037C30.9031 59.6159 30.8878 59.625 30.8711 59.6302C30.8543 59.6354 30.8366 59.6367 30.8193 59.6337H29.8844C29.8674 59.636 29.85 59.6344 29.8337 59.6289C29.8175 59.6234 29.8027 59.6142 29.7905 59.6021C29.7784 59.5899 29.7692 59.5751 29.7637 59.5588C29.7582 59.5425 29.7565 59.5252 29.7588 59.5082V55.671C29.7572 55.5656 29.7774 55.4611 29.8181 55.364C29.8608 55.2697 29.9225 55.1854 29.9995 55.1163C30.0731 55.0457 30.158 54.9879 30.2507 54.9454C30.3488 54.9036 30.4545 54.8822 30.5611 54.8826L32.9472 54.8791ZM32.5425 57.1361V55.943H30.9484V57.1361H32.5425Z" fill="#242425"/>
<path d="M38.0223 54.9175C38.0346 54.9291 38.0444 54.9431 38.051 54.9588C38.0576 54.9744 38.0609 54.9912 38.0606 55.0082V58.8279C38.061 58.9346 38.0397 59.0402 37.9978 59.1384C37.9553 59.2311 37.8975 59.3159 37.8269 59.3895C37.7558 59.4631 37.6703 59.5213 37.5757 59.5605C37.4786 59.6012 37.3741 59.6214 37.2688 59.6198H35.2281C35.1228 59.6214 35.0182 59.6012 34.9211 59.5605C34.826 59.5205 34.7395 59.4624 34.6664 59.3895C34.5936 59.3178 34.5355 59.2325 34.4955 59.1384C34.4565 59.0395 34.4363 58.9342 34.4362 58.8279V57.3802C34.4332 57.3626 34.4344 57.3445 34.4398 57.3274C34.4452 57.3104 34.4546 57.2949 34.4673 57.2822C34.4799 57.2696 34.4954 57.2601 34.5125 57.2547C34.5295 57.2493 34.5477 57.2481 34.5653 57.2512H35.5002C35.5177 57.2489 35.5354 57.2507 35.5521 57.2563C35.5688 57.262 35.584 57.2714 35.5965 57.2839C35.609 57.2964 35.6184 57.3116 35.6241 57.3283C35.6298 57.345 35.6315 57.3628 35.6292 57.3802V58.3465C35.628 58.3636 35.6308 58.3807 35.6375 58.3965C35.6442 58.4123 35.6545 58.4262 35.6676 58.4372C35.6927 58.459 35.7252 58.4702 35.7583 58.4686H36.7385C36.7717 58.4702 36.8042 58.459 36.8292 58.4372C36.8424 58.4262 36.8527 58.4123 36.8593 58.3965C36.866 58.3807 36.8689 58.3636 36.8676 58.3465V55.0082C36.8667 54.9914 36.8693 54.9747 36.8753 54.9591C36.8813 54.9434 36.8906 54.9292 36.9025 54.9175C36.913 54.9046 36.9263 54.8944 36.9415 54.8878C36.9566 54.8811 36.9732 54.8781 36.9897 54.8791H37.9316C37.9486 54.8784 37.9655 54.8814 37.9812 54.8881C37.9969 54.8947 38.0109 54.9047 38.0223 54.9175V54.9175Z" fill="#242425"/>
<path d="M42.2925 54.8791C42.398 54.8787 42.5025 54.9001 42.5994 54.9419C42.7886 55.024 42.9395 55.1748 43.0215 55.364C43.0633 55.4609 43.0847 55.5654 43.0843 55.671V58.8105C43.0847 58.9172 43.0633 59.0228 43.0215 59.1209C42.979 59.2136 42.9212 59.2985 42.8506 59.3721C42.7795 59.4457 42.694 59.5039 42.5994 59.543C42.5023 59.5838 42.3978 59.6039 42.2925 59.6023H39.8925C39.7871 59.6039 39.6826 59.5838 39.5855 59.543C39.4904 59.503 39.4039 59.445 39.3308 59.3721C39.2579 59.3011 39.2009 59.2155 39.1634 59.1209C39.1216 59.0228 39.1002 58.9172 39.1006 58.8105V55.671C39.1002 55.5654 39.1216 55.4609 39.1634 55.364C39.2002 55.269 39.2574 55.1833 39.3308 55.1128C39.4057 55.0422 39.4917 54.9844 39.5855 54.9419C39.6824 54.9001 39.7869 54.8787 39.8925 54.8791H42.2925ZM41.8843 56.0303H40.2936V58.4721H41.8843V56.0303Z" fill="#242425"/>
<path d="M48.282 59.5117C48.2894 59.5238 48.2933 59.5377 48.2933 59.5518C48.2933 59.566 48.2894 59.5799 48.282 59.5919C48.282 59.6129 48.2436 59.6198 48.2052 59.6198H47.1273C47.0895 59.6202 47.0522 59.6105 47.0192 59.5919C46.9859 59.5727 46.9582 59.545 46.939 59.5117L46.2204 58.2245C46.2162 58.2163 46.2096 58.2096 46.2015 58.2052C46.1934 58.2009 46.1842 58.1991 46.175 58.2001H45.3657C45.3615 58.1995 45.3571 58.1999 45.353 58.2013C45.349 58.2027 45.3453 58.205 45.3422 58.208C45.3392 58.211 45.3369 58.2147 45.3355 58.2188C45.3342 58.2229 45.3337 58.2272 45.3343 58.2315V59.4943C45.336 59.5115 45.3338 59.5289 45.3279 59.5451C45.322 59.5614 45.3124 59.5761 45.3 59.5881C45.2876 59.6002 45.2727 59.6093 45.2563 59.6148C45.2399 59.6203 45.2224 59.622 45.2052 59.6198H44.2704C44.2531 59.6228 44.2353 59.6215 44.2186 59.6163C44.2018 59.6111 44.1866 59.602 44.174 59.5898C44.1614 59.5775 44.1519 59.5625 44.1462 59.5459C44.1405 59.5293 44.1389 59.5116 44.1413 59.4943V55.0082C44.1382 54.9906 44.1395 54.9725 44.1449 54.9554C44.1503 54.9384 44.1597 54.9228 44.1723 54.9102C44.185 54.8975 44.2005 54.8881 44.2176 54.8827C44.2346 54.8773 44.2527 54.8761 44.2704 54.8791H47.3332C47.4387 54.8787 47.5432 54.9001 47.6401 54.9419C47.8293 55.024 47.9801 55.1749 48.0622 55.364C48.104 55.4609 48.1254 55.5654 48.125 55.671V57.4536C48.1255 57.6208 48.0716 57.7836 47.9715 57.9175C47.8752 58.0499 47.7398 58.1488 47.5843 58.2001H47.5634C47.532 58.2001 47.525 58.221 47.5425 58.2384L48.282 59.5117ZM46.932 55.9815H45.2994V57.1361H46.932V55.9815Z" fill="#242425"/>
<path d="M54.6691 58.4687C54.686 58.4684 54.7029 58.4717 54.7185 58.4783C54.7341 58.4849 54.7482 58.4947 54.7598 58.507C54.7809 58.5325 54.7921 58.5647 54.7912 58.5977V59.4943C54.7921 59.5273 54.7809 59.5595 54.7598 59.585C54.748 59.5968 54.7338 59.6061 54.7182 59.6121C54.7025 59.6181 54.6858 59.6208 54.6691 59.6198H51.7423C51.7252 59.622 51.7077 59.6203 51.6913 59.6148C51.6749 59.6093 51.66 59.6002 51.6476 59.5881C51.6351 59.5761 51.6256 59.5614 51.6197 59.5451C51.6138 59.5289 51.6116 59.5115 51.6133 59.4943V55.0082C51.611 54.9907 51.6128 54.9729 51.6184 54.9562C51.6241 54.9395 51.6335 54.9244 51.646 54.9119C51.6585 54.8994 51.6737 54.89 51.6904 54.8843C51.7071 54.8786 51.7249 54.8769 51.7423 54.8791H52.6737C52.6914 54.8761 52.7095 54.8773 52.7265 54.8827C52.7436 54.8881 52.7591 54.8975 52.7718 54.9102C52.7844 54.9228 52.7938 54.9384 52.7992 54.9554C52.8046 54.9725 52.8059 54.9906 52.8028 55.0082V58.3466C52.8026 58.3635 52.8058 58.3804 52.8124 58.396C52.8191 58.4116 52.8288 58.4257 52.8412 58.4373C52.8666 58.4584 52.8988 58.4696 52.9319 58.4687H54.6691Z" fill="#242425"/>
<path d="M59.0432 54.9175C59.0555 54.9291 59.0653 54.9432 59.0719 54.9588C59.0785 54.9744 59.0818 54.9912 59.0816 55.0082V55.8594C59.0818 55.8763 59.0785 55.8931 59.0719 55.9088C59.0653 55.9244 59.0555 55.9384 59.0432 55.9501C59.0178 55.9712 58.9855 55.9824 58.9525 55.9815H56.6816C56.6606 55.9815 56.6502 55.9815 56.6502 56.0163V56.7559C56.6502 56.7733 56.6502 56.7838 56.6816 56.7838H58.6211C58.6373 56.7831 58.6534 56.7859 58.6684 56.7919C58.6834 56.7979 58.697 56.807 58.7083 56.8187C58.7309 56.8448 58.7433 56.8783 58.7432 56.9129V57.5896C58.7428 57.623 58.7304 57.6552 58.7083 57.6803C58.6972 57.6924 58.6837 57.702 58.6687 57.7086C58.6537 57.7152 58.6375 57.7186 58.6211 57.7187H56.6816C56.6773 57.7181 56.673 57.7185 56.6689 57.7199C56.6648 57.7213 56.6611 57.7236 56.6581 57.7266C56.655 57.7296 56.6527 57.7333 56.6514 57.7374C56.65 57.7415 56.6496 57.7458 56.6502 57.7501V58.0989V58.4931C56.6502 58.5175 56.6502 58.528 56.6816 58.528H58.9525C58.9692 58.5273 58.9859 58.53 59.0015 58.536C59.0171 58.542 59.0313 58.5511 59.0432 58.5629C59.0677 58.5881 59.0814 58.6219 59.0816 58.657V59.5047C59.0816 59.5216 59.0782 59.5384 59.0716 59.554C59.065 59.5696 59.0554 59.5837 59.0432 59.5954C59.0313 59.6071 59.0171 59.6163 59.0015 59.6223C58.9859 59.6283 58.9692 59.631 58.9525 59.6303H55.5862C55.5689 59.6332 55.5512 59.632 55.5344 59.6268C55.5177 59.6215 55.5024 59.6125 55.4898 59.6002C55.4773 59.588 55.4678 59.573 55.4621 59.5564C55.4564 59.5398 55.4547 59.5221 55.4571 59.5047V55.0082C55.4562 54.9915 55.4589 54.9747 55.4649 54.9591C55.4709 54.9435 55.4801 54.9293 55.492 54.9175C55.5037 54.9043 55.5183 54.894 55.5346 54.8874C55.551 54.8807 55.5686 54.8779 55.5862 54.8791H58.9525C58.9695 54.8784 58.9865 54.8815 59.0021 54.8881C59.0178 54.8948 59.0318 54.9048 59.0432 54.9175V54.9175Z" fill="#242425"/>
<path d="M63.3408 54.8791C63.4475 54.8783 63.5533 54.8997 63.6513 54.9419C63.7444 54.9836 63.8295 55.0415 63.9025 55.1128C63.9739 55.185 64.0307 55.2703 64.0699 55.364C64.1145 55.4601 64.1371 55.565 64.1362 55.671V59.5082C64.1362 59.5251 64.1328 59.5419 64.1262 59.5574C64.1197 59.573 64.11 59.5871 64.0978 59.5989C64.0859 59.6106 64.0717 59.6197 64.0561 59.6257C64.0405 59.6317 64.0238 59.6345 64.0071 59.6338H63.0652C63.0485 59.6347 63.0318 59.6321 63.0162 59.626C63.0005 59.62 62.9863 59.6108 62.9745 59.5989C62.9624 59.5871 62.9527 59.573 62.9461 59.5574C62.9395 59.5419 62.9361 59.5251 62.9362 59.5082V58.2942C62.9369 58.2775 62.9341 58.2609 62.9281 58.2453C62.9221 58.2297 62.913 58.2155 62.9013 58.2035C62.8903 58.1913 62.8769 58.1815 62.8618 58.1749C62.8468 58.1683 62.8305 58.165 62.8141 58.1652H61.4711C61.4371 58.166 61.4048 58.1799 61.3808 58.2039C61.3567 58.228 61.3429 58.2603 61.342 58.2942V59.5082C61.3443 59.5252 61.3426 59.5426 61.3371 59.5588C61.3316 59.5751 61.3224 59.5899 61.3103 59.6021C61.2981 59.6142 61.2833 59.6234 61.2671 59.6289C61.2508 59.6344 61.2334 59.6361 61.2164 59.6338H60.2815C60.2642 59.6367 60.2465 59.6355 60.2297 59.6302C60.213 59.625 60.1977 59.6159 60.1852 59.6037C60.1726 59.5915 60.1631 59.5764 60.1574 59.5598C60.1517 59.5433 60.15 59.5256 60.1524 59.5082V55.671C60.1526 55.5658 60.1727 55.4616 60.2118 55.364C60.2509 55.2694 60.3091 55.184 60.3827 55.1128C60.4563 55.0422 60.5412 54.9845 60.6338 54.9419C60.732 54.9001 60.8376 54.8787 60.9443 54.8791H63.3408ZM62.9362 57.1361V55.9431H61.342V57.1361H62.9362Z" fill="#242425"/>
<path d="M69.1388 57.0698C69.151 57.0816 69.1607 57.0957 69.1672 57.1113C69.1738 57.1269 69.1772 57.1436 69.1772 57.1605V58.828C69.1781 58.9351 69.1555 59.0411 69.1109 59.1384C69.0708 59.2317 69.0141 59.3168 68.9434 59.3896C68.8723 59.4632 68.7868 59.5214 68.6923 59.5605C68.594 59.6015 68.4883 59.6217 68.3818 59.6198H65.9853C65.8809 59.6212 65.7773 59.6017 65.6806 59.5624C65.5839 59.5231 65.4961 59.4649 65.4222 59.391C65.3484 59.3172 65.2902 59.2294 65.2509 59.1327C65.2116 59.036 65.192 58.9324 65.1934 58.828V55.6884C65.1918 55.5831 65.212 55.4786 65.2527 55.3815C65.2919 55.2869 65.3501 55.2014 65.4237 55.1303C65.4973 55.0597 65.5822 55.0019 65.6748 54.9594C65.773 54.9176 65.8786 54.8962 65.9853 54.8966H68.776C68.793 54.8959 68.81 54.899 68.8257 54.9056C68.8413 54.9122 68.8554 54.9223 68.8667 54.935C68.879 54.9466 68.8888 54.9607 68.8954 54.9763C68.902 54.9919 68.9053 55.0087 68.9051 55.0257V55.9187C68.9042 55.9526 68.8903 55.9849 68.8663 56.009C68.8423 56.033 68.81 56.0469 68.776 56.0477H66.5051C66.4884 56.047 66.4717 56.0498 66.4561 56.0558C66.4405 56.0618 66.4263 56.0709 66.4144 56.0826C66.4021 56.0936 66.3924 56.107 66.3857 56.1221C66.3791 56.1371 66.3758 56.1534 66.376 56.1698V58.364C66.3758 58.381 66.379 58.3978 66.3856 58.4134C66.3922 58.429 66.402 58.4431 66.4144 58.4547C66.4398 58.4759 66.472 58.487 66.5051 58.4861H67.8481C67.8802 58.4875 67.9115 58.4762 67.9353 58.4547C67.9472 58.4429 67.9565 58.4287 67.9625 58.4131C67.9685 58.3975 67.9711 58.3807 67.9702 58.364V57.178C67.9695 57.161 67.9726 57.144 67.9792 57.1283C67.9858 57.1126 67.9959 57.0986 68.0086 57.0873C68.0202 57.0749 68.0343 57.0652 68.0499 57.0585C68.0655 57.0519 68.0823 57.0487 68.0993 57.0489H69.0411C69.058 57.0455 69.0753 57.0456 69.0921 57.0492C69.1089 57.0528 69.1248 57.0599 69.1388 57.0698V57.0698Z" fill="#242425"/>
<path d="M74.1374 54.9175C74.1498 54.9291 74.1596 54.9432 74.1662 54.9588C74.1728 54.9744 74.1761 54.9913 74.1758 55.0082V58.828C74.1762 58.9347 74.1548 59.0403 74.113 59.1384C74.0704 59.2311 74.0127 59.316 73.9421 59.3896C73.871 59.4632 73.7855 59.5214 73.6909 59.5605C73.5938 59.6013 73.4893 59.6214 73.3839 59.6198H70.9839C70.8786 59.6214 70.7741 59.6013 70.677 59.5605C70.5818 59.5205 70.4954 59.4625 70.4223 59.3896C70.3494 59.3179 70.2914 59.2325 70.2514 59.1384C70.2123 59.0396 70.1922 58.9343 70.1921 58.828V55.0082C70.189 54.9906 70.1902 54.9725 70.1956 54.9554C70.201 54.9384 70.2105 54.9228 70.2231 54.9102C70.2358 54.8975 70.2513 54.8881 70.2683 54.8827C70.2854 54.8773 70.3035 54.8761 70.3211 54.8791H71.256C71.2735 54.8769 71.2913 54.8786 71.308 54.8843C71.3247 54.89 71.3399 54.8994 71.3524 54.9119C71.3648 54.9244 71.3743 54.9395 71.3799 54.9562C71.3856 54.9729 71.3874 54.9907 71.3851 55.0082V58.3466C71.3842 58.3633 71.3868 58.38 71.3928 58.3957C71.3988 58.4113 71.4081 58.4255 71.42 58.4373C71.4468 58.4584 71.4801 58.4695 71.5142 58.4687H72.8537C72.8703 58.471 72.8872 58.4694 72.903 58.4641C72.9189 58.4588 72.9333 58.4499 72.9452 58.438C72.957 58.4262 72.9659 58.4118 72.9712 58.3959C72.9766 58.38 72.9781 58.3632 72.9758 58.3466V55.0082C72.9755 54.9913 72.9788 54.9744 72.9854 54.9588C72.992 54.9432 73.0018 54.9291 73.0142 54.9175C73.0255 54.9048 73.0395 54.8948 73.0552 54.8881C73.0709 54.8815 73.0879 54.8784 73.1049 54.8791H74.0467C74.0637 54.8784 74.0807 54.8815 74.0964 54.8881C74.1121 54.8948 74.1261 54.9048 74.1374 54.9175Z" fill="#242425"/>
<path d="M78.8361 54.9175C78.8485 54.9291 78.8583 54.9432 78.8649 54.9588C78.8715 54.9744 78.8748 54.9912 78.8745 55.0082V55.8594C78.8748 55.8763 78.8715 55.8931 78.8649 55.9087C78.8583 55.9244 78.8485 55.9384 78.8361 55.9501C78.8111 55.9718 78.7786 55.983 78.7455 55.9815H76.478C76.4733 55.9809 76.4685 55.9814 76.464 55.983C76.4595 55.9845 76.4555 55.9871 76.4521 55.9904C76.4487 55.9938 76.4462 55.9979 76.4446 56.0023C76.4431 56.0068 76.4426 56.0116 76.4431 56.0163V56.7559C76.4431 56.7733 76.4431 56.7838 76.478 56.7838H78.4141C78.4303 56.7829 78.4464 56.7856 78.4615 56.7916C78.4766 56.7976 78.4901 56.8069 78.5013 56.8187C78.5132 56.8311 78.5225 56.8459 78.5285 56.8621C78.5345 56.8783 78.5371 56.8956 78.5361 56.9128V57.5896C78.5369 57.6063 78.5341 57.623 78.5281 57.6386C78.5221 57.6542 78.513 57.6684 78.5013 57.6803C78.4903 57.6925 78.4769 57.7023 78.4618 57.7089C78.4468 57.7155 78.4305 57.7189 78.4141 57.7187H76.478C76.4536 57.7187 76.4431 57.7187 76.4431 57.7501V58.0989V58.4931C76.4431 58.5175 76.4431 58.528 76.478 58.528H78.7455C78.7622 58.527 78.7789 58.5297 78.7945 58.5357C78.8102 58.5417 78.8244 58.551 78.8361 58.5628C78.8606 58.5881 78.8744 58.6219 78.8745 58.657V59.5047C78.8746 59.5216 78.8712 59.5384 78.8646 59.554C78.858 59.5696 78.8483 59.5837 78.8361 59.5954C78.8244 59.6073 78.8102 59.6165 78.7945 59.6226C78.7789 59.6286 78.7622 59.6312 78.7455 59.6303H75.3792C75.3619 59.6332 75.3441 59.632 75.3274 59.6268C75.3107 59.6215 75.2954 59.6124 75.2828 59.6002C75.2702 59.588 75.2607 59.573 75.255 59.5564C75.2494 59.5398 75.2477 59.5221 75.2501 59.5047V55.0082C75.2499 54.9912 75.2531 54.9744 75.2597 54.9588C75.2663 54.9432 75.2761 54.9291 75.2885 54.9175C75.2998 54.9048 75.3138 54.8948 75.3295 54.8881C75.3452 54.8815 75.3622 54.8784 75.3792 54.8791H78.7455C78.7625 54.8779 78.7797 54.8807 78.7954 54.8874C78.8112 54.8941 78.8251 54.9044 78.8361 54.9175V54.9175Z" fill="#242425"/>
<path d="M86.1066 54.8791C86.1241 54.8784 86.1416 54.8814 86.1579 54.888C86.1741 54.8946 86.1888 54.9047 86.2008 54.9175C86.2127 54.9293 86.2219 54.9435 86.228 54.9591C86.234 54.9747 86.2366 54.9915 86.2357 55.0082V59.4942C86.2364 59.5109 86.2337 59.5276 86.2277 59.5432C86.2217 59.5588 86.2125 59.573 86.2008 59.5849C86.1752 59.6084 86.1414 59.621 86.1066 59.6198H85.1647C85.148 59.6205 85.1314 59.6178 85.1158 59.6118C85.1002 59.6058 85.086 59.5966 85.0741 59.5849C85.0619 59.5732 85.0522 59.5591 85.0456 59.5435C85.039 59.5279 85.0356 59.5111 85.0357 59.4942V57.9279C85.0371 57.8959 85.0258 57.8645 85.0043 57.8407C84.9925 57.8288 84.9783 57.8196 84.9627 57.8136C84.947 57.8076 84.9303 57.8049 84.9136 57.8059H83.574C83.5573 57.8051 83.5407 57.8079 83.5251 57.8139C83.5095 57.8199 83.4953 57.829 83.4834 57.8407C83.4711 57.8517 83.4613 57.8651 83.4547 57.8802C83.4481 57.8952 83.4448 57.9115 83.445 57.9279V59.4942C83.4474 59.5116 83.4457 59.5293 83.44 59.5459C83.4344 59.5625 83.4248 59.5775 83.4123 59.5897C83.3997 59.602 83.3844 59.6111 83.3677 59.6163C83.3509 59.6215 83.3332 59.6227 83.3159 59.6198H82.381C82.3639 59.622 82.3464 59.6203 82.33 59.6148C82.3136 59.6093 82.2986 59.6002 82.2862 59.5881C82.2738 59.576 82.2643 59.5613 82.2584 59.5451C82.2524 59.5288 82.2502 59.5114 82.2519 59.4942V55.0082C82.2497 54.9907 82.2514 54.9729 82.2571 54.9562C82.2628 54.9395 82.2722 54.9243 82.2847 54.9118C82.2972 54.8994 82.3123 54.8899 82.329 54.8843C82.3457 54.8786 82.3635 54.8768 82.381 54.8791H83.3159C83.3335 54.876 83.3516 54.8773 83.3687 54.8827C83.3858 54.8881 83.4013 54.8975 83.4139 54.9102C83.4266 54.9228 83.436 54.9383 83.4414 54.9554C83.4468 54.9724 83.448 54.9905 83.445 55.0082V56.5117C83.4427 56.5292 83.4445 56.5469 83.4501 56.5636C83.4558 56.5803 83.4652 56.5955 83.4777 56.608C83.4902 56.6205 83.5054 56.6299 83.5221 56.6356C83.5388 56.6413 83.5566 56.643 83.574 56.6407H84.9136C84.9305 56.641 84.9474 56.6377 84.963 56.6311C84.9786 56.6245 84.9927 56.6147 85.0043 56.6024C85.0254 56.5769 85.0366 56.5447 85.0357 56.5117V54.9942C85.0354 54.9773 85.0387 54.9604 85.0453 54.9448C85.0519 54.9292 85.0617 54.9151 85.0741 54.9035C85.0854 54.8908 85.0994 54.8808 85.1151 54.8741C85.1308 54.8675 85.1477 54.8644 85.1647 54.8652L86.1066 54.8791Z" fill="#242425"/>
<path d="M90.4976 54.8791C90.6032 54.8787 90.7077 54.9001 90.8046 54.9419C90.9937 55.024 91.1446 55.1748 91.2267 55.364C91.2685 55.4609 91.2899 55.5654 91.2895 55.671V59.5082C91.2902 59.5249 91.2874 59.5415 91.2814 59.5571C91.2754 59.5727 91.2663 59.5869 91.2546 59.5989C91.229 59.6224 91.1952 59.6349 91.1604 59.6337H90.2186C90.2019 59.6344 90.1852 59.6317 90.1696 59.6257C90.154 59.6197 90.1398 59.6106 90.1279 59.5989C90.1157 59.5871 90.106 59.573 90.0994 59.5574C90.0928 59.5418 90.0894 59.5251 90.0895 59.5082V58.2942C90.0904 58.2612 90.0792 58.2289 90.0581 58.2035C90.0465 58.1912 90.0324 58.1814 90.0168 58.1748C90.0012 58.1682 89.9843 58.1649 89.9674 58.1651H88.6279C88.6109 58.1649 88.5941 58.1682 88.5785 58.1748C88.5629 58.1814 88.5488 58.1912 88.5372 58.2035C88.525 58.2153 88.5153 58.2294 88.5087 58.2449C88.5021 58.2605 88.4987 58.2773 88.4988 58.2942V59.5082C88.5012 59.5255 88.4995 59.5432 88.4939 59.5598C88.4882 59.5764 88.4787 59.5914 88.4661 59.6037C88.4535 59.6159 88.4382 59.625 88.4215 59.6302C88.4048 59.6354 88.387 59.6367 88.3697 59.6337H87.4348C87.4175 59.6367 87.3998 59.6354 87.3831 59.6302C87.3663 59.625 87.351 59.6159 87.3385 59.6037C87.3259 59.5914 87.3164 59.5764 87.3107 59.5598C87.305 59.5432 87.3033 59.5255 87.3058 59.5082V55.671C87.3054 55.5654 87.3267 55.4609 87.3686 55.364C87.4054 55.269 87.4625 55.1833 87.536 55.1128C87.6109 55.0422 87.6969 54.9844 87.7907 54.9419C87.8876 54.9001 87.9921 54.8787 88.0976 54.8791H90.4976ZM90.0895 57.1361V55.943H88.4988V57.1361H90.0895Z" fill="#242425"/>
<path d="M93.5717 56.0652C93.5594 56.0761 93.5497 56.0896 93.543 56.1046C93.5364 56.1197 93.5331 56.136 93.5333 56.1524V58.3466C93.533 58.3635 93.5363 58.3804 93.5429 58.396C93.5495 58.4116 93.5593 58.4257 93.5717 58.4373C93.5971 58.4584 93.6293 58.4696 93.6624 58.4687H95.8391C95.856 58.4686 95.8728 58.472 95.8884 58.4786C95.904 58.4852 95.9181 58.4949 95.9298 58.5071C95.9415 58.519 95.9507 58.5332 95.9567 58.5488C95.9627 58.5644 95.9654 58.581 95.9647 58.5977V59.4943C95.9657 59.511 95.9632 59.5278 95.9572 59.5435C95.9513 59.5592 95.942 59.5734 95.9302 59.5853C95.9183 59.5972 95.904 59.6064 95.8883 59.6124C95.8726 59.6183 95.8559 59.6209 95.8391 59.6198H93.1391C93.0326 59.6217 92.9269 59.6015 92.8286 59.5605C92.7335 59.5205 92.647 59.4625 92.574 59.3896C92.5022 59.3177 92.4453 59.2323 92.4065 59.1384C92.3647 59.0403 92.3434 58.9347 92.3438 58.828V55.6884C92.3434 55.5829 92.3647 55.4784 92.4065 55.3815C92.4444 55.2871 92.5014 55.2016 92.574 55.1303C92.6488 55.0596 92.7349 55.0019 92.8286 54.9594C92.9267 54.9172 93.0324 54.8958 93.1391 54.8966H95.8426C95.8596 54.8959 95.8766 54.899 95.8923 54.9056C95.9079 54.9122 95.922 54.9223 95.9333 54.935C95.9452 54.9468 95.9544 54.9609 95.9605 54.9766C95.9665 54.9922 95.9691 55.0089 95.9682 55.0257V55.9187C95.9689 55.9354 95.9661 55.952 95.9601 55.9677C95.9541 55.9833 95.945 55.9975 95.9333 56.0094C95.9215 56.0216 95.9075 56.0312 95.8919 56.0378C95.8763 56.0444 95.8595 56.0478 95.8426 56.0477H93.6624C93.631 56.0415 93.5984 56.0477 93.5717 56.0652Z" fill="#242425"/>
<path d="M99.7392 56.878C99.7344 56.8846 99.7318 56.8925 99.7318 56.9007C99.7318 56.9088 99.7344 56.9167 99.7392 56.9233L101.326 59.5117C101.334 59.5238 101.338 59.5377 101.338 59.5518C101.338 59.566 101.334 59.5799 101.326 59.5919C101.326 59.6129 101.288 59.6198 101.25 59.6198H100.116C100.078 59.6205 100.041 59.6109 100.008 59.5919C99.9745 59.5727 99.9468 59.545 99.9276 59.5117L98.902 57.6629C98.902 57.6419 98.8776 57.6384 98.8706 57.6629L98.3055 58.2803C98.2799 58.3084 98.2609 58.3417 98.2497 58.378C98.2339 58.4156 98.2256 58.4558 98.2252 58.4966V59.5012C98.2277 59.5186 98.226 59.5363 98.2203 59.5529C98.2146 59.5695 98.2051 59.5845 98.1925 59.5967C98.18 59.609 98.1647 59.6181 98.148 59.6233C98.1312 59.6285 98.1135 59.6297 98.0962 59.6268H97.1613C97.1441 59.629 97.1267 59.6273 97.1103 59.6218C97.0939 59.6163 97.0789 59.6072 97.0665 59.5951C97.0541 59.5831 97.0446 59.5683 97.0386 59.5521C97.0327 59.5358 97.0305 59.5185 97.0322 59.5012V55.0082C97.0299 54.9907 97.0317 54.9729 97.0374 54.9562C97.0431 54.9395 97.0525 54.9244 97.065 54.9119C97.0774 54.8994 97.0926 54.89 97.1093 54.8843C97.126 54.8786 97.1438 54.8769 97.1613 54.8791H98.0962C98.1138 54.8761 98.1319 54.8773 98.149 54.8827C98.166 54.8881 98.1815 54.8975 98.1942 54.9102C98.2068 54.9228 98.2163 54.9384 98.2217 54.9554C98.2271 54.9725 98.2283 54.9906 98.2252 55.0082V57.021L99.9694 54.9733C99.9957 54.9447 100.028 54.9221 100.064 54.907C100.099 54.8887 100.139 54.8791 100.179 54.8791H101.305C101.34 54.8791 101.361 54.8791 101.368 54.907C101.375 54.935 101.368 54.9454 101.344 54.9733L99.7392 56.878Z" fill="#242425"/>
<path d="M103.391 59.4943C103.394 59.5116 103.392 59.5293 103.386 59.5459C103.381 59.5625 103.371 59.5775 103.359 59.5898C103.346 59.602 103.331 59.6111 103.314 59.6163C103.297 59.6215 103.279 59.6228 103.262 59.6198H102.327C102.31 59.622 102.293 59.6203 102.276 59.6148C102.26 59.6093 102.245 59.6002 102.233 59.5881C102.22 59.5761 102.211 59.5614 102.205 59.5451C102.199 59.5289 102.197 59.5115 102.198 59.4943V55.0082C102.196 54.9907 102.198 54.9729 102.203 54.9562C102.209 54.9395 102.219 54.9244 102.231 54.9119C102.243 54.8994 102.259 54.89 102.275 54.8843C102.292 54.8786 102.31 54.8769 102.327 54.8791H103.255C103.273 54.8761 103.291 54.8773 103.308 54.8827C103.325 54.8881 103.341 54.8975 103.353 54.9102C103.366 54.9228 103.375 54.9384 103.381 54.9554C103.386 54.9725 103.387 54.9906 103.384 55.0082L103.391 59.4943Z" fill="#242425"/>
<path d="M107.954 54.9419C108.143 55.024 108.294 55.1749 108.376 55.364C108.418 55.4609 108.439 55.5654 108.438 55.671V59.5082C108.439 59.5252 108.436 59.5422 108.429 59.5579C108.423 59.5736 108.413 59.5876 108.4 59.5989C108.388 59.6108 108.374 59.6201 108.359 59.6261C108.343 59.6321 108.326 59.6347 108.309 59.6338H107.368C107.351 59.6347 107.335 59.632 107.32 59.626C107.305 59.6199 107.291 59.6107 107.28 59.5989C107.258 59.5738 107.246 59.5416 107.245 59.5082V56.1629C107.246 56.1467 107.244 56.1305 107.238 56.1154C107.232 56.1004 107.222 56.0868 107.211 56.0757C107.185 56.0521 107.151 56.0396 107.116 56.0408H105.777C105.76 56.0401 105.743 56.0428 105.728 56.0488C105.712 56.0548 105.698 56.0639 105.686 56.0757C105.673 56.0861 105.663 56.0995 105.656 56.1146C105.65 56.1298 105.647 56.1463 105.648 56.1629V59.5047C105.65 59.5221 105.649 59.5398 105.643 59.5564C105.637 59.573 105.628 59.588 105.615 59.6002C105.603 59.6125 105.587 59.6216 105.571 59.6268C105.554 59.632 105.536 59.6332 105.519 59.6303H104.584C104.567 59.6332 104.549 59.632 104.532 59.6268C104.515 59.6216 104.5 59.6125 104.487 59.6002C104.475 59.588 104.465 59.573 104.46 59.5564C104.454 59.5398 104.452 59.5221 104.455 59.5047V55.0082C104.452 54.9906 104.453 54.9725 104.458 54.9554C104.464 54.9384 104.473 54.9228 104.486 54.9102C104.498 54.8975 104.514 54.8881 104.531 54.8827C104.548 54.8773 104.566 54.8761 104.584 54.8791H107.647C107.752 54.8787 107.857 54.9001 107.954 54.9419V54.9419Z" fill="#242425"/>
<path d="M113.441 57.0698C113.454 57.0815 113.463 57.0956 113.47 57.1112C113.476 57.1268 113.48 57.1436 113.48 57.1605V58.8279C113.48 58.9346 113.459 59.0402 113.417 59.1384C113.374 59.2311 113.317 59.316 113.246 59.3896C113.175 59.4631 113.089 59.5213 112.995 59.5605C112.898 59.6012 112.793 59.6214 112.688 59.6198H110.288C110.183 59.6214 110.078 59.6012 109.981 59.5605C109.886 59.5205 109.799 59.4624 109.726 59.3896C109.653 59.3178 109.595 59.2325 109.555 59.1384C109.516 59.0395 109.496 58.9342 109.496 58.8279V55.6884C109.496 55.5832 109.516 55.4791 109.555 55.3814C109.595 55.2869 109.653 55.2014 109.726 55.1302C109.801 55.0596 109.887 55.0018 109.981 54.9593C110.078 54.9175 110.182 54.8961 110.288 54.8965H113.079C113.096 54.8953 113.114 54.8981 113.13 54.9048C113.147 54.9114 113.161 54.9217 113.173 54.9349C113.185 54.9467 113.194 54.9609 113.2 54.9765C113.206 54.9921 113.209 55.0089 113.208 55.0256V55.9186C113.208 55.9353 113.206 55.952 113.2 55.9676C113.194 55.9832 113.185 55.9974 113.173 56.0093C113.161 56.0218 113.146 56.0316 113.13 56.0382C113.113 56.0448 113.096 56.048 113.079 56.0477H110.811C110.794 56.0468 110.778 56.0494 110.762 56.0554C110.746 56.0614 110.732 56.0707 110.721 56.0826C110.708 56.093 110.697 56.1064 110.691 56.1216C110.684 56.1367 110.681 56.1533 110.682 56.1698V58.364C110.681 58.3811 110.684 58.3982 110.69 58.4139C110.697 58.4297 110.707 58.4437 110.721 58.4547C110.746 58.4764 110.778 58.4877 110.811 58.4861H112.151C112.167 58.4884 112.184 58.4868 112.2 58.4815C112.216 58.4762 112.23 58.4673 112.242 58.4554C112.254 58.4436 112.263 58.4292 112.268 58.4133C112.274 58.3974 112.275 58.3806 112.273 58.364V57.1779C112.274 57.144 112.288 57.1117 112.312 57.0876C112.336 57.0636 112.368 57.0497 112.402 57.0489H113.344C113.361 57.0453 113.378 57.0453 113.395 57.0489C113.412 57.0525 113.428 57.0596 113.441 57.0698Z" fill="#242425"/>
<path d="M52.2691 22.2279C52.8589 22.4835 53.396 22.8467 53.8528 23.2989C54.3057 23.7538 54.669 24.2899 54.9237 24.8791C55.1932 25.4913 55.3311 26.1533 55.3284 26.8221V51.7047C55.3315 51.8116 55.3123 51.918 55.2721 52.0171C55.2318 52.1162 55.1714 52.2058 55.0947 52.2803C55.0194 52.3572 54.9293 52.418 54.8297 52.4588C54.7301 52.4996 54.6232 52.5196 54.5156 52.5175H48.5644C48.4597 52.521 48.3555 52.5016 48.2591 52.4606C48.1627 52.4197 48.0764 52.3581 48.0063 52.2803C47.8626 52.1238 47.7861 51.917 47.7935 51.7047V29.0861H42.997V51.7047C43.0044 51.917 42.9279 52.1238 42.7842 52.2803C42.7141 52.3581 42.6278 52.4197 42.5314 52.4606C42.435 52.5016 42.3308 52.521 42.2261 52.5175H36.833C36.7254 52.5196 36.6185 52.4996 36.519 52.4588C36.4194 52.418 36.3292 52.3572 36.254 52.2803C36.1768 52.206 36.1158 52.1164 36.075 52.0174C36.0341 51.9183 36.0143 51.8118 36.0168 51.7047V29.0861H31.2237V51.7047C31.2388 51.8153 31.2281 51.9279 31.1924 52.0336C31.1567 52.1394 31.0969 52.2354 31.0178 52.3142C30.9387 52.3929 30.8424 52.4523 30.7365 52.4875C30.6306 52.5228 30.518 52.5331 30.4075 52.5175H24.5016C24.3911 52.5331 24.2785 52.5228 24.1726 52.4875C24.0667 52.4523 23.9704 52.3929 23.8913 52.3142C23.8122 52.2354 23.7524 52.1394 23.7167 52.0336C23.681 51.9279 23.6702 51.8153 23.6854 51.7047V22.6361C23.6702 22.5255 23.681 22.4129 23.7167 22.3072C23.7524 22.2014 23.8122 22.1054 23.8913 22.0266C23.9704 21.9479 24.0667 21.8885 24.1726 21.8532C24.2785 21.818 24.3911 21.8077 24.5016 21.8233H50.3156C50.9879 21.8202 51.6534 21.958 52.2691 22.2279V22.2279Z" fill="#E73427"/>
<path d="M52.2691 22.2279C52.8589 22.4835 53.396 22.8467 53.8528 23.2989C54.3057 23.7538 54.669 24.2899 54.9237 24.8791C55.1932 25.4913 55.3311 26.1533 55.3284 26.8221V29.0407L47.7935 29.0861H31.2237L23.6854 29.0407V22.6361C23.6702 22.5255 23.681 22.4129 23.7167 22.3072C23.7524 22.2014 23.8122 22.1054 23.8913 22.0266C23.9704 21.9479 24.0667 21.8885 24.1726 21.8532C24.2785 21.818 24.3911 21.8077 24.5016 21.8233H50.3156C50.9879 21.8202 51.6533 21.958 52.2691 22.2279V22.2279Z" fill="#E73427"/>
<path d="M81.2783 45.0663C81.388 45.0626 81.4972 45.0821 81.5988 45.1236C81.7004 45.1651 81.7921 45.2276 81.8678 45.307C82.018 45.4675 82.0994 45.6803 82.0946 45.9V51.6872C82.0994 51.907 82.018 52.1198 81.8678 52.2803C81.7921 52.3597 81.7004 52.4222 81.5988 52.4637C81.4972 52.5052 81.388 52.5247 81.2783 52.521H60.8957C60.7809 52.5392 60.6634 52.5304 60.5525 52.4954C60.4416 52.4604 60.3404 52.4001 60.2568 52.3192C60.1732 52.2383 60.1096 52.1391 60.0709 52.0295C60.0323 51.9198 60.0197 51.8026 60.0341 51.6872V22.6745C60.0197 22.5591 60.0323 22.4419 60.0709 22.3322C60.1096 22.2225 60.1732 22.1234 60.2568 22.0425C60.3404 21.9616 60.4416 21.9013 60.5525 21.8663C60.6634 21.8313 60.7809 21.8225 60.8957 21.8407H67.1748C67.2886 21.8249 67.4045 21.8355 67.5136 21.8716C67.6227 21.9076 67.722 21.9683 67.8039 22.0489C67.8858 22.1294 67.9481 22.2278 67.986 22.3362C68.0239 22.4447 68.0364 22.5604 68.0225 22.6745V44.3024C68.0181 44.4102 68.0382 44.5176 68.081 44.6167C68.1239 44.7157 68.1886 44.8038 68.2702 44.8745C68.44 45.0222 68.6591 45.1006 68.8841 45.0942L81.2783 45.0663Z" fill="#1D539F"/>
<path d="M67.9526 52.521H60.8922C60.7776 52.5386 60.6605 52.5293 60.55 52.4941C60.4396 52.4588 60.3388 52.3984 60.2557 52.3176C60.1725 52.2368 60.1093 52.1378 60.0708 52.0285C60.0323 51.9191 60.0198 51.8023 60.034 51.6872V22.6744C60.0198 22.5594 60.0323 22.4426 60.0708 22.3332C60.1093 22.2239 60.1725 22.1249 60.2557 22.0441C60.3388 21.9633 60.4396 21.9029 60.55 21.8676C60.6605 21.8323 60.7776 21.8231 60.8922 21.8407H67.1398C67.2544 21.8231 67.3715 21.8323 67.482 21.8676C67.5924 21.9029 67.6932 21.9633 67.7763 22.0441C67.8595 22.1249 67.9228 22.2239 67.9612 22.3332C67.9997 22.4426 68.0123 22.5594 67.998 22.6744V44.3023C67.998 44.5117 67.9526 52.521 67.9526 52.521Z" fill="#1D539F"/>
<path d="M112.615 21.8233C112.728 21.8208 112.841 21.8408 112.946 21.8821C113.051 21.9234 113.147 21.9853 113.229 22.064C113.31 22.1404 113.374 22.233 113.417 22.3357C113.461 22.4384 113.482 22.5491 113.48 22.6605V51.771C113.482 51.882 113.461 51.9922 113.418 52.0945C113.375 52.1967 113.31 52.2886 113.229 52.364C113.148 52.4439 113.052 52.5067 112.947 52.5487C112.841 52.5906 112.728 52.6109 112.615 52.6082H106.273C106.159 52.6112 106.045 52.591 105.939 52.5491C105.833 52.5071 105.737 52.4442 105.655 52.364C105.575 52.2884 105.511 52.1964 105.468 52.0942C105.425 51.9919 105.405 51.8818 105.408 51.771V41.6129C105.412 41.5067 105.393 41.4009 105.354 41.3023C105.314 41.2037 105.254 41.1146 105.178 41.0408C105.098 40.9667 105.005 40.9091 104.903 40.8714C104.801 40.8337 104.693 40.8165 104.585 40.821H95.6927C95.4666 40.8144 95.2463 40.8928 95.0752 41.0408C94.9934 41.1114 94.9284 41.1994 94.8849 41.2984C94.8415 41.3974 94.8207 41.5048 94.8241 41.6129V51.771C94.8385 51.8868 94.8258 52.0045 94.7869 52.1145C94.7481 52.2246 94.6842 52.3242 94.6003 52.4054C94.5164 52.4866 94.4148 52.5471 94.3035 52.5823C94.1922 52.6175 94.0743 52.6264 93.959 52.6082H87.6624C87.547 52.6272 87.4287 52.6188 87.3171 52.5839C87.2054 52.549 87.1035 52.4884 87.0194 52.4071C86.9354 52.3257 86.8715 52.2258 86.8329 52.1154C86.7944 52.0049 86.7822 51.887 86.7973 51.771V22.6745C86.7822 22.5585 86.7944 22.4406 86.8329 22.3301C86.8715 22.2197 86.9354 22.1198 87.0194 22.0384C87.1035 21.9571 87.2054 21.8965 87.3171 21.8616C87.4287 21.8267 87.547 21.8183 87.6624 21.8373H93.959C94.0743 21.8191 94.1922 21.828 94.3035 21.8632C94.4148 21.8984 94.5164 21.9589 94.6003 22.0401C94.6842 22.1213 94.7481 22.2209 94.7869 22.331C94.8258 22.441 94.8385 22.5587 94.8241 22.6745V32.5082C94.8241 33.0664 95.1136 33.3454 95.6927 33.3454H104.585C104.695 33.3494 104.805 33.3301 104.907 33.2886C105.009 33.2471 105.101 33.1844 105.178 33.1047C105.253 33.0255 105.313 32.9319 105.352 32.8295C105.392 32.7271 105.411 32.6179 105.408 32.5082V22.6745C105.405 22.5633 105.426 22.4527 105.468 22.35C105.511 22.2472 105.575 22.1546 105.655 22.078C105.737 21.9989 105.834 21.937 105.94 21.8956C106.046 21.8543 106.159 21.8345 106.273 21.8373L112.615 21.8233Z" fill="#F8B92A"/>
<path d="M94.8241 41.6129V51.771C94.8385 51.8869 94.8258 52.0045 94.7869 52.1145C94.7481 52.2246 94.6842 52.3242 94.6003 52.4054C94.5165 52.4866 94.4149 52.5471 94.3036 52.5823C94.1922 52.6175 94.0743 52.6264 93.959 52.6082H87.6624C87.547 52.6272 87.4287 52.6188 87.3171 52.5839C87.2054 52.549 87.1035 52.4884 87.0194 52.4071C86.9354 52.3257 86.8715 52.2258 86.8329 52.1154C86.7944 52.0049 86.7822 51.887 86.7973 51.771V22.6745C86.7822 22.5585 86.7944 22.4406 86.8329 22.3301C86.8715 22.2197 86.9354 22.1198 87.0194 22.0384C87.1035 21.9571 87.2054 21.8965 87.3171 21.8616C87.4287 21.8267 87.547 21.8183 87.6624 21.8373H93.959C94.0743 21.8191 94.1922 21.828 94.3036 21.8632C94.4149 21.8984 94.5165 21.9589 94.6003 22.0401C94.6842 22.1213 94.7481 22.2209 94.7869 22.331C94.8258 22.441 94.8385 22.5587 94.8241 22.6745V41.6268V41.6129Z" fill="#F8B92A"/>
<path d="M112.615 21.8233C112.728 21.8208 112.84 21.8408 112.946 21.8821C113.051 21.9234 113.147 21.9853 113.228 22.064C113.31 22.1404 113.374 22.233 113.417 22.3357C113.46 22.4384 113.482 22.5491 113.48 22.6605V51.771C113.482 51.882 113.461 51.9922 113.418 52.0945C113.374 52.1967 113.31 52.2886 113.228 52.364C113.148 52.4439 113.052 52.5067 112.946 52.5487C112.841 52.5906 112.728 52.6109 112.615 52.6082H106.273C106.159 52.6112 106.045 52.5911 105.939 52.5491C105.833 52.5071 105.736 52.4442 105.655 52.364C105.574 52.2884 105.51 52.1964 105.468 52.0942C105.425 51.9919 105.404 51.8818 105.408 51.771V22.6745C105.405 22.5633 105.425 22.4527 105.468 22.35C105.511 22.2472 105.575 22.1546 105.655 22.078C105.737 21.9989 105.834 21.937 105.94 21.8956C106.046 21.8543 106.159 21.8345 106.273 21.8373L112.615 21.8233Z" fill="#F8B92A"/>
<path d="M26.7381 170.173V173.721C26.7558 173.895 26.841 174.055 26.9754 174.166C27.1098 174.278 27.2826 174.332 27.4567 174.317H40.8137C40.9106 174.314 41.007 174.332 41.0962 174.37C41.1854 174.408 41.2652 174.465 41.33 174.537C41.4628 174.684 41.534 174.876 41.5288 175.074V179.885C41.534 180.083 41.4628 180.275 41.33 180.422C41.2652 180.494 41.1854 180.551 41.0962 180.589C41.007 180.627 40.9106 180.645 40.8137 180.642H21.2509C21.1482 180.657 21.0435 180.647 20.9452 180.614C20.8468 180.581 20.7575 180.526 20.6843 180.452C20.6111 180.379 20.5561 180.289 20.5237 180.191C20.4912 180.092 20.4822 179.988 20.4974 179.885V168.488C20.4904 167.874 20.6092 167.265 20.8462 166.699C21.0803 166.149 21.4178 165.649 21.8404 165.227C22.2669 164.799 22.7745 164.461 23.3334 164.233C23.9065 163.997 24.5209 163.879 25.1404 163.884H34.559C34.6587 163.886 34.7576 163.867 34.8501 163.83C34.9426 163.793 35.0266 163.738 35.0972 163.667C35.1679 163.597 35.2236 163.513 35.2612 163.421C35.2988 163.329 35.3174 163.23 35.316 163.13V159.907C35.318 159.808 35.2996 159.709 35.2618 159.617C35.224 159.525 35.1676 159.442 35.0962 159.373C35.0265 159.302 34.9429 159.245 34.8504 159.208C34.758 159.17 34.6588 159.151 34.559 159.154H22.0881C21.9932 159.156 21.8988 159.14 21.8105 159.105C21.7223 159.07 21.6421 159.018 21.5748 158.951C21.5075 158.884 21.4546 158.804 21.4193 158.716C21.384 158.628 21.3671 158.533 21.3695 158.438V153.555C21.3647 153.357 21.4358 153.165 21.5683 153.017C21.6352 152.947 21.7159 152.892 21.8054 152.855C21.8949 152.817 21.9912 152.799 22.0881 152.801H36.9207C37.5372 152.797 38.1475 152.926 38.7102 153.178C39.2546 153.422 39.7527 153.758 40.1823 154.172C40.609 154.591 40.9471 155.092 41.1765 155.644C41.4123 156.218 41.5309 156.834 41.5253 157.455V158.567C41.5403 158.583 41.5517 158.602 41.5589 158.622C41.5662 158.643 41.569 158.664 41.5672 158.686V168.837C41.5705 168.934 41.5526 169.031 41.5146 169.12C41.4766 169.209 41.4196 169.289 41.3474 169.354C41.1988 169.479 41.0081 169.544 40.8137 169.535H27.4567C27.2779 169.529 27.1037 169.592 26.9699 169.711C26.8362 169.829 26.7532 169.995 26.7381 170.173V170.173Z" fill="#122F4C"/>
<path d="M62.3297 152.791C62.9529 152.788 63.5698 152.916 64.1402 153.167C64.6884 153.404 65.1877 153.742 65.6123 154.162C66.0309 154.587 66.3678 155.086 66.6065 155.634C66.858 156.204 66.9864 156.821 66.9832 157.444V175.974C66.9857 176.598 66.8573 177.214 66.6065 177.785C66.3658 178.336 66.0292 178.841 65.6123 179.274C65.1951 179.703 64.6939 180.042 64.1402 180.269C63.5664 180.506 62.9505 180.624 62.3297 180.617H50.3611C49.7402 180.625 49.1244 180.506 48.5506 180.269C47.9935 180.039 47.4873 179.701 47.061 179.274C46.6348 178.848 46.297 178.342 46.0669 177.785C45.8301 177.211 45.7115 176.595 45.7181 175.974V157.448C45.7108 156.827 45.8295 156.211 46.0669 155.637C46.2937 155.083 46.6321 154.582 47.0611 154.165C47.494 153.747 47.9985 153.41 48.5506 153.171C49.1209 152.919 49.7378 152.791 50.3611 152.794H62.3297V152.791ZM60.2367 159.551H52.4681V173.853H60.2227L60.2367 159.551Z" fill="#122F4C"/>
<path d="M77.2846 170.173V173.721C77.3014 173.891 77.3834 174.048 77.5134 174.16C77.6434 174.271 77.8114 174.327 77.9822 174.317H91.3427C91.4396 174.314 91.536 174.332 91.6252 174.37C91.7144 174.408 91.7942 174.465 91.859 174.537C91.9918 174.684 92.063 174.876 92.0578 175.074V179.885C92.063 180.083 91.9918 180.275 91.859 180.422C91.7942 180.494 91.7144 180.551 91.6252 180.589C91.536 180.627 91.4396 180.645 91.3427 180.642H71.7939C71.6912 180.657 71.5865 180.647 71.4881 180.614C71.3898 180.581 71.3004 180.526 71.2273 180.452C71.1541 180.379 71.0991 180.289 71.0666 180.191C71.0342 180.092 71.0252 179.987 71.0404 179.885V168.488C71.0334 167.874 71.1521 167.265 71.3892 166.699C71.6246 166.15 71.9619 165.65 72.3834 165.227C72.8099 164.799 73.3175 164.461 73.8764 164.233C74.4506 163.997 75.0662 163.878 75.6869 163.884H85.1055C85.2051 163.886 85.3041 163.867 85.3966 163.83C85.489 163.793 85.5731 163.738 85.6437 163.667C85.7143 163.597 85.7701 163.513 85.8077 163.421C85.8452 163.329 85.8639 163.23 85.8625 163.13V159.907C85.8645 159.808 85.846 159.709 85.8082 159.617C85.7704 159.525 85.7141 159.442 85.6427 159.373C85.573 159.302 85.4893 159.245 85.3969 159.208C85.3045 159.17 85.2053 159.151 85.1055 159.153H72.6311C72.5365 159.156 72.4424 159.139 72.3546 159.104C72.2667 159.069 72.187 159.016 72.1201 158.949C72.0532 158.882 72.0006 158.803 71.9655 158.715C71.9304 158.627 71.9136 158.533 71.9159 158.438V153.555C71.9111 153.357 71.9823 153.165 72.1148 153.017C72.1801 152.946 72.2601 152.89 72.3492 152.853C72.4384 152.815 72.5345 152.798 72.6311 152.801H87.4636C88.0802 152.797 88.6905 152.926 89.2532 153.178C89.7981 153.421 90.2963 153.757 90.7253 154.172C91.152 154.591 91.4901 155.092 91.7194 155.644C91.9553 156.218 92.0739 156.834 92.0683 157.455V158.567C92.0832 158.583 92.0947 158.602 92.1019 158.622C92.1091 158.643 92.1119 158.664 92.1101 158.686V168.837C92.1135 168.934 92.0956 169.031 92.0576 169.12C92.0196 169.209 91.9625 169.289 91.8904 169.353C91.7435 169.486 91.5511 169.557 91.3532 169.552H77.9997C77.8242 169.547 77.6532 169.608 77.5206 169.723C77.3881 169.838 77.3038 169.999 77.2846 170.173V170.173Z" fill="#122F4C"/>
<path d="M102.415 170.173V173.721C102.433 173.895 102.518 174.055 102.652 174.166C102.787 174.278 102.959 174.332 103.133 174.317H116.511C116.608 174.314 116.705 174.332 116.794 174.37C116.883 174.408 116.963 174.465 117.028 174.537C117.16 174.684 117.232 174.877 117.226 175.074V179.885C117.232 180.083 117.16 180.275 117.028 180.422C116.963 180.494 116.883 180.551 116.794 180.589C116.705 180.627 116.608 180.645 116.511 180.642H96.9276C96.8248 180.656 96.7201 180.647 96.6216 180.614C96.5231 180.581 96.4336 180.526 96.3602 180.452C96.2868 180.379 96.2315 180.289 96.1986 180.191C96.1657 180.093 96.1561 179.988 96.1707 179.885V168.488C96.1637 167.874 96.2824 167.265 96.5195 166.699C96.7524 166.148 97.09 165.648 97.5137 165.227C97.9402 164.799 98.4478 164.461 99.0067 164.233C99.5798 163.997 100.194 163.879 100.814 163.884H110.232C110.332 163.886 110.431 163.867 110.523 163.83C110.616 163.793 110.7 163.738 110.771 163.667C110.841 163.597 110.897 163.513 110.934 163.421C110.972 163.329 110.991 163.23 110.989 163.13V159.907C110.991 159.808 110.973 159.709 110.935 159.617C110.897 159.525 110.841 159.442 110.77 159.373C110.7 159.302 110.616 159.245 110.524 159.208C110.431 159.17 110.332 159.151 110.232 159.154H97.7649C97.67 159.156 97.5756 159.14 97.4873 159.105C97.399 159.07 97.3188 159.018 97.2516 158.951C97.1843 158.884 97.1314 158.804 97.0961 158.716C97.0608 158.628 97.0438 158.533 97.0462 158.438V153.555C97.0414 153.357 97.1126 153.165 97.2451 153.017C97.3119 152.947 97.3927 152.892 97.4822 152.855C97.5717 152.817 97.6679 152.799 97.7649 152.801H112.597C113.214 152.797 113.824 152.926 114.387 153.178C114.931 153.422 115.429 153.758 115.859 154.172C116.286 154.591 116.624 155.092 116.853 155.644C117.089 156.218 117.208 156.834 117.202 157.455V158.567C117.216 158.583 117.227 158.602 117.234 158.623C117.24 158.643 117.243 158.665 117.24 158.686V168.837C117.244 168.934 117.226 169.03 117.189 169.119C117.151 169.208 117.095 169.288 117.024 169.354C116.881 169.474 116.699 169.539 116.511 169.535H103.151C102.969 169.524 102.79 169.585 102.653 169.704C102.515 169.824 102.43 169.992 102.415 170.173Z" fill="#122F4C"/>
</g>
<defs>
<clipPath id="clip0_724_2359">
<rect width="137.02" height="240" fill="white"/>
</clipPath>
</defs>
</svg>
