<svg width="36" height="36" viewBox="0 0 36 36" fill="none" xmlns="http://www.w3.org/2000/svg">
<path d="M18 3C20.49 3 22.5 5.01 22.5 7.5C22.5 9.99 20.49 12 18 12C15.51 12 13.5 9.99 13.5 7.5C13.5 5.01 15.51 3 18 3ZM30 27L27 18.84C26.475 17.355 26.01 16.065 24 15C21.945 13.95 20.445 13.5 18 13.5C15.585 13.5 14.085 13.95 12 15C10.02 16.065 9.555 17.355 9 18.84L6 27C5.655 28.695 9.57 30.66 12.195 31.785C14.01 32.58 15.96 33 18 33C20.07 33 22.005 32.58 23.835 31.785C26.46 30.66 30.375 28.695 30 27ZM23.13 26.25L18 31.5L12.87 26.25C12.33 25.68 12 24.915 12 24.075C12 22.38 13.35 21 15 21C15.825 21 16.59 21.345 17.13 21.915L18 22.8L18.87 21.9C19.41 21.345 20.175 21 21 21C22.665 21 24 22.38 24 24.075C24 24.915 23.67 25.695 23.13 26.25Z" fill="#0075FF"/>
</svg>
