<svg width="36" height="36" viewBox="0 0 36 36" fill="none" xmlns="http://www.w3.org/2000/svg">
<path d="M30.75 16.5H28.5V10.5C28.5 9.70435 28.1839 8.94129 27.6213 8.37868C27.0587 7.81607 26.2956 7.5 25.5 7.5H19.5V5.25C19.5 4.25544 19.1049 3.30161 18.4017 2.59835C17.6984 1.89509 16.7446 1.5 15.75 1.5C14.7554 1.5 13.8016 1.89509 13.0983 2.59835C12.3951 3.30161 12 4.25544 12 5.25V7.5H6C5.20435 7.5 4.44129 7.81607 3.87868 8.37868C3.31607 8.94129 3 9.70435 3 10.5V16.2H5.25C7.5 16.2 9.3 18 9.3 20.25C9.3 22.5 7.5 24.3 5.25 24.3H3V30C3 30.7956 3.31607 31.5587 3.87868 32.1213C4.44129 32.6839 5.20435 33 6 33H11.7V30.75C11.7 28.5 13.5 26.7 15.75 26.7C18 26.7 19.8 28.5 19.8 30.75V33H25.5C26.2956 33 27.0587 32.6839 27.6213 32.1213C28.1839 31.5587 28.5 30.7956 28.5 30V24H30.75C31.7446 24 32.6984 23.6049 33.4016 22.9016C34.1049 22.1984 34.5 21.2446 34.5 20.25C34.5 19.2554 34.1049 18.3016 33.4016 17.5984C32.6984 16.8951 31.7446 16.5 30.75 16.5Z" fill="#0075FF"/>
</svg>
