<svg width="100%" height="100%" viewBox="0 0 152 255" fill="none" xmlns="http://www.w3.org/2000/svg">
<rect x="0.5" y="0.5" width="151" height="254" rx="9.5" stroke="var(--card-graphics-stroke)"/>
<rect opacity="0.8" x="32.5" y="22.5" width="87" height="210" rx="7.5" stroke="var(--card-graphics-pen-inner-stroke)"/>
<rect x="82.5815" y="114.082" width="22.3265" height="10.6633" transform="rotate(-30.01 82.5815 114.082)" stroke="url(#paint0_linear_7047_688)"/>
<rect x="70.3568" y="146.939" width="22.3265" height="10.6633" transform="rotate(150.245 70.3568 146.939)" stroke="url(#paint1_linear_7047_688)"/>
<path d="M65.3556 102.544L64.8622 102.625L64.9008 102.86L65.1075 102.978L65.3556 102.544ZM80.3958 111.138L80.1477 111.572L80.3932 111.713L80.64 111.574L80.3958 111.138ZM56.0366 45.8109L56.4825 45.5848L55.5432 45.8919L56.0366 45.8109ZM78.334 89.7971L78.7814 90.0204L78.8937 89.7954L78.78 89.5711L78.334 89.7971ZM83.1919 86.6119L82.7508 86.8473L82.9007 87.1281L83.2185 87.1112L83.1919 86.6119ZM60.1656 43.465L60.516 43.1083L59.7245 43.7004L60.1656 43.465ZM100.336 82.9298L100.836 82.9328L100.837 82.7213L100.686 82.5731L100.336 82.9298ZM100.232 100.036L100.476 100.472L100.73 100.33L100.732 100.039L100.232 100.036ZM65.1075 102.978L80.1477 111.572L80.6438 110.704L65.6037 102.109L65.1075 102.978ZM55.5432 45.8919L64.8622 102.625L65.849 102.462L56.5299 45.7298L55.5432 45.8919ZM78.78 89.5711L56.4825 45.5848L55.5906 46.0369L77.888 90.0232L78.78 89.5711ZM78.4137 93.7545C78.0594 92.4551 78.2237 91.1377 78.7814 90.0204L77.8866 89.5739C77.2235 90.9026 77.0275 92.472 77.449 94.0176L78.4137 93.7545ZM84.8775 97.4482C82.0726 98.2131 79.1787 96.5594 78.4137 93.7545L77.449 94.0176C78.3592 97.3553 81.8029 99.3232 85.1406 98.4129L84.8775 97.4482ZM88.5712 90.9844C89.3361 93.7893 87.6824 96.6832 84.8775 97.4482L85.1406 98.4129C88.4784 97.5027 90.4462 94.059 89.536 90.7213L88.5712 90.9844ZM83.2185 87.1112C85.6398 86.9824 87.9074 88.5504 88.5712 90.9844L89.536 90.7213C88.7457 87.8237 86.0469 85.9594 83.1654 86.1126L83.2185 87.1112ZM59.7245 43.7004L82.7508 86.8473L83.6331 86.3765L60.6067 43.2296L59.7245 43.7004ZM100.686 82.5731L60.516 43.1083L59.8152 43.8217L99.9855 83.2865L100.686 82.5731ZM100.732 100.039L100.836 82.9328L99.8359 82.9268L99.7322 100.033L100.732 100.039ZM80.64 111.574L100.476 100.472L99.988 99.5995L80.1516 110.702L80.64 111.574Z" fill="url(#paint2_linear_7047_688)"/>
<path d="M87.5275 158.555L88.0212 158.476L87.9837 158.241L87.7775 158.122L87.5275 158.555ZM72.5257 149.894L72.7757 149.461L72.5308 149.319L72.2834 149.456L72.5257 149.894ZM96.5944 215.328L96.1474 215.552L97.0882 215.249L96.5944 215.328ZM74.4926 171.243L74.0462 171.018L73.9329 171.243L74.0456 171.468L74.4926 171.243ZM69.6206 174.407L70.0627 174.174L69.9141 173.892L69.5962 173.908L69.6206 174.407ZM92.455 217.656L92.103 218.011L92.8971 217.422L92.455 217.656ZM52.4604 178.013L51.9604 178.008L51.9582 178.219L52.1084 178.368L52.4604 178.013ZM52.6401 160.908L52.3978 160.47L52.1432 160.611L52.1401 160.902L52.6401 160.908ZM87.7775 158.122L72.7757 149.461L72.2757 150.327L87.2775 158.988L87.7775 158.122ZM97.0882 215.249L88.0212 158.476L87.0337 158.634L96.1007 215.407L97.0882 215.249ZM74.0456 171.468L96.1474 215.552L97.0414 215.104L74.9396 171.019L74.0456 171.468ZM74.4304 167.286C74.779 168.587 74.6088 169.903 74.0462 171.018L74.939 171.469C75.608 170.143 75.811 168.574 75.3964 167.027L74.4304 167.286ZM67.9831 163.563C70.7914 162.811 73.678 164.477 74.4304 167.286L75.3964 167.027C74.5009 163.685 71.066 161.702 67.7243 162.597L67.9831 163.563ZM64.2608 170.011C63.5083 167.202 65.1749 164.316 67.9831 163.563L67.7243 162.597C64.3826 163.493 62.3994 166.928 63.2948 170.27L64.2608 170.011ZM69.5962 173.908C67.1744 174.026 64.9137 172.448 64.2608 170.011L63.2948 170.27C64.0722 173.171 66.7627 175.047 69.6449 174.907L69.5962 173.908ZM92.8971 217.422L70.0627 174.174L69.1784 174.641L92.0128 217.889L92.8971 217.422ZM52.1084 178.368L92.103 218.011L92.807 217.301L52.8124 177.658L52.1084 178.368ZM52.1401 160.902L51.9604 178.008L52.9603 178.018L53.1401 160.913L52.1401 160.902ZM72.2834 149.456L52.3978 160.47L52.8823 161.345L72.7679 150.331L72.2834 149.456Z" fill="url(#paint3_linear_7047_688)"/>
<path d="M17.813 27.22C21.193 27.22 23.353 24.92 23.353 21.34V15.32C23.353 14.3 23.813 13.76 24.773 13.64L25.233 13.58V13H20.393V13.58L20.853 13.64C21.813 13.76 22.293 14.32 22.293 15.32V21.08C22.293 24.1 20.793 25.98 18.353 25.98C16.173 25.98 14.753 24.42 14.753 22V15.1C14.753 14.18 15.233 13.7 16.173 13.62L16.633 13.58V13H10.773V13.58L11.233 13.62C12.173 13.7 12.653 14.18 12.653 15.1V22.4C12.653 25.36 14.653 27.22 17.813 27.22ZM19.0602 42.9V33.1C19.0602 32.18 19.5402 31.7 20.4802 31.62L20.9402 31.58V31H15.0602V31.58L15.5202 31.62C16.4602 31.7 16.9402 32.18 16.9402 33.1V42.9C16.9402 43.82 16.4602 44.3 15.5202 44.38L15.0602 44.42V45H20.9402V44.42L20.4802 44.38C19.5402 44.3 19.0602 43.82 19.0602 42.9Z" fill="var(--card-graphics-stroke)"/>
<path d="M134.56 232.78C131.18 232.78 129.02 235.08 129.02 238.66L129.02 244.68C129.02 245.7 128.56 246.24 127.6 246.36L127.14 246.42L127.14 247L131.98 247L131.98 246.42L131.52 246.36C130.56 246.24 130.08 245.68 130.08 244.68L130.08 238.92C130.08 235.9 131.58 234.02 134.02 234.02C136.2 234.02 137.62 235.58 137.62 238L137.62 244.9C137.62 245.82 137.14 246.3 136.2 246.38L135.74 246.42L135.74 247L141.6 247L141.6 246.42L141.14 246.38C140.2 246.3 139.72 245.82 139.72 244.9L139.72 237.6C139.72 234.64 137.72 232.78 134.56 232.78ZM137.58 215.58L138 215.62C138.84 215.7 138.98 216.32 138.38 217.1L134.84 221.74L134.58 221.34L135.02 220.76L132.66 217.1C132.14 216.3 132.32 215.7 133.1 215.62L133.52 215.58L133.52 215L127.98 215L127.98 215.58C129.02 215.72 129.58 216.2 130.18 217.1L134.02 222.98L131.04 226.9C130.36 227.78 129.72 228.22 128.72 228.42L128.72 229L132.96 229L132.96 228.42L132.54 228.38C131.66 228.3 131.54 227.7 132.16 226.9L135.02 223.22L135.28 223.58L134.84 224.16L136.6 226.9C137.14 227.74 136.96 228.3 136.16 228.38L135.74 228.42L135.74 229L141.18 229L141.18 228.42C140.18 228.22 139.64 227.76 139.08 226.9L135.88 221.92L139.48 217.1C140.12 216.26 140.76 215.8 141.82 215.58L141.82 215L137.58 215L137.58 215.58Z" fill="var(--card-graphics-stroke)"/>
<defs>
<linearGradient id="paint0_linear_7047_688" x1="93.5617" y1="113.899" x2="93.5617" y2="125.563" gradientUnits="userSpaceOnUse">
<stop stop-color="var(--card-graphics-pen-gradient-light)"/>
<stop offset="1" stop-color="var(--card-graphics-pen-gradient-dark)" stop-opacity="0.1"/>
</linearGradient>
<linearGradient id="paint1_linear_7047_688" x1="82.7023" y1="147.125" x2="82.7023" y2="158.788" gradientUnits="userSpaceOnUse">
<stop stop-color="var(--card-graphics-pen-gradient-light)"/>
<stop offset="1" stop-color="var(--card-graphics-pen-gradient-dark)" stop-opacity="0.1"/>
</linearGradient>
<linearGradient id="paint2_linear_7047_688" x1="65.166" y1="101.848" x2="127.349" y2="83.3963" gradientUnits="userSpaceOnUse">
<stop stop-color="var(--card-graphics-pen-gradient-light)"/>
<stop offset="1" stop-color="var(--card-graphics-pen-gradient-dark)" stop-opacity="0.1"/>
</linearGradient>
<linearGradient id="paint3_linear_7047_688" x1="87.714" y1="159.251" x2="25.4493" y2="177.426" gradientUnits="userSpaceOnUse">
<stop stop-color="var(--card-graphics-pen-gradient-light)"/>
<stop offset="1" stop-color="var(--card-graphics-pen-gradient-dark)" stop-opacity="0.1"/>
</linearGradient>
</defs>
</svg>
