<svg width="100%" height="100%" viewBox="0 0 152 255" fill="none" xmlns="http://www.w3.org/2000/svg">
<rect opacity="0.8" x="28.5" y="22.5" width="96" height="210" rx="7.5" stroke="var(--card-graphics-pen-inner-stroke)"/>
<rect x="0.5" y="0.5" width="151" height="254" rx="9.5" stroke="var(--card-graphics-stroke)"/>
<path d="M9.11484 27H15.0548C19.3548 27 22.6748 23.92 22.6748 19.9C22.6748 15.92 19.4748 13 15.0948 13H9.11484V13.58L9.57484 13.62C10.5148 13.7 10.9948 14.18 10.9948 15.1V24.9C10.9948 25.82 10.5148 26.3 9.57484 26.38L9.11484 26.42V27ZM12.3948 26.18V25.78H13.1148V14.22H12.3948V13.82H14.9948C18.1748 13.82 20.3348 16.32 20.3348 19.98C20.3348 23.78 18.2148 26.18 14.8148 26.18H12.3948ZM13.9938 43.78V38.2H16.0938C17.0938 38.2 17.5538 38.62 17.8338 39.8L17.9938 40.48H18.6538V35.2H17.9938L17.8338 35.88C17.5538 37.08 17.0938 37.5 16.0938 37.5H13.9938V32.22H13.2738V31.82H17.6338C19.1938 31.82 20.0538 32.56 20.5338 34.3L20.9738 35.88H21.6138L21.3738 31H9.99375V31.58L10.4538 31.62C11.3938 31.7 11.8738 32.18 11.8738 33.1V42.9C11.8738 43.82 11.3938 44.3 10.4538 44.38L9.99375 44.42V45H21.3338L21.9738 40.02H21.3138L20.9538 41.32C20.4138 43.28 19.4138 44.18 17.7738 44.18H13.2738V43.78H13.9938ZM12.813 51.04C12.493 50.26 12.773 49.7 13.593 49.62L13.933 49.58V49H8.91297V49.54C9.75297 49.72 10.193 50.14 10.593 51.06L15.973 63.66H16.013L21.353 51.22C21.733 50.34 22.333 49.74 23.093 49.54V49H19.013V49.58L19.353 49.62C20.393 49.74 20.673 50.42 20.153 51.64L16.293 60.62L16.073 60.12L16.353 59.46L12.813 51.04Z" fill="var(--card-graphics-stroke)"/>
<path d="M130.115 207H136.055C140.355 207 143.675 203.92 143.675 199.9C143.675 195.92 140.475 193 136.095 193H130.115V193.58L130.575 193.62C131.515 193.7 131.995 194.18 131.995 195.1V204.9C131.995 205.82 131.515 206.3 130.575 206.38L130.115 206.42V207ZM133.395 206.18V205.78H134.115V194.22H133.395V193.82H135.995C139.175 193.82 141.335 196.32 141.335 199.98C141.335 203.78 139.215 206.18 135.815 206.18H133.395ZM134.994 223.78V218.2H137.094C138.094 218.2 138.554 218.62 138.834 219.8L138.994 220.48H139.654V215.2H138.994L138.834 215.88C138.554 217.08 138.094 217.5 137.094 217.5H134.994V212.22H134.274V211.82H138.634C140.194 211.82 141.054 212.56 141.534 214.3L141.974 215.88H142.614L142.374 211H130.994V211.58L131.454 211.62C132.394 211.7 132.874 212.18 132.874 213.1V222.9C132.874 223.82 132.394 224.3 131.454 224.38L130.994 224.42V225H142.334L142.974 220.02H142.314L141.954 221.32C141.414 223.28 140.414 224.18 138.774 224.18H134.274V223.78H134.994ZM133.813 231.04C133.493 230.26 133.773 229.7 134.593 229.62L134.933 229.58V229H129.913V229.54C130.753 229.72 131.193 230.14 131.593 231.06L136.973 243.66H137.013L142.353 231.22C142.733 230.34 143.333 229.74 144.093 229.54V229H140.013V229.58L140.353 229.62C141.393 229.74 141.673 230.42 141.153 231.64L137.293 240.62L137.073 240.12L137.353 239.46L133.813 231.04Z" fill="var(--card-graphics-stroke)"/>
<mask id="mask0_7047_690" style="mask-type:alpha" maskUnits="userSpaceOnUse" x="42" y="47" width="74" height="66">
<path d="M86.0028 87.5899L90.5576 80.7803L83.6687 76.658" stroke="#307DC5"/>
<path d="M71.2121 78.7948L66.6573 85.6045L73.5461 89.7268" stroke="#307DC5"/>
<path d="M81.1504 73.9987L75.8924 91.3848" stroke="#307DC5"/>
<rect x="115.091" y="100.634" width="65" height="47.7385" transform="rotate(170.262 115.091 100.634)" stroke="#307DC5"/>
<rect x="110.399" y="97.3183" width="56.8769" height="39.6154" transform="rotate(170.262 110.399 97.3183)" stroke="#307DC5"/>
<rect x="80.8078" y="57.0508" width="12.1692" height="4.04615" transform="rotate(170.262 80.8078 57.0508)" stroke="#307DC5"/>
<rect x="92.1492" y="50.999" width="36.5692" height="3.06154" transform="rotate(170.262 92.1492 50.999)" stroke="#307DC5"/>
</mask>
<g mask="url(#mask0_7047_690)">
<rect x="125.578" y="105.57" width="85" height="120" transform="rotate(170.262 125.578 105.57)" fill="url(#paint0_linear_7047_690)"/>
</g>
<mask id="mask1_7047_690" style="mask-type:alpha" maskUnits="userSpaceOnUse" x="44" y="153" width="71" height="63">
<path d="M72.78 176.12L68.0827 182.68L74.7343 186.954" stroke="#307DC5"/>
<path d="M87.0598 185.241L91.7572 178.681L85.1056 174.407" stroke="#307DC5"/>
<path d="M77.128 189.65L82.8496 172.702" stroke="#307DC5"/>
<rect x="44.5641" y="162.373" width="64" height="47" transform="rotate(-7.91122 44.5641 162.373)" stroke="#307DC5"/>
<rect x="49.0758" y="165.784" width="56" height="39" transform="rotate(-7.91122 49.0758 165.784)" stroke="#307DC5"/>
<rect x="76.9242" y="206.337" width="12" height="4" transform="rotate(-7.91122 76.9242 206.337)" stroke="#307DC5"/>
<rect x="65.5875" y="211.951" width="36" height="3" transform="rotate(-7.91122 65.5875 211.951)" stroke="#307DC5"/>
</mask>
<g mask="url(#mask1_7047_690)">
<rect x="34.2617" y="157.242" width="84" height="139" transform="rotate(-7.91122 34.2617 157.242)" fill="url(#paint1_linear_7047_690)"/>
</g>
<path d="M64 153V135H91.5V110" stroke="var(--card-graphics-code-gradient-light)" stroke-dasharray="1 2"/>
<defs>
<linearGradient id="paint0_linear_7047_690" x1="168.078" y1="105.57" x2="168.078" y2="225.57" gradientUnits="userSpaceOnUse">
<stop stop-color="var(--card-graphics-code-gradient-light)"/>
<stop stop-color="var(--card-graphics-code-gradient-dark)" stop-opacity="0" offset="1"/>
</linearGradient>
<linearGradient id="paint1_linear_7047_690" x1="76.2617" y1="157.242" x2="76.2617" y2="296.242" gradientUnits="userSpaceOnUse">
<stop stop-color="var(--card-graphics-code-gradient-light)"/>
<stop stop-color="var(--card-graphics-code-gradient-dark)" stop-opacity="0" offset="1"/>
</linearGradient>
</defs>
</svg>
