<svg width="100%" height="100%" viewBox="0 0 152 255" fill="none" xmlns="http://www.w3.org/2000/svg">
<rect opacity="0.8" x="28.5" y="22.5" width="96" height="210" rx="7.5" stroke="var(--card-graphics-clipboard-inner-stroke)"/>
<rect x="0.5" y="0.5" width="151" height="254" rx="9.5" stroke="var(--card-graphics-stroke)"/>
<path d="M20.1212 20.14C20.1212 18.34 18.9212 17.02 16.8612 16.5C18.3612 15.92 19.3212 14.76 19.3212 13.44C19.3212 11.36 17.3612 10 14.3612 10H8.10117V10.58L8.56117 10.62C9.50117 10.7 9.98117 11.18 9.98117 12.1V21.9C9.98117 22.82 9.50117 23.3 8.56117 23.38L8.10117 23.42V24H14.8612C18.0412 24 20.1212 22.48 20.1212 20.14ZM14.2212 16.28H12.1012V11.22H11.3812V10.82H14.0812C16.0212 10.82 17.1412 11.84 17.1412 13.58C17.1412 15.24 16.0212 16.28 14.2212 16.28ZM14.4812 23.18H11.3812V22.78H12.1012V16.98H14.5812C16.6412 16.98 17.9012 18.16 17.9012 20.06C17.9012 22.04 16.6412 23.18 14.4812 23.18ZM14.0084 42.22C17.3884 42.22 19.5484 39.92 19.5484 36.34V30.32C19.5484 29.3 20.0084 28.76 20.9684 28.64L21.4284 28.58V28H16.5884V28.58L17.0484 28.64C18.0084 28.76 18.4884 29.32 18.4884 30.32V36.08C18.4884 39.1 16.9884 40.98 14.5484 40.98C12.3684 40.98 10.9484 39.42 10.9484 37V30.1C10.9484 29.18 11.4284 28.7 12.3684 28.62L12.8284 28.58V28H6.96836V28.58L7.42836 28.62C8.36836 28.7 8.84836 29.18 8.84836 30.1V37.4C8.84836 40.36 10.8484 42.22 14.0084 42.22ZM14.1708 60.22C17.0308 60.22 18.9508 58.54 18.9508 56.04C18.9508 54.42 18.0508 53.18 16.4308 52.54L12.7508 51.1C11.6108 50.64 10.9708 49.84 10.9708 48.86C10.9708 47.54 11.8908 46.7 13.2908 46.7C14.9708 46.7 16.1108 47.62 16.9908 49.68L17.3508 50.52H18.0508L17.9908 45.84L16.5508 46.66C16.6308 46.72 17.0708 47.24 17.1708 47.4L17.1908 48.14C16.3508 46.64 14.9908 45.8 13.3508 45.8C10.9308 45.8 9.25078 47.4 9.25078 49.72C9.25078 51.22 10.0708 52.34 11.6508 52.98L15.0708 54.34C16.3908 54.86 17.1108 55.74 17.1108 56.82C17.1108 58.34 15.9908 59.32 14.2108 59.32C12.5108 59.32 11.2508 58.38 10.3708 56.44L9.85078 55.3H9.15078L9.21078 60.18L10.6908 59.3C10.5508 59.18 10.1308 58.8 10.0708 58.72L10.0508 58.04C11.1708 59.5 12.5508 60.22 14.1708 60.22Z" fill="var(--card-graphics-stroke)"/>
<path d="M143.121 206.14C143.121 204.34 141.921 203.02 139.861 202.5C141.361 201.92 142.321 200.76 142.321 199.44C142.321 197.36 140.361 196 137.361 196H131.101V196.58L131.561 196.62C132.501 196.7 132.981 197.18 132.981 198.1V207.9C132.981 208.82 132.501 209.3 131.561 209.38L131.101 209.42V210H137.861C141.041 210 143.121 208.48 143.121 206.14ZM137.221 202.28H135.101V197.22H134.381V196.82H137.081C139.021 196.82 140.141 197.84 140.141 199.58C140.141 201.24 139.021 202.28 137.221 202.28ZM137.481 209.18H134.381V208.78H135.101V202.98H137.581C139.641 202.98 140.901 204.16 140.901 206.06C140.901 208.04 139.641 209.18 137.481 209.18ZM137.008 228.22C140.388 228.22 142.548 225.92 142.548 222.34V216.32C142.548 215.3 143.008 214.76 143.968 214.64L144.428 214.58V214H139.588V214.58L140.048 214.64C141.008 214.76 141.488 215.32 141.488 216.32V222.08C141.488 225.1 139.988 226.98 137.548 226.98C135.368 226.98 133.948 225.42 133.948 223V216.1C133.948 215.18 134.428 214.7 135.368 214.62L135.828 214.58V214H129.968V214.58L130.428 214.62C131.368 214.7 131.848 215.18 131.848 216.1V223.4C131.848 226.36 133.848 228.22 137.008 228.22ZM137.171 246.22C140.031 246.22 141.951 244.54 141.951 242.04C141.951 240.42 141.051 239.18 139.431 238.54L135.751 237.1C134.611 236.64 133.971 235.84 133.971 234.86C133.971 233.54 134.891 232.7 136.291 232.7C137.971 232.7 139.111 233.62 139.991 235.68L140.351 236.52H141.051L140.991 231.84L139.551 232.66C139.631 232.72 140.071 233.24 140.171 233.4L140.191 234.14C139.351 232.64 137.991 231.8 136.351 231.8C133.931 231.8 132.251 233.4 132.251 235.72C132.251 237.22 133.071 238.34 134.651 238.98L138.071 240.34C139.391 240.86 140.111 241.74 140.111 242.82C140.111 244.34 138.991 245.32 137.211 245.32C135.511 245.32 134.251 244.38 133.371 242.44L132.851 241.3H132.151L132.211 246.18L133.691 245.3C133.551 245.18 133.131 244.8 133.071 244.72L133.051 244.04C134.171 245.5 135.551 246.22 137.171 246.22Z" fill="var(--card-graphics-stroke)"/>
<mask id="mask0_7047_689" style="mask-type:alpha" maskUnits="userSpaceOnUse" x="57" y="144" width="52" height="73">
<path d="M93.5039 171.02L96.0999 178.878" stroke="#C5975F"/>
<path d="M93.7841 162.524C91.9059 162.462 90.06 163.024 88.5351 164.122C87.0102 165.22 85.8923 166.793 85.3561 168.594C84.8199 170.395 84.8957 172.323 85.5716 174.077C86.2476 175.83 87.4856 177.31 89.092 178.286C90.6984 179.261 92.5827 179.676 94.4502 179.467C96.3178 179.257 98.0632 178.435 99.4137 177.128C100.764 175.821 101.643 174.103 101.914 172.244C102.185 170.384 101.832 168.487 100.91 166.85L93.5028 171.02L93.7841 162.524Z" stroke="#C5975F" stroke-linejoin="round"/>
<path d="M95.7398 167.759L95.9883 162.754C98.3548 163.033 99.4566 164.589 99.7283 165.191L95.7398 167.759Z" stroke="#C5975F"/>
<path d="M93.5036 171.019L85.2383 168.532" stroke="#C5975F"/>
<path fill-rule="evenodd" clip-rule="evenodd" d="M75.0803 152.228L65.1493 151.055L64.1563 150.938L64.0389 151.931L57.1175 210.523L57.0002 211.516L57.9933 211.634L100.696 216.678L101.69 216.795L101.807 215.802L108.728 157.21L108.846 156.217L107.852 156.099L97.9215 154.926L97.8042 155.919L107.735 157.092L100.814 215.685L58.1106 210.641L65.032 152.048L74.963 153.221L75.0803 152.228Z" fill="#C5975F"/>
<path d="M80.8356 150.391C80.928 149.608 81.1737 148.852 81.5585 148.164C81.9434 147.477 82.4599 146.871 83.0785 146.384C83.6972 145.896 84.4059 145.534 85.1642 145.32C85.9225 145.106 86.7155 145.044 87.498 145.136C88.2805 145.228 89.0371 145.474 89.7247 145.859C90.4122 146.244 91.0173 146.76 91.5052 147.379C91.9932 147.998 92.3545 148.706 92.5685 149.465C92.7826 150.223 92.8452 151.016 92.7527 151.798" stroke="#C5975F"/>
<circle cx="86.9121" cy="150.101" r="2" transform="rotate(6.73699 86.9121 150.101)" stroke="#C5975F"/>
<path d="M68.7617 171.621L80.6789 173.029" stroke="#C5975F"/>
<path d="M69.4648 165.662L81.382 167.07" stroke="#C5975F"/>
<path d="M75.0625 186.463L97.9037 189.161" stroke="#C5975F"/>
<path d="M73.3047 201.359L96.1459 204.058" stroke="#C5975F"/>
<path d="M74.2422 193.414L97.0834 196.112" stroke="#C5975F"/>
<path fill-rule="evenodd" clip-rule="evenodd" d="M81.4494 149.457L77.477 148.987L76.9805 148.929L76.9218 149.425L76.2179 155.384L76.1593 155.88L76.6558 155.939L95.5246 158.168L96.0212 158.227L96.0798 157.73L96.7837 151.771L96.8424 151.275L96.3458 151.216L92.3734 150.747L92.2561 151.74L95.732 152.151L95.1454 157.116L77.2697 155.005L77.8563 150.039L81.3321 150.45L81.4494 149.457Z" fill="#C5975F"/>
<path d="M67.2341 184.531L68.927 187.248L72.9308 183.19" stroke="#C5975F"/>
<path d="M66.4138 191.483L68.1067 194.201L72.1105 190.142" stroke="#C5975F"/>
<path d="M65.4763 199.428L67.1692 202.145L71.173 198.087" stroke="#C5975F"/>
</mask>
<g mask="url(#mask0_7047_689)">
<rect x="53.4727" y="130.544" width="68" height="91" transform="rotate(6.73699 53.4727 130.544)" fill="url(#paint0_linear_7047_689)"/>
</g>
<mask id="mask1_7047_689" style="mask-type:alpha" maskUnits="userSpaceOnUse" x="51" y="44" width="59" height="79">
<path d="M68.4414 93.9072L65.8369 85.3071" stroke="#C5975F"/>
<path d="M67.9061 103.119C69.943 103.238 71.9617 102.678 73.6466 101.527C75.3314 100.377 76.5875 98.7 77.2183 96.7596C77.8491 94.8193 77.8192 92.7246 77.1331 90.8031C76.447 88.8816 75.1434 87.2416 73.4263 86.1396C71.7092 85.0376 69.6753 84.5358 67.6426 84.7125C65.61 84.8892 63.6932 85.7345 62.192 87.1163C60.6908 88.4981 59.6898 90.3384 59.3456 92.3494C59.0014 94.3605 59.3334 96.429 60.2895 98.2314L68.4419 93.9064L67.9061 103.119Z" stroke="#C5975F" stroke-linejoin="round"/>
<path d="M65.9211 97.3845L65.5156 102.811C62.9546 102.443 61.801 100.725 61.5224 100.064L65.9211 97.3845Z" stroke="#C5975F"/>
<path d="M68.4402 93.9068L77.3438 96.8301" stroke="#C5975F"/>
<path fill-rule="evenodd" clip-rule="evenodd" d="M87.9244 114.802L98.7562 116.357L99.7461 116.499L99.8882 115.509L109.014 51.9322L109.156 50.9424L108.166 50.8003L61.7845 44.1426L60.7946 44.0006L60.6525 44.9904L51.5267 108.567L51.3846 109.557L52.3745 109.699L63.2063 111.254L63.3484 110.264L52.5166 108.709L61.6424 45.1325L108.024 51.7901L98.8983 115.367L88.0665 113.812L87.9244 114.802Z" fill="#C5975F"/>
<path d="M81.6718 116.647C81.5495 117.499 81.2605 118.319 80.8212 119.059C80.382 119.8 79.8012 120.447 79.112 120.963C78.4228 121.479 77.6386 121.855 76.8043 122.068C75.97 122.281 75.1019 122.328 74.2496 122.205C73.3972 122.083 72.5773 121.794 71.8366 121.355C71.096 120.916 70.4491 120.335 69.9329 119.646C69.4167 118.956 69.0413 118.172 68.8281 117.338C68.615 116.504 68.5683 115.636 68.6906 114.783" stroke="#C5975F"/>
<circle cx="75.027" cy="116.789" r="2.21429" transform="rotate(-171.832 75.027 116.789)" stroke="#C5975F"/>
<path d="M95.3086 93.9248L82.4122 92.0737" stroke="#C5975F"/>
<path d="M94.3867 100.373L81.4903 98.5219" stroke="#C5975F"/>
<path d="M88.8711 77.6445L64.153 74.0965" stroke="#C5975F"/>
<path d="M91.1875 61.5244L66.4694 57.9764" stroke="#C5975F"/>
<path d="M89.9531 70.1221L65.235 66.574" stroke="#C5975F"/>
<path fill-rule="evenodd" clip-rule="evenodd" d="M80.9446 117.595L85.2434 118.212L85.7383 118.283L85.8093 117.788L86.7349 111.34L86.8059 110.845L86.311 110.774L65.8917 107.843L65.3968 107.772L65.3258 108.267L64.4002 114.715L64.3291 115.21L64.8241 115.281L69.1229 115.898L69.2649 114.908L65.4611 114.362L66.2446 108.904L85.674 111.693L84.8905 117.151L81.0866 116.605L80.9446 117.595Z" fill="#C5975F"/>
<path d="M97.3163 79.9541L95.5526 76.9588L91.097 81.2551" stroke="#C5975F"/>
<path d="M98.3945 72.4307L96.6307 69.4354L92.1751 73.7316" stroke="#C5975F"/>
<path d="M99.6288 63.833L97.8651 60.8378L93.4095 65.134" stroke="#C5975F"/>
</mask>
<g mask="url(#mask1_7047_689)">
<rect x="110.789" y="138.924" width="73.8286" height="98.8" transform="rotate(-171.832 110.789 138.924)" fill="url(#paint1_linear_7047_689)"/>
</g>
<defs>
<linearGradient id="paint0_linear_7047_689" x1="87.4727" y1="166.044" x2="87.4727" y2="215.044" gradientUnits="userSpaceOnUse">
<stop stop-color="var(--card-graphics-clipboard-gradient-light)"/>
<stop offset="1" stop-color="var(--card-graphics-clipboard-gradient-dark)" stop-opacity="0.53"/>
</linearGradient>
<linearGradient id="paint1_linear_7047_689" x1="147.703" y1="177.467" x2="147.703" y2="230.667" gradientUnits="userSpaceOnUse">
<stop stop-color="var(--card-graphics-clipboard-gradient-light)"/>
<stop offset="1" stop-color="var(--card-graphics-clipboard-gradient-dark)" stop-opacity="0.51"/>
</linearGradient>
</defs>
</svg>
