<svg width="1018" height="1040" viewBox="0 0 1018 1040" fill="none" xmlns="http://www.w3.org/2000/svg">
<path fill-rule="evenodd" clip-rule="evenodd" d="M250.881 518.012C188.089 468.233 147.814 391.287 147.814 304.934C147.814 154.844 269.485 33.1727 419.575 33.1727C460.72 33.1727 499.729 42.3164 534.682 58.6827C488.336 21.9413 429.724 0 365.988 0C215.899 0 94.2271 121.671 94.2271 271.761C94.2271 380.705 158.333 474.677 250.881 518.012Z" fill="#FAF4E6"/>
<path d="M298.383 167.766C305.09 150.161 326.049 134.232 345.331 149.322C352.038 157.706 360.924 176.149 342.816 182.856C344.493 185.371 360.421 185.371 367.128 182.856C373.835 180.341 385.572 181.179 383.057 187.048C380.542 192.916 367.128 191.24 348.684 195.431C330.241 199.623 326.887 202.977 314.312 202.138C301.737 201.3 314.312 197.108 294.191 198.785C274.071 200.461 207.841 206.33 211.194 197.108C214.548 187.886 232.992 192.916 243.052 192.916C253.112 192.916 258.142 184.533 265.687 182.856C273.233 181.179 271.556 188.724 276.586 188.724C281.616 188.724 291.676 185.371 298.383 167.766Z" fill="white"/>
<path fill-rule="evenodd" clip-rule="evenodd" d="M277.962 200.105C281.345 199.033 284.391 196.659 286.968 194.65C287.159 194.501 287.347 194.355 287.532 194.211C288.147 193.734 288.74 193.233 289.332 192.732C290.611 191.652 291.883 190.577 293.359 189.756C295.154 188.757 296.703 188.045 298.814 188.128C300.653 188.2 302.332 188.825 304.028 189.456C304.163 189.507 304.299 189.557 304.434 189.607C305.453 189.984 306.411 190.498 307.368 191.01C308.753 191.752 310.135 192.493 311.691 192.814C314.423 193.379 317.416 193.775 319.8 192.037C319.953 191.926 320.11 191.814 320.268 191.701C321.83 190.587 323.574 189.344 323.974 186.748C324.027 186.402 324.072 186.003 324.117 185.599C324.262 184.314 324.413 182.971 324.858 183.069C326.759 183.492 328.925 183.629 330.884 183.656C331.923 183.671 332.963 183.666 334.003 183.661C334.522 183.659 335.042 183.656 335.562 183.656C335.878 183.656 336.199 183.665 336.521 183.674C337.168 183.692 337.821 183.71 338.455 183.656C339.93 183.531 341.422 183.266 342.896 182.962C344.942 185.371 360.517 185.336 367.128 182.856C373.835 180.341 385.572 181.18 383.057 187.048C381.479 190.731 375.607 191.442 366.893 192.498C361.723 193.124 355.553 193.871 348.685 195.432C342.363 196.868 337.814 198.207 334.058 199.312C326.858 201.43 322.577 202.689 314.312 202.138C308.947 201.781 308.16 200.813 307.459 199.951C306.516 198.792 305.729 197.824 294.192 198.785C293.511 198.842 292.777 198.903 291.995 198.969C288.258 199.282 283.417 199.688 277.962 200.105Z" fill="#EBEDFF"/>
<path d="M174.815 281.171C205.85 283.598 208.885 310.738 211.586 315.991C218.79 312.689 228.096 312.989 234.699 315.991C241.303 318.993 251.091 331.214 261.865 330.399C275.906 329.338 277.182 333.877 290.38 334.602C301.448 335.209 331.203 334.602 331.203 338.354C331.204 340.952 331.203 343.244 326.251 343.457C317.095 343.849 225.404 345.593 209.936 343.457C214.438 358.915 180.668 358.615 164.609 356.664C133.691 367.62 107.426 359.666 97.2203 347.959C70.0549 346.158 -8.28857 355.764 0.716553 347.959C9.72168 340.155 27.882 351.861 51.1453 343.457C74.4085 335.052 98.8724 335.202 105.926 332.65C103.375 325.747 118.834 314.79 129.189 315.991C121.385 296.63 147.95 279.07 174.815 281.171Z" fill="white"/>
<path fill-rule="evenodd" clip-rule="evenodd" d="M49.6411 349.386C50.6655 349.149 51.6853 348.898 52.6991 348.63C54.4028 348.18 55.8759 347.384 57.3654 346.579C58.1462 346.157 58.9315 345.732 59.7569 345.354C59.8979 345.289 60.046 345.22 60.1998 345.148C61.3488 344.611 62.8152 343.925 63.9916 343.925C64.9127 343.925 65.7623 344.143 66.6157 344.362C67.3705 344.556 68.1282 344.751 68.9408 344.796C71.6336 344.946 74.7454 344.959 77.3057 344.012C78.2951 343.646 78.9208 342.998 79.5524 342.345C79.991 341.891 80.4323 341.434 81.0002 341.067C81.6745 340.63 83.0246 341.429 84.1583 342.1C84.7339 342.441 85.2536 342.748 85.6009 342.844C87.735 343.435 90.1216 343.366 92.3544 343.302C92.6268 343.294 92.897 343.286 93.1641 343.28C94.7126 343.242 96.0509 343.199 97.2071 342.077C97.2203 342.065 97.2394 342.047 97.2633 342.024C97.575 341.729 98.7051 340.659 98.2004 340.457C96.8564 339.919 99.2127 340.102 101.591 340.286C102.801 340.38 104.016 340.474 104.753 340.474C109.278 340.474 111.086 344.208 112.88 347.915C113.959 350.143 115.033 352.362 116.69 353.753C118.375 355.169 118.804 352.199 119.215 349.35C119.564 346.935 119.9 344.607 120.977 345.11C121.677 345.436 121.845 344.421 122.003 343.469C122.191 342.33 122.364 341.282 123.417 342.74C123.814 343.289 124.14 343.883 124.466 344.477C124.832 345.145 125.198 345.812 125.665 346.417C127.024 348.176 129.01 348.545 131.092 348.932L131.155 348.944C131.64 349.034 132.125 349.126 132.611 349.218C136.018 349.865 139.426 350.512 142.9 350.512C145.067 350.512 145.744 347.233 146.002 345.423C146.601 341.229 145.178 336.947 143.852 332.957C143.695 332.484 143.539 332.016 143.388 331.552C143.174 330.892 142.664 330.077 142.146 329.247C141.169 327.682 140.16 326.066 141.035 325.348C141.033 325.345 141.033 325.344 141.035 325.348L141.035 325.348C141.164 325.58 150.266 339.156 150.847 339.255C151.861 339.427 151.22 335.311 150.674 331.803C150.324 329.557 150.013 327.56 150.2 327.098C150.388 326.635 150.383 326.703 150.364 326.98C150.335 327.41 150.271 328.345 150.847 328.554C151.216 328.688 151.348 329.012 151.483 329.341C151.576 329.567 151.669 329.795 151.84 329.966C152.647 330.773 153.62 331.444 154.595 332.117C155.468 332.719 156.343 333.322 157.103 334.026C157.293 334.202 157.477 334.394 157.662 334.588C158.055 334.999 158.454 335.416 158.933 335.699C159.184 335.848 159.467 335.91 159.747 335.972C160.037 336.036 160.324 336.1 160.571 336.257C161.208 336.662 161.826 336.773 162.552 336.902C162.645 336.919 162.74 336.936 162.836 336.954C163.293 337.039 163.095 336.442 162.82 335.613C162.357 334.217 161.674 332.16 163.533 331.587C163.565 331.616 163.615 331.664 163.679 331.726C164.27 332.297 166.094 334.06 166.566 333.364C167.271 332.323 166.846 329.608 166.56 327.78C166.474 327.233 166.401 326.765 166.374 326.446C166.299 325.556 166.212 324.663 166.124 323.767C165.821 320.677 165.515 317.557 165.729 314.473C165.755 314.11 166.34 309.171 166.879 311.964C167.732 316.381 168.604 320.434 171.376 324.145C174.599 328.461 179.272 331.799 184.515 333.155C190.522 334.709 195.671 327.777 197.969 323.117C198.729 321.575 199.255 319.908 199.577 318.209C199.557 317.259 199.573 316.314 199.712 315.38C199.865 314.343 200.012 314.277 199.921 315.554C199.857 316.439 199.745 317.328 199.577 318.209C199.586 318.613 199.601 319.019 199.617 319.425C199.67 320.825 199.723 322.226 199.502 323.605C199.465 323.842 199.424 324.083 199.382 324.328C198.946 326.914 198.439 329.916 200.583 331.831C202.989 333.979 206.434 335.142 209.627 335.142C211.02 335.142 212.326 335.099 213.688 334.758C215.717 334.251 216.176 330.864 216.434 328.967C216.461 328.764 216.486 328.578 216.511 328.415C216.592 327.875 216.637 327.022 216.683 326.144C216.788 324.158 216.899 322.046 217.452 323.152C217.617 323.482 217.559 324.068 217.519 324.473C217.514 324.531 217.508 324.584 217.504 324.633C217.469 325.043 217.873 326.384 218.189 326.647C219.004 327.326 219.773 327.498 220.607 327.685C221.135 327.803 221.689 327.927 222.297 328.188C226.378 329.945 230.001 330.037 232.683 326.045C232.862 325.779 233.067 325.444 233.283 325.093C234.334 323.382 235.626 321.279 235.245 324.79C234.872 328.216 235.683 329.248 238.782 330.924C239.963 331.563 241.175 332.044 242.383 332.523C243.933 333.138 245.476 333.75 246.938 334.689C248.214 335.507 249.64 336.077 251.068 336.647C252.486 337.213 253.905 337.78 255.181 338.592C255.39 338.725 255.591 338.998 255.78 339.254C255.965 339.506 256.138 339.742 256.296 339.812C256.792 340.032 257.701 339.982 258.452 339.941C258.787 339.923 259.091 339.906 259.311 339.917C259.915 339.944 260.536 339.991 261.165 340.038C263.361 340.202 265.665 340.374 267.728 339.795C268.195 339.664 268.611 339.369 269.022 339.077C269.476 338.755 269.925 338.437 270.429 338.348C272.118 338.05 273.385 338.943 274.66 339.84C275.755 340.612 276.857 341.388 278.237 341.415C279.373 341.438 280.508 341.433 281.642 341.428C283.801 341.418 285.957 341.408 288.118 341.59C294.614 342.135 301.139 342.873 307.585 343.901C277.466 344.463 221.69 345.08 209.935 343.457C214.438 358.915 180.668 358.615 164.608 356.664C133.691 367.621 107.426 359.666 97.2201 347.959C86.4956 347.248 67.7948 348.315 49.6411 349.386Z" fill="#EDEFFF"/>
<path fill-rule="evenodd" clip-rule="evenodd" d="M631.897 817.151C629.914 822.283 621.039 817.709 617.151 810.631C614.459 805.737 621.317 778.219 622.733 774.87C624.512 770.659 630.978 773.859 631.969 776.686C634.197 783.076 629.946 811.438 631.897 817.151Z" fill="#FF9C01"/>
<path fill-rule="evenodd" clip-rule="evenodd" d="M547.729 616.209C546.977 608.929 545.2 605.912 547.12 604.407C550.229 601.978 555.358 607.248 559.026 604.932C561.84 603.157 561.758 598.383 558.987 596.141C556.195 593.918 556.756 591.171 553.613 588.725C547.916 584.348 539.388 578.352 536.352 568.653C536.139 571.618 536.064 574.586 536.163 577.58C536.538 589.496 539.538 601.879 547.729 616.209Z" fill="#4349EC"/>
<path fill-rule="evenodd" clip-rule="evenodd" d="M557.388 613.103C562.696 615.669 564.883 619.672 567.911 629.606C572.563 644.831 564.319 659.578 564.357 675.277C564.372 681.735 564.578 693.327 572.586 698.476C536.586 686.865 558.926 646.899 526.762 644.941L557.388 613.103Z" fill="url(#paint0_linear_1046_88)"/>
<path fill-rule="evenodd" clip-rule="evenodd" d="M537.407 563.547C540.916 590.489 580.752 613.816 569.39 637.676C567.045 642.624 557.985 642.905 555.11 639.776C552.553 637 546.855 638.905 548.084 642.419C547.766 646.436 544.953 646.873 542.949 649.196C538.372 654.524 530.804 653.136 524.248 647.974C509.621 636.485 501.056 616.894 497.942 586.054C505.103 551.264 519.891 546.313 537.407 563.547Z" fill="#5A60F3"/>
<path fill-rule="evenodd" clip-rule="evenodd" d="M530.822 560.095C524.032 561.987 516.842 565.319 509.288 569.969C514.435 590.246 523.358 602.629 536.033 607.167C545.763 610.628 549.329 614.633 563.411 608.944C553.754 593.113 539.125 578.265 537.248 565C535.269 563.068 532.752 561.458 530.822 560.095Z" fill="url(#paint1_linear_1046_88)"/>
<path fill-rule="evenodd" clip-rule="evenodd" d="M536.185 630.291C546.521 626.467 550.976 639.32 554.29 650.966C561.794 656.008 564.927 661.483 560.661 664.817C557.187 667.524 547.381 661.431 543.808 656.351C531.285 653.969 518.3 648.104 511.589 633.408L536.185 630.291Z" fill="#5A60F3"/>
<path fill-rule="evenodd" clip-rule="evenodd" d="M536.185 630.291C546.521 626.467 550.976 639.32 554.29 650.966C561.794 656.008 564.927 661.483 560.661 664.817C557.187 667.524 547.381 661.431 543.808 656.351C531.285 653.969 518.3 648.104 511.589 633.408L536.185 630.291Z" fill="url(#paint2_linear_1046_88)"/>
<path fill-rule="evenodd" clip-rule="evenodd" d="M676.666 896.066C673.902 889.302 673.071 882.82 676.097 877.724C680.715 869.947 681.497 864.37 680.237 859.671C678.934 854.812 675.327 850.361 669.906 845.108C667.898 843.161 665.669 841.134 663.289 838.969C653.02 829.627 639.934 817.723 629.553 798.698C568.416 686.657 532.731 576.886 481.408 419.01C473.202 393.767 464.596 367.294 455.422 339.386L460.172 337.825C469.356 365.764 477.968 392.253 486.175 417.499C537.515 575.417 573.043 684.699 633.942 796.303C643.881 814.517 656.227 825.763 666.469 835.092C668.915 837.32 671.241 839.439 673.386 841.517C678.865 846.827 683.382 852.095 685.067 858.376C686.794 864.818 685.427 871.803 680.397 880.276C678.598 883.305 678.712 887.855 681.294 894.175C683.84 900.405 688.552 907.762 694.887 915.858C707.538 932.025 726.267 950.647 745.694 968.339C765.101 986.013 785.119 1002.68 800.292 1014.94C807.877 1021.06 814.247 1026.08 818.719 1029.57C820.956 1031.32 822.717 1032.68 823.919 1033.6C824.52 1034.06 824.981 1034.42 825.291 1034.65C825.446 1034.77 825.563 1034.86 825.642 1034.92L825.73 1034.99L825.757 1035.01C825.758 1035.01 825.759 1035.01 824.247 1037C822.735 1038.99 822.734 1038.99 822.733 1038.99L822.727 1038.99L822.613 1038.9C822.532 1038.84 822.413 1038.75 822.256 1038.63C821.942 1038.39 821.477 1038.03 820.872 1037.56C819.661 1036.63 817.891 1035.27 815.645 1033.52C811.153 1030.01 804.76 1024.97 797.15 1018.83C781.933 1006.54 761.833 989.8 742.327 972.036C722.842 954.291 703.865 935.444 690.95 918.939C684.502 910.699 679.466 902.92 676.666 896.066Z" fill="white"/>
<g opacity="0.5" filter="url(#filter0_f_1046_88)">
<ellipse cx="574.983" cy="316.703" rx="181.782" ry="170.842" fill="#EAEAEA"/>
</g>
<path d="M585.132 267.006L613.076 335.928L529.192 333.097L585.132 267.006Z" fill="#9C8CFF"/>
<path d="M662.668 170.347L618.689 223.856L587.782 202.437L662.668 170.347Z" fill="#C4BAFF"/>
<path d="M662.668 170.347L618.69 223.856L666.704 247.323L662.668 170.347Z" fill="#B8ACFF"/>
<path d="M531.646 163.518L585.055 267.143L507.325 271.999L531.646 163.518Z" fill="#9484F5"/>
<path d="M531.646 163.518L585.055 267.143L618.678 223.729L531.646 163.518Z" fill="#CEC6FF"/>
<path d="M585.27 266.934L507.892 272.199L528.985 333.491L585.27 266.934Z" fill="#CEC6FF"/>
<path d="M529.416 333.254L507.891 272.256L494.553 345.728C508.168 340.856 515.801 338.125 529.416 333.254Z" fill="#9C8CFF"/>
<path d="M585.132 267.006L613.076 335.928L694.345 260.385L585.132 267.006Z" fill="#AFA2FF"/>
<path d="M585.132 267.006L618.677 223.729L694.345 260.385L585.132 267.006Z" fill="#C5BBFF"/>
<path d="M681.844 292.312L663.038 342.206L744.724 344.72L681.844 292.312Z" fill="#9484F5"/>
<path d="M663.921 339.65L613.076 335.928L694.345 260.385L663.921 339.65Z" fill="#9C8CFF"/>
<path d="M660.21 383.305L663.533 339.869L744.707 344.694L660.21 383.305Z" fill="#816FEF"/>
<path d="M663.921 339.651L613.076 335.928L656.872 443.197L663.921 339.651Z" fill="#B8ACFF"/>
<path d="M554.335 380.562L613.076 335.928L656.912 443.061L554.335 380.562Z" fill="#CEC6FF"/>
<path d="M554.335 380.562L574.018 416.214L657.011 442.974L554.335 380.562Z" fill="#9C8CFF"/>
<path d="M554.335 380.562L574.018 416.214L472.01 458.944L554.335 380.562Z" fill="#AD9FFF"/>
<path d="M554.335 380.562L494.175 345.829L472.01 458.945L554.335 380.562Z" fill="#CEC6FF"/>
<path d="M469.655 355.641L494.175 345.829L471.771 458.806L469.655 355.641Z" fill="#AD9FFF"/>
<path d="M469.655 355.641L494.175 345.829L396.452 282.059L469.655 355.641Z" fill="#9D8FF1"/>
<path d="M507.89 272.256L494.478 346.162L396.452 282.059L507.89 272.256Z" fill="#AD9FFF"/>
<path d="M507.89 272.256L498.128 236.58L396.452 282.058L507.89 272.256Z" fill="#CEC6FF"/>
<path d="M507.891 272.256L498.129 236.58L531.325 166.904L507.891 272.256Z" fill="#AD9FFF"/>
<path d="M480.443 184.185L498.128 236.58L517.845 195.234L480.443 184.185Z" fill="#B8ACFF"/>
<path d="M480.443 184.185L498.128 236.58L477.869 245.655L480.443 184.185Z" fill="#C4BAFF"/>
<path d="M469.895 355.779L470.458 383.587L441.926 369.351L469.895 355.779Z" fill="#C4BAFF"/>
<path d="M469.895 355.779L454.687 340.607L441.926 369.351L469.895 355.779Z" fill="#B8ACFF"/>
<path d="M602.833 467.045L574.018 416.214L624.143 430.134L602.833 467.045Z" fill="#AD9FFF"/>
<path d="M602.833 467.045L574.018 416.214L549.27 426.556L602.833 467.045Z" fill="#816FEF"/>
<path d="M554.335 380.562L613.076 335.928L529.28 333.181L554.335 380.562Z" fill="#B8ACFF"/>
<path d="M554.335 380.562L494.175 345.829L529.28 333.181L554.335 380.562Z" fill="#816FEF"/>
<g opacity="0.4" filter="url(#filter1_f_1046_88)">
<ellipse cx="574.98" cy="316.86" rx="119.5" ry="112" fill="#EAEAEA"/>
</g>
<path fill-rule="evenodd" clip-rule="evenodd" d="M570.487 622.627C574.185 635.297 572.855 655.557 566 660.849C566.552 665.93 564.297 672.831 560.294 672.46C555.301 671.995 555.443 662.271 555.88 658.705C553.181 652.902 547.247 634.5 558.247 624.999L570.487 622.627Z" fill="#5A60F3"/>
<path fill-rule="evenodd" clip-rule="evenodd" d="M499.507 533.342C499.127 525.006 512.457 524.176 513.849 534.117L499.507 533.342Z" fill="#5A60F3"/>
<path fill-rule="evenodd" clip-rule="evenodd" d="M512.046 578.876C535.439 584.326 544.5 563.339 545.284 558.142C546.234 551.849 544.335 537.607 530.89 537.638C525.356 537.639 520.7 532.47 514.923 531.618C492.972 528.291 486.046 542.683 482.869 551.254C481.71 554.384 478.655 565.016 483.175 571.612C491.381 583.634 511.086 602.074 529.199 610.487L512.046 578.876Z" fill="#5A60F3"/>
<path d="M517.876 573.665C518.43 573.304 518.688 572.717 518.451 572.354C518.214 571.991 517.573 571.99 517.019 572.351C516.465 572.713 516.207 573.3 516.443 573.663C516.68 574.026 517.321 574.027 517.876 573.665Z" fill="#16164F"/>
<path d="M536.76 539.76C536.829 540.284 536.608 540.745 536.265 540.791C535.922 540.837 535.588 540.449 535.518 539.925C535.448 539.401 535.669 538.939 536.012 538.894C536.355 538.848 536.69 539.236 536.76 539.76Z" fill="#16164F"/>
<path d="M523.608 574.726C524.162 574.365 524.42 573.778 524.183 573.415C523.947 573.052 523.306 573.051 522.751 573.412C522.197 573.773 521.939 574.361 522.176 574.723C522.412 575.086 523.054 575.087 523.608 574.726Z" fill="#16164F"/>
<path d="M540.379 542.677C540.449 543.201 540.227 543.662 539.884 543.708C539.541 543.754 539.207 543.366 539.137 542.842C539.067 542.318 539.288 541.856 539.631 541.811C539.974 541.765 540.309 542.153 540.379 542.677Z" fill="#16164F"/>
<path d="M525.403 569.3C525.958 568.938 526.215 568.351 525.979 567.988C525.742 567.626 525.101 567.624 524.547 567.986C523.992 568.347 523.734 568.934 523.971 569.297C524.208 569.66 524.849 569.661 525.403 569.3Z" fill="#16164F"/>
<path d="M538.028 546.594C538.098 547.118 537.877 547.58 537.534 547.625C537.191 547.671 536.856 547.284 536.786 546.76C536.717 546.236 536.938 545.774 537.281 545.728C537.624 545.683 537.958 546.07 538.028 546.594Z" fill="#16164F"/>
<path fill-rule="evenodd" clip-rule="evenodd" d="M528.329 551.866C527.311 553.856 526.883 556.614 528.324 557.35C529.05 557.721 530.39 557.363 531.618 557.036C532.824 556.72 533.926 556.439 534.43 555.453C535.447 553.464 534.444 549.686 533.004 548.949C531.563 548.212 529.346 549.877 528.329 551.866Z" fill="#16164F"/>
<path d="M495.31 564.918C497.443 568.861 495.947 573.802 491.969 575.953C487.991 578.105 483.037 576.652 480.904 572.708C478.772 568.764 480.268 563.823 484.246 561.672C488.224 559.521 493.178 560.974 495.31 564.918Z" fill="#5A60F3"/>
<path fill-rule="evenodd" clip-rule="evenodd" d="M534.821 577.376C539.9 574.221 544.925 576.074 546.316 580.65C547.722 585.272 548.096 589.535 543.967 592.1C539.838 594.664 534.437 593.447 531.914 589.384C529.39 585.321 529.031 580.972 534.821 577.376Z" fill="#4349EC"/>
<path fill-rule="evenodd" clip-rule="evenodd" d="M526.605 618.026C520.635 621.285 514.27 611.746 516.247 601.999C517.61 595.258 535.094 578.335 539.112 576.3C544.135 573.757 547.803 580.966 547.649 584.661C547.246 594.938 529.316 611.104 526.605 618.026Z" fill="#4349EC"/>
<path d="M515.89 560.95C516.233 559.691 515.491 558.392 514.232 558.049C512.973 557.706 511.675 558.449 511.332 559.708C510.989 560.966 511.731 562.265 512.99 562.608C514.249 562.951 515.547 562.208 515.89 560.95Z" fill="#16164F"/>
<path d="M526.576 540.786C526.919 539.527 526.176 538.229 524.918 537.886C523.659 537.543 522.36 538.285 522.017 539.544C521.674 540.803 522.417 542.101 523.675 542.444C524.934 542.787 526.233 542.045 526.576 540.786Z" fill="#16164F"/>
<path fill-rule="evenodd" clip-rule="evenodd" d="M553.714 589C559.752 593.075 564.169 599.906 562.747 605.5C562.747 605.5 551.845 629.95 545.732 623.5C543.407 621.045 539.87 616.216 540.747 612C541.369 609 544.247 608.5 545.732 607.691C549.599 599.179 553.714 589 553.714 589Z" fill="#4349EC"/>
<path fill-rule="evenodd" clip-rule="evenodd" d="M632.359 825.599C636.601 827.818 638.273 831.124 640.475 839.265C643.859 851.742 636.788 863.499 636.414 876.242C636.261 881.484 636.13 890.898 642.497 895.284C613.575 884.933 632.737 853.069 606.681 850.651L632.359 825.599Z" fill="url(#paint3_linear_1046_88)"/>
<path fill-rule="evenodd" clip-rule="evenodd" d="M619.137 791.836C626.75 807.472 651.298 826.766 641.462 845.839C639.431 849.795 629.744 852.599 627.491 849.985C625.502 847.659 620.297 850.338 621.204 853.222C620.842 856.474 621.391 852.675 619.704 854.509C615.852 858.716 613.535 866.846 608.347 862.487C596.77 852.786 586.533 827.212 584.799 802.101C591.507 774.047 605.363 777.397 619.137 791.836Z" fill="#F5B523"/>
<path fill-rule="evenodd" clip-rule="evenodd" d="M613.659 843.582C622.598 844.013 623.614 856.325 622.749 864.857C626.751 871.011 627.35 876.099 623.102 877.233C619.645 878.15 614.257 870.478 613.203 865.546C604.605 859.782 596.769 851.269 596.43 838.154L613.659 843.582Z" fill="#F5B523"/>
<path fill-rule="evenodd" clip-rule="evenodd" d="M642.928 833.656C645.602 844.035 644.002 860.445 638.301 864.564C638.619 868.702 636.61 874.245 633.371 873.842C629.331 873.335 629.696 865.446 630.143 862.563C628.101 857.783 626.287 850.518 628.843 844.14L642.928 833.656Z" fill="#F5B523"/>
<path fill-rule="evenodd" clip-rule="evenodd" d="M578.243 802.89C582.322 798.874 587.577 795.159 593.907 791.721C606.103 803.548 611.213 814.84 609.281 825.601C607.781 833.852 606.607 839.302 596.904 846.916C589.664 833.712 587.948 815.701 579.367 809.013C578.807 806.838 578.423 804.8 578.243 802.89Z" fill="url(#paint4_linear_1046_88)"/>
<path fill-rule="evenodd" clip-rule="evenodd" d="M602.355 792.716C607.08 811.64 590.155 819.267 585.945 819.97C580.848 820.822 569.259 819.463 569.113 808.545C569.043 804.052 564.785 800.338 564.02 795.658C561.037 777.877 572.634 772.069 579.553 769.379C582.08 768.398 590.673 765.781 596.087 769.366C605.954 775.875 621.179 791.639 628.242 806.238L602.355 792.716Z" fill="#F5B523"/>
<path fill-rule="evenodd" clip-rule="evenodd" d="M565.228 783.11C558.455 782.908 557.952 793.742 566.042 794.745L565.228 783.11Z" fill="#F5B523"/>
<path d="M598.209 797.511C597.922 797.965 597.449 798.182 597.151 797.995C596.854 797.807 596.844 797.287 597.131 796.832C597.417 796.377 597.89 796.16 598.188 796.348C598.486 796.535 598.495 797.056 598.209 797.511Z" fill="#16164F"/>
<path d="M570.904 813.275C571.33 813.325 571.702 813.14 571.735 812.861C571.768 812.582 571.449 812.315 571.023 812.265C570.596 812.215 570.224 812.4 570.191 812.679C570.159 812.958 570.478 813.225 570.904 813.275Z" fill="#16164F"/>
<path d="M599.137 802.137C598.851 802.592 598.377 802.809 598.08 802.621C597.782 802.434 597.773 801.913 598.059 801.458C598.345 801.004 598.819 800.787 599.117 800.974C599.414 801.162 599.423 801.682 599.137 802.137Z" fill="#16164F"/>
<path d="M573.318 816.176C573.744 816.226 574.116 816.04 574.149 815.761C574.182 815.482 573.863 815.216 573.437 815.166C573.011 815.116 572.638 815.301 572.606 815.58C572.573 815.859 572.892 816.126 573.318 816.176Z" fill="#16164F"/>
<path d="M594.764 803.673C594.478 804.128 594.005 804.345 593.707 804.157C593.409 803.97 593.4 803.449 593.686 802.995C593.973 802.54 594.446 802.323 594.744 802.51C595.041 802.698 595.051 803.218 594.764 803.673Z" fill="#16164F"/>
<path d="M576.476 814.217C576.902 814.267 577.274 814.081 577.307 813.802C577.34 813.523 577.021 813.257 576.594 813.207C576.168 813.157 575.796 813.342 575.763 813.621C575.731 813.9 576.05 814.167 576.476 814.217Z" fill="#16164F"/>
<path fill-rule="evenodd" clip-rule="evenodd" d="M580.633 806.285C582.235 805.433 584.469 805.051 585.086 806.211C585.396 806.796 585.122 807.888 584.873 808.89C584.632 809.873 584.418 810.771 583.623 811.193C582.021 812.045 578.941 811.279 578.324 810.118C577.708 808.958 579.031 807.137 580.633 806.285Z" fill="#16164F"/>
<path d="M590.859 779.281C594.089 780.962 598.082 779.684 599.777 776.426C601.473 773.169 600.23 769.165 597 767.484C593.771 765.803 589.778 767.081 588.082 770.338C586.387 773.596 587.63 777.6 590.859 779.281Z" fill="#F5B523"/>
<path fill-rule="evenodd" clip-rule="evenodd" d="M619.463 776.804C616.967 780.968 618.535 785.024 622.269 786.096C626.04 787.177 629.506 787.427 631.536 784.041C633.565 780.656 632.508 776.286 629.176 774.289C625.845 772.292 622.309 772.056 619.463 776.804Z" fill="#FF9C01"/>
<path fill-rule="evenodd" clip-rule="evenodd" d="M635.493 807.746C632.996 811.91 634.565 815.966 638.299 817.037C642.07 818.119 645.536 818.369 647.565 814.983C649.595 811.598 648.537 807.228 645.206 805.231C641.874 803.234 638.339 802.998 635.493 807.746Z" fill="#FF9C01"/>
<path d="M587.861 796.058C586.843 796.352 585.779 795.766 585.485 794.749C585.19 793.731 585.776 792.667 586.794 792.372C587.811 792.078 588.875 792.664 589.17 793.682C589.465 794.699 588.878 795.763 587.861 796.058Z" fill="#16164F"/>
<path d="M571.627 804.993C570.609 805.287 569.545 804.701 569.25 803.684C568.956 802.666 569.542 801.602 570.56 801.307C571.577 801.013 572.641 801.599 572.936 802.617C573.231 803.634 572.644 804.698 571.627 804.993Z" fill="#16164F"/>
<path fill-rule="evenodd" clip-rule="evenodd" d="M609.876 828.006C604.376 827.865 605.697 817.968 611.055 811.925C614.757 807.744 641.954 806.534 645.584 806.741C650.148 806.999 648.699 815.922 646.37 817.807C641.124 822.055 614.599 824.247 609.876 828.006Z" fill="#FF9C01"/>
<path fill-rule="evenodd" clip-rule="evenodd" d="M670.52 244.615C671.285 245.411 671.26 246.677 670.463 247.442C632.815 283.605 601.81 306.057 568.638 320.4C535.472 334.741 500.284 340.913 454.392 344.732C453.292 344.824 452.325 344.006 452.233 342.905C452.142 341.804 452.96 340.838 454.061 340.746C499.79 336.94 534.473 330.815 567.051 316.729C599.622 302.645 630.232 280.539 667.692 244.558C668.489 243.792 669.755 243.818 670.52 244.615Z" fill="white"/>
<path fill-rule="evenodd" clip-rule="evenodd" d="M683.935 292.148C684.556 293.061 684.32 294.305 683.407 294.926C640.194 324.338 605.82 338.907 570.669 345.099C535.577 351.28 499.842 349.085 454.058 345.201C452.957 345.107 452.14 344.139 452.234 343.039C452.327 341.938 453.295 341.122 454.396 341.215C500.22 345.102 535.465 347.239 569.975 341.16C604.425 335.091 638.274 320.807 681.156 291.62C682.069 290.998 683.313 291.235 683.935 292.148Z" fill="white"/>
<path d="M343.903 672.331L345.737 676.996L339.925 693.947L230.105 646.012L257.938 634.236L293.042 632.573L323.313 650.301L343.903 672.331Z" fill="#8477D7"/>
<path d="M309.913 648.162L336.5 687.767L210.587 671.448L237.207 635.757L309.913 648.162Z" fill="#574B9D"/>
<path d="M309.914 648.162L307.299 682.301L210.587 671.448L237.207 635.757L309.914 648.162Z" fill="#6455BD"/>
<path d="M378.638 667.303L434.032 682.691L440.619 698.065L417.489 713.279L378.638 667.303Z" fill="#8477D7"/>
<path d="M399.705 696.355L425.252 689.047L434.687 701.918L417.489 713.278L399.705 696.355Z" fill="#C4BBFB"/>
<path d="M389.342 657.831L425.083 689.001L396.862 675.814L388.277 660.449L389.342 657.831Z" fill="#574B9D"/>
<path d="M378.637 667.303L314.04 680.842L333.87 715.189L425.252 689.048L378.637 667.303Z" fill="#A79BEE"/>
<path d="M141.592 633.001L176.766 667.648L154.505 664.042L148.049 648.522L141.592 633.001Z" fill="#7F72D1"/>
<path d="M211.671 642.344L176.765 667.649L154.505 664.043L168.208 637.956L211.671 642.344Z" fill="#574B9D"/>
<path d="M211.671 642.343L246.447 687.953L194.541 682.573L168.208 637.956L211.671 642.343Z" fill="#A79BEE"/>
<path d="M119.248 793.592L97.2391 787.694L124.783 772.937L119.248 793.592Z" fill="#B4A9F8"/>
<path d="M322.321 686.508L342.33 712.737L199.727 669.991L322.321 686.508Z" fill="#B4A9F8"/>
<path d="M292.953 726.362L342.33 712.737L199.728 669.99L292.953 726.362Z" fill="#7869D6"/>
<path d="M119.248 793.592L322.321 686.508L185.899 668.1L166.61 672.367L146.411 700.343L127.088 752.143L119.248 793.592Z" fill="#C4BBFB"/>
<path d="M296.678 651.511L322.322 686.508L199.728 669.99L225.429 638.408L296.678 651.511Z" fill="#B4A9F8"/>
<defs>
<filter id="filter0_f_1046_88" x="277.396" y="30.0573" width="595.173" height="573.292" filterUnits="userSpaceOnUse" color-interpolation-filters="sRGB">
<feFlood flood-opacity="0" result="BackgroundImageFix"/>
<feBlend mode="normal" in="SourceGraphic" in2="BackgroundImageFix" result="shape"/>
<feGaussianBlur stdDeviation="57.9022" result="effect1_foregroundBlur_1046_88"/>
</filter>
<filter id="filter1_f_1046_88" x="339.676" y="89.0554" width="470.609" height="455.609" filterUnits="userSpaceOnUse" color-interpolation-filters="sRGB">
<feFlood flood-opacity="0" result="BackgroundImageFix"/>
<feBlend mode="normal" in="SourceGraphic" in2="BackgroundImageFix" result="shape"/>
<feGaussianBlur stdDeviation="57.9022" result="effect1_foregroundBlur_1046_88"/>
</filter>
<linearGradient id="paint0_linear_1046_88" x1="560.748" y1="683.5" x2="549.748" y2="642" gradientUnits="userSpaceOnUse">
<stop stop-color="#484FF2"/>
<stop offset="1" stop-color="#0008C8"/>
</linearGradient>
<linearGradient id="paint1_linear_1046_88" x1="525.748" y1="574" x2="515.248" y2="588" gradientUnits="userSpaceOnUse">
<stop stop-color="#5055ED"/>
<stop offset="1" stop-color="#5055ED" stop-opacity="0"/>
</linearGradient>
<linearGradient id="paint2_linear_1046_88" x1="555.248" y1="661" x2="540.748" y2="654" gradientUnits="userSpaceOnUse">
<stop stop-color="#4349EC"/>
<stop offset="1" stop-color="#5A60F3"/>
</linearGradient>
<linearGradient id="paint3_linear_1046_88" x1="614.748" y1="855" x2="638.748" y2="909" gradientUnits="userSpaceOnUse">
<stop stop-color="#FF9C01"/>
<stop offset="1" stop-color="#F5B523"/>
</linearGradient>
<linearGradient id="paint4_linear_1046_88" x1="583.247" y1="821" x2="601.747" y2="824" gradientUnits="userSpaceOnUse">
<stop stop-color="#FF9C01"/>
<stop offset="1" stop-color="#FF9C01" stop-opacity="0"/>
</linearGradient>
</defs>
</svg>
