<svg width="603" height="794" viewBox="0 0 603 794" fill="none" xmlns="http://www.w3.org/2000/svg">
<path d="M563.628 95.9447C563.628 95.9447 475.183 38.8525 416.998 31.8445C250.29 11.7661 536.81 422.713 370.851 407.508C300.05 401.021 264.941 331.826 193.676 322.133C11.0194 297.291 84.3579 709.817 84.3579 709.817" stroke="url(#paint0_radial_1902_1992)" stroke-width="2.06401"/>
<path d="M568.736 113.368C568.736 113.368 480.291 56.2758 422.106 49.2679C255.398 29.1894 541.917 440.137 375.958 424.931C305.158 418.444 270.049 349.249 198.784 339.557C16.1268 314.714 89.4653 727.24 89.4653 727.24" stroke="url(#paint1_radial_1902_1992)" stroke-width="2.06401"/>
<path d="M539.822 66.368C539.822 66.368 451.377 9.27577 393.191 2.26789C226.484 -17.8106 513.003 393.137 347.044 377.931C276.243 371.444 241.135 302.249 169.87 292.557C-12.7872 267.714 60.5512 680.24 60.5512 680.24" stroke="url(#paint2_radial_1902_1992)" stroke-width="2.06401"/>
<path d="M544.009 81.8304C544.009 81.8304 455.564 24.7382 397.379 17.7303C230.671 -2.3482 517.19 408.599 351.232 393.393C280.431 386.906 245.322 317.712 174.057 308.019C-8.59973 283.177 64.7387 695.702 64.7387 695.702" stroke="url(#paint3_radial_1902_1992)" stroke-width="2.06401"/>
<path d="M597.435 162.432C597.435 162.432 508.99 105.34 450.805 98.3319C284.097 78.2534 570.616 489.201 404.658 473.995C333.857 467.508 298.748 398.313 227.483 388.621C44.826 363.778 118.164 776.304 118.164 776.304" stroke="url(#paint4_radial_1902_1992)" stroke-width="2.06401"/>
<path d="M602.076 179.558C602.076 179.558 513.631 122.466 455.445 115.458C288.738 95.3793 575.257 506.327 409.298 491.121C338.497 484.634 303.389 415.439 232.124 405.747C49.4667 380.904 122.805 793.43 122.805 793.43" stroke="url(#paint5_radial_1902_1992)" stroke-width="2.06401"/>
<path d="M573.628 132.855C573.628 132.855 485.183 75.7626 426.998 68.7547C260.29 48.6762 546.81 459.624 380.851 444.418C310.05 437.931 274.941 368.736 203.676 359.044C21.0194 334.201 94.3578 746.727 94.3578 746.727" stroke="url(#paint6_radial_1902_1992)" stroke-width="2.06401"/>
<path d="M577.818 148.318C577.818 148.318 489.373 91.2255 431.188 84.2176C264.48 64.1391 550.999 475.086 385.04 459.881C314.24 453.394 279.131 384.199 207.866 374.506C25.2089 349.664 98.5473 762.19 98.5473 762.19" stroke="url(#paint7_radial_1902_1992)" stroke-width="2.06401"/>
<path d="M426.692 632.202L245.516 553.951L36.5312 569.78L210.359 656.246L426.692 632.202Z" fill="#D1CAFF"/>
<path d="M419.693 684.982L426.457 631.502L210.215 656.234V715.425L419.693 684.982Z" fill="#BAB2EA"/>
<path d="M210.215 716.527V656.247L37.7031 569.79V630.388L210.215 716.527Z" fill="#DAD3FF"/>
<path fill-rule="evenodd" clip-rule="evenodd" d="M335.982 617.089L319.176 617.108L333.621 612.563L335.982 617.089Z" fill="#E4E5FD"/>
<path fill-rule="evenodd" clip-rule="evenodd" d="M221.09 476.91C227.267 472.562 233.692 482.215 226.733 488.108L221.09 476.91Z" fill="#F5B523"/>
<path fill-rule="evenodd" clip-rule="evenodd" d="M217.223 514.708C218.88 522.191 223.855 531.057 228.759 537.178C234.481 544.267 241.176 546.666 238.181 551.327C234.981 556.252 226.58 550.605 222.932 547.542C218.087 543.469 215.689 533.996 212.426 525.823L217.223 514.708Z" fill="#FDA71A"/>
<path fill-rule="evenodd" clip-rule="evenodd" d="M174.86 577.419C181.774 590.996 204.415 587.873 214.355 588.96C229.644 590.629 241.413 585.516 256.102 582.546C262.145 581.324 281.693 584.316 285.898 585.804C271.406 565.399 228.242 585.607 224.665 551.321C210.896 565.883 195.372 572.906 174.86 577.419Z" fill="url(#paint8_linear_1902_1992)"/>
<path fill-rule="evenodd" clip-rule="evenodd" d="M218.997 516.808C219.058 528.955 225.151 545.341 227.115 559.351C228.206 567.222 242.14 570.303 235.294 585.352C232.905 590.624 223.682 589.77 219.017 589.899C216.555 589.967 209.969 590.891 207.529 591.253C204.334 591.727 203.038 592.01 200.125 593.377C193.391 596.52 178.307 590.443 174.558 582.011C170.788 573.579 173.729 546.376 174.764 530.1C195.316 494.615 209.611 492.628 218.997 516.808Z" fill="#F5B523"/>
<path fill-rule="evenodd" clip-rule="evenodd" d="M190.507 523.755C191.897 529.698 192.605 526.339 194.528 527.002C197.639 528.071 206.02 515.017 209.627 515.212C214.162 515.456 213.826 521.975 212.231 524.497C207.815 531.522 198.405 549.895 198.813 563.084C197.838 560.804 194.369 551.143 193.631 548.756C190.68 539.26 187.957 537.281 190.507 523.755Z" fill="url(#paint9_linear_1902_1992)"/>
<path fill-rule="evenodd" clip-rule="evenodd" d="M174.371 581.522C170.601 573.088 224.968 544.845 226.933 558.857C228.024 566.73 241.96 569.811 235.113 584.864C232.723 590.136 224.194 591.349 218.405 591.355C215.943 591.358 209.786 590.404 207.346 590.765C204.15 591.24 203.716 590.226 200.802 591.592C194.068 594.736 178.12 589.955 174.371 581.522Z" fill="url(#paint10_linear_1902_1992)"/>
<path fill-rule="evenodd" clip-rule="evenodd" d="M177.972 524.76C181.709 525.765 187.021 554.794 188.861 557.943C192.217 563.687 195.344 560.892 201.051 565.18C209.806 571.763 210.837 582.612 207.265 591.295C206.017 594.336 203.619 593.967 200.337 594.213C192.931 594.771 178.305 590.443 174.557 582.012C170.787 573.58 173.75 546.378 174.763 530.101C175.861 528.227 176.916 526.447 177.972 524.76Z" fill="#F5B523"/>
<path fill-rule="evenodd" clip-rule="evenodd" d="M219.001 516.811C219.056 524.676 221.599 535.677 224.056 547.137C228.382 567.438 190.981 522.929 191.994 506.653C212.565 471.168 209.616 492.631 219.001 516.811Z" fill="url(#paint11_linear_1902_1992)"/>
<path fill-rule="evenodd" clip-rule="evenodd" d="M191.99 506.656C198.283 526.856 218.258 524.383 222.553 522.662C227.756 520.578 237.722 512.787 231.703 502.587C229.235 498.383 231.084 492.542 229.155 487.773C221.894 469.616 207.878 470.77 199.953 472.177C197.06 472.692 187.625 475.111 184.632 481.485C179.163 493.078 174.769 515.82 174.768 530.107L191.99 506.656Z" fill="#F5B523"/>
<path fill-rule="evenodd" clip-rule="evenodd" d="M198.741 517.838C203.1 514.715 206.985 512.528 210.074 513.211C215.865 514.493 216.93 519.313 215.856 523.767C210.781 523.904 204.04 522.744 198.741 517.838Z" fill="#EDA80B"/>
<path fill-rule="evenodd" clip-rule="evenodd" d="M198.741 517.838C203.1 514.715 206.985 512.528 210.074 513.211C215.865 514.493 216.93 519.313 215.856 523.767C210.781 523.904 204.04 522.744 198.741 517.838Z" fill="url(#paint12_radial_1902_1992)"/>
<path fill-rule="evenodd" clip-rule="evenodd" d="M191.985 506.658C193.504 511.541 190.788 484.74 193.375 482.012C195.207 480.081 187.621 475.117 184.629 481.49C181.379 488.373 178.522 499.186 176.724 509.825C175.504 517.105 174.759 524.304 174.767 530.108L191.985 506.658Z" fill="url(#paint13_linear_1902_1992)"/>
<path d="M198.566 508.778C199.085 509.022 199.645 508.929 199.818 508.571C199.991 508.213 199.711 507.726 199.192 507.483C198.673 507.239 198.112 507.332 197.939 507.689C197.766 508.047 198.047 508.535 198.566 508.778Z" fill="#16164F"/>
<path d="M232.751 507.98C232.384 508.26 231.935 508.288 231.747 508.041C231.559 507.795 231.703 507.368 232.069 507.088C232.435 506.807 232.885 506.78 233.073 507.026C233.261 507.272 233.117 507.699 232.751 507.98Z" fill="#16164F"/>
<path d="M200.316 513.597C200.835 513.84 201.395 513.748 201.568 513.39C201.741 513.032 201.461 512.544 200.942 512.301C200.423 512.057 199.862 512.15 199.689 512.508C199.516 512.866 199.797 513.353 200.316 513.597Z" fill="#16164F"/>
<path d="M232.133 512.029C231.767 512.309 231.318 512.336 231.13 512.09C230.942 511.844 231.086 511.417 231.452 511.137C231.818 510.856 232.268 510.829 232.456 511.075C232.644 511.321 232.5 511.748 232.133 512.029Z" fill="#16164F"/>
<path d="M205.241 512.542C205.76 512.785 206.321 512.692 206.494 512.334C206.667 511.977 206.386 511.489 205.868 511.246C205.349 511.002 204.788 511.095 204.615 511.453C204.442 511.811 204.722 512.298 205.241 512.542Z" fill="#16164F"/>
<path d="M228.112 511.99C227.746 512.271 227.297 512.298 227.108 512.052C226.92 511.806 227.064 511.379 227.431 511.099C227.797 510.818 228.246 510.79 228.434 511.037C228.623 511.283 228.478 511.71 228.112 511.99Z" fill="#16164F"/>
<path fill-rule="evenodd" clip-rule="evenodd" d="M219.759 506.942C217.803 507.043 215.533 507.939 215.625 509.374C215.671 510.098 216.543 510.968 217.341 511.768C218.12 512.555 218.826 513.278 219.795 513.228C221.751 513.126 224.147 510.676 224.055 509.241C223.963 507.806 221.714 506.84 219.759 506.942Z" fill="#16164F"/>
<path fill-rule="evenodd" clip-rule="evenodd" d="M189.633 515.375C191.024 521.318 190.446 524.181 192.368 524.844C195.48 525.913 204.945 515.665 208.552 515.86C213.087 516.104 212.751 522.624 211.157 525.145C206.74 532.171 193.215 542.771 193.623 555.96C192.648 553.68 191.78 551.362 191.043 548.974C188.092 539.479 187.083 528.901 189.633 515.375Z" fill="#F5B523"/>
<path d="M229.659 498.378C229.661 499.392 228.84 500.215 227.826 500.216C226.812 500.217 225.989 499.396 225.987 498.382C225.986 497.368 226.806 496.545 227.82 496.544C228.834 496.543 229.658 497.364 229.659 498.378Z" fill="#16164F"/>
<path d="M207.327 498.898C207.328 499.912 206.508 500.735 205.494 500.736C204.48 500.738 203.656 499.916 203.655 498.902C203.654 497.888 204.474 497.065 205.488 497.064C206.502 497.063 207.325 497.884 207.327 498.898Z" fill="#16164F"/>
<path d="M195.102 487.491C193.041 490.983 188.622 492.233 185.23 490.284C181.839 488.336 180.759 483.926 182.819 480.434C184.879 476.943 189.298 475.693 192.69 477.641C196.082 479.59 197.162 484 195.102 487.491Z" fill="#F5B523"/>
<path d="M213.468 585.965C210.975 591.49 207.033 595.172 204.663 594.189C202.294 593.206 202.394 587.93 204.888 582.405C207.381 576.88 211.323 573.198 213.693 574.181C216.062 575.164 215.962 580.44 213.468 585.965Z" fill="#F5B523"/>
<path d="M241.294 584.376C244.279 579.118 244.862 573.872 242.596 572.658C240.33 571.444 236.072 574.722 233.087 579.98C230.102 585.238 229.519 590.484 231.785 591.698C234.051 592.912 238.309 589.634 241.294 584.376Z" fill="#F39C0F"/>
<path d="M240.72 533.923L238.08 533.097L230.092 555.455L232.732 556.281L240.72 533.923Z" fill="#090E81"/>
<path fill-rule="evenodd" clip-rule="evenodd" d="M230.443 558.499L230.105 555.296L232.754 556.161L230.443 558.499Z" fill="white"/>
<path fill-rule="evenodd" clip-rule="evenodd" d="M230.426 558.496L230.223 556.574L231.813 557.094L230.426 558.496Z" fill="#090E81"/>
<path fill-rule="evenodd" clip-rule="evenodd" d="M237.321 545.613C235.264 545.584 234.747 547.328 234.386 550.258C234.194 551.709 234.506 553.258 236.239 552.62L237.321 545.613Z" fill="#FDA71A"/>
<path fill-rule="evenodd" clip-rule="evenodd" d="M233.438 543.434C234.215 545.58 234.978 545.89 235.79 544.103C236.13 542.716 235.455 542.076 233.761 542.167L233.114 543.47" fill="#FDA71A"/>
<path fill-rule="evenodd" clip-rule="evenodd" d="M271.385 586.492L250.24 602.724L284.804 604.629L299.035 587.541L271.385 586.492Z" fill="#F39C0F"/>
<path fill-rule="evenodd" clip-rule="evenodd" d="M277.225 591.885L256.08 608.117L291.94 610.453L304.875 592.934L277.225 591.885Z" fill="#F5B523"/>
<path d="M237.484 504.881C239.094 504.879 240.397 503.571 240.395 501.96C240.393 500.349 239.086 499.045 237.476 499.046C235.866 499.048 234.562 500.356 234.565 501.967C234.567 503.578 235.874 504.882 237.484 504.881Z" fill="white"/>
<path d="M132.114 536.102C128.563 536.106 125.689 538.989 125.694 542.542C125.699 546.094 128.582 548.97 132.133 548.966C135.684 548.962 138.558 546.079 138.553 542.527C138.548 538.975 135.665 536.098 132.114 536.102Z" fill="white"/>
<path d="M154.375 569.197C152.435 569.199 150.864 570.775 150.867 572.717C150.87 574.658 152.445 576.23 154.385 576.228C156.325 576.226 157.896 574.65 157.893 572.709C157.891 570.767 156.315 569.195 154.375 569.197Z" fill="white"/>
<path d="M143.355 508.322C144.23 508.321 144.939 507.611 144.937 506.735C144.936 505.86 144.226 505.151 143.35 505.152C142.475 505.153 141.767 505.863 141.768 506.739C141.769 507.614 142.48 508.323 143.355 508.322Z" fill="white"/>
<path d="M284.804 555.545C285.68 555.544 286.388 554.834 286.387 553.958C286.386 553.083 285.675 552.374 284.8 552.375C283.924 552.376 283.216 553.087 283.217 553.962C283.218 554.837 283.929 555.546 284.804 555.545Z" fill="white"/>
<path d="M267.506 473.067C268.465 473.066 269.242 472.287 269.241 471.327C269.239 470.368 268.46 469.591 267.501 469.592C266.541 469.593 265.765 470.372 265.766 471.331C265.768 472.291 266.546 473.068 267.506 473.067Z" fill="white"/>
<path d="M357.613 465.982C359.288 465.98 360.644 464.62 360.641 462.944C360.639 461.268 359.279 459.911 357.605 459.913C355.93 459.915 354.574 461.275 354.577 462.951C354.579 464.627 355.939 465.984 357.613 465.982Z" fill="white"/>
<path d="M337.92 556.054C339.595 556.052 340.95 554.692 340.948 553.016C340.946 551.34 339.586 549.983 337.911 549.985C336.237 549.987 334.881 551.347 334.883 553.023C334.886 554.699 336.245 556.056 337.92 556.054Z" fill="white"/>
<path d="M269.726 521.551C271.878 521.549 273.62 519.801 273.617 517.648C273.613 515.495 271.867 513.751 269.715 513.754C267.563 513.756 265.821 515.504 265.824 517.657C265.827 519.81 267.574 521.554 269.726 521.551Z" fill="white"/>
<path d="M342.949 540.495C350.2 540.487 356.07 534.599 356.059 527.345C356.049 520.091 350.162 514.217 342.911 514.226C335.66 514.234 329.79 520.121 329.8 527.375C329.811 534.629 335.698 540.503 342.949 540.495Z" fill="white"/>
<path d="M258.497 501.939C264.679 501.932 269.683 496.913 269.674 490.728C269.665 484.543 264.647 479.535 258.465 479.542C252.283 479.549 247.279 484.569 247.288 490.754C247.297 496.938 252.315 501.946 258.497 501.939Z" fill="white"/>
<path d="M317.132 538.55C340.014 538.524 358.537 519.947 358.504 497.058C358.471 474.169 339.894 455.635 317.012 455.662C294.13 455.688 275.607 474.264 275.64 497.153C275.673 520.042 294.25 538.576 317.132 538.55Z" fill="white"/>
<path d="M322.459 470.553L321.212 506.677L312.621 506.686L311.27 470.566L322.459 470.553ZM322.448 513.033L322.463 523.652L311.491 523.665L311.475 513.045L322.448 513.033Z" fill="#F5B523"/>
<path d="M402.368 386.285C402.755 386.96 405.127 387.297 405.764 387.191C408.743 384.944 419.699 377.808 419.765 377.733C420.06 377.394 421.369 373.153 420.999 372.733C419.765 372.222 414.251 373.244 413.64 373.603C411.847 374.653 404.59 384.09 402.368 386.285Z" fill="#715EDC"/>
<path d="M399.837 387.574C400.274 388.342 403.608 389.851 404.322 389.733C407.658 387.191 413.106 384.22 413.584 382.546L407.174 379.625C405.166 380.812 402.323 385.088 399.837 387.574Z" fill="#8273DA"/>
<path d="M412.328 381.998L404.65 388.319L423.483 398.93L444.701 386.649L446.613 378.28L439.259 370.984L412.328 381.998Z" fill="#9D90EF"/>
<path d="M408.397 379.693L401.29 386.545L383.716 380.049L391.407 362.005L403.51 358.709L416.557 360.806L408.397 379.693Z" fill="#9D90EF"/>
<path d="M412.061 382.121L404.675 388.764L446.612 378.28L439.39 370.825L412.061 382.121Z" fill="#B0A5F1"/>
<path d="M408.402 379.678L401.022 386.661L403.51 358.709L416.557 360.806L408.402 379.678Z" fill="#B0A5F1"/>
<path d="M407.589 385.983L404.453 388.699L416.018 410.111L432.418 410.955L436.878 394.368L433.475 389.977L407.589 385.983Z" fill="#B4AAF2"/>
<path d="M404.106 383.895L401.022 386.661L366.237 385.559L360.597 377.416L382.535 369.45L390.783 370.045L404.106 383.895Z" fill="#B4AAF2"/>
<path d="M406.204 387.073L404.437 388.647L416.083 410.083L432.677 410.885L406.204 387.073Z" fill="#C4BBFB"/>
<path d="M402.793 385.132L401.022 386.661L366.237 385.559L360.597 377.415L402.793 385.132Z" fill="#C4BBFB"/>
<path d="M408.403 379.678L400.016 387.832L401.879 383.871L408.403 379.678Z" fill="#6856D2"/>
<path d="M412.131 382.007L403.277 389.463L406.772 388.065L412.131 382.007Z" fill="#6856D2"/>
<path d="M78.8063 341.682C66.438 347.866 51.9213 368.942 77.1956 387.898C66.8439 384.537 59.0465 387.898 56.4922 393.141C52.5935 391.259 -5.21473 391.259 0.566098 395.023C6.34692 398.787 20.5973 395.695 37.4021 397.981C54.2068 400.266 115.376 399.863 132.181 402.552C148.985 405.24 164.309 399.087 172.778 399.356C179.554 399.571 252.141 398.549 291.89 399.356C297.044 398.997 304.127 397.497 300.631 396.099C292.565 392.872 271.996 391.259 264.602 391.259C258.821 387.898 254.654 385.747 248.469 391.259C242.957 388.032 214.86 389.915 204.239 391.259C200.472 387.898 186.09 383.058 175.47 385.747C176.811 374.051 154.226 370.855 151.809 374.051C153.019 351.465 121.426 349.852 115.376 354.692C114.838 338.828 91.1745 335.498 78.8063 341.682Z" fill="white"/>
<path fill-rule="evenodd" clip-rule="evenodd" d="M297.123 398.682L294.176 396.252C293.412 396.252 291.876 395.963 290.321 395.671C288.692 395.364 287.044 395.054 286.244 395.069C285.871 395.076 285.25 394.84 284.558 394.577C283.446 394.155 282.15 393.662 281.404 393.994C280.093 394.988 280.13 394.827 280.163 394.683C280.196 394.542 280.224 394.418 278.963 395.424C277.135 396.883 273.371 396.232 269.859 395.625C267.642 395.241 265.526 394.875 264.061 395.069C261.722 395.379 260.413 396.258 259.197 397.075C257.767 398.035 256.466 398.909 253.769 398.668C251.054 398.425 248.302 398.411 245.55 398.396C243.406 398.385 241.263 398.373 239.136 398.254C237.958 398.188 236.741 398.151 235.504 398.114C231.01 397.977 226.256 397.833 222.191 396.252C221.868 396.127 221.567 395.954 221.275 395.785C220.551 395.369 219.88 394.982 219.05 395.424C215.227 397.461 211.217 397.748 206.937 397.495C206.898 397.493 206.769 397.472 206.58 397.442C205.598 397.285 202.987 396.869 202.83 397.391C202.591 398.186 202.774 398.785 203.077 399.237C229.484 399.061 267.083 398.852 291.89 399.356C293.574 399.239 295.463 399 297.123 398.682ZM195.31 399.289C193.581 398.683 191.801 398.06 188.911 397.892C188.404 397.863 187.511 398.037 186.495 398.235C184.135 398.695 181.108 399.285 180.71 397.758C180.602 397.344 180.267 397.046 179.99 396.8C179.643 396.49 179.388 396.264 179.793 395.994C179.9 395.922 180.24 395.888 180.569 395.856C181.093 395.804 181.586 395.755 181.053 395.562C180.541 395.377 179.866 395.199 179.137 395.007C178.073 394.727 176.894 394.416 175.945 394.009C174.813 393.524 173.63 393.148 172.447 392.771C171.016 392.316 169.586 391.86 168.249 391.214C167.655 390.927 166.561 390.356 166.471 389.592C166.372 388.743 162.272 386.347 161.351 386.347C157.426 385.452 156.164 386.31 154.854 387.202C153.741 387.959 152.594 388.739 149.75 388.487C149.065 388.427 148.309 388.399 147.518 388.37C144.638 388.264 141.307 388.141 139.293 386.347C138.019 385.212 137.953 383.914 137.887 382.607C137.84 381.688 137.793 380.766 137.326 379.894C137.037 379.355 136.41 379.46 135.767 379.568C135.056 379.687 134.325 379.81 134.013 379.065C133.595 378.068 133.541 376.739 133.49 375.499C133.467 374.943 133.445 374.406 133.392 373.923C133.356 373.605 132.951 374.175 132.494 374.818C132.085 375.394 131.634 376.028 131.371 376.132C130.604 376.437 129.579 376.299 128.572 376.163C127.782 376.057 127.003 375.952 126.369 376.063C122.433 376.753 118.134 376.545 114.169 376.132C114.011 376.116 113.849 376.1 113.685 376.083C112.183 375.935 110.441 375.763 109.164 374.993C107.224 373.823 107.139 370.936 107.073 368.667C107.063 368.326 107.053 367.999 107.038 367.694C106.927 365.487 106.923 363.51 107.038 361.309C107.085 360.419 106.774 358.799 106.231 357.91C105.972 357.487 105.851 359.612 105.851 359.67C105.851 363.275 105.045 368.793 100.467 369.471C100.22 369.508 99.8656 369.429 99.4914 369.345C98.8602 369.204 98.1723 369.051 97.8446 369.419C97.7048 369.577 97.645 369.859 97.583 370.152C97.5237 370.433 97.4624 370.723 97.3269 370.921C95.3829 373.758 92.5632 374.454 89.3546 374.51C88.7985 374.52 88.2972 374.581 87.8332 374.638C86.4538 374.807 85.4046 374.936 84.2296 373.544C82.87 371.932 81.9062 370.181 80.9033 368.358C80.782 368.138 80.6601 367.916 80.5368 367.694C80.1022 366.909 79.7231 366.041 79.3407 365.165C78.7455 363.801 78.1425 362.419 77.31 361.309C76.4449 360.156 76.9912 366.352 77.0339 366.641C77.0528 366.77 77.1051 367.018 77.1734 367.341C77.483 368.809 78.1202 371.83 77.448 372.267C76.9862 372.567 75.7008 371.756 75.163 371.417C75.1123 371.385 75.0683 371.357 75.0322 371.335C74.613 371.076 74.2181 370.749 73.8207 370.421C73.1198 369.841 72.411 369.254 71.5465 369.023C70.8746 368.843 71.7939 370.403 72.1579 371.021C72.2242 371.134 72.272 371.215 72.2885 371.249C72.5527 371.79 72.7954 372.362 73.0407 372.94C73.6778 374.442 74.3327 375.985 75.4291 377.15C77.2243 379.057 79.717 381.964 79.7603 384.691C79.7716 385.402 79.5499 386.018 79.3244 386.646C79.1905 387.019 79.0553 387.395 78.9666 387.797C78.8834 388.174 78.8664 388.568 78.8494 388.962C78.8189 389.666 78.7885 390.37 78.3798 390.972C76.8971 393.155 73.4399 393.386 70.6033 393.576C69.7584 393.632 68.9686 393.685 68.3024 393.785C66.6038 394.039 65.0023 394.316 63.4559 394.583C57.8485 395.554 52.9662 396.398 46.81 395.562C46.054 395.46 43.0451 396.54 39.7056 397.74C39.3439 397.87 38.9783 398.001 38.6113 398.132C47.1058 399.113 64.2755 399.569 81.8954 400.038C102.326 400.581 123.362 401.141 132.181 402.552C142.927 404.271 153.068 402.374 161.198 400.854C165.781 399.997 169.725 399.259 172.778 399.356C174.89 399.423 183.397 399.37 195.31 399.289Z" fill="#EBEDFF"/>
<path d="M352.352 209.451C387.798 212.223 391.264 243.22 394.35 249.22C402.578 245.449 413.206 245.791 420.748 249.22C428.291 252.648 439.469 266.606 451.774 265.676C467.811 264.464 469.269 269.648 484.343 270.476C496.984 271.17 530.969 270.476 530.969 274.761C530.969 277.729 530.968 280.346 525.312 280.589C514.855 281.038 410.131 283.029 392.464 280.589C397.607 298.245 359.037 297.903 340.695 295.674C305.383 308.188 275.385 299.103 263.728 285.732C232.702 283.675 143.223 294.646 153.508 285.732C163.793 276.818 184.535 290.189 211.104 280.589C237.674 270.99 265.615 271.161 273.672 268.247C270.758 260.362 288.414 247.849 300.242 249.22C291.328 227.107 321.669 207.051 352.352 209.451Z" fill="white"/>
<path fill-rule="evenodd" clip-rule="evenodd" d="M209.385 287.362C210.555 287.091 211.72 286.803 212.878 286.498C214.824 285.984 216.507 285.075 218.208 284.155C219.1 283.673 219.997 283.188 220.939 282.756C221.1 282.682 221.269 282.603 221.445 282.521C222.757 281.907 224.432 281.124 225.776 281.124C226.828 281.124 227.798 281.373 228.773 281.623C229.635 281.845 230.5 282.067 231.429 282.119C234.504 282.29 238.058 282.305 240.982 281.223C242.112 280.805 242.827 280.066 243.548 279.319C244.049 278.801 244.553 278.279 245.202 277.859C245.972 277.361 247.514 278.273 248.809 279.04C249.466 279.429 250.06 279.78 250.457 279.89C252.894 280.565 255.62 280.486 258.17 280.413C258.481 280.404 258.79 280.395 259.095 280.387C260.863 280.344 262.392 280.295 263.712 279.014C263.727 278.999 263.749 278.979 263.776 278.953C264.132 278.616 265.423 277.393 264.847 277.163C263.312 276.549 266.003 276.757 268.719 276.968C270.101 277.075 271.489 277.183 272.331 277.183C277.499 277.183 279.563 281.447 281.613 285.681C282.846 288.226 284.072 290.76 285.965 292.349C287.889 293.966 288.379 290.574 288.849 287.32C289.247 284.561 289.63 281.903 290.861 282.477C291.661 282.85 291.853 281.69 292.032 280.603C292.247 279.302 292.445 278.105 293.648 279.77C294.101 280.398 294.473 281.076 294.845 281.755C295.264 282.517 295.682 283.28 296.215 283.97C297.768 285.979 300.036 286.401 302.414 286.843L302.485 286.856C303.039 286.959 303.594 287.064 304.148 287.17C308.039 287.908 311.932 288.647 315.9 288.647C318.374 288.647 319.148 284.902 319.443 282.835C320.127 278.044 318.502 273.155 316.987 268.597C316.808 268.057 316.63 267.522 316.457 266.992C316.212 266.239 315.631 265.307 315.039 264.359C313.922 262.572 312.77 260.727 313.769 259.907C313.767 259.903 313.767 259.903 313.77 259.906L313.769 259.907C313.917 260.171 324.313 275.677 324.976 275.79C326.135 275.987 325.403 271.286 324.779 267.279C324.379 264.714 324.024 262.433 324.238 261.905C324.452 261.376 324.446 261.455 324.425 261.77C324.391 262.262 324.318 263.329 324.976 263.569C325.397 263.722 325.549 264.092 325.703 264.467C325.808 264.725 325.915 264.985 326.111 265.181C327.033 266.103 328.143 266.869 329.257 267.637C330.254 268.325 331.253 269.014 332.122 269.818C332.339 270.019 332.548 270.239 332.76 270.46C333.209 270.929 333.665 271.406 334.211 271.729C334.499 271.899 334.822 271.97 335.142 272.041C335.473 272.114 335.8 272.186 336.082 272.366C336.81 272.829 337.516 272.955 338.345 273.103C338.451 273.122 338.559 273.142 338.67 273.162C339.191 273.259 338.965 272.578 338.651 271.631C338.122 270.036 337.343 267.687 339.466 267.032C339.502 267.065 339.559 267.12 339.632 267.191C340.308 267.844 342.391 269.857 342.929 269.062C343.735 267.873 343.249 264.772 342.922 262.684C342.825 262.059 342.741 261.525 342.71 261.16C342.625 260.144 342.525 259.124 342.425 258.1C342.078 254.571 341.729 251.008 341.974 247.486C342.003 247.071 342.672 241.43 343.288 244.62C344.261 249.665 345.257 254.294 348.423 258.533C352.104 263.462 357.441 267.274 363.43 268.823C370.291 270.598 376.171 262.681 378.796 257.359C379.665 255.597 380.264 253.693 380.633 251.752C380.61 250.668 380.628 249.589 380.786 248.521C380.962 247.337 381.129 247.262 381.025 248.72C380.953 249.731 380.824 250.747 380.633 251.752C380.643 252.215 380.66 252.678 380.678 253.141C380.739 254.741 380.799 256.341 380.547 257.916C380.504 258.186 380.458 258.462 380.41 258.742C379.911 261.695 379.332 265.124 381.781 267.31C384.53 269.765 388.464 271.092 392.111 271.092C393.702 271.092 395.193 271.043 396.749 270.654C399.067 270.075 399.591 266.206 399.885 264.04C399.917 263.808 399.945 263.596 399.973 263.409C400.066 262.793 400.117 261.818 400.17 260.816C400.29 258.548 400.417 256.136 401.048 257.398C401.237 257.775 401.171 258.445 401.125 258.908C401.119 258.973 401.113 259.034 401.108 259.09C401.067 259.558 401.529 261.09 401.89 261.391C402.82 262.166 403.699 262.363 404.652 262.576C405.254 262.71 405.887 262.852 406.581 263.151C411.243 265.157 415.381 265.262 418.444 260.702C418.648 260.398 418.883 260.017 419.129 259.616C420.33 257.661 421.806 255.26 421.37 259.269C420.945 263.183 421.871 264.361 425.41 266.275C426.759 267.005 428.143 267.554 429.523 268.101C431.293 268.803 433.055 269.503 434.725 270.575C436.182 271.51 437.811 272.161 439.443 272.812C441.062 273.458 442.683 274.106 444.14 275.033C444.379 275.185 444.608 275.497 444.823 275.789C445.035 276.077 445.233 276.346 445.414 276.426C445.979 276.678 447.019 276.621 447.875 276.574C448.259 276.553 448.606 276.534 448.857 276.546C449.546 276.578 450.256 276.63 450.975 276.684C453.482 276.871 456.114 277.068 458.471 276.407C459.003 276.257 459.478 275.92 459.948 275.587C460.467 275.219 460.979 274.856 461.556 274.754C463.484 274.414 464.931 275.433 466.387 276.459C467.639 277.34 468.897 278.226 470.473 278.258C471.77 278.283 473.066 278.277 474.362 278.272C476.828 278.26 479.291 278.249 481.758 278.457C489.178 279.08 496.631 279.922 503.992 281.096C469.592 281.738 405.889 282.443 392.464 280.589C397.606 298.245 359.036 297.903 340.694 295.674C305.382 308.188 275.384 299.102 263.728 285.732C251.479 284.92 230.119 286.138 209.385 287.362Z" fill="#EDEFFF"/>
<path d="M44.0433 438.453C45.8033 438.453 47.3473 438.797 48.6753 439.485C50.0193 440.173 51.0513 441.157 51.7713 442.437C52.5073 443.701 52.8753 445.173 52.8753 446.853C52.8753 448.533 52.5073 450.005 51.7713 451.269C51.0513 452.517 50.0193 453.485 48.6753 454.173C47.3473 454.861 45.8033 455.205 44.0433 455.205H38.1873V438.453H44.0433ZM43.9233 452.349C45.6833 452.349 47.0433 451.869 48.0033 450.909C48.9633 449.949 49.4433 448.597 49.4433 446.853C49.4433 445.109 48.9633 443.749 48.0033 442.773C47.0433 441.781 45.6833 441.285 43.9233 441.285H41.5473V452.349H43.9233ZM64.0304 455.205L60.3344 448.677H58.7504V455.205H55.3904V438.453H61.6784C62.9744 438.453 64.0784 438.685 64.9904 439.149C65.9024 439.597 66.5824 440.213 67.0304 440.997C67.4944 441.765 67.7264 442.629 67.7264 443.589C67.7264 444.693 67.4064 445.693 66.7664 446.589C66.1264 447.469 65.1744 448.077 63.9104 448.413L67.9184 455.205H64.0304ZM58.7504 446.157H61.5584C62.4704 446.157 63.1504 445.941 63.5984 445.509C64.0464 445.061 64.2704 444.445 64.2704 443.661C64.2704 442.893 64.0464 442.301 63.5984 441.885C63.1504 441.453 62.4704 441.237 61.5584 441.237H58.7504V446.157ZM74.1254 441.165V445.365H79.7654V448.029H74.1254V452.469H80.4854V455.205H70.7654V438.429H80.4854V441.165H74.1254ZM93.8108 452.013H87.1388L86.0348 455.205H82.5068L88.5308 438.429H92.4428L98.4668 455.205H94.9148L93.8108 452.013ZM92.8988 449.325L90.4748 442.317L88.0508 449.325H92.8988ZM118.983 438.453V455.205H115.623V444.309L111.135 455.205H108.591L104.079 444.309V455.205H100.719V438.453H104.535L109.863 450.909L115.191 438.453H118.983ZM44.0433 468.453C45.8033 468.453 47.3473 468.797 48.6753 469.485C50.0193 470.173 51.0513 471.157 51.7713 472.437C52.5073 473.701 52.8753 475.173 52.8753 476.853C52.8753 478.533 52.5073 480.005 51.7713 481.269C51.0513 482.517 50.0193 483.485 48.6753 484.173C47.3473 484.861 45.8033 485.205 44.0433 485.205H38.1873V468.453H44.0433ZM43.9233 482.349C45.6833 482.349 47.0433 481.869 48.0033 480.909C48.9633 479.949 49.4433 478.597 49.4433 476.853C49.4433 475.109 48.9633 473.749 48.0033 472.773C47.0433 471.781 45.6833 471.285 43.9233 471.285H41.5473V482.349H43.9233ZM58.7504 471.165V475.365H64.3904V478.029H58.7504V482.469H65.1104V485.205H55.3904V468.429H65.1104V471.165H58.7504ZM73.9478 485.373C72.7798 485.373 71.7238 485.173 70.7798 484.773C69.8518 484.373 69.1158 483.797 68.5718 483.045C68.0278 482.293 67.7478 481.405 67.7318 480.381H71.3318C71.3798 481.069 71.6198 481.613 72.0518 482.013C72.4998 482.413 73.1078 482.613 73.8758 482.613C74.6598 482.613 75.2758 482.429 75.7238 482.061C76.1718 481.677 76.3958 481.181 76.3958 480.573C76.3958 480.077 76.2438 479.669 75.9398 479.349C75.6358 479.029 75.2518 478.781 74.7878 478.605C74.3398 478.413 73.7158 478.205 72.9158 477.981C71.8278 477.661 70.9398 477.349 70.2518 477.045C69.5798 476.725 68.9958 476.253 68.4998 475.629C68.0198 474.989 67.7798 474.141 67.7798 473.085C67.7798 472.093 68.0278 471.229 68.5238 470.493C69.0198 469.757 69.7158 469.197 70.6118 468.813C71.5078 468.413 72.5318 468.213 73.6838 468.213C75.4118 468.213 76.8118 468.637 77.8838 469.485C78.9718 470.317 79.5718 471.485 79.6838 472.989H75.9878C75.9558 472.413 75.7078 471.941 75.2438 471.573C74.7958 471.189 74.1958 470.997 73.4438 470.997C72.7878 470.997 72.2598 471.165 71.8598 471.501C71.4758 471.837 71.2838 472.325 71.2838 472.965C71.2838 473.413 71.4278 473.789 71.7158 474.093C72.0198 474.381 72.3878 474.621 72.8198 474.813C73.2678 474.989 73.8918 475.197 74.6918 475.437C75.7798 475.757 76.6678 476.077 77.3558 476.397C78.0438 476.717 78.6358 477.197 79.1318 477.837C79.6278 478.477 79.8758 479.317 79.8758 480.357C79.8758 481.253 79.6438 482.085 79.1798 482.853C78.7158 483.621 78.0358 484.237 77.1398 484.701C76.2438 485.149 75.1798 485.373 73.9478 485.373ZM86.1488 468.453V485.205H82.7888V468.453H86.1488ZM101.133 473.493C100.749 472.789 100.221 472.253 99.5485 471.885C98.8765 471.517 98.0925 471.333 97.1965 471.333C96.2045 471.333 95.3245 471.557 94.5565 472.005C93.7885 472.453 93.1885 473.093 92.7565 473.925C92.3245 474.757 92.1085 475.717 92.1085 476.805C92.1085 477.925 92.3245 478.901 92.7565 479.733C93.2045 480.565 93.8205 481.205 94.6045 481.653C95.3885 482.101 96.3005 482.325 97.3405 482.325C98.6205 482.325 99.6685 481.989 100.484 481.317C101.301 480.629 101.837 479.677 102.093 478.461H96.3325V475.893H105.405V478.821C105.181 479.989 104.701 481.069 103.965 482.061C103.229 483.053 102.277 483.853 101.109 484.461C99.9565 485.053 98.6605 485.349 97.2205 485.349C95.6045 485.349 94.1405 484.989 92.8285 484.269C91.5325 483.533 90.5085 482.517 89.7565 481.221C89.0205 479.925 88.6525 478.453 88.6525 476.805C88.6525 475.157 89.0205 473.685 89.7565 472.389C90.5085 471.077 91.5325 470.061 92.8285 469.341C94.1405 468.605 95.5965 468.237 97.1965 468.237C99.0845 468.237 100.725 468.701 102.117 469.629C103.509 470.541 104.469 471.829 104.997 473.493H101.133ZM122.218 485.205H118.858L111.25 473.709V485.205H107.89V468.429H111.25L118.858 479.949V468.429H122.218V485.205ZM44.0433 498.453C45.8033 498.453 47.3473 498.797 48.6753 499.485C50.0193 500.173 51.0513 501.157 51.7713 502.437C52.5073 503.701 52.8753 505.173 52.8753 506.853C52.8753 508.533 52.5073 510.005 51.7713 511.269C51.0513 512.517 50.0193 513.485 48.6753 514.173C47.3473 514.861 45.8033 515.205 44.0433 515.205H38.1873V498.453H44.0433ZM43.9233 512.349C45.6833 512.349 47.0433 511.869 48.0033 510.909C48.9633 509.949 49.4433 508.597 49.4433 506.853C49.4433 505.109 48.9633 503.749 48.0033 502.773C47.0433 501.781 45.6833 501.285 43.9233 501.285H41.5473V512.349H43.9233ZM58.7504 501.165V505.365H64.3904V508.029H58.7504V512.469H65.1104V515.205H55.3904V498.429H65.1104V501.165H58.7504ZM83.2118 498.453L77.0678 515.205H72.9878L66.8438 498.453H70.4438L75.0518 511.773L79.6358 498.453H83.2118ZM88.5863 501.165V505.365H94.2263V508.029H88.5863V512.469H94.9463V515.205H85.2263V498.429H94.9463V501.165H88.5863ZM101.36 512.541H106.88V515.205H97.9998V498.453H101.36V512.541ZM116.791 515.373C115.223 515.373 113.783 515.005 112.471 514.269C111.159 513.533 110.119 512.517 109.351 511.221C108.583 509.909 108.199 508.429 108.199 506.781C108.199 505.149 108.583 503.685 109.351 502.389C110.119 501.077 111.159 500.053 112.471 499.317C113.783 498.581 115.223 498.213 116.791 498.213C118.375 498.213 119.815 498.581 121.111 499.317C122.423 500.053 123.455 501.077 124.207 502.389C124.975 503.685 125.359 505.149 125.359 506.781C125.359 508.429 124.975 509.909 124.207 511.221C123.455 512.517 122.423 513.533 121.111 514.269C119.799 515.005 118.359 515.373 116.791 515.373ZM116.791 512.373C117.799 512.373 118.687 512.149 119.455 511.701C120.223 511.237 120.823 510.581 121.255 509.733C121.687 508.885 121.903 507.901 121.903 506.781C121.903 505.661 121.687 504.685 121.255 503.853C120.823 503.005 120.223 502.357 119.455 501.909C118.687 501.461 117.799 501.237 116.791 501.237C115.783 501.237 114.887 501.461 114.103 501.909C113.335 502.357 112.735 503.005 112.303 503.853C111.871 504.685 111.655 505.661 111.655 506.781C111.655 507.901 111.871 508.885 112.303 509.733C112.735 510.581 113.335 511.237 114.103 511.701C114.887 512.149 115.783 512.373 116.791 512.373ZM140.075 503.637C140.075 504.533 139.859 505.373 139.427 506.157C139.011 506.941 138.347 507.573 137.435 508.053C136.539 508.533 135.403 508.773 134.027 508.773H131.219V515.205H127.859V498.453H134.027C135.323 498.453 136.427 498.677 137.339 499.125C138.251 499.573 138.931 500.189 139.379 500.973C139.843 501.757 140.075 502.645 140.075 503.637ZM133.883 506.061C134.811 506.061 135.499 505.853 135.947 505.437C136.395 505.005 136.619 504.405 136.619 503.637C136.619 502.005 135.707 501.189 133.883 501.189H131.219V506.061H133.883Z" fill="white"/>
<path d="M78.0896 233.482L75.0377 237.342L115.426 248.164L114.713 243.296L78.0896 233.482Z" fill="#B5AAFF"/>
<path d="M115.483 248.638C115.001 250.434 105.493 249.447 94.2459 246.433C82.9984 243.419 74.2706 239.52 74.7518 237.724C75.233 235.928 84.741 236.916 95.9885 239.93C107.236 242.943 115.964 246.842 115.483 248.638Z" fill="#B5AAFF"/>
<ellipse cx="96.4003" cy="238.389" rx="18.9577" ry="2.48045" transform="rotate(15 96.4003 238.389)" fill="#CFC8FF"/>
<rect x="115.615" y="156.411" width="5.31526" height="83.4495" transform="rotate(15 115.615 156.411)" fill="#AAA2DE"/>
<ellipse cx="96.5848" cy="237.704" rx="2.65763" ry="0.708701" transform="rotate(15 96.5848 237.704)" fill="#AAA2DE"/>
<path d="M135.804 205.658L138.836 160.798L98.4479 149.976L78.5583 190.319L135.804 205.658Z" fill="#BEB4FF"/>
<ellipse cx="118.642" cy="155.387" rx="20.9067" ry="4.42938" transform="rotate(15 118.642 155.387)" fill="#BEB4FF"/>
<ellipse cx="118.825" cy="154.703" rx="16.4773" ry="2.48045" transform="rotate(15 118.825 154.703)" fill="#AAA2DE"/>
<ellipse cx="107.269" cy="197.829" rx="29.7654" ry="6.20113" transform="rotate(15 107.269 197.829)" fill="#BEB4FF"/>
<path fill-rule="evenodd" clip-rule="evenodd" d="M125.613 158.799C123.366 158.382 120.837 157.809 118.182 157.098C115.528 156.387 113.051 155.618 110.897 154.856C112.027 150.852 116.169 148.488 120.2 149.568C124.231 150.648 126.636 154.766 125.613 158.799Z" fill="#D1CAFF"/>
<defs>
<radialGradient id="paint0_radial_1902_1992" cx="0" cy="0" r="1" gradientUnits="userSpaceOnUse" gradientTransform="translate(265.231 345.197) rotate(-135.531) scale(159.373 386.909)">
<stop stop-color="white"/>
<stop offset="1" stop-color="white" stop-opacity="0"/>
</radialGradient>
<radialGradient id="paint1_radial_1902_1992" cx="0" cy="0" r="1" gradientUnits="userSpaceOnUse" gradientTransform="translate(270.338 362.62) rotate(-135.531) scale(159.373 386.909)">
<stop stop-color="white"/>
<stop offset="1" stop-color="white" stop-opacity="0"/>
</radialGradient>
<radialGradient id="paint2_radial_1902_1992" cx="0" cy="0" r="1" gradientUnits="userSpaceOnUse" gradientTransform="translate(241.424 315.62) rotate(-135.531) scale(159.373 386.909)">
<stop stop-color="white"/>
<stop offset="1" stop-color="white" stop-opacity="0"/>
</radialGradient>
<radialGradient id="paint3_radial_1902_1992" cx="0" cy="0" r="1" gradientUnits="userSpaceOnUse" gradientTransform="translate(245.611 331.082) rotate(-135.531) scale(159.373 386.909)">
<stop stop-color="white"/>
<stop offset="1" stop-color="white" stop-opacity="0"/>
</radialGradient>
<radialGradient id="paint4_radial_1902_1992" cx="0" cy="0" r="1" gradientUnits="userSpaceOnUse" gradientTransform="translate(299.037 411.684) rotate(-135.531) scale(159.373 386.909)">
<stop stop-color="white"/>
<stop offset="1" stop-color="white" stop-opacity="0"/>
</radialGradient>
<radialGradient id="paint5_radial_1902_1992" cx="0" cy="0" r="1" gradientUnits="userSpaceOnUse" gradientTransform="translate(303.678 428.81) rotate(-135.531) scale(159.373 386.909)">
<stop stop-color="white"/>
<stop offset="1" stop-color="white" stop-opacity="0"/>
</radialGradient>
<radialGradient id="paint6_radial_1902_1992" cx="0" cy="0" r="1" gradientUnits="userSpaceOnUse" gradientTransform="translate(275.231 382.107) rotate(-135.531) scale(159.373 386.909)">
<stop stop-color="white"/>
<stop offset="1" stop-color="white" stop-opacity="0"/>
</radialGradient>
<radialGradient id="paint7_radial_1902_1992" cx="0" cy="0" r="1" gradientUnits="userSpaceOnUse" gradientTransform="translate(279.42 397.57) rotate(-135.531) scale(159.373 386.909)">
<stop stop-color="white"/>
<stop offset="1" stop-color="white" stop-opacity="0"/>
</radialGradient>
<linearGradient id="paint8_linear_1902_1992" x1="273.912" y1="579.754" x2="226.424" y2="578.577" gradientUnits="userSpaceOnUse">
<stop stop-color="#F5B523"/>
<stop offset="1" stop-color="#D38300"/>
</linearGradient>
<linearGradient id="paint9_linear_1902_1992" x1="203.505" y1="537.765" x2="196.369" y2="532.592" gradientUnits="userSpaceOnUse">
<stop stop-color="#F5B523"/>
<stop offset="1" stop-color="#8E5901"/>
</linearGradient>
<linearGradient id="paint10_linear_1902_1992" x1="200.849" y1="564.678" x2="217.017" y2="602.935" gradientUnits="userSpaceOnUse">
<stop stop-color="#F5B523"/>
<stop offset="0.16" stop-color="#FDA71A"/>
<stop offset="0.95" stop-color="#E79002"/>
<stop offset="1" stop-color="#444BEF"/>
</linearGradient>
<linearGradient id="paint11_linear_1902_1992" x1="227.31" y1="512.678" x2="209.971" y2="530.055" gradientUnits="userSpaceOnUse">
<stop stop-color="#F5B523"/>
<stop offset="1" stop-color="#F5B523" stop-opacity="0"/>
</linearGradient>
<radialGradient id="paint12_radial_1902_1992" cx="0" cy="0" r="1" gradientUnits="userSpaceOnUse" gradientTransform="translate(208.185 521.125) rotate(-58.5779) scale(7.52737 7.52827)">
<stop stop-color="#F5B523" stop-opacity="0"/>
<stop offset="0.65" stop-color="#F5B523" stop-opacity="0.141176"/>
<stop offset="0.84" stop-color="#F5B523" stop-opacity="0.533333"/>
<stop offset="1" stop-color="#F5B523"/>
</radialGradient>
<linearGradient id="paint13_linear_1902_1992" x1="190.043" y1="492.718" x2="182.456" y2="473.285" gradientUnits="userSpaceOnUse">
<stop stop-color="#F5B523"/>
<stop offset="1" stop-color="#CD7F00"/>
</linearGradient>
</defs>
</svg>
