<svg width="958" height="698" viewBox="0 0 958 698" fill="none" xmlns="http://www.w3.org/2000/svg">
<path d="M16.9922 342.173C133.445 500.809 238.207 360.678 335.497 449.506C432.787 538.334 467.251 534.068 514.036 491.074C560.821 448.08 501.489 317.898 620.025 304.137C689.11 296.116 653.645 329.234 736.466 371.201C819.288 413.167 908.554 271.716 993.42 293.261" stroke="url(#paint0_linear_1318_425)" stroke-width="1.63071"/>
<path d="M25.0766 326.787C141.529 485.424 246.291 345.293 343.581 434.121C440.872 522.949 475.336 518.683 522.12 475.689C568.905 432.694 509.574 302.512 628.109 288.751C697.194 280.731 661.73 313.849 744.551 355.815C827.372 397.782 916.639 256.331 1001.5 277.876" stroke="url(#paint1_linear_1318_425)" stroke-width="1.63071"/>
<path d="M33.1607 311.401C149.613 470.037 254.375 329.906 351.666 418.734C448.956 507.562 483.42 503.296 530.204 460.302C576.989 417.307 517.658 287.126 636.193 273.364C705.278 265.344 669.814 298.462 752.635 340.428C835.456 382.395 924.723 240.944 1009.59 262.489" stroke="url(#paint2_linear_1318_425)" stroke-width="1.63071"/>
<path d="M41.2445 296.015C157.697 454.651 262.459 314.521 359.749 403.348C457.039 492.176 491.504 487.91 538.288 444.916C585.073 401.922 525.742 271.74 644.277 257.979C713.362 249.958 677.898 283.076 760.719 325.043C843.54 367.009 932.807 225.558 1017.67 247.103" stroke="url(#paint3_linear_1318_425)" stroke-width="1.63071"/>
<path d="M49.329 280.628C165.782 439.265 270.544 299.134 367.834 387.962C465.124 476.789 499.588 472.524 546.373 429.529C593.157 386.535 533.826 256.353 652.362 242.592C721.447 234.571 685.982 267.69 768.803 309.656C851.624 351.622 940.891 210.172 1025.76 231.717" stroke="url(#paint4_linear_1318_425)" stroke-width="1.63071"/>
<path d="M57.4129 265.242C173.866 423.879 278.628 283.748 375.918 372.576C473.208 461.404 507.672 457.138 554.457 414.144C601.241 371.149 541.91 240.967 660.446 227.206C729.531 219.186 694.066 252.304 776.887 294.27C859.708 336.237 948.975 194.786 1033.84 216.331" stroke="url(#paint5_linear_1318_425)" stroke-width="1.63071"/>
<path d="M777.794 484.222L748.213 489.486L739.439 523.42L766.381 536.967L765.022 527.781L778.845 534.812L772.193 523.42L805.605 514.864L769.225 496.253L777.794 484.222Z" fill="#EE9919"/>
<path d="M761.016 494.254L749.457 496.259L742.996 519.311L758.51 527.813L756.504 519.311L774.231 511.19L756.891 499.569L761.016 494.254Z" fill="#FFB546"/>
<path d="M746.267 485.108L718.516 478.776L699.757 531.771L740.495 529.993C748.487 521.772 751.373 489.663 746.267 485.108Z" fill="#78739C"/>
<path d="M730.555 468.074L688.855 458.575L660.666 538.067L721.882 535.401C733.891 523.069 738.228 474.907 730.555 468.074Z" fill="#BAB2EA"/>
<path d="M570.024 562.581C528.301 549.436 511.633 540.92 488.039 524.687H570.024C580.518 541.932 589.61 550.422 613.968 562.581C602.467 564.454 593.273 564.597 570.024 562.581Z" fill="#F7F5FF"/>
<path d="M726.657 344.25C710.541 332.538 698.05 347.69 680.873 332.538L674.646 367.127C697.053 379.367 709.625 363.833 731.052 377.924C730.37 364.291 729.565 356.843 726.657 344.25Z" fill="#F7F5FF"/>
<path d="M682.821 333.135L673.288 425.975L663.097 424.928L675.178 332.35C675.663 330.9 677.803 330.755 679.295 330.909C680.787 331.062 682.309 332.225 682.821 333.135Z" fill="#BFB6F6"/>
<path d="M591.775 425.234L589.397 468.591L689.832 483.958C697.089 465.359 704.943 425.234 704.651 425.234C699.711 418.648 642.267 409.866 634.218 409.318C627.778 408.879 603.239 419.745 591.775 425.234Z" fill="#CBC2FF"/>
<path d="M634.218 409.317C634.218 423.771 632.928 463.103 629.635 476.092L689.832 483.958C697.089 465.359 704.943 425.233 704.651 425.233C699.711 418.648 642.267 409.866 634.218 409.317Z" fill="#BAB2EA"/>
<path d="M445.97 445.541C435.176 449.328 432.981 454.871 439.018 462.92C444.02 484.33 449.461 499.316 458.4 513.965C469.926 513.965 478.264 531.038 485.659 539.756C494.074 545.976 684.71 549.452 694.04 538.476C695.984 530.976 698.245 523.528 701.453 515.974C706.695 503.626 714.466 490.992 727.518 477.373C732.031 476.857 732.281 476.662 736.117 474.994C737.397 472.799 737.397 469.689 737.031 467.311C730.263 461.64 685.728 448.825 637.877 445.541C631.905 452.716 629.022 457.443 625.802 468.774C607.355 465.25 594.64 465.128 575.859 465.116C576.591 458.53 576.774 443.528 567.992 436.211C517.299 430.857 479.814 433.666 445.97 445.541Z" fill="#D1CAFF"/>
<path fill-rule="evenodd" clip-rule="evenodd" d="M709.481 500.408C680.017 491.355 626.624 479.569 598.91 479.019C556.069 478.168 484.296 478.251 448.197 493.475C450.231 498.606 452.479 503.429 455.039 508.136C473.85 501.607 511.142 494.752 563.054 494.752C622.931 494.752 677.785 502.446 704.458 509.451C705.947 506.463 707.608 503.452 709.481 500.408Z" fill="#BAB2EA"/>
<path d="M554.272 505.912C556.284 499.692 557.565 454.505 555.003 440.784C552.503 439.992 547.686 439.065 548.417 441.699C549.332 444.992 548.052 502.436 547.32 505.18C548.783 507.558 553.54 506.278 554.272 505.912Z" fill="#E9E6FF"/>
<path d="M658.92 513.526C661.659 509.205 667.583 466.976 667.148 455.785C665.255 454.865 660.653 453.609 660.927 455.785C661.27 458.506 655.059 510.038 654.159 512.132C655.043 514.19 658.297 513.731 658.92 513.526Z" fill="#E9E6FF"/>
<path d="M694.909 515.303C698.114 511.316 708.403 471.895 709.224 460.725C707.447 459.598 701.878 458.532 701.907 460.726C701.942 463.468 691.463 511.405 690.333 513.384C690.982 515.529 694.266 515.437 694.909 515.303Z" fill="#E9E6FF"/>
<path d="M634.149 415.013C625.368 415.013 595.731 426.196 591.524 428.026C590.426 428.026 589.877 423.452 591.524 422.537C606.524 415.398 625.368 408.61 634.149 408.244C647.87 407.672 693.81 417.485 705.555 424.892C707.385 426.046 705.68 430.984 703.484 430.221C678.295 421.471 641.65 415.013 634.149 415.013Z" fill="#E9E6FF"/>
<path d="M731.823 494.251L685.041 481.214L680.492 517.978L728.444 521.368L731.823 494.251Z" fill="#A89BF5"/>
<ellipse cx="730.209" cy="507.806" rx="5.25314" ry="13.671" transform="rotate(7.51077 730.209 507.806)" fill="#A89BF5"/>
<path d="M721.106 486.52L655.247 468.225L648.844 519.815L716.35 524.572L721.106 486.52Z" fill="#F7F5FF"/>
<ellipse cx="651.953" cy="494.02" rx="8.78124" ry="25.9778" transform="rotate(7.51077 651.953 494.02)" fill="#A89BF5"/>
<ellipse cx="718.572" cy="505.556" rx="7.39835" ry="19.2538" transform="rotate(7.51077 718.572 505.556)" fill="#F7F5FF"/>
<ellipse cx="653.738" cy="495.598" rx="3.89524" ry="15.846" transform="rotate(7.51077 653.738 495.598)" fill="#6F63BD"/>
<path d="M696.591 529.328C644.27 538.475 525.54 538.475 479.804 531.89L485.658 539.756C503.038 547.623 677.748 551.099 694.03 538.475L696.591 529.328Z" fill="#BAB2EA"/>
<path d="M585.921 398.707L586.653 474.262H558.662L562.687 400.537C563.602 397.975 570.664 396.146 574.761 396.146C578.859 396.146 584.274 397.244 585.921 398.707Z" fill="#A99CFE"/>
<path d="M583.167 321.14V405.659H565.605L570.178 321.14C570.752 319.52 574.193 319.127 576.764 319.127C579.335 319.127 582.134 320.214 583.167 321.14Z" fill="#BFB6F7"/>
<path d="M581.704 270.831V328.644H571.459L574.02 270.831C574.355 269.906 576.469 269.682 577.969 269.682C579.468 269.682 581.101 270.303 581.704 270.831Z" fill="#A99CFE"/>
<path d="M581.704 150.149V207.962H571.459L574.02 150.149C574.355 149.225 576.469 149 577.969 149C579.468 149 581.101 149.621 581.704 150.149Z" fill="#A99CFE"/>
<path d="M577.104 168.039C568.584 168.039 560.82 169.24 558.718 169.955C558.979 178.428 561.005 183.589 564.298 189.91C570.701 190.907 582.409 191.821 589.91 189.91C593.569 184.138 595.538 179.516 596.313 171.515C594.227 170.084 585.336 168.039 577.104 168.039Z" fill="#A99CFE"/>
<path d="M670.656 296.216L501.618 329.887C499.407 330.741 500.321 337.195 501.618 337.195L670.656 307.678C673.751 307.678 674.117 295.433 670.656 296.216Z" fill="#BFB6F7"/>
<path d="M662.372 182.085L527.15 209.008C525.381 209.69 526.113 214.851 527.15 214.851L662.372 191.251C664.847 191.25 665.14 181.459 662.372 182.085Z" fill="#BFB6F7"/>
<path d="M657.652 439.956C589.228 438.118 542.78 425.372 492.287 435.434C500.144 409.449 476.382 371.412 496.036 337.334L665.164 307.923C642.712 355.073 670.222 406.69 657.652 439.956Z" fill="#E9E6FF"/>
<path d="M657.652 439.956C589.228 438.118 542.78 425.372 492.287 435.434C500.144 409.449 476.382 371.412 496.036 337.334L665.164 307.923C642.712 355.073 670.222 406.69 657.652 439.956Z" fill="url(#paint6_linear_1318_425)"/>
<path d="M647.68 288.571C593.053 287.103 549.469 303.49 509.158 311.527C515.431 290.77 507.067 242.215 522.758 214.994L657.781 191.501C639.856 229.163 657.715 261.998 647.68 288.571Z" fill="#E9E6FF"/>
<path d="M647.68 288.571C593.053 287.103 549.469 303.49 509.158 311.527C515.431 290.77 507.067 242.215 522.758 214.994L657.781 191.501C639.856 229.163 657.715 261.998 647.68 288.571Z" fill="url(#paint7_linear_1318_425)"/>
<g filter="url(#filter0_d_1318_425)">
<path d="M529.906 397.871L530.402 449.124H511.415L514.145 399.112C514.765 397.375 519.556 396.134 522.336 396.134C525.115 396.134 528.789 396.878 529.906 397.871Z" fill="#A99CFE"/>
<path d="M528.037 345.253V402.586H516.124L519.226 345.253C519.616 344.154 521.95 343.887 523.694 343.887C525.438 343.887 527.336 344.625 528.037 345.253Z" fill="#BFB6F7"/>
<path d="M527.13 207.456V350.224H520.047L521.817 207.456C522.049 205.173 523.51 204.619 524.547 204.619C525.585 204.619 526.713 206.152 527.13 207.456Z" fill="#A99CFE"/>
<path d="M579.911 332.223L465.243 355.064C463.743 355.643 464.364 360.021 465.243 360.021L579.911 339.999C582.01 339.999 582.258 331.692 579.911 332.223Z" fill="#BFB6F7"/>
<path d="M582.01 234.551L467.342 257.392C465.842 257.971 466.463 262.349 467.342 262.349L582.01 242.327C584.109 242.327 584.357 234.02 582.01 234.551Z" fill="#BFB6F7"/>
<path d="M571.089 429.729C524.673 428.483 493.165 419.836 458.914 426.662C464.244 409.035 448.125 383.232 461.457 360.116L576.185 340.165C560.954 372.149 579.616 407.163 571.089 429.729Z" fill="#E9E6FF"/>
<path d="M571.089 429.729C524.673 428.483 493.165 419.836 458.914 426.662C464.244 409.035 448.125 383.232 461.457 360.116L576.185 340.165C560.954 372.149 579.616 407.163 571.089 429.729Z" fill="url(#paint8_linear_1318_425)"/>
<path d="M573.96 317.823C527.544 316.577 497.808 336.971 463.556 343.796C468.886 326.169 450.224 285.561 463.556 262.445L578.284 242.493C563.053 274.477 582.487 295.257 573.96 317.823Z" fill="#E9E6FF"/>
<path d="M573.96 317.823C527.544 316.577 497.808 336.971 463.556 343.796C468.886 326.169 450.224 285.561 463.556 262.445L578.284 242.493C563.053 274.477 582.487 295.257 573.96 317.823Z" fill="url(#paint9_linear_1318_425)"/>
</g>
<path d="M381.016 429.625C380.352 421.192 400.956 425.478 407.725 427.613C423.812 441.137 435.105 445.252 459.315 446.09L449.802 449.932C454.543 474.029 454.924 491.225 471.008 512.63C460.072 508.607 442.652 482.993 428.946 461.091C409.49 444.671 381.636 437.517 381.016 429.625Z" fill="#E9E6FF"/>
<path fill-rule="evenodd" clip-rule="evenodd" d="M438.933 462.807C451.329 456.084 474.951 446.642 499.023 444.809C527.855 442.614 553.601 444.87 562.87 446.272C563.967 450.785 565.65 465.262 564.333 473.897C573.663 472.616 596.092 472.726 606.044 473.897C617.021 475.188 630.559 477.19 637.327 479.202C639.401 472.189 644.279 457.981 646.474 456.334C648.663 456.334 713.267 464.853 727.424 477.472C727.455 477.439 727.487 477.406 727.518 477.373C731.778 476.886 732.24 476.685 735.504 475.261C735.698 475.177 735.902 475.088 736.117 474.994C737.397 472.799 737.397 469.689 737.031 467.311C730.263 461.64 685.728 448.825 637.877 445.541C631.905 452.716 629.022 457.443 625.802 468.774C607.355 465.25 594.64 465.128 575.859 465.116C576.591 458.53 576.774 443.528 567.992 436.211C517.299 430.857 479.814 433.666 445.97 445.541C435.227 449.31 433.002 454.819 438.933 462.807Z" fill="#E9E6FF"/>
<path d="M655.813 556.301C615.411 549.136 595.079 538.067 564.909 524.687H646.893C664.864 541.215 675.752 548.037 699.757 556.301C688.256 560.132 679.062 560.423 655.813 556.301Z" fill="#F7F5FF"/>
<path d="M909.772 632.488L869.893 628.9L842.979 597.245L884.548 598.326L909.772 632.488Z" fill="#BAB2EA"/>
<path d="M909.772 632.488L926.474 593.458L905.335 558.253L884.548 598.326L909.772 632.488Z" fill="#C4BBFB"/>
<path d="M842.978 597.245L865.788 560.122L905.335 558.253L884.548 598.326L842.978 597.245Z" fill="#D1CAFF"/>
<path d="M308.865 574.042L349.545 624.912L386.796 624.509L345.34 570.97L308.865 574.042Z" fill="#D1CAFF"/>
<path d="M305.153 515.538L345.833 566.407L383.083 566.005L341.627 512.466L305.153 515.538Z" fill="#D1CAFF"/>
<path d="M399.986 667.138L364.939 665.574L341.004 638.277L378.539 640.032L399.986 667.138Z" fill="#D1CAFF"/>
<path d="M399.988 667.145L435.306 593.939L415.501 567.675L378.539 640.031L399.988 667.145Z" fill="#C4BBFB"/>
<path d="M341.006 638.284L383.423 567.157L415.502 567.675L378.539 640.031L341.006 638.284Z" fill="#BAB2EA"/>
<path d="M360.018 483.48L399.281 539.859L365.647 597.815L345.341 570.971L363.445 542.064L341.593 512.429L360.018 483.48Z" fill="#C4BBFB"/>
<path d="M308.865 574.043L345.34 570.971L363.51 542.091L329.727 545.883L308.865 574.043Z" fill="#BAB2EA"/>
<path d="M305.153 515.539L341.628 512.467L360.024 483.487L326.015 487.378L305.153 515.539Z" fill="#BAB2EA"/>
<path d="M765.68 295.354L824.759 303.689L841.821 333.241L780.275 325.54L765.68 295.354Z" fill="#D1CAFF"/>
<path d="M883.736 320.156L862.949 297.303L831.317 290.719L852.362 315.895L883.736 320.156Z" fill="#D1CAFF"/>
<path d="M883.736 320.156L840.354 385.744L810.411 382.385L852.362 315.895L883.736 320.156Z" fill="#C4BBFB"/>
<path d="M831.317 290.719L795.037 357.34L810.411 382.386L852.362 315.896L831.317 290.719Z" fill="#BAB2EA"/>
<path d="M748.299 387.399L777.972 387.399L810.911 329.024L780.275 325.541L748.299 387.399Z" fill="#C4BBFB"/>
<path d="M765.987 353.337L794.908 357.34L810.401 382.387L776.574 378.901L765.987 353.337Z" fill="#D1CAFF"/>
<path d="M757.982 412.341L735 353.767L765.68 295.354L780.275 325.54L765.987 353.337L776.316 379.03L757.982 412.341Z" fill="#BAB2EA"/>
<path d="M757.982 412.342L792.713 413.504L810.789 382.13L776.058 379.031L757.982 412.342Z" fill="#C4BBFB"/>
<line x1="306.654" y1="147.362" x2="320.945" y2="250.534" stroke="white" stroke-width="0.736193"/>
<path d="M305.458 141.8L311.614 151.887L302.489 153.238L305.458 141.8Z" fill="url(#paint10_linear_1318_425)"/>
<ellipse cx="300.926" cy="111.208" rx="29.6858" ry="36.1958" transform="rotate(-8.42525 300.926 111.208)" fill="url(#paint11_linear_1318_425)"/>
<path d="M303.99 147.435C305.84 148.011 306.862 147.856 308.495 146.768" stroke="white" stroke-width="0.736005" stroke-linecap="round"/>
<path d="M311.803 152.07C311.822 152.199 311.752 152.363 311.541 152.556C311.334 152.745 311.014 152.94 310.6 153.127C309.774 153.501 308.598 153.832 307.269 154.029C305.939 154.226 304.718 154.25 303.819 154.131C303.368 154.072 303.006 153.978 302.753 153.857C302.495 153.734 302.38 153.598 302.361 153.469C302.342 153.34 302.412 153.176 302.623 152.984C302.83 152.794 303.15 152.6 303.564 152.412C304.39 152.039 305.566 151.707 306.896 151.51C308.225 151.313 309.446 151.29 310.346 151.408C310.796 151.467 311.158 151.561 311.411 151.682C311.669 151.805 311.784 151.941 311.803 152.07Z" fill="#4325FF" stroke="#8175CB" stroke-width="0.245335"/>
<line x1="318.551" y1="131.236" x2="318.551" y2="248.365" stroke="white" stroke-width="0.736193"/>
<path d="M317.352 125.623L323.508 135.71L314.384 137.061L317.352 125.623Z" fill="url(#paint12_linear_1318_425)"/>
<ellipse cx="312.821" cy="95.0315" rx="29.6858" ry="36.1958" transform="rotate(-8.42525 312.821 95.0315)" fill="url(#paint13_linear_1318_425)"/>
<path d="M315.885 131.258C317.735 131.834 318.756 131.679 320.39 130.591" stroke="white" stroke-width="0.736005" stroke-linecap="round"/>
<path d="M323.698 135.894C323.717 136.023 323.646 136.186 323.435 136.379C323.228 136.568 322.909 136.763 322.495 136.95C321.668 137.324 320.492 137.655 319.163 137.852C317.834 138.049 316.612 138.073 315.713 137.955C315.263 137.896 314.9 137.802 314.647 137.681C314.389 137.557 314.275 137.421 314.255 137.292C314.236 137.163 314.307 137 314.518 136.807C314.725 136.618 315.044 136.423 315.458 136.236C316.285 135.862 317.461 135.53 318.79 135.334C320.119 135.137 321.341 135.113 322.24 135.231C322.69 135.29 323.053 135.384 323.306 135.505C323.564 135.629 323.679 135.765 323.698 135.894Z" fill="#4325FF" stroke="#8175CB" stroke-width="0.245335"/>
<line x1="310.911" y1="171.171" x2="324.387" y2="250.524" stroke="white" stroke-width="0.736193"/>
<path d="M309.717 165.619L315.873 175.707L306.748 177.058L309.717 165.619Z" fill="url(#paint14_linear_1318_425)"/>
<ellipse cx="305.185" cy="135.028" rx="29.6858" ry="36.1958" transform="rotate(-8.42525 305.185 135.028)" fill="url(#paint15_linear_1318_425)"/>
<path d="M308.249 171.254C310.099 171.831 311.12 171.675 312.754 170.587" stroke="white" stroke-width="0.736005" stroke-linecap="round"/>
<path d="M316.062 175.89C316.081 176.019 316.011 176.182 315.8 176.375C315.593 176.564 315.273 176.759 314.859 176.947C314.033 177.32 312.857 177.652 311.528 177.849C310.198 178.045 308.977 178.069 308.078 177.951C307.627 177.892 307.265 177.798 307.012 177.677C306.754 177.554 306.639 177.417 306.62 177.288C306.601 177.16 306.671 176.996 306.882 176.803C307.089 176.614 307.409 176.419 307.823 176.232C308.649 175.858 309.825 175.527 311.155 175.33C312.484 175.133 313.706 175.109 314.605 175.227C315.055 175.287 315.417 175.381 315.671 175.502C315.928 175.625 316.043 175.761 316.062 175.89Z" fill="#4325FF" stroke="#8175CB" stroke-width="0.245335"/>
<line x1="331.431" y1="171.752" x2="315.609" y2="250.67" stroke="white" stroke-width="0.736193"/>
<path d="M332.304 166.141L334.441 177.763L325.438 175.759L332.304 166.141Z" fill="url(#paint16_linear_1318_425)"/>
<ellipse cx="339.023" cy="135.955" rx="29.6858" ry="36.1958" transform="rotate(12.5501 339.023 135.955)" fill="url(#paint17_linear_1318_425)"/>
<path d="M328.917 170.877C330.438 172.078 331.447 172.298 333.362 171.867" stroke="white" stroke-width="0.736005" stroke-linecap="round"/>
<path d="M334.553 178.003C334.524 178.13 334.4 178.257 334.134 178.362C333.873 178.464 333.505 178.532 333.051 178.559C332.146 178.612 330.929 178.5 329.617 178.208C328.306 177.916 327.157 177.501 326.359 177.069C325.96 176.852 325.655 176.635 325.462 176.431C325.266 176.224 325.207 176.056 325.236 175.929C325.264 175.801 325.388 175.674 325.654 175.569C325.915 175.467 326.283 175.399 326.737 175.373C327.642 175.319 328.859 175.431 330.171 175.723C331.482 176.015 332.632 176.43 333.429 176.862C333.828 177.079 334.133 177.296 334.326 177.5C334.522 177.707 334.581 177.875 334.553 178.003Z" fill="#4325FF" stroke="#8175CB" stroke-width="0.245335"/>
<line x1="340.207" y1="133.193" x2="316.748" y2="248.439" stroke="white" stroke-width="0.736193"/>
<path d="M341.079 127.581L343.217 139.203L334.213 137.199L341.079 127.581Z" fill="url(#paint18_linear_1318_425)"/>
<ellipse cx="347.798" cy="97.3945" rx="29.6858" ry="36.1958" transform="rotate(12.5501 347.798 97.3945)" fill="url(#paint19_linear_1318_425)"/>
<path d="M337.692 132.317C339.213 133.518 340.222 133.738 342.137 133.307" stroke="white" stroke-width="0.736005" stroke-linecap="round"/>
<path d="M343.328 139.443C343.299 139.57 343.175 139.697 342.909 139.802C342.648 139.904 342.28 139.972 341.826 139.999C340.921 140.052 339.704 139.94 338.392 139.648C337.081 139.356 335.931 138.941 335.134 138.509C334.735 138.292 334.43 138.075 334.237 137.871C334.041 137.664 333.982 137.496 334.01 137.369C334.039 137.241 334.163 137.114 334.429 137.009C334.69 136.907 335.058 136.839 335.512 136.813C336.417 136.759 337.634 136.871 338.946 137.163C340.257 137.455 341.406 137.87 342.204 138.302C342.603 138.519 342.908 138.736 343.101 138.94C343.297 139.147 343.356 139.315 343.328 139.443Z" fill="#4325FF" stroke="#8175CB" stroke-width="0.245335"/>
<path fill-rule="evenodd" clip-rule="evenodd" d="M356.129 268.701C360.008 262.856 360.535 259.545 362.867 259.594C366.638 259.677 370.67 272.109 374.646 273.338C379.616 274.873 381.871 267.723 381.17 264.376C379.245 255.063 370.971 240.633 376.701 226.598C374.739 228.665 372.876 230.817 371.126 233.095C364.146 242.145 358.817 253.131 356.129 268.701Z" fill="#E79002"/>
<path fill-rule="evenodd" clip-rule="evenodd" d="M363.68 256.065C358.843 269.624 343.529 278.556 333.866 280.682C319.003 283.947 301.422 281.053 286.462 279.881C280.308 279.398 269.249 278.702 263.764 285.946C277.429 252.494 313.892 276.884 318.083 246.35L363.68 256.065Z" fill="url(#paint20_linear_1318_425)"/>
<path fill-rule="evenodd" clip-rule="evenodd" d="M374.071 218.861C364.375 243.019 386.6 278.232 365.953 292.907C361.661 295.954 354.047 294.776 353.117 290.824C352.285 287.315 346.644 286.262 346.022 289.772C343.875 292.983 339.159 294.821 336.4 295.833C330.089 298.163 328.506 289.569 323.553 283.347C310.742 267.307 309.24 252.626 326.834 225.048C349.081 199.282 367.544 196.317 374.071 218.861Z" fill="#F5B523"/>
<path fill-rule="evenodd" clip-rule="evenodd" d="M379.557 183.39C386.796 180.041 392.295 191.574 383.996 196.402L379.557 183.39Z" fill="#F5B523"/>
<path fill-rule="evenodd" clip-rule="evenodd" d="M343.756 210.981C347.294 233.716 369.101 234.176 373.98 232.994C379.887 231.565 391.81 224.733 386.977 212.809C384.998 207.898 387.908 201.897 386.597 196.461C381.696 175.775 366.487 174.826 357.768 175.102C354.585 175.204 344.086 176.334 339.865 182.729C332.161 194.356 316.919 229.888 314.986 249.245L343.756 210.981Z" fill="#F5B523"/>
<path d="M350.432 214.259C350.95 214.62 351.561 214.637 351.798 214.296C352.034 213.955 351.806 213.385 351.288 213.023C350.77 212.662 350.159 212.645 349.922 212.986C349.686 213.327 349.914 213.897 350.432 214.259Z" fill="#16164F"/>
<path d="M387.216 218.766C386.777 219.017 386.29 218.987 386.127 218.699C385.964 218.412 386.187 217.975 386.625 217.723C387.064 217.472 387.552 217.502 387.715 217.789C387.878 218.077 387.654 218.514 387.216 218.766Z" fill="#16164F"/>
<path d="M351.563 219.726C352.081 220.088 352.692 220.104 352.929 219.763C353.165 219.422 352.938 218.853 352.42 218.491C351.902 218.129 351.29 218.113 351.053 218.454C350.817 218.795 351.045 219.365 351.563 219.726Z" fill="#16164F"/>
<path d="M385.925 223.028C385.486 223.279 384.999 223.25 384.836 222.962C384.673 222.674 384.896 222.237 385.334 221.986C385.773 221.735 386.261 221.764 386.424 222.052C386.587 222.34 386.363 222.777 385.925 223.028Z" fill="#16164F"/>
<path d="M356.995 219.358C357.513 219.72 358.125 219.736 358.361 219.395C358.598 219.054 358.37 218.485 357.852 218.123C357.334 217.762 356.722 217.745 356.486 218.086C356.249 218.427 356.477 218.997 356.995 219.358Z" fill="#16164F"/>
<path d="M381.615 222.364C381.176 222.615 380.688 222.586 380.525 222.298C380.362 222.01 380.586 221.573 381.024 221.322C381.463 221.07 381.951 221.1 382.114 221.388C382.277 221.676 382.053 222.113 381.615 222.364Z" fill="#16164F"/>
<path fill-rule="evenodd" clip-rule="evenodd" d="M373.429 215.646C371.305 215.462 368.712 216.079 368.575 217.624C368.506 218.402 369.302 219.461 370.03 220.434C370.741 221.391 371.383 222.267 372.436 222.358C374.559 222.543 377.543 220.287 377.68 218.742C377.817 217.197 375.553 215.831 373.429 215.646Z" fill="#16164F"/>
<path d="M350.097 191.062C347.37 194.38 342.463 194.837 339.138 192.083C335.813 189.329 335.329 184.407 338.056 181.089C340.783 177.771 345.689 177.314 349.014 180.068C352.339 182.822 352.824 187.744 350.097 191.062Z" fill="#F5B523"/>
<path fill-rule="evenodd" clip-rule="evenodd" d="M331.668 246.762C337.783 248.908 341.612 236.565 338.203 227.662C335.85 221.504 326.323 208.185 322.216 206.884C317.081 205.259 314.771 212.64 315.503 216.107C317.514 225.755 328.015 240.642 331.668 246.762Z" fill="#E79002"/>
<path fill-rule="evenodd" clip-rule="evenodd" d="M340.595 273.155C351.001 274.758 348.694 287.574 346.001 298.851C349.894 306.552 349.939 312.585 344.823 313.392C340.658 314.042 335.34 304.393 334.741 298.486C325.42 290.678 319.115 277.74 315.645 268.588L340.595 273.155Z" fill="#F5B523"/>
<path fill-rule="evenodd" clip-rule="evenodd" d="M374.759 270.356C376.849 284.793 372.321 295.042 366.01 300.437C366.766 305.263 364.92 311.967 361.08 311.811C356.291 311.614 355.992 302.319 356.249 298.891C353.412 293.482 350.612 285.133 353.023 277.395L374.759 270.356Z" fill="#F5B523"/>
<circle cx="360.576" cy="206.009" r="2.16144" transform="rotate(5.70365 360.576 206.009)" fill="#16164F"/>
<circle cx="381.869" cy="210.308" r="2.16144" transform="rotate(5.70365 381.869 210.308)" fill="#16164F"/>
<defs>
<filter id="filter0_d_1318_425" x="451.961" y="198.376" width="141.217" height="258.076" filterUnits="userSpaceOnUse" color-interpolation-filters="sRGB">
<feFlood flood-opacity="0" result="BackgroundImageFix"/>
<feColorMatrix in="SourceAlpha" type="matrix" values="0 0 0 0 0 0 0 0 0 0 0 0 0 0 0 0 0 0 127 0" result="hardAlpha"/>
<feOffset dx="2.71422" dy="0.542845"/>
<feGaussianBlur stdDeviation="3.39278"/>
<feColorMatrix type="matrix" values="0 0 0 0 0 0 0 0 0 0 0 0 0 0 0 0 0 0 0.03 0"/>
<feBlend mode="normal" in2="BackgroundImageFix" result="effect1_dropShadow_1318_425"/>
<feBlend mode="normal" in="SourceGraphic" in2="effect1_dropShadow_1318_425" result="shape"/>
</filter>
<linearGradient id="paint0_linear_1318_425" x1="924.839" y1="183.119" x2="267.34" y2="809.328" gradientUnits="userSpaceOnUse">
<stop stop-color="white"/>
<stop offset="0.822917" stop-color="white" stop-opacity="0"/>
</linearGradient>
<linearGradient id="paint1_linear_1318_425" x1="932.924" y1="167.734" x2="275.424" y2="793.943" gradientUnits="userSpaceOnUse">
<stop stop-color="white"/>
<stop offset="0.822917" stop-color="white" stop-opacity="0"/>
</linearGradient>
<linearGradient id="paint2_linear_1318_425" x1="941.008" y1="152.347" x2="283.508" y2="778.556" gradientUnits="userSpaceOnUse">
<stop stop-color="white"/>
<stop offset="0.822917" stop-color="white" stop-opacity="0"/>
</linearGradient>
<linearGradient id="paint3_linear_1318_425" x1="949.092" y1="136.961" x2="291.592" y2="763.17" gradientUnits="userSpaceOnUse">
<stop stop-color="white"/>
<stop offset="0.822917" stop-color="white" stop-opacity="0"/>
</linearGradient>
<linearGradient id="paint4_linear_1318_425" x1="957.176" y1="121.574" x2="299.677" y2="747.783" gradientUnits="userSpaceOnUse">
<stop stop-color="white"/>
<stop offset="0.822917" stop-color="white" stop-opacity="0"/>
</linearGradient>
<linearGradient id="paint5_linear_1318_425" x1="965.26" y1="106.189" x2="307.761" y2="732.398" gradientUnits="userSpaceOnUse">
<stop stop-color="white"/>
<stop offset="0.822917" stop-color="white" stop-opacity="0"/>
</linearGradient>
<linearGradient id="paint6_linear_1318_425" x1="559.778" y1="538.745" x2="637.711" y2="300.554" gradientUnits="userSpaceOnUse">
<stop stop-color="#BAB2EA"/>
<stop offset="1" stop-color="white" stop-opacity="0"/>
</linearGradient>
<linearGradient id="paint7_linear_1318_425" x1="573.645" y1="375.877" x2="635.924" y2="185.634" gradientUnits="userSpaceOnUse">
<stop stop-color="white"/>
<stop offset="1" stop-color="#BAB2EA" stop-opacity="0"/>
</linearGradient>
<linearGradient id="paint8_linear_1318_425" x1="504.696" y1="496.743" x2="557.562" y2="335.166" gradientUnits="userSpaceOnUse">
<stop stop-color="#BAB2EA"/>
<stop offset="1" stop-color="white" stop-opacity="0"/>
</linearGradient>
<linearGradient id="paint9_linear_1318_425" x1="506.795" y1="399.072" x2="559.661" y2="237.495" gradientUnits="userSpaceOnUse">
<stop stop-color="#BAB2EA"/>
<stop offset="1" stop-color="white" stop-opacity="0"/>
</linearGradient>
<linearGradient id="paint10_linear_1318_425" x1="310.766" y1="143.243" x2="303.332" y2="154.761" gradientUnits="userSpaceOnUse">
<stop stop-color="#8C79FF"/>
<stop offset="1" stop-color="#2F0DFF"/>
</linearGradient>
<linearGradient id="paint11_linear_1318_425" x1="329.016" y1="86.0167" x2="284.811" y2="142.303" gradientUnits="userSpaceOnUse">
<stop stop-color="#5A60F3"/>
<stop offset="1" stop-color="#9281FF"/>
</linearGradient>
<linearGradient id="paint12_linear_1318_425" x1="322.66" y1="127.066" x2="315.227" y2="138.584" gradientUnits="userSpaceOnUse">
<stop stop-color="#8C79FF"/>
<stop offset="1" stop-color="#2F0DFF"/>
</linearGradient>
<linearGradient id="paint13_linear_1318_425" x1="340.911" y1="69.8399" x2="296.705" y2="126.126" gradientUnits="userSpaceOnUse">
<stop stop-color="#5A60F3"/>
<stop offset="1" stop-color="#9281FF"/>
</linearGradient>
<linearGradient id="paint14_linear_1318_425" x1="315.025" y1="167.062" x2="307.591" y2="178.581" gradientUnits="userSpaceOnUse">
<stop stop-color="#8C79FF"/>
<stop offset="1" stop-color="#2F0DFF"/>
</linearGradient>
<linearGradient id="paint15_linear_1318_425" x1="333.275" y1="109.836" x2="289.07" y2="166.122" gradientUnits="userSpaceOnUse">
<stop stop-color="#5A60F3"/>
<stop offset="1" stop-color="#9281FF"/>
</linearGradient>
<linearGradient id="paint16_linear_1318_425" x1="336.744" y1="169.388" x2="325.679" y2="177.483" gradientUnits="userSpaceOnUse">
<stop stop-color="#8C79FF"/>
<stop offset="1" stop-color="#2F0DFF"/>
</linearGradient>
<linearGradient id="paint17_linear_1318_425" x1="367.113" y1="110.763" x2="322.908" y2="167.049" gradientUnits="userSpaceOnUse">
<stop stop-color="#5A60F3"/>
<stop offset="1" stop-color="#9281FF"/>
</linearGradient>
<linearGradient id="paint18_linear_1318_425" x1="345.519" y1="130.828" x2="334.455" y2="138.923" gradientUnits="userSpaceOnUse">
<stop stop-color="#8C79FF"/>
<stop offset="1" stop-color="#2F0DFF"/>
</linearGradient>
<linearGradient id="paint19_linear_1318_425" x1="375.888" y1="72.2029" x2="331.683" y2="128.489" gradientUnits="userSpaceOnUse">
<stop stop-color="#5A60F3"/>
<stop offset="1" stop-color="#9281FF"/>
</linearGradient>
<linearGradient id="paint20_linear_1318_425" x1="258.079" y1="299.199" x2="350.085" y2="268.801" gradientUnits="userSpaceOnUse">
<stop stop-color="#F5B523"/>
<stop offset="1" stop-color="#E79002"/>
</linearGradient>
</defs>
</svg>
