<svg viewBox="0 0 1440 268" fill="none" xmlns="http://www.w3.org/2000/svg">
    <g transform="matrix(1,0,0,1,0,18)" filter="url(#filter0_d_6931_687)">
        <path d="M-44,136.577L-24.51,136.577L-24.51,99.148C-22.518,98.696 -17.546,97.792 -13.596,97.792L-5.8,97.792L-5.8,99.148L-0.862,99.148L-0.862,103.216L6.154,103.216L6.154,97.792L10.312,97.792L10.312,94.808L24.345,94.808L24.345,97.792L28.502,97.792C29.75,97.792 31.274,98.696 31.881,99.148L31.881,102.402L36.558,102.402L36.558,110.539L40.196,110.539L40.196,107.284L38.637,107.284L38.637,103.759L40.976,103.759L40.976,99.961L38.637,99.961L38.637,96.978L57.607,96.978L57.607,88.299L69.301,88.299L69.301,91.011L74.239,91.011L74.239,92.91L83.854,92.91L83.854,101.318L88.791,101.318L88.791,93.723L91.13,93.723L91.13,83.417L93.988,83.417L93.988,93.723L98.666,93.723L98.666,84.502L121.794,84.502L121.794,79.077L127.251,79.077L127.251,82.332L133.488,82.332L133.488,79.62L137.646,79.62L137.646,82.332L195.076,82.332L195.076,92.91L204.431,92.91L204.431,87.756L209.368,87.756L209.368,89.113L220.283,89.113L220.283,95.893C220.976,95.893 222.881,95.947 224.96,96.164C227.039,96.381 228.425,96.978 228.858,97.249L228.858,118.947L241.852,118.947L241.852,123.829L248.088,123.829L248.088,126.27L255.365,126.27L255.365,131.152L257.443,131.152L257.443,126.27L262.641,126.27L262.641,131.152L267.578,131.152L267.578,124.643L280.831,124.643L280.831,135.221L284.729,135.221L284.729,134.136L283.95,134.136L283.95,130.61L284.729,130.61L284.729,129.254L288.627,129.254L288.627,123.829L292.785,123.829L292.785,115.15L298.502,115.15L298.502,112.709L300.061,112.709L300.061,111.353L305.778,111.353L305.778,115.15L311.755,115.15L311.755,117.32L314.094,117.32L314.094,120.032L318.252,120.032L318.252,124.643L324.229,124.643L324.229,128.44L327.607,128.44L327.607,124.643L330.466,124.643L330.466,120.032L333.844,120.032L333.844,115.964L337.222,115.964L337.222,117.591L340.6,117.591L340.6,120.846L345.278,120.846L345.278,124.914L347.617,124.914L347.617,120.846L349.955,120.846L349.955,118.947L352.554,118.947L352.554,114.879L356.452,114.879L356.452,111.353L362.169,111.353L362.169,103.487L366.587,103.487L366.587,88.57L368.146,88.57L368.146,86.671L369.965,86.671L369.965,83.959L371.524,83.959L371.524,82.332L376.462,82.332L376.462,83.959L379.06,83.959L379.06,82.332L382.439,82.332L382.439,83.959L386.337,83.959L386.337,114.879L391.534,115.15L391.534,112.709L395.172,112.709L395.172,106.471L398.81,106.471L398.81,103.487L404.787,103.487L404.787,97.249L415.441,97.249L415.441,100.233L419.599,100.233L419.599,98.334L428.175,98.334C428.954,98.605 430.774,99.582 431.813,101.318C432.852,103.053 433.459,104.934 433.632,105.657L433.632,101.318L435.971,101.318L435.971,97.249C436.75,95.984 438.621,92.964 439.869,91.011C441.116,89.058 442.294,85.496 442.727,83.959L446.106,83.959L446.106,91.011L451.823,91.011L451.823,71.212L455.201,71.212C455.547,72.658 456.604,75.768 458.059,76.636C459.515,77.504 461.784,76.998 462.737,76.636L462.737,73.653L470.793,73.653C471.572,75.28 473.651,78.698 475.73,79.348C477.809,79.999 480.061,80.524 480.927,80.705C480.841,81.97 480.824,84.827 481.447,86.129C482.071,87.431 482.92,88.841 483.266,89.384C483.786,89.203 484.877,88.679 485.085,88.028C485.293,87.377 485.172,85.587 485.085,84.773L488.204,84.773L488.204,87.214L494.181,87.214L494.181,84.773L497.819,84.773L497.819,79.891L502.496,79.891L502.496,83.959L504.055,83.959L504.055,80.705L506.914,80.705L506.914,83.146L507.694,83.146L507.694,80.705L511.332,80.705L511.332,81.789L515.49,82.061L515.49,95.893L517.568,95.893L517.568,91.011L520.167,91.011L520.167,94.808L522.506,96.978L522.506,117.184L526.924,117.184L526.924,98.334L531.861,98.334L533.16,95.893L535.759,95.893L535.759,91.011L542.516,91.011L542.516,93.452L548.233,93.452L548.233,96.978L551.871,96.978L551.871,38.394L554.469,38.394L554.469,25.375L585.653,31.342L585.653,38.394L587.472,38.394L587.472,88.028L594.229,88.028L594.229,91.825L597.087,91.825L599.166,88.028L600.985,88.028L600.985,91.011L604.363,91.011L606.962,86.129L608.261,86.129L608.261,88.028L609.821,88.028L609.821,86.129L611.64,86.129L611.64,87.214L621.774,87.214L621.774,88.028L631.649,88.028L631.649,91.011L633.728,91.011L633.728,96.707L637.366,96.707L637.626,91.011L643.083,91.011L643.083,99.148L645.682,99.148L645.682,91.011L650.619,91.011L650.619,98.063L657.116,98.063L657.116,96.707L662.573,96.707L662.573,98.605L667.771,98.605C667.597,96.436 668.134,92.096 671.668,92.096C675.203,92.096 676.086,96.436 676.086,98.605L682.583,98.605L685.701,97.792L685.701,114.607L694.797,115.15L694.797,117.862L698.175,117.862L698.175,121.931L714.546,121.931L714.546,119.49L716.365,119.49L716.365,121.931L717.665,121.931L717.665,119.49L718.964,119.49L718.964,105.386L721.303,105.386L721.303,97.792L726.24,97.792L726.24,22.391L724.681,22.391L724.681,13.712L728.059,13.712L728.059,11L739.493,11L739.493,17.238L747.809,17.238L747.809,98.063L750.927,98.063L750.927,83.959L752.746,83.959C752.66,82.242 753.266,78.806 756.385,78.806C759.503,78.806 760.456,82.242 760.542,83.959L762.621,83.959L764.96,84.502L764.96,91.282L771.716,91.282L771.716,96.707L772.756,96.707L772.756,99.148L783.67,99.148L783.67,108.641L791.206,108.641L791.206,92.91L813.035,92.91L816.933,94.537L816.933,107.284L818.752,107.284L818.752,57.922L837.462,57.922L857.472,59.007L857.472,92.91L860.85,87.485L869.686,87.485L869.686,91.282L871.505,91.282L871.505,96.707L877.482,96.707L877.482,94.537L880.6,94.537L880.6,96.707L882.419,96.707L882.419,89.926L885.797,89.926L885.797,91.282L887.357,91.282L887.357,103.216L889.176,103.216L889.176,121.931L894.373,121.931L894.373,117.862L901.389,117.862L901.389,104.301L903.468,104.301L903.468,99.148L906.067,99.148L906.067,96.707L916.072,96.707L916.072,92.91L920.099,92.91L920.099,81.247L921.529,81.247L921.529,59.007L927.571,59.007L927.571,53.853L942.708,53.853L942.708,59.007L973.372,59.007L973.372,44.632L977.27,44.632L977.27,41.92C977.27,41.015 978.413,39.207 982.987,39.207C987.56,39.207 995.114,41.377 998.319,42.462L998.319,45.717L1002.74,45.717L1002.74,70.941L1017.29,70.941L1017.29,84.23L1019.89,84.23L1019.89,96.707L1033.92,94.537L1033.92,43.818C1034.27,43.457 1035.48,42.571 1037.56,41.92C1039.64,41.269 1041.54,42.01 1042.24,42.462L1056.79,42.462C1057.31,41.648 1059.02,40.401 1061.73,41.92C1064.43,43.438 1065.62,45.084 1065.88,45.717L1065.88,53.853L1064.06,53.853L1064.06,78.263L1072.9,78.263L1072.9,84.23L1074.2,84.23L1074.2,87.485L1078.88,87.485L1078.88,92.91L1085.89,92.91L1085.89,98.063L1092.65,98.063L1092.65,101.318L1094.73,102.402L1099.15,102.402L1099.15,98.063L1102.26,98.063L1102.26,92.91L1105.9,92.91L1105.9,90.197L1108.76,90.197L1109.8,88.841L1124.87,88.841L1124.87,90.197L1131.89,90.197L1131.89,92.91L1134.75,92.91L1134.75,99.69L1138.65,99.69L1138.65,104.301L1140.72,104.301L1140.72,115.15L1149.04,115.15L1149.04,98.063L1162.55,98.063L1162.55,90.197L1186.2,90.197L1186.2,98.063L1193.22,98.063L1193.22,107.284L1205.43,107.284L1205.43,117.591L1210.63,117.591L1210.63,114.065L1219.46,114.065L1219.46,94.537L1223.88,94.537L1223.88,88.841L1239.99,88.841L1239.99,92.91L1244.67,92.91L1244.67,98.063L1253.25,96.707L1253.25,88.841L1258.18,88.841L1258.18,84.23L1270.4,84.23L1270.4,88.841L1274.82,88.841L1274.82,98.063L1294.82,96.707L1294.82,94.537L1300.8,94.537L1300.8,86.129L1298.72,86.129L1298.72,83.417L1295.86,83.417L1295.86,80.705L1293.79,80.705L1293.79,76.907L1291.71,76.907C1291.53,75.823 1291.55,73.599 1293.01,73.382C1294.46,73.165 1298.12,71.845 1299.76,71.212L1299.76,66.601L1304.96,66.601L1304.96,60.363L1303.14,60.363L1303.14,58.735L1304.96,58.735L1304.96,54.125L1303.14,54.125L1303.14,52.226L1306.78,52.226L1306.78,54.125L1304.96,54.125L1304.96,58.735L1307.3,58.735L1307.3,60.363L1304.96,60.363L1304.96,66.601L1310.68,66.601L1310.68,71.212C1312.84,71.573 1317.43,72.514 1318.47,73.382C1319.51,74.249 1319.95,75.19 1320.03,75.551L1317.69,75.551L1317.69,76.907L1318.99,77.45L1318.99,79.077L1316.65,79.077L1316.65,80.705L1318.47,80.705L1318.47,95.351L1321.33,95.351C1321.42,93.995 1322.01,91.174 1323.67,90.74C1325.33,90.306 1326.27,90.559 1326.53,90.74L1326.53,86.129L1333.8,86.129L1333.8,91.554L1340.04,91.554L1340.04,96.707C1340.56,96.255 1342.12,95.351 1344.2,95.351C1346.28,95.351 1347.32,96.255 1347.58,96.707L1358.23,96.707L1358.23,119.761L1360.31,119.761L1360.31,122.473L1362.13,122.473L1362.13,150.951L1393.05,150.951C1393.75,151.223 1395.24,152.199 1395.65,153.935L1416.18,153.935C1416.44,153.393 1417.43,152.308 1419.3,152.308C1420.08,151.946 1422.05,151.277 1423.72,151.494C1425.38,151.711 1430.13,152.127 1432.29,152.308L1447.89,151.494C1448.15,149.505 1449.76,145.039 1454.12,143.086C1458.49,141.133 1468.93,141.007 1473.61,141.187L1473.61,124.1L1495.96,124.1L1497,257L-44,257L-44,136.577Z" style="fill-rule:nonzero;"  fill="url(#paint0_linear_6931_687)" fill-opacity="0.6"/>
        <path d="M522.506,123.5L522.506,117.184M522.506,117.184L522.506,96.978L520.167,94.808L520.167,91.011L517.568,91.011L517.568,95.893L515.49,95.893L515.49,82.061L511.332,81.789L511.332,80.705L507.694,80.705L507.694,83.146L506.914,83.146L506.914,80.705L504.055,80.705L504.055,83.959L502.496,83.959L502.496,79.891L497.819,79.891L497.819,84.773L494.181,84.773L494.181,87.214L488.204,87.214L488.204,84.773L485.085,84.773C485.172,85.587 485.293,87.377 485.085,88.028C484.877,88.679 483.786,89.203 483.266,89.384C482.92,88.841 482.071,87.431 481.447,86.129C480.824,84.827 480.841,81.97 480.927,80.705C480.061,80.524 477.809,79.999 475.73,79.348C473.651,78.698 471.572,75.28 470.793,73.653L462.737,73.653L462.737,76.636C461.784,76.998 459.515,77.504 458.059,76.636C456.604,75.768 455.547,72.658 455.201,71.212L451.823,71.212L451.823,91.011L446.106,91.011L446.106,83.959L442.727,83.959C442.294,85.496 441.116,89.058 439.869,91.011C438.621,92.964 436.75,95.984 435.971,97.249L435.971,101.318L433.632,101.318L433.632,105.657C433.459,104.934 432.852,103.053 431.813,101.318C430.774,99.582 428.954,98.605 428.175,98.334L419.599,98.334L419.599,100.233L415.441,100.233L415.441,97.249L404.787,97.249L404.787,103.487L398.81,103.487L398.81,106.471L395.172,106.471L395.172,112.709L391.534,112.709L391.534,115.15L386.337,114.879L386.337,83.959L382.439,83.959L382.439,82.332L379.06,82.332L379.06,83.959L376.462,83.959L376.462,82.332L371.524,82.332L371.524,83.959L369.965,83.959L369.965,86.671L368.146,86.671L368.146,88.57L366.587,88.57L366.587,103.487L362.169,103.487L362.169,111.353L356.452,111.353L356.452,114.879L352.554,114.879L352.554,118.947L349.955,118.947L349.955,120.846L347.617,120.846L347.617,124.914L345.278,124.914L345.278,120.846L340.6,120.846L340.6,117.591L337.222,117.591L337.222,115.964L333.844,115.964L333.844,120.032L330.466,120.032L330.466,124.643L327.607,124.643L327.607,128.44L324.229,128.44L324.229,124.643L318.252,124.643L318.252,120.032L314.094,120.032L314.094,117.32L311.755,117.32L311.755,115.15L305.778,115.15L305.778,111.353L300.061,111.353L300.061,112.709L298.502,112.709L298.502,115.15L292.785,115.15L292.785,123.829L288.627,123.829L288.627,129.254L284.729,129.254L284.729,130.61L283.95,130.61L283.95,134.136L284.729,134.136L284.729,135.221L280.831,135.221L280.831,124.643L267.578,124.643L267.578,131.152L262.641,131.152L262.641,126.27L257.443,126.27L257.443,131.152L255.365,131.152L255.365,126.27L248.088,126.27L248.088,123.829L241.852,123.829L241.852,118.947L228.858,118.947L228.858,97.249C228.425,96.978 227.039,96.381 224.96,96.164C222.881,95.947 220.976,95.893 220.283,95.893L220.283,89.113L209.368,89.113L209.368,87.756L204.431,87.756L204.431,92.91L195.076,92.91L195.076,82.332L137.646,82.332L137.646,79.62L133.488,79.62L133.488,82.332L127.251,82.332L127.251,79.077L121.794,79.077L121.794,84.502L98.666,84.502L98.666,93.723L93.988,93.723L93.988,83.417L91.13,83.417L91.13,93.723L88.791,93.723L88.791,101.318L83.854,101.318L83.854,92.91L74.239,92.91L74.239,91.011L69.301,91.011L69.301,88.299L57.607,88.299L57.607,96.978L38.637,96.978L38.637,99.961L40.976,99.961L40.976,103.759L38.637,103.759L38.637,107.284L40.196,107.284L40.196,110.539L36.558,110.539L36.558,102.402L31.881,102.402L31.881,99.148C31.274,98.696 29.75,97.792 28.502,97.792L24.345,97.792L24.345,94.808L10.312,94.808L10.312,97.792L6.154,97.792L6.154,103.216L-0.862,103.216L-0.862,99.148L-5.8,99.148L-5.8,97.792L-13.596,97.792C-17.546,97.792 -22.518,98.696 -24.51,99.148L-24.51,136.577L-44,136.577L-44,257L1497,257L1495.96,124.1L1473.61,124.1L1473.61,141.187C1468.93,141.007 1458.49,141.133 1454.12,143.086C1449.76,145.039 1448.15,149.505 1447.89,151.494L1432.29,152.308C1430.13,152.127 1425.38,151.711 1423.72,151.494C1422.05,151.277 1420.08,151.946 1419.3,152.308M522.506,117.184L526.924,117.184L526.924,98.334L531.861,98.334L533.16,95.893L535.759,95.893L535.759,91.011L542.516,91.011L542.516,93.452L548.233,93.452L548.233,96.978L551.871,96.978L551.871,38.394L554.469,38.394L554.469,25.375L585.653,31.342L585.653,38.394L587.472,38.394L587.472,88.028L594.229,88.028L594.229,91.825L597.087,91.825L599.166,88.028L600.985,88.028L600.985,91.011L604.363,91.011L606.962,86.129L608.261,86.129L608.261,88.028L609.821,88.028L609.821,86.129L611.64,86.129L611.64,87.214L621.774,87.214L621.774,88.028L631.649,88.028L631.649,91.011L633.728,91.011L633.728,96.707L637.366,96.707L637.626,91.011L643.083,91.011L643.083,99.148L645.682,99.148L645.682,91.011L650.619,91.011L650.619,98.063L657.116,98.063L657.116,96.707L662.573,96.707L662.573,98.605L667.77,98.605C667.597,96.436 668.134,92.096 671.668,92.096C675.203,92.096 676.086,96.436 676.086,98.605L682.583,98.605L685.701,97.792L685.701,114.607L694.796,115.15L694.796,117.862L698.175,117.862L698.175,121.931L714.546,121.931L714.546,119.49L716.365,119.49L716.365,121.931L717.665,121.931L717.665,119.49L718.964,119.49L718.964,105.386L721.303,105.386L721.303,97.792L726.24,97.792L726.24,22.391M726.24,22.391L728.059,22.391L728.059,18.323L733.516,18.323L733.516,23.5L733.517,98.063M726.24,22.391L724.681,22.391L724.681,13.712L728.059,13.712L728.059,11L739.493,11L739.493,17.238L747.809,17.238L747.809,98.063L750.927,98.063L750.927,83.959L752.746,83.959C752.66,82.242 753.266,78.806 756.384,78.806C759.503,78.806 760.456,82.242 760.542,83.959L762.621,83.959L764.96,84.502L764.96,91.282L771.717,91.282L771.717,96.707L772.756,96.707L772.756,99.148L783.67,99.148L783.67,108.641L791.206,108.641L791.206,92.91L813.035,92.91L816.933,94.537L816.933,107.284L818.752,107.284L818.752,57.922L837.462,57.922L857.472,59.007L857.472,92.91L860.85,87.485L869.686,87.485L869.686,91.282L871.505,91.282L871.505,96.707L877.482,96.707L877.482,94.537L880.6,94.537L880.6,96.707L882.419,96.707L882.419,89.926L885.797,89.926L885.797,91.282L887.357,91.282L887.357,103.216L889.176,103.216L889.176,121.931L894.373,121.931L894.373,117.862L901.389,117.862L901.389,104.301L903.468,104.301L903.468,99.148L906.067,99.148L906.067,96.707L916.072,96.707M926.076,96.707L916.072,96.707M916.072,96.707L916.072,92.91L920.099,92.91L920.099,81.247L921.529,81.247M922.958,81.247L921.529,81.247M921.529,81.247L921.529,59.007L927.571,59.007M933.613,59.007L927.571,59.007M927.571,59.007L927.571,53.853L942.708,53.853L942.708,59.007M942.708,82.874L950.504,82.874L950.504,127.355M942.708,82.874L931.793,82.874L931.793,96.707L937.251,96.707M942.708,82.874L942.708,59.007M942.708,59.007L973.372,59.007L973.372,44.632L977.27,44.632L977.27,41.92C977.27,41.015 978.413,39.207 982.987,39.207C987.56,39.207 995.114,41.377 998.319,42.462L998.319,45.717L1002.74,45.717L1002.74,70.941M1002.74,107.284L1002.74,70.941M1002.74,70.941L1017.29,70.941L1017.29,84.23L1019.89,84.23L1019.89,96.707L1033.92,94.537M1033.92,94.537L1033.92,101.318M1033.92,94.537L1033.92,43.818C1034.27,43.456 1035.48,42.571 1037.56,41.92C1039.64,41.269 1041.54,42.01 1042.24,42.462L1056.79,42.462C1057.31,41.648 1059.02,40.401 1061.73,41.92C1064.43,43.438 1065.62,45.084 1065.88,45.717L1065.88,53.853L1064.06,53.853L1064.06,78.263M1064.06,92.91L1064.06,78.263M1064.06,78.263L1072.9,78.263L1072.9,84.23L1074.2,84.23L1074.2,87.485L1078.88,87.485L1078.88,92.91L1085.89,92.91L1085.89,98.063L1092.65,98.063L1092.65,101.318L1094.73,102.402M1094.73,102.402L1094.73,119.49M1094.73,102.402L1099.15,102.402L1099.15,98.063L1102.26,98.063L1102.26,92.91L1105.9,92.91L1105.9,90.197L1108.76,90.197L1109.8,88.841L1124.87,88.841L1124.87,90.197L1131.89,90.197L1131.89,92.91L1134.75,92.91L1134.75,99.69L1138.65,99.69L1138.65,104.301L1140.72,104.301L1140.72,115.15L1149.04,115.15L1149.04,98.063L1162.55,98.063L1162.55,90.197L1186.2,90.197L1186.2,98.063L1193.22,98.063L1193.22,107.284L1205.43,107.284L1205.43,117.591L1210.63,117.591L1210.63,114.065L1219.46,114.065L1219.46,94.537L1223.88,94.537L1223.88,88.841L1239.99,88.841L1239.99,92.91L1244.67,92.91L1244.67,98.063L1253.25,96.707L1253.25,88.841L1258.18,88.841L1258.18,84.23L1270.4,84.23L1270.4,88.841L1274.82,88.841L1274.82,98.063L1294.82,96.707L1294.82,94.537L1300.8,94.537L1300.8,86.129L1298.72,86.129L1298.72,83.417L1295.86,83.417L1295.86,80.705L1293.79,80.705L1293.79,76.907L1291.71,76.907C1291.53,75.823 1291.55,73.599 1293.01,73.382C1294.46,73.165 1298.12,71.845 1299.76,71.212L1299.76,66.601L1304.96,66.601M1304.96,66.601L1304.96,60.363M1304.96,66.601L1310.68,66.601L1310.68,71.212C1312.84,71.573 1317.43,72.514 1318.47,73.382C1319.51,74.249 1319.95,75.19 1320.03,75.551L1317.69,75.551L1317.69,76.907L1318.99,77.45L1318.99,79.077L1316.65,79.077L1316.65,80.705L1318.47,80.705L1318.47,83.417M1304.96,60.363L1303.14,60.363L1303.14,58.735L1304.96,58.735M1304.96,60.363L1307.3,60.363L1307.3,58.735L1304.96,58.735M1304.96,58.735L1304.96,54.125M1304.96,54.125L1303.14,54.125L1303.14,52.226L1304.96,52.226M1304.96,54.125L1306.78,54.125L1306.78,52.226L1304.96,52.226M1304.96,52.226L1304.96,45.445M1318.47,83.417L1313.54,85.044L1313.54,94.537M1318.47,83.417L1318.47,95.351L1321.33,95.351C1321.42,93.995 1322.01,91.174 1323.67,90.74C1325.33,90.306 1326.27,90.559 1326.53,90.74L1326.53,86.129L1333.8,86.129L1333.8,91.554L1340.04,91.554L1340.04,96.707C1340.56,96.255 1342.12,95.351 1344.2,95.351C1346.28,95.351 1347.32,96.255 1347.58,96.707L1358.23,96.707L1358.23,119.761L1360.31,119.761L1360.31,122.473L1362.13,122.473L1362.13,150.951L1393.05,150.951C1393.75,151.223 1395.24,152.199 1395.65,153.935L1416.18,153.935C1416.44,153.393 1417.43,152.308 1419.3,152.308M1419.3,152.308C1421.17,152.308 1422.51,153.393 1422.94,153.935" style="fill:none;fill-rule:nonzero" stroke="var(--footer-graphics-skyline-outline)" stroke-width="var(--footer-graphics-skyline-stroke-width, 1px)" />
    </g>
<defs>
<filter id="filter0_d_6931_687" x="-54.5" y="0.5" width="1562" height="267" filterUnits="userSpaceOnUse" color-interpolation-filters="sRGB">
<feFlood flood-opacity="0" result="BackgroundImageFix"/>
<feColorMatrix in="SourceAlpha" type="matrix" values="0 0 0 0 0 0 0 0 0 0 0 0 0 0 0 0 0 0 127 0" result="hardAlpha"/>
<feOffset/>
<feGaussianBlur stdDeviation="5"/>
<feComposite in2="hardAlpha" operator="out"/>
<feColorMatrix type="matrix" values="0 0 0 0 0.458917 0 0 0 0 0.370833 0 0 0 0 1 0 0 0 0.5 0"/>
<feBlend mode="normal" in2="BackgroundImageFix" result="effect1_dropShadow_6931_687"/>
<feBlend mode="normal" in="SourceGraphic" in2="effect1_dropShadow_6931_687" result="shape"/>
</filter>
<linearGradient id="paint0_linear_6931_687" x1="726.5" y1="11" x2="726.5" y2="257" gradientUnits="userSpaceOnUse">
<stop stop-color="var(--footer-graphics-skyline-gradient-1)"/>
<stop stop-color="var(--footer-graphics-skyline-gradient-2)" offset="1"/>
</linearGradient>
</defs>
</svg>
