<?xml version="1.0" encoding="UTF-8" standalone="no"?>
<!DOCTYPE svg PUBLIC "-//W3C//DTD SVG 1.1//EN" "http://www.w3.org/Graphics/SVG/1.1/DTD/svg11.dtd">
<svg viewBox="0 0 987 184" version="1.1" xmlns="http://www.w3.org/2000/svg" style="fill-rule:evenodd;clip-rule:evenodd;">
    <g transform="matrix(1.00664,0,0,1.0043,-3.00664,-0.00430441)">
        <path d="M1,32.77C4.235,31.258 12.257,27.931 18.467,26.721C24.677,25.511 29.68,24.632 31.406,24.344C36.078,23.84 46.544,22.702 51.029,22.184C56.636,21.536 60.949,19.375 64.399,19.591C67.849,19.807 68.927,22.184 72.809,22.184L82.728,22.184C86.394,20.455 94.675,16.955 98.47,16.783C103.214,16.566 108.821,15.919 115.075,15.919L119.819,17.863C121.041,17.647 123.873,17.344 125.425,17.863C126.978,18.381 129.954,19.231 131.248,19.591C132.542,18.367 136.035,15.919 139.658,15.919C144.186,15.919 148.93,19.591 151.734,19.591C154.537,19.591 154.968,17.863 158.419,17.863C161.179,17.863 165.032,18.583 166.613,18.943C171.501,18.511 182.096,17.474 185.374,16.783C189.471,15.919 198.097,14.622 199.822,15.27C201.547,15.919 201.547,17.432 205.644,20.888C209.741,24.344 208.448,27.586 210.82,28.018C213.192,28.45 213.623,23.479 216.858,24.344C220.092,25.209 226.13,29.747 234.756,31.259C241.656,32.468 245.969,32.77 247.263,32.77C249.491,31.834 255.069,30.092 259.555,30.61C265.161,31.259 275.297,28.018 281.766,28.018C286.941,28.018 292.117,27.154 294.057,26.721C296.214,25.929 301.303,24.344 304.408,24.344C308.29,24.344 312.603,25.424 318.425,24.344C324.247,23.265 330.932,17.647 335.461,15.919C339.989,14.19 347.752,15.487 352.712,12.678C357.672,9.869 360.691,5.332 372.551,3.604C384.411,1.875 399.938,1.659 401.663,3.604C403.388,5.548 407.485,0.795 411.582,1.443C414.86,1.962 418.842,4.396 420.424,5.548C424.737,3.46 435.389,-0.286 443.497,1.443C453.633,3.604 452.339,1.443 458.808,7.06C465.277,12.678 473.472,14.19 476.275,16.567C479.078,18.943 480.157,18.727 484.901,18.295C488.696,17.949 501.433,23.769 507.327,26.721C507.256,26.289 509.484,25.684 518.972,26.721C530.832,28.018 540.536,30.61 542.908,29.314C545.28,28.018 544.418,26.721 549.809,26.721C555.2,26.721 557.356,19.808 559.513,18.727C561.669,17.647 561.885,16.135 563.394,16.783C564.904,17.431 566.845,20.672 567.491,22.616C568.138,24.561 567.491,24.993 567.491,25.641C567.491,26.159 569.935,28.017 571.157,28.882C572.523,29.314 575.427,30.005 576.117,29.314C576.98,28.45 580.646,28.666 581.077,26.721C581.508,24.777 581.724,22.616 583.665,21.536C585.605,20.456 586.252,18.295 587.331,18.295C588.409,18.295 591.428,22.832 591.859,24.993C592.29,27.153 591.428,29.314 592.722,29.746C594.015,30.178 595.74,33.419 597.25,35.147C598.76,36.876 621.186,41.845 629.596,44.869C638.006,47.894 703.13,53.512 720.813,55.888C738.495,58.265 733.104,51.999 746.043,55.888C758.982,59.777 760.275,61.505 771.273,61.505L792.19,61.505C810.304,61.505 811.598,61.721 816.558,67.339C821.518,72.956 849.336,76.413 864.862,84.191C877.283,90.413 962.467,155.642 985.756,164.5C865.356,175.663 574.306,182.519 530.832,182C487.359,181.481 162.372,181.784 1,182L1,32.77Z" style="fill-rule:nonzero;" fill="var(--footer-graphics-mountain-background)"/>
    </g>
    <g transform="matrix(1.00664,0,0,1.0043,-3.00664,-0.00430441)">
        <path d="M82.728,22.184L72.809,22.184C68.927,22.184 67.849,19.807 64.399,19.591C60.949,19.375 56.636,21.536 51.029,22.184C46.544,22.702 36.078,23.84 31.406,24.344C29.68,24.632 24.677,25.511 18.467,26.721C12.257,27.931 4.235,31.258 1,32.77L1,182C162.372,181.784 487.359,181.481 530.832,182C571.814,182.489 832.801,176.425 963.447,166.377C971.392,165.766 978.854,165.14 985.756,164.5C962.467,155.642 877.283,90.413 864.862,84.191C849.336,76.413 821.518,72.956 816.558,67.339C811.598,61.721 810.304,61.505 792.19,61.505L771.273,61.505C760.275,61.505 758.981,59.777 746.043,55.888C733.104,51.999 738.496,58.265 720.813,55.888C703.13,53.512 638.006,47.894 629.596,44.869C621.186,41.845 598.759,36.876 597.25,35.147C595.741,33.419 594.015,30.178 592.722,29.746C591.428,29.314 592.29,27.153 591.859,24.993C591.428,22.832 588.409,18.295 587.331,18.295C586.252,18.295 585.605,20.456 583.665,21.536C581.724,22.616 581.508,24.777 581.077,26.721C580.646,28.666 576.98,28.45 576.117,29.314C575.427,30.005 572.523,29.314 571.157,28.882C569.935,28.017 567.491,26.159 567.491,25.641C567.491,24.993 568.138,24.561 567.491,22.616C566.845,20.672 564.904,17.431 563.394,16.783C561.885,16.135 561.669,17.647 559.513,18.727C557.356,19.808 555.2,26.721 549.809,26.721C544.418,26.721 545.28,28.018 542.908,29.314C540.536,30.61 530.832,28.018 518.972,26.721C509.484,25.684 507.256,26.289 507.327,26.721C501.433,23.769 488.696,17.949 484.901,18.295C480.157,18.727 479.078,18.943 476.275,16.567C473.472,14.19 465.277,12.678 458.808,7.06C452.339,1.443 453.633,3.604 443.497,1.443C435.389,-0.286 424.737,3.46 420.424,5.548C418.842,4.396 414.86,1.962 411.582,1.443C407.485,0.795 403.388,5.548 401.663,3.604C399.938,1.659 384.411,1.875 372.551,3.604C360.691,5.332 357.672,9.869 352.712,12.678C347.752,15.487 339.989,14.19 335.461,15.919C330.932,17.647 324.247,23.265 318.425,24.344C312.603,25.424 308.29,24.344 304.408,24.344C301.303,24.344 296.214,25.929 294.057,26.721M82.728,22.184C86.394,20.455 94.675,16.955 98.47,16.783C103.214,16.566 108.821,15.919 115.075,15.919L119.819,17.863C121.041,17.647 123.873,17.344 125.425,17.863C126.978,18.381 129.954,19.231 131.248,19.591C132.542,18.367 136.035,15.919 139.658,15.919C144.186,15.919 148.93,19.591 151.734,19.591C154.537,19.591 154.968,17.863 158.419,17.863C161.179,17.863 165.032,18.583 166.613,18.943C171.501,18.511 182.096,17.474 185.374,16.783C189.471,15.919 198.097,14.622 199.822,15.27M82.728,22.184C78.847,23.48 68.97,26.592 60.517,28.666C52.064,30.74 27.668,41.053 16.526,45.95M199.822,15.27C201.547,15.919 201.547,17.432 205.644,20.888C209.741,24.344 208.448,27.586 210.82,28.018C213.192,28.45 213.623,23.479 216.858,24.344C220.092,25.209 226.13,29.747 234.756,31.259C241.656,32.468 245.969,32.77 247.263,32.77C249.491,31.834 255.069,30.092 259.555,30.61C265.162,31.259 275.297,28.018 281.766,28.018C286.941,28.018 292.117,27.154 294.057,26.721M199.822,15.27C198.959,15.774 196.113,16.999 191.628,17.863C187.142,18.727 182.139,21.68 180.199,23.048C178.042,22.76 172.78,22.184 168.985,22.184C165.19,22.184 162.803,24.344 162.085,25.425C161.51,25.065 159.54,24.085 156.262,23.048C152.984,22.011 150.152,22.616 149.146,23.048M294.057,26.721C288.954,29.602 277.194,35.795 270.984,37.524C263.221,39.684 250.929,48.758 247.263,50.703C243.597,52.647 239.5,54.592 234.756,54.592C230.961,54.592 222.68,61.938 219.014,65.61M90.491,43.573C94.373,38.316 103.43,27.585 108.605,26.721C113.781,25.857 121.975,26.361 125.425,26.721C126.288,25.857 128.66,24.388 131.248,25.425M90.491,43.573C88.623,43.573 82.772,44.048 74.318,45.95C65.865,47.851 61.595,52.503 60.517,54.592C58.864,54.808 54.652,55.586 51.029,56.968C47.406,58.351 44.775,60.641 44.128,63.666M90.491,43.573C93.151,43.573 99.247,44.048 102.352,45.95M131.248,25.425C133.835,26.462 135.489,28.593 135.992,29.53L131.248,25.425ZM131.248,25.425C132.254,23.481 135.345,19.852 139.658,20.888C143.971,21.925 147.78,22.76 149.146,23.048M149.146,23.048C147.637,23.408 144.273,24.388 142.892,25.425M259.555,80.518C263.364,77.493 270.984,70.709 270.984,67.771C270.984,64.833 275.872,62.082 278.316,61.073C278.891,60.425 280.688,57.444 283.275,50.703C285.863,43.962 291.542,41.413 294.057,40.981C297.508,37.74 305.832,30.74 311.525,28.666C317.217,26.591 332.011,24.056 338.695,23.048C342.002,22.472 349.995,20.715 355.515,18.295C362.416,15.27 367.376,10.086 372.551,12.678C377.727,15.27 385.705,18.295 388.509,18.943C391.312,19.591 421.933,21.536 429.912,21.536C436.295,21.536 449.679,23.84 455.573,24.993M455.573,24.993L468.943,24.344M455.573,24.993C450.182,28.378 437.503,35.147 429.912,35.147C420.424,35.147 403.388,36.011 398.86,40.981C395.237,44.956 397.35,51.711 398.86,54.592L392.822,61.073L396.919,63.666C394.115,65.61 388.509,70.407 388.509,74.036C388.509,77.666 392.965,80.734 395.194,81.814" style="fill:none;fill-rule:nonzero;stroke-width:1px;"  stroke="var(--footer-graphics-far-mountain-outline)"/>
    </g>
    <g transform="matrix(1,0,0,1,0.188196,-1.49111)">
        <rect x="-15.844" y="166.803" width="1031.9" height="38.312" fill="var(--footer-graphics-mountain-background)"/>
    </g>
</svg>
