<svg width="100%" height="100%" viewBox="0 0 1044 900" fill="none" xmlns="http://www.w3.org/2000/svg">
<g>
<path d="M670.81 190.212L861.642 90.7383L789.055 356.167L522.721 285.088L670.81 190.212Z" stroke="url(#paint0_angular_6595_523)"/>
<path d="M398.76 552.419L237.889 695.231L503.799 422.291L398.76 552.419Z" stroke="url(#paint1_angular_6595_523)"/>
<path d="M41.3801 403.679L187.005 77.7505L271.053 379.83L41.3801 403.679Z" stroke="url(#paint2_angular_6595_523)"/>
<path d="M41.3525 404.653L272.141 380.828L228.099 700.839L41.3525 404.653Z" stroke="url(#paint3_angular_6595_523)"/>
<path d="M228.925 702.116L41.7974 405.856L479.725 598.723L228.925 702.116Z" stroke="url(#paint4_angular_6595_523)"/>
<path d="M510.404 415.081L789.135 356.347L903.113 579.177L787.892 699.048L510.404 415.081Z" stroke="url(#paint5_angular_6595_523)"/>
<path d="M219.988 197.719L401.979 184.279L520.474 285.492L509.462 414.21L270.601 380.816L219.988 197.719Z" stroke="url(#paint6_angular_6595_523)"/>
<path d="M737.627 281.565L737.632 281.57L787.247 355.464L520.202 286.081L670.932 188.458L737.627 281.565Z" stroke="url(#paint7_angular_6595_523)"/>
<path d="M862.533 92.9353L958.155 210.012L1009.33 402.409L912.234 272.555L862.533 92.9353Z" stroke="url(#paint8_angular_6595_523)"/>
<path d="M672.586 189.353L958.722 209.739L1008.79 403.602L790.206 355.32L672.586 189.353Z" stroke="url(#paint9_angular_6595_523)"/>
<path d="M761.09 439.215L1012.01 402.914L902.498 580.665L735.637 524.446L761.09 439.215Z" stroke="url(#paint10_angular_6595_523)"/>
<path d="M271.672 380.14L519.931 286.511L509.945 414.911L256.7 501.035L271.672 380.14Z" stroke="url(#paint11_angular_6595_523)"/>
<path d="M230.026 703.339L591.356 551.578L576.906 638.155L510.618 867.51L230.026 703.339Z" stroke="url(#paint12_angular_6595_523)"/>
<path d="M509.418 414.717L464.748 689.296L255.867 501.798L388.613 393.667L520.893 285.916L509.418 414.717Z" stroke="url(#paint13_angular_6595_523)"/>
<path d="M577.325 637.584L735.244 524.594L787.307 699.54L511.753 867.686L577.325 637.584Z" stroke="url(#paint14_angular_6595_523)"/>
<path d="M593.439 552.032L648.696 384.969L759.71 439.833L593.439 552.032Z" stroke="url(#paint15_angular_6595_523)"/>
<path d="M31.511 190.013L185.882 77.7924L40.4744 400.142L31.511 190.013Z" stroke="url(#paint16_angular_6595_523)"/>
<path d="M521.44 285.413L787.75 356.207L509.97 414.152L521.44 285.413Z" stroke="url(#paint17_angular_6595_523)"/>
<path d="M194.548 64.1153L406.845 171.042L183.721 190.507L194.548 64.1153Z" stroke="url(#paint18_angular_6595_523)"/>
<path d="M511.5 867.238L610.5 721.279M511.5 867.238L787 699.738M511.5 867.238L414 744.738M511.5 867.238L229.5 704.279M610.5 721.279L577.5 637.738L787 699.738M610.5 721.279L787 699.738M610.5 721.279L414 744.738M610.5 721.279L590.5 551.738M229.5 704.279L414 744.738M229.5 704.279L590.5 551.738M414 744.738L590.5 551.738" stroke="url(#paint19_angular_6595_523)"/>
</g>
<defs>
<radialGradient id="paint0_angular_6595_523" cx="0" cy="0" r="1" gradientUnits="userSpaceOnUse" gradientTransform="translate(691.961 223.272) rotate(90) scale(133.507 170.465)">
<stop stop-color="#5A60F3"/>
<stop offset="0.614583" stop-color="#F9B443"/>
<stop offset="0.8125" stop-color="#BAB2EA"/>
<stop offset="1" stop-color="#5A60F3"/>
</radialGradient>
<radialGradient id="paint1_angular_6595_523" cx="0" cy="0" r="1" gradientUnits="userSpaceOnUse" gradientTransform="translate(369.411 559.516) rotate(90) scale(145.25 141.509)">
<stop stop-color="#5A60F3"/>
<stop offset="0.614583" stop-color="#F9B443"/>
<stop offset="0.8125" stop-color="#BAB2EA"/>
<stop offset="1" stop-color="#5A60F3"/>
</radialGradient>
<radialGradient id="paint2_angular_6595_523" cx="0" cy="0" r="1" gradientUnits="userSpaceOnUse" gradientTransform="translate(156.132 240.273) rotate(90) scale(163.993 115.562)">
<stop stop-color="#5A60F3"/>
<stop offset="0.614583" stop-color="#F9B443"/>
<stop offset="0.8125" stop-color="#BAB2EA"/>
<stop offset="1" stop-color="#5A60F3"/>
</radialGradient>
<radialGradient id="paint3_angular_6595_523" cx="0" cy="0" r="1" gradientUnits="userSpaceOnUse" gradientTransform="translate(156.612 541.266) rotate(90) scale(161 116.112)">
<stop stop-color="#5A60F3"/>
<stop offset="0.614583" stop-color="#F9B443"/>
<stop offset="0.8125" stop-color="#BAB2EA"/>
<stop offset="1" stop-color="#5A60F3"/>
</radialGradient>
<radialGradient id="paint4_angular_6595_523" cx="0" cy="0" r="1" gradientUnits="userSpaceOnUse" gradientTransform="translate(260.75 553.738) rotate(90) scale(149 220.25)">
<stop stop-color="#5A60F3"/>
<stop offset="0.614583" stop-color="#F9B443"/>
<stop offset="0.8125" stop-color="#BAB2EA"/>
<stop offset="1" stop-color="#5A60F3"/>
</radialGradient>
<radialGradient id="paint5_angular_6595_523" cx="0" cy="0" r="1" gradientUnits="userSpaceOnUse" gradientTransform="translate(706.566 527.773) rotate(90) scale(171.993 197.155)">
<stop stop-color="#5A60F3"/>
<stop offset="0.614583" stop-color="#F9B443"/>
<stop offset="0.8125" stop-color="#BAB2EA"/>
<stop offset="1" stop-color="#5A60F3"/>
</radialGradient>
<radialGradient id="paint6_angular_6595_523" cx="0" cy="0" r="1" gradientUnits="userSpaceOnUse" gradientTransform="translate(370.169 299.272) rotate(90) scale(115.507 150.825)">
<stop stop-color="#5A60F3"/>
<stop offset="0.614583" stop-color="#F9B443"/>
<stop offset="0.8125" stop-color="#BAB2EA"/>
<stop offset="1" stop-color="#5A60F3"/>
</radialGradient>
<radialGradient id="paint7_angular_6595_523" cx="0" cy="0" r="1" gradientUnits="userSpaceOnUse" gradientTransform="translate(653.687 272.029) rotate(90) scale(84.25 134.71)">
<stop stop-color="#5A60F3"/>
<stop offset="0.614583" stop-color="#F9B443"/>
<stop offset="0.8125" stop-color="#BAB2EA"/>
<stop offset="1" stop-color="#5A60F3"/>
</radialGradient>
<radialGradient id="paint8_angular_6595_523" cx="0" cy="0" r="1" gradientUnits="userSpaceOnUse" gradientTransform="translate(935.949 247.779) rotate(90) scale(157 74.5313)">
<stop stop-color="#5A60F3"/>
<stop offset="0.614583" stop-color="#F9B443"/>
<stop offset="0.8125" stop-color="#BAB2EA"/>
<stop offset="1" stop-color="#5A60F3"/>
</radialGradient>
<radialGradient id="paint9_angular_6595_523" cx="0" cy="0" r="1" gradientUnits="userSpaceOnUse" gradientTransform="translate(840.521 296.523) rotate(90) scale(107.743 168.954)">
<stop stop-color="#5A60F3"/>
<stop offset="0.614583" stop-color="#F9B443"/>
<stop offset="0.8125" stop-color="#BAB2EA"/>
<stop offset="1" stop-color="#5A60F3"/>
</radialGradient>
<radialGradient id="paint10_angular_6595_523" cx="0" cy="0" r="1" gradientUnits="userSpaceOnUse" gradientTransform="translate(874.01 491.766) rotate(90) scale(89.5 138.991)">
<stop stop-color="#5A60F3"/>
<stop offset="0.614583" stop-color="#F9B443"/>
<stop offset="0.8125" stop-color="#BAB2EA"/>
<stop offset="1" stop-color="#5A60F3"/>
</radialGradient>
<radialGradient id="paint11_angular_6595_523" cx="0" cy="0" r="1" gradientUnits="userSpaceOnUse" gradientTransform="translate(388.298 393.766) rotate(90) scale(108 132.192)">
<stop stop-color="#5A60F3"/>
<stop offset="0.614583" stop-color="#F9B443"/>
<stop offset="0.8125" stop-color="#BAB2EA"/>
<stop offset="1" stop-color="#5A60F3"/>
</radialGradient>
<radialGradient id="paint12_angular_6595_523" cx="0" cy="0" r="1" gradientUnits="userSpaceOnUse" gradientTransform="translate(410.454 709.516) rotate(90) scale(158.75 181.544)">
<stop stop-color="#5A60F3"/>
<stop offset="0.614583" stop-color="#F9B443"/>
<stop offset="0.8125" stop-color="#BAB2EA"/>
<stop offset="1" stop-color="#5A60F3"/>
</radialGradient>
<radialGradient id="paint13_angular_6595_523" cx="0" cy="0" r="1" gradientUnits="userSpaceOnUse" gradientTransform="translate(388.297 487.529) rotate(90) scale(202.75 133.199)">
<stop stop-color="#5A60F3"/>
<stop offset="0.614583" stop-color="#F9B443"/>
<stop offset="0.8125" stop-color="#BAB2EA"/>
<stop offset="1" stop-color="#5A60F3"/>
</radialGradient>
<radialGradient id="paint14_angular_6595_523" cx="0" cy="0" r="1" gradientUnits="userSpaceOnUse" gradientTransform="translate(649.409 696.279) rotate(90) scale(172.5 138.487)">
<stop stop-color="#5A60F3"/>
<stop offset="0.614583" stop-color="#F9B443"/>
<stop offset="0.8125" stop-color="#BAB2EA"/>
<stop offset="1" stop-color="#5A60F3"/>
</radialGradient>
<radialGradient id="paint15_angular_6595_523" cx="0" cy="0" r="1" gradientUnits="userSpaceOnUse" gradientTransform="translate(676.603 468.766) rotate(90) scale(84.5 84.0995)">
<stop stop-color="#5A60F3"/>
<stop offset="0.614583" stop-color="#F9B443"/>
<stop offset="0.8125" stop-color="#BAB2EA"/>
<stop offset="1" stop-color="#5A60F3"/>
</radialGradient>
<radialGradient id="paint16_angular_6595_523" cx="0" cy="0" r="1" gradientUnits="userSpaceOnUse" gradientTransform="translate(109.056 239.273) rotate(90) scale(162.993 78.0564)">
<stop stop-color="#5A60F3"/>
<stop offset="0.614583" stop-color="#F9B443"/>
<stop offset="0.8125" stop-color="#BAB2EA"/>
<stop offset="1" stop-color="#5A60F3"/>
</radialGradient>
<radialGradient id="paint17_angular_6595_523" cx="0" cy="0" r="1" gradientUnits="userSpaceOnUse" gradientTransform="translate(620.153 347.592) rotate(142.516) scale(128.665 110.187)">
<stop stop-color="#5A60F3"/>
<stop offset="0.614583" stop-color="#F9B443"/>
<stop offset="0.8125" stop-color="#BAB2EA"/>
<stop offset="1" stop-color="#5A60F3"/>
</radialGradient>
<radialGradient id="paint18_angular_6595_523" cx="0" cy="0" r="1" gradientUnits="userSpaceOnUse" gradientTransform="translate(266.999 142.955) rotate(143.331) scale(95.8848 107.389)">
<stop stop-color="#5A60F3"/>
<stop offset="0.614583" stop-color="#F9B443"/>
<stop offset="0.8125" stop-color="#BAB2EA"/>
<stop offset="1" stop-color="#5A60F3"/>
</radialGradient>
<radialGradient id="paint19_angular_6595_523" cx="0" cy="0" r="1" gradientUnits="userSpaceOnUse" gradientTransform="translate(508.25 709.488) rotate(90) scale(157.75 278.75)">
<stop stop-color="#5A60F3"/>
<stop offset="0.614583" stop-color="#F9B443"/>
<stop offset="0.8125" stop-color="#BAB2EA"/>
<stop offset="1" stop-color="#5A60F3"/>
</radialGradient>
</defs>
</svg>
