<svg width="1044" height="1080" viewBox="0 0 1044 1080" fill="#B07FFF" xmlns="http://www.w3.org/2000/svg">
<path fill-rule="evenodd" clip-rule="evenodd" d="M867.54 242.339C940.867 111.805 842.768 69.3425 738.38 85.266C738.38 85.266 729.339 27.4694 728.159 24.7172C815.641 -1.0357 894.275 -8.30941 950.303 10.7595C1105.61 82.1206 1095.78 328.837 658.371 623.521C490.587 736.559 390.225 783.15 261.461 736.559C159.236 772.338 71.1645 765.261 0 707.661C296.257 684.857 695.33 465.858 867.54 242.339ZM196.391 345.547L223.522 364.223C123.262 456.029 58.3871 552.357 76.4731 623.718C46.9851 543.707 101.047 442.858 196.391 345.547Z"/>
<path d="M987.682 642.395C895.894 835.026 692.73 958.321 463.719 1026.18C656.004 1032.53 922.106 975.913 1043.7 758.95C1016.72 777.574 999.636 783.331 975.42 782.005C993.44 742.6 996.755 675.192 987.682 642.395Z"/>
<path fill-rule="evenodd" clip-rule="evenodd" d="M792.324 991.497C805.94 1020.24 819.562 1047.47 828.639 1067.14C830.152 1071.68 830.134 1076.22 825.596 1077.73C822.57 1080.76 818.049 1080.76 813.51 1077.73L719.695 1014.19C745.414 1008.14 769.631 1000.57 792.324 991.497ZM618.345 946.111L476.129 849.288L545.715 719.181C582.024 701.027 616.82 678.334 651.616 652.616L798.382 720.694L477.636 849.288L697.002 790.286C697.002 790.286 715.168 829.621 739.374 879.545C701.552 903.751 662.218 926.444 618.345 946.111ZM798.382 720.694L674.309 634.461C700.028 614.794 736.36 587.561 774.182 557.304L798.382 720.694ZM743.924 350.042C692.487 393.915 627.41 439.301 575.972 472.584C551.767 487.713 527.578 502.842 503.373 516.458L161.471 280.45L700.045 38.3911L743.924 350.042Z"/>
</svg>
