<svg width="1440" height="935" viewBox="0 0 1440 935" fill="none" xmlns="http://www.w3.org/2000/svg">
<g filter="url(#filter0_d_1390_292)">
<path d="M-24.3092 376.543C-24.3092 376.543 331.73 486.846 544.055 434.26C766.062 379.275 725.279 138.219 957.404 114.89C1184.03 92.1136 1465.73 328.618 1465.73 328.618" stroke="url(#paint0_linear_1390_292)" stroke-width="0.5"/>
<path d="M-24.4869 401.755C-24.4869 401.755 331.552 512.058 543.877 459.472C765.884 404.487 725.102 163.431 957.227 140.102C1183.85 117.325 1465.55 353.83 1465.55 353.83" stroke="url(#paint1_linear_1390_292)" stroke-width="0.5"/>
<path d="M-24.6644 426.966C-24.6644 426.966 331.374 537.27 543.7 484.683C765.707 429.699 724.924 188.643 957.049 165.313C1183.67 142.537 1465.37 379.042 1465.37 379.042" stroke="url(#paint2_linear_1390_292)" stroke-width="0.5"/>
<path d="M-24.8405 452.178C-24.8405 452.178 331.198 562.482 543.524 509.895C765.531 454.911 724.748 213.854 956.873 190.525C1183.5 167.749 1465.19 404.253 1465.19 404.253" stroke="url(#paint3_linear_1390_292)" stroke-width="0.5"/>
<path d="M-25.0177 477.391C-25.0177 477.391 331.021 587.695 543.347 535.108C765.353 480.124 724.571 239.068 956.696 215.739C1183.32 192.962 1465.02 429.467 1465.02 429.467" stroke="url(#paint4_linear_1390_292)" stroke-width="0.5"/>
<path d="M-25.1937 502.603C-25.1937 502.603 330.845 612.907 543.171 560.32C765.177 505.336 724.395 264.279 956.52 240.95C1183.14 218.174 1464.84 454.678 1464.84 454.678" stroke="url(#paint5_linear_1390_292)" stroke-width="0.5"/>
<path d="M-25.3712 527.815C-25.3712 527.815 330.668 638.119 542.993 585.532C765 530.548 724.217 289.491 956.342 266.162C1182.97 243.386 1464.66 479.89 1464.66 479.89" stroke="url(#paint6_linear_1390_292)" stroke-width="0.5"/>
<path d="M-25.549 553.027C-25.549 553.027 330.49 663.33 542.815 610.744C764.822 555.759 724.04 314.703 956.165 291.374C1182.79 268.597 1464.49 505.102 1464.49 505.102" stroke="url(#paint7_linear_1390_292)" stroke-width="0.5"/>
<path d="M-25.7264 578.238C-25.7264 578.238 330.312 688.542 542.638 635.955C764.645 580.971 723.862 339.915 955.987 316.585C1182.61 293.809 1464.31 530.314 1464.31 530.314" stroke="url(#paint8_linear_1390_292)" stroke-width="0.5"/>
<path d="M758.649 200.022C733.688 212.503 704.39 255.039 755.399 293.295C734.507 286.512 718.77 293.295 713.615 303.877C705.747 300.078 589.078 300.078 600.745 307.675C612.412 315.272 641.172 309.032 675.087 313.644C709.003 318.257 832.454 317.443 866.369 322.869C900.285 328.296 931.21 315.876 948.303 316.419C961.978 316.853 1108.47 314.791 1188.69 316.419C1199.1 315.696 1213.39 312.667 1206.34 309.846C1190.06 303.334 1148.54 300.078 1133.62 300.078C1121.95 293.295 1113.54 288.954 1101.06 300.078C1089.94 293.566 1033.23 297.365 1011.8 300.078C1004.2 293.295 975.169 283.527 953.735 288.954C956.443 265.349 910.861 258.899 905.982 265.349C908.424 219.767 844.664 216.511 832.454 226.279C831.369 194.263 783.611 187.541 758.649 200.022Z" fill="white"/>
<path fill-rule="evenodd" clip-rule="evenodd" d="M1199.25 315.06L1193.31 310.156C1191.77 310.156 1188.67 309.572 1185.53 308.982C1182.24 308.364 1178.91 307.738 1177.3 307.768C1176.55 307.782 1175.29 307.305 1173.9 306.774C1171.65 305.922 1169.04 304.928 1167.53 305.597C1164.88 307.603 1164.96 307.279 1165.03 306.989C1165.09 306.704 1165.15 306.453 1162.61 308.484C1158.92 311.428 1151.32 310.115 1144.23 308.889C1139.76 308.115 1135.49 307.377 1132.53 307.768C1127.81 308.392 1125.17 310.167 1122.71 311.815C1119.83 313.754 1117.2 315.518 1111.76 315.031C1106.28 314.541 1100.72 314.512 1095.17 314.482C1090.84 314.459 1086.52 314.436 1082.23 314.196C1079.85 314.062 1077.39 313.988 1074.9 313.912C1065.83 313.637 1056.23 313.346 1048.03 310.156C1047.38 309.902 1046.77 309.553 1046.18 309.213C1044.72 308.372 1043.36 307.592 1041.69 308.484C1033.97 312.594 1025.88 313.174 1017.24 312.663C1017.16 312.659 1016.9 312.617 1016.52 312.556C1014.54 312.24 1009.27 311.4 1008.95 312.454C1008.47 314.058 1008.84 315.267 1009.45 316.179C1062.75 315.825 1138.63 315.403 1188.69 316.419C1192.09 316.183 1195.91 315.701 1199.25 315.06ZM993.778 316.285C990.288 315.061 986.695 313.804 980.862 313.465C979.84 313.406 978.038 313.757 975.986 314.157C971.223 315.086 965.115 316.277 964.311 313.194C964.093 312.359 963.417 311.757 962.859 311.26C962.158 310.636 961.643 310.178 962.461 309.633C962.676 309.49 963.364 309.421 964.027 309.355C965.083 309.25 966.078 309.152 965.003 308.763C963.97 308.389 962.608 308.03 961.137 307.643C958.989 307.076 956.61 306.449 954.694 305.628C952.411 304.65 950.023 303.889 947.636 303.13C944.748 302.21 941.861 301.292 939.162 299.987C937.964 299.407 935.756 298.255 935.575 296.713C935.374 295 927.101 290.166 925.241 290.166C917.319 288.358 914.772 290.091 912.129 291.889C909.883 293.417 907.568 294.992 901.829 294.484C900.445 294.361 898.919 294.305 897.324 294.247C891.512 294.033 884.789 293.786 880.724 290.166C878.153 287.875 878.02 285.253 877.886 282.616C877.791 280.762 877.697 278.901 876.754 277.141C876.171 276.053 874.905 276.265 873.608 276.483C872.172 276.724 870.697 276.972 870.068 275.469C869.224 273.455 869.114 270.774 869.012 268.271C868.966 267.15 868.922 266.065 868.814 265.091C868.743 264.449 867.924 265.6 867.002 266.896C866.176 268.059 865.266 269.338 864.736 269.549C863.187 270.164 861.118 269.885 859.086 269.611C857.492 269.396 855.921 269.185 854.64 269.409C846.696 270.803 838.02 270.382 830.018 269.549C829.699 269.516 829.373 269.483 829.041 269.45C826.01 269.151 822.495 268.804 819.918 267.25C816.001 264.889 815.831 259.063 815.697 254.483C815.677 253.795 815.658 253.135 815.627 252.519C815.402 248.064 815.395 244.075 815.627 239.633C815.72 237.838 815.094 234.567 813.998 232.773C813.476 231.919 813.232 236.209 813.232 236.325C813.232 243.601 811.604 254.737 802.366 256.106C801.866 256.18 801.151 256.02 800.396 255.852C799.122 255.567 797.734 255.257 797.072 256.001C796.79 256.319 796.67 256.89 796.545 257.481C796.425 258.047 796.301 258.632 796.028 259.031C792.104 264.757 786.414 266.161 779.938 266.275C778.816 266.295 777.804 266.419 776.867 266.534C774.083 266.875 771.966 267.135 769.595 264.325C766.851 261.073 764.906 257.538 762.882 253.86C762.637 253.415 762.391 252.968 762.142 252.519C761.265 250.936 760.5 249.182 759.728 247.414C758.527 244.662 757.31 241.873 755.63 239.633C753.884 237.305 754.986 249.81 755.072 250.394C755.11 250.654 755.216 251.154 755.354 251.807C755.979 254.77 757.265 260.866 755.908 261.748C754.976 262.354 752.382 260.717 751.297 260.033C751.194 259.968 751.105 259.912 751.033 259.867C750.186 259.345 749.39 258.686 748.587 258.022C747.173 256.852 745.742 255.668 743.998 255.2C742.642 254.837 744.497 257.987 745.232 259.234C745.365 259.461 745.462 259.625 745.495 259.693C746.028 260.786 746.518 261.94 747.013 263.107C748.299 266.137 749.621 269.252 751.834 271.603C755.457 275.453 760.487 281.318 760.575 286.822C760.598 288.257 760.15 289.501 759.695 290.768C759.425 291.52 759.152 292.28 758.973 293.091C758.805 293.851 758.771 294.646 758.736 295.441C758.675 296.864 758.614 298.285 757.789 299.499C754.796 303.904 747.819 304.371 742.094 304.754C740.389 304.868 738.795 304.975 737.45 305.176C734.022 305.688 730.79 306.247 727.669 306.787C716.352 308.745 706.499 310.45 694.075 308.763C692.549 308.555 686.476 310.737 679.736 313.157C679.006 313.42 678.268 313.685 677.528 313.95C694.671 315.929 729.323 316.85 764.884 317.796C806.117 318.893 848.571 320.022 866.369 322.869C888.058 326.34 908.525 322.511 924.933 319.442C934.182 317.712 942.141 316.224 948.303 316.419C952.566 316.555 969.734 316.447 993.778 316.285Z" fill="#EBEDFF"/>
<path d="M695.769 251.581C695.538 249.653 693.139 245.913 685.39 246.375C677.64 246.838 662.787 246.568 656.329 246.375C651.947 243.676 648.031 237.53 629.344 239.435C633.646 227.868 619.657 226.132 612.046 227.868C612.046 222.662 600.402 218.539 592.791 219.117C585.18 219.696 585.753 219.771 582.985 222.662C579.11 222.2 573.529 222.855 571.222 223.241C565.917 221.891 553.509 220.465 546.313 225.554C539.117 230.644 539.163 239.243 540.086 242.906C531.091 241.942 510.609 240.592 500.646 242.906C490.682 245.219 483.578 247.34 481.272 248.111C470.662 247.34 448.474 246.26 444.6 248.111C437.428 261.698 477.12 259.679 481.964 257.944C485.838 258.406 622.425 258.136 690.233 257.944C699.92 258.329 719.847 258.522 722.062 256.208C724.276 253.895 735.439 256.401 740.744 257.944C772.111 259.1 807.554 260.026 810.875 254.473C814.196 248.921 803.956 247.533 798.42 247.533C770.513 247.34 741.435 247.418 735.9 249.268C730.365 251.118 706.839 251.581 695.769 251.581Z" fill="white"/>
<path d="M266.397 270.066L339.87 314.304L260.322 254.618L266.397 270.066Z" fill="#C4BBFB"/>
<path d="M266.398 270.067L255.005 278.946L259.705 266.213L260.322 254.618L266.398 270.067Z" fill="#D2CCF9"/>
<path d="M260.322 254.618L255.211 263.12L236.364 293.093L237.191 338.381L259.704 266.213L260.322 254.618Z" fill="#B0A5F1"/>
<path d="M260.322 254.618L255.211 263.12L236.364 293.093L237.191 338.381L259.704 266.213L260.322 254.618Z" fill="url(#paint9_linear_1390_292)"/>
<path d="M260.322 254.618L255.211 263.12L236.364 293.093L201.209 306.078L251.081 259.953L260.322 254.618Z" fill="#D2CCF9"/>
<path d="M260.322 254.618L255.211 263.12L236.364 293.093L201.209 306.078L251.081 259.953L260.322 254.618Z" fill="url(#paint10_linear_1390_292)"/>
<path d="M271.772 255.454L339.87 314.304L260.322 254.618L271.772 255.454Z" fill="#B4AAF2"/>
<path d="M260.321 254.618L271.772 255.454L343.568 214.003C320.515 216.61 308.422 218.664 289.931 224.524L265.548 252.413L260.321 254.618Z" fill="#B0A5F1"/>
<path d="M260.321 254.618L271.772 255.454L343.568 214.003C320.515 216.61 308.422 218.664 289.931 224.524L265.548 252.413L260.321 254.618Z" fill="url(#paint11_linear_1390_292)"/>
<path d="M260.322 254.618L260.269 249.368L292.045 176.591C291.093 191.358 291.534 215.34 289.931 224.524L265.548 252.413L260.322 254.618Z" fill="#D2CCF9"/>
<path d="M260.322 254.618L260.269 249.368L292.045 176.591C291.093 191.358 291.534 215.34 289.931 224.524L265.548 252.413L260.322 254.618Z" fill="url(#paint12_linear_1390_292)"/>
<path d="M275.262 258.45L277.764 251.995L271.874 255.396L260.322 254.618L275.262 258.45Z" fill="#D2CCF9"/>
<path d="M244.015 263.897L260.263 254.517L263.663 234.139L246.278 242.958L244.015 263.897Z" fill="#D2CCF9"/>
<path d="M248.714 251.165L260.263 254.517L246.278 242.958L244.015 263.897L248.714 251.165Z" fill="#A396F4"/>
<path d="M248.714 251.165L260.263 254.517L246.278 242.958L244.015 263.897L248.714 251.165Z" fill="url(#paint13_linear_1390_292)"/>
<path d="M252.361 243.644L260.263 254.517L246.278 242.958L263.663 234.139L252.361 243.644Z" fill="#C4BBFB"/>
<path d="M700.042 150.751C700.158 149.59 701.365 147.338 705.266 147.617C709.166 147.895 716.641 147.733 719.892 147.617C722.097 145.991 727.901 142.881 733.473 143.438C732.428 139.607 738.348 135.428 742.179 136.473C739.393 130.901 744.268 128.464 748.099 128.812C751.93 129.16 755.412 131.598 756.805 133.339C758.755 133.06 761.564 133.455 762.725 133.687C765.395 132.875 771.64 132.016 775.262 135.08C778.884 138.145 778.86 143.322 778.396 145.528C782.923 144.947 793.231 144.135 798.246 145.528C803.26 146.92 806.836 148.197 807.997 148.662C813.336 148.197 824.503 147.547 826.453 148.662C828.891 147.965 852.941 147.933 852.941 150.37C852.941 152.32 852.455 153.769 850.134 153.885C839.57 154.001 818.165 154.025 817.051 153.189C816.354 154.582 810.086 155.626 807.648 154.582C805.698 154.86 736.955 154.698 702.828 154.582C697.952 154.814 687.923 154.93 686.809 153.537C685.694 152.144 680.076 153.653 677.406 154.582C661.619 155.278 629.628 155.835 627.956 152.492C626.284 149.149 631.438 148.313 634.224 148.313C648.27 148.197 677.058 148.244 679.844 149.358C682.63 150.472 694.47 150.751 700.042 150.751Z" fill="white"/>
<path d="M662.736 121.158L659.935 98.1851H658.574L634.761 115.755V116.835L638.563 137.967L639.844 138.647L662.736 121.158Z" fill="#D1CAFF"/>
<path d="M641.285 136.686L680.386 162.02L682.627 155.217L640.444 131.163L641.285 136.686Z" fill="#9E94DC"/>
<path d="M680.866 159.659L639.564 134.405L638.763 128.082L660.335 109.952L701.358 129.643L702.999 140.128L680.866 159.659Z" fill="#C0BAE9"/>
<path d="M648.168 137.567C649.409 138.087 651.25 139.528 653.451 139.688L676.864 129.883C677.264 126.187 677.489 118.356 675.183 116.595C672.302 114.394 665.778 112.553 662.977 110.992C660.175 109.431 660.135 111.673 655.733 112.553C651.33 113.433 640.484 125.2 639.604 126C638.723 126.801 639.163 131.483 640.004 133.164C640.844 134.845 642.445 134.685 643.966 135.205C645.487 135.726 646.928 137.046 648.168 137.567Z" fill="#EBE8FF"/>
<path d="M657.173 129.883C655.252 132.524 652.731 132.244 652.331 140.729C652.771 140.849 653.875 141.121 654.772 141.249C655.893 141.409 656.413 142.49 657.934 143.49C659.455 144.491 659.375 144.931 660.535 145.331C661.015 145.331 662.216 144.891 664.017 147.412C665.818 149.934 672.102 152.055 673.822 152.695C675.543 153.336 677.865 154.656 684.748 154.136C691.632 153.616 688.511 151.935 691.272 150.494C694.034 149.053 694.594 148.573 695.795 146.172C696.995 143.77 702.158 141.449 702.878 140.088C703.599 138.727 704.8 130.883 700.997 128.242C697.195 125.6 697.596 128.002 694.594 125.96C691.592 123.919 683.668 120.237 680.506 118.997C677.344 117.756 677.785 115.555 673.943 115.555C670.1 115.555 671.341 117.476 669.46 117.956C667.579 118.436 663.217 120.998 662.616 122.799C662.016 124.6 659.094 127.241 657.173 129.883Z" fill="white"/>
<path d="M653.585 120.161C654.479 121.159 656.784 121.985 657.816 121.882C658.32 121.469 659.508 120.547 660.223 120.161C660.938 119.776 662.034 118.922 662.493 118.543C663.513 117.97 665.664 116.588 666.104 115.652C667.652 114.895 667.824 113.449 667.858 112.692C667.893 111.935 667.17 111.694 666.895 111.315C666.62 110.936 662.149 107.682 660.223 107.923C658.297 108.164 656.46 111.005 656.013 111.315C655.566 111.625 652.161 113.484 651.61 114.207C651.06 114.929 650.352 115.45 650.696 116.208C651.04 116.965 652.691 119.163 653.585 120.161Z" fill="white"/>
<path d="M653.585 120.161C654.479 121.159 656.784 121.985 657.816 121.882C658.32 121.469 659.508 120.547 660.223 120.161C660.938 119.776 662.034 118.922 662.493 118.543C663.513 117.97 665.664 116.588 666.104 115.652C667.652 114.895 667.824 113.449 667.858 112.692C667.893 111.935 667.17 111.694 666.895 111.315C666.62 110.936 662.149 107.682 660.223 107.923C658.297 108.164 656.46 111.005 656.013 111.315C655.566 111.625 652.161 113.484 651.61 114.207C651.06 114.929 650.352 115.45 650.696 116.208C651.04 116.965 652.691 119.163 653.585 120.161Z" fill="url(#paint14_linear_1390_292)"/>
<path d="M648.649 116.003C650.45 115.803 655.933 119.445 655.933 121.806C655.533 123.887 654.172 124.968 653.131 125.768C652.091 126.569 649.089 129.17 647.848 129.771C646.608 130.371 643.326 128.89 642.245 127.97C641.165 127.049 639.564 124.928 639.684 124.127C639.804 123.327 642.005 121.806 642.726 120.726C643.446 119.645 646.848 116.203 648.649 116.003Z" fill="white"/>
<path d="M704.239 144.891V127.641H702.879L678.705 147.692L677.865 149.333L678.705 165.662H680.226L704.239 144.891Z" fill="#D1CAFF"/>
<path d="M599.926 253.994L567.836 239.126L533.267 251.454L565.543 268.986L599.926 253.994Z" fill="#D1CAFF"/>
<path d="M599.925 253.994L595.465 291.226L563.746 308.82L565.543 268.986L599.925 253.994Z" fill="#C4BBFB"/>
<path d="M533.267 251.454L534.32 289.926L563.746 308.821L565.543 268.986L533.267 251.454Z" fill="#BAB2EA"/>
<rect x="495.444" y="152.403" width="37.3056" height="17.3833" transform="rotate(-48.2094 495.444 152.403)" fill="#C4BBFB"/>
<path d="M469.888 165.051L482.307 151.283L493.951 162.72L482.106 175.971L469.888 165.051Z" fill="#C4BBFB"/>
<path d="M458.836 162.924L470.492 164.375L482.195 175.872L472.211 175.007L458.836 162.924Z" fill="#BAB2EA"/>
<path d="M482.813 151.891L506.977 123.747L520.306 124.587L495.445 152.402L482.813 151.891Z" fill="#D1CAFF"/>
<path d="M458.858 162.964L482.373 136.655L495.703 137.496L470.842 165.31L458.858 162.964Z" fill="#D1CAFF"/>
<path d="M482.841 151.86L495.43 152.39L508.405 163.987L493.834 162.615L482.841 151.86Z" fill="#BAB2EA"/>
<path d="M432.664 169.881L436.747 154.641L442.515 152.151L437.995 169.041L432.664 169.881Z" fill="#D1CAFF"/>
<path d="M427.95 170.327L429.289 165.327L435.178 162.758L434.074 167.859L427.95 170.327Z" fill="#D1CAFF"/>
<path d="M419.519 164.056L415.284 179.863L441.679 186.936L445.914 171.129L450.431 154.274L442.514 152.152L437.998 169.007L419.519 164.056Z" fill="#C4BBFB"/>
<path d="M412.628 181.337L415.283 179.863L441.678 186.935L438.516 188.274L412.628 181.337Z" fill="#BAB2EA"/>
<path d="M412.626 181.424L416.451 167.15L419.509 164.092L415.26 179.951L412.626 181.424Z" fill="#D1CAFF"/>
<path d="M302.715 106.251C297.165 91.6799 279.818 78.4966 263.859 90.986C258.309 97.9245 250.954 113.189 265.941 118.74C264.553 120.822 251.37 120.822 245.819 118.74C240.268 116.658 230.554 117.352 232.636 122.209C234.718 127.066 245.819 125.679 261.084 129.148C276.349 132.617 279.124 135.392 289.532 134.699C299.94 134.005 289.532 130.535 306.185 131.923C322.837 133.311 377.652 138.168 374.876 130.535C372.101 122.903 356.836 127.066 348.51 127.066C340.184 127.066 336.02 120.128 329.776 118.74C323.531 117.352 324.919 123.597 320.756 123.597C316.592 123.597 308.266 120.822 302.715 106.251Z" fill="white"/>
<path fill-rule="evenodd" clip-rule="evenodd" d="M319.617 133.016C316.817 132.129 314.297 130.164 312.163 128.501C312.005 128.378 311.85 128.257 311.697 128.138C311.187 127.743 310.696 127.328 310.206 126.914C309.148 126.02 308.095 125.13 306.874 124.451C305.388 123.623 304.106 123.034 302.359 123.103C300.837 123.163 299.448 123.68 298.044 124.202C297.932 124.244 297.82 124.286 297.707 124.327C296.864 124.639 296.071 125.064 295.279 125.488C294.133 126.103 292.989 126.715 291.701 126.982C289.44 127.449 286.963 127.777 284.99 126.339C284.863 126.246 284.734 126.154 284.602 126.06C283.31 125.139 281.866 124.109 281.536 121.961C281.492 121.674 281.455 121.344 281.417 121.01C281.297 119.947 281.172 118.835 280.804 118.916C279.23 119.266 277.438 119.38 275.817 119.402C274.957 119.414 274.096 119.41 273.235 119.406C272.805 119.404 272.375 119.402 271.945 119.402C271.683 119.402 271.418 119.409 271.152 119.417C270.615 119.432 270.075 119.447 269.551 119.402C268.329 119.298 267.095 119.079 265.875 118.827C264.182 120.821 251.292 120.792 245.819 118.74C240.268 116.659 230.554 117.352 232.636 122.209C233.942 125.258 238.802 125.846 246.014 126.72C250.293 127.238 255.4 127.856 261.084 129.148C266.316 130.337 270.081 131.445 273.189 132.359C279.148 134.112 282.692 135.155 289.532 134.699C293.972 134.403 294.624 133.602 295.204 132.888C295.985 131.929 296.636 131.128 306.185 131.923C306.748 131.97 307.356 132.021 308.003 132.076C311.096 132.335 315.103 132.671 319.617 133.016Z" fill="#EBEDFF"/>
<path fill-rule="evenodd" clip-rule="evenodd" d="M1022.83 193.833C1018.23 189.359 1010.95 196.604 1015.96 202.48L1022.83 193.833Z" fill="#5A60F3"/>
<path fill-rule="evenodd" clip-rule="evenodd" d="M1012.39 257.989C1013.2 250.5 1011.26 240.718 1008.5 233.52C1005.27 225.171 999.596 220.908 1003.98 217.46C1008.64 213.827 1014.92 221.638 1017.44 225.602C1020.8 230.868 1020.07 240.44 1020.58 249.058L1012.39 257.989Z" fill="#444BEF"/>
<path fill-rule="evenodd" clip-rule="evenodd" d="M1044.2 279.851C1038.37 291.105 1023.94 297.125 1015.25 297.867C1001.89 299.003 989.014 288.688 976.094 285.948C970.779 284.821 962.557 284.863 958.9 286.038C978.689 263.992 999.848 290.114 1005.55 266.153L1044.2 279.851Z" fill="url(#paint15_linear_1390_292)"/>
<path fill-rule="evenodd" clip-rule="evenodd" d="M1017.78 228.442C1013.98 247.092 989.442 284.991 1001.77 299.01C1005.12 302.808 1011 303.018 1014.55 301.333C1016.48 300.404 1019.26 297.957 1021.28 298.68C1024.79 299.927 1025.8 301.884 1028.09 303.552C1033.31 307.381 1039.92 306.995 1043.65 301.692C1048.31 295.106 1051.58 261.44 1053.44 247.319C1041.83 213.438 1029.91 209.315 1017.78 228.442Z" fill="#5A60F3"/>
<path fill-rule="evenodd" clip-rule="evenodd" d="M1017.78 228.442C1016.41 235.171 1012.37 244.165 1008.33 253.568C1001.19 270.228 1040.76 238.429 1042.65 224.312C1031.01 190.427 1029.91 209.315 1017.78 228.442Z" fill="url(#paint16_linear_1390_292)"/>
<path fill-rule="evenodd" clip-rule="evenodd" d="M1042.65 224.312C1033.84 240.552 1017.14 235.051 1013.75 232.849C1009.64 230.184 1002.42 221.821 1009.3 214.102C1012.13 210.919 1011.53 205.602 1013.99 201.843C1023.28 187.517 1035.1 190.879 1041.65 193.427C1044.04 194.358 1051.72 198.027 1053.2 203.994C1055.93 214.852 1055.85 235.079 1053.44 247.319L1042.65 224.312Z" fill="#5A60F3"/>
<path fill-rule="evenodd" clip-rule="evenodd" d="M1042.65 224.312C1040.52 228.238 1047.38 205.736 1045.62 202.96C1044.38 200.996 1051.72 198.028 1053.2 203.995C1054.83 210.442 1055.45 220.19 1055.19 229.61C1055.01 236.054 1054.43 242.348 1053.44 247.319L1042.65 224.312Z" fill="url(#paint17_linear_1390_292)"/>
<path d="M1036.62 224.984C1036.13 225.119 1035.66 224.967 1035.58 224.646C1035.49 224.324 1035.81 223.955 1036.3 223.82C1036.8 223.686 1037.27 223.837 1037.35 224.159C1037.44 224.48 1037.11 224.85 1036.62 224.984Z" fill="#16164F"/>
<path d="M1007.5 218.536C1007.77 218.843 1008.15 218.951 1008.35 218.777C1008.55 218.604 1008.5 218.213 1008.23 217.906C1007.96 217.598 1007.59 217.49 1007.38 217.664C1007.18 217.837 1007.24 218.228 1007.5 218.536Z" fill="#16164F"/>
<path d="M1034.32 228.82C1033.83 228.954 1033.36 228.803 1033.27 228.481C1033.18 228.16 1033.51 227.791 1034 227.656C1034.49 227.522 1034.96 227.673 1035.05 227.994C1035.14 228.316 1034.81 228.685 1034.32 228.82Z" fill="#16164F"/>
<path d="M1007.33 222.107C1007.6 222.414 1007.98 222.522 1008.18 222.349C1008.38 222.175 1008.33 221.784 1008.06 221.477C1007.79 221.169 1007.42 221.061 1007.21 221.235C1007.01 221.408 1007.07 221.799 1007.33 222.107Z" fill="#16164F"/>
<path d="M1030.24 227.076C1029.75 227.211 1029.28 227.059 1029.2 226.738C1029.11 226.417 1029.43 226.047 1029.93 225.913C1030.42 225.778 1030.89 225.93 1030.97 226.251C1031.06 226.572 1030.74 226.942 1030.24 227.076Z" fill="#16164F"/>
<path d="M1010.8 222.757C1011.06 223.064 1011.44 223.173 1011.64 222.999C1011.84 222.825 1011.79 222.435 1011.53 222.127C1011.26 221.819 1010.88 221.711 1010.68 221.885C1010.48 222.059 1010.53 222.449 1010.8 222.757Z" fill="#16164F"/>
<path fill-rule="evenodd" clip-rule="evenodd" d="M1018.79 219.879C1020.45 220.309 1022.25 221.471 1021.94 222.675C1021.79 223.283 1020.9 223.87 1020.08 224.41C1019.28 224.943 1018.56 225.433 1017.73 225.22C1016.07 224.789 1014.41 222.284 1014.72 221.079C1015.03 219.874 1017.12 219.448 1018.79 219.879Z" fill="#16164F"/>
<path fill-rule="evenodd" clip-rule="evenodd" d="M1055.24 226.068C1055.41 231.395 1054.43 233.747 1055.96 234.644C1058.44 236.092 1066.05 229.654 1069.12 230.442C1072.97 231.428 1071.56 236.953 1069.76 238.839C1064.77 244.098 1053.61 250.139 1051.7 261.502C1051.25 259.383 1050.91 257.249 1050.69 255.078C1049.79 246.443 1050.74 237.212 1055.24 226.068Z" fill="#5A60F3"/>
<path d="M1043.17 207.551C1044.35 210.791 1047.95 212.452 1051.22 211.262C1054.49 210.071 1056.18 206.48 1055 203.24C1053.82 200 1050.21 198.338 1046.95 199.529C1043.68 200.719 1041.99 204.31 1043.17 207.551Z" fill="#5A60F3"/>
<path fill-rule="evenodd" clip-rule="evenodd" d="M1031.54 215.184L1029.06 216.458C1028.63 216.677 1028.12 216.511 1027.88 216.076C1027.68 215.656 1027.85 215.133 1028.28 214.914L1031.44 213.302C1031.81 213.102 1032.3 213.227 1032.53 213.573L1035.42 217.675C1035.72 218.074 1035.62 218.614 1035.21 218.885C1034.81 219.156 1034.27 219.061 1034.01 218.677L1031.54 215.184Z" fill="#16164F"/>
<path fill-rule="evenodd" clip-rule="evenodd" d="M1014.12 211.327L1012.36 212.671C1012 212.934 1011.52 212.879 1011.25 212.53C1010.98 212.18 1011.02 211.672 1011.38 211.408L1013.82 209.53C1014 209.395 1014.23 209.341 1014.46 209.384C1014.66 209.413 1014.85 209.543 1014.98 209.734L1016.75 212.512C1017.01 212.891 1016.89 213.38 1016.51 213.61C1016.16 213.855 1015.66 213.745 1015.43 213.38L1014.12 211.327Z" fill="#16164F"/>
<ellipse cx="1040.55" cy="306.094" rx="8.8337" ry="4.13492" transform="rotate(21.7489 1040.55 306.094)" fill="#5A60F3"/>
<ellipse cx="1001.13" cy="303.936" rx="8.8337" ry="5.03899" transform="rotate(-42.4986 1001.13 303.936)" fill="#5A60F3"/>
<path fill-rule="evenodd" clip-rule="evenodd" d="M946.109 201.247C940.499 198.157 935.577 207.023 941.961 211.353L946.109 201.247Z" fill="#F5B523"/>
<path fill-rule="evenodd" clip-rule="evenodd" d="M952.286 233.805C951.369 240.344 947.684 248.285 943.873 253.861C939.421 260.322 933.81 262.814 936.713 266.629C939.811 270.658 946.672 265.265 949.609 262.397C953.51 258.585 954.93 250.288 957.185 243.053L952.286 233.805Z" fill="#FF9C01"/>
<path fill-rule="evenodd" clip-rule="evenodd" d="M950.855 235.61C951.622 246.105 947.438 260.683 946.678 272.919C946.262 279.793 934.372 283.43 941.331 295.947C943.762 300.332 951.712 298.947 955.77 298.732C957.912 298.618 963.692 298.955 965.835 299.096C968.642 299.281 969.785 299.435 972.407 300.411C978.466 302.653 991.151 296.348 993.837 288.803C996.541 281.257 992.151 257.972 990.155 243.988C969.917 214.785 957.372 214.071 950.855 235.61Z" fill="#F5B523"/>
<path fill-rule="evenodd" clip-rule="evenodd" d="M950.772 235.613C951.257 242.409 949.792 252.088 948.432 262.158C946.046 279.993 975.548 238.938 973.564 224.951C953.274 195.743 957.293 214.074 950.772 235.613Z" fill="url(#paint18_linear_1390_292)"/>
<path fill-rule="evenodd" clip-rule="evenodd" d="M993.845 288.795C996.542 281.249 947.582 260.683 946.822 272.919C946.406 279.793 934.549 283.432 941.487 295.947C943.91 300.332 951.375 300.779 956.386 300.379C958.518 300.208 963.784 298.952 965.92 299.092C968.719 299.277 969.026 298.371 971.641 299.347C977.681 301.588 991.165 296.34 993.845 288.795Z" fill="url(#paint19_linear_1390_292)"/>
<path fill-rule="evenodd" clip-rule="evenodd" d="M986.928 239.601C983.747 240.73 981.096 266.172 979.71 269.02C977.182 274.215 974.275 272.02 969.604 276.123C962.439 282.42 962.278 291.862 965.971 299.112C967.262 301.65 969.321 301.164 972.191 301.148C978.666 301.111 991.087 296.35 993.774 288.806C996.48 281.26 992.062 257.975 990.08 243.988C988.998 242.447 987.96 240.983 986.928 239.601Z" fill="#F5B523"/>
<ellipse rx="8.86873" ry="5.04984" transform="matrix(-0.453253 -0.881217 0.895419 -0.464679 961.747 293.827)" fill="#F5B523"/>
<ellipse rx="8.86866" ry="5.05215" transform="matrix(-0.40291 -0.905473 0.919693 -0.414289 938.685 290.855)" fill="#EF990B"/>
<path fill-rule="evenodd" clip-rule="evenodd" d="M973.458 224.949C969.362 242.833 951.877 242.101 948.037 240.916C943.387 239.483 934.222 233.455 938.754 224.225C940.611 220.422 938.615 215.508 939.967 211.255C945.042 195.067 957.271 195.079 964.235 195.737C966.779 195.979 975.121 197.405 978.145 202.698C983.666 212.324 989.006 231.652 989.967 243.989L973.458 224.949Z" fill="#F5B523"/>
<path fill-rule="evenodd" clip-rule="evenodd" d="M973.377 224.942C972.387 229.265 972.926 205.928 970.487 203.751C968.76 202.212 975.027 197.396 978.066 202.692C981.364 208.41 984.588 217.551 986.878 226.615C988.437 232.818 989.576 238.984 989.964 243.997L973.377 224.942Z" fill="url(#paint20_linear_1390_292)"/>
<path d="M967.853 227.226C967.421 227.485 966.933 227.464 966.761 227.178C966.589 226.893 966.799 226.452 967.23 226.193C967.661 225.934 968.15 225.955 968.322 226.241C968.494 226.526 968.284 226.967 967.853 227.226Z" fill="#16164F"/>
<path d="M938.267 228.957C938.6 229.175 938.99 229.169 939.14 228.945C939.289 228.721 939.141 228.362 938.808 228.144C938.476 227.927 938.085 227.932 937.936 228.156C937.786 228.381 937.935 228.739 938.267 228.957Z" fill="#16164F"/>
<path d="M966.674 231.511C966.243 231.77 965.754 231.749 965.582 231.464C965.41 231.179 965.62 230.738 966.051 230.479C966.482 230.22 966.971 230.241 967.143 230.526C967.315 230.811 967.105 231.252 966.674 231.511Z" fill="#16164F"/>
<path d="M939.067 232.412C939.399 232.63 939.79 232.625 939.94 232.4C940.089 232.176 939.941 231.818 939.608 231.6C939.276 231.382 938.885 231.387 938.735 231.612C938.586 231.836 938.735 232.195 939.067 232.412Z" fill="#16164F"/>
<path d="M962.349 230.947C961.918 231.206 961.429 231.185 961.257 230.9C961.085 230.615 961.295 230.174 961.726 229.915C962.157 229.656 962.646 229.677 962.818 229.962C962.99 230.247 962.78 230.688 962.349 230.947Z" fill="#16164F"/>
<path d="M942.553 232.093C942.886 232.311 943.276 232.305 943.426 232.081C943.575 231.857 943.427 231.498 943.095 231.281C942.762 231.063 942.371 231.068 942.222 231.292C942.072 231.517 942.221 231.875 942.553 232.093Z" fill="#16164F"/>
<path fill-rule="evenodd" clip-rule="evenodd" d="M949.484 227.188C951.198 227.142 953.242 227.752 953.261 228.98C953.27 229.599 952.569 230.399 951.927 231.134C951.301 231.857 950.733 232.52 949.884 232.542C948.169 232.588 945.908 230.665 945.89 229.436C945.871 228.208 947.769 227.234 949.484 227.188Z" fill="#16164F"/>
<path fill-rule="evenodd" clip-rule="evenodd" d="M988.572 247.051C982.144 240.437 979.395 229.895 981.26 229.639C984.248 229.235 988.007 212.218 991.028 210.889C994.827 209.216 997.316 214.733 997.086 217.473C996.465 225.093 990.185 248.716 988.572 247.051Z" fill="#FF9C01"/>
<path d="M940.242 220.463C940.334 221.657 941.121 222.569 942.002 222.499C942.882 222.429 943.521 221.404 943.429 220.209C943.338 219.015 942.55 218.104 941.67 218.174C940.79 218.244 940.151 219.269 940.242 220.463Z" fill="#16164F"/>
<path d="M959.584 219.324C959.676 220.518 960.463 221.43 961.343 221.36C962.223 221.29 962.863 220.264 962.771 219.07C962.68 217.876 961.892 216.965 961.012 217.035C960.132 217.105 959.493 218.129 959.584 219.324Z" fill="#16164F"/>
<path d="M969.301 208.801C971.304 211.582 975.196 212.206 977.993 210.194C980.79 208.182 981.433 204.296 979.43 201.515C977.427 198.733 973.535 198.109 970.738 200.121C967.941 202.133 967.298 206.019 969.301 208.801Z" fill="#F5B523"/>
<path fill-rule="evenodd" clip-rule="evenodd" d="M940.189 259.64C939.665 261.532 939.028 261.847 938.203 260.366C937.814 259.197 938.353 258.604 939.822 258.574L940.47 259.65" fill="#FF9C01"/>
</g>
<defs>
<filter id="filter0_d_1390_292" x="-29.7808" y="86" width="1499.68" height="572.393" filterUnits="userSpaceOnUse" color-interpolation-filters="sRGB">
<feFlood flood-opacity="0" result="BackgroundImageFix"/>
<feColorMatrix in="SourceAlpha" type="matrix" values="0 0 0 0 0 0 0 0 0 0 0 0 0 0 0 0 0 0 127 0" result="hardAlpha"/>
<feOffset dy="4"/>
<feGaussianBlur stdDeviation="2"/>
<feComposite in2="hardAlpha" operator="out"/>
<feColorMatrix type="matrix" values="0 0 0 0 0 0 0 0 0 0 0 0 0 0 0 0 0 0 0.25 0"/>
<feBlend mode="normal" in2="BackgroundImageFix" result="effect1_dropShadow_1390_292"/>
<feBlend mode="normal" in="SourceGraphic" in2="effect1_dropShadow_1390_292" result="shape"/>
</filter>
<linearGradient id="paint0_linear_1390_292" x1="824.975" y1="530.827" x2="703.775" y2="146.773" gradientUnits="userSpaceOnUse">
<stop offset="0.901042" stop-color="white"/>
<stop offset="1" stop-color="white" stop-opacity="0"/>
</linearGradient>
<linearGradient id="paint1_linear_1390_292" x1="824.797" y1="556.039" x2="703.597" y2="171.985" gradientUnits="userSpaceOnUse">
<stop offset="0.901042" stop-color="white"/>
<stop offset="1" stop-color="white" stop-opacity="0"/>
</linearGradient>
<linearGradient id="paint2_linear_1390_292" x1="824.62" y1="581.251" x2="703.42" y2="197.197" gradientUnits="userSpaceOnUse">
<stop offset="0.901042" stop-color="white"/>
<stop offset="1" stop-color="white" stop-opacity="0"/>
</linearGradient>
<linearGradient id="paint3_linear_1390_292" x1="824.444" y1="606.462" x2="703.244" y2="222.409" gradientUnits="userSpaceOnUse">
<stop offset="0.901042" stop-color="white"/>
<stop offset="1" stop-color="white" stop-opacity="0"/>
</linearGradient>
<linearGradient id="paint4_linear_1390_292" x1="824.266" y1="631.676" x2="703.066" y2="247.622" gradientUnits="userSpaceOnUse">
<stop offset="0.901042" stop-color="white"/>
<stop offset="1" stop-color="white" stop-opacity="0"/>
</linearGradient>
<linearGradient id="paint5_linear_1390_292" x1="824.09" y1="656.887" x2="702.89" y2="272.834" gradientUnits="userSpaceOnUse">
<stop offset="0.901042" stop-color="white"/>
<stop offset="1" stop-color="white" stop-opacity="0"/>
</linearGradient>
<linearGradient id="paint6_linear_1390_292" x1="823.913" y1="682.099" x2="702.713" y2="298.045" gradientUnits="userSpaceOnUse">
<stop offset="0.901042" stop-color="white"/>
<stop offset="1" stop-color="white" stop-opacity="0"/>
</linearGradient>
<linearGradient id="paint7_linear_1390_292" x1="823.735" y1="707.311" x2="702.535" y2="323.257" gradientUnits="userSpaceOnUse">
<stop offset="0.901042" stop-color="white"/>
<stop offset="1" stop-color="white" stop-opacity="0"/>
</linearGradient>
<linearGradient id="paint8_linear_1390_292" x1="823.558" y1="732.523" x2="702.358" y2="348.469" gradientUnits="userSpaceOnUse">
<stop offset="0.901042" stop-color="white"/>
<stop offset="1" stop-color="white" stop-opacity="0"/>
</linearGradient>
<linearGradient id="paint9_linear_1390_292" x1="260.675" y1="249.133" x2="262.14" y2="284.034" gradientUnits="userSpaceOnUse">
<stop stop-color="#3F26D2"/>
<stop offset="1" stop-color="white" stop-opacity="0"/>
</linearGradient>
<linearGradient id="paint10_linear_1390_292" x1="263.574" y1="250.168" x2="241.639" y2="272.446" gradientUnits="userSpaceOnUse">
<stop stop-color="#B0A5F1"/>
<stop offset="1" stop-color="white" stop-opacity="0"/>
</linearGradient>
<linearGradient id="paint11_linear_1390_292" x1="254.412" y1="256.812" x2="271.392" y2="251.747" gradientUnits="userSpaceOnUse">
<stop stop-color="#3C1CED"/>
<stop offset="1" stop-color="white" stop-opacity="0"/>
</linearGradient>
<linearGradient id="paint12_linear_1390_292" x1="244.134" y1="271.14" x2="273.561" y2="242.371" gradientUnits="userSpaceOnUse">
<stop offset="0.218958" stop-color="#897AE5"/>
<stop offset="1" stop-color="white" stop-opacity="0"/>
</linearGradient>
<linearGradient id="paint13_linear_1390_292" x1="244.472" y1="241.946" x2="258.613" y2="266.771" gradientUnits="userSpaceOnUse">
<stop stop-color="#B4AAF2"/>
<stop offset="1" stop-color="white" stop-opacity="0"/>
</linearGradient>
<linearGradient id="paint14_linear_1390_292" x1="649.209" y1="123.679" x2="659.233" y2="121.891" gradientUnits="userSpaceOnUse">
<stop stop-color="#D1CAFF"/>
<stop offset="1" stop-color="white" stop-opacity="0"/>
</linearGradient>
<linearGradient id="paint15_linear_1390_292" x1="982.152" y1="284.697" x2="1030.89" y2="289.774" gradientUnits="userSpaceOnUse">
<stop stop-color="#484FF2"/>
<stop offset="1" stop-color="#0008C8"/>
</linearGradient>
<linearGradient id="paint16_linear_1390_292" x1="1010.81" y1="221.341" x2="1023.29" y2="241.325" gradientUnits="userSpaceOnUse">
<stop stop-color="#1119E4"/>
<stop offset="1" stop-color="#1119E4" stop-opacity="0"/>
</linearGradient>
<linearGradient id="paint17_linear_1390_292" x1="1046.67" y1="212.697" x2="1056.45" y2="197.331" gradientUnits="userSpaceOnUse">
<stop stop-color="#5A60F3"/>
<stop offset="1" stop-color="#0008D7"/>
</linearGradient>
<linearGradient id="paint18_linear_1390_292" x1="943.268" y1="232.624" x2="959.426" y2="246.53" gradientUnits="userSpaceOnUse">
<stop stop-color="#F5B523"/>
<stop offset="1" stop-color="#F5B523" stop-opacity="0"/>
</linearGradient>
<linearGradient id="paint19_linear_1390_292" x1="969.793" y1="276.112" x2="958.516" y2="310.329" gradientUnits="userSpaceOnUse">
<stop stop-color="#F5B523"/>
<stop offset="0.16" stop-color="#FDA71A"/>
<stop offset="0.95" stop-color="#E79002"/>
<stop offset="1" stop-color="#444BEF"/>
</linearGradient>
<linearGradient id="paint20_linear_1390_292" x1="974.117" y1="212.766" x2="979.29" y2="195.421" gradientUnits="userSpaceOnUse">
<stop stop-color="#F5B523"/>
<stop offset="1" stop-color="#CD7F00"/>
</linearGradient>
</defs>
</svg>
