<svg width="238" height="272" viewBox="0 0 238 272" fill="none" xmlns="http://www.w3.org/2000/svg">
<path fill-rule="evenodd" clip-rule="evenodd" d="M137.469 18.9561C129.446 9.70203 114.422 22.2962 122.992 34.2823L137.469 18.9561Z" fill="#5A60F3"/>
<path fill-rule="evenodd" clip-rule="evenodd" d="M102.629 138.066C107.46 124.527 94.9487 109.373 93.0352 94.7893C90.7466 77.8572 95.3641 63.5571 105.028 59.1062C115.297 54.4358 111.887 84.7303 114.818 93.2098C118.705 104.476 124.672 108.906 121.799 125.13L102.629 138.066Z" fill="#363DE9"/>
<path fill-rule="evenodd" clip-rule="evenodd" d="M164.366 182.065C151.446 202.518 123.028 211.623 106.389 211.623C80.7936 211.615 57.9856 189.909 33.8632 182.602C23.9385 179.596 8.29787 178.342 1.15286 179.981C42.3615 141.272 78.355 194.38 93.0937 149.744L164.366 182.065Z" fill="url(#paint0_linear_7049_793)"/>
<path fill-rule="evenodd" clip-rule="evenodd" d="M122.251 83.9457C111.991 118.793 44.7803 194.427 65.262 222.145C78.2074 232.385 79.7634 231.464 88.67 224.452C98.1878 215.471 93.7619 214.022 103.04 218.247C112.318 222.472 93.3808 233.73 113.228 244.859C129.735 254.115 149.636 242.393 157.118 227.296C165.09 211.21 181.156 152.178 186.993 125.63C170.408 59.318 148.423 49.5446 122.251 83.9457Z" fill="#5A60F3"/>
<path fill-rule="evenodd" clip-rule="evenodd" d="M122.241 83.9444C118.532 96.5168 108.662 112.013 99.4484 129.237C83.1682 159.758 164.319 106.666 170.191 80.1282C153.571 13.8058 148.412 49.5433 122.241 83.9444Z" fill="url(#paint1_linear_7049_793)"/>
<path fill-rule="evenodd" clip-rule="evenodd" d="M170.202 80.131C150.821 109.582 119.96 96.412 113.871 91.6744C106.497 85.9393 94.1177 68.8646 108.456 55.3036C114.346 49.7098 114.073 39.5019 119.359 32.754C139.352 7.02068 161.274 15.3318 173.32 21.2391C177.718 23.3979 191.719 31.622 193.579 43.2103C197.002 64.2992 193.571 102.748 186.994 125.632L170.202 80.131Z" fill="#5A60F3"/>
<path fill-rule="evenodd" clip-rule="evenodd" d="M170.205 80.1301C165.524 87.2499 182.217 45.5749 179.328 40.0112C177.28 36.0737 191.722 31.6211 193.582 43.2094C195.621 55.7329 195.219 74.3694 193.201 92.241C191.804 104.464 189.683 116.339 186.997 125.631L170.205 80.1301Z" fill="url(#paint2_linear_7049_793)"/>
<path d="M158.64 80.4308C157.685 80.6068 156.817 80.2426 156.702 79.6173C156.587 78.992 157.268 78.3425 158.223 78.1664C159.178 77.9904 160.047 78.3545 160.162 78.9798C160.277 79.6051 159.596 80.2548 158.64 80.4308Z" fill="#16164F"/>
<path d="M104.309 63.4393C104.764 64.0674 105.466 64.3348 105.877 64.0367C106.288 63.7387 106.253 62.9881 105.797 62.3601C105.342 61.732 104.639 61.4642 104.228 61.7623C103.817 62.0603 103.853 62.8113 104.309 63.4393Z" fill="#16164F"/>
<path d="M153.64 87.3487C152.685 87.5248 151.817 87.1605 151.702 86.5353C151.587 85.91 152.268 85.2604 153.223 85.0844C154.178 84.9084 155.047 85.2725 155.162 85.8978C155.277 86.5231 154.596 87.1727 153.64 87.3487Z" fill="#16164F"/>
<path d="M103.41 70.203C103.866 70.831 104.568 71.0984 104.979 70.8004C105.39 70.5024 105.354 69.7518 104.899 69.1238C104.444 68.4957 103.741 68.2279 103.33 68.5259C102.919 68.824 102.955 69.5749 103.41 70.203Z" fill="#16164F"/>
<path d="M146.171 83.3722C145.216 83.5482 144.348 83.184 144.233 82.5587C144.118 81.9334 144.799 81.2839 145.754 81.1078C146.71 80.9318 147.578 81.296 147.693 81.9212C147.808 82.5465 147.127 83.1962 146.171 83.3722Z" fill="#16164F"/>
<path d="M109.891 71.9999C110.346 72.6279 111.048 72.8953 111.459 72.5973C111.87 72.2993 111.835 71.5487 111.379 70.9206C110.924 70.2926 110.221 70.0248 109.81 70.3228C109.399 70.6208 109.435 71.3718 109.891 71.9999Z" fill="#16164F"/>
<path fill-rule="evenodd" clip-rule="evenodd" d="M125.551 67.825C128.645 68.9132 131.889 71.4152 131.101 73.6557C130.704 74.7846 128.916 75.7572 127.278 76.6516C125.675 77.5352 124.219 78.3499 122.686 77.8106C119.592 76.7223 116.839 71.6884 117.628 69.4477C118.416 67.2073 122.457 66.7367 125.551 67.825Z" fill="#16164F"/>
<path d="M173.913 48.339C175.632 54.6917 182.219 58.4364 188.627 56.7033C195.035 54.9701 198.837 48.4155 197.119 42.0629C195.401 35.7102 188.813 31.9655 182.405 33.6986C175.997 35.4318 172.195 41.9864 173.913 48.339Z" fill="#5A60F3"/>
<path fill-rule="evenodd" clip-rule="evenodd" d="M150.561 60.9679L145.642 62.989C144.802 63.3368 143.849 62.9368 143.469 62.0711C143.154 61.2398 143.566 60.2742 144.406 59.9257L150.677 57.374C151.42 57.0533 152.335 57.3711 152.72 58.0674L157.547 66.3358C158.04 67.1424 157.763 68.1529 156.953 68.6029C156.143 69.0536 155.124 68.7846 154.695 68.0123L150.561 60.9679Z" fill="#16164F"/>
<path fill-rule="evenodd" clip-rule="evenodd" d="M118.065 50.807L114.496 53.0752C113.772 53.5184 112.877 53.3372 112.416 52.6282C111.955 51.9192 112.122 50.9593 112.846 50.5155L117.785 47.3409C118.15 47.1141 118.596 47.048 119.03 47.1682C119.398 47.254 119.751 47.5333 119.966 47.9182L122.879 53.487C123.312 54.2502 123.008 55.1601 122.237 55.5351C121.531 55.9443 120.602 55.6544 120.235 54.9249L118.065 50.807Z" fill="#16164F"/>
<path d="M142.697 71.8972C129.996 76.868 133.853 115.31 162.297 134.933C176.324 145.543 196.361 125.827 178.618 111.812C160.095 102.761 160.464 87.2572 157.833 80.5994C155.808 75.4781 152.014 68.2504 142.697 71.8972Z" fill="#363DE9"/>
<path fill-rule="evenodd" clip-rule="evenodd" d="M88.7711 209.283C97.8106 220.704 83.487 231.568 70.2129 240.502C66.9518 251.996 61.3556 258.175 55.419 254.182C50.5943 250.925 54.2325 236.109 59.1521 229.538C57.0148 212.828 61.0258 196.123 69.3867 181.56L88.7711 209.283Z" fill="#5A60F3"/>
<path fill-rule="evenodd" clip-rule="evenodd" d="M149.238 237.344C131.922 255.185 112.445 256.393 98.6456 253.452C92.9153 259.493 81.9643 263.962 78.2073 258.598C73.5249 251.904 85.7564 241.834 90.6474 238.619C95.0127 229.151 103.383 216.677 116.314 211.9L149.238 237.344Z" fill="#5A60F3"/>
<defs>
<linearGradient id="paint0_linear_7049_793" x1="45.3646" y1="185.134" x2="137.228" y2="202.701" gradientUnits="userSpaceOnUse">
<stop stop-color="#484FF2"/>
<stop offset="1" stop-color="#0008C8"/>
</linearGradient>
<linearGradient id="paint1_linear_7049_793" x1="110.142" y1="69.3114" x2="130.625" y2="109.338" gradientUnits="userSpaceOnUse">
<stop stop-color="#1119E4"/>
<stop offset="1" stop-color="#1119E4" stop-opacity="0"/>
</linearGradient>
<linearGradient id="paint2_linear_7049_793" x1="179.736" y1="58.6957" x2="200.84" y2="31.0658" gradientUnits="userSpaceOnUse">
<stop stop-color="#5A60F3"/>
<stop offset="1" stop-color="#0008D7"/>
</linearGradient>
</defs>
</svg>
