<svg width="128" height="133" viewBox="0 0 128 133" fill="none" xmlns="http://www.w3.org/2000/svg">
<path fill-rule="evenodd" clip-rule="evenodd" d="M106.129 29.6461C115.099 13.6775 103.099 8.48289 90.3285 10.4309C90.3285 10.4309 89.2224 3.36042 89.0781 3.02374C99.78 -0.1267 109.4 -1.01652 116.254 1.31625C135.252 10.0461 134.05 40.2278 80.5406 76.2774C60.0151 90.1057 47.7375 95.8053 31.9854 90.1057C19.4798 94.4826 8.70579 93.6168 0 86.5704C36.2421 83.7807 85.062 56.99 106.129 29.6461ZM24.0252 42.2719L27.3442 44.5566C15.0791 55.7875 7.14269 67.5716 9.35521 76.3015C5.74784 66.5135 12.3613 54.1763 24.0252 42.2719Z" fill="currentColor"/>
<path d="M120.825 78.5864C109.596 102.152 84.7423 117.235 56.7266 125.537C80.2494 126.312 112.803 119.387 127.678 92.845C124.377 95.1233 122.287 95.8276 119.325 95.6654C121.529 90.8449 121.935 82.5986 120.825 78.5864Z" fill="currentColor"/>
<path fill-rule="evenodd" clip-rule="evenodd" d="M96.9322 121.293C98.5978 124.81 100.264 128.141 101.375 130.547C101.56 131.102 101.558 131.657 101.002 131.843C100.632 132.213 100.079 132.213 99.5239 131.843L88.0472 124.069C91.1934 123.329 94.1561 122.404 96.9322 121.293ZM75.6487 115.741L58.251 103.896L66.7637 87.98C71.2055 85.7591 75.4622 82.9831 79.7189 79.8368L97.6732 88.1652L58.4354 103.896L85.2711 96.6785C85.2711 96.6785 87.4934 101.49 90.4546 107.598C85.8277 110.559 81.0158 113.335 75.6487 115.741ZM97.6732 88.1652L82.495 77.6159C85.6412 75.21 90.0859 71.8786 94.7127 68.1771L97.6732 88.1652ZM91.0113 42.8221C84.7187 48.1892 76.7577 53.7414 70.4652 57.813C67.504 59.6637 64.545 61.5145 61.5838 63.1802L19.7578 34.3086L85.6434 4.69678L91.0113 42.8221Z" fill="currentColor"/>
</svg>
