<svg width="307" height="290" viewBox="0 0 307 290" fill="none" xmlns="http://www.w3.org/2000/svg">
<path fill-rule="evenodd" clip-rule="evenodd" d="M8.28825 131.63C8.28825 146.363 10.0056 160.291 13.5319 173.275C10.0344 184.301 8.28825 195.704 8.28825 207.188C8.28825 233.431 27.2224 254.235 52.6826 267.861C78.4701 281.662 113.311 289.605 151.151 289.605C188.991 289.605 223.832 281.662 249.62 267.861C275.08 254.235 294.014 233.431 294.014 207.188C294.014 196.347 292.001 185.353 288.524 174.663C292.063 161.393 294.014 147.009 294.014 131.63C294.014 125.253 293.595 119.036 292.779 112.992C301.219 104.782 306.483 93.2831 306.483 80.5545C306.483 55.5663 286.226 35.3094 261.237 35.3094C258.023 35.3094 254.88 35.6462 251.843 36.2882C225.733 13.3525 190.008 0.760498 151.151 0.760498C112.649 0.760498 77.2254 13.1226 51.1789 35.6608C49.3223 35.4287 47.4339 35.3094 45.5213 35.3094C20.5331 35.3094 0.276123 55.5663 0.276123 80.5545C0.276123 91.2293 3.98262 101.051 10.1616 108.784C8.92551 116.137 8.28825 123.763 8.28825 131.63ZM19.2242 207.188C19.2242 195.756 21.1394 184.422 24.9773 173.53C21.1394 160.736 19.2242 146.735 19.2242 131.63C19.2242 122.488 20.1543 113.752 21.9254 105.463C18.169 101.903 15.2174 97.5019 13.3718 92.5618C11.9755 88.8246 11.2121 84.7787 11.2121 80.5545C11.2121 61.6061 26.5728 46.2453 45.5213 46.2453C48.6183 46.2453 51.6194 46.6557 54.4733 47.425C78.5549 24.6337 112.943 11.6964 151.151 11.6964C189.96 11.6964 224.829 25.044 248.958 48.5081C252.771 47.0463 256.91 46.2453 261.237 46.2453C275.449 46.2453 287.642 54.8858 292.85 67.1998C293.067 67.7129 293.272 68.2324 293.465 68.7579C294.812 72.4367 295.547 76.4105 295.547 80.5561C295.547 92.1446 289.802 102.391 281.004 108.603C282.367 115.95 283.079 123.636 283.079 131.632C283.079 147.314 280.92 161.804 277.082 174.985C277.562 176.334 278.015 177.684 278.441 179.035C279.293 181.738 280.037 184.444 280.665 187.145C282.235 193.901 283.079 200.627 283.079 207.19C283.079 247.965 224.071 278.67 151.152 278.67C87.6309 278.67 34.6672 255.37 22.0691 222.411C21.9509 222.101 21.8361 221.791 21.725 221.48C20.0842 216.887 19.2242 212.111 19.2242 207.188Z" fill="white"/>
<path fill-rule="evenodd" clip-rule="evenodd" d="M209.296 151.57C209.296 157.739 214.298 162.74 220.467 162.74C226.636 162.74 231.637 157.739 231.637 151.57C231.637 145.4 226.636 140.399 220.467 140.399C214.298 140.399 209.296 145.4 209.296 151.57ZM84.8248 162.74C78.6555 162.74 73.6543 157.739 73.6543 151.57C73.6543 145.4 78.6555 140.399 84.8248 140.399C90.994 140.399 95.9952 145.4 95.9952 151.57C95.9952 157.739 90.994 162.74 84.8248 162.74ZM46.93 210.951C46.2701 213.413 49.2565 216.353 53.6005 217.517C57.9444 218.681 62.0008 217.628 62.6607 215.166C63.3207 212.703 60.3342 209.763 55.9902 208.599C51.6463 207.435 47.5899 208.488 46.93 210.951ZM86.2492 221.489C85.5893 223.952 88.5758 226.892 92.9198 228.056C97.2637 229.22 101.32 228.167 101.98 225.704C102.64 223.241 99.6534 220.301 95.3095 219.137C90.9656 217.973 86.9092 219.026 86.2492 221.489ZM69.358 237.355C65.0141 236.191 62.0276 233.251 62.6875 230.788C63.3474 228.325 67.4038 227.272 71.7478 228.436C76.0917 229.6 79.0782 232.54 78.4183 235.003C77.7584 237.466 73.7019 238.519 69.358 237.355ZM252.045 217.517C256.388 216.353 259.375 213.413 258.715 210.951C258.055 208.488 253.999 207.435 249.655 208.599C245.311 209.763 242.324 212.703 242.984 215.166C243.644 217.628 247.701 218.681 252.045 217.517ZM212.731 228.056C217.075 226.892 220.061 223.952 219.401 221.489C218.742 219.026 214.685 217.973 210.341 219.137C205.997 220.301 203.011 223.241 203.671 225.704C204.331 228.167 208.387 229.22 212.731 228.056ZM242.963 230.788C243.623 233.251 240.637 236.191 236.293 237.355C231.949 238.519 227.892 237.466 227.232 235.003C226.572 232.54 229.559 229.6 233.903 228.436C238.247 227.272 242.303 228.325 242.963 230.788ZM123.965 199.115C123.965 206.09 140.118 216.807 153.965 216.807C167.811 216.807 183.965 206.09 183.965 199.115C183.965 192.139 167.811 188.335 153.965 188.335C140.118 188.335 123.965 192.139 123.965 199.115Z" fill="white"/>
</svg>
