<svg clip-rule="evenodd" fill-rule="evenodd" stroke-linejoin="round" stroke-miterlimit="2" viewBox="0 0 200 200" xmlns="http://www.w3.org/2000/svg"><g transform="matrix(.9729 0 0 .969027 2.68406 -.767458)"><path d="m166.089 47.104c14.013-24.945-4.734-33.06-24.683-30.017 0 0-1.728-11.045-1.953-11.571 16.718-4.922 31.745-6.312 42.452-2.668 29.679 13.638 27.801 60.786-55.789 117.102-32.064 21.602-51.244 30.505-75.851 21.602-19.536 6.837-36.367 5.485-49.967-5.523 56.616-4.358 132.881-46.209 165.791-88.925zm-128.259 19.724 5.184 3.569c-19.16 17.544-31.558 35.953-28.101 49.59-5.636-15.29 4.696-34.563 22.917-53.159z"/><path d="m189.05 123.556c-17.542 36.812-56.367 60.374-100.132 73.343 36.746 1.212 87.6-9.607 110.837-51.069-5.156 3.559-8.421 4.659-13.049 4.406 3.444-7.531 4.077-20.413 2.344-26.68z" fill-rule="nonzero"/><path d="m151.715 190.271c2.602 5.493 5.205 10.698 6.939 14.456.29.867.286 1.735-.581 2.024-.578.578-1.442.578-2.31 0l-17.928-12.143c4.915-1.156 9.543-2.602 13.88-4.337zm-33.249-8.673-27.178-18.503 13.299-24.864c6.938-3.47 13.588-7.806 20.238-12.721l28.047 13.01-61.296 24.575 41.922-11.276s3.472 7.517 8.098 17.058c-7.228 4.626-14.745 8.962-23.13 12.721zm34.406-43.078-23.711-16.48c4.915-3.758 11.859-8.963 19.086-14.745zm-10.407-70.833c-9.83 8.384-22.266 17.057-32.096 23.418-4.626 2.891-9.248 5.782-13.874 8.384l-65.339-45.102 102.924-46.258z"/></g></svg>
